<?xml version="1.0" encoding="UTF-8" standalone="no"?>
<!DOCTYPE svg PUBLIC "-//W3C//DTD SVG 1.1//EN"
 "http://www.w3.org/Graphics/SVG/1.1/DTD/svg11.dtd">
<!-- Generated by graphviz version 2.43.0 (0)
 -->
<!-- Title: includes/dispatcher/AutoIndexHandler.hpp Pages: 1 -->
<svg width="334pt" height="104pt"
 viewBox="0.00 0.00 334.00 104.00" xmlns="http://www.w3.org/2000/svg" xmlns:xlink="http://www.w3.org/1999/xlink">
<g id="graph0" class="graph" transform="scale(1 1) rotate(0) translate(4 100)">
<title>includes/dispatcher/AutoIndexHandler.hpp</title>
<!-- Node1 -->
<g id="Node000001" class="node">
<title>Node1</title>
<g id="a_Node000001"><a xlink:title=" ">
<polygon fill="#999999" stroke="#666666" points="221.5,-96 93.5,-96 93.5,-66 221.5,-66 221.5,-96"/>
<text text-anchor="start" x="101.5" y="-84" font-family="Helvetica,sans-Serif" font-size="10.00">includes/dispatcher</text>
<text text-anchor="middle" x="157.5" y="-73" font-family="Helvetica,sans-Serif" font-size="10.00">/AutoIndexHandler.hpp</text>
</a>
</g>
</g>
<!-- Node2 -->
<g id="Node000002" class="node">
<title>Node2</title>
<g id="a_Node000002"><a xlink:href="AutoIndexHandler_8cpp.html" target="_top" xlink:title=" ">
<polygon fill="white" stroke="#666666" points="143,-30 0,-30 0,0 143,0 143,-30"/>
<text text-anchor="start" x="8" y="-18" font-family="Helvetica,sans-Serif" font-size="10.00">srcs/dispatcher/AutoIndex</text>
<text text-anchor="middle" x="71.5" y="-7" font-family="Helvetica,sans-Serif" font-size="10.00">Handler.cpp</text>
</a>
</g>
</g>
<!-- Node1&#45;&gt;Node2 -->
<g id="edge1_Node000001_Node000002" class="edge">
<title>Node1&#45;&gt;Node2</title>
<g id="a_edge1_Node000001_Node000002"><a xlink:title=" ">
<path fill="none" stroke="#63b8ff" d="M130.29,-59.75C117.36,-50.13 102.21,-38.86 90.53,-30.16"/>
<polygon fill="#63b8ff" stroke="#63b8ff" points="128.3,-62.63 138.41,-65.8 132.48,-57.02 128.3,-62.63"/>
</a>
</g>
</g>
<!-- Node3 -->
<g id="Node000003" class="node">
<title>Node3</title>
<g id="a_Node000003"><a xlink:href="Dispatcher_8cpp.html" target="_top" xlink:title=" ">
<polygon fill="white" stroke="#666666" points="326,-24.5 161,-24.5 161,-5.5 326,-5.5 326,-24.5"/>
<text text-anchor="middle" x="243.5" y="-12.5" font-family="Helvetica,sans-Serif" font-size="10.00">srcs/dispatcher/Dispatcher.cpp</text>
</a>
</g>
</g>
<!-- Node1&#45;&gt;Node3 -->
<g id="edge2_Node000001_Node000003" class="edge">
<title>Node1&#45;&gt;Node3</title>
<g id="a_edge2_Node000001_Node000003"><a xlink:title=" ">
<path fill="none" stroke="#63b8ff" d="M184.93,-59.58C200.67,-47.87 219.62,-33.77 231.62,-24.84"/>
<polygon fill="#63b8ff" stroke="#63b8ff" points="182.52,-57.02 176.59,-65.8 186.7,-62.63 182.52,-57.02"/>
</a>
</g>
</g>
</g>
</svg>
