<?xml version="1.0" encoding="UTF-8" standalone="no"?>
<!DOCTYPE svg PUBLIC "-//W3C//DTD SVG 1.1//EN"
 "http://www.w3.org/Graphics/SVG/1.1/DTD/svg11.dtd">
<!-- Generated by graphviz version 2.43.0 (0)
 -->
<!-- Title: ConfigParser::parseFile Pages: 1 -->
<svg width="885pt" height="740pt"
 viewBox="0.00 0.00 885.00 740.00" xmlns="http://www.w3.org/2000/svg" xmlns:xlink="http://www.w3.org/1999/xlink">
<g id="graph0" class="graph" transform="scale(1 1) rotate(0) translate(4 736)">
<title>ConfigParser::parseFile</title>
<!-- Node1 -->
<g id="Node000001" class="node">
<title>Node1</title>
<g id="a_Node000001"><a xlink:title="Parses the entire configuration file and returns a populated Config object.">
<polygon fill="#999999" stroke="#666666" points="128,-364 0,-364 0,-345 128,-345 128,-364"/>
<text text-anchor="middle" x="64" y="-352" font-family="Helvetica,sans-Serif" font-size="10.00">ConfigParser::parseFile</text>
</a>
</g>
</g>
<!-- Node2 -->
<g id="Node000002" class="node">
<title>Node2</title>
<g id="a_Node000002"><a xlink:href="classConfigParser.html#adf8ee0cc8bf8ce59570f9af8e70168b5" target="_top" xlink:title="Reads a configuration file and removes comments and uppercase letters.">
<polygon fill="white" stroke="#666666" points="322,-532 164,-532 164,-513 322,-513 322,-532"/>
<text text-anchor="middle" x="243" y="-520" font-family="Helvetica,sans-Serif" font-size="10.00">ConfigParser::cleanConfigFile</text>
</a>
</g>
</g>
<!-- Node1&#45;&gt;Node2 -->
<g id="edge1_Node000001_Node000002" class="edge">
<title>Node1&#45;&gt;Node2</title>
<g id="a_edge1_Node000001_Node000002"><a xlink:title=" ">
<path fill="none" stroke="#63b8ff" d="M68.93,-364.22C79.9,-390.12 113.39,-461.32 164,-498.5 169.89,-502.82 176.57,-506.38 183.48,-509.3"/>
<polygon fill="#63b8ff" stroke="#63b8ff" points="182.41,-512.64 193.01,-512.91 184.89,-506.09 182.41,-512.64"/>
</a>
</g>
</g>
<!-- Node3 -->
<g id="Node000003" class="node">
<title>Node3</title>
<g id="a_Node000003"><a xlink:href="classConfigParser.html#a6188c94ab0c7f0e867d5ffa2a5efb17e" target="_top" xlink:title="Utility: checks if next token matches the expected symbol.">
<polygon fill="white" stroke="#666666" points="692,-732 576,-732 576,-713 692,-713 692,-732"/>
<text text-anchor="middle" x="634" y="-720" font-family="Helvetica,sans-Serif" font-size="10.00">ConfigParser::expect</text>
</a>
</g>
</g>
<!-- Node1&#45;&gt;Node3 -->
<g id="edge2_Node000001_Node000003" class="edge">
<title>Node1&#45;&gt;Node3</title>
<g id="a_edge2_Node000001_Node000003"><a xlink:title=" ">
<path fill="none" stroke="#63b8ff" d="M84.19,-364.01C128.03,-386.08 238.22,-443.59 322,-504.5 429.95,-582.98 426.79,-644.48 546,-704.5 552.2,-707.62 558.91,-710.2 565.76,-712.34"/>
<polygon fill="#63b8ff" stroke="#63b8ff" points="565.28,-715.84 575.85,-715.15 567.16,-709.09 565.28,-715.84"/>
</a>
</g>
</g>
<!-- Node4 -->
<g id="Node000004" class="node">
<title>Node4</title>
<g id="a_Node000004"><a xlink:href="classConfigParser.html#aeb128a03051f57d584d3c5933435f2d4" target="_top" xlink:title="Parses a complete server {} block and adds it to Config.">
<polygon fill="white" stroke="#666666" points="314,-239.5 172,-239.5 172,-209.5 314,-209.5 314,-239.5"/>
<text text-anchor="start" x="180" y="-227.5" font-family="Helvetica,sans-Serif" font-size="10.00">ConfigParser::parseServer</text>
<text text-anchor="middle" x="243" y="-216.5" font-family="Helvetica,sans-Serif" font-size="10.00">Block</text>
</a>
</g>
</g>
<!-- Node1&#45;&gt;Node4 -->
<g id="edge3_Node000001_Node000004" class="edge">
<title>Node1&#45;&gt;Node4</title>
<g id="a_edge3_Node000001_Node000004"><a xlink:title=" ">
<path fill="none" stroke="#63b8ff" d="M78.02,-344.94C106.37,-324.12 174.29,-274.23 213.24,-245.62"/>
<polygon fill="#63b8ff" stroke="#63b8ff" points="215.56,-248.26 221.55,-239.52 211.42,-242.62 215.56,-248.26"/>
</a>
</g>
</g>
<!-- Node32 -->
<g id="Node000032" class="node">
<title>Node32</title>
<g id="a_Node000032"><a xlink:href="classConfigParser.html#a8e830d440fc47e7f12376d102ca25a7b" target="_top" xlink:title="Tokenizes the cleaned configuration text into atomic strings and delimiters.">
<polygon fill="white" stroke="#666666" points="305.5,-191 180.5,-191 180.5,-172 305.5,-172 305.5,-191"/>
<text text-anchor="middle" x="243" y="-179" font-family="Helvetica,sans-Serif" font-size="10.00">ConfigParser::tokenize</text>
</a>
</g>
</g>
<!-- Node1&#45;&gt;Node32 -->
<g id="edge33_Node000001_Node000032" class="edge">
<title>Node1&#45;&gt;Node32</title>
<g id="a_edge33_Node000001_Node000032"><a xlink:title=" ">
<path fill="none" stroke="#63b8ff" d="M68.32,-344.73C78.15,-317.3 109.9,-239.05 164,-200.5 166.72,-198.56 169.62,-196.81 172.64,-195.25"/>
<polygon fill="#63b8ff" stroke="#63b8ff" points="174.29,-198.34 181.99,-191.06 171.43,-191.95 174.29,-198.34"/>
</a>
</g>
</g>
<!-- Node4&#45;&gt;Node3 -->
<g id="edge5_Node000004_Node000003" class="edge">
<title>Node4&#45;&gt;Node3</title>
<g id="a_edge5_Node000004_Node000003"><a xlink:title=" ">
<path fill="none" stroke="#63b8ff" d="M248.1,-239.63C259.13,-277.38 293.08,-376.34 358,-427.5 413.14,-470.95 463.5,-417.9 510,-470.5 579.69,-549.34 473.53,-628.21 546,-704.5 551.66,-710.46 558.74,-714.72 566.4,-717.73"/>
<polygon fill="#63b8ff" stroke="#63b8ff" points="565.38,-721.08 575.97,-720.81 567.53,-714.41 565.38,-721.08"/>
</a>
</g>
</g>
<!-- Node5 -->
<g id="Node000005" class="node">
<title>Node5</title>
<g id="a_Node000005"><a xlink:href="classConfig.html#a02ceba7e01adf73a2dc7a5e9edc316ed" target="_top" xlink:title="Adds a new server configuration to the configuration set.">
<polygon fill="white" stroke="#666666" points="485.5,-277 382.5,-277 382.5,-258 485.5,-258 485.5,-277"/>
<text text-anchor="middle" x="434" y="-265" font-family="Helvetica,sans-Serif" font-size="10.00">Config::addServer</text>
</a>
</g>
</g>
<!-- Node4&#45;&gt;Node5 -->
<g id="edge4_Node000004_Node000005" class="edge">
<title>Node4&#45;&gt;Node5</title>
<g id="a_edge4_Node000004_Node000005"><a xlink:title=" ">
<path fill="none" stroke="#63b8ff" d="M310.1,-239.54C333.46,-244.85 359.36,-250.75 381.35,-255.75"/>
<polygon fill="#63b8ff" stroke="#63b8ff" points="380.62,-259.17 391.15,-257.98 382.17,-252.35 380.62,-259.17"/>
</a>
</g>
</g>
<!-- Node6 -->
<g id="Node000006" class="node">
<title>Node6</title>
<g id="a_Node000006"><a xlink:href="classConfigParser.html#a41d0e0c0542002106e6e9e455df8cc59" target="_top" xlink:title="Parses &quot;client_max_body_size&quot; directive with suffixes (K, M, G).">
<polygon fill="white" stroke="#666666" points="503.5,-239.5 364.5,-239.5 364.5,-209.5 503.5,-209.5 503.5,-239.5"/>
<text text-anchor="start" x="372.5" y="-227.5" font-family="Helvetica,sans-Serif" font-size="10.00">ConfigParser::parseClient</text>
<text text-anchor="middle" x="434" y="-216.5" font-family="Helvetica,sans-Serif" font-size="10.00">BodySize</text>
</a>
</g>
</g>
<!-- Node4&#45;&gt;Node6 -->
<g id="edge6_Node000004_Node000006" class="edge">
<title>Node4&#45;&gt;Node6</title>
<g id="a_edge6_Node000004_Node000006"><a xlink:title=" ">
<path fill="none" stroke="#63b8ff" d="M314.11,-224.5C327.17,-224.5 340.89,-224.5 354.19,-224.5"/>
<polygon fill="#63b8ff" stroke="#63b8ff" points="354.26,-228 364.26,-224.5 354.26,-221 354.26,-228"/>
</a>
</g>
</g>
<!-- Node8 -->
<g id="Node000008" class="node">
<title>Node8</title>
<g id="a_Node000008"><a xlink:href="classConfigParser.html#ad66827cd7be60417c1598e4b0003e1c1" target="_top" xlink:title="Parses a &quot;listen&quot; directive into IP:port pair.">
<polygon fill="white" stroke="#666666" points="504,-191.5 364,-191.5 364,-161.5 504,-161.5 504,-191.5"/>
<text text-anchor="start" x="372" y="-179.5" font-family="Helvetica,sans-Serif" font-size="10.00">ConfigParser::parseListen</text>
<text text-anchor="middle" x="434" y="-168.5" font-family="Helvetica,sans-Serif" font-size="10.00">Interface</text>
</a>
</g>
</g>
<!-- Node4&#45;&gt;Node8 -->
<g id="edge8_Node000004_Node000008" class="edge">
<title>Node4&#45;&gt;Node8</title>
<g id="a_edge8_Node000004_Node000008"><a xlink:title=" ">
<path fill="none" stroke="#63b8ff" d="M303.28,-209.44C322.55,-204.55 344.09,-199.08 364,-194.02"/>
<polygon fill="#63b8ff" stroke="#63b8ff" points="365.1,-197.36 373.93,-191.5 363.37,-190.57 365.1,-197.36"/>
</a>
</g>
</g>
<!-- Node13 -->
<g id="Node000013" class="node">
<title>Node13</title>
<g id="a_Node000013"><a xlink:href="classConfigParser.html#a99a7670aacf418332702850134b4e4ca" target="_top" xlink:title="Parses a location block and adds it to the current server.">
<polygon fill="white" stroke="#666666" points="510,-418.5 358,-418.5 358,-388.5 510,-388.5 510,-418.5"/>
<text text-anchor="start" x="366" y="-406.5" font-family="Helvetica,sans-Serif" font-size="10.00">ConfigParser::parseLocation</text>
<text text-anchor="middle" x="434" y="-395.5" font-family="Helvetica,sans-Serif" font-size="10.00">Block</text>
</a>
</g>
</g>
<!-- Node4&#45;&gt;Node13 -->
<g id="edge13_Node000004_Node000013" class="edge">
<title>Node4&#45;&gt;Node13</title>
<g id="a_edge13_Node000004_Node000013"><a xlink:title=" ">
<path fill="none" stroke="#63b8ff" d="M260.11,-239.76C293.45,-271.33 370.13,-343.96 409.19,-380.95"/>
<polygon fill="#63b8ff" stroke="#63b8ff" points="407.26,-383.94 416.93,-388.28 412.07,-378.86 407.26,-383.94"/>
</a>
</g>
</g>
<!-- Node28 -->
<g id="Node000028" class="node">
<title>Node28</title>
<g id="a_Node000028"><a xlink:href="classServerConfig.html#a8f784c384fec1f0573a319c1da6bf6db" target="_top" xlink:title="Enables or disables autoindex globally for the server.">
<polygon fill="white" stroke="#666666" points="508.5,-143 359.5,-143 359.5,-124 508.5,-124 508.5,-143"/>
<text text-anchor="middle" x="434" y="-131" font-family="Helvetica,sans-Serif" font-size="10.00">ServerConfig::setAutoindex</text>
</a>
</g>
</g>
<!-- Node4&#45;&gt;Node28 -->
<g id="edge29_Node000004_Node000028" class="edge">
<title>Node4&#45;&gt;Node28</title>
<g id="a_edge29_Node000004_Node000028"><a xlink:title=" ">
<path fill="none" stroke="#63b8ff" d="M306.19,-209.4C311.76,-206.87 317.13,-203.92 322,-200.5 343.81,-185.16 335.81,-167.29 358,-152.5 361.09,-150.44 364.38,-148.61 367.8,-146.97"/>
<polygon fill="#63b8ff" stroke="#63b8ff" points="369.22,-150.17 377.1,-143.09 366.52,-143.71 369.22,-150.17"/>
</a>
</g>
</g>
<!-- Node29 -->
<g id="Node000029" class="node">
<title>Node29</title>
<g id="a_Node000029"><a xlink:href="classServerConfig.html#af898de48e307e096dbac0808f7353878" target="_top" xlink:title="Associates a custom error page with an HTTP status code.">
<polygon fill="white" stroke="#666666" points="507,-106 361,-106 361,-87 507,-87 507,-106"/>
<text text-anchor="middle" x="434" y="-94" font-family="Helvetica,sans-Serif" font-size="10.00">ServerConfig::setErrorPage</text>
</a>
</g>
</g>
<!-- Node4&#45;&gt;Node29 -->
<g id="edge30_Node000004_Node000029" class="edge">
<title>Node4&#45;&gt;Node29</title>
<g id="a_edge30_Node000004_Node000029"><a xlink:title=" ">
<path fill="none" stroke="#63b8ff" d="M309.43,-209.38C313.96,-206.86 318.22,-203.93 322,-200.5 352.7,-172.67 326.44,-141.35 358,-114.5 359.37,-113.34 360.8,-112.25 362.28,-111.22"/>
<polygon fill="#63b8ff" stroke="#63b8ff" points="364.33,-114.08 371.27,-106.08 360.85,-108.01 364.33,-114.08"/>
</a>
</g>
</g>
<!-- Node30 -->
<g id="Node000030" class="node">
<title>Node30</title>
<g id="a_Node000030"><a xlink:href="classServerConfig.html#a0ded1329bab47f9ae44187c2b98f93d0" target="_top" xlink:title="Sets the default index file (e.g., &quot;index.html&quot;).">
<polygon fill="white" stroke="#666666" points="506,-69 362,-69 362,-50 506,-50 506,-69"/>
<text text-anchor="middle" x="434" y="-57" font-family="Helvetica,sans-Serif" font-size="10.00">ServerConfig::setIndexFile</text>
</a>
</g>
</g>
<!-- Node4&#45;&gt;Node30 -->
<g id="edge31_Node000004_Node000030" class="edge">
<title>Node4&#45;&gt;Node30</title>
<g id="a_edge31_Node000004_Node000030"><a xlink:title=" ">
<path fill="none" stroke="#63b8ff" d="M310.61,-209.39C314.76,-206.87 318.62,-203.93 322,-200.5 362,-159.95 316.74,-116.77 358,-77.5 358.98,-76.57 360,-75.68 361.06,-74.83"/>
<polygon fill="#63b8ff" stroke="#63b8ff" points="363.29,-77.55 369.77,-69.17 359.48,-71.69 363.29,-77.55"/>
</a>
</g>
</g>
<!-- Node31 -->
<g id="Node000031" class="node">
<title>Node31</title>
<g id="a_Node000031"><a xlink:href="classServerConfig.html#aedf2857c76797e9f3938cf357b4d6b67" target="_top" xlink:title="Defines the root directory for this server.">
<polygon fill="white" stroke="#666666" points="495,-32 373,-32 373,-13 495,-13 495,-32"/>
<text text-anchor="middle" x="434" y="-20" font-family="Helvetica,sans-Serif" font-size="10.00">ServerConfig::setRoot</text>
</a>
</g>
</g>
<!-- Node4&#45;&gt;Node31 -->
<g id="edge32_Node000004_Node000031" class="edge">
<title>Node4&#45;&gt;Node31</title>
<g id="a_edge32_Node000004_Node000031"><a xlink:title=" ">
<path fill="none" stroke="#63b8ff" d="M311.22,-209.4C315.17,-206.88 318.82,-203.93 322,-200.5 371.51,-147.01 306.83,-92.41 358,-40.5 359.85,-38.62 361.86,-36.93 363.99,-35.4"/>
<polygon fill="#63b8ff" stroke="#63b8ff" points="365.89,-38.35 372.76,-30.28 362.36,-32.3 365.89,-38.35"/>
</a>
</g>
</g>
<!-- Node7 -->
<g id="Node000007" class="node">
<title>Node7</title>
<g id="a_Node000007"><a xlink:href="classServerConfig.html#a8ff368bdd1c0a9bc6d5ff80a1caefa26" target="_top" xlink:title="Defines the maximum allowed body size (in bytes).">
<polygon fill="white" stroke="#666666" points="708.5,-141.5 559.5,-141.5 559.5,-111.5 708.5,-111.5 708.5,-141.5"/>
<text text-anchor="start" x="567.5" y="-129.5" font-family="Helvetica,sans-Serif" font-size="10.00">ServerConfig::setClientMax</text>
<text text-anchor="middle" x="634" y="-118.5" font-family="Helvetica,sans-Serif" font-size="10.00">BodySize</text>
</a>
</g>
</g>
<!-- Node6&#45;&gt;Node7 -->
<g id="edge7_Node000006_Node000007" class="edge">
<title>Node6&#45;&gt;Node7</title>
<g id="a_edge7_Node000006_Node000007"><a xlink:title=" ">
<path fill="none" stroke="#63b8ff" d="M494.49,-209.48C499.97,-206.93 505.24,-203.95 510,-200.5 532.15,-184.41 523.52,-166.14 546,-150.5 548.14,-149.01 550.37,-147.62 552.66,-146.31"/>
<polygon fill="#63b8ff" stroke="#63b8ff" points="554.47,-149.31 561.81,-141.67 551.31,-143.07 554.47,-149.31"/>
</a>
</g>
</g>
<!-- Node9 -->
<g id="Node000009" class="node">
<title>Node9</title>
<g id="a_Node000009"><a xlink:href="classLogger.html#a4aa4d7c3b98f6e12e7ea8253da5ea0cd" target="_top" xlink:title="Returns the singleton instance of the Logger.">
<polygon fill="white" stroke="#666666" points="682.5,-93 585.5,-93 585.5,-74 682.5,-74 682.5,-93"/>
<text text-anchor="middle" x="634" y="-81" font-family="Helvetica,sans-Serif" font-size="10.00">Logger::instance</text>
</a>
</g>
</g>
<!-- Node8&#45;&gt;Node9 -->
<g id="edge9_Node000008_Node000009" class="edge">
<title>Node8&#45;&gt;Node9</title>
<g id="a_edge9_Node000008_Node000009"><a xlink:title=" ">
<path fill="none" stroke="#63b8ff" d="M492.53,-161.49C498.71,-158.68 504.67,-155.38 510,-151.5 531.84,-135.59 523.34,-117.22 546,-102.5 554.84,-96.76 565.15,-92.72 575.51,-89.9"/>
<polygon fill="#63b8ff" stroke="#63b8ff" points="576.5,-93.26 585.42,-87.55 574.88,-86.45 576.5,-93.26"/>
</a>
</g>
</g>
<!-- Node10 -->
<g id="Node000010" class="node">
<title>Node10</title>
<g id="a_Node000010"><a xlink:href="classLogger.html#a3d3f0801eeaf39b33a906ea8569c19b2" target="_top" xlink:title="Writes a log entry with timestamp, level, and message.">
<polygon fill="white" stroke="#666666" points="669.5,-56 598.5,-56 598.5,-37 669.5,-37 669.5,-56"/>
<text text-anchor="middle" x="634" y="-44" font-family="Helvetica,sans-Serif" font-size="10.00">Logger::log</text>
</a>
</g>
</g>
<!-- Node8&#45;&gt;Node10 -->
<g id="edge10_Node000008_Node000010" class="edge">
<title>Node8&#45;&gt;Node10</title>
<g id="a_edge10_Node000008_Node000010"><a xlink:title=" ">
<path fill="none" stroke="#63b8ff" d="M496.13,-161.34C501.16,-158.58 505.88,-155.34 510,-151.5 540.62,-122.97 513.76,-91.18 546,-64.5 557.78,-54.75 573.48,-49.86 588.3,-47.51"/>
<polygon fill="#63b8ff" stroke="#63b8ff" points="588.86,-50.97 598.36,-46.27 588.01,-44.02 588.86,-50.97"/>
</a>
</g>
</g>
<!-- Node12 -->
<g id="Node000012" class="node">
<title>Node12</title>
<g id="a_Node000012"><a xlink:href="classServerConfig.html#a59a6b8c51bca5e4d6da765a8a9bd6388" target="_top" xlink:title="Sets the listening interface for this server.">
<polygon fill="white" stroke="#666666" points="720.5,-19 547.5,-19 547.5,0 720.5,0 720.5,-19"/>
<text text-anchor="middle" x="634" y="-7" font-family="Helvetica,sans-Serif" font-size="10.00">ServerConfig::setListenInterface</text>
</a>
</g>
</g>
<!-- Node8&#45;&gt;Node12 -->
<g id="edge12_Node000008_Node000012" class="edge">
<title>Node8&#45;&gt;Node12</title>
<g id="a_edge12_Node000008_Node000012"><a xlink:title=" ">
<path fill="none" stroke="#63b8ff" d="M497.31,-161.38C501.97,-158.62 506.29,-155.36 510,-151.5 549.78,-110.13 503.86,-66.45 546,-27.5 547.13,-26.45 548.31,-25.46 549.53,-24.52"/>
<polygon fill="#63b8ff" stroke="#63b8ff" points="551.54,-27.38 558.06,-19.03 547.76,-21.49 551.54,-27.38"/>
</a>
</g>
</g>
<!-- Node11 -->
<g id="Node000011" class="node">
<title>Node11</title>
<g id="a_Node000011"><a xlink:href="classLogger.html#a19f9ef22095a67c9fe420c9d6e761fc2" target="_top" xlink:title="Converts a LogLevel enum value to its string label.">
<polygon fill="white" stroke="#666666" points="877,-56 758,-56 758,-37 877,-37 877,-56"/>
<text text-anchor="middle" x="817.5" y="-44" font-family="Helvetica,sans-Serif" font-size="10.00">Logger::levelToString</text>
</a>
</g>
</g>
<!-- Node10&#45;&gt;Node11 -->
<g id="edge11_Node000010_Node000011" class="edge">
<title>Node10&#45;&gt;Node11</title>
<g id="a_edge11_Node000010_Node000011"><a xlink:title=" ">
<path fill="none" stroke="#63b8ff" d="M669.57,-46.5C691.64,-46.5 721.02,-46.5 747.7,-46.5"/>
<polygon fill="#63b8ff" stroke="#63b8ff" points="747.78,-50 757.78,-46.5 747.78,-43 747.78,-50"/>
</a>
</g>
</g>
<!-- Node13&#45;&gt;Node3 -->
<g id="edge16_Node000013_Node000003" class="edge">
<title>Node13&#45;&gt;Node3</title>
<g id="a_edge16_Node000013_Node000003"><a xlink:title=" ">
<path fill="none" stroke="#63b8ff" d="M493.42,-418.53C499.75,-422.21 505.51,-426.8 510,-432.5 585.41,-528.33 462.95,-615.21 546,-704.5 551.6,-710.52 558.64,-714.82 566.28,-717.84"/>
<polygon fill="#63b8ff" stroke="#63b8ff" points="565.25,-721.19 575.84,-720.93 567.4,-714.53 565.25,-721.19"/>
</a>
</g>
</g>
<!-- Node14 -->
<g id="Node000014" class="node">
<title>Node14</title>
<g id="a_Node000014"><a xlink:href="classLocationConfig.html#a0dbc1def632966c3091c627917f0cd63" target="_top" xlink:title="Adds an extension&#45;handler pair for CGI execution.">
<polygon fill="white" stroke="#666666" points="722,-695 546,-695 546,-676 722,-676 722,-695"/>
<text text-anchor="middle" x="634" y="-683" font-family="Helvetica,sans-Serif" font-size="10.00">LocationConfig::addCgiExtension</text>
</a>
</g>
</g>
<!-- Node13&#45;&gt;Node14 -->
<g id="edge14_Node000013_Node000014" class="edge">
<title>Node13&#45;&gt;Node14</title>
<g id="a_edge14_Node000013_Node000014"><a xlink:title=" ">
<path fill="none" stroke="#63b8ff" d="M493.31,-418.62C499.66,-422.28 505.45,-426.84 510,-432.5 576.19,-514.86 473.25,-590.87 546,-667.5 546.67,-668.21 547.37,-668.9 548.08,-669.56"/>
<polygon fill="#63b8ff" stroke="#63b8ff" points="546.27,-672.57 556.36,-675.79 550.48,-666.98 546.27,-672.57"/>
</a>
</g>
</g>
<!-- Node15 -->
<g id="Node000015" class="node">
<title>Node15</title>
<g id="a_Node000015"><a xlink:href="classServerConfig.html#a6eba0775d2b1b31242740a9ff53d4364" target="_top" xlink:title="Adds a new LocationConfig to the server.">
<polygon fill="white" stroke="#666666" points="706,-658 562,-658 562,-639 706,-639 706,-658"/>
<text text-anchor="middle" x="634" y="-646" font-family="Helvetica,sans-Serif" font-size="10.00">ServerConfig::addLocation</text>
</a>
</g>
</g>
<!-- Node13&#45;&gt;Node15 -->
<g id="edge15_Node000013_Node000015" class="edge">
<title>Node13&#45;&gt;Node15</title>
<g id="a_edge15_Node000013_Node000015"><a xlink:title=" ">
<path fill="none" stroke="#63b8ff" d="M492.79,-418.53C499.3,-422.22 505.28,-426.8 510,-432.5 566.74,-501.07 484.15,-565.49 546,-629.5 548.12,-631.69 550.42,-633.65 552.87,-635.42"/>
<polygon fill="#63b8ff" stroke="#63b8ff" points="551.33,-638.57 561.72,-640.66 554.9,-632.55 551.33,-638.57"/>
</a>
</g>
</g>
<!-- Node16 -->
<g id="Node000016" class="node">
<title>Node16</title>
<g id="a_Node000016"><a xlink:href="classLocationConfig.html#a4eeda49130a29cbb64e48b845976821e" target="_top" xlink:title=" ">
<polygon fill="white" stroke="#666666" points="710,-620.5 558,-620.5 558,-590.5 710,-590.5 710,-620.5"/>
<text text-anchor="start" x="566" y="-608.5" font-family="Helvetica,sans-Serif" font-size="10.00">LocationConfig::getHasAuto</text>
<text text-anchor="middle" x="634" y="-597.5" font-family="Helvetica,sans-Serif" font-size="10.00">Index</text>
</a>
</g>
</g>
<!-- Node13&#45;&gt;Node16 -->
<g id="edge17_Node000013_Node000016" class="edge">
<title>Node13&#45;&gt;Node16</title>
<g id="a_edge17_Node000013_Node000016"><a xlink:title=" ">
<path fill="none" stroke="#63b8ff" d="M492.12,-418.58C498.82,-422.26 505.03,-426.83 510,-432.5 554.89,-483.74 498.61,-532.56 546,-581.5 547.09,-582.63 548.23,-583.7 549.41,-584.73"/>
<polygon fill="#63b8ff" stroke="#63b8ff" points="547.61,-587.74 557.75,-590.8 551.73,-582.09 547.61,-587.74"/>
</a>
</g>
</g>
<!-- Node17 -->
<g id="Node000017" class="node">
<title>Node17</title>
<g id="a_Node000017"><a xlink:href="classLocationConfig.html#a7e9d4ee69ce1e4da6e16b24053335540" target="_top" xlink:title=" ">
<polygon fill="white" stroke="#666666" points="712,-572.5 556,-572.5 556,-542.5 712,-542.5 712,-572.5"/>
<text text-anchor="start" x="564" y="-560.5" font-family="Helvetica,sans-Serif" font-size="10.00">LocationConfig::getHasIndex</text>
<text text-anchor="middle" x="634" y="-549.5" font-family="Helvetica,sans-Serif" font-size="10.00">Files</text>
</a>
</g>
</g>
<!-- Node13&#45;&gt;Node17 -->
<g id="edge18_Node000013_Node000017" class="edge">
<title>Node13&#45;&gt;Node17</title>
<g id="a_edge18_Node000013_Node000017"><a xlink:title=" ">
<path fill="none" stroke="#63b8ff" d="M490.82,-418.69C497.89,-422.36 504.55,-426.9 510,-432.5 543.25,-466.64 511.09,-501.06 546,-533.5 547.15,-534.57 548.34,-535.59 549.57,-536.56"/>
<polygon fill="#63b8ff" stroke="#63b8ff" points="547.93,-539.68 558.17,-542.37 551.84,-533.88 547.93,-539.68"/>
</a>
</g>
</g>
<!-- Node18 -->
<g id="Node000018" class="node">
<title>Node18</title>
<g id="a_Node000018"><a xlink:href="classLocationConfig.html#af10d1ad36f0f3a7a3119e054efd88b8b" target="_top" xlink:title=" ">
<polygon fill="white" stroke="#666666" points="710,-524 558,-524 558,-505 710,-505 710,-524"/>
<text text-anchor="middle" x="634" y="-512" font-family="Helvetica,sans-Serif" font-size="10.00">LocationConfig::getHasRoot</text>
</a>
</g>
</g>
<!-- Node13&#45;&gt;Node18 -->
<g id="edge19_Node000013_Node000018" class="edge">
<title>Node13&#45;&gt;Node18</title>
<g id="a_edge19_Node000013_Node000018"><a xlink:title=" ">
<path fill="none" stroke="#63b8ff" d="M488.05,-418.64C495.93,-422.36 503.56,-426.93 510,-432.5 534.67,-453.86 519.65,-477.24 546,-496.5 547.87,-497.87 549.82,-499.14 551.84,-500.32"/>
<polygon fill="#63b8ff" stroke="#63b8ff" points="550.53,-503.57 561.04,-504.91 553.66,-497.31 550.53,-503.57"/>
</a>
</g>
</g>
<!-- Node19 -->
<g id="Node000019" class="node">
<title>Node19</title>
<g id="a_Node000019"><a xlink:href="classConfigParser.html#a560c0318ac8a3a868f5222327f3e7b57" target="_top" xlink:title="Converts a lowercase string token into a RequestMethod enumeration.">
<polygon fill="white" stroke="#666666" points="707.5,-487 560.5,-487 560.5,-468 707.5,-468 707.5,-487"/>
<text text-anchor="middle" x="634" y="-475" font-family="Helvetica,sans-Serif" font-size="10.00">ConfigParser::parseMethod</text>
</a>
</g>
</g>
<!-- Node13&#45;&gt;Node19 -->
<g id="edge20_Node000013_Node000019" class="edge">
<title>Node13&#45;&gt;Node19</title>
<g id="a_edge20_Node000013_Node000019"><a xlink:title=" ">
<path fill="none" stroke="#63b8ff" d="M479.94,-418.56C490.07,-422.59 500.6,-427.29 510,-432.5 527.49,-442.2 527.77,-451.28 546,-459.5 550.63,-461.59 555.5,-463.43 560.48,-465.07"/>
<polygon fill="#63b8ff" stroke="#63b8ff" points="559.58,-468.45 570.16,-467.96 561.58,-461.75 559.58,-468.45"/>
</a>
</g>
</g>
<!-- Node20 -->
<g id="Node000020" class="node">
<title>Node20</title>
<g id="a_Node000020"><a xlink:href="classLocationConfig.html#a52b3e401c3b59f5fb1166310c2bf8ae0" target="_top" xlink:title="Enables or disables directory listing (autoindex).">
<polygon fill="white" stroke="#666666" points="713.5,-450 554.5,-450 554.5,-431 713.5,-431 713.5,-450"/>
<text text-anchor="middle" x="634" y="-438" font-family="Helvetica,sans-Serif" font-size="10.00">LocationConfig::setAutoindex</text>
</a>
</g>
</g>
<!-- Node13&#45;&gt;Node20 -->
<g id="edge21_Node000013_Node000020" class="edge">
<title>Node13&#45;&gt;Node20</title>
<g id="a_edge21_Node000013_Node000020"><a xlink:title=" ">
<path fill="none" stroke="#63b8ff" d="M510.14,-417.54C530.54,-421.35 552.38,-425.43 571.9,-429.08"/>
<polygon fill="#63b8ff" stroke="#63b8ff" points="571.41,-432.55 581.88,-430.95 572.69,-425.67 571.41,-432.55"/>
</a>
</g>
</g>
<!-- Node21 -->
<g id="Node000021" class="node">
<title>Node21</title>
<g id="a_Node000021"><a xlink:href="classLocationConfig.html#a4871be53fb5569ae7cf1e33bfada0323" target="_top" xlink:title="Sets the path to the CGI executable.">
<polygon fill="white" stroke="#666666" points="707,-413 561,-413 561,-394 707,-394 707,-413"/>
<text text-anchor="middle" x="634" y="-401" font-family="Helvetica,sans-Serif" font-size="10.00">LocationConfig::setCgiPath</text>
</a>
</g>
</g>
<!-- Node13&#45;&gt;Node21 -->
<g id="edge22_Node000013_Node000021" class="edge">
<title>Node13&#45;&gt;Node21</title>
<g id="a_edge22_Node000013_Node000021"><a xlink:title=" ">
<path fill="none" stroke="#63b8ff" d="M510.14,-403.5C523.39,-403.5 537.25,-403.5 550.68,-403.5"/>
<polygon fill="#63b8ff" stroke="#63b8ff" points="550.86,-407 560.86,-403.5 550.86,-400 550.86,-407"/>
</a>
</g>
</g>
<!-- Node22 -->
<g id="Node000022" class="node">
<title>Node22</title>
<g id="a_Node000022"><a xlink:href="classLocationConfig.html#a1173dea22f3b63e2b9ff5c43510b0dc9" target="_top" xlink:title="Defines the default index file for this location.">
<polygon fill="white" stroke="#666666" points="702.5,-376 565.5,-376 565.5,-357 702.5,-357 702.5,-376"/>
<text text-anchor="middle" x="634" y="-364" font-family="Helvetica,sans-Serif" font-size="10.00">LocationConfig::setIndex</text>
</a>
</g>
</g>
<!-- Node13&#45;&gt;Node22 -->
<g id="edge23_Node000013_Node000022" class="edge">
<title>Node13&#45;&gt;Node22</title>
<g id="a_edge23_Node000013_Node000022"><a xlink:title=" ">
<path fill="none" stroke="#63b8ff" d="M510.14,-389.46C530.54,-385.65 552.38,-381.57 571.9,-377.92"/>
<polygon fill="#63b8ff" stroke="#63b8ff" points="572.69,-381.33 581.88,-376.05 571.41,-374.45 572.69,-381.33"/>
</a>
</g>
</g>
<!-- Node23 -->
<g id="Node000023" class="node">
<title>Node23</title>
<g id="a_Node000023"><a xlink:href="classLocationConfig.html#a9a80290a8b4bc948f9041ddd2547ece4" target="_top" xlink:title="Sets the list of allowed HTTP methods.">
<polygon fill="white" stroke="#666666" points="710,-339 558,-339 558,-320 710,-320 710,-339"/>
<text text-anchor="middle" x="634" y="-327" font-family="Helvetica,sans-Serif" font-size="10.00">LocationConfig::setMethods</text>
</a>
</g>
</g>
<!-- Node13&#45;&gt;Node23 -->
<g id="edge24_Node000013_Node000023" class="edge">
<title>Node13&#45;&gt;Node23</title>
<g id="a_edge24_Node000013_Node000023"><a xlink:title=" ">
<path fill="none" stroke="#63b8ff" d="M461.12,-388.27C483.12,-376 515.76,-359.11 546,-348.5 553.57,-345.84 561.65,-343.48 569.71,-341.41"/>
<polygon fill="#63b8ff" stroke="#63b8ff" points="570.63,-344.79 579.51,-339.02 568.97,-337.99 570.63,-344.79"/>
</a>
</g>
</g>
<!-- Node24 -->
<g id="Node000024" class="node">
<title>Node24</title>
<g id="a_Node000024"><a xlink:href="classLocationConfig.html#a46184880a603b58940a464ebb9c4b77c" target="_top" xlink:title="Sets the HTTP redirection rule (status, URL).">
<polygon fill="white" stroke="#666666" points="705,-302 563,-302 563,-283 705,-283 705,-302"/>
<text text-anchor="middle" x="634" y="-290" font-family="Helvetica,sans-Serif" font-size="10.00">LocationConfig::setReturn</text>
</a>
</g>
</g>
<!-- Node13&#45;&gt;Node24 -->
<g id="edge25_Node000013_Node000024" class="edge">
<title>Node13&#45;&gt;Node24</title>
<g id="a_edge25_Node000013_Node000024"><a xlink:title=" ">
<path fill="none" stroke="#63b8ff" d="M448.81,-388.17C468.36,-367.46 506.18,-330.91 546,-311.5 550.95,-309.09 556.21,-306.98 561.59,-305.13"/>
<polygon fill="#63b8ff" stroke="#63b8ff" points="562.87,-308.4 571.38,-302.09 560.79,-301.72 562.87,-308.4"/>
</a>
</g>
</g>
<!-- Node25 -->
<g id="Node000025" class="node">
<title>Node25</title>
<g id="a_Node000025"><a xlink:href="classLocationConfig.html#ad1cdc0a2ef75f2efa6b5255cce7286ea" target="_top" xlink:title="Sets the root directory for this location.">
<polygon fill="white" stroke="#666666" points="700,-265 568,-265 568,-246 700,-246 700,-265"/>
<text text-anchor="middle" x="634" y="-253" font-family="Helvetica,sans-Serif" font-size="10.00">LocationConfig::setRoot</text>
</a>
</g>
</g>
<!-- Node13&#45;&gt;Node25 -->
<g id="edge26_Node000013_Node000025" class="edge">
<title>Node13&#45;&gt;Node25</title>
<g id="a_edge26_Node000013_Node000025"><a xlink:title=" ">
<path fill="none" stroke="#63b8ff" d="M443.46,-388.36C459.6,-360.98 497.53,-303.4 546,-274.5 549.84,-272.21 553.92,-270.2 558.14,-268.43"/>
<polygon fill="#63b8ff" stroke="#63b8ff" points="559.41,-271.69 567.56,-264.92 556.96,-265.13 559.41,-271.69"/>
</a>
</g>
</g>
<!-- Node26 -->
<g id="Node000026" class="node">
<title>Node26</title>
<g id="a_Node000026"><a xlink:href="classLocationConfig.html#a29d368d1cc6ae21a7cf880159ca0e712" target="_top" xlink:title="Enables or disables file upload for this location.">
<polygon fill="white" stroke="#666666" points="706,-227.5 562,-227.5 562,-197.5 706,-197.5 706,-227.5"/>
<text text-anchor="start" x="570" y="-215.5" font-family="Helvetica,sans-Serif" font-size="10.00">LocationConfig::setUpload</text>
<text text-anchor="middle" x="634" y="-204.5" font-family="Helvetica,sans-Serif" font-size="10.00">Enabled</text>
</a>
</g>
</g>
<!-- Node13&#45;&gt;Node26 -->
<g id="edge27_Node000013_Node000026" class="edge">
<title>Node13&#45;&gt;Node26</title>
<g id="a_edge27_Node000013_Node000026"><a xlink:title=" ">
<path fill="none" stroke="#63b8ff" d="M444.66,-388.45C470.32,-348.57 538.74,-242.8 546,-237.5 548.67,-235.55 551.48,-233.76 554.4,-232.1"/>
<polygon fill="#63b8ff" stroke="#63b8ff" points="556.08,-235.17 563.43,-227.54 552.93,-228.93 556.08,-235.17"/>
</a>
</g>
</g>
<!-- Node27 -->
<g id="Node000027" class="node">
<title>Node27</title>
<g id="a_Node000027"><a xlink:href="classLocationConfig.html#a81921c69bff5933cb0087c4c5c2a9c1b" target="_top" xlink:title="Defines the upload directory for incoming files.">
<polygon fill="white" stroke="#666666" points="716.5,-179 551.5,-179 551.5,-160 716.5,-160 716.5,-179"/>
<text text-anchor="middle" x="634" y="-167" font-family="Helvetica,sans-Serif" font-size="10.00">LocationConfig::setUploadPath</text>
</a>
</g>
</g>
<!-- Node13&#45;&gt;Node27 -->
<g id="edge28_Node000013_Node000027" class="edge">
<title>Node13&#45;&gt;Node27</title>
<g id="a_edge28_Node000013_Node000027"><a xlink:title=" ">
<path fill="none" stroke="#63b8ff" d="M446.32,-388.25C462.1,-366.5 490.89,-324.96 510,-286.5 530.64,-244.94 511.02,-218.99 546,-188.5 547.75,-186.97 549.6,-185.56 551.52,-184.25"/>
<polygon fill="#63b8ff" stroke="#63b8ff" points="553.46,-187.18 560.39,-179.17 549.98,-181.1 553.46,-187.18"/>
</a>
</g>
</g>
</g>
</svg>
