<?xml version="1.0" encoding="UTF-8" standalone="no"?>
<!DOCTYPE svg PUBLIC "-//W3C//DTD SVG 1.1//EN"
 "http://www.w3.org/Graphics/SVG/1.1/DTD/svg11.dtd">
<!-- Generated by graphviz version 2.43.0 (0)
 -->
<!-- Title: ResponseBuilder::responseWriter Pages: 1 -->
<svg width="524pt" height="286pt"
 viewBox="0.00 0.00 524.00 286.00" xmlns="http://www.w3.org/2000/svg" xmlns:xlink="http://www.w3.org/1999/xlink">
<g id="graph0" class="graph" transform="scale(1 1) rotate(0) translate(4 282)">
<title>ResponseBuilder::responseWriter</title>
<!-- Node1 -->
<g id="Node000001" class="node">
<title>Node1</title>
<g id="a_Node000001"><a xlink:title="Constructs the complete HTTP response string.">
<polygon fill="#999999" stroke="#666666" points="149,-153.5 0,-153.5 0,-123.5 149,-123.5 149,-153.5"/>
<text text-anchor="start" x="8" y="-141.5" font-family="Helvetica,sans-Serif" font-size="10.00">ResponseBuilder::response</text>
<text text-anchor="middle" x="74.5" y="-130.5" font-family="Helvetica,sans-Serif" font-size="10.00">Writer</text>
</a>
</g>
</g>
<!-- Node2 -->
<g id="Node000002" class="node">
<title>Node2</title>
<g id="a_Node000002"><a xlink:href="classHttpResponse.html#a68de6b4795dd83a58885a8bddeacc2cf" target="_top" xlink:title="Returns the current response body.">
<polygon fill="white" stroke="#666666" points="338.5,-278 207.5,-278 207.5,-259 338.5,-259 338.5,-278"/>
<text text-anchor="middle" x="273" y="-266" font-family="Helvetica,sans-Serif" font-size="10.00">HttpResponse::getBody</text>
</a>
</g>
</g>
<!-- Node1&#45;&gt;Node2 -->
<g id="edge1_Node000001_Node000002" class="edge">
<title>Node1&#45;&gt;Node2</title>
<g id="a_edge1_Node000001_Node000002"><a xlink:title=" ">
<path fill="none" stroke="#63b8ff" d="M85.63,-153.6C102.93,-178.11 140.62,-226.24 185,-250.5 188.99,-252.68 193.22,-254.6 197.57,-256.29"/>
<polygon fill="#63b8ff" stroke="#63b8ff" points="196.67,-259.68 207.26,-259.62 198.94,-253.06 196.67,-259.68"/>
</a>
</g>
</g>
<!-- Node3 -->
<g id="Node000003" class="node">
<title>Node3</title>
<g id="a_Node000003"><a xlink:href="classHttpResponse.html#a17de729c00961355e46dc880ec560e78" target="_top" xlink:title="Returns all response headers as a constant reference.">
<polygon fill="white" stroke="#666666" points="346.5,-241 199.5,-241 199.5,-222 346.5,-222 346.5,-241"/>
<text text-anchor="middle" x="273" y="-229" font-family="Helvetica,sans-Serif" font-size="10.00">HttpResponse::getHeaders</text>
</a>
</g>
</g>
<!-- Node1&#45;&gt;Node3 -->
<g id="edge2_Node000001_Node000003" class="edge">
<title>Node1&#45;&gt;Node3</title>
<g id="a_edge2_Node000001_Node000003"><a xlink:title=" ">
<path fill="none" stroke="#63b8ff" d="M92.79,-153.62C113.35,-170.78 149.38,-198.34 185,-213.5 189.97,-215.61 195.2,-217.49 200.54,-219.14"/>
<polygon fill="#63b8ff" stroke="#63b8ff" points="199.64,-222.53 210.22,-221.9 201.56,-215.79 199.64,-222.53"/>
</a>
</g>
</g>
<!-- Node4 -->
<g id="Node000004" class="node">
<title>Node4</title>
<g id="a_Node000004"><a xlink:href="classHttpResponse.html#a5083285cec69d77baa805353feeb4bf5" target="_top" xlink:title="Returns the HTTP version of this response.">
<polygon fill="white" stroke="#666666" points="355,-204 191,-204 191,-185 355,-185 355,-204"/>
<text text-anchor="middle" x="273" y="-192" font-family="Helvetica,sans-Serif" font-size="10.00">HttpResponse::getHttpVersion</text>
</a>
</g>
</g>
<!-- Node1&#45;&gt;Node4 -->
<g id="edge3_Node000001_Node000004" class="edge">
<title>Node1&#45;&gt;Node4</title>
<g id="a_edge3_Node000001_Node000004"><a xlink:title=" ">
<path fill="none" stroke="#63b8ff" d="M114.9,-153.56C135.57,-161.11 161.43,-170 185,-176.5 193.12,-178.74 201.74,-180.84 210.27,-182.77"/>
<polygon fill="#63b8ff" stroke="#63b8ff" points="209.69,-186.22 220.21,-184.94 211.19,-179.38 209.69,-186.22"/>
</a>
</g>
</g>
<!-- Node5 -->
<g id="Node000005" class="node">
<title>Node5</title>
<g id="a_Node000005"><a xlink:href="classHttpResponse.html#aa8e6d774dd6b3268566de8a53f06580a" target="_top" xlink:title="Returns the reason phrase associated with the status code.">
<polygon fill="white" stroke="#666666" points="361,-167 185,-167 185,-148 361,-148 361,-167"/>
<text text-anchor="middle" x="273" y="-155" font-family="Helvetica,sans-Serif" font-size="10.00">HttpResponse::getReasonPhrase</text>
</a>
</g>
</g>
<!-- Node1&#45;&gt;Node5 -->
<g id="edge4_Node000001_Node000005" class="edge">
<title>Node1&#45;&gt;Node5</title>
<g id="a_edge4_Node000001_Node000005"><a xlink:title=" ">
<path fill="none" stroke="#63b8ff" d="M149.23,-145.63C157.6,-146.44 166.23,-147.27 174.85,-148.11"/>
<polygon fill="#63b8ff" stroke="#63b8ff" points="174.66,-151.6 184.95,-149.08 175.33,-144.64 174.66,-151.6"/>
</a>
</g>
</g>
<!-- Node6 -->
<g id="Node000006" class="node">
<title>Node6</title>
<g id="a_Node000006"><a xlink:href="classHttpResponse.html#aefca7483c5921d939a7c8dccc705ba08" target="_top" xlink:title="Returns the current HTTP status code.">
<polygon fill="white" stroke="#666666" points="354,-130 192,-130 192,-111 354,-111 354,-130"/>
<text text-anchor="middle" x="273" y="-118" font-family="Helvetica,sans-Serif" font-size="10.00">HttpResponse::getStatusCode</text>
</a>
</g>
</g>
<!-- Node1&#45;&gt;Node6 -->
<g id="edge5_Node000001_Node000006" class="edge">
<title>Node1&#45;&gt;Node6</title>
<g id="a_edge5_Node000001_Node000006"><a xlink:title=" ">
<path fill="none" stroke="#63b8ff" d="M149.23,-131.75C159.9,-130.77 170.99,-129.75 181.93,-128.75"/>
<polygon fill="#63b8ff" stroke="#63b8ff" points="182.3,-132.23 191.93,-127.83 181.66,-125.26 182.3,-132.23"/>
</a>
</g>
</g>
<!-- Node7 -->
<g id="Node000007" class="node">
<title>Node7</title>
<g id="a_Node000007"><a xlink:href="classLogger.html#a4aa4d7c3b98f6e12e7ea8253da5ea0cd" target="_top" xlink:title="Returns the singleton instance of the Logger.">
<polygon fill="white" stroke="#666666" points="321.5,-93 224.5,-93 224.5,-74 321.5,-74 321.5,-93"/>
<text text-anchor="middle" x="273" y="-81" font-family="Helvetica,sans-Serif" font-size="10.00">Logger::instance</text>
</a>
</g>
</g>
<!-- Node1&#45;&gt;Node7 -->
<g id="edge6_Node000001_Node000007" class="edge">
<title>Node1&#45;&gt;Node7</title>
<g id="a_edge6_Node000001_Node000007"><a xlink:title=" ">
<path fill="none" stroke="#63b8ff" d="M117.83,-123.46C138.02,-116.57 162.61,-108.61 185,-102.5 194.51,-99.91 204.68,-97.43 214.59,-95.16"/>
<polygon fill="#63b8ff" stroke="#63b8ff" points="215.38,-98.57 224.37,-92.98 213.85,-91.74 215.38,-98.57"/>
</a>
</g>
</g>
<!-- Node8 -->
<g id="Node000008" class="node">
<title>Node8</title>
<g id="a_Node000008"><a xlink:href="classHttpResponse.html#a0932034fd9acccab28a5151435fd0032" target="_top" xlink:title="Returns true if response uses chunked transfer encoding.">
<polygon fill="white" stroke="#666666" points="343.5,-56 202.5,-56 202.5,-37 343.5,-37 343.5,-56"/>
<text text-anchor="middle" x="273" y="-44" font-family="Helvetica,sans-Serif" font-size="10.00">HttpResponse::isChunked</text>
</a>
</g>
</g>
<!-- Node1&#45;&gt;Node8 -->
<g id="edge7_Node000001_Node000008" class="edge">
<title>Node1&#45;&gt;Node8</title>
<g id="a_edge7_Node000001_Node000008"><a xlink:title=" ">
<path fill="none" stroke="#63b8ff" d="M93.64,-123.27C114.41,-106.62 150.09,-80.32 185,-65.5 191.12,-62.9 197.64,-60.64 204.25,-58.68"/>
<polygon fill="#63b8ff" stroke="#63b8ff" points="205.25,-62.03 213.96,-56.01 203.39,-55.28 205.25,-62.03"/>
</a>
</g>
</g>
<!-- Node9 -->
<g id="Node000009" class="node">
<title>Node9</title>
<g id="a_Node000009"><a xlink:href="classLogger.html#a3d3f0801eeaf39b33a906ea8569c19b2" target="_top" xlink:title="Writes a log entry with timestamp, level, and message.">
<polygon fill="white" stroke="#666666" points="308.5,-19 237.5,-19 237.5,0 308.5,0 308.5,-19"/>
<text text-anchor="middle" x="273" y="-7" font-family="Helvetica,sans-Serif" font-size="10.00">Logger::log</text>
</a>
</g>
</g>
<!-- Node1&#45;&gt;Node9 -->
<g id="edge8_Node000001_Node000009" class="edge">
<title>Node1&#45;&gt;Node9</title>
<g id="a_edge8_Node000001_Node000009"><a xlink:title=" ">
<path fill="none" stroke="#63b8ff" d="M86.01,-123.34C103.57,-99.23 141.28,-52.46 185,-28.5 197.87,-21.44 213.17,-17.01 227.31,-14.22"/>
<polygon fill="#63b8ff" stroke="#63b8ff" points="228.11,-17.63 237.36,-12.47 226.91,-10.74 228.11,-17.63"/>
</a>
</g>
</g>
<!-- Node10 -->
<g id="Node000010" class="node">
<title>Node10</title>
<g id="a_Node000010"><a xlink:href="classLogger.html#a19f9ef22095a67c9fe420c9d6e761fc2" target="_top" xlink:title="Converts a LogLevel enum value to its string label.">
<polygon fill="white" stroke="#666666" points="516,-19 397,-19 397,0 516,0 516,-19"/>
<text text-anchor="middle" x="456.5" y="-7" font-family="Helvetica,sans-Serif" font-size="10.00">Logger::levelToString</text>
</a>
</g>
</g>
<!-- Node9&#45;&gt;Node10 -->
<g id="edge9_Node000009_Node000010" class="edge">
<title>Node9&#45;&gt;Node10</title>
<g id="a_edge9_Node000009_Node000010"><a xlink:title=" ">
<path fill="none" stroke="#63b8ff" d="M308.57,-9.5C330.64,-9.5 360.02,-9.5 386.7,-9.5"/>
<polygon fill="#63b8ff" stroke="#63b8ff" points="386.78,-13 396.78,-9.5 386.78,-6 386.78,-13"/>
</a>
</g>
</g>
</g>
</svg>
