<?xml version="1.0" encoding="UTF-8" standalone="no"?>
<!DOCTYPE svg PUBLIC "-//W3C//DTD SVG 1.1//EN"
 "http://www.w3.org/Graphics/SVG/1.1/DTD/svg11.dtd">
<!-- Generated by graphviz version 2.43.0 (0)
 -->
<!-- Title: Router::isRedirect Pages: 1 -->
<svg width="702pt" height="366pt"
 viewBox="0.00 0.00 702.00 365.50" xmlns="http://www.w3.org/2000/svg" xmlns:xlink="http://www.w3.org/1999/xlink">
<g id="graph0" class="graph" transform="scale(1 1) rotate(0) translate(4 361.5)">
<title>Router::isRedirect</title>
<!-- Node1 -->
<g id="Node000001" class="node">
<title>Node1</title>
<g id="a_Node000001"><a xlink:title="Checks if the request triggers an HTTP redirect.">
<polygon fill="#999999" stroke="#666666" points="104,-190.5 0,-190.5 0,-171.5 104,-171.5 104,-190.5"/>
<text text-anchor="middle" x="52" y="-178.5" font-family="Helvetica,sans-Serif" font-size="10.00">Router::isRedirect</text>
</a>
</g>
</g>
<!-- Node2 -->
<g id="Node000002" class="node">
<title>Node2</title>
<g id="a_Node000002"><a xlink:href="classHttpResponse.html#abb032c16ad3961d50a6582c50c330581" target="_top" xlink:title="Adds a header field to the HTTP response.">
<polygon fill="white" stroke="#666666" points="292.5,-357.5 148.5,-357.5 148.5,-338.5 292.5,-338.5 292.5,-357.5"/>
<text text-anchor="middle" x="220.5" y="-345.5" font-family="Helvetica,sans-Serif" font-size="10.00">HttpResponse::addHeader</text>
</a>
</g>
</g>
<!-- Node1&#45;&gt;Node2 -->
<g id="edge1_Node000001_Node000002" class="edge">
<title>Node1&#45;&gt;Node2</title>
<g id="a_edge1_Node000001_Node000002"><a xlink:title=" ">
<path fill="none" stroke="#63b8ff" d="M55.73,-190.87C63.72,-217.82 89.75,-293.17 140,-330 141.9,-331.39 143.89,-332.68 145.95,-333.87"/>
<polygon fill="#63b8ff" stroke="#63b8ff" points="144.85,-337.23 155.37,-338.49 147.93,-330.95 144.85,-337.23"/>
</a>
</g>
</g>
<!-- Node3 -->
<g id="Node000003" class="node">
<title>Node3</title>
<g id="a_Node000003"><a xlink:href="classHttpRequest.html#afee0e84f22f6d1226023d40f4a75c17a" target="_top" xlink:title="Returns a const reference to the RequestMeta structure.">
<polygon fill="white" stroke="#666666" points="282.5,-320.5 158.5,-320.5 158.5,-301.5 282.5,-301.5 282.5,-320.5"/>
<text text-anchor="middle" x="220.5" y="-308.5" font-family="Helvetica,sans-Serif" font-size="10.00">HttpRequest::getMeta</text>
</a>
</g>
</g>
<!-- Node1&#45;&gt;Node3 -->
<g id="edge2_Node000001_Node000003" class="edge">
<title>Node1&#45;&gt;Node3</title>
<g id="a_edge2_Node000001_Node000003"><a xlink:title=" ">
<path fill="none" stroke="#63b8ff" d="M57.54,-190.61C68.42,-212.54 98.24,-266.44 140,-293 142.81,-294.78 145.77,-296.39 148.83,-297.84"/>
<polygon fill="#63b8ff" stroke="#63b8ff" points="147.7,-301.16 158.28,-301.74 150.36,-294.69 147.7,-301.16"/>
</a>
</g>
</g>
<!-- Node4 -->
<g id="Node000004" class="node">
<title>Node4</title>
<g id="a_Node000004"><a xlink:href="classLocationConfig.html#a0cc1ebbf3b6dc5466e87bd54525dd32e" target="_top" xlink:title=" ">
<polygon fill="white" stroke="#666666" points="292,-283.5 149,-283.5 149,-264.5 292,-264.5 292,-283.5"/>
<text text-anchor="middle" x="220.5" y="-271.5" font-family="Helvetica,sans-Serif" font-size="10.00">LocationConfig::getReturn</text>
</a>
</g>
</g>
<!-- Node1&#45;&gt;Node4 -->
<g id="edge3_Node000001_Node000004" class="edge">
<title>Node1&#45;&gt;Node4</title>
<g id="a_edge3_Node000001_Node000004"><a xlink:title=" ">
<path fill="none" stroke="#63b8ff" d="M61.3,-190.75C75.63,-206.93 106.7,-239.21 140,-256 143.84,-257.94 147.88,-259.67 152.04,-261.21"/>
<polygon fill="#63b8ff" stroke="#63b8ff" points="151.27,-264.64 161.86,-264.49 153.49,-258 151.27,-264.64"/>
</a>
</g>
</g>
<!-- Node5 -->
<g id="Node000005" class="node">
<title>Node5</title>
<g id="a_Node000005"><a xlink:href="classHttpRequest.html#a658d90f4dd4080c30c99c463c082abc8" target="_top" xlink:title=" ">
<polygon fill="white" stroke="#666666" points="277,-246.5 164,-246.5 164,-227.5 277,-227.5 277,-246.5"/>
<text text-anchor="middle" x="220.5" y="-234.5" font-family="Helvetica,sans-Serif" font-size="10.00">HttpRequest::getUri</text>
</a>
</g>
</g>
<!-- Node1&#45;&gt;Node5 -->
<g id="edge4_Node000001_Node000005" class="edge">
<title>Node1&#45;&gt;Node5</title>
<g id="a_edge4_Node000001_Node000005"><a xlink:title=" ">
<path fill="none" stroke="#63b8ff" d="M71.94,-190.52C89.3,-198.94 115.88,-211.08 140,-219 146.59,-221.17 153.58,-223.16 160.57,-224.97"/>
<polygon fill="#63b8ff" stroke="#63b8ff" points="160.21,-228.49 170.75,-227.5 161.89,-221.7 160.21,-228.49"/>
</a>
</g>
</g>
<!-- Node6 -->
<g id="Node000006" class="node">
<title>Node6</title>
<g id="a_Node000006"><a xlink:href="classLogger.html#a4aa4d7c3b98f6e12e7ea8253da5ea0cd" target="_top" xlink:title="Returns the singleton instance of the Logger.">
<polygon fill="white" stroke="#666666" points="269,-209.5 172,-209.5 172,-190.5 269,-190.5 269,-209.5"/>
<text text-anchor="middle" x="220.5" y="-197.5" font-family="Helvetica,sans-Serif" font-size="10.00">Logger::instance</text>
</a>
</g>
</g>
<!-- Node1&#45;&gt;Node6 -->
<g id="edge5_Node000001_Node000006" class="edge">
<title>Node1&#45;&gt;Node6</title>
<g id="a_edge5_Node000001_Node000006"><a xlink:title=" ">
<path fill="none" stroke="#63b8ff" d="M104.31,-186.86C122.45,-188.93 142.98,-191.27 161.62,-193.4"/>
<polygon fill="#63b8ff" stroke="#63b8ff" points="161.43,-196.9 171.76,-194.55 162.22,-189.94 161.43,-196.9"/>
</a>
</g>
</g>
<!-- Node7 -->
<g id="Node000007" class="node">
<title>Node7</title>
<g id="a_Node000007"><a xlink:href="classLogger.html#a3d3f0801eeaf39b33a906ea8569c19b2" target="_top" xlink:title="Writes a log entry with timestamp, level, and message.">
<polygon fill="white" stroke="#666666" points="256,-172.5 185,-172.5 185,-153.5 256,-153.5 256,-172.5"/>
<text text-anchor="middle" x="220.5" y="-160.5" font-family="Helvetica,sans-Serif" font-size="10.00">Logger::log</text>
</a>
</g>
</g>
<!-- Node1&#45;&gt;Node7 -->
<g id="edge6_Node000001_Node000007" class="edge">
<title>Node1&#45;&gt;Node7</title>
<g id="a_edge6_Node000001_Node000007"><a xlink:title=" ">
<path fill="none" stroke="#63b8ff" d="M104.31,-175.45C126.92,-173.01 153.22,-170.17 174.98,-167.81"/>
<polygon fill="#63b8ff" stroke="#63b8ff" points="175.38,-171.29 184.94,-166.74 174.62,-164.33 175.38,-171.29"/>
</a>
</g>
</g>
<!-- Node9 -->
<g id="Node000009" class="node">
<title>Node9</title>
<g id="a_Node000009"><a xlink:href="classServerConfig.html#a708ec8a352980380e36dc6090322ea41" target="_top" xlink:title="Finds the LocationConfig that best matches a given URI.">
<polygon fill="white" stroke="#666666" points="299,-135.5 142,-135.5 142,-116.5 299,-116.5 299,-135.5"/>
<text text-anchor="middle" x="220.5" y="-123.5" font-family="Helvetica,sans-Serif" font-size="10.00">ServerConfig::matchLocation</text>
</a>
</g>
</g>
<!-- Node1&#45;&gt;Node9 -->
<g id="edge8_Node000001_Node000009" class="edge">
<title>Node1&#45;&gt;Node9</title>
<g id="a_edge8_Node000001_Node000009"><a xlink:title=" ">
<path fill="none" stroke="#63b8ff" d="M73.4,-171.48C90.82,-163.62 116.68,-152.56 140,-145 147.77,-142.48 156.07,-140.13 164.27,-138.01"/>
<polygon fill="#63b8ff" stroke="#63b8ff" points="165.32,-141.35 174.17,-135.53 163.62,-134.56 165.32,-141.35"/>
</a>
</g>
</g>
<!-- Node12 -->
<g id="Node000012" class="node">
<title>Node12</title>
<g id="a_Node000012"><a xlink:href="classHttpResponse.html#ab929ceba6ce5236a670f33f9a6eeeb35" target="_top" xlink:title="Sets whether the response will use chunked transfer encoding.">
<polygon fill="white" stroke="#666666" points="294.5,-98.5 146.5,-98.5 146.5,-79.5 294.5,-79.5 294.5,-98.5"/>
<text text-anchor="middle" x="220.5" y="-86.5" font-family="Helvetica,sans-Serif" font-size="10.00">HttpResponse::setChunked</text>
</a>
</g>
</g>
<!-- Node1&#45;&gt;Node12 -->
<g id="edge11_Node000001_Node000012" class="edge">
<title>Node1&#45;&gt;Node12</title>
<g id="a_edge11_Node000001_Node000012"><a xlink:title=" ">
<path fill="none" stroke="#63b8ff" d="M61.61,-171.31C76.16,-155.55 107.24,-124.49 140,-108 144.83,-105.57 149.99,-103.44 155.27,-101.58"/>
<polygon fill="#63b8ff" stroke="#63b8ff" points="156.39,-104.89 164.85,-98.5 154.26,-98.22 156.39,-104.89"/>
</a>
</g>
</g>
<!-- Node13 -->
<g id="Node000013" class="node">
<title>Node13</title>
<g id="a_Node000013"><a xlink:href="classRequestMeta.html#a340d195d3f4552366d501915c4a03714" target="_top" xlink:title="Sets whether this request is associated with a redirect.">
<polygon fill="white" stroke="#666666" points="292,-61.5 149,-61.5 149,-42.5 292,-42.5 292,-61.5"/>
<text text-anchor="middle" x="220.5" y="-49.5" font-family="Helvetica,sans-Serif" font-size="10.00">RequestMeta::setRedirect</text>
</a>
</g>
</g>
<!-- Node1&#45;&gt;Node13 -->
<g id="edge12_Node000001_Node000013" class="edge">
<title>Node1&#45;&gt;Node13</title>
<g id="a_edge12_Node000001_Node000013"><a xlink:title=" ">
<path fill="none" stroke="#63b8ff" d="M57.78,-171.27C68.94,-149.6 98.95,-97.2 140,-71 143.34,-68.87 146.89,-66.98 150.57,-65.3"/>
<polygon fill="#63b8ff" stroke="#63b8ff" points="151.96,-68.51 159.94,-61.55 149.36,-62.02 151.96,-68.51"/>
</a>
</g>
</g>
<!-- Node14 -->
<g id="Node000014" class="node">
<title>Node14</title>
<g id="a_Node000014"><a xlink:href="classHttpResponse.html#af02b3b82a638bfbf23226b9f3bf06843" target="_top" xlink:title="Sets the HTTP status code and updates the corresponding reason phrase.">
<polygon fill="white" stroke="#666666" points="301,-24.5 140,-24.5 140,-5.5 301,-5.5 301,-24.5"/>
<text text-anchor="middle" x="220.5" y="-12.5" font-family="Helvetica,sans-Serif" font-size="10.00">HttpResponse::setStatusCode</text>
</a>
</g>
</g>
<!-- Node1&#45;&gt;Node14 -->
<g id="edge13_Node000001_Node000014" class="edge">
<title>Node1&#45;&gt;Node14</title>
<g id="a_edge13_Node000001_Node000014"><a xlink:title=" ">
<path fill="none" stroke="#63b8ff" d="M55.79,-171.3C63.95,-144.77 90.36,-70.61 140,-34 142.54,-32.12 145.25,-30.43 148.06,-28.9"/>
<polygon fill="#63b8ff" stroke="#63b8ff" points="149.8,-31.95 157.38,-24.56 146.84,-25.61 149.8,-31.95"/>
</a>
</g>
</g>
<!-- Node8 -->
<g id="Node000008" class="node">
<title>Node8</title>
<g id="a_Node000008"><a xlink:href="classLogger.html#a19f9ef22095a67c9fe420c9d6e761fc2" target="_top" xlink:title="Converts a LogLevel enum value to its string label.">
<polygon fill="white" stroke="#666666" points="484,-172.5 365,-172.5 365,-153.5 484,-153.5 484,-172.5"/>
<text text-anchor="middle" x="424.5" y="-160.5" font-family="Helvetica,sans-Serif" font-size="10.00">Logger::levelToString</text>
</a>
</g>
</g>
<!-- Node7&#45;&gt;Node8 -->
<g id="edge7_Node000007_Node000008" class="edge">
<title>Node7&#45;&gt;Node8</title>
<g id="a_edge7_Node000007_Node000008"><a xlink:title=" ">
<path fill="none" stroke="#63b8ff" d="M256.23,-163C283.21,-163 321.5,-163 354.64,-163"/>
<polygon fill="#63b8ff" stroke="#63b8ff" points="354.74,-166.5 364.74,-163 354.74,-159.5 354.74,-166.5"/>
</a>
</g>
</g>
<!-- Node10 -->
<g id="Node000010" class="node">
<title>Node10</title>
<g id="a_Node000010"><a xlink:href="classLocationConfig.html#a06c65ab0130599edbd485a2db4e50b82" target="_top" xlink:title=" ">
<polygon fill="white" stroke="#666666" points="490,-135.5 359,-135.5 359,-116.5 490,-116.5 490,-135.5"/>
<text text-anchor="middle" x="424.5" y="-123.5" font-family="Helvetica,sans-Serif" font-size="10.00">LocationConfig::getPath</text>
</a>
</g>
</g>
<!-- Node9&#45;&gt;Node10 -->
<g id="edge9_Node000009_Node000010" class="edge">
<title>Node9&#45;&gt;Node10</title>
<g id="a_edge9_Node000009_Node000010"><a xlink:title=" ">
<path fill="none" stroke="#63b8ff" d="M299.02,-126C315.27,-126 332.37,-126 348.52,-126"/>
<polygon fill="#63b8ff" stroke="#63b8ff" points="348.98,-129.5 358.98,-126 348.98,-122.5 348.98,-129.5"/>
</a>
</g>
</g>
<!-- Node11 -->
<g id="Node000011" class="node">
<title>Node11</title>
<g id="a_Node000011"><a xlink:href="string__utils_8hpp.html#a54a8d2d3492cbc9eecedf25fda818a4d" target="_top" xlink:title="Checks whether a string starts with a given prefix.">
<polygon fill="white" stroke="#666666" points="458,-98.5 391,-98.5 391,-79.5 458,-79.5 458,-98.5"/>
<text text-anchor="middle" x="424.5" y="-86.5" font-family="Helvetica,sans-Serif" font-size="10.00">startsWith</text>
</a>
</g>
</g>
<!-- Node9&#45;&gt;Node11 -->
<g id="edge10_Node000009_Node000011" class="edge">
<title>Node9&#45;&gt;Node11</title>
<g id="a_edge10_Node000009_Node000011"><a xlink:title=" ">
<path fill="none" stroke="#63b8ff" d="M273.52,-116.47C306.81,-110.37 349.47,-102.56 380.78,-96.82"/>
<polygon fill="#63b8ff" stroke="#63b8ff" points="381.73,-100.21 390.93,-94.97 380.46,-93.32 381.73,-100.21"/>
</a>
</g>
</g>
<!-- Node15 -->
<g id="Node000015" class="node">
<title>Node15</title>
<g id="a_Node000015"><a xlink:href="classHttpResponse.html#a98bb39b2757912eae4f667db80e3e6a4" target="_top" xlink:title="Sets the textual reason phrase for a given status code.">
<polygon fill="white" stroke="#666666" points="512,-24.5 337,-24.5 337,-5.5 512,-5.5 512,-24.5"/>
<text text-anchor="middle" x="424.5" y="-12.5" font-family="Helvetica,sans-Serif" font-size="10.00">HttpResponse::setReasonPhrase</text>
</a>
</g>
</g>
<!-- Node14&#45;&gt;Node15 -->
<g id="edge14_Node000014_Node000015" class="edge">
<title>Node14&#45;&gt;Node15</title>
<g id="a_edge14_Node000014_Node000015"><a xlink:title=" ">
<path fill="none" stroke="#63b8ff" d="M301.05,-15C309.46,-15 318.08,-15 326.66,-15"/>
<polygon fill="#63b8ff" stroke="#63b8ff" points="326.69,-18.5 336.69,-15 326.69,-11.5 326.69,-18.5"/>
</a>
</g>
</g>
<!-- Node16 -->
<g id="Node000016" class="node">
<title>Node16</title>
<g id="a_Node000016"><a xlink:href="classHttpResponse.html#ae09f25f31d917b068fae8bbf07b29c19" target="_top" xlink:title="Converts an HTTP status code to its standard reason phrase string.">
<polygon fill="white" stroke="#666666" points="694,-30 548,-30 548,0 694,0 694,-30"/>
<text text-anchor="start" x="556" y="-18" font-family="Helvetica,sans-Serif" font-size="10.00">HttpResponse::statusCode</text>
<text text-anchor="middle" x="621" y="-7" font-family="Helvetica,sans-Serif" font-size="10.00">ToString</text>
</a>
</g>
</g>
<!-- Node15&#45;&gt;Node16 -->
<g id="edge15_Node000015_Node000016" class="edge">
<title>Node15&#45;&gt;Node16</title>
<g id="a_edge15_Node000015_Node000016"><a xlink:title=" ">
<path fill="none" stroke="#63b8ff" d="M512.23,-15C520.72,-15 529.33,-15 537.78,-15"/>
<polygon fill="#63b8ff" stroke="#63b8ff" points="538,-18.5 548,-15 538,-11.5 538,-18.5"/>
</a>
</g>
</g>
</g>
</svg>
