<?xml version="1.0" encoding="UTF-8" standalone="no"?>
<!DOCTYPE svg PUBLIC "-//W3C//DTD SVG 1.1//EN"
 "http://www.w3.org/Graphics/SVG/1.1/DTD/svg11.dtd">
<!-- Generated by graphviz version 2.43.0 (0)
 -->
<!-- Title: RequestParse::method Pages: 1 -->
<svg width="684pt" height="204pt"
 viewBox="0.00 0.00 684.00 204.00" xmlns="http://www.w3.org/2000/svg" xmlns:xlink="http://www.w3.org/1999/xlink">
<g id="graph0" class="graph" transform="scale(1 1) rotate(0) translate(4 200)">
<title>RequestParse::method</title>
<!-- Node1 -->
<g id="Node000001" class="node">
<title>Node1</title>
<g id="a_Node000001"><a xlink:title="Determines the HTTP method and validates it against configuration.">
<polygon fill="#999999" stroke="#666666" points="126,-57 0,-57 0,-38 126,-38 126,-57"/>
<text text-anchor="middle" x="63" y="-45" font-family="Helvetica,sans-Serif" font-size="10.00">RequestParse::method</text>
</a>
</g>
</g>
<!-- Node1&#45;&gt;Node1 -->
<g id="edge9_Node000001_Node000001" class="edge">
<title>Node1&#45;&gt;Node1</title>
<g id="a_edge9_Node000001_Node000001"><a xlink:title=" ">
<path fill="none" stroke="#63b8ff" d="M35.87,-57.08C22.68,-65.73 31.72,-75 63,-75 84.02,-75 95,-70.82 95.93,-65.45"/>
<polygon fill="#63b8ff" stroke="#63b8ff" points="98.7,-63.3 90.13,-57.08 92.95,-67.29 98.7,-63.3"/>
</a>
</g>
</g>
<!-- Node2 -->
<g id="Node000002" class="node">
<title>Node2</title>
<g id="a_Node000002"><a xlink:href="classRequestParse.html#a3a3d2f425b7652c12b681fed8a66b8d9" target="_top" xlink:title="Validates if the HTTP method is allowed in the matched location block.">
<polygon fill="white" stroke="#666666" points="316,-113 162,-113 162,-94 316,-94 316,-113"/>
<text text-anchor="middle" x="239" y="-101" font-family="Helvetica,sans-Serif" font-size="10.00">RequestParse::checkMethod</text>
</a>
</g>
</g>
<!-- Node1&#45;&gt;Node2 -->
<g id="edge1_Node000001_Node000002" class="edge">
<title>Node1&#45;&gt;Node2</title>
<g id="a_edge1_Node000001_Node000002"><a xlink:title=" ">
<path fill="none" stroke="#63b8ff" d="M93.91,-57.13C122.85,-66.44 166.86,-80.6 198.63,-90.83"/>
<polygon fill="#63b8ff" stroke="#63b8ff" points="197.89,-94.27 208.48,-94 200.03,-87.6 197.89,-94.27"/>
</a>
</g>
</g>
<!-- Node9 -->
<g id="Node000009" class="node">
<title>Node9</title>
<g id="a_Node000009"><a xlink:href="classHttpRequest.html#a4af8abc5368c893ba9bb24939cb95aa3" target="_top" xlink:title=" ">
<polygon fill="white" stroke="#666666" points="504.5,-48 356.5,-48 356.5,-29 504.5,-29 504.5,-48"/>
<text text-anchor="middle" x="430.5" y="-36" font-family="Helvetica,sans-Serif" font-size="10.00">HttpRequest::setParseError</text>
</a>
</g>
</g>
<!-- Node1&#45;&gt;Node9 -->
<g id="edge11_Node000001_Node000009" class="edge">
<title>Node1&#45;&gt;Node9</title>
<g id="a_edge11_Node000001_Node000009"><a xlink:title=" ">
<path fill="none" stroke="#63b8ff" d="M126,-45.97C186.64,-44.48 279.37,-42.2 346.38,-40.55"/>
<polygon fill="#63b8ff" stroke="#63b8ff" points="346.58,-44.04 356.49,-40.3 346.4,-37.05 346.58,-44.04"/>
</a>
</g>
</g>
<!-- Node10 -->
<g id="Node000010" class="node">
<title>Node10</title>
<g id="a_Node000010"><a xlink:href="classHttpRequest.html#a85d34306cf62cabb5a8174532029c023" target="_top" xlink:title="Sets the HTTP request method.">
<polygon fill="white" stroke="#666666" points="306.5,-19 171.5,-19 171.5,0 306.5,0 306.5,-19"/>
<text text-anchor="middle" x="239" y="-7" font-family="Helvetica,sans-Serif" font-size="10.00">HttpRequest::setMethod</text>
</a>
</g>
</g>
<!-- Node1&#45;&gt;Node10 -->
<g id="edge10_Node000001_Node000010" class="edge">
<title>Node1&#45;&gt;Node10</title>
<g id="a_edge10_Node000001_Node000010"><a xlink:title=" ">
<path fill="none" stroke="#63b8ff" d="M107.91,-37.91C131.18,-32.83 159.95,-26.54 184.52,-21.18"/>
<polygon fill="#63b8ff" stroke="#63b8ff" points="185.39,-24.57 194.41,-19.02 183.89,-17.73 185.39,-24.57"/>
</a>
</g>
</g>
<!-- Node3 -->
<g id="Node000003" class="node">
<title>Node3</title>
<g id="a_Node000003"><a xlink:href="classHttpRequest.html#a5e8c184f323f39e36f2bb681554bc171" target="_top" xlink:title="Returns the current HTTP method.">
<polygon fill="white" stroke="#666666" points="498.5,-196 362.5,-196 362.5,-177 498.5,-177 498.5,-196"/>
<text text-anchor="middle" x="430.5" y="-184" font-family="Helvetica,sans-Serif" font-size="10.00">HttpRequest::getMethod</text>
</a>
</g>
</g>
<!-- Node2&#45;&gt;Node3 -->
<g id="edge2_Node000002_Node000003" class="edge">
<title>Node2&#45;&gt;Node3</title>
<g id="a_edge2_Node000002_Node000003"><a xlink:title=" ">
<path fill="none" stroke="#63b8ff" d="M253.46,-113.11C273.84,-127.23 314.17,-153.52 352,-168.5 357.35,-170.62 363.01,-172.52 368.73,-174.23"/>
<polygon fill="#63b8ff" stroke="#63b8ff" points="367.82,-177.61 378.39,-176.91 369.69,-170.86 367.82,-177.61"/>
</a>
</g>
</g>
<!-- Node4 -->
<g id="Node000004" class="node">
<title>Node4</title>
<g id="a_Node000004"><a xlink:href="classLocationConfig.html#a8f52451547425e809ccdea74557339fe" target="_top" xlink:title=" ">
<polygon fill="white" stroke="#666666" points="506.5,-159 354.5,-159 354.5,-140 506.5,-140 506.5,-159"/>
<text text-anchor="middle" x="430.5" y="-147" font-family="Helvetica,sans-Serif" font-size="10.00">LocationConfig::getMethods</text>
</a>
</g>
</g>
<!-- Node2&#45;&gt;Node4 -->
<g id="edge3_Node000002_Node000004" class="edge">
<title>Node2&#45;&gt;Node4</title>
<g id="a_edge3_Node000002_Node000004"><a xlink:title=" ">
<path fill="none" stroke="#63b8ff" d="M277.55,-113.05C299.28,-118.54 327.16,-125.51 352,-131.5 360.3,-133.5 369.11,-135.59 377.7,-137.6"/>
<polygon fill="#63b8ff" stroke="#63b8ff" points="377.11,-141.05 387.64,-139.91 378.7,-134.23 377.11,-141.05"/>
</a>
</g>
</g>
<!-- Node5 -->
<g id="Node000005" class="node">
<title>Node5</title>
<g id="a_Node000005"><a xlink:href="classHttpRequest.html#a658d90f4dd4080c30c99c463c082abc8" target="_top" xlink:title=" ">
<polygon fill="white" stroke="#666666" points="487,-122 374,-122 374,-103 487,-103 487,-122"/>
<text text-anchor="middle" x="430.5" y="-110" font-family="Helvetica,sans-Serif" font-size="10.00">HttpRequest::getUri</text>
</a>
</g>
</g>
<!-- Node2&#45;&gt;Node5 -->
<g id="edge4_Node000002_Node000005" class="edge">
<title>Node2&#45;&gt;Node5</title>
<g id="a_edge4_Node000002_Node000005"><a xlink:title=" ">
<path fill="none" stroke="#63b8ff" d="M316.26,-107.12C331.88,-107.86 348.21,-108.64 363.44,-109.36"/>
<polygon fill="#63b8ff" stroke="#63b8ff" points="363.63,-112.88 373.79,-109.85 363.97,-105.88 363.63,-112.88"/>
</a>
</g>
</g>
<!-- Node6 -->
<g id="Node000006" class="node">
<title>Node6</title>
<g id="a_Node000006"><a xlink:href="classServerConfig.html#a708ec8a352980380e36dc6090322ea41" target="_top" xlink:title="Finds the LocationConfig that best matches a given URI.">
<polygon fill="white" stroke="#666666" points="509,-85 352,-85 352,-66 509,-66 509,-85"/>
<text text-anchor="middle" x="430.5" y="-73" font-family="Helvetica,sans-Serif" font-size="10.00">ServerConfig::matchLocation</text>
</a>
</g>
</g>
<!-- Node2&#45;&gt;Node6 -->
<g id="edge5_Node000002_Node000006" class="edge">
<title>Node2&#45;&gt;Node6</title>
<g id="a_edge5_Node000002_Node000006"><a xlink:title=" ">
<path fill="none" stroke="#63b8ff" d="M304.42,-93.98C320.59,-91.59 338.08,-89.01 354.71,-86.55"/>
<polygon fill="#63b8ff" stroke="#63b8ff" points="355.55,-89.96 364.94,-85.04 354.53,-83.04 355.55,-89.96"/>
</a>
</g>
</g>
<!-- Node2&#45;&gt;Node9 -->
<g id="edge8_Node000002_Node000009" class="edge">
<title>Node2&#45;&gt;Node9</title>
<g id="a_edge8_Node000002_Node000009"><a xlink:title=" ">
<path fill="none" stroke="#63b8ff" d="M260.71,-93.9C282.92,-83.86 319.42,-68.12 352,-57.5 359.68,-55 367.88,-52.65 375.97,-50.52"/>
<polygon fill="#63b8ff" stroke="#63b8ff" points="376.91,-53.89 385.73,-48.02 375.17,-47.1 376.91,-53.89"/>
</a>
</g>
</g>
<!-- Node7 -->
<g id="Node000007" class="node">
<title>Node7</title>
<g id="a_Node000007"><a xlink:href="classLocationConfig.html#a06c65ab0130599edbd485a2db4e50b82" target="_top" xlink:title=" ">
<polygon fill="white" stroke="#666666" points="676,-103 545,-103 545,-84 676,-84 676,-103"/>
<text text-anchor="middle" x="610.5" y="-91" font-family="Helvetica,sans-Serif" font-size="10.00">LocationConfig::getPath</text>
</a>
</g>
</g>
<!-- Node6&#45;&gt;Node7 -->
<g id="edge6_Node000006_Node000007" class="edge">
<title>Node6&#45;&gt;Node7</title>
<g id="a_edge6_Node000006_Node000007"><a xlink:title=" ">
<path fill="none" stroke="#63b8ff" d="M509.06,-83.34C517.67,-84.21 526.44,-85.1 535.02,-85.97"/>
<polygon fill="#63b8ff" stroke="#63b8ff" points="534.68,-89.45 544.99,-86.98 535.39,-82.49 534.68,-89.45"/>
</a>
</g>
</g>
<!-- Node8 -->
<g id="Node000008" class="node">
<title>Node8</title>
<g id="a_Node000008"><a xlink:href="string__utils_8hpp.html#a54a8d2d3492cbc9eecedf25fda818a4d" target="_top" xlink:title="Checks whether a string starts with a given prefix.">
<polygon fill="white" stroke="#666666" points="644,-66 577,-66 577,-47 644,-47 644,-66"/>
<text text-anchor="middle" x="610.5" y="-54" font-family="Helvetica,sans-Serif" font-size="10.00">startsWith</text>
</a>
</g>
</g>
<!-- Node6&#45;&gt;Node8 -->
<g id="edge7_Node000006_Node000008" class="edge">
<title>Node6&#45;&gt;Node8</title>
<g id="a_edge7_Node000006_Node000008"><a xlink:title=" ">
<path fill="none" stroke="#63b8ff" d="M509.06,-67.22C528.76,-65.12 549.23,-62.93 566.51,-61.09"/>
<polygon fill="#63b8ff" stroke="#63b8ff" points="567.24,-64.53 576.82,-59.99 566.5,-57.57 567.24,-64.53"/>
</a>
</g>
</g>
</g>
</svg>
