<?xml version="1.0" encoding="UTF-8" standalone="no"?>
<!DOCTYPE svg PUBLIC "-//W3C//DTD SVG 1.1//EN"
 "http://www.w3.org/Graphics/SVG/1.1/DTD/svg11.dtd">
<!-- Generated by graphviz version 2.43.0 (0)
 -->
<!-- Title: HttpRequest::getHeader Pages: 1 -->
<svg width="1041pt" height="65pt"
 viewBox="0.00 0.00 1041.00 65.00" xmlns="http://www.w3.org/2000/svg" xmlns:xlink="http://www.w3.org/1999/xlink">
<g id="graph0" class="graph" transform="scale(1 1) rotate(0) translate(4 61)">
<title>HttpRequest::getHeader</title>
<!-- Node1 -->
<g id="Node000001" class="node">
<title>Node1</title>
<g id="a_Node000001"><a xlink:title="Retrieves a header value by name (case&#45;insensitive).">
<polygon fill="#999999" stroke="#666666" points="1033,-38 899,-38 899,-19 1033,-19 1033,-38"/>
<text text-anchor="middle" x="966" y="-26" font-family="Helvetica,sans-Serif" font-size="10.00">HttpRequest::getHeader</text>
</a>
</g>
</g>
<!-- Node2 -->
<g id="Node000002" class="node">
<title>Node2</title>
<g id="a_Node000002"><a xlink:href="classCgiHandler.html#a61c5a0066d14988001792da45dba2207" target="_top" xlink:title="Builds the CGI environment variables array (envp).">
<polygon fill="white" stroke="#666666" points="863,-57 738,-57 738,-38 863,-38 863,-57"/>
<text text-anchor="middle" x="800.5" y="-45" font-family="Helvetica,sans-Serif" font-size="10.00">CgiHandler::buildEnvp</text>
</a>
</g>
</g>
<!-- Node1&#45;&gt;Node2 -->
<g id="edge1_Node000001_Node000002" class="edge">
<title>Node1&#45;&gt;Node2</title>
<g id="a_edge1_Node000001_Node000002"><a xlink:title=" ">
<path fill="none" stroke="#63b8ff" d="M888.86,-37.35C880.2,-38.35 871.46,-39.37 863.02,-40.35"/>
<polygon fill="#63b8ff" stroke="#63b8ff" points="889.44,-40.8 898.97,-36.17 888.63,-33.85 889.44,-40.8"/>
</a>
</g>
</g>
<!-- Node8 -->
<g id="Node000008" class="node">
<title>Node8</title>
<g id="a_Node000008"><a xlink:href="classUploadHandler.html#ae9d6fd83c1ba35b23829b8f4f619127d" target="_top" xlink:title="Entry point for handling file uploads.">
<polygon fill="white" stroke="#666666" points="702,-19 574,-19 574,0 702,0 702,-19"/>
<text text-anchor="middle" x="638" y="-7" font-family="Helvetica,sans-Serif" font-size="10.00">UploadHandler::handle</text>
</a>
</g>
</g>
<!-- Node1&#45;&gt;Node8 -->
<g id="edge7_Node000001_Node000008" class="edge">
<title>Node1&#45;&gt;Node8</title>
<g id="a_edge7_Node000001_Node000008"><a xlink:title=" ">
<path fill="none" stroke="#63b8ff" d="M888.65,-24.05C831.94,-20.75 755.52,-16.29 702.22,-13.18"/>
<polygon fill="#63b8ff" stroke="#63b8ff" points="888.45,-27.54 898.64,-24.63 888.86,-20.56 888.45,-27.54"/>
</a>
</g>
</g>
<!-- Node3 -->
<g id="Node000003" class="node">
<title>Node3</title>
<g id="a_Node000003"><a xlink:href="classCgiHandler.html#aa5b570b370a65926aaedd54b61350e58" target="_top" xlink:title="Starts an asynchronous CGI execution process.">
<polygon fill="white" stroke="#666666" points="702,-56 574,-56 574,-37 702,-37 702,-56"/>
<text text-anchor="middle" x="638" y="-44" font-family="Helvetica,sans-Serif" font-size="10.00">CgiHandler::startAsync</text>
</a>
</g>
</g>
<!-- Node2&#45;&gt;Node3 -->
<g id="edge2_Node000002_Node000003" class="edge">
<title>Node2&#45;&gt;Node3</title>
<g id="a_edge2_Node000002_Node000003"><a xlink:title=" ">
<path fill="none" stroke="#63b8ff" d="M727.88,-47.05C719.26,-47 710.51,-46.95 702.02,-46.89"/>
<polygon fill="#63b8ff" stroke="#63b8ff" points="727.88,-50.55 737.91,-47.12 727.93,-43.55 727.88,-50.55"/>
</a>
</g>
</g>
<!-- Node4 -->
<g id="Node000004" class="node">
<title>Node4</title>
<g id="a_Node000004"><a xlink:href="classDispatcher.html#a13c8a2fd90033adf9788c8774c3f0f47" target="_top" xlink:title="Central dispatch routine that delegates HTTP requests to the appropriate handler.">
<polygon fill="white" stroke="#666666" points="538,-37 422,-37 422,-18 538,-18 538,-37"/>
<text text-anchor="middle" x="480" y="-25" font-family="Helvetica,sans-Serif" font-size="10.00">Dispatcher::dispatch</text>
</a>
</g>
</g>
<!-- Node3&#45;&gt;Node4 -->
<g id="edge3_Node000003_Node000004" class="edge">
<title>Node3&#45;&gt;Node4</title>
<g id="a_edge3_Node000003_Node000004"><a xlink:title=" ">
<path fill="none" stroke="#63b8ff" d="M563.92,-37.6C555.28,-36.55 546.57,-35.49 538.19,-34.47"/>
<polygon fill="#63b8ff" stroke="#63b8ff" points="563.65,-41.09 574,-38.83 564.5,-34.14 563.65,-41.09"/>
</a>
</g>
</g>
<!-- Node5 -->
<g id="Node000005" class="node">
<title>Node5</title>
<g id="a_Node000005"><a xlink:href="classWebServer.html#a8cbf37c0a840305ce15e8648566c9ce4" target="_top" xlink:title="Handles incoming data from a connected client.">
<polygon fill="white" stroke="#666666" points="386,-37 235,-37 235,-18 386,-18 386,-37"/>
<text text-anchor="middle" x="310.5" y="-25" font-family="Helvetica,sans-Serif" font-size="10.00">WebServer::receiveRequest</text>
</a>
</g>
</g>
<!-- Node4&#45;&gt;Node5 -->
<g id="edge4_Node000004_Node000005" class="edge">
<title>Node4&#45;&gt;Node5</title>
<g id="a_edge4_Node000004_Node000005"><a xlink:title=" ">
<path fill="none" stroke="#63b8ff" d="M411.72,-27.5C403.32,-27.5 394.69,-27.5 386.19,-27.5"/>
<polygon fill="#63b8ff" stroke="#63b8ff" points="411.82,-31 421.82,-27.5 411.82,-24 411.82,-31"/>
</a>
</g>
</g>
<!-- Node6 -->
<g id="Node000006" class="node">
<title>Node6</title>
<g id="a_Node000006"><a xlink:href="classWebServer.html#af39709e3744077e019aa76555f03a42e" target="_top" xlink:title="Main event loop — monitors sockets, dispatches requests, and handles responses.">
<polygon fill="white" stroke="#666666" points="199,-37 77,-37 77,-18 199,-18 199,-37"/>
<text text-anchor="middle" x="138" y="-25" font-family="Helvetica,sans-Serif" font-size="10.00">WebServer::runServer</text>
</a>
</g>
</g>
<!-- Node5&#45;&gt;Node6 -->
<g id="edge5_Node000005_Node000006" class="edge">
<title>Node5&#45;&gt;Node6</title>
<g id="a_edge5_Node000005_Node000006"><a xlink:title=" ">
<path fill="none" stroke="#63b8ff" d="M224.63,-27.5C216.02,-27.5 207.4,-27.5 199.13,-27.5"/>
<polygon fill="#63b8ff" stroke="#63b8ff" points="224.72,-31 234.72,-27.5 224.72,-24 224.72,-31"/>
</a>
</g>
</g>
<!-- Node7 -->
<g id="Node000007" class="node">
<title>Node7</title>
<g id="a_Node000007"><a xlink:href="main_8cpp.html#a3c04138a5bfe5d72780bb7e82a18e627" target="_top" xlink:title="Entry point of the Webservinho web server.">
<polygon fill="white" stroke="#666666" points="41,-37 0,-37 0,-18 41,-18 41,-37"/>
<text text-anchor="middle" x="20.5" y="-25" font-family="Helvetica,sans-Serif" font-size="10.00">main</text>
</a>
</g>
</g>
<!-- Node6&#45;&gt;Node7 -->
<g id="edge6_Node000006_Node000007" class="edge">
<title>Node6&#45;&gt;Node7</title>
<g id="a_edge6_Node000006_Node000007"><a xlink:title=" ">
<path fill="none" stroke="#63b8ff" d="M66.66,-27.5C57.35,-27.5 48.51,-27.5 41.15,-27.5"/>
<polygon fill="#63b8ff" stroke="#63b8ff" points="66.88,-31 76.88,-27.5 66.88,-24 66.88,-31"/>
</a>
</g>
</g>
<!-- Node8&#45;&gt;Node4 -->
<g id="edge8_Node000008_Node000004" class="edge">
<title>Node8&#45;&gt;Node4</title>
<g id="a_edge8_Node000008_Node000004"><a xlink:title=" ">
<path fill="none" stroke="#63b8ff" d="M563.92,-17.93C555.28,-18.93 546.57,-19.93 538.19,-20.9"/>
<polygon fill="#63b8ff" stroke="#63b8ff" points="564.47,-21.39 574,-16.77 563.66,-14.44 564.47,-21.39"/>
</a>
</g>
</g>
</g>
</svg>
