<?xml version="1.0" encoding="UTF-8" standalone="no"?>
<!DOCTYPE svg PUBLIC "-//W3C//DTD SVG 1.1//EN"
 "http://www.w3.org/Graphics/SVG/1.1/DTD/svg11.dtd">
<!-- Generated by graphviz version 2.43.0 (0)
 -->
<!-- Title: ClientConnection::sendData Pages: 1 -->
<svg width="520pt" height="187pt"
 viewBox="0.00 0.00 520.00 187.00" xmlns="http://www.w3.org/2000/svg" xmlns:xlink="http://www.w3.org/1999/xlink">
<g id="graph0" class="graph" transform="scale(1 1) rotate(0) translate(4 183)">
<title>ClientConnection::sendData</title>
<!-- Node1 -->
<g id="Node000001" class="node">
<title>Node1</title>
<g id="a_Node000001"><a xlink:title="Sends response data to the client.">
<polygon fill="#999999" stroke="#666666" points="152,-93 0,-93 0,-74 152,-74 152,-93"/>
<text text-anchor="middle" x="76" y="-81" font-family="Helvetica,sans-Serif" font-size="10.00">ClientConnection::sendData</text>
</a>
</g>
</g>
<!-- Node2 -->
<g id="Node000002" class="node">
<title>Node2</title>
<g id="a_Node000002"><a xlink:href="classClientConnection.html#a5b90a3b273d782b56307fd371779e57c" target="_top" xlink:title=" ">
<polygon fill="white" stroke="#666666" points="340,-179 205,-179 205,-160 340,-160 340,-179"/>
<text text-anchor="middle" x="272.5" y="-167" font-family="Helvetica,sans-Serif" font-size="10.00">ClientConnection::getFD</text>
</a>
</g>
</g>
<!-- Node1&#45;&gt;Node2 -->
<g id="edge1_Node000001_Node000002" class="edge">
<title>Node1&#45;&gt;Node2</title>
<g id="a_edge1_Node000001_Node000002"><a xlink:title=" ">
<path fill="none" stroke="#63b8ff" d="M89.94,-93.22C109.93,-107.78 150.01,-135.18 188,-150.5 194.3,-153.04 201.01,-155.28 207.78,-157.24"/>
<polygon fill="#63b8ff" stroke="#63b8ff" points="207.15,-160.7 217.71,-159.93 208.97,-153.94 207.15,-160.7"/>
</a>
</g>
</g>
<!-- Node3 -->
<g id="Node000003" class="node">
<title>Node3</title>
<g id="a_Node000003"><a xlink:href="classClientConnection.html#a2f8a4311d678e06bcd23abd3b7f605a9" target="_top" xlink:title=" ">
<polygon fill="white" stroke="#666666" points="357,-141.5 188,-141.5 188,-111.5 357,-111.5 357,-141.5"/>
<text text-anchor="start" x="196" y="-129.5" font-family="Helvetica,sans-Serif" font-size="10.00">ClientConnection::getResponse</text>
<text text-anchor="middle" x="272.5" y="-118.5" font-family="Helvetica,sans-Serif" font-size="10.00">Buffer</text>
</a>
</g>
</g>
<!-- Node1&#45;&gt;Node3 -->
<g id="edge2_Node000001_Node000003" class="edge">
<title>Node1&#45;&gt;Node3</title>
<g id="a_edge2_Node000001_Node000003"><a xlink:title=" ">
<path fill="none" stroke="#63b8ff" d="M120.17,-93.04C141.8,-97.83 168.68,-103.77 193.75,-109.31"/>
<polygon fill="#63b8ff" stroke="#63b8ff" points="193.1,-112.75 203.62,-111.49 194.61,-105.92 193.1,-112.75"/>
</a>
</g>
</g>
<!-- Node4 -->
<g id="Node000004" class="node">
<title>Node4</title>
<g id="a_Node000004"><a xlink:href="classLogger.html#a4aa4d7c3b98f6e12e7ea8253da5ea0cd" target="_top" xlink:title="Returns the singleton instance of the Logger.">
<polygon fill="white" stroke="#666666" points="321,-93 224,-93 224,-74 321,-74 321,-93"/>
<text text-anchor="middle" x="272.5" y="-81" font-family="Helvetica,sans-Serif" font-size="10.00">Logger::instance</text>
</a>
</g>
</g>
<!-- Node1&#45;&gt;Node4 -->
<g id="edge3_Node000001_Node000004" class="edge">
<title>Node1&#45;&gt;Node4</title>
<g id="a_edge3_Node000001_Node000004"><a xlink:title=" ">
<path fill="none" stroke="#63b8ff" d="M152.2,-83.5C172.59,-83.5 194.34,-83.5 213.61,-83.5"/>
<polygon fill="#63b8ff" stroke="#63b8ff" points="213.74,-87 223.74,-83.5 213.74,-80 213.74,-87"/>
</a>
</g>
</g>
<!-- Node5 -->
<g id="Node000005" class="node">
<title>Node5</title>
<g id="a_Node000005"><a xlink:href="classLogger.html#a3d3f0801eeaf39b33a906ea8569c19b2" target="_top" xlink:title="Writes a log entry with timestamp, level, and message.">
<polygon fill="white" stroke="#666666" points="308,-56 237,-56 237,-37 308,-37 308,-56"/>
<text text-anchor="middle" x="272.5" y="-44" font-family="Helvetica,sans-Serif" font-size="10.00">Logger::log</text>
</a>
</g>
</g>
<!-- Node1&#45;&gt;Node5 -->
<g id="edge4_Node000001_Node000005" class="edge">
<title>Node1&#45;&gt;Node5</title>
<g id="a_edge4_Node000001_Node000005"><a xlink:title=" ">
<path fill="none" stroke="#63b8ff" d="M127.09,-73.97C157.9,-68.11 197.04,-60.66 226.8,-55"/>
<polygon fill="#63b8ff" stroke="#63b8ff" points="227.74,-58.39 236.91,-53.08 226.43,-51.51 227.74,-58.39"/>
</a>
</g>
</g>
<!-- Node7 -->
<g id="Node000007" class="node">
<title>Node7</title>
<g id="a_Node000007"><a xlink:href="string__utils_8hpp.html#ad735976365693b45c427000fe042e173" target="_top" xlink:title="Converts any printable type to a string representation.">
<polygon fill="white" stroke="#666666" points="300,-19 245,-19 245,0 300,0 300,-19"/>
<text text-anchor="middle" x="272.5" y="-7" font-family="Helvetica,sans-Serif" font-size="10.00">toString</text>
</a>
</g>
</g>
<!-- Node1&#45;&gt;Node7 -->
<g id="edge6_Node000001_Node000007" class="edge">
<title>Node1&#45;&gt;Node7</title>
<g id="a_edge6_Node000001_Node000007"><a xlink:title=" ">
<path fill="none" stroke="#63b8ff" d="M93.38,-73.84C114.58,-61.71 152.95,-40.97 188,-28.5 203.02,-23.15 220.11,-18.95 234.9,-15.88"/>
<polygon fill="#63b8ff" stroke="#63b8ff" points="235.59,-19.31 244.72,-13.92 234.23,-12.44 235.59,-19.31"/>
</a>
</g>
</g>
<!-- Node6 -->
<g id="Node000006" class="node">
<title>Node6</title>
<g id="a_Node000006"><a xlink:href="classLogger.html#a19f9ef22095a67c9fe420c9d6e761fc2" target="_top" xlink:title="Converts a LogLevel enum value to its string label.">
<polygon fill="white" stroke="#666666" points="512,-56 393,-56 393,-37 512,-37 512,-56"/>
<text text-anchor="middle" x="452.5" y="-44" font-family="Helvetica,sans-Serif" font-size="10.00">Logger::levelToString</text>
</a>
</g>
</g>
<!-- Node5&#45;&gt;Node6 -->
<g id="edge5_Node000005_Node000006" class="edge">
<title>Node5&#45;&gt;Node6</title>
<g id="a_edge5_Node000005_Node000006"><a xlink:title=" ">
<path fill="none" stroke="#63b8ff" d="M308.24,-46.5C329.32,-46.5 356.96,-46.5 382.33,-46.5"/>
<polygon fill="#63b8ff" stroke="#63b8ff" points="382.66,-50 392.66,-46.5 382.66,-43 382.66,-50"/>
</a>
</g>
</g>
</g>
</svg>
