<?xml version="1.0" encoding="UTF-8" standalone="no"?>
<!DOCTYPE svg PUBLIC "-//W3C//DTD SVG 1.1//EN"
 "http://www.w3.org/Graphics/SVG/1.1/DTD/svg11.dtd">
<!-- Generated by graphviz version 2.43.0 (0)
 -->
<!-- Title: HttpRequest::getParseError Pages: 1 -->
<svg width="991pt" height="113pt"
 viewBox="0.00 0.00 991.00 112.50" xmlns="http://www.w3.org/2000/svg" xmlns:xlink="http://www.w3.org/1999/xlink">
<g id="graph0" class="graph" transform="scale(1 1) rotate(0) translate(4 108.5)">
<title>HttpRequest::getParseError</title>
<!-- Node1 -->
<g id="Node000001" class="node">
<title>Node1</title>
<g id="a_Node000001"><a xlink:title="Returns the HTTP parse error code (if any).">
<polygon fill="#999999" stroke="#666666" points="983,-56 834,-56 834,-37 983,-37 983,-56"/>
<text text-anchor="middle" x="908.5" y="-44" font-family="Helvetica,sans-Serif" font-size="10.00">HttpRequest::getParseError</text>
</a>
</g>
</g>
<!-- Node2 -->
<g id="Node000002" class="node">
<title>Node2</title>
<g id="a_Node000002"><a xlink:href="classClientConnection.html#a56844935562acf3f66a523a857cb9fd0" target="_top" xlink:title="Checks if the current HTTP request has been fully received and parsed.">
<polygon fill="white" stroke="#666666" points="580,-104.5 422,-104.5 422,-74.5 580,-74.5 580,-104.5"/>
<text text-anchor="start" x="430" y="-92.5" font-family="Helvetica,sans-Serif" font-size="10.00">ClientConnection::completed</text>
<text text-anchor="middle" x="501" y="-81.5" font-family="Helvetica,sans-Serif" font-size="10.00">Request</text>
</a>
</g>
</g>
<!-- Node1&#45;&gt;Node2 -->
<g id="edge1_Node000001_Node000002" class="edge">
<title>Node1&#45;&gt;Node2</title>
<g id="a_edge1_Node000001_Node000002"><a xlink:title=" ">
<path fill="none" stroke="#63b8ff" d="M848.38,-57.77C832.1,-60.6 814.41,-63.42 798,-65.5 724.35,-74.86 639.9,-81.28 580.1,-85.11"/>
<polygon fill="#63b8ff" stroke="#63b8ff" points="849.07,-61.2 858.31,-56.02 847.86,-54.31 849.07,-61.2"/>
</a>
</g>
</g>
<!-- Node6 -->
<g id="Node000006" class="node">
<title>Node6</title>
<g id="a_Node000006"><a xlink:href="classRequestParse.html#a5f2f35f5815fbb977cde05b19af41687" target="_top" xlink:title="Parses and processes raw HTTP request data incrementally.">
<polygon fill="white" stroke="#666666" points="798,-56 616,-56 616,-37 798,-37 798,-56"/>
<text text-anchor="middle" x="707" y="-44" font-family="Helvetica,sans-Serif" font-size="10.00">RequestParse::handleRawRequest</text>
</a>
</g>
</g>
<!-- Node1&#45;&gt;Node6 -->
<g id="edge5_Node000001_Node000006" class="edge">
<title>Node1&#45;&gt;Node6</title>
<g id="a_edge5_Node000001_Node000006"><a xlink:title=" ">
<path fill="none" stroke="#63b8ff" d="M823.66,-46.5C815.29,-46.5 806.76,-46.5 798.33,-46.5"/>
<polygon fill="#63b8ff" stroke="#63b8ff" points="823.78,-50 833.78,-46.5 823.78,-43 823.78,-50"/>
</a>
</g>
</g>
<!-- Node8 -->
<g id="Node000008" class="node">
<title>Node8</title>
<g id="a_Node000008"><a xlink:href="classRouter.html#aa58c0c6f2a1fc66a6e2a78adfae162e6" target="_top" xlink:title="Main entry point for determining how an HTTP request should be handled.">
<polygon fill="white" stroke="#666666" points="752.5,-19 661.5,-19 661.5,0 752.5,0 752.5,-19"/>
<text text-anchor="middle" x="707" y="-7" font-family="Helvetica,sans-Serif" font-size="10.00">Router::resolve</text>
</a>
</g>
</g>
<!-- Node1&#45;&gt;Node8 -->
<g id="edge8_Node000001_Node000008" class="edge">
<title>Node1&#45;&gt;Node8</title>
<g id="a_edge8_Node000001_Node000008"><a xlink:title=" ">
<path fill="none" stroke="#63b8ff" d="M846.13,-35.12C815.97,-29.53 780.3,-22.91 752.76,-17.8"/>
<polygon fill="#63b8ff" stroke="#63b8ff" points="845.65,-38.59 856.12,-36.97 846.93,-31.71 845.65,-38.59"/>
</a>
</g>
</g>
<!-- Node3 -->
<g id="Node000003" class="node">
<title>Node3</title>
<g id="a_Node000003"><a xlink:href="classWebServer.html#a8cbf37c0a840305ce15e8648566c9ce4" target="_top" xlink:title="Handles incoming data from a connected client.">
<polygon fill="white" stroke="#666666" points="386,-56 235,-56 235,-37 386,-37 386,-56"/>
<text text-anchor="middle" x="310.5" y="-44" font-family="Helvetica,sans-Serif" font-size="10.00">WebServer::receiveRequest</text>
</a>
</g>
</g>
<!-- Node2&#45;&gt;Node3 -->
<g id="edge2_Node000002_Node000003" class="edge">
<title>Node2&#45;&gt;Node3</title>
<g id="a_edge2_Node000002_Node000003"><a xlink:title=" ">
<path fill="none" stroke="#63b8ff" d="M424.18,-72.2C399.98,-66.68 374.09,-60.78 353.24,-56.02"/>
<polygon fill="#63b8ff" stroke="#63b8ff" points="423.54,-75.65 434.07,-74.46 425.1,-68.82 423.54,-75.65"/>
</a>
</g>
</g>
<!-- Node4 -->
<g id="Node000004" class="node">
<title>Node4</title>
<g id="a_Node000004"><a xlink:href="classWebServer.html#af39709e3744077e019aa76555f03a42e" target="_top" xlink:title="Main event loop — monitors sockets, dispatches requests, and handles responses.">
<polygon fill="white" stroke="#666666" points="199,-56 77,-56 77,-37 199,-37 199,-56"/>
<text text-anchor="middle" x="138" y="-44" font-family="Helvetica,sans-Serif" font-size="10.00">WebServer::runServer</text>
</a>
</g>
</g>
<!-- Node3&#45;&gt;Node4 -->
<g id="edge3_Node000003_Node000004" class="edge">
<title>Node3&#45;&gt;Node4</title>
<g id="a_edge3_Node000003_Node000004"><a xlink:title=" ">
<path fill="none" stroke="#63b8ff" d="M224.63,-46.5C216.02,-46.5 207.4,-46.5 199.13,-46.5"/>
<polygon fill="#63b8ff" stroke="#63b8ff" points="224.72,-50 234.72,-46.5 224.72,-43 224.72,-50"/>
</a>
</g>
</g>
<!-- Node5 -->
<g id="Node000005" class="node">
<title>Node5</title>
<g id="a_Node000005"><a xlink:href="main_8cpp.html#a3c04138a5bfe5d72780bb7e82a18e627" target="_top" xlink:title="Entry point of the Webservinho web server.">
<polygon fill="white" stroke="#666666" points="41,-56 0,-56 0,-37 41,-37 41,-56"/>
<text text-anchor="middle" x="20.5" y="-44" font-family="Helvetica,sans-Serif" font-size="10.00">main</text>
</a>
</g>
</g>
<!-- Node4&#45;&gt;Node5 -->
<g id="edge4_Node000004_Node000005" class="edge">
<title>Node4&#45;&gt;Node5</title>
<g id="a_edge4_Node000004_Node000005"><a xlink:title=" ">
<path fill="none" stroke="#63b8ff" d="M66.66,-46.5C57.35,-46.5 48.51,-46.5 41.15,-46.5"/>
<polygon fill="#63b8ff" stroke="#63b8ff" points="66.88,-50 76.88,-46.5 66.88,-43 66.88,-50"/>
</a>
</g>
</g>
<!-- Node7 -->
<g id="Node000007" class="node">
<title>Node7</title>
<g id="a_Node000007"><a xlink:href="classClientConnection.html#a835586ce27b3c3598394bde3fff14211" target="_top" xlink:title="Receives incoming data from the client socket.">
<polygon fill="white" stroke="#666666" points="576,-56 426,-56 426,-37 576,-37 576,-56"/>
<text text-anchor="middle" x="501" y="-44" font-family="Helvetica,sans-Serif" font-size="10.00">ClientConnection::recvData</text>
</a>
</g>
</g>
<!-- Node6&#45;&gt;Node7 -->
<g id="edge6_Node000006_Node000007" class="edge">
<title>Node6&#45;&gt;Node7</title>
<g id="a_edge6_Node000006_Node000007"><a xlink:title=" ">
<path fill="none" stroke="#63b8ff" d="M605.89,-46.5C595.82,-46.5 585.73,-46.5 576,-46.5"/>
<polygon fill="#63b8ff" stroke="#63b8ff" points="605.93,-50 615.93,-46.5 605.93,-43 605.93,-50"/>
</a>
</g>
</g>
<!-- Node7&#45;&gt;Node3 -->
<g id="edge7_Node000007_Node000003" class="edge">
<title>Node7&#45;&gt;Node3</title>
<g id="a_edge7_Node000007_Node000003"><a xlink:title=" ">
<path fill="none" stroke="#63b8ff" d="M415.64,-46.5C405.86,-46.5 395.93,-46.5 386.28,-46.5"/>
<polygon fill="#63b8ff" stroke="#63b8ff" points="415.77,-50 425.77,-46.5 415.77,-43 415.77,-50"/>
</a>
</g>
</g>
<!-- Node9 -->
<g id="Node000009" class="node">
<title>Node9</title>
<g id="a_Node000009"><a xlink:href="classDispatcher.html#a13c8a2fd90033adf9788c8774c3f0f47" target="_top" xlink:title="Central dispatch routine that delegates HTTP requests to the appropriate handler.">
<polygon fill="white" stroke="#666666" points="559,-19 443,-19 443,0 559,0 559,-19"/>
<text text-anchor="middle" x="501" y="-7" font-family="Helvetica,sans-Serif" font-size="10.00">Dispatcher::dispatch</text>
</a>
</g>
</g>
<!-- Node8&#45;&gt;Node9 -->
<g id="edge9_Node000008_Node000009" class="edge">
<title>Node8&#45;&gt;Node9</title>
<g id="a_edge9_Node000008_Node000009"><a xlink:title=" ">
<path fill="none" stroke="#63b8ff" d="M651.3,-9.5C622.84,-9.5 588.06,-9.5 559.23,-9.5"/>
<polygon fill="#63b8ff" stroke="#63b8ff" points="651.48,-13 661.48,-9.5 651.48,-6 651.48,-13"/>
</a>
</g>
</g>
<!-- Node9&#45;&gt;Node3 -->
<g id="edge10_Node000009_Node000003" class="edge">
<title>Node9&#45;&gt;Node3</title>
<g id="a_edge10_Node000009_Node000003"><a xlink:title=" ">
<path fill="none" stroke="#63b8ff" d="M441.33,-21.02C415.28,-26.13 384.98,-32.08 360.21,-36.94"/>
<polygon fill="#63b8ff" stroke="#63b8ff" points="442.32,-24.39 451.46,-19.03 440.97,-17.52 442.32,-24.39"/>
</a>
</g>
</g>
</g>
</svg>
