<?xml version="1.0" encoding="UTF-8" standalone="no"?>
<!DOCTYPE svg PUBLIC "-//W3C//DTD SVG 1.1//EN"
 "http://www.w3.org/Graphics/SVG/1.1/DTD/svg11.dtd">
<!-- Generated by graphviz version 2.43.0 (0)
 -->
<!-- Title: HttpRequest::setParseError Pages: 1 -->
<svg width="1543pt" height="311pt"
 viewBox="0.00 0.00 1543.00 310.77" xmlns="http://www.w3.org/2000/svg" xmlns:xlink="http://www.w3.org/1999/xlink">
<g id="graph0" class="graph" transform="scale(1 1) rotate(0) translate(4 306.77)">
<title>HttpRequest::setParseError</title>
<!-- Node1 -->
<g id="Node000001" class="node">
<title>Node1</title>
<g id="a_Node000001"><a xlink:title=" ">
<polygon fill="#999999" stroke="#666666" points="1535,-169.77 1387,-169.77 1387,-150.77 1535,-150.77 1535,-169.77"/>
<text text-anchor="middle" x="1461" y="-157.77" font-family="Helvetica,sans-Serif" font-size="10.00">HttpRequest::setParseError</text>
</a>
</g>
</g>
<!-- Node2 -->
<g id="Node000002" class="node">
<title>Node2</title>
<g id="a_Node000002"><a xlink:href="classRequestParse.html#aaacc39eadbaa26e80ed2b6bfc495fbb4" target="_top" xlink:title="Handles Transfer&#45;Encoding: chunked body parsing.">
<polygon fill="white" stroke="#666666" points="1351,-302.77 1196,-302.77 1196,-283.77 1351,-283.77 1351,-302.77"/>
<text text-anchor="middle" x="1273.5" y="-290.77" font-family="Helvetica,sans-Serif" font-size="10.00">RequestParse::bodyChunked</text>
</a>
</g>
</g>
<!-- Node1&#45;&gt;Node2 -->
<g id="edge1_Node000001_Node000002" class="edge">
<title>Node1&#45;&gt;Node2</title>
<g id="a_edge1_Node000001_Node000002"><a xlink:title=" ">
<path fill="none" stroke="#63b8ff" d="M1446.67,-178.21C1427.89,-202.28 1391.39,-244.8 1351,-269.27 1340.88,-275.4 1329.05,-280.11 1317.75,-283.66"/>
<polygon fill="#63b8ff" stroke="#63b8ff" points="1449.68,-180.04 1452.97,-169.97 1444.12,-175.79 1449.68,-180.04"/>
</a>
</g>
</g>
<!-- Node4 -->
<g id="Node000004" class="node">
<title>Node4</title>
<g id="a_Node000004"><a xlink:href="classRequestParse.html#a5f2f35f5815fbb977cde05b19af41687" target="_top" xlink:title="Parses and processes raw HTTP request data incrementally.">
<polygon fill="white" stroke="#666666" points="790,-226.77 608,-226.77 608,-207.77 790,-207.77 790,-226.77"/>
<text text-anchor="middle" x="699" y="-214.77" font-family="Helvetica,sans-Serif" font-size="10.00">RequestParse::handleRawRequest</text>
</a>
</g>
</g>
<!-- Node1&#45;&gt;Node4 -->
<g id="edge13_Node000001_Node000004" class="edge">
<title>Node1&#45;&gt;Node4</title>
<g id="a_edge13_Node000001_Node000004"><a xlink:title=" ">
<path fill="none" stroke="#63b8ff" d="M1443.28,-176.96C1423.31,-195.6 1387.95,-224.66 1351,-236.27 1127.71,-306.43 839.88,-250.7 737.88,-226.8"/>
<polygon fill="#63b8ff" stroke="#63b8ff" points="1445.82,-179.37 1450.62,-169.93 1440.98,-174.32 1445.82,-179.37"/>
</a>
</g>
</g>
<!-- Node9 -->
<g id="Node000009" class="node">
<title>Node9</title>
<g id="a_Node000009"><a xlink:href="classRequestParse.html#a3a3d2f425b7652c12b681fed8a66b8d9" target="_top" xlink:title="Validates if the HTTP method is allowed in the matched location block.">
<polygon fill="white" stroke="#666666" points="1350.5,-226.77 1196.5,-226.77 1196.5,-207.77 1350.5,-207.77 1350.5,-226.77"/>
<text text-anchor="middle" x="1273.5" y="-214.77" font-family="Helvetica,sans-Serif" font-size="10.00">RequestParse::checkMethod</text>
</a>
</g>
</g>
<!-- Node1&#45;&gt;Node9 -->
<g id="edge8_Node000001_Node000009" class="edge">
<title>Node1&#45;&gt;Node9</title>
<g id="a_edge8_Node000001_Node000009"><a xlink:title=" ">
<path fill="none" stroke="#63b8ff" d="M1419.25,-172.79C1385.03,-183.31 1336.85,-198.11 1305.65,-207.7"/>
<polygon fill="#63b8ff" stroke="#63b8ff" points="1420.42,-176.09 1428.95,-169.81 1418.36,-169.4 1420.42,-176.09"/>
</a>
</g>
</g>
<!-- Node10 -->
<g id="Node000010" class="node">
<title>Node10</title>
<g id="a_Node000010"><a xlink:href="classRequestParse.html#aba25f85cb2196680c3f6efb539ddb81b" target="_top" xlink:title="Determines the HTTP method and validates it against configuration.">
<polygon fill="white" stroke="#666666" points="1147,-188.77 1021,-188.77 1021,-169.77 1147,-169.77 1147,-188.77"/>
<text text-anchor="middle" x="1084" y="-176.77" font-family="Helvetica,sans-Serif" font-size="10.00">RequestParse::method</text>
</a>
</g>
</g>
<!-- Node1&#45;&gt;Node10 -->
<g id="edge17_Node000001_Node000010" class="edge">
<title>Node1&#45;&gt;Node10</title>
<g id="a_edge17_Node000001_Node000010"><a xlink:title=" ">
<path fill="none" stroke="#63b8ff" d="M1376.77,-164.49C1307.33,-168 1209.92,-172.94 1147.13,-176.12"/>
<polygon fill="#63b8ff" stroke="#63b8ff" points="1377,-167.98 1386.81,-163.98 1376.64,-160.99 1377,-167.98"/>
</a>
</g>
</g>
<!-- Node11 -->
<g id="Node000011" class="node">
<title>Node11</title>
<g id="a_Node000011"><a xlink:href="classRequestParse.html#abba0923a3ae7422916f11a81b7c4d552" target="_top" xlink:title="Parses the HTTP request line (method, URI, version).">
<polygon fill="white" stroke="#666666" points="972,-169.77 826,-169.77 826,-150.77 972,-150.77 972,-169.77"/>
<text text-anchor="middle" x="899" y="-157.77" font-family="Helvetica,sans-Serif" font-size="10.00">RequestParse::requestLine</text>
</a>
</g>
</g>
<!-- Node1&#45;&gt;Node11 -->
<g id="edge18_Node000001_Node000011" class="edge">
<title>Node1&#45;&gt;Node11</title>
<g id="a_edge18_Node000001_Node000011"><a xlink:title=" ">
<path fill="none" stroke="#63b8ff" d="M1376.77,-160.27C1267.16,-160.27 1076.22,-160.27 972.34,-160.27"/>
<polygon fill="#63b8ff" stroke="#63b8ff" points="1376.79,-163.77 1386.79,-160.27 1376.79,-156.77 1376.79,-163.77"/>
</a>
</g>
</g>
<!-- Node12 -->
<g id="Node000012" class="node">
<title>Node12</title>
<g id="a_Node000012"><a xlink:href="classRequestParse.html#ac3dc2d89d0e245ac752b5327f64bb70d" target="_top" xlink:title="Parses individual HTTP header lines and updates metadata.">
<polygon fill="white" stroke="#666666" points="963,-85.77 835,-85.77 835,-66.77 963,-66.77 963,-85.77"/>
<text text-anchor="middle" x="899" y="-73.77" font-family="Helvetica,sans-Serif" font-size="10.00">RequestParse::headers</text>
</a>
</g>
</g>
<!-- Node1&#45;&gt;Node12 -->
<g id="edge14_Node000001_Node000012" class="edge">
<title>Node1&#45;&gt;Node12</title>
<g id="a_edge14_Node000001_Node000012"><a xlink:title=" ">
<path fill="none" stroke="#63b8ff" d="M1451.18,-141.47C1435.78,-111.18 1400.82,-52.63 1351,-29.27 1199.18,41.91 987.78,-37.89 921.05,-66.71"/>
<polygon fill="#63b8ff" stroke="#63b8ff" points="1448.09,-143.13 1455.64,-150.57 1454.38,-140.05 1448.09,-143.13"/>
</a>
</g>
</g>
<!-- Node13 -->
<g id="Node000013" class="node">
<title>Node13</title>
<g id="a_Node000013"><a xlink:href="classHttpRequest.html#a42b01e8d23e15e65ad9c712922a6a812" target="_top" xlink:title="Constructs a new HttpRequest with default initialized state.">
<polygon fill="white" stroke="#666666" points="1345.5,-57.77 1201.5,-57.77 1201.5,-38.77 1345.5,-38.77 1345.5,-57.77"/>
<text text-anchor="middle" x="1273.5" y="-45.77" font-family="Helvetica,sans-Serif" font-size="10.00">HttpRequest::HttpRequest</text>
</a>
</g>
</g>
<!-- Node1&#45;&gt;Node13 -->
<g id="edge16_Node000001_Node000013" class="edge">
<title>Node1&#45;&gt;Node13</title>
<g id="a_edge16_Node000001_Node000013"><a xlink:title=" ">
<path fill="none" stroke="#63b8ff" d="M1444.84,-143.18C1425.24,-122.15 1389.08,-86.85 1351,-67.27 1343.45,-63.39 1335.08,-60.28 1326.71,-57.78"/>
<polygon fill="#63b8ff" stroke="#63b8ff" points="1442.4,-145.7 1451.73,-150.72 1447.57,-140.98 1442.4,-145.7"/>
</a>
</g>
</g>
<!-- Node14 -->
<g id="Node000014" class="node">
<title>Node14</title>
<g id="a_Node000014"><a xlink:href="classRequestParse.html#af7f93170c8210ad122820dafaeee7f3a" target="_top" xlink:title="Extracts and validates the request URI and query string.">
<polygon fill="white" stroke="#666666" points="1324,-94.77 1223,-94.77 1223,-75.77 1324,-75.77 1324,-94.77"/>
<text text-anchor="middle" x="1273.5" y="-82.77" font-family="Helvetica,sans-Serif" font-size="10.00">RequestParse::uri</text>
</a>
</g>
</g>
<!-- Node1&#45;&gt;Node14 -->
<g id="edge19_Node000001_Node000014" class="edge">
<title>Node1&#45;&gt;Node14</title>
<g id="a_edge19_Node000001_Node000014"><a xlink:title=" ">
<path fill="none" stroke="#63b8ff" d="M1426.77,-146.83C1389.78,-131.88 1330.93,-108.08 1298.28,-94.88"/>
<polygon fill="#63b8ff" stroke="#63b8ff" points="1425.55,-150.11 1436.13,-150.62 1428.17,-143.62 1425.55,-150.11"/>
</a>
</g>
</g>
<!-- Node3 -->
<g id="Node000003" class="node">
<title>Node3</title>
<g id="a_Node000003"><a xlink:href="classRequestParse.html#ab81826a3c30d9a2a4f9d0f8ee6fa855c" target="_top" xlink:title="Processes the message body for both fixed&#45;length and chunked modes.">
<polygon fill="white" stroke="#666666" points="955.5,-302.77 842.5,-302.77 842.5,-283.77 955.5,-283.77 955.5,-302.77"/>
<text text-anchor="middle" x="899" y="-290.77" font-family="Helvetica,sans-Serif" font-size="10.00">RequestParse::body</text>
</a>
</g>
</g>
<!-- Node2&#45;&gt;Node3 -->
<g id="edge2_Node000002_Node000003" class="edge">
<title>Node2&#45;&gt;Node3</title>
<g id="a_edge2_Node000002_Node000003"><a xlink:title=" ">
<path fill="none" stroke="#63b8ff" d="M1185.51,-293.27C1114.58,-293.27 1016.52,-293.27 955.74,-293.27"/>
<polygon fill="#63b8ff" stroke="#63b8ff" points="1185.77,-296.77 1195.77,-293.27 1185.77,-289.77 1185.77,-296.77"/>
</a>
</g>
</g>
<!-- Node3&#45;&gt;Node4 -->
<g id="edge3_Node000003_Node000004" class="edge">
<title>Node3&#45;&gt;Node4</title>
<g id="a_edge3_Node000003_Node000004"><a xlink:title=" ">
<path fill="none" stroke="#63b8ff" d="M857.97,-280.48C847.52,-276.99 836.29,-273.1 826,-269.27 789.19,-255.56 747.14,-237.76 722.12,-226.95"/>
<polygon fill="#63b8ff" stroke="#63b8ff" points="857.12,-283.88 867.71,-283.69 859.31,-277.23 857.12,-283.88"/>
</a>
</g>
</g>
<!-- Node5 -->
<g id="Node000005" class="node">
<title>Node5</title>
<g id="a_Node000005"><a xlink:href="classClientConnection.html#a835586ce27b3c3598394bde3fff14211" target="_top" xlink:title="Receives incoming data from the client socket.">
<polygon fill="white" stroke="#666666" points="572,-226.77 422,-226.77 422,-207.77 572,-207.77 572,-226.77"/>
<text text-anchor="middle" x="497" y="-214.77" font-family="Helvetica,sans-Serif" font-size="10.00">ClientConnection::recvData</text>
</a>
</g>
</g>
<!-- Node4&#45;&gt;Node5 -->
<g id="edge4_Node000004_Node000005" class="edge">
<title>Node4&#45;&gt;Node5</title>
<g id="a_edge4_Node000004_Node000005"><a xlink:title=" ">
<path fill="none" stroke="#63b8ff" d="M597.86,-217.27C589.25,-217.27 580.64,-217.27 572.29,-217.27"/>
<polygon fill="#63b8ff" stroke="#63b8ff" points="597.95,-220.77 607.95,-217.27 597.95,-213.77 597.95,-220.77"/>
</a>
</g>
</g>
<!-- Node6 -->
<g id="Node000006" class="node">
<title>Node6</title>
<g id="a_Node000006"><a xlink:href="classWebServer.html#a8cbf37c0a840305ce15e8648566c9ce4" target="_top" xlink:title="Handles incoming data from a connected client.">
<polygon fill="white" stroke="#666666" points="386,-226.77 235,-226.77 235,-207.77 386,-207.77 386,-226.77"/>
<text text-anchor="middle" x="310.5" y="-214.77" font-family="Helvetica,sans-Serif" font-size="10.00">WebServer::receiveRequest</text>
</a>
</g>
</g>
<!-- Node5&#45;&gt;Node6 -->
<g id="edge5_Node000005_Node000006" class="edge">
<title>Node5&#45;&gt;Node6</title>
<g id="a_edge5_Node000005_Node000006"><a xlink:title=" ">
<path fill="none" stroke="#63b8ff" d="M411.51,-217.27C403.07,-217.27 394.53,-217.27 386.19,-217.27"/>
<polygon fill="#63b8ff" stroke="#63b8ff" points="411.75,-220.77 421.75,-217.27 411.75,-213.77 411.75,-220.77"/>
</a>
</g>
</g>
<!-- Node7 -->
<g id="Node000007" class="node">
<title>Node7</title>
<g id="a_Node000007"><a xlink:href="classWebServer.html#af39709e3744077e019aa76555f03a42e" target="_top" xlink:title="Main event loop — monitors sockets, dispatches requests, and handles responses.">
<polygon fill="white" stroke="#666666" points="199,-226.77 77,-226.77 77,-207.77 199,-207.77 199,-226.77"/>
<text text-anchor="middle" x="138" y="-214.77" font-family="Helvetica,sans-Serif" font-size="10.00">WebServer::runServer</text>
</a>
</g>
</g>
<!-- Node6&#45;&gt;Node7 -->
<g id="edge6_Node000006_Node000007" class="edge">
<title>Node6&#45;&gt;Node7</title>
<g id="a_edge6_Node000006_Node000007"><a xlink:title=" ">
<path fill="none" stroke="#63b8ff" d="M224.63,-217.27C216.02,-217.27 207.4,-217.27 199.13,-217.27"/>
<polygon fill="#63b8ff" stroke="#63b8ff" points="224.72,-220.77 234.72,-217.27 224.72,-213.77 224.72,-220.77"/>
</a>
</g>
</g>
<!-- Node8 -->
<g id="Node000008" class="node">
<title>Node8</title>
<g id="a_Node000008"><a xlink:href="main_8cpp.html#a3c04138a5bfe5d72780bb7e82a18e627" target="_top" xlink:title="Entry point of the Webservinho web server.">
<polygon fill="white" stroke="#666666" points="41,-226.77 0,-226.77 0,-207.77 41,-207.77 41,-226.77"/>
<text text-anchor="middle" x="20.5" y="-214.77" font-family="Helvetica,sans-Serif" font-size="10.00">main</text>
</a>
</g>
</g>
<!-- Node7&#45;&gt;Node8 -->
<g id="edge7_Node000007_Node000008" class="edge">
<title>Node7&#45;&gt;Node8</title>
<g id="a_edge7_Node000007_Node000008"><a xlink:title=" ">
<path fill="none" stroke="#63b8ff" d="M66.66,-217.27C57.35,-217.27 48.51,-217.27 41.15,-217.27"/>
<polygon fill="#63b8ff" stroke="#63b8ff" points="66.88,-220.77 76.88,-217.27 66.88,-213.77 66.88,-220.77"/>
</a>
</g>
</g>
<!-- Node9&#45;&gt;Node10 -->
<g id="edge9_Node000009_Node000010" class="edge">
<title>Node9&#45;&gt;Node10</title>
<g id="a_edge9_Node000009_Node000010"><a xlink:title=" ">
<path fill="none" stroke="#63b8ff" d="M1215.22,-205.66C1188.55,-200.26 1157.22,-193.91 1131.97,-188.79"/>
<polygon fill="#63b8ff" stroke="#63b8ff" points="1214.69,-209.12 1225.19,-207.68 1216.08,-202.26 1214.69,-209.12"/>
</a>
</g>
</g>
<!-- Node10&#45;&gt;Node10 -->
<g id="edge10_Node000010_Node000010" class="edge">
<title>Node10&#45;&gt;Node10</title>
<g id="a_edge10_Node000010_Node000010"><a xlink:title=" ">
<path fill="none" stroke="#63b8ff" d="M1118.48,-196.84C1117.98,-202.39 1106.48,-206.77 1084,-206.77 1051.3,-206.77 1041.84,-197.5 1055.64,-188.85"/>
<polygon fill="#63b8ff" stroke="#63b8ff" points="1121.22,-194.66 1112.36,-188.85 1115.66,-198.92 1121.22,-194.66"/>
</a>
</g>
</g>
<!-- Node10&#45;&gt;Node11 -->
<g id="edge11_Node000010_Node000011" class="edge">
<title>Node10&#45;&gt;Node11</title>
<g id="a_edge11_Node000010_Node000011"><a xlink:title=" ">
<path fill="none" stroke="#63b8ff" d="M1010.74,-171.77C998.04,-170.45 984.83,-169.08 972.13,-167.76"/>
<polygon fill="#63b8ff" stroke="#63b8ff" points="1010.48,-175.26 1020.79,-172.81 1011.2,-168.3 1010.48,-175.26"/>
</a>
</g>
</g>
<!-- Node11&#45;&gt;Node4 -->
<g id="edge12_Node000011_Node000004" class="edge">
<title>Node11&#45;&gt;Node4</title>
<g id="a_edge12_Node000011_Node000004"><a xlink:title=" ">
<path fill="none" stroke="#63b8ff" d="M854.98,-172.65C818.42,-183.18 766.7,-198.07 733.25,-207.7"/>
<polygon fill="#63b8ff" stroke="#63b8ff" points="856.22,-175.94 864.86,-169.81 854.28,-169.21 856.22,-175.94"/>
</a>
</g>
</g>
<!-- Node12&#45;&gt;Node4 -->
<g id="edge15_Node000012_Node000004" class="edge">
<title>Node12&#45;&gt;Node4</title>
<g id="a_edge15_Node000012_Node000004"><a xlink:title=" ">
<path fill="none" stroke="#63b8ff" d="M876.12,-91.85C834.94,-121.18 747.04,-183.77 713.44,-207.7"/>
<polygon fill="#63b8ff" stroke="#63b8ff" points="878.28,-94.61 884.39,-85.96 874.21,-88.91 878.28,-94.61"/>
</a>
</g>
</g>
<!-- Node14&#45;&gt;Node11 -->
<g id="edge22_Node000014_Node000011" class="edge">
<title>Node14&#45;&gt;Node11</title>
<g id="a_edge22_Node000014_Node000011"><a xlink:title=" ">
<path fill="none" stroke="#63b8ff" d="M1212.8,-92.34C1158.89,-99.29 1077.58,-111.2 1008,-127.27 980.3,-133.67 949.33,-143.4 927.68,-150.65"/>
<polygon fill="#63b8ff" stroke="#63b8ff" points="1213.39,-95.79 1222.87,-91.06 1212.51,-88.85 1213.39,-95.79"/>
</a>
</g>
</g>
<!-- Node14&#45;&gt;Node14 -->
<g id="edge23_Node000014_Node000014" class="edge">
<title>Node14&#45;&gt;Node14</title>
<g id="a_edge23_Node000014_Node000014"><a xlink:title=" ">
<path fill="none" stroke="#63b8ff" d="M1308.36,-102.84C1307.85,-108.39 1296.23,-112.77 1273.5,-112.77 1240.44,-112.77 1230.89,-103.5 1244.83,-94.85"/>
<polygon fill="#63b8ff" stroke="#63b8ff" points="1311.06,-100.61 1302.17,-94.85 1305.53,-104.9 1311.06,-100.61"/>
</a>
</g>
</g>
<!-- Node15 -->
<g id="Node000015" class="node">
<title>Node15</title>
<g id="a_Node000015"><a xlink:href="classRequestParse.html#af2da061f29a38d73ea2d3fabdf80e0ec" target="_top" xlink:title="Extracts the query string portion from a URI.">
<polygon fill="white" stroke="#666666" points="1160,-75.27 1008,-75.27 1008,-45.27 1160,-45.27 1160,-75.27"/>
<text text-anchor="start" x="1016" y="-63.27" font-family="Helvetica,sans-Serif" font-size="10.00">RequestParse::extractQuery</text>
<text text-anchor="middle" x="1084" y="-52.27" font-family="Helvetica,sans-Serif" font-size="10.00">String</text>
</a>
</g>
</g>
<!-- Node14&#45;&gt;Node15 -->
<g id="edge20_Node000014_Node000015" class="edge">
<title>Node14&#45;&gt;Node15</title>
<g id="a_edge20_Node000014_Node000015"><a xlink:title=" ">
<path fill="none" stroke="#63b8ff" d="M1230.26,-73.89C1209.63,-70.24 1184.19,-66.56 1160.38,-63.69"/>
<polygon fill="#63b8ff" stroke="#63b8ff" points="1229.8,-77.36 1240.27,-75.73 1231.07,-70.48 1229.8,-77.36"/>
</a>
</g>
</g>
<!-- Node15&#45;&gt;Node14 -->
<g id="edge21_Node000015_Node000014" class="edge">
<title>Node15&#45;&gt;Node14</title>
<g id="a_edge21_Node000015_Node000014"><a xlink:title=" ">
<path fill="none" stroke="#63b8ff" d="M1159.47,-76.82C1180.72,-79.94 1203.36,-82.77 1222.75,-84.68"/>
<polygon fill="#63b8ff" stroke="#63b8ff" points="1159.91,-73.35 1149.5,-75.32 1158.86,-80.27 1159.91,-73.35"/>
</a>
</g>
</g>
</g>
</svg>
