<?xml version="1.0" encoding="UTF-8" standalone="no"?>
<!DOCTYPE svg PUBLIC "-//W3C//DTD SVG 1.1//EN"
 "http://www.w3.org/Graphics/SVG/1.1/DTD/svg11.dtd">
<!-- Generated by graphviz version 2.43.0 (0)
 -->
<!-- Title: RequestMeta::shouldClose Pages: 1 -->
<svg width="963pt" height="141pt"
 viewBox="0.00 0.00 963.00 141.00" xmlns="http://www.w3.org/2000/svg" xmlns:xlink="http://www.w3.org/1999/xlink">
<g id="graph0" class="graph" transform="scale(1 1) rotate(0) translate(4 137)">
<title>RequestMeta::shouldClose</title>
<!-- Node1 -->
<g id="Node000001" class="node">
<title>Node1</title>
<g id="a_Node000001"><a xlink:title="Returns true if the connection should be closed.">
<polygon fill="#999999" stroke="#666666" points="955,-114 809,-114 809,-95 955,-95 955,-114"/>
<text text-anchor="middle" x="882" y="-102" font-family="Helvetica,sans-Serif" font-size="10.00">RequestMeta::shouldClose</text>
</a>
</g>
</g>
<!-- Node2 -->
<g id="Node000002" class="node">
<title>Node2</title>
<g id="a_Node000002"><a xlink:href="classResponseBuilder.html#afd79929bb501be85bdc85d86fdce93e9" target="_top" xlink:title="Assembles the complete HTTP response, including error handling.">
<polygon fill="white" stroke="#666666" points="773,-95 645,-95 645,-76 773,-76 773,-95"/>
<text text-anchor="middle" x="709" y="-83" font-family="Helvetica,sans-Serif" font-size="10.00">ResponseBuilder::build</text>
</a>
</g>
</g>
<!-- Node1&#45;&gt;Node2 -->
<g id="edge1_Node000001_Node000002" class="edge">
<title>Node1&#45;&gt;Node2</title>
<g id="a_edge1_Node000001_Node000002"><a xlink:title=" ">
<path fill="none" stroke="#63b8ff" d="M798.9,-95.38C790.28,-94.42 781.62,-93.46 773.26,-92.53"/>
<polygon fill="#63b8ff" stroke="#63b8ff" points="798.65,-98.87 808.98,-96.5 799.42,-91.91 798.65,-98.87"/>
</a>
</g>
</g>
<!-- Node3 -->
<g id="Node000003" class="node">
<title>Node3</title>
<g id="a_Node000003"><a xlink:href="classDispatcher.html#a13c8a2fd90033adf9788c8774c3f0f47" target="_top" xlink:title="Central dispatch routine that delegates HTTP requests to the appropriate handler.">
<polygon fill="white" stroke="#666666" points="583,-133 467,-133 467,-114 583,-114 583,-133"/>
<text text-anchor="middle" x="525" y="-121" font-family="Helvetica,sans-Serif" font-size="10.00">Dispatcher::dispatch</text>
</a>
</g>
</g>
<!-- Node1&#45;&gt;Node3 -->
<g id="edge11_Node000001_Node000003" class="edge">
<title>Node1&#45;&gt;Node3</title>
<g id="a_edge11_Node000001_Node000003"><a xlink:title=" ">
<path fill="none" stroke="#63b8ff" d="M798.36,-108.92C732.32,-112.46 641.49,-117.32 583.26,-120.44"/>
<polygon fill="#63b8ff" stroke="#63b8ff" points="798.93,-112.4 808.73,-108.37 798.56,-105.41 798.93,-112.4"/>
</a>
</g>
</g>
<!-- Node2&#45;&gt;Node3 -->
<g id="edge2_Node000002_Node000003" class="edge">
<title>Node2&#45;&gt;Node3</title>
<g id="a_edge2_Node000002_Node000003"><a xlink:title=" ">
<path fill="none" stroke="#63b8ff" d="M652.05,-97.18C626.24,-102.57 595.99,-108.89 571.6,-113.98"/>
<polygon fill="#63b8ff" stroke="#63b8ff" points="653,-100.56 662.07,-95.09 651.57,-93.71 653,-100.56"/>
</a>
</g>
</g>
<!-- Node5 -->
<g id="Node000005" class="node">
<title>Node5</title>
<g id="a_Node000005"><a xlink:href="classWebServer.html#af39709e3744077e019aa76555f03a42e" target="_top" xlink:title="Main event loop — monitors sockets, dispatches requests, and handles responses.">
<polygon fill="white" stroke="#666666" points="199,-76 77,-76 77,-57 199,-57 199,-76"/>
<text text-anchor="middle" x="138" y="-64" font-family="Helvetica,sans-Serif" font-size="10.00">WebServer::runServer</text>
</a>
</g>
</g>
<!-- Node2&#45;&gt;Node5 -->
<g id="edge8_Node000002_Node000005" class="edge">
<title>Node2&#45;&gt;Node5</title>
<g id="a_edge8_Node000002_Node000005"><a xlink:title=" ">
<path fill="none" stroke="#63b8ff" d="M634.94,-83.06C521.36,-79.27 304.59,-72.03 199.34,-68.51"/>
<polygon fill="#63b8ff" stroke="#63b8ff" points="634.82,-86.56 644.93,-83.39 635.06,-79.56 634.82,-86.56"/>
</a>
</g>
</g>
<!-- Node7 -->
<g id="Node000007" class="node">
<title>Node7</title>
<g id="a_Node000007"><a xlink:href="classWebServer.html#a7667bc8a87db8f9987a5e80da9c4cd37" target="_top" xlink:title="Reads CGI process output and assembles it into the client buffer.">
<polygon fill="white" stroke="#666666" points="405,-57 235,-57 235,-38 405,-38 405,-57"/>
<text text-anchor="middle" x="320" y="-45" font-family="Helvetica,sans-Serif" font-size="10.00">WebServer::handleCgiReadable</text>
</a>
</g>
</g>
<!-- Node2&#45;&gt;Node7 -->
<g id="edge6_Node000002_Node000007" class="edge">
<title>Node2&#45;&gt;Node7</title>
<g id="a_edge6_Node000002_Node000007"><a xlink:title=" ">
<path fill="none" stroke="#63b8ff" d="M634.81,-74.67C626.12,-73.53 617.37,-72.44 609,-71.5 540.57,-63.82 462.73,-57.47 405.24,-53.24"/>
<polygon fill="#63b8ff" stroke="#63b8ff" points="634.58,-78.17 644.96,-76.03 635.51,-71.23 634.58,-78.17"/>
</a>
</g>
</g>
<!-- Node8 -->
<g id="Node000008" class="node">
<title>Node8</title>
<g id="a_Node000008"><a xlink:href="classWebServer.html#a32042bb7e426cf5c53c2c2860d622342" target="_top" xlink:title="Scans active CGI processes and terminates those exceeding timeout.">
<polygon fill="white" stroke="#666666" points="609,-19 441,-19 441,0 609,0 609,-19"/>
<text text-anchor="middle" x="525" y="-7" font-family="Helvetica,sans-Serif" font-size="10.00">WebServer::sweepCgiTimeouts</text>
</a>
</g>
</g>
<!-- Node2&#45;&gt;Node8 -->
<g id="edge9_Node000002_Node000008" class="edge">
<title>Node2&#45;&gt;Node8</title>
<g id="a_edge9_Node000002_Node000008"><a xlink:title=" ">
<path fill="none" stroke="#63b8ff" d="M683.13,-70.63C663.5,-59.34 635.16,-44.03 609,-33.5 594.95,-27.84 579.06,-22.92 564.98,-19.02"/>
<polygon fill="#63b8ff" stroke="#63b8ff" points="681.61,-73.8 692.02,-75.81 685.14,-67.75 681.61,-73.8"/>
</a>
</g>
</g>
<!-- Node4 -->
<g id="Node000004" class="node">
<title>Node4</title>
<g id="a_Node000004"><a xlink:href="classWebServer.html#a8cbf37c0a840305ce15e8648566c9ce4" target="_top" xlink:title="Handles incoming data from a connected client.">
<polygon fill="white" stroke="#666666" points="395.5,-133 244.5,-133 244.5,-114 395.5,-114 395.5,-133"/>
<text text-anchor="middle" x="320" y="-121" font-family="Helvetica,sans-Serif" font-size="10.00">WebServer::receiveRequest</text>
</a>
</g>
</g>
<!-- Node3&#45;&gt;Node4 -->
<g id="edge3_Node000003_Node000004" class="edge">
<title>Node3&#45;&gt;Node4</title>
<g id="a_edge3_Node000003_Node000004"><a xlink:title=" ">
<path fill="none" stroke="#63b8ff" d="M456.88,-123.5C437.33,-123.5 415.85,-123.5 395.86,-123.5"/>
<polygon fill="#63b8ff" stroke="#63b8ff" points="456.91,-127 466.91,-123.5 456.91,-120 456.91,-127"/>
</a>
</g>
</g>
<!-- Node4&#45;&gt;Node5 -->
<g id="edge4_Node000004_Node000005" class="edge">
<title>Node4&#45;&gt;Node5</title>
<g id="a_edge4_Node000004_Node000005"><a xlink:title=" ">
<path fill="none" stroke="#63b8ff" d="M274.22,-111.18C261.51,-107.55 247.67,-103.49 235,-99.5 211.46,-92.1 184.96,-82.92 165.77,-76.13"/>
<polygon fill="#63b8ff" stroke="#63b8ff" points="273.56,-114.63 284.14,-113.98 275.47,-107.89 273.56,-114.63"/>
</a>
</g>
</g>
<!-- Node6 -->
<g id="Node000006" class="node">
<title>Node6</title>
<g id="a_Node000006"><a xlink:href="main_8cpp.html#a3c04138a5bfe5d72780bb7e82a18e627" target="_top" xlink:title="Entry point of the Webservinho web server.">
<polygon fill="white" stroke="#666666" points="41,-76 0,-76 0,-57 41,-57 41,-76"/>
<text text-anchor="middle" x="20.5" y="-64" font-family="Helvetica,sans-Serif" font-size="10.00">main</text>
</a>
</g>
</g>
<!-- Node5&#45;&gt;Node6 -->
<g id="edge5_Node000005_Node000006" class="edge">
<title>Node5&#45;&gt;Node6</title>
<g id="a_edge5_Node000005_Node000006"><a xlink:title=" ">
<path fill="none" stroke="#63b8ff" d="M66.66,-66.5C57.35,-66.5 48.51,-66.5 41.15,-66.5"/>
<polygon fill="#63b8ff" stroke="#63b8ff" points="66.88,-70 76.88,-66.5 66.88,-63 66.88,-70"/>
</a>
</g>
</g>
<!-- Node7&#45;&gt;Node5 -->
<g id="edge7_Node000007_Node000005" class="edge">
<title>Node7&#45;&gt;Node5</title>
<g id="a_edge7_Node000007_Node000005"><a xlink:title=" ">
<path fill="none" stroke="#63b8ff" d="M224.59,-57.47C215.91,-58.38 207.27,-59.29 199.02,-60.16"/>
<polygon fill="#63b8ff" stroke="#63b8ff" points="225.22,-60.92 234.8,-56.39 224.49,-53.96 225.22,-60.92"/>
</a>
</g>
</g>
<!-- Node8&#45;&gt;Node5 -->
<g id="edge10_Node000008_Node000005" class="edge">
<title>Node8&#45;&gt;Node5</title>
<g id="a_edge10_Node000008_Node000005"><a xlink:title=" ">
<path fill="none" stroke="#63b8ff" d="M430.71,-8.32C373.58,-9.4 299.33,-14.03 235,-28.5 207.19,-34.76 176.9,-47.9 157.93,-56.96"/>
<polygon fill="#63b8ff" stroke="#63b8ff" points="430.87,-11.82 440.81,-8.17 430.76,-4.82 430.87,-11.82"/>
</a>
</g>
</g>
</g>
</svg>
