<?xml version="1.0" encoding="UTF-8" standalone="no"?>
<!DOCTYPE svg PUBLIC "-//W3C//DTD SVG 1.1//EN"
 "http://www.w3.org/Graphics/SVG/1.1/DTD/svg11.dtd">
<!-- Generated by graphviz version 2.43.0 (0)
 -->
<!-- Title: ResponseBuilder::handleStaticPageOutput Pages: 1 -->
<svg width="1169pt" height="147pt"
 viewBox="0.00 0.00 1169.00 146.50" xmlns="http://www.w3.org/2000/svg" xmlns:xlink="http://www.w3.org/1999/xlink">
<g id="graph0" class="graph" transform="scale(1 1) rotate(0) translate(4 142.5)">
<title>ResponseBuilder::handleStaticPageOutput</title>
<!-- Node1 -->
<g id="Node000001" class="node">
<title>Node1</title>
<g id="a_Node000001"><a xlink:title="Prepares an HTTP response for a static page.">
<polygon fill="#999999" stroke="#666666" points="1161,-100.5 996,-100.5 996,-70.5 1161,-70.5 1161,-100.5"/>
<text text-anchor="start" x="1004" y="-88.5" font-family="Helvetica,sans-Serif" font-size="10.00">ResponseBuilder::handleStatic</text>
<text text-anchor="middle" x="1078.5" y="-77.5" font-family="Helvetica,sans-Serif" font-size="10.00">PageOutput</text>
</a>
</g>
</g>
<!-- Node2 -->
<g id="Node000002" class="node">
<title>Node2</title>
<g id="a_Node000002"><a xlink:href="classResponseBuilder.html#afd79929bb501be85bdc85d86fdce93e9" target="_top" xlink:title="Assembles the complete HTTP response, including error handling.">
<polygon fill="white" stroke="#666666" points="773,-73 645,-73 645,-54 773,-54 773,-73"/>
<text text-anchor="middle" x="709" y="-61" font-family="Helvetica,sans-Serif" font-size="10.00">ResponseBuilder::build</text>
</a>
</g>
</g>
<!-- Node1&#45;&gt;Node2 -->
<g id="edge1_Node000001_Node000002" class="edge">
<title>Node1&#45;&gt;Node2</title>
<g id="a_edge1_Node000001_Node000002"><a xlink:title=" ">
<path fill="none" stroke="#63b8ff" d="M985.9,-80.02C919.59,-76.05 831.67,-70.78 773.08,-67.28"/>
<polygon fill="#63b8ff" stroke="#63b8ff" points="985.75,-83.51 995.94,-80.62 986.17,-76.53 985.75,-83.51"/>
</a>
</g>
</g>
<!-- Node9 -->
<g id="Node000009" class="node">
<title>Node9</title>
<g id="a_Node000009"><a xlink:href="classResponseBuilder.html#a998edbfd6f08dd34332ca92507db5d77" target="_top" xlink:title="Attempts to load and serve a custom error page from configuration.">
<polygon fill="white" stroke="#666666" points="960,-57.5 809,-57.5 809,-27.5 960,-27.5 960,-57.5"/>
<text text-anchor="start" x="817" y="-45.5" font-family="Helvetica,sans-Serif" font-size="10.00">ResponseBuilder::errorPage</text>
<text text-anchor="middle" x="884.5" y="-34.5" font-family="Helvetica,sans-Serif" font-size="10.00">Config</text>
</a>
</g>
</g>
<!-- Node1&#45;&gt;Node9 -->
<g id="edge11_Node000001_Node000009" class="edge">
<title>Node1&#45;&gt;Node9</title>
<g id="a_edge11_Node000001_Node000009"><a xlink:title=" ">
<path fill="none" stroke="#63b8ff" d="M1000.57,-68.27C984.7,-64.72 968.11,-61 952.61,-57.53"/>
<polygon fill="#63b8ff" stroke="#63b8ff" points="999.82,-71.69 1010.35,-70.46 1001.35,-64.86 999.82,-71.69"/>
</a>
</g>
</g>
<!-- Node10 -->
<g id="Node000010" class="node">
<title>Node10</title>
<g id="a_Node000010"><a xlink:href="classStaticPageHandler.html#a701db169c979ef5cfebc72f6c160fb32" target="_top" xlink:title="Handles serving static files from disk.">
<polygon fill="white" stroke="#666666" points="765,-138.5 653,-138.5 653,-108.5 765,-108.5 765,-138.5"/>
<text text-anchor="start" x="661" y="-126.5" font-family="Helvetica,sans-Serif" font-size="10.00">StaticPageHandler::</text>
<text text-anchor="middle" x="709" y="-115.5" font-family="Helvetica,sans-Serif" font-size="10.00">handle</text>
</a>
</g>
</g>
<!-- Node1&#45;&gt;Node10 -->
<g id="edge13_Node000001_Node000010" class="edge">
<title>Node1&#45;&gt;Node10</title>
<g id="a_edge13_Node000001_Node000010"><a xlink:title=" ">
<path fill="none" stroke="#63b8ff" d="M985.88,-94.97C916.5,-102.15 823.48,-111.77 765.14,-117.8"/>
<polygon fill="#63b8ff" stroke="#63b8ff" points="986.35,-98.44 995.94,-93.93 985.63,-91.48 986.35,-98.44"/>
</a>
</g>
</g>
<!-- Node3 -->
<g id="Node000003" class="node">
<title>Node3</title>
<g id="a_Node000003"><a xlink:href="classDispatcher.html#a13c8a2fd90033adf9788c8774c3f0f47" target="_top" xlink:title="Central dispatch routine that delegates HTTP requests to the appropriate handler.">
<polygon fill="white" stroke="#666666" points="583,-133 467,-133 467,-114 583,-114 583,-133"/>
<text text-anchor="middle" x="525" y="-121" font-family="Helvetica,sans-Serif" font-size="10.00">Dispatcher::dispatch</text>
</a>
</g>
</g>
<!-- Node2&#45;&gt;Node3 -->
<g id="edge2_Node000002_Node000003" class="edge">
<title>Node2&#45;&gt;Node3</title>
<g id="a_edge2_Node000002_Node000003"><a xlink:title=" ">
<path fill="none" stroke="#63b8ff" d="M673.53,-76.68C654.59,-83.76 630.62,-92.45 609,-99.5 593.31,-104.61 575.78,-109.76 560.89,-113.98"/>
<polygon fill="#63b8ff" stroke="#63b8ff" points="674.81,-79.94 682.93,-73.14 672.34,-73.39 674.81,-79.94"/>
</a>
</g>
</g>
<!-- Node5 -->
<g id="Node000005" class="node">
<title>Node5</title>
<g id="a_Node000005"><a xlink:href="classWebServer.html#af39709e3744077e019aa76555f03a42e" target="_top" xlink:title="Main event loop — monitors sockets, dispatches requests, and handles responses.">
<polygon fill="white" stroke="#666666" points="199,-76 77,-76 77,-57 199,-57 199,-76"/>
<text text-anchor="middle" x="138" y="-64" font-family="Helvetica,sans-Serif" font-size="10.00">WebServer::runServer</text>
</a>
</g>
</g>
<!-- Node2&#45;&gt;Node5 -->
<g id="edge8_Node000002_Node000005" class="edge">
<title>Node2&#45;&gt;Node5</title>
<g id="a_edge8_Node000002_Node000005"><a xlink:title=" ">
<path fill="none" stroke="#63b8ff" d="M634.78,-69.26C626.1,-69.77 617.35,-70.21 609,-70.5 461.8,-75.7 288.52,-71.58 199.12,-68.69"/>
<polygon fill="#63b8ff" stroke="#63b8ff" points="635.16,-72.74 644.92,-68.63 634.73,-65.76 635.16,-72.74"/>
</a>
</g>
</g>
<!-- Node7 -->
<g id="Node000007" class="node">
<title>Node7</title>
<g id="a_Node000007"><a xlink:href="classWebServer.html#a7667bc8a87db8f9987a5e80da9c4cd37" target="_top" xlink:title="Reads CGI process output and assembles it into the client buffer.">
<polygon fill="white" stroke="#666666" points="405,-57 235,-57 235,-38 405,-38 405,-57"/>
<text text-anchor="middle" x="320" y="-45" font-family="Helvetica,sans-Serif" font-size="10.00">WebServer::handleCgiReadable</text>
</a>
</g>
</g>
<!-- Node2&#45;&gt;Node7 -->
<g id="edge6_Node000002_Node000007" class="edge">
<title>Node2&#45;&gt;Node7</title>
<g id="a_edge6_Node000002_Node000007"><a xlink:title=" ">
<path fill="none" stroke="#63b8ff" d="M634.73,-60.47C569.31,-57.77 473.51,-53.81 405.01,-50.97"/>
<polygon fill="#63b8ff" stroke="#63b8ff" points="634.82,-63.98 644.96,-60.89 635.11,-56.98 634.82,-63.98"/>
</a>
</g>
</g>
<!-- Node8 -->
<g id="Node000008" class="node">
<title>Node8</title>
<g id="a_Node000008"><a xlink:href="classWebServer.html#a32042bb7e426cf5c53c2c2860d622342" target="_top" xlink:title="Scans active CGI processes and terminates those exceeding timeout.">
<polygon fill="white" stroke="#666666" points="609,-19 441,-19 441,0 609,0 609,-19"/>
<text text-anchor="middle" x="525" y="-7" font-family="Helvetica,sans-Serif" font-size="10.00">WebServer::sweepCgiTimeouts</text>
</a>
</g>
</g>
<!-- Node2&#45;&gt;Node8 -->
<g id="edge9_Node000002_Node000008" class="edge">
<title>Node2&#45;&gt;Node8</title>
<g id="a_edge9_Node000002_Node000008"><a xlink:title=" ">
<path fill="none" stroke="#63b8ff" d="M666.78,-50.88C649.02,-45.48 628,-39.13 609,-33.5 592.75,-28.69 574.67,-23.45 559.55,-19.1"/>
<polygon fill="#63b8ff" stroke="#63b8ff" points="666.23,-54.37 676.82,-53.94 668.27,-47.68 666.23,-54.37"/>
</a>
</g>
</g>
<!-- Node4 -->
<g id="Node000004" class="node">
<title>Node4</title>
<g id="a_Node000004"><a xlink:href="classWebServer.html#a8cbf37c0a840305ce15e8648566c9ce4" target="_top" xlink:title="Handles incoming data from a connected client.">
<polygon fill="white" stroke="#666666" points="395.5,-133 244.5,-133 244.5,-114 395.5,-114 395.5,-133"/>
<text text-anchor="middle" x="320" y="-121" font-family="Helvetica,sans-Serif" font-size="10.00">WebServer::receiveRequest</text>
</a>
</g>
</g>
<!-- Node3&#45;&gt;Node4 -->
<g id="edge3_Node000003_Node000004" class="edge">
<title>Node3&#45;&gt;Node4</title>
<g id="a_edge3_Node000003_Node000004"><a xlink:title=" ">
<path fill="none" stroke="#63b8ff" d="M456.88,-123.5C437.33,-123.5 415.85,-123.5 395.86,-123.5"/>
<polygon fill="#63b8ff" stroke="#63b8ff" points="456.91,-127 466.91,-123.5 456.91,-120 456.91,-127"/>
</a>
</g>
</g>
<!-- Node4&#45;&gt;Node5 -->
<g id="edge4_Node000004_Node000005" class="edge">
<title>Node4&#45;&gt;Node5</title>
<g id="a_edge4_Node000004_Node000005"><a xlink:title=" ">
<path fill="none" stroke="#63b8ff" d="M274.22,-111.18C261.51,-107.55 247.67,-103.49 235,-99.5 211.46,-92.1 184.96,-82.92 165.77,-76.13"/>
<polygon fill="#63b8ff" stroke="#63b8ff" points="273.56,-114.63 284.14,-113.98 275.47,-107.89 273.56,-114.63"/>
</a>
</g>
</g>
<!-- Node6 -->
<g id="Node000006" class="node">
<title>Node6</title>
<g id="a_Node000006"><a xlink:href="main_8cpp.html#a3c04138a5bfe5d72780bb7e82a18e627" target="_top" xlink:title="Entry point of the Webservinho web server.">
<polygon fill="white" stroke="#666666" points="41,-76 0,-76 0,-57 41,-57 41,-76"/>
<text text-anchor="middle" x="20.5" y="-64" font-family="Helvetica,sans-Serif" font-size="10.00">main</text>
</a>
</g>
</g>
<!-- Node5&#45;&gt;Node6 -->
<g id="edge5_Node000005_Node000006" class="edge">
<title>Node5&#45;&gt;Node6</title>
<g id="a_edge5_Node000005_Node000006"><a xlink:title=" ">
<path fill="none" stroke="#63b8ff" d="M66.66,-66.5C57.35,-66.5 48.51,-66.5 41.15,-66.5"/>
<polygon fill="#63b8ff" stroke="#63b8ff" points="66.88,-70 76.88,-66.5 66.88,-63 66.88,-70"/>
</a>
</g>
</g>
<!-- Node7&#45;&gt;Node5 -->
<g id="edge7_Node000007_Node000005" class="edge">
<title>Node7&#45;&gt;Node5</title>
<g id="a_edge7_Node000007_Node000005"><a xlink:title=" ">
<path fill="none" stroke="#63b8ff" d="M224.59,-57.47C215.91,-58.38 207.27,-59.29 199.02,-60.16"/>
<polygon fill="#63b8ff" stroke="#63b8ff" points="225.22,-60.92 234.8,-56.39 224.49,-53.96 225.22,-60.92"/>
</a>
</g>
</g>
<!-- Node8&#45;&gt;Node5 -->
<g id="edge10_Node000008_Node000005" class="edge">
<title>Node8&#45;&gt;Node5</title>
<g id="a_edge10_Node000008_Node000005"><a xlink:title=" ">
<path fill="none" stroke="#63b8ff" d="M430.71,-8.32C373.58,-9.4 299.33,-14.03 235,-28.5 207.19,-34.76 176.9,-47.9 157.93,-56.96"/>
<polygon fill="#63b8ff" stroke="#63b8ff" points="430.87,-11.82 440.81,-8.17 430.76,-4.82 430.87,-11.82"/>
</a>
</g>
</g>
<!-- Node9&#45;&gt;Node2 -->
<g id="edge12_Node000009_Node000002" class="edge">
<title>Node9&#45;&gt;Node2</title>
<g id="a_edge12_Node000009_Node000002"><a xlink:title=" ">
<path fill="none" stroke="#63b8ff" d="M798.79,-52.75C790.13,-53.8 781.45,-54.85 773.08,-55.86"/>
<polygon fill="#63b8ff" stroke="#63b8ff" points="799.41,-56.2 808.91,-51.53 798.57,-49.25 799.41,-56.2"/>
</a>
</g>
</g>
<!-- Node10&#45;&gt;Node3 -->
<g id="edge14_Node000010_Node000003" class="edge">
<title>Node10&#45;&gt;Node3</title>
<g id="a_edge14_Node000010_Node000003"><a xlink:title=" ">
<path fill="none" stroke="#63b8ff" d="M642.87,-123.5C623.34,-123.5 602.09,-123.5 583.12,-123.5"/>
<polygon fill="#63b8ff" stroke="#63b8ff" points="642.9,-127 652.9,-123.5 642.9,-120 642.9,-127"/>
</a>
</g>
</g>
</g>
</svg>
