<?xml version="1.0" encoding="UTF-8" standalone="no"?>
<!DOCTYPE svg PUBLIC "-//W3C//DTD SVG 1.1//EN"
 "http://www.w3.org/Graphics/SVG/1.1/DTD/svg11.dtd">
<!-- Generated by graphviz version 2.43.0 (0)
 -->
<!-- Title: Signals::setupHandlers Pages: 1 -->
<svg width="803pt" height="121pt"
 viewBox="0.00 0.00 803.00 120.90" xmlns="http://www.w3.org/2000/svg" xmlns:xlink="http://www.w3.org/1999/xlink">
<g id="graph0" class="graph" transform="scale(1 1) rotate(0) translate(4 116.9)">
<title>Signals::setupHandlers</title>
<!-- Node1 -->
<g id="Node000001" class="node">
<title>Node1</title>
<g id="a_Node000001"><a xlink:title="Registers signal handlers for SIGINT, SIGTERM, and SIGCHLD.">
<polygon fill="#999999" stroke="#666666" points="128,-75 0,-75 0,-56 128,-56 128,-75"/>
<text text-anchor="middle" x="64" y="-63" font-family="Helvetica,sans-Serif" font-size="10.00">Signals::setupHandlers</text>
</a>
</g>
</g>
<!-- Node2 -->
<g id="Node000002" class="node">
<title>Node2</title>
<g id="a_Node000002"><a xlink:href="classSignals.html#a794783efe829c5700ffeef1f04a524c8" target="_top" xlink:title="Handles SIGCHLD signals to clean up terminated child processes.">
<polygon fill="white" stroke="#666666" points="310,-56 164,-56 164,-37 310,-37 310,-56"/>
<text text-anchor="middle" x="237" y="-44" font-family="Helvetica,sans-Serif" font-size="10.00">Signals::childSignalHandle</text>
</a>
</g>
</g>
<!-- Node1&#45;&gt;Node2 -->
<g id="edge1_Node000001_Node000002" class="edge">
<title>Node1&#45;&gt;Node2</title>
<g id="a_edge1_Node000001_Node000002"><a xlink:title=" ">
<path fill="none" stroke="#63b8ff" d="M128.19,-58.48C136.53,-57.55 145.18,-56.59 153.78,-55.64"/>
<polygon fill="#63b8ff" stroke="#63b8ff" points="154.29,-59.1 163.84,-54.52 153.51,-52.14 154.29,-59.1"/>
</a>
</g>
</g>
<!-- Node4 -->
<g id="Node000004" class="node">
<title>Node4</title>
<g id="a_Node000004"><a xlink:href="classLogger.html#a4aa4d7c3b98f6e12e7ea8253da5ea0cd" target="_top" xlink:title="Returns the singleton instance of the Logger.">
<polygon fill="white" stroke="#666666" points="640,-94 543,-94 543,-75 640,-75 640,-94"/>
<text text-anchor="middle" x="591.5" y="-82" font-family="Helvetica,sans-Serif" font-size="10.00">Logger::instance</text>
</a>
</g>
</g>
<!-- Node1&#45;&gt;Node4 -->
<g id="edge7_Node000001_Node000004" class="edge">
<title>Node1&#45;&gt;Node4</title>
<g id="a_edge7_Node000001_Node000004"><a xlink:title=" ">
<path fill="none" stroke="#63b8ff" d="M100.5,-75.07C119.25,-79.79 142.73,-85.17 164,-88.5 314.75,-112.09 355.36,-120.53 507,-103.5 520.06,-102.03 534.05,-99.31 546.78,-96.38"/>
<polygon fill="#63b8ff" stroke="#63b8ff" points="547.76,-99.75 556.67,-94.01 546.13,-92.94 547.76,-99.75"/>
</a>
</g>
</g>
<!-- Node5 -->
<g id="Node000005" class="node">
<title>Node5</title>
<g id="a_Node000005"><a xlink:href="classLogger.html#a3d3f0801eeaf39b33a906ea8569c19b2" target="_top" xlink:title="Writes a log entry with timestamp, level, and message.">
<polygon fill="white" stroke="#666666" points="627,-19 556,-19 556,0 627,0 627,-19"/>
<text text-anchor="middle" x="591.5" y="-7" font-family="Helvetica,sans-Serif" font-size="10.00">Logger::log</text>
</a>
</g>
</g>
<!-- Node1&#45;&gt;Node5 -->
<g id="edge8_Node000001_Node000005" class="edge">
<title>Node1&#45;&gt;Node5</title>
<g id="a_edge8_Node000001_Node000005"><a xlink:title=" ">
<path fill="none" stroke="#63b8ff" d="M84.93,-55.93C104.54,-47.03 135.59,-34.29 164,-28.5 300.92,-0.59 467.49,-3.48 545.78,-6.95"/>
<polygon fill="#63b8ff" stroke="#63b8ff" points="545.63,-10.44 555.78,-7.42 545.95,-3.45 545.63,-10.44"/>
</a>
</g>
</g>
<!-- Node8 -->
<g id="Node000008" class="node">
<title>Node8</title>
<g id="a_Node000008"><a xlink:href="classSignals.html#a48b43a3eca9031322309320a45d538d2" target="_top" xlink:title="Handles SIGINT and SIGTERM for graceful shutdown.">
<polygon fill="white" stroke="#666666" points="487.5,-94 365.5,-94 365.5,-75 487.5,-75 487.5,-94"/>
<text text-anchor="middle" x="426.5" y="-82" font-family="Helvetica,sans-Serif" font-size="10.00">Signals::signalHandle</text>
</a>
</g>
</g>
<!-- Node1&#45;&gt;Node8 -->
<g id="edge9_Node000001_Node000008" class="edge">
<title>Node1&#45;&gt;Node8</title>
<g id="a_edge9_Node000001_Node000008"><a xlink:title=" ">
<path fill="none" stroke="#63b8ff" d="M128.21,-68.83C191.65,-72.18 289.18,-77.32 355.07,-80.79"/>
<polygon fill="#63b8ff" stroke="#63b8ff" points="355.2,-84.3 365.37,-81.33 355.57,-77.31 355.2,-84.3"/>
</a>
</g>
</g>
<!-- Node3 -->
<g id="Node000003" class="node">
<title>Node3</title>
<g id="a_Node000003"><a xlink:href="classSignals.html#aa783f74c1937b7e3a797914950378870" target="_top" xlink:title="Unregisters a finished CGI process.">
<polygon fill="white" stroke="#666666" points="507,-56 346,-56 346,-37 507,-37 507,-56"/>
<text text-anchor="middle" x="426.5" y="-44" font-family="Helvetica,sans-Serif" font-size="10.00">Signals::unregisterCgiProcess</text>
</a>
</g>
</g>
<!-- Node2&#45;&gt;Node3 -->
<g id="edge2_Node000002_Node000003" class="edge">
<title>Node2&#45;&gt;Node3</title>
<g id="a_edge2_Node000002_Node000003"><a xlink:title=" ">
<path fill="none" stroke="#63b8ff" d="M310.22,-46.5C318.6,-46.5 327.22,-46.5 335.8,-46.5"/>
<polygon fill="#63b8ff" stroke="#63b8ff" points="335.83,-50 345.83,-46.5 335.83,-43 335.83,-50"/>
</a>
</g>
</g>
<!-- Node3&#45;&gt;Node4 -->
<g id="edge3_Node000003_Node000004" class="edge">
<title>Node3&#45;&gt;Node4</title>
<g id="a_edge3_Node000003_Node000004"><a xlink:title=" ">
<path fill="none" stroke="#63b8ff" d="M468.63,-56.09C490.24,-61.13 516.91,-67.34 539.79,-72.68"/>
<polygon fill="#63b8ff" stroke="#63b8ff" points="539.13,-76.12 549.66,-74.98 540.72,-69.3 539.13,-76.12"/>
</a>
</g>
</g>
<!-- Node3&#45;&gt;Node5 -->
<g id="edge4_Node000003_Node000005" class="edge">
<title>Node3&#45;&gt;Node5</title>
<g id="a_edge4_Node000003_Node000005"><a xlink:title=" ">
<path fill="none" stroke="#63b8ff" d="M469.48,-36.97C492.92,-31.65 522.11,-25.02 545.96,-19.61"/>
<polygon fill="#63b8ff" stroke="#63b8ff" points="546.84,-23 555.81,-17.37 545.29,-16.17 546.84,-23"/>
</a>
</g>
</g>
<!-- Node7 -->
<g id="Node000007" class="node">
<title>Node7</title>
<g id="a_Node000007"><a xlink:href="string__utils_8hpp.html#ad735976365693b45c427000fe042e173" target="_top" xlink:title="Converts any printable type to a string representation.">
<polygon fill="white" stroke="#666666" points="619,-56 564,-56 564,-37 619,-37 619,-56"/>
<text text-anchor="middle" x="591.5" y="-44" font-family="Helvetica,sans-Serif" font-size="10.00">toString</text>
</a>
</g>
</g>
<!-- Node3&#45;&gt;Node7 -->
<g id="edge6_Node000003_Node000007" class="edge">
<title>Node3&#45;&gt;Node7</title>
<g id="a_edge6_Node000003_Node000007"><a xlink:title=" ">
<path fill="none" stroke="#63b8ff" d="M507.09,-46.5C523.45,-46.5 539.91,-46.5 553.83,-46.5"/>
<polygon fill="#63b8ff" stroke="#63b8ff" points="553.94,-50 563.94,-46.5 553.94,-43 553.94,-50"/>
</a>
</g>
</g>
<!-- Node6 -->
<g id="Node000006" class="node">
<title>Node6</title>
<g id="a_Node000006"><a xlink:href="classLogger.html#a19f9ef22095a67c9fe420c9d6e761fc2" target="_top" xlink:title="Converts a LogLevel enum value to its string label.">
<polygon fill="white" stroke="#666666" points="795,-19 676,-19 676,0 795,0 795,-19"/>
<text text-anchor="middle" x="735.5" y="-7" font-family="Helvetica,sans-Serif" font-size="10.00">Logger::levelToString</text>
</a>
</g>
</g>
<!-- Node5&#45;&gt;Node6 -->
<g id="edge5_Node000005_Node000006" class="edge">
<title>Node5&#45;&gt;Node6</title>
<g id="a_edge5_Node000005_Node000006"><a xlink:title=" ">
<path fill="none" stroke="#63b8ff" d="M627.24,-9.5C638.88,-9.5 652.31,-9.5 665.63,-9.5"/>
<polygon fill="#63b8ff" stroke="#63b8ff" points="665.77,-13 675.77,-9.5 665.77,-6 665.77,-13"/>
</a>
</g>
</g>
<!-- Node8&#45;&gt;Node4 -->
<g id="edge10_Node000008_Node000004" class="edge">
<title>Node8&#45;&gt;Node4</title>
<g id="a_edge10_Node000008_Node000004"><a xlink:title=" ">
<path fill="none" stroke="#63b8ff" d="M487.73,-84.5C502.4,-84.5 518.06,-84.5 532.61,-84.5"/>
<polygon fill="#63b8ff" stroke="#63b8ff" points="532.99,-88 542.99,-84.5 532.99,-81 532.99,-88"/>
</a>
</g>
</g>
<!-- Node8&#45;&gt;Node5 -->
<g id="edge11_Node000008_Node000005" class="edge">
<title>Node8&#45;&gt;Node5</title>
<g id="a_edge11_Node000008_Node000005"><a xlink:title=" ">
<path fill="none" stroke="#63b8ff" d="M485.02,-74.89C492.68,-72.43 500.21,-69.36 507,-65.5 526.95,-54.16 523.93,-41.26 543,-28.5 545.73,-26.67 548.66,-24.98 551.69,-23.41"/>
<polygon fill="#63b8ff" stroke="#63b8ff" points="553.31,-26.51 560.89,-19.11 550.35,-20.17 553.31,-26.51"/>
</a>
</g>
</g>
</g>
</svg>
