<?xml version="1.0" encoding="UTF-8" standalone="no"?>
<!DOCTYPE svg PUBLIC "-//W3C//DTD SVG 1.1//EN"
 "http://www.w3.org/Graphics/SVG/1.1/DTD/svg11.dtd">
<!-- Generated by graphviz version 2.43.0 (0)
 -->
<!-- Title: ConfigParser::expect Pages: 1 -->
<svg width="731pt" height="72pt"
 viewBox="0.00 0.00 731.00 72.28" xmlns="http://www.w3.org/2000/svg" xmlns:xlink="http://www.w3.org/1999/xlink">
<g id="graph0" class="graph" transform="scale(1 1) rotate(0) translate(4 68.28)">
<title>ConfigParser::expect</title>
<!-- Node1 -->
<g id="Node000001" class="node">
<title>Node1</title>
<g id="a_Node000001"><a xlink:title="Utility: checks if next token matches the expected symbol.">
<polygon fill="#999999" stroke="#666666" points="723,-39.63 607,-39.63 607,-20.63 723,-20.63 723,-39.63"/>
<text text-anchor="middle" x="665" y="-27.63" font-family="Helvetica,sans-Serif" font-size="10.00">ConfigParser::expect</text>
</a>
</g>
</g>
<!-- Node2 -->
<g id="Node000002" class="node">
<title>Node2</title>
<g id="a_Node000002"><a xlink:href="classConfigParser.html#a37f7f2df580ba720a140bd0fa7b6598c" target="_top" xlink:title="Parses the entire configuration file and returns a populated Config object.">
<polygon fill="white" stroke="#666666" points="205,-60.63 77,-60.63 77,-41.63 205,-41.63 205,-60.63"/>
<text text-anchor="middle" x="141" y="-48.63" font-family="Helvetica,sans-Serif" font-size="10.00">ConfigParser::parseFile</text>
</a>
</g>
</g>
<!-- Node1&#45;&gt;Node2 -->
<g id="edge1_Node000001_Node000002" class="edge">
<title>Node1&#45;&gt;Node2</title>
<g id="a_edge1_Node000001_Node000002"><a xlink:title=" ">
<path fill="none" stroke="#63b8ff" d="M624.82,-42.58C608.38,-47.19 588.95,-51.85 571,-54.13 441.88,-70.52 289.14,-63.14 205.19,-56.8"/>
<polygon fill="#63b8ff" stroke="#63b8ff" points="626,-45.89 634.63,-39.74 624.06,-39.16 626,-45.89"/>
</a>
</g>
</g>
<!-- Node4 -->
<g id="Node000004" class="node">
<title>Node4</title>
<g id="a_Node000004"><a xlink:href="classConfigParser.html#a99a7670aacf418332702850134b4e4ca" target="_top" xlink:title="Parses a location block and adds it to the current server.">
<polygon fill="white" stroke="#666666" points="571,-45.13 419,-45.13 419,-15.13 571,-15.13 571,-45.13"/>
<text text-anchor="start" x="427" y="-33.13" font-family="Helvetica,sans-Serif" font-size="10.00">ConfigParser::parseLocation</text>
<text text-anchor="middle" x="495" y="-22.13" font-family="Helvetica,sans-Serif" font-size="10.00">Block</text>
</a>
</g>
</g>
<!-- Node1&#45;&gt;Node4 -->
<g id="edge3_Node000001_Node000004" class="edge">
<title>Node1&#45;&gt;Node4</title>
<g id="a_edge3_Node000001_Node000004"><a xlink:title=" ">
<path fill="none" stroke="#63b8ff" d="M596.6,-30.13C588.25,-30.13 579.67,-30.13 571.21,-30.13"/>
<polygon fill="#63b8ff" stroke="#63b8ff" points="596.65,-33.63 606.65,-30.13 596.65,-26.63 596.65,-33.63"/>
</a>
</g>
</g>
<!-- Node5 -->
<g id="Node000005" class="node">
<title>Node5</title>
<g id="a_Node000005"><a xlink:href="classConfigParser.html#aeb128a03051f57d584d3c5933435f2d4" target="_top" xlink:title="Parses a complete server {} block and adds it to Config.">
<polygon fill="white" stroke="#666666" points="383,-45.13 241,-45.13 241,-15.13 383,-15.13 383,-45.13"/>
<text text-anchor="start" x="249" y="-33.13" font-family="Helvetica,sans-Serif" font-size="10.00">ConfigParser::parseServer</text>
<text text-anchor="middle" x="312" y="-22.13" font-family="Helvetica,sans-Serif" font-size="10.00">Block</text>
</a>
</g>
</g>
<!-- Node1&#45;&gt;Node5 -->
<g id="edge6_Node000001_Node000005" class="edge">
<title>Node1&#45;&gt;Node5</title>
<g id="a_edge6_Node000001_Node000005"><a xlink:title=" ">
<path fill="none" stroke="#63b8ff" d="M624.82,-17.68C608.38,-13.07 588.95,-8.41 571,-6.13 503.98,2.38 486.14,1.38 419,-6.13 402.5,-7.98 384.82,-11.39 368.72,-15.07"/>
<polygon fill="#63b8ff" stroke="#63b8ff" points="624.06,-21.1 634.63,-20.52 626,-14.37 624.06,-21.1"/>
</a>
</g>
</g>
<!-- Node3 -->
<g id="Node000003" class="node">
<title>Node3</title>
<g id="a_Node000003"><a xlink:href="main_8cpp.html#a3c04138a5bfe5d72780bb7e82a18e627" target="_top" xlink:title="Entry point of the Webservinho web server.">
<polygon fill="white" stroke="#666666" points="41,-60.63 0,-60.63 0,-41.63 41,-41.63 41,-60.63"/>
<text text-anchor="middle" x="20.5" y="-48.63" font-family="Helvetica,sans-Serif" font-size="10.00">main</text>
</a>
</g>
</g>
<!-- Node2&#45;&gt;Node3 -->
<g id="edge2_Node000002_Node000003" class="edge">
<title>Node2&#45;&gt;Node3</title>
<g id="a_edge2_Node000002_Node000003"><a xlink:title=" ">
<path fill="none" stroke="#63b8ff" d="M66.64,-51.13C57.29,-51.13 48.43,-51.13 41.09,-51.13"/>
<polygon fill="#63b8ff" stroke="#63b8ff" points="66.93,-54.63 76.93,-51.13 66.93,-47.63 66.93,-54.63"/>
</a>
</g>
</g>
<!-- Node4&#45;&gt;Node5 -->
<g id="edge4_Node000004_Node000005" class="edge">
<title>Node4&#45;&gt;Node5</title>
<g id="a_edge4_Node000004_Node000005"><a xlink:title=" ">
<path fill="none" stroke="#63b8ff" d="M408.75,-30.13C400.13,-30.13 391.45,-30.13 383.03,-30.13"/>
<polygon fill="#63b8ff" stroke="#63b8ff" points="408.81,-33.63 418.81,-30.13 408.81,-26.63 408.81,-33.63"/>
</a>
</g>
</g>
<!-- Node5&#45;&gt;Node2 -->
<g id="edge5_Node000005_Node000002" class="edge">
<title>Node5&#45;&gt;Node2</title>
<g id="a_edge5_Node000005_Node000002"><a xlink:title=" ">
<path fill="none" stroke="#63b8ff" d="M230.78,-40.1C222.21,-41.16 213.57,-42.24 205.24,-43.27"/>
<polygon fill="#63b8ff" stroke="#63b8ff" points="231.3,-43.56 240.8,-38.85 230.44,-36.61 231.3,-43.56"/>
</a>
</g>
</g>
</g>
</svg>
