<?xml version="1.0" encoding="UTF-8" standalone="no"?>
<!DOCTYPE svg PUBLIC "-//W3C//DTD SVG 1.1//EN"
 "http://www.w3.org/Graphics/SVG/1.1/DTD/svg11.dtd">
<!-- Generated by graphviz version 2.43.0 (0)
 -->
<!-- Title: ClientConnection::getResponseBuffer Pages: 1 -->
<svg width="787pt" height="78pt"
 viewBox="0.00 0.00 787.00 77.70" xmlns="http://www.w3.org/2000/svg" xmlns:xlink="http://www.w3.org/1999/xlink">
<g id="graph0" class="graph" transform="scale(1 1) rotate(0) translate(4 73.7)">
<title>ClientConnection::getResponseBuffer</title>
<!-- Node1 -->
<g id="Node000001" class="node">
<title>Node1</title>
<g id="a_Node000001"><a xlink:title=" ">
<polygon fill="#999999" stroke="#666666" points="779,-38.2 610,-38.2 610,-8.2 779,-8.2 779,-38.2"/>
<text text-anchor="start" x="618" y="-26.2" font-family="Helvetica,sans-Serif" font-size="10.00">ClientConnection::getResponse</text>
<text text-anchor="middle" x="694.5" y="-15.2" font-family="Helvetica,sans-Serif" font-size="10.00">Buffer</text>
</a>
</g>
</g>
<!-- Node2 -->
<g id="Node000002" class="node">
<title>Node2</title>
<g id="a_Node000002"><a xlink:href="classDispatcher.html#a13c8a2fd90033adf9788c8774c3f0f47" target="_top" xlink:title="Central dispatch routine that delegates HTTP requests to the appropriate handler.">
<polygon fill="white" stroke="#666666" points="556,-69.7 440,-69.7 440,-50.7 556,-50.7 556,-69.7"/>
<text text-anchor="middle" x="498" y="-57.7" font-family="Helvetica,sans-Serif" font-size="10.00">Dispatcher::dispatch</text>
</a>
</g>
</g>
<!-- Node1&#45;&gt;Node2 -->
<g id="edge1_Node000001_Node000002" class="edge">
<title>Node1&#45;&gt;Node2</title>
<g id="a_edge1_Node000001_Node000002"><a xlink:title=" ">
<path fill="none" stroke="#63b8ff" d="M604.48,-40.14C585.44,-43.76 565.97,-47.46 549.03,-50.69"/>
<polygon fill="#63b8ff" stroke="#63b8ff" points="605.22,-43.56 614.39,-38.25 603.91,-36.68 605.22,-43.56"/>
</a>
</g>
</g>
<!-- Node6 -->
<g id="Node000006" class="node">
<title>Node6</title>
<g id="a_Node000006"><a xlink:href="classClientConnection.html#abbef9ce451a487c2961910457915824e" target="_top" xlink:title="Sends response data to the client.">
<polygon fill="white" stroke="#666666" points="574,-32.7 422,-32.7 422,-13.7 574,-13.7 574,-32.7"/>
<text text-anchor="middle" x="498" y="-20.7" font-family="Helvetica,sans-Serif" font-size="10.00">ClientConnection::sendData</text>
</a>
</g>
</g>
<!-- Node1&#45;&gt;Node6 -->
<g id="edge5_Node000001_Node000006" class="edge">
<title>Node1&#45;&gt;Node6</title>
<g id="a_edge5_Node000001_Node000006"><a xlink:title=" ">
<path fill="none" stroke="#63b8ff" d="M599.85,-23.2C591.27,-23.2 582.65,-23.2 574.26,-23.2"/>
<polygon fill="#63b8ff" stroke="#63b8ff" points="599.89,-26.7 609.89,-23.2 599.89,-19.7 599.89,-26.7"/>
</a>
</g>
</g>
<!-- Node7 -->
<g id="Node000007" class="node">
<title>Node7</title>
<g id="a_Node000007"><a xlink:href="classWebServer.html#acbda203d0faed2cb204ee17908e1c2c3" target="_top" xlink:title="Sends buffered response data to a connected client.">
<polygon fill="white" stroke="#666666" points="383.5,-32.7 237.5,-32.7 237.5,-13.7 383.5,-13.7 383.5,-32.7"/>
<text text-anchor="middle" x="310.5" y="-20.7" font-family="Helvetica,sans-Serif" font-size="10.00">WebServer::sendResponse</text>
</a>
</g>
</g>
<!-- Node1&#45;&gt;Node7 -->
<g id="edge8_Node000001_Node000007" class="edge">
<title>Node1&#45;&gt;Node7</title>
<g id="a_edge8_Node000001_Node000007"><a xlink:title=" ">
<path fill="none" stroke="#63b8ff" d="M599.66,-6.85C591.01,-5.78 582.35,-4.86 574,-4.2 506.65,1.12 489.31,1.54 422,-4.2 400.28,-6.06 376.41,-9.92 356.44,-13.69"/>
<polygon fill="#63b8ff" stroke="#63b8ff" points="599.43,-10.35 609.8,-8.18 600.34,-3.41 599.43,-10.35"/>
</a>
</g>
</g>
<!-- Node3 -->
<g id="Node000003" class="node">
<title>Node3</title>
<g id="a_Node000003"><a xlink:href="classWebServer.html#a8cbf37c0a840305ce15e8648566c9ce4" target="_top" xlink:title="Handles incoming data from a connected client.">
<polygon fill="white" stroke="#666666" points="386,-69.7 235,-69.7 235,-50.7 386,-50.7 386,-69.7"/>
<text text-anchor="middle" x="310.5" y="-57.7" font-family="Helvetica,sans-Serif" font-size="10.00">WebServer::receiveRequest</text>
</a>
</g>
</g>
<!-- Node2&#45;&gt;Node3 -->
<g id="edge2_Node000002_Node000003" class="edge">
<title>Node2&#45;&gt;Node3</title>
<g id="a_edge2_Node000002_Node000003"><a xlink:title=" ">
<path fill="none" stroke="#63b8ff" d="M429.72,-60.2C415.6,-60.2 400.63,-60.2 386.25,-60.2"/>
<polygon fill="#63b8ff" stroke="#63b8ff" points="429.83,-63.7 439.83,-60.2 429.83,-56.7 429.83,-63.7"/>
</a>
</g>
</g>
<!-- Node4 -->
<g id="Node000004" class="node">
<title>Node4</title>
<g id="a_Node000004"><a xlink:href="classWebServer.html#af39709e3744077e019aa76555f03a42e" target="_top" xlink:title="Main event loop — monitors sockets, dispatches requests, and handles responses.">
<polygon fill="white" stroke="#666666" points="199,-50.7 77,-50.7 77,-31.7 199,-31.7 199,-50.7"/>
<text text-anchor="middle" x="138" y="-38.7" font-family="Helvetica,sans-Serif" font-size="10.00">WebServer::runServer</text>
</a>
</g>
</g>
<!-- Node3&#45;&gt;Node4 -->
<g id="edge3_Node000003_Node000004" class="edge">
<title>Node3&#45;&gt;Node4</title>
<g id="a_edge3_Node000003_Node000004"><a xlink:title=" ">
<path fill="none" stroke="#63b8ff" d="M224.63,-50.74C216.02,-49.79 207.4,-48.83 199.13,-47.9"/>
<polygon fill="#63b8ff" stroke="#63b8ff" points="224.39,-54.24 234.72,-51.87 225.17,-47.28 224.39,-54.24"/>
</a>
</g>
</g>
<!-- Node5 -->
<g id="Node000005" class="node">
<title>Node5</title>
<g id="a_Node000005"><a xlink:href="main_8cpp.html#a3c04138a5bfe5d72780bb7e82a18e627" target="_top" xlink:title="Entry point of the Webservinho web server.">
<polygon fill="white" stroke="#666666" points="41,-50.7 0,-50.7 0,-31.7 41,-31.7 41,-50.7"/>
<text text-anchor="middle" x="20.5" y="-38.7" font-family="Helvetica,sans-Serif" font-size="10.00">main</text>
</a>
</g>
</g>
<!-- Node4&#45;&gt;Node5 -->
<g id="edge4_Node000004_Node000005" class="edge">
<title>Node4&#45;&gt;Node5</title>
<g id="a_edge4_Node000004_Node000005"><a xlink:title=" ">
<path fill="none" stroke="#63b8ff" d="M66.66,-41.2C57.35,-41.2 48.51,-41.2 41.15,-41.2"/>
<polygon fill="#63b8ff" stroke="#63b8ff" points="66.88,-44.7 76.88,-41.2 66.88,-37.7 66.88,-44.7"/>
</a>
</g>
</g>
<!-- Node6&#45;&gt;Node7 -->
<g id="edge6_Node000006_Node000007" class="edge">
<title>Node6&#45;&gt;Node7</title>
<g id="a_edge6_Node000006_Node000007"><a xlink:title=" ">
<path fill="none" stroke="#63b8ff" d="M411.74,-23.2C402.39,-23.2 392.95,-23.2 383.79,-23.2"/>
<polygon fill="#63b8ff" stroke="#63b8ff" points="411.82,-26.7 421.82,-23.2 411.82,-19.7 411.82,-26.7"/>
</a>
</g>
</g>
<!-- Node7&#45;&gt;Node4 -->
<g id="edge7_Node000007_Node000004" class="edge">
<title>Node7&#45;&gt;Node4</title>
<g id="a_edge7_Node000007_Node000004"><a xlink:title=" ">
<path fill="none" stroke="#63b8ff" d="M227.01,-31.91C217.58,-32.91 208.11,-33.91 199.06,-34.86"/>
<polygon fill="#63b8ff" stroke="#63b8ff" points="227.62,-35.37 237.19,-30.84 226.88,-28.41 227.62,-35.37"/>
</a>
</g>
</g>
</g>
</svg>
