<?xml version="1.0" encoding="UTF-8" standalone="no"?>
<!DOCTYPE svg PUBLIC "-//W3C//DTD SVG 1.1//EN"
 "http://www.w3.org/Graphics/SVG/1.1/DTD/svg11.dtd">
<!-- Generated by graphviz version 2.43.0 (0)
 -->
<!-- Title: RequestParse::extractQueryString Pages: 1 -->
<svg width="652pt" height="212pt"
 viewBox="0.00 0.00 652.00 212.00" xmlns="http://www.w3.org/2000/svg" xmlns:xlink="http://www.w3.org/1999/xlink">
<g id="graph0" class="graph" transform="scale(1 1) rotate(0) translate(4 208)">
<title>RequestParse::extractQueryString</title>
<!-- Node1 -->
<g id="Node000001" class="node">
<title>Node1</title>
<g id="a_Node000001"><a xlink:title="Extracts the query string portion from a URI.">
<polygon fill="#999999" stroke="#666666" points="152,-116.5 0,-116.5 0,-86.5 152,-86.5 152,-116.5"/>
<text text-anchor="start" x="8" y="-104.5" font-family="Helvetica,sans-Serif" font-size="10.00">RequestParse::extractQuery</text>
<text text-anchor="middle" x="76" y="-93.5" font-family="Helvetica,sans-Serif" font-size="10.00">String</text>
</a>
</g>
</g>
<!-- Node2 -->
<g id="Node000002" class="node">
<title>Node2</title>
<g id="a_Node000002"><a xlink:href="classRequestParse.html#af7f93170c8210ad122820dafaeee7f3a" target="_top" xlink:title="Extracts and validates the request URI and query string.">
<polygon fill="white" stroke="#666666" points="289,-111 188,-111 188,-92 289,-92 289,-111"/>
<text text-anchor="middle" x="238.5" y="-99" font-family="Helvetica,sans-Serif" font-size="10.00">RequestParse::uri</text>
</a>
</g>
</g>
<!-- Node1&#45;&gt;Node2 -->
<g id="edge1_Node000001_Node000002" class="edge">
<title>Node1&#45;&gt;Node2</title>
<g id="a_edge1_Node000001_Node000002"><a xlink:title=" ">
<path fill="none" stroke="#63b8ff" d="M152.08,-94.76C160.67,-94.72 169.33,-94.78 177.68,-94.95"/>
<polygon fill="#63b8ff" stroke="#63b8ff" points="177.59,-98.45 187.68,-95.2 177.77,-91.45 177.59,-98.45"/>
</a>
</g>
</g>
<!-- Node2&#45;&gt;Node1 -->
<g id="edge2_Node000002_Node000001" class="edge">
<title>Node2&#45;&gt;Node1</title>
<g id="a_edge2_Node000002_Node000001"><a xlink:title=" ">
<path fill="none" stroke="#63b8ff" d="M187.68,-107.8C179.56,-108.05 170.96,-108.2 162.28,-108.24"/>
<polygon fill="#63b8ff" stroke="#63b8ff" points="162.08,-104.74 152.08,-108.24 162.08,-111.74 162.08,-104.74"/>
</a>
</g>
</g>
<!-- Node2&#45;&gt;Node2 -->
<g id="edge10_Node000002_Node000002" class="edge">
<title>Node2&#45;&gt;Node2</title>
<g id="a_edge10_Node000002_Node000002"><a xlink:title=" ">
<path fill="none" stroke="#63b8ff" d="M213.53,-111.08C201.38,-119.73 209.71,-129 238.5,-129 257.4,-129 267.48,-125.01 268.74,-119.82"/>
<polygon fill="#63b8ff" stroke="#63b8ff" points="271.63,-117.84 263.47,-111.08 265.64,-121.45 271.63,-117.84"/>
</a>
</g>
</g>
<!-- Node3 -->
<g id="Node000003" class="node">
<title>Node3</title>
<g id="a_Node000003"><a xlink:href="classLogger.html#a4aa4d7c3b98f6e12e7ea8253da5ea0cd" target="_top" xlink:title="Returns the singleton instance of the Logger.">
<polygon fill="white" stroke="#666666" points="455.5,-204 358.5,-204 358.5,-185 455.5,-185 455.5,-204"/>
<text text-anchor="middle" x="407" y="-192" font-family="Helvetica,sans-Serif" font-size="10.00">Logger::instance</text>
</a>
</g>
</g>
<!-- Node2&#45;&gt;Node3 -->
<g id="edge3_Node000002_Node000003" class="edge">
<title>Node2&#45;&gt;Node3</title>
<g id="a_edge3_Node000002_Node000003"><a xlink:title=" ">
<path fill="none" stroke="#63b8ff" d="M247.39,-111.01C261.3,-127.13 291.89,-159.71 325,-176.5 332.31,-180.21 340.37,-183.15 348.48,-185.5"/>
<polygon fill="#63b8ff" stroke="#63b8ff" points="347.8,-188.94 358.36,-188.07 349.56,-182.16 347.8,-188.94"/>
</a>
</g>
</g>
<!-- Node4 -->
<g id="Node000004" class="node">
<title>Node4</title>
<g id="a_Node000004"><a xlink:href="classLogger.html#a3d3f0801eeaf39b33a906ea8569c19b2" target="_top" xlink:title="Writes a log entry with timestamp, level, and message.">
<polygon fill="white" stroke="#666666" points="442.5,-167 371.5,-167 371.5,-148 442.5,-148 442.5,-167"/>
<text text-anchor="middle" x="407" y="-155" font-family="Helvetica,sans-Serif" font-size="10.00">Logger::log</text>
</a>
</g>
</g>
<!-- Node2&#45;&gt;Node4 -->
<g id="edge4_Node000002_Node000004" class="edge">
<title>Node2&#45;&gt;Node4</title>
<g id="a_edge4_Node000002_Node000004"><a xlink:title=" ">
<path fill="none" stroke="#63b8ff" d="M258.09,-111.06C275.13,-119.51 301.24,-131.67 325,-139.5 336.65,-143.34 349.51,-146.62 361.49,-149.28"/>
<polygon fill="#63b8ff" stroke="#63b8ff" points="360.79,-152.71 371.3,-151.37 362.25,-145.86 360.79,-152.71"/>
</a>
</g>
</g>
<!-- Node6 -->
<g id="Node000006" class="node">
<title>Node6</title>
<g id="a_Node000006"><a xlink:href="classHttpRequest.html#a4af8abc5368c893ba9bb24939cb95aa3" target="_top" xlink:title=" ">
<polygon fill="white" stroke="#666666" points="481,-130 333,-130 333,-111 481,-111 481,-130"/>
<text text-anchor="middle" x="407" y="-118" font-family="Helvetica,sans-Serif" font-size="10.00">HttpRequest::setParseError</text>
</a>
</g>
</g>
<!-- Node2&#45;&gt;Node6 -->
<g id="edge6_Node000002_Node000006" class="edge">
<title>Node2&#45;&gt;Node6</title>
<g id="a_edge6_Node000002_Node000006"><a xlink:title=" ">
<path fill="none" stroke="#63b8ff" d="M289,-107.15C299.68,-108.37 311.25,-109.69 322.81,-111.01"/>
<polygon fill="#63b8ff" stroke="#63b8ff" points="322.62,-114.51 332.96,-112.16 323.42,-107.55 322.62,-114.51"/>
</a>
</g>
</g>
<!-- Node7 -->
<g id="Node000007" class="node">
<title>Node7</title>
<g id="a_Node000007"><a xlink:href="classHttpRequest.html#aebc5ebbc9a36a9ab66135c2884866fb6" target="_top" xlink:title="Sets the query string extracted from the URI.">
<polygon fill="white" stroke="#666666" points="485,-93 329,-93 329,-74 485,-74 485,-93"/>
<text text-anchor="middle" x="407" y="-81" font-family="Helvetica,sans-Serif" font-size="10.00">HttpRequest::setQueryString</text>
</a>
</g>
</g>
<!-- Node2&#45;&gt;Node7 -->
<g id="edge7_Node000002_Node000007" class="edge">
<title>Node2&#45;&gt;Node7</title>
<g id="a_edge7_Node000002_Node000007"><a xlink:title=" ">
<path fill="none" stroke="#63b8ff" d="M289,-96.15C298.42,-95.13 308.53,-94.04 318.73,-92.93"/>
<polygon fill="#63b8ff" stroke="#63b8ff" points="319.36,-96.39 328.92,-91.83 318.61,-89.43 319.36,-96.39"/>
</a>
</g>
</g>
<!-- Node8 -->
<g id="Node000008" class="node">
<title>Node8</title>
<g id="a_Node000008"><a xlink:href="classHttpRequest.html#a15c0dff5d8350a2c71306638d30d5fe3" target="_top" xlink:title=" ">
<polygon fill="white" stroke="#666666" points="489,-56 325,-56 325,-37 489,-37 489,-56"/>
<text text-anchor="middle" x="407" y="-44" font-family="Helvetica,sans-Serif" font-size="10.00">HttpRequest::setRequestState</text>
</a>
</g>
</g>
<!-- Node2&#45;&gt;Node8 -->
<g id="edge8_Node000002_Node000008" class="edge">
<title>Node2&#45;&gt;Node8</title>
<g id="a_edge8_Node000002_Node000008"><a xlink:title=" ">
<path fill="none" stroke="#63b8ff" d="M259.52,-91.94C276.62,-84.05 302.03,-72.97 325,-65.5 332.81,-62.96 341.15,-60.61 349.4,-58.49"/>
<polygon fill="#63b8ff" stroke="#63b8ff" points="350.5,-61.82 359.37,-56.03 348.82,-55.03 350.5,-61.82"/>
</a>
</g>
</g>
<!-- Node9 -->
<g id="Node000009" class="node">
<title>Node9</title>
<g id="a_Node000009"><a xlink:href="classHttpRequest.html#aee6d6d4468cb5f45ab6fe750d9a816ca" target="_top" xlink:title="Sets the request target URI.">
<polygon fill="white" stroke="#666666" points="463.5,-19 350.5,-19 350.5,0 463.5,0 463.5,-19"/>
<text text-anchor="middle" x="407" y="-7" font-family="Helvetica,sans-Serif" font-size="10.00">HttpRequest::setUri</text>
</a>
</g>
</g>
<!-- Node2&#45;&gt;Node9 -->
<g id="edge9_Node000002_Node000009" class="edge">
<title>Node2&#45;&gt;Node9</title>
<g id="a_edge9_Node000002_Node000009"><a xlink:title=" ">
<path fill="none" stroke="#63b8ff" d="M247.92,-91.79C262.15,-76 292.61,-44.89 325,-28.5 329.91,-26.01 335.16,-23.85 340.53,-21.96"/>
<polygon fill="#63b8ff" stroke="#63b8ff" points="341.82,-25.22 350.29,-18.85 339.7,-18.55 341.82,-25.22"/>
</a>
</g>
</g>
<!-- Node5 -->
<g id="Node000005" class="node">
<title>Node5</title>
<g id="a_Node000005"><a xlink:href="classLogger.html#a19f9ef22095a67c9fe420c9d6e761fc2" target="_top" xlink:title="Converts a LogLevel enum value to its string label.">
<polygon fill="white" stroke="#666666" points="644,-167 525,-167 525,-148 644,-148 644,-167"/>
<text text-anchor="middle" x="584.5" y="-155" font-family="Helvetica,sans-Serif" font-size="10.00">Logger::levelToString</text>
</a>
</g>
</g>
<!-- Node4&#45;&gt;Node5 -->
<g id="edge5_Node000004_Node000005" class="edge">
<title>Node4&#45;&gt;Node5</title>
<g id="a_edge5_Node000004_Node000005"><a xlink:title=" ">
<path fill="none" stroke="#63b8ff" d="M442.67,-157.5C463.22,-157.5 489.98,-157.5 514.65,-157.5"/>
<polygon fill="#63b8ff" stroke="#63b8ff" points="514.71,-161 524.71,-157.5 514.71,-154 514.71,-161"/>
</a>
</g>
</g>
</g>
</svg>
