<?xml version="1.0" encoding="UTF-8" standalone="no"?>
<!DOCTYPE svg PUBLIC "-//W3C//DTD SVG 1.1//EN"
 "http://www.w3.org/Graphics/SVG/1.1/DTD/svg11.dtd">
<!-- Generated by graphviz version 2.43.0 (0)
 -->
<!-- Title: RequestParse::uri Pages: 1 -->
<svg width="464pt" height="261pt"
 viewBox="0.00 0.00 464.00 260.50" xmlns="http://www.w3.org/2000/svg" xmlns:xlink="http://www.w3.org/1999/xlink">
<g id="graph0" class="graph" transform="scale(1 1) rotate(0) translate(4 256.5)">
<title>RequestParse::uri</title>
<!-- Node1 -->
<g id="Node000001" class="node">
<title>Node1</title>
<g id="a_Node000001"><a xlink:title="Extracts and validates the request URI and query string.">
<polygon fill="#999999" stroke="#666666" points="101,-148 0,-148 0,-129 101,-129 101,-148"/>
<text text-anchor="middle" x="50.5" y="-136" font-family="Helvetica,sans-Serif" font-size="10.00">RequestParse::uri</text>
</a>
</g>
</g>
<!-- Node1&#45;&gt;Node1 -->
<g id="edge10_Node000001_Node000001" class="edge">
<title>Node1&#45;&gt;Node1</title>
<g id="a_edge10_Node000001_Node000001"><a xlink:title=" ">
<path fill="none" stroke="#63b8ff" d="M24.61,-148.08C12.01,-156.73 20.64,-166 50.5,-166 70.56,-166 81.04,-161.82 81.94,-156.45"/>
<polygon fill="#63b8ff" stroke="#63b8ff" points="84.84,-154.49 76.39,-148.08 79,-158.35 84.84,-154.49"/>
</a>
</g>
</g>
<!-- Node2 -->
<g id="Node000002" class="node">
<title>Node2</title>
<g id="a_Node000002"><a xlink:href="classRequestParse.html#af2da061f29a38d73ea2d3fabdf80e0ec" target="_top" xlink:title="Extracts the query string portion from a URI.">
<polygon fill="white" stroke="#666666" points="295,-252.5 143,-252.5 143,-222.5 295,-222.5 295,-252.5"/>
<text text-anchor="start" x="151" y="-240.5" font-family="Helvetica,sans-Serif" font-size="10.00">RequestParse::extractQuery</text>
<text text-anchor="middle" x="219" y="-229.5" font-family="Helvetica,sans-Serif" font-size="10.00">String</text>
</a>
</g>
</g>
<!-- Node1&#45;&gt;Node2 -->
<g id="edge1_Node000001_Node000002" class="edge">
<title>Node1&#45;&gt;Node2</title>
<g id="a_edge1_Node000001_Node000002"><a xlink:title=" ">
<path fill="none" stroke="#63b8ff" d="M66,-148.17C81.86,-162.8 108.82,-188.96 137,-204.5 148.25,-210.7 161.28,-215.47 173.56,-219.42"/>
<polygon fill="#63b8ff" stroke="#63b8ff" points="172.61,-222.79 183.2,-222.42 174.69,-216.11 172.61,-222.79"/>
</a>
</g>
</g>
<!-- Node3 -->
<g id="Node000003" class="node">
<title>Node3</title>
<g id="a_Node000003"><a xlink:href="classLogger.html#a4aa4d7c3b98f6e12e7ea8253da5ea0cd" target="_top" xlink:title="Returns the singleton instance of the Logger.">
<polygon fill="white" stroke="#666666" points="267.5,-204 170.5,-204 170.5,-185 267.5,-185 267.5,-204"/>
<text text-anchor="middle" x="219" y="-192" font-family="Helvetica,sans-Serif" font-size="10.00">Logger::instance</text>
</a>
</g>
</g>
<!-- Node1&#45;&gt;Node3 -->
<g id="edge3_Node000001_Node000003" class="edge">
<title>Node1&#45;&gt;Node3</title>
<g id="a_edge3_Node000001_Node000003"><a xlink:title=" ">
<path fill="none" stroke="#63b8ff" d="M70.09,-148.06C87.13,-156.51 113.24,-168.67 137,-176.5 144.59,-179 152.69,-181.26 160.72,-183.27"/>
<polygon fill="#63b8ff" stroke="#63b8ff" points="159.91,-186.68 170.45,-185.6 161.54,-179.87 159.91,-186.68"/>
</a>
</g>
</g>
<!-- Node4 -->
<g id="Node000004" class="node">
<title>Node4</title>
<g id="a_Node000004"><a xlink:href="classLogger.html#a3d3f0801eeaf39b33a906ea8569c19b2" target="_top" xlink:title="Writes a log entry with timestamp, level, and message.">
<polygon fill="white" stroke="#666666" points="254.5,-167 183.5,-167 183.5,-148 254.5,-148 254.5,-167"/>
<text text-anchor="middle" x="219" y="-155" font-family="Helvetica,sans-Serif" font-size="10.00">Logger::log</text>
</a>
</g>
</g>
<!-- Node1&#45;&gt;Node4 -->
<g id="edge4_Node000001_Node000004" class="edge">
<title>Node1&#45;&gt;Node4</title>
<g id="a_edge4_Node000001_Node000004"><a xlink:title=" ">
<path fill="none" stroke="#63b8ff" d="M101,-144.15C123.93,-146.76 150.96,-149.85 173.26,-152.39"/>
<polygon fill="#63b8ff" stroke="#63b8ff" points="173.13,-155.9 183.47,-153.56 173.93,-148.95 173.13,-155.9"/>
</a>
</g>
</g>
<!-- Node6 -->
<g id="Node000006" class="node">
<title>Node6</title>
<g id="a_Node000006"><a xlink:href="classHttpRequest.html#a4af8abc5368c893ba9bb24939cb95aa3" target="_top" xlink:title=" ">
<polygon fill="white" stroke="#666666" points="293,-130 145,-130 145,-111 293,-111 293,-130"/>
<text text-anchor="middle" x="219" y="-118" font-family="Helvetica,sans-Serif" font-size="10.00">HttpRequest::setParseError</text>
</a>
</g>
</g>
<!-- Node1&#45;&gt;Node6 -->
<g id="edge6_Node000001_Node000006" class="edge">
<title>Node1&#45;&gt;Node6</title>
<g id="a_edge6_Node000001_Node000006"><a xlink:title=" ">
<path fill="none" stroke="#63b8ff" d="M101,-133.15C111.68,-131.99 123.25,-130.74 134.81,-129.49"/>
<polygon fill="#63b8ff" stroke="#63b8ff" points="135.39,-132.95 144.96,-128.4 134.64,-125.99 135.39,-132.95"/>
</a>
</g>
</g>
<!-- Node7 -->
<g id="Node000007" class="node">
<title>Node7</title>
<g id="a_Node000007"><a xlink:href="classHttpRequest.html#aebc5ebbc9a36a9ab66135c2884866fb6" target="_top" xlink:title="Sets the query string extracted from the URI.">
<polygon fill="white" stroke="#666666" points="297,-93 141,-93 141,-74 297,-74 297,-93"/>
<text text-anchor="middle" x="219" y="-81" font-family="Helvetica,sans-Serif" font-size="10.00">HttpRequest::setQueryString</text>
</a>
</g>
</g>
<!-- Node1&#45;&gt;Node7 -->
<g id="edge7_Node000001_Node000007" class="edge">
<title>Node1&#45;&gt;Node7</title>
<g id="a_edge7_Node000001_Node000007"><a xlink:title=" ">
<path fill="none" stroke="#63b8ff" d="M71.52,-128.94C88.62,-121.05 114.03,-109.97 137,-102.5 144.81,-99.96 153.15,-97.61 161.4,-95.49"/>
<polygon fill="#63b8ff" stroke="#63b8ff" points="162.5,-98.82 171.37,-93.03 160.82,-92.03 162.5,-98.82"/>
</a>
</g>
</g>
<!-- Node8 -->
<g id="Node000008" class="node">
<title>Node8</title>
<g id="a_Node000008"><a xlink:href="classHttpRequest.html#a15c0dff5d8350a2c71306638d30d5fe3" target="_top" xlink:title=" ">
<polygon fill="white" stroke="#666666" points="301,-56 137,-56 137,-37 301,-37 301,-56"/>
<text text-anchor="middle" x="219" y="-44" font-family="Helvetica,sans-Serif" font-size="10.00">HttpRequest::setRequestState</text>
</a>
</g>
</g>
<!-- Node1&#45;&gt;Node8 -->
<g id="edge8_Node000001_Node000008" class="edge">
<title>Node1&#45;&gt;Node8</title>
<g id="a_edge8_Node000001_Node000008"><a xlink:title=" ">
<path fill="none" stroke="#63b8ff" d="M59.92,-128.79C74.15,-113 104.61,-81.89 137,-65.5 141.63,-63.15 146.56,-61.09 151.61,-59.28"/>
<polygon fill="#63b8ff" stroke="#63b8ff" points="153,-62.51 161.43,-56.1 150.84,-55.85 153,-62.51"/>
</a>
</g>
</g>
<!-- Node9 -->
<g id="Node000009" class="node">
<title>Node9</title>
<g id="a_Node000009"><a xlink:href="classHttpRequest.html#aee6d6d4468cb5f45ab6fe750d9a816ca" target="_top" xlink:title="Sets the request target URI.">
<polygon fill="white" stroke="#666666" points="275.5,-19 162.5,-19 162.5,0 275.5,0 275.5,-19"/>
<text text-anchor="middle" x="219" y="-7" font-family="Helvetica,sans-Serif" font-size="10.00">HttpRequest::setUri</text>
</a>
</g>
</g>
<!-- Node1&#45;&gt;Node9 -->
<g id="edge9_Node000001_Node000009" class="edge">
<title>Node1&#45;&gt;Node9</title>
<g id="a_edge9_Node000001_Node000009"><a xlink:title=" ">
<path fill="none" stroke="#63b8ff" d="M56.14,-128.76C67,-107.06 96.28,-54.61 137,-28.5 141.91,-25.35 147.28,-22.73 152.85,-20.53"/>
<polygon fill="#63b8ff" stroke="#63b8ff" points="154.06,-23.82 162.36,-17.24 151.77,-17.2 154.06,-23.82"/>
</a>
</g>
</g>
<!-- Node2&#45;&gt;Node1 -->
<g id="edge2_Node000002_Node000001" class="edge">
<title>Node2&#45;&gt;Node1</title>
<g id="a_edge2_Node000002_Node000001"><a xlink:title=" ">
<path fill="none" stroke="#63b8ff" d="M142.92,-225.56C140.91,-224.58 138.93,-223.56 137,-222.5 106.11,-205.46 76.7,-175.68 61.74,-156.18"/>
<polygon fill="#63b8ff" stroke="#63b8ff" points="64.59,-154.14 55.93,-148.03 58.89,-158.2 64.59,-154.14"/>
</a>
</g>
</g>
<!-- Node5 -->
<g id="Node000005" class="node">
<title>Node5</title>
<g id="a_Node000005"><a xlink:href="classLogger.html#a19f9ef22095a67c9fe420c9d6e761fc2" target="_top" xlink:title="Converts a LogLevel enum value to its string label.">
<polygon fill="white" stroke="#666666" points="456,-167 337,-167 337,-148 456,-148 456,-167"/>
<text text-anchor="middle" x="396.5" y="-155" font-family="Helvetica,sans-Serif" font-size="10.00">Logger::levelToString</text>
</a>
</g>
</g>
<!-- Node4&#45;&gt;Node5 -->
<g id="edge5_Node000004_Node000005" class="edge">
<title>Node4&#45;&gt;Node5</title>
<g id="a_edge5_Node000004_Node000005"><a xlink:title=" ">
<path fill="none" stroke="#63b8ff" d="M254.67,-157.5C275.22,-157.5 301.98,-157.5 326.65,-157.5"/>
<polygon fill="#63b8ff" stroke="#63b8ff" points="326.71,-161 336.71,-157.5 326.71,-154 326.71,-161"/>
</a>
</g>
</g>
</g>
</svg>
