<?xml version="1.0" encoding="UTF-8" standalone="no"?>
<!DOCTYPE svg PUBLIC "-//W3C//DTD SVG 1.1//EN"
 "http://www.w3.org/Graphics/SVG/1.1/DTD/svg11.dtd">
<!-- Generated by graphviz version 2.43.0 (0)
 -->
<!-- Title: UploadHandler::parseMultipart Pages: 1 -->
<svg width="847pt" height="82pt"
 viewBox="0.00 0.00 847.00 82.00" xmlns="http://www.w3.org/2000/svg" xmlns:xlink="http://www.w3.org/1999/xlink">
<g id="graph0" class="graph" transform="scale(1 1) rotate(0) translate(4 78)">
<title>UploadHandler::parseMultipart</title>
<!-- Node1 -->
<g id="Node000001" class="node">
<title>Node1</title>
<g id="a_Node000001"><a xlink:title="Parses the full multipart body into individual parts.">
<polygon fill="#999999" stroke="#666666" points="167,-55 0,-55 0,-36 167,-36 167,-55"/>
<text text-anchor="middle" x="83.5" y="-43" font-family="Helvetica,sans-Serif" font-size="10.00">UploadHandler::parseMultipart</text>
</a>
</g>
</g>
<!-- Node2 -->
<g id="Node000002" class="node">
<title>Node2</title>
<g id="a_Node000002"><a xlink:href="classUploadHandler.html#ad0eb7d7f64f75abf8078116aab15987f" target="_top" xlink:title="Extracts the multipart boundary string from the Content&#45;Type header.">
<polygon fill="white" stroke="#666666" points="379,-74 203,-74 203,-55 379,-55 379,-74"/>
<text text-anchor="middle" x="291" y="-62" font-family="Helvetica,sans-Serif" font-size="10.00">UploadHandler::extractBoundary</text>
</a>
</g>
</g>
<!-- Node1&#45;&gt;Node2 -->
<g id="edge1_Node000001_Node000002" class="edge">
<title>Node1&#45;&gt;Node2</title>
<g id="a_edge1_Node000001_Node000002"><a xlink:title=" ">
<path fill="none" stroke="#63b8ff" d="M167.2,-53.15C175.61,-53.92 184.22,-54.72 192.77,-55.51"/>
<polygon fill="#63b8ff" stroke="#63b8ff" points="192.49,-59 202.77,-56.44 193.14,-52.03 192.49,-59"/>
</a>
</g>
</g>
<!-- Node4 -->
<g id="Node000004" class="node">
<title>Node4</title>
<g id="a_Node000004"><a xlink:href="classUploadHandler.html#a034aba7372669350a9287f13fe020dbd" target="_top" xlink:title="Parses an individual multipart section.">
<polygon fill="white" stroke="#666666" points="361.5,-37 220.5,-37 220.5,-18 361.5,-18 361.5,-37"/>
<text text-anchor="middle" x="291" y="-25" font-family="Helvetica,sans-Serif" font-size="10.00">UploadHandler::parsePart</text>
</a>
</g>
</g>
<!-- Node1&#45;&gt;Node4 -->
<g id="edge3_Node000001_Node000004" class="edge">
<title>Node1&#45;&gt;Node4</title>
<g id="a_edge3_Node000001_Node000004"><a xlink:title=" ">
<path fill="none" stroke="#63b8ff" d="M167.2,-38.26C181.38,-37.01 196.09,-35.73 210.19,-34.49"/>
<polygon fill="#63b8ff" stroke="#63b8ff" points="210.68,-37.96 220.33,-33.6 210.07,-30.99 210.68,-37.96"/>
</a>
</g>
</g>
<!-- Node3 -->
<g id="Node000003" class="node">
<title>Node3</title>
<g id="a_Node000003"><a xlink:href="string__utils_8hpp.html#a8577ae0e014b88657679bf92631ee8c4" target="_top" xlink:title="Returns a copy of a string with surrounding spaces and tabs removed.">
<polygon fill="white" stroke="#666666" points="515.5,-74 450.5,-74 450.5,-55 515.5,-55 515.5,-74"/>
<text text-anchor="middle" x="483" y="-62" font-family="Helvetica,sans-Serif" font-size="10.00">trim_copy</text>
</a>
</g>
</g>
<!-- Node2&#45;&gt;Node3 -->
<g id="edge2_Node000002_Node000003" class="edge">
<title>Node2&#45;&gt;Node3</title>
<g id="a_edge2_Node000002_Node000003"><a xlink:title=" ">
<path fill="none" stroke="#63b8ff" d="M379.21,-64.5C400.42,-64.5 422.14,-64.5 440.12,-64.5"/>
<polygon fill="#63b8ff" stroke="#63b8ff" points="440.25,-68 450.25,-64.5 440.25,-61 440.25,-68"/>
</a>
</g>
</g>
<!-- Node4&#45;&gt;Node3 -->
<g id="edge8_Node000004_Node000003" class="edge">
<title>Node4&#45;&gt;Node3</title>
<g id="a_edge8_Node000004_Node000003"><a xlink:title=" ">
<path fill="none" stroke="#63b8ff" d="M340.93,-37.03C371.72,-43.02 411.02,-50.68 440.31,-56.38"/>
<polygon fill="#63b8ff" stroke="#63b8ff" points="439.75,-59.84 450.23,-58.31 441.08,-52.97 439.75,-59.84"/>
</a>
</g>
</g>
<!-- Node5 -->
<g id="Node000005" class="node">
<title>Node5</title>
<g id="a_Node000005"><a xlink:href="classUploadHandler.html#a0424d4becb0ad12b775f83822f69595c" target="_top" xlink:title="Saves a parsed file part to disk.">
<polygon fill="white" stroke="#666666" points="551,-37 415,-37 415,-18 551,-18 551,-37"/>
<text text-anchor="middle" x="483" y="-25" font-family="Helvetica,sans-Serif" font-size="10.00">UploadHandler::saveFile</text>
</a>
</g>
</g>
<!-- Node4&#45;&gt;Node5 -->
<g id="edge4_Node000004_Node000005" class="edge">
<title>Node4&#45;&gt;Node5</title>
<g id="a_edge4_Node000004_Node000005"><a xlink:title=" ">
<path fill="none" stroke="#63b8ff" d="M361.67,-27.5C375.65,-27.5 390.41,-27.5 404.63,-27.5"/>
<polygon fill="#63b8ff" stroke="#63b8ff" points="404.87,-31 414.87,-27.5 404.87,-24 404.87,-31"/>
</a>
</g>
</g>
<!-- Node6 -->
<g id="Node000006" class="node">
<title>Node6</title>
<g id="a_Node000006"><a xlink:href="classLogger.html#a4aa4d7c3b98f6e12e7ea8253da5ea0cd" target="_top" xlink:title="Returns the singleton instance of the Logger.">
<polygon fill="white" stroke="#666666" points="684,-56 587,-56 587,-37 684,-37 684,-56"/>
<text text-anchor="middle" x="635.5" y="-44" font-family="Helvetica,sans-Serif" font-size="10.00">Logger::instance</text>
</a>
</g>
</g>
<!-- Node5&#45;&gt;Node6 -->
<g id="edge5_Node000005_Node000006" class="edge">
<title>Node5&#45;&gt;Node6</title>
<g id="a_edge5_Node000005_Node000006"><a xlink:title=" ">
<path fill="none" stroke="#63b8ff" d="M551.33,-36C559.78,-37.07 568.38,-38.15 576.67,-39.2"/>
<polygon fill="#63b8ff" stroke="#63b8ff" points="576.25,-42.67 586.61,-40.45 577.13,-35.73 576.25,-42.67"/>
</a>
</g>
</g>
<!-- Node7 -->
<g id="Node000007" class="node">
<title>Node7</title>
<g id="a_Node000007"><a xlink:href="classLogger.html#a3d3f0801eeaf39b33a906ea8569c19b2" target="_top" xlink:title="Writes a log entry with timestamp, level, and message.">
<polygon fill="white" stroke="#666666" points="671,-19 600,-19 600,0 671,0 671,-19"/>
<text text-anchor="middle" x="635.5" y="-7" font-family="Helvetica,sans-Serif" font-size="10.00">Logger::log</text>
</a>
</g>
</g>
<!-- Node5&#45;&gt;Node7 -->
<g id="edge6_Node000005_Node000007" class="edge">
<title>Node5&#45;&gt;Node7</title>
<g id="a_edge6_Node000005_Node000007"><a xlink:title=" ">
<path fill="none" stroke="#63b8ff" d="M551.33,-19.45C564.28,-17.9 577.55,-16.31 589.58,-14.87"/>
<polygon fill="#63b8ff" stroke="#63b8ff" points="590.28,-18.31 599.79,-13.65 589.45,-11.36 590.28,-18.31"/>
</a>
</g>
</g>
<!-- Node8 -->
<g id="Node000008" class="node">
<title>Node8</title>
<g id="a_Node000008"><a xlink:href="classLogger.html#a19f9ef22095a67c9fe420c9d6e761fc2" target="_top" xlink:title="Converts a LogLevel enum value to its string label.">
<polygon fill="white" stroke="#666666" points="839,-19 720,-19 720,0 839,0 839,-19"/>
<text text-anchor="middle" x="779.5" y="-7" font-family="Helvetica,sans-Serif" font-size="10.00">Logger::levelToString</text>
</a>
</g>
</g>
<!-- Node7&#45;&gt;Node8 -->
<g id="edge7_Node000007_Node000008" class="edge">
<title>Node7&#45;&gt;Node8</title>
<g id="a_edge7_Node000007_Node000008"><a xlink:title=" ">
<path fill="none" stroke="#63b8ff" d="M671.24,-9.5C682.88,-9.5 696.31,-9.5 709.63,-9.5"/>
<polygon fill="#63b8ff" stroke="#63b8ff" points="709.77,-13 719.77,-9.5 709.77,-6 709.77,-13"/>
</a>
</g>
</g>
</g>
</svg>
