<?xml version="1.0" encoding="UTF-8" standalone="no"?>
<!DOCTYPE svg PUBLIC "-//W3C//DTD SVG 1.1//EN"
 "http://www.w3.org/Graphics/SVG/1.1/DTD/svg11.dtd">
<!-- Generated by graphviz version 2.43.0 (0)
 -->
<!-- Title: ClientConnection::adoptFD Pages: 1 -->
<svg width="443pt" height="101pt"
 viewBox="0.00 0.00 443.00 101.00" xmlns="http://www.w3.org/2000/svg" xmlns:xlink="http://www.w3.org/1999/xlink">
<g id="graph0" class="graph" transform="scale(1 1) rotate(0) translate(4 97)">
<title>ClientConnection::adoptFD</title>
<!-- Node1 -->
<g id="Node000001" class="node">
<title>Node1</title>
<g id="a_Node000001"><a xlink:title="Associates a socket FD with this client, closing any previous one.">
<polygon fill="#999999" stroke="#666666" points="147,-56 0,-56 0,-37 147,-37 147,-56"/>
<text text-anchor="middle" x="73.5" y="-44" font-family="Helvetica,sans-Serif" font-size="10.00">ClientConnection::adoptFD</text>
</a>
</g>
</g>
<!-- Node2 -->
<g id="Node000002" class="node">
<title>Node2</title>
<g id="a_Node000002"><a xlink:href="classLogger.html#a4aa4d7c3b98f6e12e7ea8253da5ea0cd" target="_top" xlink:title="Returns the singleton instance of the Logger.">
<polygon fill="white" stroke="#666666" points="280,-93 183,-93 183,-74 280,-74 280,-93"/>
<text text-anchor="middle" x="231.5" y="-81" font-family="Helvetica,sans-Serif" font-size="10.00">Logger::instance</text>
</a>
</g>
</g>
<!-- Node1&#45;&gt;Node2 -->
<g id="edge1_Node000001_Node000002" class="edge">
<title>Node1&#45;&gt;Node2</title>
<g id="a_edge1_Node000001_Node000002"><a xlink:title=" ">
<path fill="none" stroke="#63b8ff" d="M114.67,-56.03C134.7,-60.78 159.12,-66.57 180.37,-71.61"/>
<polygon fill="#63b8ff" stroke="#63b8ff" points="179.65,-75.04 190.19,-73.94 181.27,-68.23 179.65,-75.04"/>
</a>
</g>
</g>
<!-- Node3 -->
<g id="Node000003" class="node">
<title>Node3</title>
<g id="a_Node000003"><a xlink:href="classLogger.html#a3d3f0801eeaf39b33a906ea8569c19b2" target="_top" xlink:title="Writes a log entry with timestamp, level, and message.">
<polygon fill="white" stroke="#666666" points="267,-56 196,-56 196,-37 267,-37 267,-56"/>
<text text-anchor="middle" x="231.5" y="-44" font-family="Helvetica,sans-Serif" font-size="10.00">Logger::log</text>
</a>
</g>
</g>
<!-- Node1&#45;&gt;Node3 -->
<g id="edge2_Node000001_Node000003" class="edge">
<title>Node1&#45;&gt;Node3</title>
<g id="a_edge2_Node000001_Node000003"><a xlink:title=" ">
<path fill="none" stroke="#63b8ff" d="M147.02,-46.5C160.19,-46.5 173.57,-46.5 185.64,-46.5"/>
<polygon fill="#63b8ff" stroke="#63b8ff" points="185.88,-50 195.88,-46.5 185.88,-43 185.88,-50"/>
</a>
</g>
</g>
<!-- Node5 -->
<g id="Node000005" class="node">
<title>Node5</title>
<g id="a_Node000005"><a xlink:href="string__utils_8hpp.html#ad735976365693b45c427000fe042e173" target="_top" xlink:title="Converts any printable type to a string representation.">
<polygon fill="white" stroke="#666666" points="259,-19 204,-19 204,0 259,0 259,-19"/>
<text text-anchor="middle" x="231.5" y="-7" font-family="Helvetica,sans-Serif" font-size="10.00">toString</text>
</a>
</g>
</g>
<!-- Node1&#45;&gt;Node5 -->
<g id="edge4_Node000001_Node000005" class="edge">
<title>Node1&#45;&gt;Node5</title>
<g id="a_edge4_Node000001_Node000005"><a xlink:title=" ">
<path fill="none" stroke="#63b8ff" d="M114.67,-36.97C139.05,-31.19 169.93,-23.86 193.68,-18.23"/>
<polygon fill="#63b8ff" stroke="#63b8ff" points="194.79,-21.57 203.71,-15.85 193.17,-14.76 194.79,-21.57"/>
</a>
</g>
</g>
<!-- Node4 -->
<g id="Node000004" class="node">
<title>Node4</title>
<g id="a_Node000004"><a xlink:href="classLogger.html#a19f9ef22095a67c9fe420c9d6e761fc2" target="_top" xlink:title="Converts a LogLevel enum value to its string label.">
<polygon fill="white" stroke="#666666" points="435,-56 316,-56 316,-37 435,-37 435,-56"/>
<text text-anchor="middle" x="375.5" y="-44" font-family="Helvetica,sans-Serif" font-size="10.00">Logger::levelToString</text>
</a>
</g>
</g>
<!-- Node3&#45;&gt;Node4 -->
<g id="edge3_Node000003_Node000004" class="edge">
<title>Node3&#45;&gt;Node4</title>
<g id="a_edge3_Node000003_Node000004"><a xlink:title=" ">
<path fill="none" stroke="#63b8ff" d="M267.24,-46.5C278.88,-46.5 292.31,-46.5 305.63,-46.5"/>
<polygon fill="#63b8ff" stroke="#63b8ff" points="305.77,-50 315.77,-46.5 305.77,-43 305.77,-50"/>
</a>
</g>
</g>
</g>
</svg>
