<?xml version="1.0" encoding="UTF-8" standalone="no"?>
<!DOCTYPE svg PUBLIC "-//W3C//DTD SVG 1.1//EN"
 "http://www.w3.org/Graphics/SVG/1.1/DTD/svg11.dtd">
<!-- Generated by graphviz version 2.43.0 (0)
 -->
<!-- Title: Router::isUpload Pages: 1 -->
<svg width="701pt" height="417pt"
 viewBox="0.00 0.00 701.00 416.50" xmlns="http://www.w3.org/2000/svg" xmlns:xlink="http://www.w3.org/1999/xlink">
<g id="graph0" class="graph" transform="scale(1 1) rotate(0) translate(4 412.5)">
<title>Router::isUpload</title>
<!-- Node1 -->
<g id="Node000001" class="node">
<title>Node1</title>
<g id="a_Node000001"><a xlink:title="Determines if the current request is a valid upload operation.">
<polygon fill="#999999" stroke="#666666" points="98,-209.5 0,-209.5 0,-190.5 98,-190.5 98,-209.5"/>
<text text-anchor="middle" x="49" y="-197.5" font-family="Helvetica,sans-Serif" font-size="10.00">Router::isUpload</text>
</a>
</g>
</g>
<!-- Node2 -->
<g id="Node000002" class="node">
<title>Node2</title>
<g id="a_Node000002"><a xlink:href="classHttpRequest.html#a5e8c184f323f39e36f2bb681554bc171" target="_top" xlink:title="Returns the current HTTP method.">
<polygon fill="white" stroke="#666666" points="285,-408.5 149,-408.5 149,-389.5 285,-389.5 285,-408.5"/>
<text text-anchor="middle" x="217" y="-396.5" font-family="Helvetica,sans-Serif" font-size="10.00">HttpRequest::getMethod</text>
</a>
</g>
</g>
<!-- Node1&#45;&gt;Node2 -->
<g id="edge1_Node000001_Node000002" class="edge">
<title>Node1&#45;&gt;Node2</title>
<g id="a_edge1_Node000001_Node000002"><a xlink:title=" ">
<path fill="none" stroke="#63b8ff" d="M51.76,-209.63C57.67,-239.09 79.54,-328.76 134,-375 138.9,-379.16 144.48,-382.6 150.39,-385.44"/>
<polygon fill="#63b8ff" stroke="#63b8ff" points="149.3,-388.78 159.87,-389.43 152.02,-382.33 149.3,-388.78"/>
</a>
</g>
</g>
<!-- Node3 -->
<g id="Node000003" class="node">
<title>Node3</title>
<g id="a_Node000003"><a xlink:href="classLocationConfig.html#a06c65ab0130599edbd485a2db4e50b82" target="_top" xlink:title=" ">
<polygon fill="white" stroke="#666666" points="489,-271.5 358,-271.5 358,-252.5 489,-252.5 489,-271.5"/>
<text text-anchor="middle" x="423.5" y="-259.5" font-family="Helvetica,sans-Serif" font-size="10.00">LocationConfig::getPath</text>
</a>
</g>
</g>
<!-- Node1&#45;&gt;Node3 -->
<g id="edge2_Node000001_Node000003" class="edge">
<title>Node1&#45;&gt;Node3</title>
<g id="a_edge2_Node000001_Node000003"><a xlink:title=" ">
<path fill="none" stroke="#63b8ff" d="M52.2,-209.6C58.92,-236.46 82,-312.34 134,-342 198.09,-378.55 229.29,-363.04 300,-342 341.66,-329.6 382.37,-298.03 404.78,-278.46"/>
<polygon fill="#63b8ff" stroke="#63b8ff" points="407.31,-280.89 412.43,-271.61 402.64,-275.67 407.31,-280.89"/>
</a>
</g>
</g>
<!-- Node4 -->
<g id="Node000004" class="node">
<title>Node4</title>
<g id="a_Node000004"><a xlink:href="classServerConfig.html#a1d6c7f794b3c144162edd0f6a29df94a" target="_top" xlink:title=" ">
<polygon fill="white" stroke="#666666" points="278.5,-332.5 155.5,-332.5 155.5,-313.5 278.5,-313.5 278.5,-332.5"/>
<text text-anchor="middle" x="217" y="-320.5" font-family="Helvetica,sans-Serif" font-size="10.00">ServerConfig::getRoot</text>
</a>
</g>
</g>
<!-- Node1&#45;&gt;Node4 -->
<g id="edge3_Node000001_Node000004" class="edge">
<title>Node1&#45;&gt;Node4</title>
<g id="a_edge3_Node000001_Node000004"><a xlink:title=" ">
<path fill="none" stroke="#63b8ff" d="M54.82,-209.53C65.81,-230.24 94.86,-279.48 134,-304 137.79,-306.38 141.86,-308.46 146.07,-310.28"/>
<polygon fill="#63b8ff" stroke="#63b8ff" points="144.88,-313.57 155.47,-313.86 147.37,-307.03 144.88,-313.57"/>
</a>
</g>
</g>
<!-- Node5 -->
<g id="Node000005" class="node">
<title>Node5</title>
<g id="a_Node000005"><a xlink:href="classLocationConfig.html#a8f1bbc69016138d6488c674b15d62531" target="_top" xlink:title=" ">
<polygon fill="white" stroke="#666666" points="289.5,-295 144.5,-295 144.5,-265 289.5,-265 289.5,-295"/>
<text text-anchor="start" x="152.5" y="-283" font-family="Helvetica,sans-Serif" font-size="10.00">LocationConfig::getUpload</text>
<text text-anchor="middle" x="217" y="-272" font-family="Helvetica,sans-Serif" font-size="10.00">Enabled</text>
</a>
</g>
</g>
<!-- Node1&#45;&gt;Node5 -->
<g id="edge4_Node000001_Node000005" class="edge">
<title>Node1&#45;&gt;Node5</title>
<g id="a_edge4_Node000001_Node000005"><a xlink:title=" ">
<path fill="none" stroke="#63b8ff" d="M61.83,-209.59C77.49,-221.87 106.36,-243.11 134,-256 138.12,-257.92 142.43,-259.73 146.82,-261.42"/>
<polygon fill="#63b8ff" stroke="#63b8ff" points="145.94,-264.82 156.53,-264.93 148.32,-258.23 145.94,-264.82"/>
</a>
</g>
</g>
<!-- Node6 -->
<g id="Node000006" class="node">
<title>Node6</title>
<g id="a_Node000006"><a xlink:href="classLocationConfig.html#a58552fba744893cb3510234fbb71ae66" target="_top" xlink:title=" ">
<polygon fill="white" stroke="#666666" points="300,-246.5 134,-246.5 134,-227.5 300,-227.5 300,-246.5"/>
<text text-anchor="middle" x="217" y="-234.5" font-family="Helvetica,sans-Serif" font-size="10.00">LocationConfig::getUploadPath</text>
</a>
</g>
</g>
<!-- Node1&#45;&gt;Node6 -->
<g id="edge5_Node000001_Node000006" class="edge">
<title>Node1&#45;&gt;Node6</title>
<g id="a_edge5_Node000001_Node000006"><a xlink:title=" ">
<path fill="none" stroke="#63b8ff" d="M91.86,-209.52C105.31,-212.57 120.28,-215.94 134,-219 143.09,-221.03 152.75,-223.16 162.13,-225.23"/>
<polygon fill="#63b8ff" stroke="#63b8ff" points="161.64,-228.7 172.16,-227.43 163.14,-221.86 161.64,-228.7"/>
</a>
</g>
</g>
<!-- Node7 -->
<g id="Node000007" class="node">
<title>Node7</title>
<g id="a_Node000007"><a xlink:href="classHttpRequest.html#a658d90f4dd4080c30c99c463c082abc8" target="_top" xlink:title=" ">
<polygon fill="white" stroke="#666666" points="273.5,-209.5 160.5,-209.5 160.5,-190.5 273.5,-190.5 273.5,-209.5"/>
<text text-anchor="middle" x="217" y="-197.5" font-family="Helvetica,sans-Serif" font-size="10.00">HttpRequest::getUri</text>
</a>
</g>
</g>
<!-- Node1&#45;&gt;Node7 -->
<g id="edge6_Node000001_Node000007" class="edge">
<title>Node1&#45;&gt;Node7</title>
<g id="a_edge6_Node000001_Node000007"><a xlink:title=" ">
<path fill="none" stroke="#63b8ff" d="M98.01,-200C114.34,-200 132.88,-200 150.35,-200"/>
<polygon fill="#63b8ff" stroke="#63b8ff" points="150.49,-203.5 160.49,-200 150.49,-196.5 150.49,-203.5"/>
</a>
</g>
</g>
<!-- Node8 -->
<g id="Node000008" class="node">
<title>Node8</title>
<g id="a_Node000008"><a xlink:href="classLogger.html#a4aa4d7c3b98f6e12e7ea8253da5ea0cd" target="_top" xlink:title="Returns the singleton instance of the Logger.">
<polygon fill="white" stroke="#666666" points="265.5,-172.5 168.5,-172.5 168.5,-153.5 265.5,-153.5 265.5,-172.5"/>
<text text-anchor="middle" x="217" y="-160.5" font-family="Helvetica,sans-Serif" font-size="10.00">Logger::instance</text>
</a>
</g>
</g>
<!-- Node1&#45;&gt;Node8 -->
<g id="edge7_Node000001_Node000008" class="edge">
<title>Node1&#45;&gt;Node8</title>
<g id="a_edge7_Node000001_Node000008"><a xlink:title=" ">
<path fill="none" stroke="#63b8ff" d="M92.75,-190.47C114.26,-185.68 140.52,-179.82 163.27,-174.75"/>
<polygon fill="#63b8ff" stroke="#63b8ff" points="164.11,-178.15 173.11,-172.56 162.59,-171.32 164.11,-178.15"/>
</a>
</g>
</g>
<!-- Node9 -->
<g id="Node000009" class="node">
<title>Node9</title>
<g id="a_Node000009"><a xlink:href="classLogger.html#a3d3f0801eeaf39b33a906ea8569c19b2" target="_top" xlink:title="Writes a log entry with timestamp, level, and message.">
<polygon fill="white" stroke="#666666" points="252.5,-98.5 181.5,-98.5 181.5,-79.5 252.5,-79.5 252.5,-98.5"/>
<text text-anchor="middle" x="217" y="-86.5" font-family="Helvetica,sans-Serif" font-size="10.00">Logger::log</text>
</a>
</g>
</g>
<!-- Node1&#45;&gt;Node9 -->
<g id="edge8_Node000001_Node000009" class="edge">
<title>Node1&#45;&gt;Node9</title>
<g id="a_edge8_Node000001_Node000009"><a xlink:title=" ">
<path fill="none" stroke="#63b8ff" d="M55.83,-190.45C67.91,-171.53 97.6,-129.29 134,-108 145.25,-101.42 158.61,-97.12 171.24,-94.31"/>
<polygon fill="#63b8ff" stroke="#63b8ff" points="172.03,-97.72 181.17,-92.36 170.68,-90.85 172.03,-97.72"/>
</a>
</g>
</g>
<!-- Node11 -->
<g id="Node000011" class="node">
<title>Node11</title>
<g id="a_Node000011"><a xlink:href="classServerConfig.html#a708ec8a352980380e36dc6090322ea41" target="_top" xlink:title="Finds the LocationConfig that best matches a given URI.">
<polygon fill="white" stroke="#666666" points="295.5,-135.5 138.5,-135.5 138.5,-116.5 295.5,-116.5 295.5,-135.5"/>
<text text-anchor="middle" x="217" y="-123.5" font-family="Helvetica,sans-Serif" font-size="10.00">ServerConfig::matchLocation</text>
</a>
</g>
</g>
<!-- Node1&#45;&gt;Node11 -->
<g id="edge10_Node000001_Node000011" class="edge">
<title>Node1&#45;&gt;Node11</title>
<g id="a_edge10_Node000001_Node000011"><a xlink:title=" ">
<path fill="none" stroke="#63b8ff" d="M61.75,-190.35C77.33,-178.04 106.11,-156.91 134,-145 139.82,-142.51 146.02,-140.32 152.3,-138.4"/>
<polygon fill="#63b8ff" stroke="#63b8ff" points="153.53,-141.69 162.2,-135.6 151.62,-134.96 153.53,-141.69"/>
</a>
</g>
</g>
<!-- Node13 -->
<g id="Node000013" class="node">
<title>Node13</title>
<g id="a_Node000013"><a xlink:href="classHttpRequest.html#a4b150de7245da2eebd2412d1c88dce99" target="_top" xlink:title=" ">
<polygon fill="white" stroke="#666666" points="291.5,-61.5 142.5,-61.5 142.5,-42.5 291.5,-42.5 291.5,-61.5"/>
<text text-anchor="middle" x="217" y="-49.5" font-family="Helvetica,sans-Serif" font-size="10.00">HttpRequest::setRouteType</text>
</a>
</g>
</g>
<!-- Node1&#45;&gt;Node13 -->
<g id="edge13_Node000001_Node000013" class="edge">
<title>Node1&#45;&gt;Node13</title>
<g id="a_edge13_Node000001_Node000013"><a xlink:title=" ">
<path fill="none" stroke="#63b8ff" d="M53.33,-190.42C62.25,-166.24 89.11,-102.41 134,-71 136.75,-69.07 139.67,-67.34 142.71,-65.78"/>
<polygon fill="#63b8ff" stroke="#63b8ff" points="144.39,-68.86 152.11,-61.6 141.55,-62.46 144.39,-68.86"/>
</a>
</g>
</g>
<!-- Node14 -->
<g id="Node000014" class="node">
<title>Node14</title>
<g id="a_Node000014"><a xlink:href="classHttpResponse.html#af02b3b82a638bfbf23226b9f3bf06843" target="_top" xlink:title="Sets the HTTP status code and updates the corresponding reason phrase.">
<polygon fill="white" stroke="#666666" points="297.5,-24.5 136.5,-24.5 136.5,-5.5 297.5,-5.5 297.5,-24.5"/>
<text text-anchor="middle" x="217" y="-12.5" font-family="Helvetica,sans-Serif" font-size="10.00">HttpResponse::setStatusCode</text>
</a>
</g>
</g>
<!-- Node1&#45;&gt;Node14 -->
<g id="edge14_Node000001_Node000014" class="edge">
<title>Node1&#45;&gt;Node14</title>
<g id="a_edge14_Node000001_Node000014"><a xlink:title=" ">
<path fill="none" stroke="#63b8ff" d="M51.86,-190.23C57.92,-161.22 79.92,-75.01 134,-33 135.64,-31.73 137.35,-30.54 139.12,-29.43"/>
<polygon fill="#63b8ff" stroke="#63b8ff" points="141.19,-32.3 148.4,-24.54 137.92,-26.11 141.19,-32.3"/>
</a>
</g>
</g>
<!-- Node10 -->
<g id="Node000010" class="node">
<title>Node10</title>
<g id="a_Node000010"><a xlink:href="classLogger.html#a19f9ef22095a67c9fe420c9d6e761fc2" target="_top" xlink:title="Converts a LogLevel enum value to its string label.">
<polygon fill="white" stroke="#666666" points="483,-98.5 364,-98.5 364,-79.5 483,-79.5 483,-98.5"/>
<text text-anchor="middle" x="423.5" y="-86.5" font-family="Helvetica,sans-Serif" font-size="10.00">Logger::levelToString</text>
</a>
</g>
</g>
<!-- Node9&#45;&gt;Node10 -->
<g id="edge9_Node000009_Node000010" class="edge">
<title>Node9&#45;&gt;Node10</title>
<g id="a_edge9_Node000009_Node000010"><a xlink:title=" ">
<path fill="none" stroke="#63b8ff" d="M252.69,-89C280.26,-89 319.7,-89 353.63,-89"/>
<polygon fill="#63b8ff" stroke="#63b8ff" points="353.96,-92.5 363.96,-89 353.96,-85.5 353.96,-92.5"/>
</a>
</g>
</g>
<!-- Node11&#45;&gt;Node3 -->
<g id="edge11_Node000011_Node000003" class="edge">
<title>Node11&#45;&gt;Node3</title>
<g id="a_edge11_Node000011_Node000003"><a xlink:title=" ">
<path fill="none" stroke="#63b8ff" d="M276.76,-135.55C284.82,-138.02 292.8,-141.11 300,-145 346.76,-170.25 388.54,-218.14 409.08,-244.14"/>
<polygon fill="#63b8ff" stroke="#63b8ff" points="406.54,-246.58 415.43,-252.35 412.07,-242.3 406.54,-246.58"/>
</a>
</g>
</g>
<!-- Node12 -->
<g id="Node000012" class="node">
<title>Node12</title>
<g id="a_Node000012"><a xlink:href="string__utils_8hpp.html#a54a8d2d3492cbc9eecedf25fda818a4d" target="_top" xlink:title="Checks whether a string starts with a given prefix.">
<polygon fill="white" stroke="#666666" points="457,-135.5 390,-135.5 390,-116.5 457,-116.5 457,-135.5"/>
<text text-anchor="middle" x="423.5" y="-123.5" font-family="Helvetica,sans-Serif" font-size="10.00">startsWith</text>
</a>
</g>
</g>
<!-- Node11&#45;&gt;Node12 -->
<g id="edge12_Node000011_Node000012" class="edge">
<title>Node11&#45;&gt;Node12</title>
<g id="a_edge12_Node000011_Node000012"><a xlink:title=" ">
<path fill="none" stroke="#63b8ff" d="M295.6,-126C324.05,-126 355.2,-126 379.52,-126"/>
<polygon fill="#63b8ff" stroke="#63b8ff" points="379.84,-129.5 389.84,-126 379.84,-122.5 379.84,-129.5"/>
</a>
</g>
</g>
<!-- Node15 -->
<g id="Node000015" class="node">
<title>Node15</title>
<g id="a_Node000015"><a xlink:href="classHttpResponse.html#a98bb39b2757912eae4f667db80e3e6a4" target="_top" xlink:title="Sets the textual reason phrase for a given status code.">
<polygon fill="white" stroke="#666666" points="511,-24.5 336,-24.5 336,-5.5 511,-5.5 511,-24.5"/>
<text text-anchor="middle" x="423.5" y="-12.5" font-family="Helvetica,sans-Serif" font-size="10.00">HttpResponse::setReasonPhrase</text>
</a>
</g>
</g>
<!-- Node14&#45;&gt;Node15 -->
<g id="edge15_Node000014_Node000015" class="edge">
<title>Node14&#45;&gt;Node15</title>
<g id="a_edge15_Node000014_Node000015"><a xlink:title=" ">
<path fill="none" stroke="#63b8ff" d="M297.65,-15C306.87,-15 316.36,-15 325.78,-15"/>
<polygon fill="#63b8ff" stroke="#63b8ff" points="325.96,-18.5 335.96,-15 325.96,-11.5 325.96,-18.5"/>
</a>
</g>
</g>
<!-- Node16 -->
<g id="Node000016" class="node">
<title>Node16</title>
<g id="a_Node000016"><a xlink:href="classHttpResponse.html#ae09f25f31d917b068fae8bbf07b29c19" target="_top" xlink:title="Converts an HTTP status code to its standard reason phrase string.">
<polygon fill="white" stroke="#666666" points="693,-30 547,-30 547,0 693,0 693,-30"/>
<text text-anchor="start" x="555" y="-18" font-family="Helvetica,sans-Serif" font-size="10.00">HttpResponse::statusCode</text>
<text text-anchor="middle" x="620" y="-7" font-family="Helvetica,sans-Serif" font-size="10.00">ToString</text>
</a>
</g>
</g>
<!-- Node15&#45;&gt;Node16 -->
<g id="edge16_Node000015_Node000016" class="edge">
<title>Node15&#45;&gt;Node16</title>
<g id="a_edge16_Node000015_Node000016"><a xlink:title=" ">
<path fill="none" stroke="#63b8ff" d="M511.23,-15C519.72,-15 528.33,-15 536.78,-15"/>
<polygon fill="#63b8ff" stroke="#63b8ff" points="537,-18.5 547,-15 537,-11.5 537,-18.5"/>
</a>
</g>
</g>
</g>
</svg>
