<?xml version="1.0" encoding="UTF-8" standalone="no"?>
<!DOCTYPE svg PUBLIC "-//W3C//DTD SVG 1.1//EN"
 "http://www.w3.org/Graphics/SVG/1.1/DTD/svg11.dtd">
<!-- Generated by graphviz version 2.43.0 (0)
 -->
<!-- Title: ResponseBuilder::setMinimumHeaders Pages: 1 -->
<svg width="387pt" height="64pt"
 viewBox="0.00 0.00 387.00 64.00" xmlns="http://www.w3.org/2000/svg" xmlns:xlink="http://www.w3.org/1999/xlink">
<g id="graph0" class="graph" transform="scale(1 1) rotate(0) translate(4 60)">
<title>ResponseBuilder::setMinimumHeaders</title>
<!-- Node1 -->
<g id="Node000001" class="node">
<title>Node1</title>
<g id="a_Node000001"><a xlink:title="Adds mandatory HTTP headers to the response.">
<polygon fill="#999999" stroke="#666666" points="166,-42.5 0,-42.5 0,-12.5 166,-12.5 166,-42.5"/>
<text text-anchor="start" x="8" y="-30.5" font-family="Helvetica,sans-Serif" font-size="10.00">ResponseBuilder::setMinimum</text>
<text text-anchor="middle" x="83" y="-19.5" font-family="Helvetica,sans-Serif" font-size="10.00">Headers</text>
</a>
</g>
</g>
<!-- Node2 -->
<g id="Node000002" class="node">
<title>Node2</title>
<g id="a_Node000002"><a xlink:href="classHttpResponse.html#abb032c16ad3961d50a6582c50c330581" target="_top" xlink:title="Adds a header field to the HTTP response.">
<polygon fill="white" stroke="#666666" points="362.5,-56 218.5,-56 218.5,-37 362.5,-37 362.5,-56"/>
<text text-anchor="middle" x="290.5" y="-44" font-family="Helvetica,sans-Serif" font-size="10.00">HttpResponse::addHeader</text>
</a>
</g>
</g>
<!-- Node1&#45;&gt;Node2 -->
<g id="edge1_Node000001_Node000002" class="edge">
<title>Node1&#45;&gt;Node2</title>
<g id="a_edge1_Node000001_Node000002"><a xlink:title=" ">
<path fill="none" stroke="#63b8ff" d="M166.1,-35.09C180.05,-36.38 194.52,-37.72 208.44,-39.01"/>
<polygon fill="#63b8ff" stroke="#63b8ff" points="208.18,-42.5 218.46,-39.93 208.82,-35.53 208.18,-42.5"/>
</a>
</g>
</g>
<!-- Node3 -->
<g id="Node000003" class="node">
<title>Node3</title>
<g id="a_Node000003"><a xlink:href="classResponseBuilder.html#ae58c2cc5b2bc78a9a2feed205780871c" target="_top" xlink:title="Generates a timestamp string in RFC 1123 format for HTTP headers.">
<polygon fill="white" stroke="#666666" points="379,-19 202,-19 202,0 379,0 379,-19"/>
<text text-anchor="middle" x="290.5" y="-7" font-family="Helvetica,sans-Serif" font-size="10.00">ResponseBuilder::fmtTimestamp</text>
</a>
</g>
</g>
<!-- Node1&#45;&gt;Node3 -->
<g id="edge2_Node000001_Node000003" class="edge">
<title>Node1&#45;&gt;Node3</title>
<g id="a_edge2_Node000001_Node000003"><a xlink:title=" ">
<path fill="none" stroke="#63b8ff" d="M166.1,-20.31C174.54,-19.57 183.17,-18.81 191.76,-18.06"/>
<polygon fill="#63b8ff" stroke="#63b8ff" points="192.14,-21.54 201.8,-17.18 191.53,-14.57 192.14,-21.54"/>
</a>
</g>
</g>
</g>
</svg>
