<?xml version="1.0" encoding="UTF-8" standalone="no"?>
<!DOCTYPE svg PUBLIC "-//W3C//DTD SVG 1.1//EN"
 "http://www.w3.org/Graphics/SVG/1.1/DTD/svg11.dtd">
<!-- Generated by graphviz version 2.43.0 (0)
 -->
<!-- Title: Signals::unregisterCgiProcess Pages: 1 -->
<svg width="616pt" height="101pt"
 viewBox="0.00 0.00 616.00 101.00" xmlns="http://www.w3.org/2000/svg" xmlns:xlink="http://www.w3.org/1999/xlink">
<g id="graph0" class="graph" transform="scale(1 1) rotate(0) translate(4 97)">
<title>Signals::unregisterCgiProcess</title>
<!-- Node1 -->
<g id="Node000001" class="node">
<title>Node1</title>
<g id="a_Node000001"><a xlink:title="Unregisters a finished CGI process.">
<polygon fill="#999999" stroke="#666666" points="608,-56 447,-56 447,-37 608,-37 608,-56"/>
<text text-anchor="middle" x="527.5" y="-44" font-family="Helvetica,sans-Serif" font-size="10.00">Signals::unregisterCgiProcess</text>
</a>
</g>
</g>
<!-- Node2 -->
<g id="Node000002" class="node">
<title>Node2</title>
<g id="a_Node000002"><a xlink:href="classSignals.html#a794783efe829c5700ffeef1f04a524c8" target="_top" xlink:title="Handles SIGCHLD signals to clean up terminated child processes.">
<polygon fill="white" stroke="#666666" points="399,-93 253,-93 253,-74 399,-74 399,-93"/>
<text text-anchor="middle" x="326" y="-81" font-family="Helvetica,sans-Serif" font-size="10.00">Signals::childSignalHandle</text>
</a>
</g>
</g>
<!-- Node1&#45;&gt;Node2 -->
<g id="edge1_Node000001_Node000002" class="edge">
<title>Node1&#45;&gt;Node2</title>
<g id="a_edge1_Node000001_Node000002"><a xlink:title=" ">
<path fill="none" stroke="#63b8ff" d="M465.14,-57.88C437.4,-63.02 405,-69.03 378.55,-73.94"/>
<polygon fill="#63b8ff" stroke="#63b8ff" points="465.93,-61.29 475.12,-56.03 464.65,-54.41 465.93,-61.29"/>
</a>
</g>
</g>
<!-- Node4 -->
<g id="Node000004" class="node">
<title>Node4</title>
<g id="a_Node000004"><a xlink:href="classWebServer.html#a7667bc8a87db8f9987a5e80da9c4cd37" target="_top" xlink:title="Reads CGI process output and assembles it into the client buffer.">
<polygon fill="white" stroke="#666666" points="411,-56 241,-56 241,-37 411,-37 411,-56"/>
<text text-anchor="middle" x="326" y="-44" font-family="Helvetica,sans-Serif" font-size="10.00">WebServer::handleCgiReadable</text>
</a>
</g>
</g>
<!-- Node1&#45;&gt;Node4 -->
<g id="edge3_Node000001_Node000004" class="edge">
<title>Node1&#45;&gt;Node4</title>
<g id="a_edge3_Node000001_Node000004"><a xlink:title=" ">
<path fill="none" stroke="#63b8ff" d="M436.55,-46.5C428.1,-46.5 419.55,-46.5 411.16,-46.5"/>
<polygon fill="#63b8ff" stroke="#63b8ff" points="436.79,-50 446.79,-46.5 436.79,-43 436.79,-50"/>
</a>
</g>
</g>
<!-- Node7 -->
<g id="Node000007" class="node">
<title>Node7</title>
<g id="a_Node000007"><a xlink:href="classWebServer.html#a32042bb7e426cf5c53c2c2860d622342" target="_top" xlink:title="Scans active CGI processes and terminates those exceeding timeout.">
<polygon fill="white" stroke="#666666" points="410,-19 242,-19 242,0 410,0 410,-19"/>
<text text-anchor="middle" x="326" y="-7" font-family="Helvetica,sans-Serif" font-size="10.00">WebServer::sweepCgiTimeouts</text>
</a>
</g>
</g>
<!-- Node1&#45;&gt;Node7 -->
<g id="edge6_Node000001_Node000007" class="edge">
<title>Node1&#45;&gt;Node7</title>
<g id="a_edge6_Node000001_Node000007"><a xlink:title=" ">
<path fill="none" stroke="#63b8ff" d="M465.14,-35.12C437.4,-29.98 405,-23.97 378.55,-19.06"/>
<polygon fill="#63b8ff" stroke="#63b8ff" points="464.65,-38.59 475.12,-36.97 465.93,-31.71 464.65,-38.59"/>
</a>
</g>
</g>
<!-- Node3 -->
<g id="Node000003" class="node">
<title>Node3</title>
<g id="a_Node000003"><a xlink:href="classSignals.html#a28da56be24b82dcb4dfd2472973b15f0" target="_top" xlink:title="Registers signal handlers for SIGINT, SIGTERM, and SIGCHLD.">
<polygon fill="white" stroke="#666666" points="205,-93 77,-93 77,-74 205,-74 205,-93"/>
<text text-anchor="middle" x="141" y="-81" font-family="Helvetica,sans-Serif" font-size="10.00">Signals::setupHandlers</text>
</a>
</g>
</g>
<!-- Node2&#45;&gt;Node3 -->
<g id="edge2_Node000002_Node000003" class="edge">
<title>Node2&#45;&gt;Node3</title>
<g id="a_edge2_Node000002_Node000003"><a xlink:title=" ">
<path fill="none" stroke="#63b8ff" d="M242.85,-83.5C230.18,-83.5 217.27,-83.5 205.1,-83.5"/>
<polygon fill="#63b8ff" stroke="#63b8ff" points="242.94,-87 252.94,-83.5 242.94,-80 242.94,-87"/>
</a>
</g>
</g>
<!-- Node5 -->
<g id="Node000005" class="node">
<title>Node5</title>
<g id="a_Node000005"><a xlink:href="classWebServer.html#af39709e3744077e019aa76555f03a42e" target="_top" xlink:title="Main event loop — monitors sockets, dispatches requests, and handles responses.">
<polygon fill="white" stroke="#666666" points="202,-38 80,-38 80,-19 202,-19 202,-38"/>
<text text-anchor="middle" x="141" y="-26" font-family="Helvetica,sans-Serif" font-size="10.00">WebServer::runServer</text>
</a>
</g>
</g>
<!-- Node4&#45;&gt;Node5 -->
<g id="edge4_Node000004_Node000005" class="edge">
<title>Node4&#45;&gt;Node5</title>
<g id="a_edge4_Node000004_Node000005"><a xlink:title=" ">
<path fill="none" stroke="#63b8ff" d="M230.8,-37.23C221.01,-36.27 211.27,-35.31 202.01,-34.4"/>
<polygon fill="#63b8ff" stroke="#63b8ff" points="230.7,-40.74 241,-38.24 231.39,-33.78 230.7,-40.74"/>
</a>
</g>
</g>
<!-- Node6 -->
<g id="Node000006" class="node">
<title>Node6</title>
<g id="a_Node000006"><a xlink:href="main_8cpp.html#a3c04138a5bfe5d72780bb7e82a18e627" target="_top" xlink:title="Entry point of the Webservinho web server.">
<polygon fill="white" stroke="#666666" points="41,-38 0,-38 0,-19 41,-19 41,-38"/>
<text text-anchor="middle" x="20.5" y="-26" font-family="Helvetica,sans-Serif" font-size="10.00">main</text>
</a>
</g>
</g>
<!-- Node5&#45;&gt;Node6 -->
<g id="edge5_Node000005_Node000006" class="edge">
<title>Node5&#45;&gt;Node6</title>
<g id="a_edge5_Node000005_Node000006"><a xlink:title=" ">
<path fill="none" stroke="#63b8ff" d="M69.63,-28.5C59.22,-28.5 49.29,-28.5 41.18,-28.5"/>
<polygon fill="#63b8ff" stroke="#63b8ff" points="69.71,-32 79.71,-28.5 69.71,-25 69.71,-32"/>
</a>
</g>
</g>
<!-- Node7&#45;&gt;Node5 -->
<g id="edge7_Node000007_Node000005" class="edge">
<title>Node7&#45;&gt;Node5</title>
<g id="a_edge7_Node000007_Node000005"><a xlink:title=" ">
<path fill="none" stroke="#63b8ff" d="M231.72,-19.19C221.63,-20.23 211.56,-21.28 202.02,-22.27"/>
<polygon fill="#63b8ff" stroke="#63b8ff" points="232.21,-22.65 241.8,-18.14 231.49,-15.69 232.21,-22.65"/>
</a>
</g>
</g>
</g>
</svg>
