<?xml version="1.0" encoding="UTF-8" standalone="no"?>
<!DOCTYPE svg PUBLIC "-//W3C//DTD SVG 1.1//EN"
 "http://www.w3.org/Graphics/SVG/1.1/DTD/svg11.dtd">
<!-- Generated by graphviz version 2.43.0 (0)
 -->
<!-- Title: HttpRequest::getBody Pages: 1 -->
<svg width="1122pt" height="140pt"
 viewBox="0.00 0.00 1122.00 140.00" xmlns="http://www.w3.org/2000/svg" xmlns:xlink="http://www.w3.org/1999/xlink">
<g id="graph0" class="graph" transform="scale(1 1) rotate(0) translate(4 136)">
<title>HttpRequest::getBody</title>
<!-- Node1 -->
<g id="Node000001" class="node">
<title>Node1</title>
<g id="a_Node000001"><a xlink:title="Returns the body of the request.">
<polygon fill="#999999" stroke="#666666" points="1114,-75 990,-75 990,-56 1114,-56 1114,-75"/>
<text text-anchor="middle" x="1052" y="-63" font-family="Helvetica,sans-Serif" font-size="10.00">HttpRequest::getBody</text>
</a>
</g>
</g>
<!-- Node2 -->
<g id="Node000002" class="node">
<title>Node2</title>
<g id="a_Node000002"><a xlink:href="classRequestParse.html#ab81826a3c30d9a2a4f9d0f8ee6fa855c" target="_top" xlink:title="Processes the message body for both fixed&#45;length and chunked modes.">
<polygon fill="white" stroke="#666666" points="946.5,-132 833.5,-132 833.5,-113 946.5,-113 946.5,-132"/>
<text text-anchor="middle" x="890" y="-120" font-family="Helvetica,sans-Serif" font-size="10.00">RequestParse::body</text>
</a>
</g>
</g>
<!-- Node1&#45;&gt;Node2 -->
<g id="edge1_Node000001_Node000002" class="edge">
<title>Node1&#45;&gt;Node2</title>
<g id="a_edge1_Node000001_Node000002"><a xlink:title=" ">
<path fill="none" stroke="#63b8ff" d="M1014.71,-78.43C985.27,-88.92 944.43,-103.46 917.87,-112.93"/>
<polygon fill="#63b8ff" stroke="#63b8ff" points="1015.97,-81.69 1024.22,-75.04 1013.62,-75.1 1015.97,-81.69"/>
</a>
</g>
</g>
<!-- Node3 -->
<g id="Node000003" class="node">
<title>Node3</title>
<g id="a_Node000003"><a xlink:href="classRequestParse.html#a5f2f35f5815fbb977cde05b19af41687" target="_top" xlink:title="Parses and processes raw HTTP request data incrementally.">
<polygon fill="white" stroke="#666666" points="790,-94 608,-94 608,-75 790,-75 790,-94"/>
<text text-anchor="middle" x="699" y="-82" font-family="Helvetica,sans-Serif" font-size="10.00">RequestParse::handleRawRequest</text>
</a>
</g>
</g>
<!-- Node1&#45;&gt;Node3 -->
<g id="edge10_Node000001_Node000003" class="edge">
<title>Node1&#45;&gt;Node3</title>
<g id="a_edge10_Node000001_Node000003"><a xlink:title=" ">
<path fill="none" stroke="#63b8ff" d="M979.55,-69.37C924.82,-72.33 848.95,-76.44 790.06,-79.62"/>
<polygon fill="#63b8ff" stroke="#63b8ff" points="980.06,-72.85 989.86,-68.81 979.69,-65.86 980.06,-72.85"/>
</a>
</g>
</g>
<!-- Node8 -->
<g id="Node000008" class="node">
<title>Node8</title>
<g id="a_Node000008"><a xlink:href="classUploadHandler.html#ae9d6fd83c1ba35b23829b8f4f619127d" target="_top" xlink:title="Entry point for handling file uploads.">
<polygon fill="white" stroke="#666666" points="954,-56 826,-56 826,-37 954,-37 954,-56"/>
<text text-anchor="middle" x="890" y="-44" font-family="Helvetica,sans-Serif" font-size="10.00">UploadHandler::handle</text>
</a>
</g>
</g>
<!-- Node1&#45;&gt;Node8 -->
<g id="edge7_Node000001_Node000008" class="edge">
<title>Node1&#45;&gt;Node8</title>
<g id="a_edge7_Node000001_Node000008"><a xlink:title=" ">
<path fill="none" stroke="#63b8ff" d="M979.4,-57C970.96,-56 962.4,-54.98 954.09,-53.99"/>
<polygon fill="#63b8ff" stroke="#63b8ff" points="979.25,-60.5 989.6,-58.21 980.08,-53.55 979.25,-60.5"/>
</a>
</g>
</g>
<!-- Node10 -->
<g id="Node000010" class="node">
<title>Node10</title>
<g id="a_Node000010"><a xlink:href="classCgiHandler.html#aa5b570b370a65926aaedd54b61350e58" target="_top" xlink:title="Starts an asynchronous CGI execution process.">
<polygon fill="white" stroke="#666666" points="954,-19 826,-19 826,0 954,0 954,-19"/>
<text text-anchor="middle" x="890" y="-7" font-family="Helvetica,sans-Serif" font-size="10.00">CgiHandler::startAsync</text>
</a>
</g>
</g>
<!-- Node1&#45;&gt;Node10 -->
<g id="edge11_Node000001_Node000010" class="edge">
<title>Node1&#45;&gt;Node10</title>
<g id="a_edge11_Node000001_Node000010"><a xlink:title=" ">
<path fill="none" stroke="#63b8ff" d="M1019.21,-52.16C1000.4,-44.5 976.03,-34.94 954,-27.5 945.16,-24.51 935.52,-21.59 926.5,-19"/>
<polygon fill="#63b8ff" stroke="#63b8ff" points="1017.91,-55.41 1028.49,-55.98 1020.57,-48.94 1017.91,-55.41"/>
</a>
</g>
</g>
<!-- Node2&#45;&gt;Node3 -->
<g id="edge2_Node000002_Node000003" class="edge">
<title>Node2&#45;&gt;Node3</title>
<g id="a_edge2_Node000002_Node000003"><a xlink:title=" ">
<path fill="none" stroke="#63b8ff" d="M831.26,-110.89C804.38,-105.49 772.8,-99.14 747.35,-94.02"/>
<polygon fill="#63b8ff" stroke="#63b8ff" points="830.81,-114.37 841.31,-112.91 832.19,-107.51 830.81,-114.37"/>
</a>
</g>
</g>
<!-- Node4 -->
<g id="Node000004" class="node">
<title>Node4</title>
<g id="a_Node000004"><a xlink:href="classClientConnection.html#a835586ce27b3c3598394bde3fff14211" target="_top" xlink:title="Receives incoming data from the client socket.">
<polygon fill="white" stroke="#666666" points="572,-94 422,-94 422,-75 572,-75 572,-94"/>
<text text-anchor="middle" x="497" y="-82" font-family="Helvetica,sans-Serif" font-size="10.00">ClientConnection::recvData</text>
</a>
</g>
</g>
<!-- Node3&#45;&gt;Node4 -->
<g id="edge3_Node000003_Node000004" class="edge">
<title>Node3&#45;&gt;Node4</title>
<g id="a_edge3_Node000003_Node000004"><a xlink:title=" ">
<path fill="none" stroke="#63b8ff" d="M597.86,-84.5C589.25,-84.5 580.64,-84.5 572.29,-84.5"/>
<polygon fill="#63b8ff" stroke="#63b8ff" points="597.95,-88 607.95,-84.5 597.95,-81 597.95,-88"/>
</a>
</g>
</g>
<!-- Node5 -->
<g id="Node000005" class="node">
<title>Node5</title>
<g id="a_Node000005"><a xlink:href="classWebServer.html#a8cbf37c0a840305ce15e8648566c9ce4" target="_top" xlink:title="Handles incoming data from a connected client.">
<polygon fill="white" stroke="#666666" points="386,-75 235,-75 235,-56 386,-56 386,-75"/>
<text text-anchor="middle" x="310.5" y="-63" font-family="Helvetica,sans-Serif" font-size="10.00">WebServer::receiveRequest</text>
</a>
</g>
</g>
<!-- Node4&#45;&gt;Node5 -->
<g id="edge4_Node000004_Node000005" class="edge">
<title>Node4&#45;&gt;Node5</title>
<g id="a_edge4_Node000004_Node000005"><a xlink:title=" ">
<path fill="none" stroke="#63b8ff" d="M411.79,-75.83C403.25,-74.95 394.62,-74.06 386.19,-73.19"/>
<polygon fill="#63b8ff" stroke="#63b8ff" points="411.45,-79.31 421.75,-76.85 412.17,-72.35 411.45,-79.31"/>
</a>
</g>
</g>
<!-- Node6 -->
<g id="Node000006" class="node">
<title>Node6</title>
<g id="a_Node000006"><a xlink:href="classWebServer.html#af39709e3744077e019aa76555f03a42e" target="_top" xlink:title="Main event loop — monitors sockets, dispatches requests, and handles responses.">
<polygon fill="white" stroke="#666666" points="199,-75 77,-75 77,-56 199,-56 199,-75"/>
<text text-anchor="middle" x="138" y="-63" font-family="Helvetica,sans-Serif" font-size="10.00">WebServer::runServer</text>
</a>
</g>
</g>
<!-- Node5&#45;&gt;Node6 -->
<g id="edge5_Node000005_Node000006" class="edge">
<title>Node5&#45;&gt;Node6</title>
<g id="a_edge5_Node000005_Node000006"><a xlink:title=" ">
<path fill="none" stroke="#63b8ff" d="M224.63,-65.5C216.02,-65.5 207.4,-65.5 199.13,-65.5"/>
<polygon fill="#63b8ff" stroke="#63b8ff" points="224.72,-69 234.72,-65.5 224.72,-62 224.72,-69"/>
</a>
</g>
</g>
<!-- Node7 -->
<g id="Node000007" class="node">
<title>Node7</title>
<g id="a_Node000007"><a xlink:href="main_8cpp.html#a3c04138a5bfe5d72780bb7e82a18e627" target="_top" xlink:title="Entry point of the Webservinho web server.">
<polygon fill="white" stroke="#666666" points="41,-75 0,-75 0,-56 41,-56 41,-75"/>
<text text-anchor="middle" x="20.5" y="-63" font-family="Helvetica,sans-Serif" font-size="10.00">main</text>
</a>
</g>
</g>
<!-- Node6&#45;&gt;Node7 -->
<g id="edge6_Node000006_Node000007" class="edge">
<title>Node6&#45;&gt;Node7</title>
<g id="a_edge6_Node000006_Node000007"><a xlink:title=" ">
<path fill="none" stroke="#63b8ff" d="M66.66,-65.5C57.35,-65.5 48.51,-65.5 41.15,-65.5"/>
<polygon fill="#63b8ff" stroke="#63b8ff" points="66.88,-69 76.88,-65.5 66.88,-62 66.88,-69"/>
</a>
</g>
</g>
<!-- Node9 -->
<g id="Node000009" class="node">
<title>Node9</title>
<g id="a_Node000009"><a xlink:href="classDispatcher.html#a13c8a2fd90033adf9788c8774c3f0f47" target="_top" xlink:title="Central dispatch routine that delegates HTTP requests to the appropriate handler.">
<polygon fill="white" stroke="#666666" points="757,-56 641,-56 641,-37 757,-37 757,-56"/>
<text text-anchor="middle" x="699" y="-44" font-family="Helvetica,sans-Serif" font-size="10.00">Dispatcher::dispatch</text>
</a>
</g>
</g>
<!-- Node8&#45;&gt;Node9 -->
<g id="edge8_Node000008_Node000009" class="edge">
<title>Node8&#45;&gt;Node9</title>
<g id="a_edge8_Node000008_Node000009"><a xlink:title=" ">
<path fill="none" stroke="#63b8ff" d="M815.76,-46.5C796.29,-46.5 775.56,-46.5 757.09,-46.5"/>
<polygon fill="#63b8ff" stroke="#63b8ff" points="815.8,-50 825.8,-46.5 815.8,-43 815.8,-50"/>
</a>
</g>
</g>
<!-- Node9&#45;&gt;Node5 -->
<g id="edge9_Node000009_Node000005" class="edge">
<title>Node9&#45;&gt;Node5</title>
<g id="a_edge9_Node000009_Node000005"><a xlink:title=" ">
<path fill="none" stroke="#63b8ff" d="M630.75,-49.81C562.42,-53.16 456.84,-58.36 386.01,-61.84"/>
<polygon fill="#63b8ff" stroke="#63b8ff" points="631.15,-53.29 640.97,-49.3 630.81,-46.3 631.15,-53.29"/>
</a>
</g>
</g>
<!-- Node10&#45;&gt;Node9 -->
<g id="edge12_Node000010_Node000009" class="edge">
<title>Node10&#45;&gt;Node9</title>
<g id="a_edge12_Node000010_Node000009"><a xlink:title=" ">
<path fill="none" stroke="#63b8ff" d="M830.17,-21.02C804.06,-26.13 773.67,-32.08 748.84,-36.94"/>
<polygon fill="#63b8ff" stroke="#63b8ff" points="831.19,-24.38 840.33,-19.03 829.84,-17.51 831.19,-24.38"/>
</a>
</g>
</g>
</g>
</svg>
