<?xml version="1.0" encoding="UTF-8" standalone="no"?>
<!DOCTYPE svg PUBLIC "-//W3C//DTD SVG 1.1//EN"
 "http://www.w3.org/Graphics/SVG/1.1/DTD/svg11.dtd">
<!-- Generated by graphviz version 2.43.0 (0)
 -->
<!-- Title: Router::isAutoIndex Pages: 1 -->
<svg width="489pt" height="335pt"
 viewBox="0.00 0.00 489.00 335.00" xmlns="http://www.w3.org/2000/svg" xmlns:xlink="http://www.w3.org/1999/xlink">
<g id="graph0" class="graph" transform="scale(1 1) rotate(0) translate(4 331)">
<title>Router::isAutoIndex</title>
<!-- Node1 -->
<g id="Node000001" class="node">
<title>Node1</title>
<g id="a_Node000001"><a xlink:title="Determines whether to enable AutoIndex for a directory listing.">
<polygon fill="#999999" stroke="#666666" points="113,-185 0,-185 0,-166 113,-166 113,-185"/>
<text text-anchor="middle" x="56.5" y="-173" font-family="Helvetica,sans-Serif" font-size="10.00">Router::isAutoIndex</text>
</a>
</g>
</g>
<!-- Node2 -->
<g id="Node000002" class="node">
<title>Node2</title>
<g id="a_Node000002"><a xlink:href="classLocationConfig.html#a73e266d92da9c483a9498d9cb270dd03" target="_top" xlink:title=" ">
<polygon fill="white" stroke="#666666" points="311.5,-327 151.5,-327 151.5,-308 311.5,-308 311.5,-327"/>
<text text-anchor="middle" x="231.5" y="-315" font-family="Helvetica,sans-Serif" font-size="10.00">LocationConfig::getAutoindex</text>
</a>
</g>
</g>
<!-- Node1&#45;&gt;Node2 -->
<g id="edge1_Node000001_Node000002" class="edge">
<title>Node1&#45;&gt;Node2</title>
<g id="a_edge1_Node000001_Node000002"><a xlink:title=" ">
<path fill="none" stroke="#63b8ff" d="M61.63,-185.09C72.3,-208.68 103.23,-269.76 149,-299.5 151.45,-301.09 154.02,-302.54 156.67,-303.87"/>
<polygon fill="#63b8ff" stroke="#63b8ff" points="155.41,-307.14 165.98,-307.9 158.19,-300.71 155.41,-307.14"/>
</a>
</g>
</g>
<!-- Node3 -->
<g id="Node000003" class="node">
<title>Node3</title>
<g id="a_Node000003"><a xlink:href="classServerConfig.html#a2c6ec9d7665f5bf6f5e319b2ac620aac" target="_top" xlink:title=" ">
<polygon fill="white" stroke="#666666" points="306.5,-290 156.5,-290 156.5,-271 306.5,-271 306.5,-290"/>
<text text-anchor="middle" x="231.5" y="-278" font-family="Helvetica,sans-Serif" font-size="10.00">ServerConfig::getAutoindex</text>
</a>
</g>
</g>
<!-- Node1&#45;&gt;Node3 -->
<g id="edge2_Node000001_Node000003" class="edge">
<title>Node1&#45;&gt;Node3</title>
<g id="a_edge2_Node000001_Node000003"><a xlink:title=" ">
<path fill="none" stroke="#63b8ff" d="M64.88,-185.23C79.08,-203.24 112.1,-241.74 149,-261.5 153.45,-263.88 158.19,-265.97 163.06,-267.79"/>
<polygon fill="#63b8ff" stroke="#63b8ff" points="161.96,-271.12 172.56,-270.99 164.2,-264.48 161.96,-271.12"/>
</a>
</g>
</g>
<!-- Node4 -->
<g id="Node000004" class="node">
<title>Node4</title>
<g id="a_Node000004"><a xlink:href="classLocationConfig.html#a4eeda49130a29cbb64e48b845976821e" target="_top" xlink:title=" ">
<polygon fill="white" stroke="#666666" points="307.5,-252.5 155.5,-252.5 155.5,-222.5 307.5,-222.5 307.5,-252.5"/>
<text text-anchor="start" x="163.5" y="-240.5" font-family="Helvetica,sans-Serif" font-size="10.00">LocationConfig::getHasAuto</text>
<text text-anchor="middle" x="231.5" y="-229.5" font-family="Helvetica,sans-Serif" font-size="10.00">Index</text>
</a>
</g>
</g>
<!-- Node1&#45;&gt;Node4 -->
<g id="edge3_Node000001_Node000004" class="edge">
<title>Node1&#45;&gt;Node4</title>
<g id="a_edge3_Node000001_Node000004"><a xlink:title=" ">
<path fill="none" stroke="#63b8ff" d="M78.69,-185.06C97.08,-193.17 124.51,-204.84 149,-213.5 154.61,-215.49 160.48,-217.44 166.38,-219.33"/>
<polygon fill="#63b8ff" stroke="#63b8ff" points="165.73,-222.79 176.32,-222.43 167.81,-216.11 165.73,-222.79"/>
</a>
</g>
</g>
<!-- Node5 -->
<g id="Node000005" class="node">
<title>Node5</title>
<g id="a_Node000005"><a xlink:href="classHttpRequest.html#a9cd740d746bcd7fa6e4fcb8c537879ad" target="_top" xlink:title="Returns the resolved filesystem path corresponding to the URI.">
<polygon fill="white" stroke="#666666" points="314,-204 149,-204 149,-185 314,-185 314,-204"/>
<text text-anchor="middle" x="231.5" y="-192" font-family="Helvetica,sans-Serif" font-size="10.00">HttpRequest::getResolvedPath</text>
</a>
</g>
</g>
<!-- Node1&#45;&gt;Node5 -->
<g id="edge4_Node000001_Node000005" class="edge">
<title>Node1&#45;&gt;Node5</title>
<g id="a_edge4_Node000001_Node000005"><a xlink:title=" ">
<path fill="none" stroke="#63b8ff" d="M113.19,-181.62C121.36,-182.51 129.94,-183.46 138.6,-184.41"/>
<polygon fill="#63b8ff" stroke="#63b8ff" points="138.45,-187.91 148.78,-185.52 139.22,-180.95 138.45,-187.91"/>
</a>
</g>
</g>
<!-- Node6 -->
<g id="Node000006" class="node">
<title>Node6</title>
<g id="a_Node000006"><a xlink:href="classHttpRequest.html#a658d90f4dd4080c30c99c463c082abc8" target="_top" xlink:title=" ">
<polygon fill="white" stroke="#666666" points="288,-167 175,-167 175,-148 288,-148 288,-167"/>
<text text-anchor="middle" x="231.5" y="-155" font-family="Helvetica,sans-Serif" font-size="10.00">HttpRequest::getUri</text>
</a>
</g>
</g>
<!-- Node1&#45;&gt;Node6 -->
<g id="edge5_Node000001_Node000006" class="edge">
<title>Node1&#45;&gt;Node6</title>
<g id="a_edge5_Node000001_Node000006"><a xlink:title=" ">
<path fill="none" stroke="#63b8ff" d="M113.19,-169.71C129.55,-168 147.6,-166.13 164.54,-164.36"/>
<polygon fill="#63b8ff" stroke="#63b8ff" points="165.33,-167.8 174.91,-163.28 164.61,-160.84 165.33,-167.8"/>
</a>
</g>
</g>
<!-- Node7 -->
<g id="Node000007" class="node">
<title>Node7</title>
<g id="a_Node000007"><a xlink:href="classLogger.html#a4aa4d7c3b98f6e12e7ea8253da5ea0cd" target="_top" xlink:title="Returns the singleton instance of the Logger.">
<polygon fill="white" stroke="#666666" points="280,-130 183,-130 183,-111 280,-111 280,-130"/>
<text text-anchor="middle" x="231.5" y="-118" font-family="Helvetica,sans-Serif" font-size="10.00">Logger::instance</text>
</a>
</g>
</g>
<!-- Node1&#45;&gt;Node7 -->
<g id="edge6_Node000001_Node000007" class="edge">
<title>Node1&#45;&gt;Node7</title>
<g id="a_edge6_Node000001_Node000007"><a xlink:title=" ">
<path fill="none" stroke="#63b8ff" d="M79.36,-165.85C97.7,-158.02 124.72,-147.06 149,-139.5 157.08,-136.98 165.69,-134.63 174.19,-132.49"/>
<polygon fill="#63b8ff" stroke="#63b8ff" points="175.18,-135.86 184.07,-130.09 173.52,-129.06 175.18,-135.86"/>
</a>
</g>
</g>
<!-- Node8 -->
<g id="Node000008" class="node">
<title>Node8</title>
<g id="a_Node000008"><a xlink:href="classLogger.html#a3d3f0801eeaf39b33a906ea8569c19b2" target="_top" xlink:title="Writes a log entry with timestamp, level, and message.">
<polygon fill="white" stroke="#666666" points="267,-93 196,-93 196,-74 267,-74 267,-93"/>
<text text-anchor="middle" x="231.5" y="-81" font-family="Helvetica,sans-Serif" font-size="10.00">Logger::log</text>
</a>
</g>
</g>
<!-- Node1&#45;&gt;Node8 -->
<g id="edge7_Node000001_Node000008" class="edge">
<title>Node1&#45;&gt;Node8</title>
<g id="a_edge7_Node000001_Node000008"><a xlink:title=" ">
<path fill="none" stroke="#63b8ff" d="M66.65,-165.81C82.1,-150.05 114.98,-118.98 149,-102.5 160.34,-97.01 173.35,-93.05 185.59,-90.23"/>
<polygon fill="#63b8ff" stroke="#63b8ff" points="186.58,-93.6 195.65,-88.11 185.14,-86.75 186.58,-93.6"/>
</a>
</g>
</g>
<!-- Node10 -->
<g id="Node000010" class="node">
<title>Node10</title>
<g id="a_Node000010"><a xlink:href="classServerConfig.html#a708ec8a352980380e36dc6090322ea41" target="_top" xlink:title="Finds the LocationConfig that best matches a given URI.">
<polygon fill="white" stroke="#666666" points="310,-56 153,-56 153,-37 310,-37 310,-56"/>
<text text-anchor="middle" x="231.5" y="-44" font-family="Helvetica,sans-Serif" font-size="10.00">ServerConfig::matchLocation</text>
</a>
</g>
</g>
<!-- Node1&#45;&gt;Node10 -->
<g id="edge9_Node000001_Node000010" class="edge">
<title>Node1&#45;&gt;Node10</title>
<g id="a_edge9_Node000001_Node000010"><a xlink:title=" ">
<path fill="none" stroke="#63b8ff" d="M62.65,-165.76C74.66,-144.05 106.72,-91.59 149,-65.5 152.45,-63.37 156.11,-61.48 159.9,-59.8"/>
<polygon fill="#63b8ff" stroke="#63b8ff" points="161.5,-62.94 169.54,-56.05 158.96,-56.42 161.5,-62.94"/>
</a>
</g>
</g>
<!-- Node9 -->
<g id="Node000009" class="node">
<title>Node9</title>
<g id="a_Node000009"><a xlink:href="classLogger.html#a19f9ef22095a67c9fe420c9d6e761fc2" target="_top" xlink:title="Converts a LogLevel enum value to its string label.">
<polygon fill="white" stroke="#666666" points="475,-93 356,-93 356,-74 475,-74 475,-93"/>
<text text-anchor="middle" x="415.5" y="-81" font-family="Helvetica,sans-Serif" font-size="10.00">Logger::levelToString</text>
</a>
</g>
</g>
<!-- Node8&#45;&gt;Node9 -->
<g id="edge8_Node000008_Node000009" class="edge">
<title>Node8&#45;&gt;Node9</title>
<g id="a_edge8_Node000008_Node000009"><a xlink:title=" ">
<path fill="none" stroke="#63b8ff" d="M267.16,-83.5C289.38,-83.5 319,-83.5 345.84,-83.5"/>
<polygon fill="#63b8ff" stroke="#63b8ff" points="345.98,-87 355.98,-83.5 345.98,-80 345.98,-87"/>
</a>
</g>
</g>
<!-- Node11 -->
<g id="Node000011" class="node">
<title>Node11</title>
<g id="a_Node000011"><a xlink:href="classLocationConfig.html#a06c65ab0130599edbd485a2db4e50b82" target="_top" xlink:title=" ">
<polygon fill="white" stroke="#666666" points="481,-56 350,-56 350,-37 481,-37 481,-56"/>
<text text-anchor="middle" x="415.5" y="-44" font-family="Helvetica,sans-Serif" font-size="10.00">LocationConfig::getPath</text>
</a>
</g>
</g>
<!-- Node10&#45;&gt;Node11 -->
<g id="edge10_Node000010_Node000011" class="edge">
<title>Node10&#45;&gt;Node11</title>
<g id="a_edge10_Node000010_Node000011"><a xlink:title=" ">
<path fill="none" stroke="#63b8ff" d="M310.21,-46.5C320.04,-46.5 330.07,-46.5 339.85,-46.5"/>
<polygon fill="#63b8ff" stroke="#63b8ff" points="339.92,-50 349.92,-46.5 339.92,-43 339.92,-50"/>
</a>
</g>
</g>
<!-- Node12 -->
<g id="Node000012" class="node">
<title>Node12</title>
<g id="a_Node000012"><a xlink:href="string__utils_8hpp.html#a54a8d2d3492cbc9eecedf25fda818a4d" target="_top" xlink:title="Checks whether a string starts with a given prefix.">
<polygon fill="white" stroke="#666666" points="449,-19 382,-19 382,0 449,0 449,-19"/>
<text text-anchor="middle" x="415.5" y="-7" font-family="Helvetica,sans-Serif" font-size="10.00">startsWith</text>
</a>
</g>
</g>
<!-- Node10&#45;&gt;Node12 -->
<g id="edge11_Node000010_Node000012" class="edge">
<title>Node10&#45;&gt;Node12</title>
<g id="a_edge11_Node000010_Node000012"><a xlink:title=" ">
<path fill="none" stroke="#63b8ff" d="M279.37,-36.97C307.98,-31.16 344.27,-23.78 372.03,-18.13"/>
<polygon fill="#63b8ff" stroke="#63b8ff" points="372.75,-21.56 381.85,-16.14 371.35,-14.7 372.75,-21.56"/>
</a>
</g>
</g>
</g>
</svg>
