<?xml version="1.0" encoding="UTF-8" standalone="no"?>
<!DOCTYPE svg PUBLIC "-//W3C//DTD SVG 1.1//EN"
 "http://www.w3.org/Graphics/SVG/1.1/DTD/svg11.dtd">
<!-- Generated by graphviz version 2.43.0 (0)
 -->
<!-- Title: RequestParse::checkMethod Pages: 1 -->
<svg width="522pt" height="175pt"
 viewBox="0.00 0.00 522.00 175.00" xmlns="http://www.w3.org/2000/svg" xmlns:xlink="http://www.w3.org/1999/xlink">
<g id="graph0" class="graph" transform="scale(1 1) rotate(0) translate(4 171)">
<title>RequestParse::checkMethod</title>
<!-- Node1 -->
<g id="Node000001" class="node">
<title>Node1</title>
<g id="a_Node000001"><a xlink:title="Validates if the HTTP method is allowed in the matched location block.">
<polygon fill="#999999" stroke="#666666" points="154,-93 0,-93 0,-74 154,-74 154,-93"/>
<text text-anchor="middle" x="77" y="-81" font-family="Helvetica,sans-Serif" font-size="10.00">RequestParse::checkMethod</text>
</a>
</g>
</g>
<!-- Node2 -->
<g id="Node000002" class="node">
<title>Node2</title>
<g id="a_Node000002"><a xlink:href="classHttpRequest.html#a5e8c184f323f39e36f2bb681554bc171" target="_top" xlink:title="Returns the current HTTP method.">
<polygon fill="white" stroke="#666666" points="336.5,-167 200.5,-167 200.5,-148 336.5,-148 336.5,-167"/>
<text text-anchor="middle" x="268.5" y="-155" font-family="Helvetica,sans-Serif" font-size="10.00">HttpRequest::getMethod</text>
</a>
</g>
</g>
<!-- Node1&#45;&gt;Node2 -->
<g id="edge1_Node000001_Node000002" class="edge">
<title>Node1&#45;&gt;Node2</title>
<g id="a_edge1_Node000001_Node000002"><a xlink:title=" ">
<path fill="none" stroke="#63b8ff" d="M94.16,-93.11C115.46,-105.41 154.41,-126.67 190,-139.5 195.97,-141.65 202.29,-143.61 208.65,-145.38"/>
<polygon fill="#63b8ff" stroke="#63b8ff" points="208.06,-148.84 218.62,-147.99 209.84,-142.07 208.06,-148.84"/>
</a>
</g>
</g>
<!-- Node3 -->
<g id="Node000003" class="node">
<title>Node3</title>
<g id="a_Node000003"><a xlink:href="classLocationConfig.html#a8f52451547425e809ccdea74557339fe" target="_top" xlink:title=" ">
<polygon fill="white" stroke="#666666" points="344.5,-130 192.5,-130 192.5,-111 344.5,-111 344.5,-130"/>
<text text-anchor="middle" x="268.5" y="-118" font-family="Helvetica,sans-Serif" font-size="10.00">LocationConfig::getMethods</text>
</a>
</g>
</g>
<!-- Node1&#45;&gt;Node3 -->
<g id="edge2_Node000001_Node000003" class="edge">
<title>Node1&#45;&gt;Node3</title>
<g id="a_edge2_Node000001_Node000003"><a xlink:title=" ">
<path fill="none" stroke="#63b8ff" d="M126.8,-93.03C151.79,-97.91 182.41,-103.89 208.69,-109.02"/>
<polygon fill="#63b8ff" stroke="#63b8ff" points="208.05,-112.46 218.54,-110.94 209.39,-105.59 208.05,-112.46"/>
</a>
</g>
</g>
<!-- Node4 -->
<g id="Node000004" class="node">
<title>Node4</title>
<g id="a_Node000004"><a xlink:href="classHttpRequest.html#a658d90f4dd4080c30c99c463c082abc8" target="_top" xlink:title=" ">
<polygon fill="white" stroke="#666666" points="325,-93 212,-93 212,-74 325,-74 325,-93"/>
<text text-anchor="middle" x="268.5" y="-81" font-family="Helvetica,sans-Serif" font-size="10.00">HttpRequest::getUri</text>
</a>
</g>
</g>
<!-- Node1&#45;&gt;Node4 -->
<g id="edge3_Node000001_Node000004" class="edge">
<title>Node1&#45;&gt;Node4</title>
<g id="a_edge3_Node000001_Node000004"><a xlink:title=" ">
<path fill="none" stroke="#63b8ff" d="M154.26,-83.5C169.88,-83.5 186.21,-83.5 201.44,-83.5"/>
<polygon fill="#63b8ff" stroke="#63b8ff" points="201.79,-87 211.79,-83.5 201.79,-80 201.79,-87"/>
</a>
</g>
</g>
<!-- Node5 -->
<g id="Node000005" class="node">
<title>Node5</title>
<g id="a_Node000005"><a xlink:href="classServerConfig.html#a708ec8a352980380e36dc6090322ea41" target="_top" xlink:title="Finds the LocationConfig that best matches a given URI.">
<polygon fill="white" stroke="#666666" points="347,-56 190,-56 190,-37 347,-37 347,-56"/>
<text text-anchor="middle" x="268.5" y="-44" font-family="Helvetica,sans-Serif" font-size="10.00">ServerConfig::matchLocation</text>
</a>
</g>
</g>
<!-- Node1&#45;&gt;Node5 -->
<g id="edge4_Node000001_Node000005" class="edge">
<title>Node1&#45;&gt;Node5</title>
<g id="a_edge4_Node000001_Node000005"><a xlink:title=" ">
<path fill="none" stroke="#63b8ff" d="M126.8,-73.97C151.79,-69.09 182.41,-63.11 208.69,-57.98"/>
<polygon fill="#63b8ff" stroke="#63b8ff" points="209.39,-61.41 218.54,-56.06 208.05,-54.54 209.39,-61.41"/>
</a>
</g>
</g>
<!-- Node8 -->
<g id="Node000008" class="node">
<title>Node8</title>
<g id="a_Node000008"><a xlink:href="classHttpRequest.html#a4af8abc5368c893ba9bb24939cb95aa3" target="_top" xlink:title=" ">
<polygon fill="white" stroke="#666666" points="342.5,-19 194.5,-19 194.5,0 342.5,0 342.5,-19"/>
<text text-anchor="middle" x="268.5" y="-7" font-family="Helvetica,sans-Serif" font-size="10.00">HttpRequest::setParseError</text>
</a>
</g>
</g>
<!-- Node1&#45;&gt;Node8 -->
<g id="edge7_Node000001_Node000008" class="edge">
<title>Node1&#45;&gt;Node8</title>
<g id="a_edge7_Node000001_Node000008"><a xlink:title=" ">
<path fill="none" stroke="#63b8ff" d="M94.58,-73.94C116.01,-61.91 154.78,-41.3 190,-28.5 196.89,-26 204.25,-23.72 211.58,-21.67"/>
<polygon fill="#63b8ff" stroke="#63b8ff" points="212.75,-24.98 221.52,-19.04 210.96,-18.22 212.75,-24.98"/>
</a>
</g>
</g>
<!-- Node6 -->
<g id="Node000006" class="node">
<title>Node6</title>
<g id="a_Node000006"><a xlink:href="classLocationConfig.html#a06c65ab0130599edbd485a2db4e50b82" target="_top" xlink:title=" ">
<polygon fill="white" stroke="#666666" points="514,-74 383,-74 383,-55 514,-55 514,-74"/>
<text text-anchor="middle" x="448.5" y="-62" font-family="Helvetica,sans-Serif" font-size="10.00">LocationConfig::getPath</text>
</a>
</g>
</g>
<!-- Node5&#45;&gt;Node6 -->
<g id="edge5_Node000005_Node000006" class="edge">
<title>Node5&#45;&gt;Node6</title>
<g id="a_edge5_Node000005_Node000006"><a xlink:title=" ">
<path fill="none" stroke="#63b8ff" d="M347.06,-54.34C355.67,-55.21 364.44,-56.1 373.02,-56.97"/>
<polygon fill="#63b8ff" stroke="#63b8ff" points="372.68,-60.45 382.99,-57.98 373.39,-53.49 372.68,-60.45"/>
</a>
</g>
</g>
<!-- Node7 -->
<g id="Node000007" class="node">
<title>Node7</title>
<g id="a_Node000007"><a xlink:href="string__utils_8hpp.html#a54a8d2d3492cbc9eecedf25fda818a4d" target="_top" xlink:title="Checks whether a string starts with a given prefix.">
<polygon fill="white" stroke="#666666" points="482,-37 415,-37 415,-18 482,-18 482,-37"/>
<text text-anchor="middle" x="448.5" y="-25" font-family="Helvetica,sans-Serif" font-size="10.00">startsWith</text>
</a>
</g>
</g>
<!-- Node5&#45;&gt;Node7 -->
<g id="edge6_Node000005_Node000007" class="edge">
<title>Node5&#45;&gt;Node7</title>
<g id="a_edge6_Node000005_Node000007"><a xlink:title=" ">
<path fill="none" stroke="#63b8ff" d="M347.06,-38.22C366.76,-36.12 387.23,-33.93 404.51,-32.09"/>
<polygon fill="#63b8ff" stroke="#63b8ff" points="405.24,-35.53 414.82,-30.99 404.5,-28.57 405.24,-35.53"/>
</a>
</g>
</g>
</g>
</svg>
