<?xml version="1.0" encoding="UTF-8" standalone="no"?>
<!DOCTYPE svg PUBLIC "-//W3C//DTD SVG 1.1//EN"
 "http://www.w3.org/Graphics/SVG/1.1/DTD/svg11.dtd">
<!-- Generated by graphviz version 2.43.0 (0)
 -->
<!-- Title: LocationConfig::getUploadPath Pages: 1 -->
<svg width="1009pt" height="46pt"
 viewBox="0.00 0.00 1009.00 46.00" xmlns="http://www.w3.org/2000/svg" xmlns:xlink="http://www.w3.org/1999/xlink">
<g id="graph0" class="graph" transform="scale(1 1) rotate(0) translate(4 42)">
<title>LocationConfig::getUploadPath</title>
<!-- Node1 -->
<g id="Node000001" class="node">
<title>Node1</title>
<g id="a_Node000001"><a xlink:title=" ">
<polygon fill="#999999" stroke="#666666" points="1001,-38 835,-38 835,-19 1001,-19 1001,-38"/>
<text text-anchor="middle" x="918" y="-26" font-family="Helvetica,sans-Serif" font-size="10.00">LocationConfig::getUploadPath</text>
</a>
</g>
</g>
<!-- Node2 -->
<g id="Node000002" class="node">
<title>Node2</title>
<g id="a_Node000002"><a xlink:href="classDispatcher.html#a13c8a2fd90033adf9788c8774c3f0f47" target="_top" xlink:title="Central dispatch routine that delegates HTTP requests to the appropriate handler.">
<polygon fill="white" stroke="#666666" points="538,-38 422,-38 422,-19 538,-19 538,-38"/>
<text text-anchor="middle" x="480" y="-26" font-family="Helvetica,sans-Serif" font-size="10.00">Dispatcher::dispatch</text>
</a>
</g>
</g>
<!-- Node1&#45;&gt;Node2 -->
<g id="edge1_Node000001_Node000002" class="edge">
<title>Node1&#45;&gt;Node2</title>
<g id="a_edge1_Node000001_Node000002"><a xlink:title=" ">
<path fill="none" stroke="#63b8ff" d="M824.9,-28.5C738.27,-28.5 611.28,-28.5 538.31,-28.5"/>
<polygon fill="#63b8ff" stroke="#63b8ff" points="824.99,-32 834.99,-28.5 824.99,-25 824.99,-32"/>
</a>
</g>
</g>
<!-- Node6 -->
<g id="Node000006" class="node">
<title>Node6</title>
<g id="a_Node000006"><a xlink:href="classRouter.html#ab76bed10e7facdd1b6e4be3f2bbbff0f" target="_top" xlink:title="Determines if the current request is a valid upload operation.">
<polygon fill="white" stroke="#666666" points="799,-19 701,-19 701,0 799,0 799,-19"/>
<text text-anchor="middle" x="750" y="-7" font-family="Helvetica,sans-Serif" font-size="10.00">Router::isUpload</text>
</a>
</g>
</g>
<!-- Node1&#45;&gt;Node6 -->
<g id="edge5_Node000001_Node000006" class="edge">
<title>Node1&#45;&gt;Node6</title>
<g id="a_edge5_Node000001_Node000006"><a xlink:title=" ">
<path fill="none" stroke="#63b8ff" d="M824.94,-17.96C816.08,-16.95 807.37,-15.95 799.2,-15.02"/>
<polygon fill="#63b8ff" stroke="#63b8ff" points="824.64,-21.45 834.97,-19.11 825.44,-14.5 824.64,-21.45"/>
</a>
</g>
</g>
<!-- Node3 -->
<g id="Node000003" class="node">
<title>Node3</title>
<g id="a_Node000003"><a xlink:href="classWebServer.html#a8cbf37c0a840305ce15e8648566c9ce4" target="_top" xlink:title="Handles incoming data from a connected client.">
<polygon fill="white" stroke="#666666" points="386,-38 235,-38 235,-19 386,-19 386,-38"/>
<text text-anchor="middle" x="310.5" y="-26" font-family="Helvetica,sans-Serif" font-size="10.00">WebServer::receiveRequest</text>
</a>
</g>
</g>
<!-- Node2&#45;&gt;Node3 -->
<g id="edge2_Node000002_Node000003" class="edge">
<title>Node2&#45;&gt;Node3</title>
<g id="a_edge2_Node000002_Node000003"><a xlink:title=" ">
<path fill="none" stroke="#63b8ff" d="M411.72,-28.5C403.32,-28.5 394.69,-28.5 386.19,-28.5"/>
<polygon fill="#63b8ff" stroke="#63b8ff" points="411.82,-32 421.82,-28.5 411.82,-25 411.82,-32"/>
</a>
</g>
</g>
<!-- Node4 -->
<g id="Node000004" class="node">
<title>Node4</title>
<g id="a_Node000004"><a xlink:href="classWebServer.html#af39709e3744077e019aa76555f03a42e" target="_top" xlink:title="Main event loop — monitors sockets, dispatches requests, and handles responses.">
<polygon fill="white" stroke="#666666" points="199,-38 77,-38 77,-19 199,-19 199,-38"/>
<text text-anchor="middle" x="138" y="-26" font-family="Helvetica,sans-Serif" font-size="10.00">WebServer::runServer</text>
</a>
</g>
</g>
<!-- Node3&#45;&gt;Node4 -->
<g id="edge3_Node000003_Node000004" class="edge">
<title>Node3&#45;&gt;Node4</title>
<g id="a_edge3_Node000003_Node000004"><a xlink:title=" ">
<path fill="none" stroke="#63b8ff" d="M224.63,-28.5C216.02,-28.5 207.4,-28.5 199.13,-28.5"/>
<polygon fill="#63b8ff" stroke="#63b8ff" points="224.72,-32 234.72,-28.5 224.72,-25 224.72,-32"/>
</a>
</g>
</g>
<!-- Node5 -->
<g id="Node000005" class="node">
<title>Node5</title>
<g id="a_Node000005"><a xlink:href="main_8cpp.html#a3c04138a5bfe5d72780bb7e82a18e627" target="_top" xlink:title="Entry point of the Webservinho web server.">
<polygon fill="white" stroke="#666666" points="41,-38 0,-38 0,-19 41,-19 41,-38"/>
<text text-anchor="middle" x="20.5" y="-26" font-family="Helvetica,sans-Serif" font-size="10.00">main</text>
</a>
</g>
</g>
<!-- Node4&#45;&gt;Node5 -->
<g id="edge4_Node000004_Node000005" class="edge">
<title>Node4&#45;&gt;Node5</title>
<g id="a_edge4_Node000004_Node000005"><a xlink:title=" ">
<path fill="none" stroke="#63b8ff" d="M66.66,-28.5C57.35,-28.5 48.51,-28.5 41.15,-28.5"/>
<polygon fill="#63b8ff" stroke="#63b8ff" points="66.88,-32 76.88,-28.5 66.88,-25 66.88,-32"/>
</a>
</g>
</g>
<!-- Node7 -->
<g id="Node000007" class="node">
<title>Node7</title>
<g id="a_Node000007"><a xlink:href="classRouter.html#aa58c0c6f2a1fc66a6e2a78adfae162e6" target="_top" xlink:title="Main entry point for determining how an HTTP request should be handled.">
<polygon fill="white" stroke="#666666" points="665,-19 574,-19 574,0 665,0 665,-19"/>
<text text-anchor="middle" x="619.5" y="-7" font-family="Helvetica,sans-Serif" font-size="10.00">Router::resolve</text>
</a>
</g>
</g>
<!-- Node6&#45;&gt;Node7 -->
<g id="edge6_Node000006_Node000007" class="edge">
<title>Node6&#45;&gt;Node7</title>
<g id="a_edge6_Node000006_Node000007"><a xlink:title=" ">
<path fill="none" stroke="#63b8ff" d="M690.51,-9.5C682,-9.5 673.35,-9.5 665.16,-9.5"/>
<polygon fill="#63b8ff" stroke="#63b8ff" points="690.79,-13 700.79,-9.5 690.79,-6 690.79,-13"/>
</a>
</g>
</g>
<!-- Node7&#45;&gt;Node2 -->
<g id="edge7_Node000007_Node000002" class="edge">
<title>Node7&#45;&gt;Node2</title>
<g id="a_edge7_Node000007_Node000002"><a xlink:title=" ">
<path fill="none" stroke="#63b8ff" d="M563.85,-17.05C555.5,-18.21 546.86,-19.4 538.45,-20.56"/>
<polygon fill="#63b8ff" stroke="#63b8ff" points="564.43,-20.5 573.86,-15.67 563.47,-13.57 564.43,-20.5"/>
</a>
</g>
</g>
</g>
</svg>
