<?xml version="1.0" encoding="UTF-8" standalone="no"?>
<!DOCTYPE svg PUBLIC "-//W3C//DTD SVG 1.1//EN"
 "http://www.w3.org/Graphics/SVG/1.1/DTD/svg11.dtd">
<!-- Generated by graphviz version 2.43.0 (0)
 -->
<!-- Title: HttpRequest::getState Pages: 1 -->
<svg width="967pt" height="76pt"
 viewBox="0.00 0.00 967.00 75.50" xmlns="http://www.w3.org/2000/svg" xmlns:xlink="http://www.w3.org/1999/xlink">
<g id="graph0" class="graph" transform="scale(1 1) rotate(0) translate(4 71.5)">
<title>HttpRequest::getState</title>
<!-- Node1 -->
<g id="Node000001" class="node">
<title>Node1</title>
<g id="a_Node000001"><a xlink:title=" ">
<polygon fill="#999999" stroke="#666666" points="959,-40 834,-40 834,-21 959,-21 959,-40"/>
<text text-anchor="middle" x="896.5" y="-28" font-family="Helvetica,sans-Serif" font-size="10.00">HttpRequest::getState</text>
</a>
</g>
</g>
<!-- Node2 -->
<g id="Node000002" class="node">
<title>Node2</title>
<g id="a_Node000002"><a xlink:href="classClientConnection.html#a56844935562acf3f66a523a857cb9fd0" target="_top" xlink:title="Checks if the current HTTP request has been fully received and parsed.">
<polygon fill="white" stroke="#666666" points="580,-67.5 422,-67.5 422,-37.5 580,-37.5 580,-67.5"/>
<text text-anchor="start" x="430" y="-55.5" font-family="Helvetica,sans-Serif" font-size="10.00">ClientConnection::completed</text>
<text text-anchor="middle" x="501" y="-44.5" font-family="Helvetica,sans-Serif" font-size="10.00">Request</text>
</a>
</g>
</g>
<!-- Node1&#45;&gt;Node2 -->
<g id="edge1_Node000001_Node000002" class="edge">
<title>Node1&#45;&gt;Node2</title>
<g id="a_edge1_Node000001_Node000002"><a xlink:title=" ">
<path fill="none" stroke="#63b8ff" d="M823.26,-34.54C754.37,-38.39 650.93,-44.17 580.15,-48.13"/>
<polygon fill="#63b8ff" stroke="#63b8ff" points="823.79,-38.01 833.58,-33.96 823.4,-31.03 823.79,-38.01"/>
</a>
</g>
</g>
<!-- Node6 -->
<g id="Node000006" class="node">
<title>Node6</title>
<g id="a_Node000006"><a xlink:href="classRequestParse.html#a5f2f35f5815fbb977cde05b19af41687" target="_top" xlink:title="Parses and processes raw HTTP request data incrementally.">
<polygon fill="white" stroke="#666666" points="798,-21 616,-21 616,-2 798,-2 798,-21"/>
<text text-anchor="middle" x="707" y="-9" font-family="Helvetica,sans-Serif" font-size="10.00">RequestParse::handleRawRequest</text>
</a>
</g>
</g>
<!-- Node1&#45;&gt;Node6 -->
<g id="edge5_Node000001_Node000006" class="edge">
<title>Node1&#45;&gt;Node6</title>
<g id="a_edge5_Node000001_Node000006"><a xlink:title=" ">
<path fill="none" stroke="#63b8ff" d="M823.78,-23.23C815.41,-22.38 806.79,-21.51 798.22,-20.64"/>
<polygon fill="#63b8ff" stroke="#63b8ff" points="823.54,-26.73 833.85,-24.25 824.25,-19.76 823.54,-26.73"/>
</a>
</g>
</g>
<!-- Node3 -->
<g id="Node000003" class="node">
<title>Node3</title>
<g id="a_Node000003"><a xlink:href="classWebServer.html#a8cbf37c0a840305ce15e8648566c9ce4" target="_top" xlink:title="Handles incoming data from a connected client.">
<polygon fill="white" stroke="#666666" points="386,-40 235,-40 235,-21 386,-21 386,-40"/>
<text text-anchor="middle" x="310.5" y="-28" font-family="Helvetica,sans-Serif" font-size="10.00">WebServer::receiveRequest</text>
</a>
</g>
</g>
<!-- Node2&#45;&gt;Node3 -->
<g id="edge2_Node000002_Node000003" class="edge">
<title>Node2&#45;&gt;Node3</title>
<g id="a_edge2_Node000002_Node000003"><a xlink:title=" ">
<path fill="none" stroke="#63b8ff" d="M411.9,-42.22C403.29,-41.21 394.6,-40.2 386.14,-39.21"/>
<polygon fill="#63b8ff" stroke="#63b8ff" points="411.63,-45.71 421.97,-43.39 412.44,-38.76 411.63,-45.71"/>
</a>
</g>
</g>
<!-- Node4 -->
<g id="Node000004" class="node">
<title>Node4</title>
<g id="a_Node000004"><a xlink:href="classWebServer.html#af39709e3744077e019aa76555f03a42e" target="_top" xlink:title="Main event loop — monitors sockets, dispatches requests, and handles responses.">
<polygon fill="white" stroke="#666666" points="199,-40 77,-40 77,-21 199,-21 199,-40"/>
<text text-anchor="middle" x="138" y="-28" font-family="Helvetica,sans-Serif" font-size="10.00">WebServer::runServer</text>
</a>
</g>
</g>
<!-- Node3&#45;&gt;Node4 -->
<g id="edge3_Node000003_Node000004" class="edge">
<title>Node3&#45;&gt;Node4</title>
<g id="a_edge3_Node000003_Node000004"><a xlink:title=" ">
<path fill="none" stroke="#63b8ff" d="M224.63,-30.5C216.02,-30.5 207.4,-30.5 199.13,-30.5"/>
<polygon fill="#63b8ff" stroke="#63b8ff" points="224.72,-34 234.72,-30.5 224.72,-27 224.72,-34"/>
</a>
</g>
</g>
<!-- Node5 -->
<g id="Node000005" class="node">
<title>Node5</title>
<g id="a_Node000005"><a xlink:href="main_8cpp.html#a3c04138a5bfe5d72780bb7e82a18e627" target="_top" xlink:title="Entry point of the Webservinho web server.">
<polygon fill="white" stroke="#666666" points="41,-40 0,-40 0,-21 41,-21 41,-40"/>
<text text-anchor="middle" x="20.5" y="-28" font-family="Helvetica,sans-Serif" font-size="10.00">main</text>
</a>
</g>
</g>
<!-- Node4&#45;&gt;Node5 -->
<g id="edge4_Node000004_Node000005" class="edge">
<title>Node4&#45;&gt;Node5</title>
<g id="a_edge4_Node000004_Node000005"><a xlink:title=" ">
<path fill="none" stroke="#63b8ff" d="M66.66,-30.5C57.35,-30.5 48.51,-30.5 41.15,-30.5"/>
<polygon fill="#63b8ff" stroke="#63b8ff" points="66.88,-34 76.88,-30.5 66.88,-27 66.88,-34"/>
</a>
</g>
</g>
<!-- Node7 -->
<g id="Node000007" class="node">
<title>Node7</title>
<g id="a_Node000007"><a xlink:href="classClientConnection.html#a835586ce27b3c3598394bde3fff14211" target="_top" xlink:title="Receives incoming data from the client socket.">
<polygon fill="white" stroke="#666666" points="576,-19 426,-19 426,0 576,0 576,-19"/>
<text text-anchor="middle" x="501" y="-7" font-family="Helvetica,sans-Serif" font-size="10.00">ClientConnection::recvData</text>
</a>
</g>
</g>
<!-- Node6&#45;&gt;Node7 -->
<g id="edge6_Node000006_Node000007" class="edge">
<title>Node6&#45;&gt;Node7</title>
<g id="a_edge6_Node000006_Node000007"><a xlink:title=" ">
<path fill="none" stroke="#63b8ff" d="M605.89,-10.52C595.82,-10.42 585.73,-10.32 576,-10.23"/>
<polygon fill="#63b8ff" stroke="#63b8ff" points="605.89,-14.02 615.93,-10.62 605.96,-7.02 605.89,-14.02"/>
</a>
</g>
</g>
<!-- Node7&#45;&gt;Node3 -->
<g id="edge7_Node000007_Node000003" class="edge">
<title>Node7&#45;&gt;Node3</title>
<g id="a_edge7_Node000007_Node000003"><a xlink:title=" ">
<path fill="none" stroke="#63b8ff" d="M415.64,-18.9C405.86,-19.99 395.93,-21.09 386.28,-22.17"/>
<polygon fill="#63b8ff" stroke="#63b8ff" points="416.22,-22.36 425.77,-17.77 415.44,-15.4 416.22,-22.36"/>
</a>
</g>
</g>
</g>
</svg>
