<?xml version="1.0" encoding="UTF-8" standalone="no"?>
<!DOCTYPE svg PUBLIC "-//W3C//DTD SVG 1.1//EN"
 "http://www.w3.org/Graphics/SVG/1.1/DTD/svg11.dtd">
<!-- Generated by graphviz version 2.43.0 (0)
 -->
<!-- Title: RequestMeta::setContentLength Pages: 1 -->
<svg width="1187pt" height="83pt"
 viewBox="0.00 0.00 1187.00 83.00" xmlns="http://www.w3.org/2000/svg" xmlns:xlink="http://www.w3.org/1999/xlink">
<g id="graph0" class="graph" transform="scale(1 1) rotate(0) translate(4 79)">
<title>RequestMeta::setContentLength</title>
<!-- Node1 -->
<g id="Node000001" class="node">
<title>Node1</title>
<g id="a_Node000001"><a xlink:title="Sets the Content&#45;Length value for the request.">
<polygon fill="#999999" stroke="#666666" points="1179,-56 1006,-56 1006,-37 1179,-37 1179,-56"/>
<text text-anchor="middle" x="1092.5" y="-44" font-family="Helvetica,sans-Serif" font-size="10.00">RequestMeta::setContentLength</text>
</a>
</g>
</g>
<!-- Node2 -->
<g id="Node000002" class="node">
<title>Node2</title>
<g id="a_Node000002"><a xlink:href="classRequestParse.html#a5f2f35f5815fbb977cde05b19af41687" target="_top" xlink:title="Parses and processes raw HTTP request data incrementally.">
<polygon fill="white" stroke="#666666" points="790,-75 608,-75 608,-56 790,-56 790,-75"/>
<text text-anchor="middle" x="699" y="-63" font-family="Helvetica,sans-Serif" font-size="10.00">RequestParse::handleRawRequest</text>
</a>
</g>
</g>
<!-- Node1&#45;&gt;Node2 -->
<g id="edge1_Node000001_Node000002" class="edge">
<title>Node1&#45;&gt;Node2</title>
<g id="a_edge1_Node000001_Node000002"><a xlink:title=" ">
<path fill="none" stroke="#63b8ff" d="M1032,-57.69C1012.34,-60.88 990.3,-63.92 970,-65.5 910.18,-70.15 842.68,-70.15 790.14,-68.99"/>
<polygon fill="#63b8ff" stroke="#63b8ff" points="1032.76,-61.11 1042.05,-56.01 1031.61,-54.21 1032.76,-61.11"/>
</a>
</g>
</g>
<!-- Node7 -->
<g id="Node000007" class="node">
<title>Node7</title>
<g id="a_Node000007"><a xlink:href="classRequestParse.html#ac3dc2d89d0e245ac752b5327f64bb70d" target="_top" xlink:title="Parses individual HTTP header lines and updates metadata.">
<polygon fill="white" stroke="#666666" points="962,-56 834,-56 834,-37 962,-37 962,-56"/>
<text text-anchor="middle" x="898" y="-44" font-family="Helvetica,sans-Serif" font-size="10.00">RequestParse::headers</text>
</a>
</g>
</g>
<!-- Node1&#45;&gt;Node7 -->
<g id="edge6_Node000001_Node000007" class="edge">
<title>Node1&#45;&gt;Node7</title>
<g id="a_edge6_Node000001_Node000007"><a xlink:title=" ">
<path fill="none" stroke="#63b8ff" d="M995.88,-46.5C984.4,-46.5 972.91,-46.5 962.06,-46.5"/>
<polygon fill="#63b8ff" stroke="#63b8ff" points="995.95,-50 1005.95,-46.5 995.95,-43 995.95,-50"/>
</a>
</g>
</g>
<!-- Node8 -->
<g id="Node000008" class="node">
<title>Node8</title>
<g id="a_Node000008"><a xlink:href="classHttpRequest.html#a42b01e8d23e15e65ad9c712922a6a812" target="_top" xlink:title="Constructs a new HttpRequest with default initialized state.">
<polygon fill="white" stroke="#666666" points="970,-19 826,-19 826,0 970,0 970,-19"/>
<text text-anchor="middle" x="898" y="-7" font-family="Helvetica,sans-Serif" font-size="10.00">HttpRequest::HttpRequest</text>
</a>
</g>
</g>
<!-- Node1&#45;&gt;Node8 -->
<g id="edge8_Node000001_Node000008" class="edge">
<title>Node1&#45;&gt;Node8</title>
<g id="a_edge8_Node000001_Node000008"><a xlink:title=" ">
<path fill="none" stroke="#63b8ff" d="M1031.94,-35.05C1005.26,-29.92 974.15,-23.94 948.74,-19.06"/>
<polygon fill="#63b8ff" stroke="#63b8ff" points="1031.45,-38.52 1041.93,-36.97 1032.77,-31.65 1031.45,-38.52"/>
</a>
</g>
</g>
<!-- Node3 -->
<g id="Node000003" class="node">
<title>Node3</title>
<g id="a_Node000003"><a xlink:href="classClientConnection.html#a835586ce27b3c3598394bde3fff14211" target="_top" xlink:title="Receives incoming data from the client socket.">
<polygon fill="white" stroke="#666666" points="572,-75 422,-75 422,-56 572,-56 572,-75"/>
<text text-anchor="middle" x="497" y="-63" font-family="Helvetica,sans-Serif" font-size="10.00">ClientConnection::recvData</text>
</a>
</g>
</g>
<!-- Node2&#45;&gt;Node3 -->
<g id="edge2_Node000002_Node000003" class="edge">
<title>Node2&#45;&gt;Node3</title>
<g id="a_edge2_Node000002_Node000003"><a xlink:title=" ">
<path fill="none" stroke="#63b8ff" d="M597.86,-65.5C589.25,-65.5 580.64,-65.5 572.29,-65.5"/>
<polygon fill="#63b8ff" stroke="#63b8ff" points="597.95,-69 607.95,-65.5 597.95,-62 597.95,-69"/>
</a>
</g>
</g>
<!-- Node4 -->
<g id="Node000004" class="node">
<title>Node4</title>
<g id="a_Node000004"><a xlink:href="classWebServer.html#a8cbf37c0a840305ce15e8648566c9ce4" target="_top" xlink:title="Handles incoming data from a connected client.">
<polygon fill="white" stroke="#666666" points="386,-75 235,-75 235,-56 386,-56 386,-75"/>
<text text-anchor="middle" x="310.5" y="-63" font-family="Helvetica,sans-Serif" font-size="10.00">WebServer::receiveRequest</text>
</a>
</g>
</g>
<!-- Node3&#45;&gt;Node4 -->
<g id="edge3_Node000003_Node000004" class="edge">
<title>Node3&#45;&gt;Node4</title>
<g id="a_edge3_Node000003_Node000004"><a xlink:title=" ">
<path fill="none" stroke="#63b8ff" d="M411.51,-65.5C403.07,-65.5 394.53,-65.5 386.19,-65.5"/>
<polygon fill="#63b8ff" stroke="#63b8ff" points="411.75,-69 421.75,-65.5 411.75,-62 411.75,-69"/>
</a>
</g>
</g>
<!-- Node5 -->
<g id="Node000005" class="node">
<title>Node5</title>
<g id="a_Node000005"><a xlink:href="classWebServer.html#af39709e3744077e019aa76555f03a42e" target="_top" xlink:title="Main event loop — monitors sockets, dispatches requests, and handles responses.">
<polygon fill="white" stroke="#666666" points="199,-75 77,-75 77,-56 199,-56 199,-75"/>
<text text-anchor="middle" x="138" y="-63" font-family="Helvetica,sans-Serif" font-size="10.00">WebServer::runServer</text>
</a>
</g>
</g>
<!-- Node4&#45;&gt;Node5 -->
<g id="edge4_Node000004_Node000005" class="edge">
<title>Node4&#45;&gt;Node5</title>
<g id="a_edge4_Node000004_Node000005"><a xlink:title=" ">
<path fill="none" stroke="#63b8ff" d="M224.63,-65.5C216.02,-65.5 207.4,-65.5 199.13,-65.5"/>
<polygon fill="#63b8ff" stroke="#63b8ff" points="224.72,-69 234.72,-65.5 224.72,-62 224.72,-69"/>
</a>
</g>
</g>
<!-- Node6 -->
<g id="Node000006" class="node">
<title>Node6</title>
<g id="a_Node000006"><a xlink:href="main_8cpp.html#a3c04138a5bfe5d72780bb7e82a18e627" target="_top" xlink:title="Entry point of the Webservinho web server.">
<polygon fill="white" stroke="#666666" points="41,-75 0,-75 0,-56 41,-56 41,-75"/>
<text text-anchor="middle" x="20.5" y="-63" font-family="Helvetica,sans-Serif" font-size="10.00">main</text>
</a>
</g>
</g>
<!-- Node5&#45;&gt;Node6 -->
<g id="edge5_Node000005_Node000006" class="edge">
<title>Node5&#45;&gt;Node6</title>
<g id="a_edge5_Node000005_Node000006"><a xlink:title=" ">
<path fill="none" stroke="#63b8ff" d="M66.66,-65.5C57.35,-65.5 48.51,-65.5 41.15,-65.5"/>
<polygon fill="#63b8ff" stroke="#63b8ff" points="66.88,-69 76.88,-65.5 66.88,-62 66.88,-69"/>
</a>
</g>
</g>
<!-- Node7&#45;&gt;Node2 -->
<g id="edge7_Node000007_Node000002" class="edge">
<title>Node7&#45;&gt;Node2</title>
<g id="a_edge7_Node000007_Node000002"><a xlink:title=" ">
<path fill="none" stroke="#63b8ff" d="M823.88,-53.55C812.86,-54.61 801.39,-55.72 790.06,-56.81"/>
<polygon fill="#63b8ff" stroke="#63b8ff" points="824.24,-57.03 833.86,-52.59 823.57,-50.07 824.24,-57.03"/>
</a>
</g>
</g>
</g>
</svg>
