<?xml version="1.0" encoding="UTF-8" standalone="no"?>
<!DOCTYPE svg PUBLIC "-//W3C//DTD SVG 1.1//EN"
 "http://www.w3.org/Graphics/SVG/1.1/DTD/svg11.dtd">
<!-- Generated by graphviz version 2.43.0 (0)
 -->
<!-- Title: ClientConnection::completedRequest Pages: 1 -->
<svg width="506pt" height="175pt"
 viewBox="0.00 0.00 506.00 175.00" xmlns="http://www.w3.org/2000/svg" xmlns:xlink="http://www.w3.org/1999/xlink">
<g id="graph0" class="graph" transform="scale(1 1) rotate(0) translate(4 171)">
<title>ClientConnection::completedRequest</title>
<!-- Node1 -->
<g id="Node000001" class="node">
<title>Node1</title>
<g id="a_Node000001"><a xlink:title="Checks if the current HTTP request has been fully received and parsed.">
<polygon fill="#999999" stroke="#666666" points="158,-98.5 0,-98.5 0,-68.5 158,-68.5 158,-98.5"/>
<text text-anchor="start" x="8" y="-86.5" font-family="Helvetica,sans-Serif" font-size="10.00">ClientConnection::completed</text>
<text text-anchor="middle" x="79" y="-75.5" font-family="Helvetica,sans-Serif" font-size="10.00">Request</text>
</a>
</g>
</g>
<!-- Node2 -->
<g id="Node000002" class="node">
<title>Node2</title>
<g id="a_Node000002"><a xlink:href="classHttpRequest.html#aab13f0c3b04e2290f26ca20aee08439f" target="_top" xlink:title="Returns the HTTP parse error code (if any).">
<polygon fill="white" stroke="#666666" points="343,-167 194,-167 194,-148 343,-148 343,-167"/>
<text text-anchor="middle" x="268.5" y="-155" font-family="Helvetica,sans-Serif" font-size="10.00">HttpRequest::getParseError</text>
</a>
</g>
</g>
<!-- Node1&#45;&gt;Node2 -->
<g id="edge1_Node000001_Node000002" class="edge">
<title>Node1&#45;&gt;Node2</title>
<g id="a_edge1_Node000001_Node000002"><a xlink:title=" ">
<path fill="none" stroke="#63b8ff" d="M106.46,-98.54C129.12,-110.92 162.91,-128.21 194,-139.5 199.83,-141.62 206.02,-143.57 212.23,-145.34"/>
<polygon fill="#63b8ff" stroke="#63b8ff" points="211.38,-148.74 221.95,-147.98 213.21,-141.98 211.38,-148.74"/>
</a>
</g>
</g>
<!-- Node3 -->
<g id="Node000003" class="node">
<title>Node3</title>
<g id="a_Node000003"><a xlink:href="classHttpRequest.html#a1ae6c9a93ad8803db93de2eb605f74e3" target="_top" xlink:title=" ">
<polygon fill="white" stroke="#666666" points="331,-130 206,-130 206,-111 331,-111 331,-130"/>
<text text-anchor="middle" x="268.5" y="-118" font-family="Helvetica,sans-Serif" font-size="10.00">HttpRequest::getState</text>
</a>
</g>
</g>
<!-- Node1&#45;&gt;Node3 -->
<g id="edge2_Node000001_Node000003" class="edge">
<title>Node1&#45;&gt;Node3</title>
<g id="a_edge2_Node000001_Node000003"><a xlink:title=" ">
<path fill="none" stroke="#63b8ff" d="M156.26,-98.55C173.9,-102.03 192.38,-105.68 209.11,-108.98"/>
<polygon fill="#63b8ff" stroke="#63b8ff" points="208.79,-112.48 219.27,-110.98 210.14,-105.61 208.79,-112.48"/>
</a>
</g>
</g>
<!-- Node4 -->
<g id="Node000004" class="node">
<title>Node4</title>
<g id="a_Node000004"><a xlink:href="classLogger.html#a4aa4d7c3b98f6e12e7ea8253da5ea0cd" target="_top" xlink:title="Returns the singleton instance of the Logger.">
<polygon fill="white" stroke="#666666" points="317,-93 220,-93 220,-74 317,-74 317,-93"/>
<text text-anchor="middle" x="268.5" y="-81" font-family="Helvetica,sans-Serif" font-size="10.00">Logger::instance</text>
</a>
</g>
</g>
<!-- Node1&#45;&gt;Node4 -->
<g id="edge3_Node000001_Node000004" class="edge">
<title>Node1&#45;&gt;Node4</title>
<g id="a_edge3_Node000001_Node000004"><a xlink:title=" ">
<path fill="none" stroke="#63b8ff" d="M158.16,-83.5C175.3,-83.5 193.17,-83.5 209.36,-83.5"/>
<polygon fill="#63b8ff" stroke="#63b8ff" points="209.74,-87 219.74,-83.5 209.74,-80 209.74,-87"/>
</a>
</g>
</g>
<!-- Node5 -->
<g id="Node000005" class="node">
<title>Node5</title>
<g id="a_Node000005"><a xlink:href="classLogger.html#a3d3f0801eeaf39b33a906ea8569c19b2" target="_top" xlink:title="Writes a log entry with timestamp, level, and message.">
<polygon fill="white" stroke="#666666" points="304,-56 233,-56 233,-37 304,-37 304,-56"/>
<text text-anchor="middle" x="268.5" y="-44" font-family="Helvetica,sans-Serif" font-size="10.00">Logger::log</text>
</a>
</g>
</g>
<!-- Node1&#45;&gt;Node5 -->
<g id="edge4_Node000001_Node000005" class="edge">
<title>Node1&#45;&gt;Node5</title>
<g id="a_edge4_Node000001_Node000005"><a xlink:title=" ">
<path fill="none" stroke="#63b8ff" d="M156.26,-68.45C178.88,-63.99 202.91,-59.25 222.83,-55.32"/>
<polygon fill="#63b8ff" stroke="#63b8ff" points="223.7,-58.71 232.84,-53.34 222.35,-51.84 223.7,-58.71"/>
</a>
</g>
</g>
<!-- Node7 -->
<g id="Node000007" class="node">
<title>Node7</title>
<g id="a_Node000007"><a xlink:href="string__utils_8hpp.html#ad735976365693b45c427000fe042e173" target="_top" xlink:title="Converts any printable type to a string representation.">
<polygon fill="white" stroke="#666666" points="296,-19 241,-19 241,0 296,0 296,-19"/>
<text text-anchor="middle" x="268.5" y="-7" font-family="Helvetica,sans-Serif" font-size="10.00">toString</text>
</a>
</g>
</g>
<!-- Node1&#45;&gt;Node7 -->
<g id="edge6_Node000001_Node000007" class="edge">
<title>Node1&#45;&gt;Node7</title>
<g id="a_edge6_Node000001_Node000007"><a xlink:title=" ">
<path fill="none" stroke="#63b8ff" d="M107.44,-68.37C130.13,-56.32 163.46,-39.69 194,-28.5 205.77,-24.19 218.95,-20.45 230.85,-17.47"/>
<polygon fill="#63b8ff" stroke="#63b8ff" points="232.02,-20.79 240.92,-15.04 230.38,-13.98 232.02,-20.79"/>
</a>
</g>
</g>
<!-- Node6 -->
<g id="Node000006" class="node">
<title>Node6</title>
<g id="a_Node000006"><a xlink:href="classLogger.html#a19f9ef22095a67c9fe420c9d6e761fc2" target="_top" xlink:title="Converts a LogLevel enum value to its string label.">
<polygon fill="white" stroke="#666666" points="498,-56 379,-56 379,-37 498,-37 498,-56"/>
<text text-anchor="middle" x="438.5" y="-44" font-family="Helvetica,sans-Serif" font-size="10.00">Logger::levelToString</text>
</a>
</g>
</g>
<!-- Node5&#45;&gt;Node6 -->
<g id="edge5_Node000005_Node000006" class="edge">
<title>Node5&#45;&gt;Node6</title>
<g id="a_edge5_Node000005_Node000006"><a xlink:title=" ">
<path fill="none" stroke="#63b8ff" d="M304.31,-46.5C322.98,-46.5 346.65,-46.5 368.85,-46.5"/>
<polygon fill="#63b8ff" stroke="#63b8ff" points="368.92,-50 378.92,-46.5 368.92,-43 368.92,-50"/>
</a>
</g>
</g>
</g>
</svg>
