<?xml version="1.0" encoding="UTF-8" standalone="no"?>
<!DOCTYPE svg PUBLIC "-//W3C//DTD SVG 1.1//EN"
 "http://www.w3.org/Graphics/SVG/1.1/DTD/svg11.dtd">
<!-- Generated by graphviz version 2.43.0 (0)
 -->
<!-- Title: LocationConfig::getHasIndexFiles Pages: 1 -->
<svg width="1116pt" height="114pt"
 viewBox="0.00 0.00 1116.00 113.50" xmlns="http://www.w3.org/2000/svg" xmlns:xlink="http://www.w3.org/1999/xlink">
<g id="graph0" class="graph" transform="scale(1 1) rotate(0) translate(4 109.5)">
<title>LocationConfig::getHasIndexFiles</title>
<!-- Node1 -->
<g id="Node000001" class="node">
<title>Node1</title>
<g id="a_Node000001"><a xlink:title=" ">
<polygon fill="#999999" stroke="#666666" points="1108,-73 952,-73 952,-43 1108,-43 1108,-73"/>
<text text-anchor="start" x="960" y="-61" font-family="Helvetica,sans-Serif" font-size="10.00">LocationConfig::getHasIndex</text>
<text text-anchor="middle" x="1030" y="-50" font-family="Helvetica,sans-Serif" font-size="10.00">Files</text>
</a>
</g>
</g>
<!-- Node2 -->
<g id="Node000002" class="node">
<title>Node2</title>
<g id="a_Node000002"><a xlink:href="classRouter.html#a8155613701b9739e2ae1e34c39894247" target="_top" xlink:title="Computes the absolute filesystem path of the requested resource.">
<polygon fill="white" stroke="#666666" points="916,-105.5 752,-105.5 752,-86.5 916,-86.5 916,-105.5"/>
<text text-anchor="middle" x="834" y="-93.5" font-family="Helvetica,sans-Serif" font-size="10.00">Router::computeResolvedPath</text>
</a>
</g>
</g>
<!-- Node1&#45;&gt;Node2 -->
<g id="edge1_Node000001_Node000002" class="edge">
<title>Node1&#45;&gt;Node2</title>
<g id="a_edge1_Node000001_Node000002"><a xlink:title=" ">
<path fill="none" stroke="#63b8ff" d="M942.46,-74.95C922.23,-78.91 901.39,-83 883.5,-86.5"/>
<polygon fill="#63b8ff" stroke="#63b8ff" points="943.19,-78.38 952.33,-73.02 941.84,-71.51 943.19,-78.38"/>
</a>
</g>
</g>
<!-- Node3 -->
<g id="Node000003" class="node">
<title>Node3</title>
<g id="a_Node000003"><a xlink:href="classRouter.html#aa58c0c6f2a1fc66a6e2a78adfae162e6" target="_top" xlink:title="Main entry point for determining how an HTTP request should be handled.">
<polygon fill="white" stroke="#666666" points="690.5,-67.5 599.5,-67.5 599.5,-48.5 690.5,-48.5 690.5,-67.5"/>
<text text-anchor="middle" x="645" y="-55.5" font-family="Helvetica,sans-Serif" font-size="10.00">Router::resolve</text>
</a>
</g>
</g>
<!-- Node1&#45;&gt;Node3 -->
<g id="edge11_Node000001_Node000003" class="edge">
<title>Node1&#45;&gt;Node3</title>
<g id="a_edge11_Node000001_Node000003"><a xlink:title=" ">
<path fill="none" stroke="#63b8ff" d="M941.63,-58C863.42,-58 751.91,-58 690.63,-58"/>
<polygon fill="#63b8ff" stroke="#63b8ff" points="941.95,-61.5 951.95,-58 941.95,-54.5 941.95,-61.5"/>
</a>
</g>
</g>
<!-- Node8 -->
<g id="Node000008" class="node">
<title>Node8</title>
<g id="a_Node000008"><a xlink:href="classConfigParser.html#a99a7670aacf418332702850134b4e4ca" target="_top" xlink:title="Parses a location block and adds it to the current server.">
<polygon fill="white" stroke="#666666" points="910,-30 758,-30 758,0 910,0 910,-30"/>
<text text-anchor="start" x="766" y="-18" font-family="Helvetica,sans-Serif" font-size="10.00">ConfigParser::parseLocation</text>
<text text-anchor="middle" x="834" y="-7" font-family="Helvetica,sans-Serif" font-size="10.00">Block</text>
</a>
</g>
</g>
<!-- Node1&#45;&gt;Node8 -->
<g id="edge7_Node000001_Node000008" class="edge">
<title>Node1&#45;&gt;Node8</title>
<g id="a_edge7_Node000001_Node000008"><a xlink:title=" ">
<path fill="none" stroke="#63b8ff" d="M951.27,-40.77C935.24,-37.22 918.47,-33.5 902.81,-30.03"/>
<polygon fill="#63b8ff" stroke="#63b8ff" points="950.63,-44.21 961.15,-42.96 952.14,-37.38 950.63,-44.21"/>
</a>
</g>
</g>
<!-- Node2&#45;&gt;Node3 -->
<g id="edge2_Node000002_Node000003" class="edge">
<title>Node2&#45;&gt;Node3</title>
<g id="a_edge2_Node000002_Node000003"><a xlink:title=" ">
<path fill="none" stroke="#63b8ff" d="M775.96,-84.41C748.55,-78.84 716.17,-72.26 690.6,-67.06"/>
<polygon fill="#63b8ff" stroke="#63b8ff" points="775.32,-87.85 785.81,-86.41 776.71,-80.99 775.32,-87.85"/>
</a>
</g>
</g>
<!-- Node4 -->
<g id="Node000004" class="node">
<title>Node4</title>
<g id="a_Node000004"><a xlink:href="classDispatcher.html#a13c8a2fd90033adf9788c8774c3f0f47" target="_top" xlink:title="Central dispatch routine that delegates HTTP requests to the appropriate handler.">
<polygon fill="white" stroke="#666666" points="538,-66.5 422,-66.5 422,-47.5 538,-47.5 538,-66.5"/>
<text text-anchor="middle" x="480" y="-54.5" font-family="Helvetica,sans-Serif" font-size="10.00">Dispatcher::dispatch</text>
</a>
</g>
</g>
<!-- Node3&#45;&gt;Node4 -->
<g id="edge3_Node000003_Node000004" class="edge">
<title>Node3&#45;&gt;Node4</title>
<g id="a_edge3_Node000003_Node000004"><a xlink:title=" ">
<path fill="none" stroke="#63b8ff" d="M589.42,-57.67C572.9,-57.56 554.73,-57.45 538.05,-57.35"/>
<polygon fill="#63b8ff" stroke="#63b8ff" points="589.44,-61.17 599.46,-57.73 589.48,-54.17 589.44,-61.17"/>
</a>
</g>
</g>
<!-- Node5 -->
<g id="Node000005" class="node">
<title>Node5</title>
<g id="a_Node000005"><a xlink:href="classWebServer.html#a8cbf37c0a840305ce15e8648566c9ce4" target="_top" xlink:title="Handles incoming data from a connected client.">
<polygon fill="white" stroke="#666666" points="386,-66.5 235,-66.5 235,-47.5 386,-47.5 386,-66.5"/>
<text text-anchor="middle" x="310.5" y="-54.5" font-family="Helvetica,sans-Serif" font-size="10.00">WebServer::receiveRequest</text>
</a>
</g>
</g>
<!-- Node4&#45;&gt;Node5 -->
<g id="edge4_Node000004_Node000005" class="edge">
<title>Node4&#45;&gt;Node5</title>
<g id="a_edge4_Node000004_Node000005"><a xlink:title=" ">
<path fill="none" stroke="#63b8ff" d="M411.72,-57C403.32,-57 394.69,-57 386.19,-57"/>
<polygon fill="#63b8ff" stroke="#63b8ff" points="411.82,-60.5 421.82,-57 411.82,-53.5 411.82,-60.5"/>
</a>
</g>
</g>
<!-- Node6 -->
<g id="Node000006" class="node">
<title>Node6</title>
<g id="a_Node000006"><a xlink:href="classWebServer.html#af39709e3744077e019aa76555f03a42e" target="_top" xlink:title="Main event loop — monitors sockets, dispatches requests, and handles responses.">
<polygon fill="white" stroke="#666666" points="199,-66.5 77,-66.5 77,-47.5 199,-47.5 199,-66.5"/>
<text text-anchor="middle" x="138" y="-54.5" font-family="Helvetica,sans-Serif" font-size="10.00">WebServer::runServer</text>
</a>
</g>
</g>
<!-- Node5&#45;&gt;Node6 -->
<g id="edge5_Node000005_Node000006" class="edge">
<title>Node5&#45;&gt;Node6</title>
<g id="a_edge5_Node000005_Node000006"><a xlink:title=" ">
<path fill="none" stroke="#63b8ff" d="M224.63,-57C216.02,-57 207.4,-57 199.13,-57"/>
<polygon fill="#63b8ff" stroke="#63b8ff" points="224.72,-60.5 234.72,-57 224.72,-53.5 224.72,-60.5"/>
</a>
</g>
</g>
<!-- Node7 -->
<g id="Node000007" class="node">
<title>Node7</title>
<g id="a_Node000007"><a xlink:href="main_8cpp.html#a3c04138a5bfe5d72780bb7e82a18e627" target="_top" xlink:title="Entry point of the Webservinho web server.">
<polygon fill="white" stroke="#666666" points="41,-47.5 0,-47.5 0,-28.5 41,-28.5 41,-47.5"/>
<text text-anchor="middle" x="20.5" y="-35.5" font-family="Helvetica,sans-Serif" font-size="10.00">main</text>
</a>
</g>
</g>
<!-- Node6&#45;&gt;Node7 -->
<g id="edge6_Node000006_Node000007" class="edge">
<title>Node6&#45;&gt;Node7</title>
<g id="a_edge6_Node000006_Node000007"><a xlink:title=" ">
<path fill="none" stroke="#63b8ff" d="M68.77,-45.78C58.72,-44.12 49.12,-42.54 41.22,-41.24"/>
<polygon fill="#63b8ff" stroke="#63b8ff" points="68.48,-49.27 78.91,-47.44 69.61,-42.37 68.48,-49.27"/>
</a>
</g>
</g>
<!-- Node9 -->
<g id="Node000009" class="node">
<title>Node9</title>
<g id="a_Node000009"><a xlink:href="classConfigParser.html#aeb128a03051f57d584d3c5933435f2d4" target="_top" xlink:title="Parses a complete server {} block and adds it to Config.">
<polygon fill="white" stroke="#666666" points="716,-30 574,-30 574,0 716,0 716,-30"/>
<text text-anchor="start" x="582" y="-18" font-family="Helvetica,sans-Serif" font-size="10.00">ConfigParser::parseServer</text>
<text text-anchor="middle" x="645" y="-7" font-family="Helvetica,sans-Serif" font-size="10.00">Block</text>
</a>
</g>
</g>
<!-- Node8&#45;&gt;Node9 -->
<g id="edge8_Node000008_Node000009" class="edge">
<title>Node8&#45;&gt;Node9</title>
<g id="a_edge8_Node000008_Node000009"><a xlink:title=" ">
<path fill="none" stroke="#63b8ff" d="M747.72,-15C737.19,-15 726.52,-15 716.25,-15"/>
<polygon fill="#63b8ff" stroke="#63b8ff" points="747.75,-18.5 757.75,-15 747.75,-11.5 747.75,-18.5"/>
</a>
</g>
</g>
<!-- Node10 -->
<g id="Node000010" class="node">
<title>Node10</title>
<g id="a_Node000010"><a xlink:href="classConfigParser.html#a37f7f2df580ba720a140bd0fa7b6598c" target="_top" xlink:title="Parses the entire configuration file and returns a populated Config object.">
<polygon fill="white" stroke="#666666" points="374.5,-27.5 246.5,-27.5 246.5,-8.5 374.5,-8.5 374.5,-27.5"/>
<text text-anchor="middle" x="310.5" y="-15.5" font-family="Helvetica,sans-Serif" font-size="10.00">ConfigParser::parseFile</text>
</a>
</g>
</g>
<!-- Node9&#45;&gt;Node10 -->
<g id="edge9_Node000009_Node000010" class="edge">
<title>Node9&#45;&gt;Node10</title>
<g id="a_edge9_Node000009_Node000010"><a xlink:title=" ">
<path fill="none" stroke="#63b8ff" d="M563.66,-15.72C505.66,-16.25 428.41,-16.95 374.77,-17.43"/>
<polygon fill="#63b8ff" stroke="#63b8ff" points="563.92,-19.22 573.89,-15.63 563.86,-12.22 563.92,-19.22"/>
</a>
</g>
</g>
<!-- Node10&#45;&gt;Node7 -->
<g id="edge10_Node000010_Node000007" class="edge">
<title>Node10&#45;&gt;Node7</title>
<g id="a_edge10_Node000010_Node000007"><a xlink:title=" ">
<path fill="none" stroke="#63b8ff" d="M236.09,-23.1C171.06,-27.61 80.5,-33.9 41.11,-36.64"/>
<polygon fill="#63b8ff" stroke="#63b8ff" points="236.56,-26.57 246.3,-22.39 236.08,-19.59 236.56,-26.57"/>
</a>
</g>
</g>
</g>
</svg>
