<?xml version="1.0" encoding="UTF-8" standalone="no"?>
<!DOCTYPE svg PUBLIC "-//W3C//DTD SVG 1.1//EN"
 "http://www.w3.org/Graphics/SVG/1.1/DTD/svg11.dtd">
<!-- Generated by graphviz version 2.43.0 (0)
 -->
<!-- Title: ServerConfig::getClientMaxBodySize Pages: 1 -->
<svg width="984pt" height="38pt"
 viewBox="0.00 0.00 984.00 38.00" xmlns="http://www.w3.org/2000/svg" xmlns:xlink="http://www.w3.org/1999/xlink">
<g id="graph0" class="graph" transform="scale(1 1) rotate(0) translate(4 34)">
<title>ServerConfig::getClientMaxBodySize</title>
<!-- Node1 -->
<g id="Node000001" class="node">
<title>Node1</title>
<g id="a_Node000001"><a xlink:title=" ">
<polygon fill="#999999" stroke="#666666" points="976,-30 826,-30 826,0 976,0 976,-30"/>
<text text-anchor="start" x="834" y="-18" font-family="Helvetica,sans-Serif" font-size="10.00">ServerConfig::getClientMax</text>
<text text-anchor="middle" x="901" y="-7" font-family="Helvetica,sans-Serif" font-size="10.00">BodySize</text>
</a>
</g>
</g>
<!-- Node2 -->
<g id="Node000002" class="node">
<title>Node2</title>
<g id="a_Node000002"><a xlink:href="classRequestParse.html#a5f2f35f5815fbb977cde05b19af41687" target="_top" xlink:title="Parses and processes raw HTTP request data incrementally.">
<polygon fill="white" stroke="#666666" points="790,-24.5 608,-24.5 608,-5.5 790,-5.5 790,-24.5"/>
<text text-anchor="middle" x="699" y="-12.5" font-family="Helvetica,sans-Serif" font-size="10.00">RequestParse::handleRawRequest</text>
</a>
</g>
</g>
<!-- Node1&#45;&gt;Node2 -->
<g id="edge1_Node000001_Node000002" class="edge">
<title>Node1&#45;&gt;Node2</title>
<g id="a_edge1_Node000001_Node000002"><a xlink:title=" ">
<path fill="none" stroke="#63b8ff" d="M815.68,-15C807.3,-15 798.76,-15 790.32,-15"/>
<polygon fill="#63b8ff" stroke="#63b8ff" points="815.81,-18.5 825.81,-15 815.81,-11.5 815.81,-18.5"/>
</a>
</g>
</g>
<!-- Node3 -->
<g id="Node000003" class="node">
<title>Node3</title>
<g id="a_Node000003"><a xlink:href="classClientConnection.html#a835586ce27b3c3598394bde3fff14211" target="_top" xlink:title="Receives incoming data from the client socket.">
<polygon fill="white" stroke="#666666" points="572,-24.5 422,-24.5 422,-5.5 572,-5.5 572,-24.5"/>
<text text-anchor="middle" x="497" y="-12.5" font-family="Helvetica,sans-Serif" font-size="10.00">ClientConnection::recvData</text>
</a>
</g>
</g>
<!-- Node2&#45;&gt;Node3 -->
<g id="edge2_Node000002_Node000003" class="edge">
<title>Node2&#45;&gt;Node3</title>
<g id="a_edge2_Node000002_Node000003"><a xlink:title=" ">
<path fill="none" stroke="#63b8ff" d="M597.86,-15C589.25,-15 580.64,-15 572.29,-15"/>
<polygon fill="#63b8ff" stroke="#63b8ff" points="597.95,-18.5 607.95,-15 597.95,-11.5 597.95,-18.5"/>
</a>
</g>
</g>
<!-- Node4 -->
<g id="Node000004" class="node">
<title>Node4</title>
<g id="a_Node000004"><a xlink:href="classWebServer.html#a8cbf37c0a840305ce15e8648566c9ce4" target="_top" xlink:title="Handles incoming data from a connected client.">
<polygon fill="white" stroke="#666666" points="386,-24.5 235,-24.5 235,-5.5 386,-5.5 386,-24.5"/>
<text text-anchor="middle" x="310.5" y="-12.5" font-family="Helvetica,sans-Serif" font-size="10.00">WebServer::receiveRequest</text>
</a>
</g>
</g>
<!-- Node3&#45;&gt;Node4 -->
<g id="edge3_Node000003_Node000004" class="edge">
<title>Node3&#45;&gt;Node4</title>
<g id="a_edge3_Node000003_Node000004"><a xlink:title=" ">
<path fill="none" stroke="#63b8ff" d="M411.51,-15C403.07,-15 394.53,-15 386.19,-15"/>
<polygon fill="#63b8ff" stroke="#63b8ff" points="411.75,-18.5 421.75,-15 411.75,-11.5 411.75,-18.5"/>
</a>
</g>
</g>
<!-- Node5 -->
<g id="Node000005" class="node">
<title>Node5</title>
<g id="a_Node000005"><a xlink:href="classWebServer.html#af39709e3744077e019aa76555f03a42e" target="_top" xlink:title="Main event loop — monitors sockets, dispatches requests, and handles responses.">
<polygon fill="white" stroke="#666666" points="199,-24.5 77,-24.5 77,-5.5 199,-5.5 199,-24.5"/>
<text text-anchor="middle" x="138" y="-12.5" font-family="Helvetica,sans-Serif" font-size="10.00">WebServer::runServer</text>
</a>
</g>
</g>
<!-- Node4&#45;&gt;Node5 -->
<g id="edge4_Node000004_Node000005" class="edge">
<title>Node4&#45;&gt;Node5</title>
<g id="a_edge4_Node000004_Node000005"><a xlink:title=" ">
<path fill="none" stroke="#63b8ff" d="M224.63,-15C216.02,-15 207.4,-15 199.13,-15"/>
<polygon fill="#63b8ff" stroke="#63b8ff" points="224.72,-18.5 234.72,-15 224.72,-11.5 224.72,-18.5"/>
</a>
</g>
</g>
<!-- Node6 -->
<g id="Node000006" class="node">
<title>Node6</title>
<g id="a_Node000006"><a xlink:href="main_8cpp.html#a3c04138a5bfe5d72780bb7e82a18e627" target="_top" xlink:title="Entry point of the Webservinho web server.">
<polygon fill="white" stroke="#666666" points="41,-24.5 0,-24.5 0,-5.5 41,-5.5 41,-24.5"/>
<text text-anchor="middle" x="20.5" y="-12.5" font-family="Helvetica,sans-Serif" font-size="10.00">main</text>
</a>
</g>
</g>
<!-- Node5&#45;&gt;Node6 -->
<g id="edge5_Node000005_Node000006" class="edge">
<title>Node5&#45;&gt;Node6</title>
<g id="a_edge5_Node000005_Node000006"><a xlink:title=" ">
<path fill="none" stroke="#63b8ff" d="M66.66,-15C57.35,-15 48.51,-15 41.15,-15"/>
<polygon fill="#63b8ff" stroke="#63b8ff" points="66.88,-18.5 76.88,-15 66.88,-11.5 66.88,-18.5"/>
</a>
</g>
</g>
</g>
</svg>
