<?xml version="1.0" encoding="UTF-8" standalone="no"?>
<!DOCTYPE svg PUBLIC "-//W3C//DTD SVG 1.1//EN"
 "http://www.w3.org/Graphics/SVG/1.1/DTD/svg11.dtd">
<!-- Generated by graphviz version 2.43.0 (0)
 -->
<!-- Title: HttpRequest::getUri Pages: 1 -->
<svg width="1508pt" height="332pt"
 viewBox="0.00 0.00 1508.00 331.83" xmlns="http://www.w3.org/2000/svg" xmlns:xlink="http://www.w3.org/1999/xlink">
<g id="graph0" class="graph" transform="scale(1 1) rotate(0) translate(4 327.83)">
<title>HttpRequest::getUri</title>
<!-- Node1 -->
<g id="Node000001" class="node">
<title>Node1</title>
<g id="a_Node000001"><a xlink:title=" ">
<polygon fill="#999999" stroke="#666666" points="1500,-169 1387,-169 1387,-150 1500,-150 1500,-169"/>
<text text-anchor="middle" x="1443.5" y="-157" font-family="Helvetica,sans-Serif" font-size="10.00">HttpRequest::getUri</text>
</a>
</g>
</g>
<!-- Node2 -->
<g id="Node000002" class="node">
<title>Node2</title>
<g id="a_Node000002"><a xlink:href="classCgiHandler.html#a61c5a0066d14988001792da45dba2207" target="_top" xlink:title="Builds the CGI environment variables array (envp).">
<polygon fill="white" stroke="#666666" points="1331.5,-282 1206.5,-282 1206.5,-263 1331.5,-263 1331.5,-282"/>
<text text-anchor="middle" x="1269" y="-270" font-family="Helvetica,sans-Serif" font-size="10.00">CgiHandler::buildEnvp</text>
</a>
</g>
</g>
<!-- Node1&#45;&gt;Node2 -->
<g id="edge1_Node000001_Node000002" class="edge">
<title>Node1&#45;&gt;Node2</title>
<g id="a_edge1_Node000001_Node000002"><a xlink:title=" ">
<path fill="none" stroke="#63b8ff" d="M1428.92,-177.11C1412.53,-197.19 1383.15,-229.67 1351,-248.5 1340.37,-254.73 1327.99,-259.45 1316.16,-262.99"/>
<polygon fill="#63b8ff" stroke="#63b8ff" points="1431.81,-179.09 1435.31,-169.09 1426.34,-174.73 1431.81,-179.09"/>
</a>
</g>
</g>
<!-- Node4 -->
<g id="Node000004" class="node">
<title>Node4</title>
<g id="a_Node000004"><a xlink:href="classDispatcher.html#a13c8a2fd90033adf9788c8774c3f0f47" target="_top" xlink:title="Central dispatch routine that delegates HTTP requests to the appropriate handler.">
<polygon fill="white" stroke="#666666" points="957,-244 841,-244 841,-225 957,-225 957,-244"/>
<text text-anchor="middle" x="899" y="-232" font-family="Helvetica,sans-Serif" font-size="10.00">Dispatcher::dispatch</text>
</a>
</g>
</g>
<!-- Node1&#45;&gt;Node4 -->
<g id="edge17_Node000001_Node000004" class="edge">
<title>Node1&#45;&gt;Node4</title>
<g id="a_edge17_Node000001_Node000004"><a xlink:title=" ">
<path fill="none" stroke="#63b8ff" d="M1423.02,-175.52C1405.41,-188.95 1378.16,-207.23 1351,-215.5 1214.56,-257.06 1044.17,-249.13 957.06,-241.07"/>
<polygon fill="#63b8ff" stroke="#63b8ff" points="1425.6,-177.95 1431.3,-169.01 1421.28,-172.44 1425.6,-177.95"/>
</a>
</g>
</g>
<!-- Node8 -->
<g id="Node000008" class="node">
<title>Node8</title>
<g id="a_Node000008"><a xlink:href="classRequestParse.html#a3a3d2f425b7652c12b681fed8a66b8d9" target="_top" xlink:title="Validates if the HTTP method is allowed in the matched location block.">
<polygon fill="white" stroke="#666666" points="1346,-19 1192,-19 1192,0 1346,0 1346,-19"/>
<text text-anchor="middle" x="1269" y="-7" font-family="Helvetica,sans-Serif" font-size="10.00">RequestParse::checkMethod</text>
</a>
</g>
</g>
<!-- Node1&#45;&gt;Node8 -->
<g id="edge7_Node000001_Node000008" class="edge">
<title>Node1&#45;&gt;Node8</title>
<g id="a_edge7_Node000001_Node000008"><a xlink:title=" ">
<path fill="none" stroke="#63b8ff" d="M1433.8,-140.62C1420.12,-112.98 1390.93,-61.73 1351,-33.5 1342.02,-27.15 1331.35,-22.46 1320.75,-19"/>
<polygon fill="#63b8ff" stroke="#63b8ff" points="1430.8,-142.45 1438.28,-149.96 1437.12,-139.43 1430.8,-142.45"/>
</a>
</g>
</g>
<!-- Node13 -->
<g id="Node000013" class="node">
<title>Node13</title>
<g id="a_Node000013"><a xlink:href="classRouter.html#a8155613701b9739e2ae1e34c39894247" target="_top" xlink:title="Computes the absolute filesystem path of the requested resource.">
<polygon fill="white" stroke="#666666" points="1351,-95 1187,-95 1187,-76 1351,-76 1351,-95"/>
<text text-anchor="middle" x="1269" y="-83" font-family="Helvetica,sans-Serif" font-size="10.00">Router::computeResolvedPath</text>
</a>
</g>
</g>
<!-- Node1&#45;&gt;Node13 -->
<g id="edge14_Node000001_Node000013" class="edge">
<title>Node1&#45;&gt;Node13</title>
<g id="a_edge14_Node000001_Node000013"><a xlink:title=" ">
<path fill="none" stroke="#63b8ff" d="M1421.4,-143.78C1403.51,-131.17 1376.73,-113.9 1351,-103.5 1342.72,-100.15 1333.7,-97.37 1324.78,-95.08"/>
<polygon fill="#63b8ff" stroke="#63b8ff" points="1419.73,-146.89 1429.89,-149.9 1423.82,-141.21 1419.73,-146.89"/>
</a>
</g>
</g>
<!-- Node14 -->
<g id="Node000014" class="node">
<title>Node14</title>
<g id="a_Node000014"><a xlink:href="classRouter.html#aa58c0c6f2a1fc66a6e2a78adfae162e6" target="_top" xlink:title="Main entry point for determining how an HTTP request should be handled.">
<polygon fill="white" stroke="#666666" points="1125,-151 1034,-151 1034,-132 1125,-132 1125,-151"/>
<text text-anchor="middle" x="1079.5" y="-139" font-family="Helvetica,sans-Serif" font-size="10.00">Router::resolve</text>
</a>
</g>
</g>
<!-- Node1&#45;&gt;Node14 -->
<g id="edge26_Node000001_Node000014" class="edge">
<title>Node1&#45;&gt;Node14</title>
<g id="a_edge26_Node000001_Node000014"><a xlink:title=" ">
<path fill="none" stroke="#63b8ff" d="M1431.12,-141.04C1416.01,-118.52 1387.01,-81.59 1351,-66.5 1283.77,-38.33 1256.49,-44.49 1187,-66.5 1145.82,-79.54 1106.81,-114.87 1089.65,-131.97"/>
<polygon fill="#63b8ff" stroke="#63b8ff" points="1428.35,-143.21 1436.72,-149.71 1434.23,-139.41 1428.35,-143.21"/>
</a>
</g>
</g>
<!-- Node15 -->
<g id="Node000015" class="node">
<title>Node15</title>
<g id="a_Node000015"><a xlink:href="classAutoIndexHandler.html#a19f63277112e5a0d50bb8d570527ce0a" target="_top" xlink:title="Generates and serves an HTML directory listing when autoindex is enabled.">
<polygon fill="white" stroke="#666666" points="1151,-319 1008,-319 1008,-300 1151,-300 1151,-319"/>
<text text-anchor="middle" x="1079.5" y="-307" font-family="Helvetica,sans-Serif" font-size="10.00">AutoIndexHandler::handle</text>
</a>
</g>
</g>
<!-- Node1&#45;&gt;Node15 -->
<g id="edge18_Node000001_Node000015" class="edge">
<title>Node1&#45;&gt;Node15</title>
<g id="a_edge18_Node000001_Node000015"><a xlink:title=" ">
<path fill="none" stroke="#63b8ff" d="M1435.68,-178.38C1423.73,-208.35 1395.92,-266.04 1351,-291.5 1284.05,-329.44 1192.28,-326.26 1134.7,-319.01"/>
<polygon fill="#63b8ff" stroke="#63b8ff" points="1438.95,-179.62 1439.25,-169.03 1432.41,-177.12 1438.95,-179.62"/>
</a>
</g>
</g>
<!-- Node16 -->
<g id="Node000016" class="node">
<title>Node16</title>
<g id="a_Node000016"><a xlink:href="classRouter.html#abc4267c8a267ca9baf524891e1443037" target="_top" xlink:title="Determines whether to enable AutoIndex for a directory listing.">
<polygon fill="white" stroke="#666666" points="1325.5,-206 1212.5,-206 1212.5,-187 1325.5,-187 1325.5,-206"/>
<text text-anchor="middle" x="1269" y="-194" font-family="Helvetica,sans-Serif" font-size="10.00">Router::isAutoIndex</text>
</a>
</g>
</g>
<!-- Node1&#45;&gt;Node16 -->
<g id="edge20_Node000001_Node000016" class="edge">
<title>Node1&#45;&gt;Node16</title>
<g id="a_edge20_Node000001_Node000016"><a xlink:title=" ">
<path fill="none" stroke="#63b8ff" d="M1388.18,-171.15C1364.48,-176.23 1337.04,-182.12 1314.57,-186.94"/>
<polygon fill="#63b8ff" stroke="#63b8ff" points="1389.03,-174.55 1398.08,-169.03 1387.57,-167.7 1389.03,-174.55"/>
</a>
</g>
</g>
<!-- Node17 -->
<g id="Node000017" class="node">
<title>Node17</title>
<g id="a_Node000017"><a xlink:href="classRouter.html#a9cccffeb5ef1889ffc62987c437f6c59" target="_top" xlink:title="Checks if the request triggers an HTTP redirect.">
<polygon fill="white" stroke="#666666" points="1321,-169 1217,-169 1217,-150 1321,-150 1321,-169"/>
<text text-anchor="middle" x="1269" y="-157" font-family="Helvetica,sans-Serif" font-size="10.00">Router::isRedirect</text>
</a>
</g>
</g>
<!-- Node1&#45;&gt;Node17 -->
<g id="edge22_Node000001_Node000017" class="edge">
<title>Node1&#45;&gt;Node17</title>
<g id="a_edge22_Node000001_Node000017"><a xlink:title=" ">
<path fill="none" stroke="#63b8ff" d="M1376.86,-159.5C1358.37,-159.5 1338.54,-159.5 1321.04,-159.5"/>
<polygon fill="#63b8ff" stroke="#63b8ff" points="1376.97,-163 1386.97,-159.5 1376.97,-156 1376.97,-163"/>
</a>
</g>
</g>
<!-- Node18 -->
<g id="Node000018" class="node">
<title>Node18</title>
<g id="a_Node000018"><a xlink:href="classRouter.html#ab76bed10e7facdd1b6e4be3f2bbbff0f" target="_top" xlink:title="Determines if the current request is a valid upload operation.">
<polygon fill="white" stroke="#666666" points="1318,-132 1220,-132 1220,-113 1318,-113 1318,-132"/>
<text text-anchor="middle" x="1269" y="-120" font-family="Helvetica,sans-Serif" font-size="10.00">Router::isUpload</text>
</a>
</g>
</g>
<!-- Node1&#45;&gt;Node18 -->
<g id="edge24_Node000001_Node000018" class="edge">
<title>Node1&#45;&gt;Node18</title>
<g id="a_edge24_Node000001_Node000018"><a xlink:title=" ">
<path fill="none" stroke="#63b8ff" d="M1388.18,-147.85C1364.48,-142.77 1337.04,-136.88 1314.57,-132.06"/>
<polygon fill="#63b8ff" stroke="#63b8ff" points="1387.57,-151.3 1398.08,-149.97 1389.03,-144.45 1387.57,-151.3"/>
</a>
</g>
</g>
<!-- Node3 -->
<g id="Node000003" class="node">
<title>Node3</title>
<g id="a_Node000003"><a xlink:href="classCgiHandler.html#aa5b570b370a65926aaedd54b61350e58" target="_top" xlink:title="Starts an asynchronous CGI execution process.">
<polygon fill="white" stroke="#666666" points="1143.5,-282 1015.5,-282 1015.5,-263 1143.5,-263 1143.5,-282"/>
<text text-anchor="middle" x="1079.5" y="-270" font-family="Helvetica,sans-Serif" font-size="10.00">CgiHandler::startAsync</text>
</a>
</g>
</g>
<!-- Node2&#45;&gt;Node3 -->
<g id="edge2_Node000002_Node000003" class="edge">
<title>Node2&#45;&gt;Node3</title>
<g id="a_edge2_Node000002_Node000003"><a xlink:title=" ">
<path fill="none" stroke="#63b8ff" d="M1196.31,-272.5C1179.02,-272.5 1160.67,-272.5 1143.8,-272.5"/>
<polygon fill="#63b8ff" stroke="#63b8ff" points="1196.35,-276 1206.35,-272.5 1196.35,-269 1196.35,-276"/>
</a>
</g>
</g>
<!-- Node3&#45;&gt;Node4 -->
<g id="edge3_Node000003_Node000004" class="edge">
<title>Node3&#45;&gt;Node4</title>
<g id="a_edge3_Node000003_Node000004"><a xlink:title=" ">
<path fill="none" stroke="#63b8ff" d="M1023.63,-260.82C998.32,-255.43 968.65,-249.11 944.72,-244.02"/>
<polygon fill="#63b8ff" stroke="#63b8ff" points="1022.95,-264.25 1033.46,-262.91 1024.4,-257.41 1022.95,-264.25"/>
</a>
</g>
</g>
<!-- Node5 -->
<g id="Node000005" class="node">
<title>Node5</title>
<g id="a_Node000005"><a xlink:href="classWebServer.html#a8cbf37c0a840305ce15e8648566c9ce4" target="_top" xlink:title="Handles incoming data from a connected client.">
<polygon fill="white" stroke="#666666" points="386,-185 235,-185 235,-166 386,-166 386,-185"/>
<text text-anchor="middle" x="310.5" y="-173" font-family="Helvetica,sans-Serif" font-size="10.00">WebServer::receiveRequest</text>
</a>
</g>
</g>
<!-- Node4&#45;&gt;Node5 -->
<g id="edge4_Node000004_Node000005" class="edge">
<title>Node4&#45;&gt;Node5</title>
<g id="a_edge4_Node000004_Node000005"><a xlink:title=" ">
<path fill="none" stroke="#63b8ff" d="M830.95,-227.75C720.51,-216.65 501.17,-194.58 386.03,-183"/>
<polygon fill="#63b8ff" stroke="#63b8ff" points="830.66,-231.24 840.96,-228.76 831.36,-224.28 830.66,-231.24"/>
</a>
</g>
</g>
<!-- Node6 -->
<g id="Node000006" class="node">
<title>Node6</title>
<g id="a_Node000006"><a xlink:href="classWebServer.html#af39709e3744077e019aa76555f03a42e" target="_top" xlink:title="Main event loop — monitors sockets, dispatches requests, and handles responses.">
<polygon fill="white" stroke="#666666" points="199,-185 77,-185 77,-166 199,-166 199,-185"/>
<text text-anchor="middle" x="138" y="-173" font-family="Helvetica,sans-Serif" font-size="10.00">WebServer::runServer</text>
</a>
</g>
</g>
<!-- Node5&#45;&gt;Node6 -->
<g id="edge5_Node000005_Node000006" class="edge">
<title>Node5&#45;&gt;Node6</title>
<g id="a_edge5_Node000005_Node000006"><a xlink:title=" ">
<path fill="none" stroke="#63b8ff" d="M224.63,-175.5C216.02,-175.5 207.4,-175.5 199.13,-175.5"/>
<polygon fill="#63b8ff" stroke="#63b8ff" points="224.72,-179 234.72,-175.5 224.72,-172 224.72,-179"/>
</a>
</g>
</g>
<!-- Node7 -->
<g id="Node000007" class="node">
<title>Node7</title>
<g id="a_Node000007"><a xlink:href="main_8cpp.html#a3c04138a5bfe5d72780bb7e82a18e627" target="_top" xlink:title="Entry point of the Webservinho web server.">
<polygon fill="white" stroke="#666666" points="41,-185 0,-185 0,-166 41,-166 41,-185"/>
<text text-anchor="middle" x="20.5" y="-173" font-family="Helvetica,sans-Serif" font-size="10.00">main</text>
</a>
</g>
</g>
<!-- Node6&#45;&gt;Node7 -->
<g id="edge6_Node000006_Node000007" class="edge">
<title>Node6&#45;&gt;Node7</title>
<g id="a_edge6_Node000006_Node000007"><a xlink:title=" ">
<path fill="none" stroke="#63b8ff" d="M66.66,-175.5C57.35,-175.5 48.51,-175.5 41.15,-175.5"/>
<polygon fill="#63b8ff" stroke="#63b8ff" points="66.88,-179 76.88,-175.5 66.88,-172 66.88,-179"/>
</a>
</g>
</g>
<!-- Node9 -->
<g id="Node000009" class="node">
<title>Node9</title>
<g id="a_Node000009"><a xlink:href="classRequestParse.html#aba25f85cb2196680c3f6efb539ddb81b" target="_top" xlink:title="Determines the HTTP method and validates it against configuration.">
<polygon fill="white" stroke="#666666" points="1142.5,-49 1016.5,-49 1016.5,-30 1142.5,-30 1142.5,-49"/>
<text text-anchor="middle" x="1079.5" y="-37" font-family="Helvetica,sans-Serif" font-size="10.00">RequestParse::method</text>
</a>
</g>
</g>
<!-- Node8&#45;&gt;Node9 -->
<g id="edge8_Node000008_Node000009" class="edge">
<title>Node8&#45;&gt;Node9</title>
<g id="a_edge8_Node000008_Node000009"><a xlink:title=" ">
<path fill="none" stroke="#63b8ff" d="M1198.5,-20.62C1179.26,-23.7 1158.55,-27.01 1139.93,-29.99"/>
<polygon fill="#63b8ff" stroke="#63b8ff" points="1199.09,-24.07 1208.42,-19.03 1197.99,-17.16 1199.09,-24.07"/>
</a>
</g>
</g>
<!-- Node9&#45;&gt;Node9 -->
<g id="edge9_Node000009_Node000009" class="edge">
<title>Node9&#45;&gt;Node9</title>
<g id="a_edge9_Node000009_Node000009"><a xlink:title=" ">
<path fill="none" stroke="#63b8ff" d="M1113.18,-57.45C1112.22,-62.82 1100.99,-67 1079.5,-67 1047.51,-67 1038.26,-57.73 1051.76,-49.08"/>
<polygon fill="#63b8ff" stroke="#63b8ff" points="1115.89,-55.21 1107.24,-49.08 1110.18,-59.26 1115.89,-55.21"/>
</a>
</g>
</g>
<!-- Node10 -->
<g id="Node000010" class="node">
<title>Node10</title>
<g id="a_Node000010"><a xlink:href="classRequestParse.html#abba0923a3ae7422916f11a81b7c4d552" target="_top" xlink:title="Parses the HTTP request line (method, URI, version).">
<polygon fill="white" stroke="#666666" points="972,-97 826,-97 826,-78 972,-78 972,-97"/>
<text text-anchor="middle" x="899" y="-85" font-family="Helvetica,sans-Serif" font-size="10.00">RequestParse::requestLine</text>
</a>
</g>
</g>
<!-- Node9&#45;&gt;Node10 -->
<g id="edge10_Node000009_Node000010" class="edge">
<title>Node9&#45;&gt;Node10</title>
<g id="a_edge10_Node000009_Node000010"><a xlink:title=" ">
<path fill="none" stroke="#63b8ff" d="M1032.92,-51.76C1002.69,-59.89 963.59,-70.4 935.63,-77.92"/>
<polygon fill="#63b8ff" stroke="#63b8ff" points="1034.06,-55.07 1042.81,-49.1 1032.24,-48.32 1034.06,-55.07"/>
</a>
</g>
</g>
<!-- Node11 -->
<g id="Node000011" class="node">
<title>Node11</title>
<g id="a_Node000011"><a xlink:href="classRequestParse.html#a5f2f35f5815fbb977cde05b19af41687" target="_top" xlink:title="Parses and processes raw HTTP request data incrementally.">
<polygon fill="white" stroke="#666666" points="790,-143 608,-143 608,-124 790,-124 790,-143"/>
<text text-anchor="middle" x="699" y="-131" font-family="Helvetica,sans-Serif" font-size="10.00">RequestParse::handleRawRequest</text>
</a>
</g>
</g>
<!-- Node10&#45;&gt;Node11 -->
<g id="edge11_Node000010_Node000011" class="edge">
<title>Node10&#45;&gt;Node11</title>
<g id="a_edge11_Node000010_Node000011"><a xlink:title=" ">
<path fill="none" stroke="#63b8ff" d="M847.07,-99.33C814.11,-106.99 771.76,-116.83 740.97,-123.98"/>
<polygon fill="#63b8ff" stroke="#63b8ff" points="848.03,-102.7 856.97,-97.03 846.44,-95.89 848.03,-102.7"/>
</a>
</g>
</g>
<!-- Node12 -->
<g id="Node000012" class="node">
<title>Node12</title>
<g id="a_Node000012"><a xlink:href="classClientConnection.html#a835586ce27b3c3598394bde3fff14211" target="_top" xlink:title="Receives incoming data from the client socket.">
<polygon fill="white" stroke="#666666" points="572,-166 422,-166 422,-147 572,-147 572,-166"/>
<text text-anchor="middle" x="497" y="-154" font-family="Helvetica,sans-Serif" font-size="10.00">ClientConnection::recvData</text>
</a>
</g>
</g>
<!-- Node11&#45;&gt;Node12 -->
<g id="edge12_Node000011_Node000012" class="edge">
<title>Node11&#45;&gt;Node12</title>
<g id="a_edge12_Node000011_Node000012"><a xlink:title=" ">
<path fill="none" stroke="#63b8ff" d="M605.1,-144.18C594.03,-145.46 582.85,-146.74 572.1,-147.98"/>
<polygon fill="#63b8ff" stroke="#63b8ff" points="605.67,-147.64 615.21,-143.02 604.87,-140.69 605.67,-147.64"/>
</a>
</g>
</g>
<!-- Node12&#45;&gt;Node5 -->
<g id="edge13_Node000012_Node000005" class="edge">
<title>Node12&#45;&gt;Node5</title>
<g id="a_edge13_Node000012_Node000005"><a xlink:title=" ">
<path fill="none" stroke="#63b8ff" d="M411.79,-165.17C403.25,-166.05 394.62,-166.94 386.19,-167.81"/>
<polygon fill="#63b8ff" stroke="#63b8ff" points="412.17,-168.65 421.75,-164.15 411.45,-161.69 412.17,-168.65"/>
</a>
</g>
</g>
<!-- Node13&#45;&gt;Node14 -->
<g id="edge15_Node000013_Node000014" class="edge">
<title>Node13&#45;&gt;Node14</title>
<g id="a_edge15_Node000013_Node000014"><a xlink:title=" ">
<path fill="none" stroke="#63b8ff" d="M1210.31,-97.4C1202.44,-99.29 1194.49,-101.34 1187,-103.5 1158.33,-111.77 1126.16,-123.61 1104.75,-131.87"/>
<polygon fill="#63b8ff" stroke="#63b8ff" points="1211.26,-100.77 1220.21,-95.09 1209.67,-93.95 1211.26,-100.77"/>
</a>
</g>
</g>
<!-- Node14&#45;&gt;Node4 -->
<g id="edge16_Node000014_Node000004" class="edge">
<title>Node14&#45;&gt;Node4</title>
<g id="a_edge16_Node000014_Node000004"><a xlink:title=" ">
<path fill="none" stroke="#63b8ff" d="M1050.89,-155.89C1014.02,-175.09 949.74,-208.58 918.33,-224.95"/>
<polygon fill="#63b8ff" stroke="#63b8ff" points="1052.82,-158.83 1060.07,-151.1 1049.58,-152.62 1052.82,-158.83"/>
</a>
</g>
</g>
<!-- Node15&#45;&gt;Node4 -->
<g id="edge19_Node000015_Node000004" class="edge">
<title>Node15&#45;&gt;Node4</title>
<g id="a_edge19_Node000015_Node000004"><a xlink:title=" ">
<path fill="none" stroke="#63b8ff" d="M1024.34,-297.07C1018.77,-295.37 1013.23,-293.52 1008,-291.5 973.38,-278.16 935.62,-256.42 915.2,-244"/>
<polygon fill="#63b8ff" stroke="#63b8ff" points="1023.8,-300.55 1034.37,-299.94 1025.72,-293.82 1023.8,-300.55"/>
</a>
</g>
</g>
<!-- Node16&#45;&gt;Node14 -->
<g id="edge21_Node000016_Node000014" class="edge">
<title>Node16&#45;&gt;Node14</title>
<g id="a_edge21_Node000016_Node000014"><a xlink:title=" ">
<path fill="none" stroke="#63b8ff" d="M1210.9,-184.68C1202.84,-182.76 1194.68,-180.68 1187,-178.5 1158.75,-170.48 1127.05,-159.16 1105.63,-151.15"/>
<polygon fill="#63b8ff" stroke="#63b8ff" points="1210.12,-188.09 1220.65,-186.94 1211.7,-181.28 1210.12,-188.09"/>
</a>
</g>
</g>
<!-- Node17&#45;&gt;Node14 -->
<g id="edge23_Node000017_Node000014" class="edge">
<title>Node17&#45;&gt;Node14</title>
<g id="a_edge23_Node000017_Node000014"><a xlink:title=" ">
<path fill="none" stroke="#63b8ff" d="M1206.8,-153.62C1180.23,-151.07 1149.69,-148.14 1125.29,-145.8"/>
<polygon fill="#63b8ff" stroke="#63b8ff" points="1206.48,-157.11 1216.76,-154.58 1207.15,-150.14 1206.48,-157.11"/>
</a>
</g>
</g>
<!-- Node18&#45;&gt;Node14 -->
<g id="edge25_Node000018_Node000014" class="edge">
<title>Node18&#45;&gt;Node14</title>
<g id="a_edge25_Node000018_Node000014"><a xlink:title=" ">
<path fill="none" stroke="#63b8ff" d="M1209.52,-128.43C1182.26,-131.19 1150.35,-134.42 1125.09,-136.98"/>
<polygon fill="#63b8ff" stroke="#63b8ff" points="1210.12,-131.88 1219.71,-127.39 1209.41,-124.92 1210.12,-131.88"/>
</a>
</g>
</g>
</g>
</svg>
