<?xml version="1.0" encoding="UTF-8" standalone="no"?>
<!DOCTYPE svg PUBLIC "-//W3C//DTD SVG 1.1//EN"
 "http://www.w3.org/Graphics/SVG/1.1/DTD/svg11.dtd">
<!-- Generated by graphviz version 2.43.0 (0)
 -->
<!-- Title: UploadHandler::parsePart Pages: 1 -->
<svg width="609pt" height="82pt"
 viewBox="0.00 0.00 609.00 82.00" xmlns="http://www.w3.org/2000/svg" xmlns:xlink="http://www.w3.org/1999/xlink">
<g id="graph0" class="graph" transform="scale(1 1) rotate(0) translate(4 78)">
<title>UploadHandler::parsePart</title>
<!-- Node1 -->
<g id="Node000001" class="node">
<title>Node1</title>
<g id="a_Node000001"><a xlink:title="Parses an individual multipart section.">
<polygon fill="#999999" stroke="#666666" points="141,-37 0,-37 0,-18 141,-18 141,-37"/>
<text text-anchor="middle" x="70.5" y="-25" font-family="Helvetica,sans-Serif" font-size="10.00">UploadHandler::parsePart</text>
</a>
</g>
</g>
<!-- Node2 -->
<g id="Node000002" class="node">
<title>Node2</title>
<g id="a_Node000002"><a xlink:href="classUploadHandler.html#a0424d4becb0ad12b775f83822f69595c" target="_top" xlink:title="Saves a parsed file part to disk.">
<polygon fill="white" stroke="#666666" points="313,-56 177,-56 177,-37 313,-37 313,-56"/>
<text text-anchor="middle" x="245" y="-44" font-family="Helvetica,sans-Serif" font-size="10.00">UploadHandler::saveFile</text>
</a>
</g>
</g>
<!-- Node1&#45;&gt;Node2 -->
<g id="edge1_Node000001_Node000002" class="edge">
<title>Node1&#45;&gt;Node2</title>
<g id="a_edge1_Node000001_Node000002"><a xlink:title=" ">
<path fill="none" stroke="#63b8ff" d="M141.17,-35.17C149.63,-36.11 158.32,-37.06 166.89,-38.01"/>
<polygon fill="#63b8ff" stroke="#63b8ff" points="166.55,-41.49 176.87,-39.11 167.32,-34.53 166.55,-41.49"/>
</a>
</g>
</g>
<!-- Node6 -->
<g id="Node000006" class="node">
<title>Node6</title>
<g id="a_Node000006"><a xlink:href="string__utils_8hpp.html#a8577ae0e014b88657679bf92631ee8c4" target="_top" xlink:title="Returns a copy of a string with surrounding spaces and tabs removed.">
<polygon fill="white" stroke="#666666" points="277.5,-19 212.5,-19 212.5,0 277.5,0 277.5,-19"/>
<text text-anchor="middle" x="245" y="-7" font-family="Helvetica,sans-Serif" font-size="10.00">trim_copy</text>
</a>
</g>
</g>
<!-- Node1&#45;&gt;Node6 -->
<g id="edge5_Node000001_Node000006" class="edge">
<title>Node1&#45;&gt;Node6</title>
<g id="a_edge5_Node000001_Node000006"><a xlink:title=" ">
<path fill="none" stroke="#63b8ff" d="M141.17,-20.23C161.9,-18.07 183.96,-15.77 202.31,-13.85"/>
<polygon fill="#63b8ff" stroke="#63b8ff" points="202.78,-17.32 212.37,-12.8 202.06,-10.36 202.78,-17.32"/>
</a>
</g>
</g>
<!-- Node3 -->
<g id="Node000003" class="node">
<title>Node3</title>
<g id="a_Node000003"><a xlink:href="classLogger.html#a4aa4d7c3b98f6e12e7ea8253da5ea0cd" target="_top" xlink:title="Returns the singleton instance of the Logger.">
<polygon fill="white" stroke="#666666" points="446,-74 349,-74 349,-55 446,-55 446,-74"/>
<text text-anchor="middle" x="397.5" y="-62" font-family="Helvetica,sans-Serif" font-size="10.00">Logger::instance</text>
</a>
</g>
</g>
<!-- Node2&#45;&gt;Node3 -->
<g id="edge2_Node000002_Node000003" class="edge">
<title>Node2&#45;&gt;Node3</title>
<g id="a_edge2_Node000002_Node000003"><a xlink:title=" ">
<path fill="none" stroke="#63b8ff" d="M313.33,-54.55C321.78,-55.56 330.38,-56.59 338.67,-57.58"/>
<polygon fill="#63b8ff" stroke="#63b8ff" points="338.26,-61.06 348.61,-58.77 339.1,-54.11 338.26,-61.06"/>
</a>
</g>
</g>
<!-- Node4 -->
<g id="Node000004" class="node">
<title>Node4</title>
<g id="a_Node000004"><a xlink:href="classLogger.html#a3d3f0801eeaf39b33a906ea8569c19b2" target="_top" xlink:title="Writes a log entry with timestamp, level, and message.">
<polygon fill="white" stroke="#666666" points="433,-37 362,-37 362,-18 433,-18 433,-37"/>
<text text-anchor="middle" x="397.5" y="-25" font-family="Helvetica,sans-Serif" font-size="10.00">Logger::log</text>
</a>
</g>
</g>
<!-- Node2&#45;&gt;Node4 -->
<g id="edge3_Node000002_Node000004" class="edge">
<title>Node2&#45;&gt;Node4</title>
<g id="a_edge3_Node000002_Node000004"><a xlink:title=" ">
<path fill="none" stroke="#63b8ff" d="M313.33,-38C326.28,-36.36 339.55,-34.69 351.58,-33.17"/>
<polygon fill="#63b8ff" stroke="#63b8ff" points="352.31,-36.61 361.79,-31.88 351.43,-29.66 352.31,-36.61"/>
</a>
</g>
</g>
<!-- Node5 -->
<g id="Node000005" class="node">
<title>Node5</title>
<g id="a_Node000005"><a xlink:href="classLogger.html#a19f9ef22095a67c9fe420c9d6e761fc2" target="_top" xlink:title="Converts a LogLevel enum value to its string label.">
<polygon fill="white" stroke="#666666" points="601,-37 482,-37 482,-18 601,-18 601,-37"/>
<text text-anchor="middle" x="541.5" y="-25" font-family="Helvetica,sans-Serif" font-size="10.00">Logger::levelToString</text>
</a>
</g>
</g>
<!-- Node4&#45;&gt;Node5 -->
<g id="edge4_Node000004_Node000005" class="edge">
<title>Node4&#45;&gt;Node5</title>
<g id="a_edge4_Node000004_Node000005"><a xlink:title=" ">
<path fill="none" stroke="#63b8ff" d="M433.24,-27.5C444.88,-27.5 458.31,-27.5 471.63,-27.5"/>
<polygon fill="#63b8ff" stroke="#63b8ff" points="471.77,-31 481.77,-27.5 471.77,-24 471.77,-31"/>
</a>
</g>
</g>
</g>
</svg>
