<?xml version="1.0" encoding="UTF-8" standalone="no"?>
<!DOCTYPE svg PUBLIC "-//W3C//DTD SVG 1.1//EN"
 "http://www.w3.org/Graphics/SVG/1.1/DTD/svg11.dtd">
<!-- Generated by graphviz version 2.43.0 (0)
 -->
<!-- Title: ConfigParser::tokenize Pages: 1 -->
<svg width="374pt" height="27pt"
 viewBox="0.00 0.00 374.00 27.00" xmlns="http://www.w3.org/2000/svg" xmlns:xlink="http://www.w3.org/1999/xlink">
<g id="graph0" class="graph" transform="scale(1 1) rotate(0) translate(4 23)">
<title>ConfigParser::tokenize</title>
<!-- Node1 -->
<g id="Node000001" class="node">
<title>Node1</title>
<g id="a_Node000001"><a xlink:title="Tokenizes the cleaned configuration text into atomic strings and delimiters.">
<polygon fill="#999999" stroke="#666666" points="366,-19 241,-19 241,0 366,0 366,-19"/>
<text text-anchor="middle" x="303.5" y="-7" font-family="Helvetica,sans-Serif" font-size="10.00">ConfigParser::tokenize</text>
</a>
</g>
</g>
<!-- Node2 -->
<g id="Node000002" class="node">
<title>Node2</title>
<g id="a_Node000002"><a xlink:href="classConfigParser.html#a37f7f2df580ba720a140bd0fa7b6598c" target="_top" xlink:title="Parses the entire configuration file and returns a populated Config object.">
<polygon fill="white" stroke="#666666" points="205,-19 77,-19 77,0 205,0 205,-19"/>
<text text-anchor="middle" x="141" y="-7" font-family="Helvetica,sans-Serif" font-size="10.00">ConfigParser::parseFile</text>
</a>
</g>
</g>
<!-- Node1&#45;&gt;Node2 -->
<g id="edge1_Node000001_Node000002" class="edge">
<title>Node1&#45;&gt;Node2</title>
<g id="a_edge1_Node000001_Node000002"><a xlink:title=" ">
<path fill="none" stroke="#63b8ff" d="M230.88,-9.5C222.26,-9.5 213.51,-9.5 205.02,-9.5"/>
<polygon fill="#63b8ff" stroke="#63b8ff" points="230.91,-13 240.91,-9.5 230.91,-6 230.91,-13"/>
</a>
</g>
</g>
<!-- Node3 -->
<g id="Node000003" class="node">
<title>Node3</title>
<g id="a_Node000003"><a xlink:href="main_8cpp.html#a3c04138a5bfe5d72780bb7e82a18e627" target="_top" xlink:title="Entry point of the Webservinho web server.">
<polygon fill="white" stroke="#666666" points="41,-19 0,-19 0,0 41,0 41,-19"/>
<text text-anchor="middle" x="20.5" y="-7" font-family="Helvetica,sans-Serif" font-size="10.00">main</text>
</a>
</g>
</g>
<!-- Node2&#45;&gt;Node3 -->
<g id="edge2_Node000002_Node000003" class="edge">
<title>Node2&#45;&gt;Node3</title>
<g id="a_edge2_Node000002_Node000003"><a xlink:title=" ">
<path fill="none" stroke="#63b8ff" d="M66.64,-9.5C57.29,-9.5 48.43,-9.5 41.09,-9.5"/>
<polygon fill="#63b8ff" stroke="#63b8ff" points="66.93,-13 76.93,-9.5 66.93,-6 66.93,-13"/>
</a>
</g>
</g>
</g>
</svg>
