<?xml version="1.0" encoding="UTF-8" standalone="no"?>
<!DOCTYPE svg PUBLIC "-//W3C//DTD SVG 1.1//EN"
 "http://www.w3.org/Graphics/SVG/1.1/DTD/svg11.dtd">
<!-- Generated by graphviz version 2.43.0 (0)
 -->
<!-- Title: HttpRequest::getMeta Pages: 1 -->
<svg width="1157pt" height="278pt"
 viewBox="0.00 0.00 1157.00 278.39" xmlns="http://www.w3.org/2000/svg" xmlns:xlink="http://www.w3.org/1999/xlink">
<g id="graph0" class="graph" transform="scale(1 1) rotate(0) translate(4 274.39)">
<title>HttpRequest::getMeta</title>
<!-- Node1 -->
<g id="Node000001" class="node">
<title>Node1</title>
<g id="a_Node000001"><a xlink:title="Returns a const reference to the RequestMeta structure.">
<polygon fill="#999999" stroke="#666666" points="1149,-151 1025,-151 1025,-132 1149,-132 1149,-151"/>
<text text-anchor="middle" x="1087" y="-139" font-family="Helvetica,sans-Serif" font-size="10.00">HttpRequest::getMeta</text>
</a>
</g>
</g>
<!-- Node2 -->
<g id="Node000002" class="node">
<title>Node2</title>
<g id="a_Node000002"><a xlink:href="classRequestParse.html#ab81826a3c30d9a2a4f9d0f8ee6fa855c" target="_top" xlink:title="Processes the message body for both fixed&#45;length and chunked modes.">
<polygon fill="white" stroke="#666666" points="973.5,-208 860.5,-208 860.5,-189 973.5,-189 973.5,-208"/>
<text text-anchor="middle" x="917" y="-196" font-family="Helvetica,sans-Serif" font-size="10.00">RequestParse::body</text>
</a>
</g>
</g>
<!-- Node1&#45;&gt;Node2 -->
<g id="edge1_Node000001_Node000002" class="edge">
<title>Node1&#45;&gt;Node2</title>
<g id="a_edge1_Node000001_Node000002"><a xlink:title=" ">
<path fill="none" stroke="#63b8ff" d="M1048.44,-154.3C1030.45,-160.42 1008.61,-167.85 989,-174.5 974.95,-179.26 959.34,-184.54 946.33,-188.94"/>
<polygon fill="#63b8ff" stroke="#63b8ff" points="1049.65,-157.58 1057.99,-151.05 1047.4,-150.96 1049.65,-157.58"/>
</a>
</g>
</g>
<!-- Node3 -->
<g id="Node000003" class="node">
<title>Node3</title>
<g id="a_Node000003"><a xlink:href="classRequestParse.html#a5f2f35f5815fbb977cde05b19af41687" target="_top" xlink:title="Parses and processes raw HTTP request data incrementally.">
<polygon fill="white" stroke="#666666" points="809,-226 627,-226 627,-207 809,-207 809,-226"/>
<text text-anchor="middle" x="718" y="-214" font-family="Helvetica,sans-Serif" font-size="10.00">RequestParse::handleRawRequest</text>
</a>
</g>
</g>
<!-- Node1&#45;&gt;Node3 -->
<g id="edge16_Node000001_Node000003" class="edge">
<title>Node1&#45;&gt;Node3</title>
<g id="a_edge16_Node000001_Node000003"><a xlink:title=" ">
<path fill="none" stroke="#63b8ff" d="M1076.61,-160.33C1062.07,-187.1 1031.29,-235.07 989,-254.5 901.9,-294.52 783.65,-247.45 738.04,-226.03"/>
<polygon fill="#63b8ff" stroke="#63b8ff" points="1079.85,-161.69 1081.38,-151.21 1073.64,-158.45 1079.85,-161.69"/>
</a>
</g>
</g>
<!-- Node5 -->
<g id="Node000005" class="node">
<title>Node5</title>
<g id="a_Node000005"><a xlink:href="classWebServer.html#a8cbf37c0a840305ce15e8648566c9ce4" target="_top" xlink:title="Handles incoming data from a connected client.">
<polygon fill="white" stroke="#666666" points="395.5,-132 244.5,-132 244.5,-113 395.5,-113 395.5,-132"/>
<text text-anchor="middle" x="320" y="-120" font-family="Helvetica,sans-Serif" font-size="10.00">WebServer::receiveRequest</text>
</a>
</g>
</g>
<!-- Node1&#45;&gt;Node5 -->
<g id="edge23_Node000001_Node000005" class="edge">
<title>Node1&#45;&gt;Node5</title>
<g id="a_edge23_Node000001_Node000005"><a xlink:title=" ">
<path fill="none" stroke="#63b8ff" d="M1014.9,-144.8C895.92,-149.57 649.05,-156.18 441,-140.5 418.63,-138.81 394.1,-135.42 373.09,-132.02"/>
<polygon fill="#63b8ff" stroke="#63b8ff" points="1015.12,-148.3 1024.97,-144.39 1014.84,-141.3 1015.12,-148.3"/>
</a>
</g>
</g>
<!-- Node8 -->
<g id="Node000008" class="node">
<title>Node8</title>
<g id="a_Node000008"><a xlink:href="classResponseBuilder.html#afd79929bb501be85bdc85d86fdce93e9" target="_top" xlink:title="Assembles the complete HTTP response, including error handling.">
<polygon fill="white" stroke="#666666" points="782,-56 654,-56 654,-37 782,-37 782,-56"/>
<text text-anchor="middle" x="718" y="-44" font-family="Helvetica,sans-Serif" font-size="10.00">ResponseBuilder::build</text>
</a>
</g>
</g>
<!-- Node1&#45;&gt;Node8 -->
<g id="edge7_Node000001_Node000008" class="edge">
<title>Node1&#45;&gt;Node8</title>
<g id="a_edge7_Node000001_Node000008"><a xlink:title=" ">
<path fill="none" stroke="#63b8ff" d="M1076.66,-122.51C1062.17,-95.51 1031.46,-47.12 989,-27.5 906.25,10.74 793.86,-19.89 744.28,-36.97"/>
<polygon fill="#63b8ff" stroke="#63b8ff" points="1073.71,-124.43 1081.41,-131.71 1079.93,-121.22 1073.71,-124.43"/>
</a>
</g>
</g>
<!-- Node9 -->
<g id="Node000009" class="node">
<title>Node9</title>
<g id="a_Node000009"><a xlink:href="classDispatcher.html#a13c8a2fd90033adf9788c8774c3f0f47" target="_top" xlink:title="Central dispatch routine that delegates HTTP requests to the appropriate handler.">
<polygon fill="white" stroke="#666666" points="574,-132 458,-132 458,-113 574,-113 574,-132"/>
<text text-anchor="middle" x="516" y="-120" font-family="Helvetica,sans-Serif" font-size="10.00">Dispatcher::dispatch</text>
</a>
</g>
</g>
<!-- Node1&#45;&gt;Node9 -->
<g id="edge15_Node000001_Node000009" class="edge">
<title>Node1&#45;&gt;Node9</title>
<g id="a_edge15_Node000001_Node000009"><a xlink:title=" ">
<path fill="none" stroke="#63b8ff" d="M1058.43,-127.5C1039.45,-118.67 1013.37,-108.1 989,-103.5 830.91,-73.64 787.3,-89.76 627,-103.5 605.37,-105.35 581.62,-109.22 561.73,-112.99"/>
<polygon fill="#63b8ff" stroke="#63b8ff" points="1057.13,-130.76 1067.66,-131.92 1060.15,-124.44 1057.13,-130.76"/>
</a>
</g>
</g>
<!-- Node12 -->
<g id="Node000012" class="node">
<title>Node12</title>
<g id="a_Node000012"><a xlink:href="classRequestParse.html#ac3dc2d89d0e245ac752b5327f64bb70d" target="_top" xlink:title="Parses individual HTTP header lines and updates metadata.">
<polygon fill="white" stroke="#666666" points="981,-245 853,-245 853,-226 981,-226 981,-245"/>
<text text-anchor="middle" x="917" y="-233" font-family="Helvetica,sans-Serif" font-size="10.00">RequestParse::headers</text>
</a>
</g>
</g>
<!-- Node1&#45;&gt;Node12 -->
<g id="edge17_Node000001_Node000012" class="edge">
<title>Node1&#45;&gt;Node12</title>
<g id="a_edge17_Node000001_Node000012"><a xlink:title=" ">
<path fill="none" stroke="#63b8ff" d="M1069.01,-158.48C1050.75,-175.79 1020.14,-202.21 989,-217.5 982.15,-220.86 974.61,-223.64 967.08,-225.92"/>
<polygon fill="#63b8ff" stroke="#63b8ff" points="1071.74,-160.72 1076.48,-151.24 1066.87,-155.69 1071.74,-160.72"/>
</a>
</g>
</g>
<!-- Node13 -->
<g id="Node000013" class="node">
<title>Node13</title>
<g id="a_Node000013"><a xlink:href="classHttpRequest.html#a42b01e8d23e15e65ad9c712922a6a812" target="_top" xlink:title="Constructs a new HttpRequest with default initialized state.">
<polygon fill="white" stroke="#666666" points="989,-56 845,-56 845,-37 989,-37 989,-56"/>
<text text-anchor="middle" x="917" y="-44" font-family="Helvetica,sans-Serif" font-size="10.00">HttpRequest::HttpRequest</text>
</a>
</g>
</g>
<!-- Node1&#45;&gt;Node13 -->
<g id="edge19_Node000001_Node000013" class="edge">
<title>Node1&#45;&gt;Node13</title>
<g id="a_edge19_Node000001_Node000013"><a xlink:title=" ">
<path fill="none" stroke="#63b8ff" d="M1067.35,-125.14C1048.62,-109.39 1018.39,-85.76 989,-70.5 977.8,-64.68 964.89,-59.83 953.18,-56.04"/>
<polygon fill="#63b8ff" stroke="#63b8ff" points="1065.23,-127.93 1075.1,-131.77 1069.78,-122.61 1065.23,-127.93"/>
</a>
</g>
</g>
<!-- Node14 -->
<g id="Node000014" class="node">
<title>Node14</title>
<g id="a_Node000014"><a xlink:href="classRouter.html#a9cccffeb5ef1889ffc62987c437f6c59" target="_top" xlink:title="Checks if the request triggers an HTTP redirect.">
<polygon fill="white" stroke="#666666" points="969,-132 865,-132 865,-113 969,-113 969,-132"/>
<text text-anchor="middle" x="917" y="-120" font-family="Helvetica,sans-Serif" font-size="10.00">Router::isRedirect</text>
</a>
</g>
</g>
<!-- Node1&#45;&gt;Node14 -->
<g id="edge20_Node000001_Node000014" class="edge">
<title>Node1&#45;&gt;Node14</title>
<g id="a_edge20_Node000001_Node000014"><a xlink:title=" ">
<path fill="none" stroke="#63b8ff" d="M1014.88,-133.46C999.51,-131.72 983.56,-129.91 969.14,-128.28"/>
<polygon fill="#63b8ff" stroke="#63b8ff" points="1014.54,-136.94 1024.87,-134.59 1015.33,-129.99 1014.54,-136.94"/>
</a>
</g>
</g>
<!-- Node2&#45;&gt;Node3 -->
<g id="edge2_Node000002_Node000003" class="edge">
<title>Node2&#45;&gt;Node3</title>
<g id="a_edge2_Node000002_Node000003"><a xlink:title=" ">
<path fill="none" stroke="#63b8ff" d="M850.03,-204.53C836.92,-205.73 822.95,-207 809.19,-208.26"/>
<polygon fill="#63b8ff" stroke="#63b8ff" points="850.7,-207.98 860.34,-203.59 850.06,-201.01 850.7,-207.98"/>
</a>
</g>
</g>
<!-- Node4 -->
<g id="Node000004" class="node">
<title>Node4</title>
<g id="a_Node000004"><a xlink:href="classClientConnection.html#a835586ce27b3c3598394bde3fff14211" target="_top" xlink:title="Receives incoming data from the client socket.">
<polygon fill="white" stroke="#666666" points="591,-217 441,-217 441,-198 591,-198 591,-217"/>
<text text-anchor="middle" x="516" y="-205" font-family="Helvetica,sans-Serif" font-size="10.00">ClientConnection::recvData</text>
</a>
</g>
</g>
<!-- Node3&#45;&gt;Node4 -->
<g id="edge3_Node000003_Node000004" class="edge">
<title>Node3&#45;&gt;Node4</title>
<g id="a_edge3_Node000003_Node000004"><a xlink:title=" ">
<path fill="none" stroke="#63b8ff" d="M616.86,-211.99C608.25,-211.61 599.64,-211.22 591.29,-210.84"/>
<polygon fill="#63b8ff" stroke="#63b8ff" points="616.8,-215.49 626.95,-212.45 617.11,-208.5 616.8,-215.49"/>
</a>
</g>
</g>
<!-- Node4&#45;&gt;Node5 -->
<g id="edge4_Node000004_Node000005" class="edge">
<title>Node4&#45;&gt;Node5</title>
<g id="a_edge4_Node000004_Node000005"><a xlink:title=" ">
<path fill="none" stroke="#63b8ff" d="M483.7,-193.79C444.18,-176.47 377.19,-147.12 342.8,-132.05"/>
<polygon fill="#63b8ff" stroke="#63b8ff" points="482.56,-197.11 493.12,-197.91 485.37,-190.7 482.56,-197.11"/>
</a>
</g>
</g>
<!-- Node6 -->
<g id="Node000006" class="node">
<title>Node6</title>
<g id="a_Node000006"><a xlink:href="classWebServer.html#af39709e3744077e019aa76555f03a42e" target="_top" xlink:title="Main event loop — monitors sockets, dispatches requests, and handles responses.">
<polygon fill="white" stroke="#666666" points="199,-75 77,-75 77,-56 199,-56 199,-75"/>
<text text-anchor="middle" x="138" y="-63" font-family="Helvetica,sans-Serif" font-size="10.00">WebServer::runServer</text>
</a>
</g>
</g>
<!-- Node5&#45;&gt;Node6 -->
<g id="edge5_Node000005_Node000006" class="edge">
<title>Node5&#45;&gt;Node6</title>
<g id="a_edge5_Node000005_Node000006"><a xlink:title=" ">
<path fill="none" stroke="#63b8ff" d="M274.22,-110.18C261.51,-106.55 247.67,-102.49 235,-98.5 211.46,-91.1 184.96,-81.92 165.77,-75.13"/>
<polygon fill="#63b8ff" stroke="#63b8ff" points="273.56,-113.63 284.14,-112.98 275.47,-106.89 273.56,-113.63"/>
</a>
</g>
</g>
<!-- Node7 -->
<g id="Node000007" class="node">
<title>Node7</title>
<g id="a_Node000007"><a xlink:href="main_8cpp.html#a3c04138a5bfe5d72780bb7e82a18e627" target="_top" xlink:title="Entry point of the Webservinho web server.">
<polygon fill="white" stroke="#666666" points="41,-75 0,-75 0,-56 41,-56 41,-75"/>
<text text-anchor="middle" x="20.5" y="-63" font-family="Helvetica,sans-Serif" font-size="10.00">main</text>
</a>
</g>
</g>
<!-- Node6&#45;&gt;Node7 -->
<g id="edge6_Node000006_Node000007" class="edge">
<title>Node6&#45;&gt;Node7</title>
<g id="a_edge6_Node000006_Node000007"><a xlink:title=" ">
<path fill="none" stroke="#63b8ff" d="M66.66,-65.5C57.35,-65.5 48.51,-65.5 41.15,-65.5"/>
<polygon fill="#63b8ff" stroke="#63b8ff" points="66.88,-69 76.88,-65.5 66.88,-62 66.88,-69"/>
</a>
</g>
</g>
<!-- Node8&#45;&gt;Node6 -->
<g id="edge12_Node000008_Node000006" class="edge">
<title>Node8&#45;&gt;Node6</title>
<g id="a_edge12_Node000008_Node000006"><a xlink:title=" ">
<path fill="none" stroke="#63b8ff" d="M643.92,-55.74C626.59,-57.62 608.17,-59.36 591,-60.5 450.83,-69.78 285.69,-68.52 199.03,-66.93"/>
<polygon fill="#63b8ff" stroke="#63b8ff" points="644.42,-59.2 653.97,-54.62 643.64,-52.25 644.42,-59.2"/>
</a>
</g>
</g>
<!-- Node8&#45;&gt;Node9 -->
<g id="edge8_Node000008_Node000009" class="edge">
<title>Node8&#45;&gt;Node9</title>
<g id="a_edge8_Node000008_Node000009"><a xlink:title=" ">
<path fill="none" stroke="#63b8ff" d="M657.26,-58.81C646.91,-61.96 636.44,-65.81 627,-70.5 608.84,-79.51 608.91,-89.01 591,-98.5 579.78,-104.44 566.83,-109.26 554.92,-112.97"/>
<polygon fill="#63b8ff" stroke="#63b8ff" points="658.46,-62.11 667.13,-56.01 656.55,-55.38 658.46,-62.11"/>
</a>
</g>
</g>
<!-- Node10 -->
<g id="Node000010" class="node">
<title>Node10</title>
<g id="a_Node000010"><a xlink:href="classWebServer.html#a7667bc8a87db8f9987a5e80da9c4cd37" target="_top" xlink:title="Reads CGI process output and assembles it into the client buffer.">
<polygon fill="white" stroke="#666666" points="405,-56 235,-56 235,-37 405,-37 405,-56"/>
<text text-anchor="middle" x="320" y="-44" font-family="Helvetica,sans-Serif" font-size="10.00">WebServer::handleCgiReadable</text>
</a>
</g>
</g>
<!-- Node8&#45;&gt;Node10 -->
<g id="edge10_Node000008_Node000010" class="edge">
<title>Node8&#45;&gt;Node10</title>
<g id="a_edge10_Node000008_Node000010"><a xlink:title=" ">
<path fill="none" stroke="#63b8ff" d="M643.67,-46.5C576.08,-46.5 475.8,-46.5 405.01,-46.5"/>
<polygon fill="#63b8ff" stroke="#63b8ff" points="643.81,-50 653.81,-46.5 643.81,-43 643.81,-50"/>
</a>
</g>
</g>
<!-- Node11 -->
<g id="Node000011" class="node">
<title>Node11</title>
<g id="a_Node000011"><a xlink:href="classWebServer.html#a32042bb7e426cf5c53c2c2860d622342" target="_top" xlink:title="Scans active CGI processes and terminates those exceeding timeout.">
<polygon fill="white" stroke="#666666" points="404,-19 236,-19 236,0 404,0 404,-19"/>
<text text-anchor="middle" x="320" y="-7" font-family="Helvetica,sans-Serif" font-size="10.00">WebServer::sweepCgiTimeouts</text>
</a>
</g>
</g>
<!-- Node8&#45;&gt;Node11 -->
<g id="edge13_Node000008_Node000011" class="edge">
<title>Node8&#45;&gt;Node11</title>
<g id="a_edge13_Node000008_Node000011"><a xlink:title=" ">
<path fill="none" stroke="#63b8ff" d="M643.64,-39.65C575.81,-33.31 475.11,-23.9 404.29,-17.28"/>
<polygon fill="#63b8ff" stroke="#63b8ff" points="643.53,-43.15 653.81,-40.6 644.18,-36.18 643.53,-43.15"/>
</a>
</g>
</g>
<!-- Node9&#45;&gt;Node5 -->
<g id="edge9_Node000009_Node000005" class="edge">
<title>Node9&#45;&gt;Node5</title>
<g id="a_edge9_Node000009_Node000005"><a xlink:title=" ">
<path fill="none" stroke="#63b8ff" d="M447.61,-122.5C430.86,-122.5 412.82,-122.5 395.75,-122.5"/>
<polygon fill="#63b8ff" stroke="#63b8ff" points="447.84,-126 457.84,-122.5 447.84,-119 447.84,-126"/>
</a>
</g>
</g>
<!-- Node10&#45;&gt;Node6 -->
<g id="edge11_Node000010_Node000006" class="edge">
<title>Node10&#45;&gt;Node6</title>
<g id="a_edge11_Node000010_Node000006"><a xlink:title=" ">
<path fill="none" stroke="#63b8ff" d="M224.59,-56.47C215.91,-57.38 207.27,-58.29 199.02,-59.16"/>
<polygon fill="#63b8ff" stroke="#63b8ff" points="225.22,-59.92 234.8,-55.39 224.49,-52.96 225.22,-59.92"/>
</a>
</g>
</g>
<!-- Node11&#45;&gt;Node6 -->
<g id="edge14_Node000011_Node000006" class="edge">
<title>Node11&#45;&gt;Node6</title>
<g id="a_edge14_Node000011_Node000006"><a xlink:title=" ">
<path fill="none" stroke="#63b8ff" d="M258.14,-21.29C250.31,-23.17 242.43,-25.25 235,-27.5 208.75,-35.45 179.59,-47.47 160.37,-55.86"/>
<polygon fill="#63b8ff" stroke="#63b8ff" points="259.06,-24.67 268.02,-19.01 257.48,-17.85 259.06,-24.67"/>
</a>
</g>
</g>
<!-- Node12&#45;&gt;Node3 -->
<g id="edge18_Node000012_Node000003" class="edge">
<title>Node12&#45;&gt;Node3</title>
<g id="a_edge18_Node000012_Node000003"><a xlink:title=" ">
<path fill="none" stroke="#63b8ff" d="M842.88,-228.45C831.86,-227.39 820.39,-226.28 809.06,-225.19"/>
<polygon fill="#63b8ff" stroke="#63b8ff" points="842.57,-231.93 852.86,-229.41 843.24,-224.97 842.57,-231.93"/>
</a>
</g>
</g>
<!-- Node15 -->
<g id="Node000015" class="node">
<title>Node15</title>
<g id="a_Node000015"><a xlink:href="classRouter.html#aa58c0c6f2a1fc66a6e2a78adfae162e6" target="_top" xlink:title="Main entry point for determining how an HTTP request should be handled.">
<polygon fill="white" stroke="#666666" points="763.5,-132 672.5,-132 672.5,-113 763.5,-113 763.5,-132"/>
<text text-anchor="middle" x="718" y="-120" font-family="Helvetica,sans-Serif" font-size="10.00">Router::resolve</text>
</a>
</g>
</g>
<!-- Node14&#45;&gt;Node15 -->
<g id="edge21_Node000014_Node000015" class="edge">
<title>Node14&#45;&gt;Node15</title>
<g id="a_edge21_Node000014_Node000015"><a xlink:title=" ">
<path fill="none" stroke="#63b8ff" d="M854.58,-122.5C825.13,-122.5 790.51,-122.5 763.63,-122.5"/>
<polygon fill="#63b8ff" stroke="#63b8ff" points="854.75,-126 864.75,-122.5 854.75,-119 854.75,-126"/>
</a>
</g>
</g>
<!-- Node15&#45;&gt;Node9 -->
<g id="edge22_Node000015_Node000009" class="edge">
<title>Node15&#45;&gt;Node9</title>
<g id="a_edge22_Node000015_Node000009"><a xlink:title=" ">
<path fill="none" stroke="#63b8ff" d="M661.97,-122.5C634.72,-122.5 601.85,-122.5 574.29,-122.5"/>
<polygon fill="#63b8ff" stroke="#63b8ff" points="662.12,-126 672.12,-122.5 662.12,-119 662.12,-126"/>
</a>
</g>
</g>
</g>
</svg>
