<?xml version="1.0" encoding="UTF-8" standalone="no"?>
<!DOCTYPE svg PUBLIC "-//W3C//DTD SVG 1.1//EN"
 "http://www.w3.org/Graphics/SVG/1.1/DTD/svg11.dtd">
<!-- Generated by graphviz version 2.43.0 (0)
 -->
<!-- Title: HttpRequest::addHeader Pages: 1 -->
<svg width="1135pt" height="46pt"
 viewBox="0.00 0.00 1135.00 46.00" xmlns="http://www.w3.org/2000/svg" xmlns:xlink="http://www.w3.org/1999/xlink">
<g id="graph0" class="graph" transform="scale(1 1) rotate(0) translate(4 42)">
<title>HttpRequest::addHeader</title>
<!-- Node1 -->
<g id="Node000001" class="node">
<title>Node1</title>
<g id="a_Node000001"><a xlink:title="Adds or appends a header field to the internal map.">
<polygon fill="#999999" stroke="#666666" points="1127,-38 990,-38 990,-19 1127,-19 1127,-38"/>
<text text-anchor="middle" x="1058.5" y="-26" font-family="Helvetica,sans-Serif" font-size="10.00">HttpRequest::addHeader</text>
</a>
</g>
</g>
<!-- Node2 -->
<g id="Node000002" class="node">
<title>Node2</title>
<g id="a_Node000002"><a xlink:href="classRequestParse.html#a5f2f35f5815fbb977cde05b19af41687" target="_top" xlink:title="Parses and processes raw HTTP request data incrementally.">
<polygon fill="white" stroke="#666666" points="790,-38 608,-38 608,-19 790,-19 790,-38"/>
<text text-anchor="middle" x="699" y="-26" font-family="Helvetica,sans-Serif" font-size="10.00">RequestParse::handleRawRequest</text>
</a>
</g>
</g>
<!-- Node1&#45;&gt;Node2 -->
<g id="edge1_Node000001_Node000002" class="edge">
<title>Node1&#45;&gt;Node2</title>
<g id="a_edge1_Node000001_Node000002"><a xlink:title=" ">
<path fill="none" stroke="#63b8ff" d="M979.65,-28.5C923.81,-28.5 848.44,-28.5 790.02,-28.5"/>
<polygon fill="#63b8ff" stroke="#63b8ff" points="979.84,-32 989.84,-28.5 979.84,-25 979.84,-32"/>
</a>
</g>
</g>
<!-- Node7 -->
<g id="Node000007" class="node">
<title>Node7</title>
<g id="a_Node000007"><a xlink:href="classRequestParse.html#ac3dc2d89d0e245ac752b5327f64bb70d" target="_top" xlink:title="Parses individual HTTP header lines and updates metadata.">
<polygon fill="white" stroke="#666666" points="954,-19 826,-19 826,0 954,0 954,-19"/>
<text text-anchor="middle" x="890" y="-7" font-family="Helvetica,sans-Serif" font-size="10.00">RequestParse::headers</text>
</a>
</g>
</g>
<!-- Node1&#45;&gt;Node7 -->
<g id="edge6_Node000001_Node000007" class="edge">
<title>Node1&#45;&gt;Node7</title>
<g id="a_edge6_Node000001_Node000007"><a xlink:title=" ">
<path fill="none" stroke="#63b8ff" d="M979.75,-19.63C971.15,-18.65 962.48,-17.66 954.09,-16.7"/>
<polygon fill="#63b8ff" stroke="#63b8ff" points="979.45,-23.12 989.78,-20.77 980.24,-16.16 979.45,-23.12"/>
</a>
</g>
</g>
<!-- Node3 -->
<g id="Node000003" class="node">
<title>Node3</title>
<g id="a_Node000003"><a xlink:href="classClientConnection.html#a835586ce27b3c3598394bde3fff14211" target="_top" xlink:title="Receives incoming data from the client socket.">
<polygon fill="white" stroke="#666666" points="572,-38 422,-38 422,-19 572,-19 572,-38"/>
<text text-anchor="middle" x="497" y="-26" font-family="Helvetica,sans-Serif" font-size="10.00">ClientConnection::recvData</text>
</a>
</g>
</g>
<!-- Node2&#45;&gt;Node3 -->
<g id="edge2_Node000002_Node000003" class="edge">
<title>Node2&#45;&gt;Node3</title>
<g id="a_edge2_Node000002_Node000003"><a xlink:title=" ">
<path fill="none" stroke="#63b8ff" d="M597.86,-28.5C589.25,-28.5 580.64,-28.5 572.29,-28.5"/>
<polygon fill="#63b8ff" stroke="#63b8ff" points="597.95,-32 607.95,-28.5 597.95,-25 597.95,-32"/>
</a>
</g>
</g>
<!-- Node4 -->
<g id="Node000004" class="node">
<title>Node4</title>
<g id="a_Node000004"><a xlink:href="classWebServer.html#a8cbf37c0a840305ce15e8648566c9ce4" target="_top" xlink:title="Handles incoming data from a connected client.">
<polygon fill="white" stroke="#666666" points="386,-38 235,-38 235,-19 386,-19 386,-38"/>
<text text-anchor="middle" x="310.5" y="-26" font-family="Helvetica,sans-Serif" font-size="10.00">WebServer::receiveRequest</text>
</a>
</g>
</g>
<!-- Node3&#45;&gt;Node4 -->
<g id="edge3_Node000003_Node000004" class="edge">
<title>Node3&#45;&gt;Node4</title>
<g id="a_edge3_Node000003_Node000004"><a xlink:title=" ">
<path fill="none" stroke="#63b8ff" d="M411.51,-28.5C403.07,-28.5 394.53,-28.5 386.19,-28.5"/>
<polygon fill="#63b8ff" stroke="#63b8ff" points="411.75,-32 421.75,-28.5 411.75,-25 411.75,-32"/>
</a>
</g>
</g>
<!-- Node5 -->
<g id="Node000005" class="node">
<title>Node5</title>
<g id="a_Node000005"><a xlink:href="classWebServer.html#af39709e3744077e019aa76555f03a42e" target="_top" xlink:title="Main event loop — monitors sockets, dispatches requests, and handles responses.">
<polygon fill="white" stroke="#666666" points="199,-38 77,-38 77,-19 199,-19 199,-38"/>
<text text-anchor="middle" x="138" y="-26" font-family="Helvetica,sans-Serif" font-size="10.00">WebServer::runServer</text>
</a>
</g>
</g>
<!-- Node4&#45;&gt;Node5 -->
<g id="edge4_Node000004_Node000005" class="edge">
<title>Node4&#45;&gt;Node5</title>
<g id="a_edge4_Node000004_Node000005"><a xlink:title=" ">
<path fill="none" stroke="#63b8ff" d="M224.63,-28.5C216.02,-28.5 207.4,-28.5 199.13,-28.5"/>
<polygon fill="#63b8ff" stroke="#63b8ff" points="224.72,-32 234.72,-28.5 224.72,-25 224.72,-32"/>
</a>
</g>
</g>
<!-- Node6 -->
<g id="Node000006" class="node">
<title>Node6</title>
<g id="a_Node000006"><a xlink:href="main_8cpp.html#a3c04138a5bfe5d72780bb7e82a18e627" target="_top" xlink:title="Entry point of the Webservinho web server.">
<polygon fill="white" stroke="#666666" points="41,-38 0,-38 0,-19 41,-19 41,-38"/>
<text text-anchor="middle" x="20.5" y="-26" font-family="Helvetica,sans-Serif" font-size="10.00">main</text>
</a>
</g>
</g>
<!-- Node5&#45;&gt;Node6 -->
<g id="edge5_Node000005_Node000006" class="edge">
<title>Node5&#45;&gt;Node6</title>
<g id="a_edge5_Node000005_Node000006"><a xlink:title=" ">
<path fill="none" stroke="#63b8ff" d="M66.66,-28.5C57.35,-28.5 48.51,-28.5 41.15,-28.5"/>
<polygon fill="#63b8ff" stroke="#63b8ff" points="66.88,-32 76.88,-28.5 66.88,-25 66.88,-32"/>
</a>
</g>
</g>
<!-- Node7&#45;&gt;Node2 -->
<g id="edge7_Node000007_Node000002" class="edge">
<title>Node7&#45;&gt;Node2</title>
<g id="a_edge7_Node000007_Node000002"><a xlink:title=" ">
<path fill="none" stroke="#63b8ff" d="M815.69,-16.87C807.29,-17.71 798.65,-18.58 790.06,-19.45"/>
<polygon fill="#63b8ff" stroke="#63b8ff" points="816.2,-20.34 825.8,-15.85 815.5,-13.37 816.2,-20.34"/>
</a>
</g>
</g>
</g>
</svg>
