<?xml version="1.0" encoding="UTF-8" standalone="no"?>
<!DOCTYPE svg PUBLIC "-//W3C//DTD SVG 1.1//EN"
 "http://www.w3.org/Graphics/SVG/1.1/DTD/svg11.dtd">
<!-- Generated by graphviz version 2.43.0 (0)
 -->
<!-- Title: LocationConfig::setReturn Pages: 1 -->
<svg width="757pt" height="38pt"
 viewBox="0.00 0.00 757.00 38.00" xmlns="http://www.w3.org/2000/svg" xmlns:xlink="http://www.w3.org/1999/xlink">
<g id="graph0" class="graph" transform="scale(1 1) rotate(0) translate(4 34)">
<title>LocationConfig::setReturn</title>
<!-- Node1 -->
<g id="Node000001" class="node">
<title>Node1</title>
<g id="a_Node000001"><a xlink:title="Sets the HTTP redirection rule (status, URL).">
<polygon fill="#999999" stroke="#666666" points="749,-24.5 607,-24.5 607,-5.5 749,-5.5 749,-24.5"/>
<text text-anchor="middle" x="678" y="-12.5" font-family="Helvetica,sans-Serif" font-size="10.00">LocationConfig::setReturn</text>
</a>
</g>
</g>
<!-- Node2 -->
<g id="Node000002" class="node">
<title>Node2</title>
<g id="a_Node000002"><a xlink:href="classConfigParser.html#a99a7670aacf418332702850134b4e4ca" target="_top" xlink:title="Parses a location block and adds it to the current server.">
<polygon fill="white" stroke="#666666" points="571,-30 419,-30 419,0 571,0 571,-30"/>
<text text-anchor="start" x="427" y="-18" font-family="Helvetica,sans-Serif" font-size="10.00">ConfigParser::parseLocation</text>
<text text-anchor="middle" x="495" y="-7" font-family="Helvetica,sans-Serif" font-size="10.00">Block</text>
</a>
</g>
</g>
<!-- Node1&#45;&gt;Node2 -->
<g id="edge1_Node000001_Node000002" class="edge">
<title>Node1&#45;&gt;Node2</title>
<g id="a_edge1_Node000001_Node000002"><a xlink:title=" ">
<path fill="none" stroke="#63b8ff" d="M596.58,-15C588.17,-15 579.64,-15 571.29,-15"/>
<polygon fill="#63b8ff" stroke="#63b8ff" points="596.76,-18.5 606.76,-15 596.76,-11.5 596.76,-18.5"/>
</a>
</g>
</g>
<!-- Node3 -->
<g id="Node000003" class="node">
<title>Node3</title>
<g id="a_Node000003"><a xlink:href="classConfigParser.html#aeb128a03051f57d584d3c5933435f2d4" target="_top" xlink:title="Parses a complete server {} block and adds it to Config.">
<polygon fill="white" stroke="#666666" points="383,-30 241,-30 241,0 383,0 383,-30"/>
<text text-anchor="start" x="249" y="-18" font-family="Helvetica,sans-Serif" font-size="10.00">ConfigParser::parseServer</text>
<text text-anchor="middle" x="312" y="-7" font-family="Helvetica,sans-Serif" font-size="10.00">Block</text>
</a>
</g>
</g>
<!-- Node2&#45;&gt;Node3 -->
<g id="edge2_Node000002_Node000003" class="edge">
<title>Node2&#45;&gt;Node3</title>
<g id="a_edge2_Node000002_Node000003"><a xlink:title=" ">
<path fill="none" stroke="#63b8ff" d="M408.75,-15C400.13,-15 391.45,-15 383.03,-15"/>
<polygon fill="#63b8ff" stroke="#63b8ff" points="408.81,-18.5 418.81,-15 408.81,-11.5 408.81,-18.5"/>
</a>
</g>
</g>
<!-- Node4 -->
<g id="Node000004" class="node">
<title>Node4</title>
<g id="a_Node000004"><a xlink:href="classConfigParser.html#a37f7f2df580ba720a140bd0fa7b6598c" target="_top" xlink:title="Parses the entire configuration file and returns a populated Config object.">
<polygon fill="white" stroke="#666666" points="205,-24.5 77,-24.5 77,-5.5 205,-5.5 205,-24.5"/>
<text text-anchor="middle" x="141" y="-12.5" font-family="Helvetica,sans-Serif" font-size="10.00">ConfigParser::parseFile</text>
</a>
</g>
</g>
<!-- Node3&#45;&gt;Node4 -->
<g id="edge3_Node000003_Node000004" class="edge">
<title>Node3&#45;&gt;Node4</title>
<g id="a_edge3_Node000003_Node000004"><a xlink:title=" ">
<path fill="none" stroke="#63b8ff" d="M230.78,-15C222.21,-15 213.57,-15 205.24,-15"/>
<polygon fill="#63b8ff" stroke="#63b8ff" points="230.8,-18.5 240.8,-15 230.8,-11.5 230.8,-18.5"/>
</a>
</g>
</g>
<!-- Node5 -->
<g id="Node000005" class="node">
<title>Node5</title>
<g id="a_Node000005"><a xlink:href="main_8cpp.html#a3c04138a5bfe5d72780bb7e82a18e627" target="_top" xlink:title="Entry point of the Webservinho web server.">
<polygon fill="white" stroke="#666666" points="41,-24.5 0,-24.5 0,-5.5 41,-5.5 41,-24.5"/>
<text text-anchor="middle" x="20.5" y="-12.5" font-family="Helvetica,sans-Serif" font-size="10.00">main</text>
</a>
</g>
</g>
<!-- Node4&#45;&gt;Node5 -->
<g id="edge4_Node000004_Node000005" class="edge">
<title>Node4&#45;&gt;Node5</title>
<g id="a_edge4_Node000004_Node000005"><a xlink:title=" ">
<path fill="none" stroke="#63b8ff" d="M66.64,-15C57.29,-15 48.43,-15 41.09,-15"/>
<polygon fill="#63b8ff" stroke="#63b8ff" points="66.93,-18.5 76.93,-15 66.93,-11.5 66.93,-18.5"/>
</a>
</g>
</g>
</g>
</svg>
