<?xml version="1.0" encoding="UTF-8" standalone="no"?>
<!DOCTYPE svg PUBLIC "-//W3C//DTD SVG 1.1//EN"
 "http://www.w3.org/Graphics/SVG/1.1/DTD/svg11.dtd">
<!-- Generated by graphviz version 2.43.0 (0)
 -->
<!-- Title: HttpRequest::getMethod Pages: 1 -->
<svg width="1504pt" height="96pt"
 viewBox="0.00 0.00 1504.00 96.17" xmlns="http://www.w3.org/2000/svg" xmlns:xlink="http://www.w3.org/1999/xlink">
<g id="graph0" class="graph" transform="scale(1 1) rotate(0) translate(4 92.17)">
<title>HttpRequest::getMethod</title>
<!-- Node1 -->
<g id="Node000001" class="node">
<title>Node1</title>
<g id="a_Node000001"><a xlink:title="Returns the current HTTP method.">
<polygon fill="#999999" stroke="#666666" points="1496,-33.17 1360,-33.17 1360,-14.17 1496,-14.17 1496,-33.17"/>
<text text-anchor="middle" x="1428" y="-21.17" font-family="Helvetica,sans-Serif" font-size="10.00">HttpRequest::getMethod</text>
</a>
</g>
</g>
<!-- Node2 -->
<g id="Node000002" class="node">
<title>Node2</title>
<g id="a_Node000002"><a xlink:href="classRequestParse.html#a3a3d2f425b7652c12b681fed8a66b8d9" target="_top" xlink:title="Validates if the HTTP method is allowed in the matched location block.">
<polygon fill="white" stroke="#666666" points="1324,-70.17 1170,-70.17 1170,-51.17 1324,-51.17 1324,-70.17"/>
<text text-anchor="middle" x="1247" y="-58.17" font-family="Helvetica,sans-Serif" font-size="10.00">RequestParse::checkMethod</text>
</a>
</g>
</g>
<!-- Node1&#45;&gt;Node2 -->
<g id="edge1_Node000001_Node000002" class="edge">
<title>Node1&#45;&gt;Node2</title>
<g id="a_edge1_Node000001_Node000002"><a xlink:title=" ">
<path fill="none" stroke="#63b8ff" d="M1370.96,-35.25C1346.3,-40.35 1317.67,-46.27 1294.25,-51.11"/>
<polygon fill="#63b8ff" stroke="#63b8ff" points="1371.82,-38.65 1380.9,-33.2 1370.4,-31.79 1371.82,-38.65"/>
</a>
</g>
</g>
<!-- Node10 -->
<g id="Node000010" class="node">
<title>Node10</title>
<g id="a_Node000010"><a xlink:href="classRouter.html#ab76bed10e7facdd1b6e4be3f2bbbff0f" target="_top" xlink:title="Determines if the current request is a valid upload operation.">
<polygon fill="white" stroke="#666666" points="1296,-33.17 1198,-33.17 1198,-14.17 1296,-14.17 1296,-33.17"/>
<text text-anchor="middle" x="1247" y="-21.17" font-family="Helvetica,sans-Serif" font-size="10.00">Router::isUpload</text>
</a>
</g>
</g>
<!-- Node1&#45;&gt;Node10 -->
<g id="edge10_Node000001_Node000010" class="edge">
<title>Node1&#45;&gt;Node10</title>
<g id="a_edge10_Node000001_Node000010"><a xlink:title=" ">
<path fill="none" stroke="#63b8ff" d="M1349.82,-23.67C1331.63,-23.67 1312.75,-23.67 1296.26,-23.67"/>
<polygon fill="#63b8ff" stroke="#63b8ff" points="1349.84,-27.17 1359.84,-23.67 1349.84,-20.17 1349.84,-27.17"/>
</a>
</g>
</g>
<!-- Node11 -->
<g id="Node000011" class="node">
<title>Node11</title>
<g id="a_Node000011"><a xlink:href="classRouter.html#aa58c0c6f2a1fc66a6e2a78adfae162e6" target="_top" xlink:title="Main entry point for determining how an HTTP request should be handled.">
<polygon fill="white" stroke="#666666" points="1116.5,-32.17 1025.5,-32.17 1025.5,-13.17 1116.5,-13.17 1116.5,-32.17"/>
<text text-anchor="middle" x="1071" y="-20.17" font-family="Helvetica,sans-Serif" font-size="10.00">Router::resolve</text>
</a>
</g>
</g>
<!-- Node1&#45;&gt;Node11 -->
<g id="edge14_Node000001_Node000011" class="edge">
<title>Node1&#45;&gt;Node11</title>
<g id="a_edge14_Node000001_Node000011"><a xlink:title=" ">
<path fill="none" stroke="#63b8ff" d="M1375.25,-12.22C1358.94,-9.12 1340.8,-6.21 1324,-4.67 1255.84,1.57 1238.16,1.54 1170,-4.67 1151.74,-6.33 1131.8,-9.7 1114.7,-13.08"/>
<polygon fill="#63b8ff" stroke="#63b8ff" points="1374.66,-15.67 1385.15,-14.16 1376.01,-8.8 1374.66,-15.67"/>
</a>
</g>
</g>
<!-- Node3 -->
<g id="Node000003" class="node">
<title>Node3</title>
<g id="a_Node000003"><a xlink:href="classRequestParse.html#aba25f85cb2196680c3f6efb539ddb81b" target="_top" xlink:title="Determines the HTTP method and validates it against configuration.">
<polygon fill="white" stroke="#666666" points="1134,-70.17 1008,-70.17 1008,-51.17 1134,-51.17 1134,-70.17"/>
<text text-anchor="middle" x="1071" y="-58.17" font-family="Helvetica,sans-Serif" font-size="10.00">RequestParse::method</text>
</a>
</g>
</g>
<!-- Node2&#45;&gt;Node3 -->
<g id="edge2_Node000002_Node000003" class="edge">
<title>Node2&#45;&gt;Node3</title>
<g id="a_edge2_Node000002_Node000003"><a xlink:title=" ">
<path fill="none" stroke="#63b8ff" d="M1159.78,-60.67C1151.11,-60.67 1142.43,-60.67 1134.08,-60.67"/>
<polygon fill="#63b8ff" stroke="#63b8ff" points="1159.93,-64.17 1169.93,-60.67 1159.93,-57.17 1159.93,-64.17"/>
</a>
</g>
</g>
<!-- Node3&#45;&gt;Node3 -->
<g id="edge3_Node000003_Node000003" class="edge">
<title>Node3&#45;&gt;Node3</title>
<g id="a_edge3_Node000003_Node000003"><a xlink:title=" ">
<path fill="none" stroke="#63b8ff" d="M1103.19,-78.62C1102.27,-83.99 1091.54,-88.17 1071,-88.17 1040.43,-88.17 1031.59,-78.9 1044.49,-70.25"/>
<polygon fill="#63b8ff" stroke="#63b8ff" points="1106.02,-76.56 1097.51,-70.25 1100.23,-80.49 1106.02,-76.56"/>
</a>
</g>
</g>
<!-- Node4 -->
<g id="Node000004" class="node">
<title>Node4</title>
<g id="a_Node000004"><a xlink:href="classRequestParse.html#abba0923a3ae7422916f11a81b7c4d552" target="_top" xlink:title="Parses the HTTP request line (method, URI, version).">
<polygon fill="white" stroke="#666666" points="972,-70.17 826,-70.17 826,-51.17 972,-51.17 972,-70.17"/>
<text text-anchor="middle" x="899" y="-58.17" font-family="Helvetica,sans-Serif" font-size="10.00">RequestParse::requestLine</text>
</a>
</g>
</g>
<!-- Node3&#45;&gt;Node4 -->
<g id="edge4_Node000003_Node000004" class="edge">
<title>Node3&#45;&gt;Node4</title>
<g id="a_edge4_Node000003_Node000004"><a xlink:title=" ">
<path fill="none" stroke="#63b8ff" d="M997.51,-60.67C989.1,-60.67 980.52,-60.67 972.11,-60.67"/>
<polygon fill="#63b8ff" stroke="#63b8ff" points="997.66,-64.17 1007.66,-60.67 997.66,-57.17 997.66,-64.17"/>
</a>
</g>
</g>
<!-- Node5 -->
<g id="Node000005" class="node">
<title>Node5</title>
<g id="a_Node000005"><a xlink:href="classRequestParse.html#a5f2f35f5815fbb977cde05b19af41687" target="_top" xlink:title="Parses and processes raw HTTP request data incrementally.">
<polygon fill="white" stroke="#666666" points="790,-70.17 608,-70.17 608,-51.17 790,-51.17 790,-70.17"/>
<text text-anchor="middle" x="699" y="-58.17" font-family="Helvetica,sans-Serif" font-size="10.00">RequestParse::handleRawRequest</text>
</a>
</g>
</g>
<!-- Node4&#45;&gt;Node5 -->
<g id="edge5_Node000004_Node000005" class="edge">
<title>Node4&#45;&gt;Node5</title>
<g id="a_edge5_Node000004_Node000005"><a xlink:title=" ">
<path fill="none" stroke="#63b8ff" d="M815.77,-60.67C807.34,-60.67 798.74,-60.67 790.23,-60.67"/>
<polygon fill="#63b8ff" stroke="#63b8ff" points="815.96,-64.17 825.96,-60.67 815.96,-57.17 815.96,-64.17"/>
</a>
</g>
</g>
<!-- Node6 -->
<g id="Node000006" class="node">
<title>Node6</title>
<g id="a_Node000006"><a xlink:href="classClientConnection.html#a835586ce27b3c3598394bde3fff14211" target="_top" xlink:title="Receives incoming data from the client socket.">
<polygon fill="white" stroke="#666666" points="572,-70.17 422,-70.17 422,-51.17 572,-51.17 572,-70.17"/>
<text text-anchor="middle" x="497" y="-58.17" font-family="Helvetica,sans-Serif" font-size="10.00">ClientConnection::recvData</text>
</a>
</g>
</g>
<!-- Node5&#45;&gt;Node6 -->
<g id="edge6_Node000005_Node000006" class="edge">
<title>Node5&#45;&gt;Node6</title>
<g id="a_edge6_Node000005_Node000006"><a xlink:title=" ">
<path fill="none" stroke="#63b8ff" d="M597.86,-60.67C589.25,-60.67 580.64,-60.67 572.29,-60.67"/>
<polygon fill="#63b8ff" stroke="#63b8ff" points="597.95,-64.17 607.95,-60.67 597.95,-57.17 597.95,-64.17"/>
</a>
</g>
</g>
<!-- Node7 -->
<g id="Node000007" class="node">
<title>Node7</title>
<g id="a_Node000007"><a xlink:href="classWebServer.html#a8cbf37c0a840305ce15e8648566c9ce4" target="_top" xlink:title="Handles incoming data from a connected client.">
<polygon fill="white" stroke="#666666" points="386,-51.17 235,-51.17 235,-32.17 386,-32.17 386,-51.17"/>
<text text-anchor="middle" x="310.5" y="-39.17" font-family="Helvetica,sans-Serif" font-size="10.00">WebServer::receiveRequest</text>
</a>
</g>
</g>
<!-- Node6&#45;&gt;Node7 -->
<g id="edge7_Node000006_Node000007" class="edge">
<title>Node6&#45;&gt;Node7</title>
<g id="a_edge7_Node000006_Node000007"><a xlink:title=" ">
<path fill="none" stroke="#63b8ff" d="M411.79,-52C403.25,-51.12 394.62,-50.23 386.19,-49.36"/>
<polygon fill="#63b8ff" stroke="#63b8ff" points="411.45,-55.48 421.75,-53.02 412.17,-48.52 411.45,-55.48"/>
</a>
</g>
</g>
<!-- Node8 -->
<g id="Node000008" class="node">
<title>Node8</title>
<g id="a_Node000008"><a xlink:href="classWebServer.html#af39709e3744077e019aa76555f03a42e" target="_top" xlink:title="Main event loop — monitors sockets, dispatches requests, and handles responses.">
<polygon fill="white" stroke="#666666" points="199,-51.17 77,-51.17 77,-32.17 199,-32.17 199,-51.17"/>
<text text-anchor="middle" x="138" y="-39.17" font-family="Helvetica,sans-Serif" font-size="10.00">WebServer::runServer</text>
</a>
</g>
</g>
<!-- Node7&#45;&gt;Node8 -->
<g id="edge8_Node000007_Node000008" class="edge">
<title>Node7&#45;&gt;Node8</title>
<g id="a_edge8_Node000007_Node000008"><a xlink:title=" ">
<path fill="none" stroke="#63b8ff" d="M224.63,-41.67C216.02,-41.67 207.4,-41.67 199.13,-41.67"/>
<polygon fill="#63b8ff" stroke="#63b8ff" points="224.72,-45.17 234.72,-41.67 224.72,-38.17 224.72,-45.17"/>
</a>
</g>
</g>
<!-- Node9 -->
<g id="Node000009" class="node">
<title>Node9</title>
<g id="a_Node000009"><a xlink:href="main_8cpp.html#a3c04138a5bfe5d72780bb7e82a18e627" target="_top" xlink:title="Entry point of the Webservinho web server.">
<polygon fill="white" stroke="#666666" points="41,-51.17 0,-51.17 0,-32.17 41,-32.17 41,-51.17"/>
<text text-anchor="middle" x="20.5" y="-39.17" font-family="Helvetica,sans-Serif" font-size="10.00">main</text>
</a>
</g>
</g>
<!-- Node8&#45;&gt;Node9 -->
<g id="edge9_Node000008_Node000009" class="edge">
<title>Node8&#45;&gt;Node9</title>
<g id="a_edge9_Node000008_Node000009"><a xlink:title=" ">
<path fill="none" stroke="#63b8ff" d="M66.66,-41.67C57.35,-41.67 48.51,-41.67 41.15,-41.67"/>
<polygon fill="#63b8ff" stroke="#63b8ff" points="66.88,-45.17 76.88,-41.67 66.88,-38.17 66.88,-45.17"/>
</a>
</g>
</g>
<!-- Node10&#45;&gt;Node11 -->
<g id="edge11_Node000010_Node000011" class="edge">
<title>Node10&#45;&gt;Node11</title>
<g id="a_edge11_Node000010_Node000011"><a xlink:title=" ">
<path fill="none" stroke="#63b8ff" d="M1187.9,-23.34C1164.64,-23.2 1138.27,-23.05 1116.57,-22.93"/>
<polygon fill="#63b8ff" stroke="#63b8ff" points="1187.97,-26.84 1197.99,-23.39 1188.01,-19.84 1187.97,-26.84"/>
</a>
</g>
</g>
<!-- Node12 -->
<g id="Node000012" class="node">
<title>Node12</title>
<g id="a_Node000012"><a xlink:href="classDispatcher.html#a13c8a2fd90033adf9788c8774c3f0f47" target="_top" xlink:title="Central dispatch routine that delegates HTTP requests to the appropriate handler.">
<polygon fill="white" stroke="#666666" points="757,-32.17 641,-32.17 641,-13.17 757,-13.17 757,-32.17"/>
<text text-anchor="middle" x="699" y="-20.17" font-family="Helvetica,sans-Serif" font-size="10.00">Dispatcher::dispatch</text>
</a>
</g>
</g>
<!-- Node11&#45;&gt;Node12 -->
<g id="edge12_Node000011_Node000012" class="edge">
<title>Node11&#45;&gt;Node12</title>
<g id="a_edge12_Node000011_Node000012"><a xlink:title=" ">
<path fill="none" stroke="#63b8ff" d="M1015.11,-22.67C945.91,-22.67 827.51,-22.67 757.22,-22.67"/>
<polygon fill="#63b8ff" stroke="#63b8ff" points="1015.37,-26.17 1025.37,-22.67 1015.37,-19.17 1015.37,-26.17"/>
</a>
</g>
</g>
<!-- Node12&#45;&gt;Node7 -->
<g id="edge13_Node000012_Node000007" class="edge">
<title>Node12&#45;&gt;Node7</title>
<g id="a_edge13_Node000012_Node000007"><a xlink:title=" ">
<path fill="none" stroke="#63b8ff" d="M630.75,-25.97C562.42,-29.33 456.84,-34.52 386.01,-38.01"/>
<polygon fill="#63b8ff" stroke="#63b8ff" points="631.15,-29.46 640.97,-25.47 630.81,-22.47 631.15,-29.46"/>
</a>
</g>
</g>
</g>
</svg>
