<?xml version="1.0" encoding="UTF-8" standalone="no"?>
<!DOCTYPE svg PUBLIC "-//W3C//DTD SVG 1.1//EN"
 "http://www.w3.org/Graphics/SVG/1.1/DTD/svg11.dtd">
<!-- Generated by graphviz version 2.43.0 (0)
 -->
<!-- Title: ClientConnection::getServerConfig Pages: 1 -->
<svg width="992pt" height="179pt"
 viewBox="0.00 0.00 992.00 179.00" xmlns="http://www.w3.org/2000/svg" xmlns:xlink="http://www.w3.org/1999/xlink">
<g id="graph0" class="graph" transform="scale(1 1) rotate(0) translate(4 175)">
<title>ClientConnection::getServerConfig</title>
<!-- Node1 -->
<g id="Node000001" class="node">
<title>Node1</title>
<g id="a_Node000001"><a xlink:title=" ">
<polygon fill="#999999" stroke="#666666" points="984,-138.5 831,-138.5 831,-108.5 984,-108.5 984,-138.5"/>
<text text-anchor="start" x="839" y="-126.5" font-family="Helvetica,sans-Serif" font-size="10.00">ClientConnection::getServer</text>
<text text-anchor="middle" x="907.5" y="-115.5" font-family="Helvetica,sans-Serif" font-size="10.00">Config</text>
</a>
</g>
</g>
<!-- Node2 -->
<g id="Node000002" class="node">
<title>Node2</title>
<g id="a_Node000002"><a xlink:href="classResponseBuilder.html#afd79929bb501be85bdc85d86fdce93e9" target="_top" xlink:title="Assembles the complete HTTP response, including error handling.">
<polygon fill="white" stroke="#666666" points="784,-95 656,-95 656,-76 784,-76 784,-95"/>
<text text-anchor="middle" x="720" y="-83" font-family="Helvetica,sans-Serif" font-size="10.00">ResponseBuilder::build</text>
</a>
</g>
</g>
<!-- Node1&#45;&gt;Node2 -->
<g id="edge1_Node000001_Node000002" class="edge">
<title>Node1&#45;&gt;Node2</title>
<g id="a_edge1_Node000001_Node000002"><a xlink:title=" ">
<path fill="none" stroke="#63b8ff" d="M823.22,-106.44C804.05,-102.51 784.32,-98.47 767.38,-95"/>
<polygon fill="#63b8ff" stroke="#63b8ff" points="822.69,-109.9 833.19,-108.48 824.09,-103.05 822.69,-109.9"/>
</a>
</g>
</g>
<!-- Node3 -->
<g id="Node000003" class="node">
<title>Node3</title>
<g id="a_Node000003"><a xlink:href="classDispatcher.html#a13c8a2fd90033adf9788c8774c3f0f47" target="_top" xlink:title="Central dispatch routine that delegates HTTP requests to the appropriate handler.">
<polygon fill="white" stroke="#666666" points="583,-133 467,-133 467,-114 583,-114 583,-133"/>
<text text-anchor="middle" x="525" y="-121" font-family="Helvetica,sans-Serif" font-size="10.00">Dispatcher::dispatch</text>
</a>
</g>
</g>
<!-- Node1&#45;&gt;Node3 -->
<g id="edge11_Node000001_Node000003" class="edge">
<title>Node1&#45;&gt;Node3</title>
<g id="a_edge11_Node000001_Node000003"><a xlink:title=" ">
<path fill="none" stroke="#63b8ff" d="M820.83,-123.5C748.26,-123.5 646.22,-123.5 583.2,-123.5"/>
<polygon fill="#63b8ff" stroke="#63b8ff" points="820.87,-127 830.87,-123.5 820.87,-120 820.87,-127"/>
</a>
</g>
</g>
<!-- Node9 -->
<g id="Node000009" class="node">
<title>Node9</title>
<g id="a_Node000009"><a xlink:href="classClientConnection.html#a835586ce27b3c3598394bde3fff14211" target="_top" xlink:title="Receives incoming data from the client socket.">
<polygon fill="white" stroke="#666666" points="795,-171 645,-171 645,-152 795,-152 795,-171"/>
<text text-anchor="middle" x="720" y="-159" font-family="Helvetica,sans-Serif" font-size="10.00">ClientConnection::recvData</text>
</a>
</g>
</g>
<!-- Node1&#45;&gt;Node9 -->
<g id="edge12_Node000001_Node000009" class="edge">
<title>Node1&#45;&gt;Node9</title>
<g id="a_edge12_Node000001_Node000009"><a xlink:title=" ">
<path fill="none" stroke="#63b8ff" d="M823.22,-140.56C804.05,-144.49 784.32,-148.53 767.38,-152"/>
<polygon fill="#63b8ff" stroke="#63b8ff" points="824.09,-143.95 833.19,-138.52 822.69,-137.1 824.09,-143.95"/>
</a>
</g>
</g>
<!-- Node2&#45;&gt;Node3 -->
<g id="edge2_Node000002_Node000003" class="edge">
<title>Node2&#45;&gt;Node3</title>
<g id="a_edge2_Node000002_Node000003"><a xlink:title=" ">
<path fill="none" stroke="#63b8ff" d="M660.4,-97.04C632.87,-102.46 600.45,-108.84 574.35,-113.98"/>
<polygon fill="#63b8ff" stroke="#63b8ff" points="661.16,-100.45 670.3,-95.09 659.81,-93.59 661.16,-100.45"/>
</a>
</g>
</g>
<!-- Node5 -->
<g id="Node000005" class="node">
<title>Node5</title>
<g id="a_Node000005"><a xlink:href="classWebServer.html#af39709e3744077e019aa76555f03a42e" target="_top" xlink:title="Main event loop — monitors sockets, dispatches requests, and handles responses.">
<polygon fill="white" stroke="#666666" points="199,-76 77,-76 77,-57 199,-57 199,-76"/>
<text text-anchor="middle" x="138" y="-64" font-family="Helvetica,sans-Serif" font-size="10.00">WebServer::runServer</text>
</a>
</g>
</g>
<!-- Node2&#45;&gt;Node5 -->
<g id="edge8_Node000002_Node000005" class="edge">
<title>Node2&#45;&gt;Node5</title>
<g id="a_edge8_Node000002_Node000005"><a xlink:title=" ">
<path fill="none" stroke="#63b8ff" d="M645.57,-79.8C581.97,-75.16 487.48,-68.99 405,-66.5 334.38,-64.37 253.16,-64.78 199.23,-65.46"/>
<polygon fill="#63b8ff" stroke="#63b8ff" points="645.67,-83.32 655.9,-80.56 646.18,-76.33 645.67,-83.32"/>
</a>
</g>
</g>
<!-- Node7 -->
<g id="Node000007" class="node">
<title>Node7</title>
<g id="a_Node000007"><a xlink:href="classWebServer.html#a7667bc8a87db8f9987a5e80da9c4cd37" target="_top" xlink:title="Reads CGI process output and assembles it into the client buffer.">
<polygon fill="white" stroke="#666666" points="405,-95 235,-95 235,-76 405,-76 405,-95"/>
<text text-anchor="middle" x="320" y="-83" font-family="Helvetica,sans-Serif" font-size="10.00">WebServer::handleCgiReadable</text>
</a>
</g>
</g>
<!-- Node2&#45;&gt;Node7 -->
<g id="edge6_Node000002_Node000007" class="edge">
<title>Node2&#45;&gt;Node7</title>
<g id="a_edge6_Node000002_Node000007"><a xlink:title=" ">
<path fill="none" stroke="#63b8ff" d="M645.74,-85.5C577.74,-85.5 476.57,-85.5 405.26,-85.5"/>
<polygon fill="#63b8ff" stroke="#63b8ff" points="645.94,-89 655.94,-85.5 645.94,-82 645.94,-89"/>
</a>
</g>
</g>
<!-- Node8 -->
<g id="Node000008" class="node">
<title>Node8</title>
<g id="a_Node000008"><a xlink:href="classWebServer.html#a32042bb7e426cf5c53c2c2860d622342" target="_top" xlink:title="Scans active CGI processes and terminates those exceeding timeout.">
<polygon fill="white" stroke="#666666" points="609,-19 441,-19 441,0 609,0 609,-19"/>
<text text-anchor="middle" x="525" y="-7" font-family="Helvetica,sans-Serif" font-size="10.00">WebServer::sweepCgiTimeouts</text>
</a>
</g>
</g>
<!-- Node2&#45;&gt;Node8 -->
<g id="edge9_Node000002_Node000008" class="edge">
<title>Node2&#45;&gt;Node8</title>
<g id="a_edge9_Node000002_Node000008"><a xlink:title=" ">
<path fill="none" stroke="#63b8ff" d="M692.05,-71.27C670.1,-60.04 638.09,-44.5 609,-33.5 594.55,-28.04 578.29,-23.08 564.02,-19.11"/>
<polygon fill="#63b8ff" stroke="#63b8ff" points="690.6,-74.46 701.09,-75.94 693.81,-68.24 690.6,-74.46"/>
</a>
</g>
</g>
<!-- Node4 -->
<g id="Node000004" class="node">
<title>Node4</title>
<g id="a_Node000004"><a xlink:href="classWebServer.html#a8cbf37c0a840305ce15e8648566c9ce4" target="_top" xlink:title="Handles incoming data from a connected client.">
<polygon fill="white" stroke="#666666" points="395.5,-133 244.5,-133 244.5,-114 395.5,-114 395.5,-133"/>
<text text-anchor="middle" x="320" y="-121" font-family="Helvetica,sans-Serif" font-size="10.00">WebServer::receiveRequest</text>
</a>
</g>
</g>
<!-- Node3&#45;&gt;Node4 -->
<g id="edge3_Node000003_Node000004" class="edge">
<title>Node3&#45;&gt;Node4</title>
<g id="a_edge3_Node000003_Node000004"><a xlink:title=" ">
<path fill="none" stroke="#63b8ff" d="M456.88,-123.5C437.33,-123.5 415.85,-123.5 395.86,-123.5"/>
<polygon fill="#63b8ff" stroke="#63b8ff" points="456.91,-127 466.91,-123.5 456.91,-120 456.91,-127"/>
</a>
</g>
</g>
<!-- Node4&#45;&gt;Node5 -->
<g id="edge4_Node000004_Node000005" class="edge">
<title>Node4&#45;&gt;Node5</title>
<g id="a_edge4_Node000004_Node000005"><a xlink:title=" ">
<path fill="none" stroke="#63b8ff" d="M263.84,-111.49C254.17,-109.06 244.25,-106.37 235,-103.5 209.24,-95.51 180.47,-84.07 161.2,-76.03"/>
<polygon fill="#63b8ff" stroke="#63b8ff" points="263.25,-114.94 273.8,-113.91 264.91,-108.14 263.25,-114.94"/>
</a>
</g>
</g>
<!-- Node6 -->
<g id="Node000006" class="node">
<title>Node6</title>
<g id="a_Node000006"><a xlink:href="main_8cpp.html#a3c04138a5bfe5d72780bb7e82a18e627" target="_top" xlink:title="Entry point of the Webservinho web server.">
<polygon fill="white" stroke="#666666" points="41,-76 0,-76 0,-57 41,-57 41,-76"/>
<text text-anchor="middle" x="20.5" y="-64" font-family="Helvetica,sans-Serif" font-size="10.00">main</text>
</a>
</g>
</g>
<!-- Node5&#45;&gt;Node6 -->
<g id="edge5_Node000005_Node000006" class="edge">
<title>Node5&#45;&gt;Node6</title>
<g id="a_edge5_Node000005_Node000006"><a xlink:title=" ">
<path fill="none" stroke="#63b8ff" d="M66.66,-66.5C57.35,-66.5 48.51,-66.5 41.15,-66.5"/>
<polygon fill="#63b8ff" stroke="#63b8ff" points="66.88,-70 76.88,-66.5 66.88,-63 66.88,-70"/>
</a>
</g>
</g>
<!-- Node7&#45;&gt;Node5 -->
<g id="edge7_Node000007_Node000005" class="edge">
<title>Node7&#45;&gt;Node5</title>
<g id="a_edge7_Node000007_Node000005"><a xlink:title=" ">
<path fill="none" stroke="#63b8ff" d="M224.59,-75.53C215.91,-74.62 207.27,-73.71 199.02,-72.84"/>
<polygon fill="#63b8ff" stroke="#63b8ff" points="224.49,-79.04 234.8,-76.61 225.22,-72.08 224.49,-79.04"/>
</a>
</g>
</g>
<!-- Node8&#45;&gt;Node5 -->
<g id="edge10_Node000008_Node000005" class="edge">
<title>Node8&#45;&gt;Node5</title>
<g id="a_edge10_Node000008_Node000005"><a xlink:title=" ">
<path fill="none" stroke="#63b8ff" d="M430.91,-11.38C373.85,-13.97 299.61,-19.93 235,-33.5 209.3,-38.9 181,-49.19 161.82,-56.85"/>
<polygon fill="#63b8ff" stroke="#63b8ff" points="431.16,-14.87 441,-10.95 430.86,-7.88 431.16,-14.87"/>
</a>
</g>
</g>
<!-- Node9&#45;&gt;Node4 -->
<g id="edge13_Node000009_Node000004" class="edge">
<title>Node9&#45;&gt;Node4</title>
<g id="a_edge13_Node000009_Node000004"><a xlink:title=" ">
<path fill="none" stroke="#63b8ff" d="M634.73,-157.13C579.53,-153.85 505.86,-148.69 441,-141.5 420.48,-139.23 398.09,-136.06 378.26,-133.01"/>
<polygon fill="#63b8ff" stroke="#63b8ff" points="634.63,-160.63 644.82,-157.72 635.04,-153.64 634.63,-160.63"/>
</a>
</g>
</g>
</g>
</svg>
