<?xml version="1.0" encoding="UTF-8" standalone="no"?>
<!DOCTYPE svg PUBLIC "-//W3C//DTD SVG 1.1//EN"
 "http://www.w3.org/Graphics/SVG/1.1/DTD/svg11.dtd">
<!-- Generated by graphviz version 2.43.0 (0)
 -->
<!-- Title: Signals::signalHandle Pages: 1 -->
<svg width="294pt" height="64pt"
 viewBox="0.00 0.00 294.00 64.00" xmlns="http://www.w3.org/2000/svg" xmlns:xlink="http://www.w3.org/1999/xlink">
<g id="graph0" class="graph" transform="scale(1 1) rotate(0) translate(4 60)">
<title>Signals::signalHandle</title>
<!-- Node1 -->
<g id="Node000001" class="node">
<title>Node1</title>
<g id="a_Node000001"><a xlink:title="Handles SIGINT and SIGTERM for graceful shutdown.">
<polygon fill="#999999" stroke="#666666" points="286,-37 164,-37 164,-18 286,-18 286,-37"/>
<text text-anchor="middle" x="225" y="-25" font-family="Helvetica,sans-Serif" font-size="10.00">Signals::signalHandle</text>
</a>
</g>
</g>
<!-- Node2 -->
<g id="Node000002" class="node">
<title>Node2</title>
<g id="a_Node000002"><a xlink:href="main_8cpp.html#a3c04138a5bfe5d72780bb7e82a18e627" target="_top" xlink:title="Entry point of the Webservinho web server.">
<polygon fill="white" stroke="#666666" points="84.5,-56 43.5,-56 43.5,-37 84.5,-37 84.5,-56"/>
<text text-anchor="middle" x="64" y="-44" font-family="Helvetica,sans-Serif" font-size="10.00">main</text>
</a>
</g>
</g>
<!-- Node1&#45;&gt;Node2 -->
<g id="edge1_Node000001_Node000002" class="edge">
<title>Node1&#45;&gt;Node2</title>
<g id="a_edge1_Node000001_Node000002"><a xlink:title=" ">
<path fill="none" stroke="#63b8ff" d="M153.94,-35.87C128.73,-38.88 102.23,-42.05 84.79,-44.14"/>
<polygon fill="#63b8ff" stroke="#63b8ff" points="154.37,-39.34 163.89,-34.68 153.54,-32.39 154.37,-39.34"/>
</a>
</g>
</g>
<!-- Node3 -->
<g id="Node000003" class="node">
<title>Node3</title>
<g id="a_Node000003"><a xlink:href="classSignals.html#a28da56be24b82dcb4dfd2472973b15f0" target="_top" xlink:title="Registers signal handlers for SIGINT, SIGTERM, and SIGCHLD.">
<polygon fill="white" stroke="#666666" points="128,-19 0,-19 0,0 128,0 128,-19"/>
<text text-anchor="middle" x="64" y="-7" font-family="Helvetica,sans-Serif" font-size="10.00">Signals::setupHandlers</text>
</a>
</g>
</g>
<!-- Node1&#45;&gt;Node3 -->
<g id="edge2_Node000001_Node000003" class="edge">
<title>Node1&#45;&gt;Node3</title>
<g id="a_edge2_Node000001_Node000003"><a xlink:title=" ">
<path fill="none" stroke="#63b8ff" d="M153.9,-19.56C145.32,-18.59 136.58,-17.6 128.11,-16.64"/>
<polygon fill="#63b8ff" stroke="#63b8ff" points="153.56,-23.05 163.89,-20.69 154.35,-16.09 153.56,-23.05"/>
</a>
</g>
</g>
</g>
</svg>
