<?xml version="1.0" encoding="UTF-8" standalone="no"?>
<!DOCTYPE svg PUBLIC "-//W3C//DTD SVG 1.1//EN"
 "http://www.w3.org/Graphics/SVG/1.1/DTD/svg11.dtd">
<!-- Generated by graphviz version 2.43.0 (0)
 -->
<!-- Title: RequestMeta::setConnectionClose Pages: 1 -->
<svg width="1190pt" height="201pt"
 viewBox="0.00 0.00 1190.00 201.00" xmlns="http://www.w3.org/2000/svg" xmlns:xlink="http://www.w3.org/1999/xlink">
<g id="graph0" class="graph" transform="scale(1 1) rotate(0) translate(4 197)">
<title>RequestMeta::setConnectionClose</title>
<!-- Node1 -->
<g id="Node000001" class="node">
<title>Node1</title>
<g id="a_Node000001"><a xlink:title="Defines whether the connection should be closed after the response.">
<polygon fill="#999999" stroke="#666666" points="1182,-61.5 1025,-61.5 1025,-31.5 1182,-31.5 1182,-61.5"/>
<text text-anchor="start" x="1033" y="-49.5" font-family="Helvetica,sans-Serif" font-size="10.00">RequestMeta::setConnection</text>
<text text-anchor="middle" x="1103.5" y="-38.5" font-family="Helvetica,sans-Serif" font-size="10.00">Close</text>
</a>
</g>
</g>
<!-- Node2 -->
<g id="Node000002" class="node">
<title>Node2</title>
<g id="a_Node000002"><a xlink:href="classResponseBuilder.html#afd79929bb501be85bdc85d86fdce93e9" target="_top" xlink:title="Assembles the complete HTTP response, including error handling.">
<polygon fill="white" stroke="#666666" points="782,-117 654,-117 654,-98 782,-98 782,-117"/>
<text text-anchor="middle" x="718" y="-105" font-family="Helvetica,sans-Serif" font-size="10.00">ResponseBuilder::build</text>
</a>
</g>
</g>
<!-- Node1&#45;&gt;Node2 -->
<g id="edge1_Node000001_Node000002" class="edge">
<title>Node1&#45;&gt;Node2</title>
<g id="a_edge1_Node000001_Node000002"><a xlink:title=" ">
<path fill="none" stroke="#63b8ff" d="M1014.9,-60.43C942.69,-71.92 842.2,-87.9 778.9,-97.97"/>
<polygon fill="#63b8ff" stroke="#63b8ff" points="1015.57,-63.87 1024.89,-58.84 1014.47,-56.96 1015.57,-63.87"/>
</a>
</g>
</g>
<!-- Node9 -->
<g id="Node000009" class="node">
<title>Node9</title>
<g id="a_Node000009"><a xlink:href="classRequestParse.html#ac3dc2d89d0e245ac752b5327f64bb70d" target="_top" xlink:title="Parses individual HTTP header lines and updates metadata.">
<polygon fill="white" stroke="#666666" points="981,-56 853,-56 853,-37 981,-37 981,-56"/>
<text text-anchor="middle" x="917" y="-44" font-family="Helvetica,sans-Serif" font-size="10.00">RequestParse::headers</text>
</a>
</g>
</g>
<!-- Node1&#45;&gt;Node9 -->
<g id="edge11_Node000001_Node000009" class="edge">
<title>Node1&#45;&gt;Node9</title>
<g id="a_edge11_Node000001_Node000009"><a xlink:title=" ">
<path fill="none" stroke="#63b8ff" d="M1014.48,-46.5C1003.21,-46.5 991.85,-46.5 981.08,-46.5"/>
<polygon fill="#63b8ff" stroke="#63b8ff" points="1014.79,-50 1024.79,-46.5 1014.79,-43 1014.79,-50"/>
</a>
</g>
</g>
<!-- Node12 -->
<g id="Node000012" class="node">
<title>Node12</title>
<g id="a_Node000012"><a xlink:href="classHttpRequest.html#a42b01e8d23e15e65ad9c712922a6a812" target="_top" xlink:title="Constructs a new HttpRequest with default initialized state.">
<polygon fill="white" stroke="#666666" points="989,-19 845,-19 845,0 989,0 989,-19"/>
<text text-anchor="middle" x="917" y="-7" font-family="Helvetica,sans-Serif" font-size="10.00">HttpRequest::HttpRequest</text>
</a>
</g>
</g>
<!-- Node1&#45;&gt;Node12 -->
<g id="edge15_Node000001_Node000012" class="edge">
<title>Node1&#45;&gt;Node12</title>
<g id="a_edge15_Node000001_Node000012"><a xlink:title=" ">
<path fill="none" stroke="#63b8ff" d="M1017.56,-29.47C999.66,-25.88 981.38,-22.21 965.45,-19.02"/>
<polygon fill="#63b8ff" stroke="#63b8ff" points="1016.96,-32.92 1027.46,-31.45 1018.34,-26.05 1016.96,-32.92"/>
</a>
</g>
</g>
<!-- Node3 -->
<g id="Node000003" class="node">
<title>Node3</title>
<g id="a_Node000003"><a xlink:href="classDispatcher.html#a13c8a2fd90033adf9788c8774c3f0f47" target="_top" xlink:title="Central dispatch routine that delegates HTTP requests to the appropriate handler.">
<polygon fill="white" stroke="#666666" points="574,-79 458,-79 458,-60 574,-60 574,-79"/>
<text text-anchor="middle" x="516" y="-67" font-family="Helvetica,sans-Serif" font-size="10.00">Dispatcher::dispatch</text>
</a>
</g>
</g>
<!-- Node2&#45;&gt;Node3 -->
<g id="edge2_Node000002_Node000003" class="edge">
<title>Node2&#45;&gt;Node3</title>
<g id="a_edge2_Node000002_Node000003"><a xlink:title=" ">
<path fill="none" stroke="#63b8ff" d="M656.9,-96.08C628.29,-90.64 594.46,-84.22 567.23,-79.04"/>
<polygon fill="#63b8ff" stroke="#63b8ff" points="656.31,-99.53 666.79,-97.96 657.62,-92.65 656.31,-99.53"/>
</a>
</g>
</g>
<!-- Node5 -->
<g id="Node000005" class="node">
<title>Node5</title>
<g id="a_Node000005"><a xlink:href="classWebServer.html#af39709e3744077e019aa76555f03a42e" target="_top" xlink:title="Main event loop — monitors sockets, dispatches requests, and handles responses.">
<polygon fill="white" stroke="#666666" points="199,-136 77,-136 77,-117 199,-117 199,-136"/>
<text text-anchor="middle" x="138" y="-124" font-family="Helvetica,sans-Serif" font-size="10.00">WebServer::runServer</text>
</a>
</g>
</g>
<!-- Node2&#45;&gt;Node5 -->
<g id="edge8_Node000002_Node000005" class="edge">
<title>Node2&#45;&gt;Node5</title>
<g id="a_edge8_Node000002_Node000005"><a xlink:title=" ">
<path fill="none" stroke="#63b8ff" d="M643.92,-116.74C626.59,-118.62 608.17,-120.36 591,-121.5 450.83,-130.78 285.69,-129.52 199.03,-127.93"/>
<polygon fill="#63b8ff" stroke="#63b8ff" points="644.42,-120.2 653.97,-115.62 643.64,-113.25 644.42,-120.2"/>
</a>
</g>
</g>
<!-- Node7 -->
<g id="Node000007" class="node">
<title>Node7</title>
<g id="a_Node000007"><a xlink:href="classWebServer.html#a7667bc8a87db8f9987a5e80da9c4cd37" target="_top" xlink:title="Reads CGI process output and assembles it into the client buffer.">
<polygon fill="white" stroke="#666666" points="405,-117 235,-117 235,-98 405,-98 405,-117"/>
<text text-anchor="middle" x="320" y="-105" font-family="Helvetica,sans-Serif" font-size="10.00">WebServer::handleCgiReadable</text>
</a>
</g>
</g>
<!-- Node2&#45;&gt;Node7 -->
<g id="edge6_Node000002_Node000007" class="edge">
<title>Node2&#45;&gt;Node7</title>
<g id="a_edge6_Node000002_Node000007"><a xlink:title=" ">
<path fill="none" stroke="#63b8ff" d="M643.67,-107.5C576.08,-107.5 475.8,-107.5 405.01,-107.5"/>
<polygon fill="#63b8ff" stroke="#63b8ff" points="643.81,-111 653.81,-107.5 643.81,-104 643.81,-111"/>
</a>
</g>
</g>
<!-- Node8 -->
<g id="Node000008" class="node">
<title>Node8</title>
<g id="a_Node000008"><a xlink:href="classWebServer.html#a32042bb7e426cf5c53c2c2860d622342" target="_top" xlink:title="Scans active CGI processes and terminates those exceeding timeout.">
<polygon fill="white" stroke="#666666" points="404,-193 236,-193 236,-174 404,-174 404,-193"/>
<text text-anchor="middle" x="320" y="-181" font-family="Helvetica,sans-Serif" font-size="10.00">WebServer::sweepCgiTimeouts</text>
</a>
</g>
</g>
<!-- Node2&#45;&gt;Node8 -->
<g id="edge9_Node000002_Node000008" class="edge">
<title>Node2&#45;&gt;Node8</title>
<g id="a_edge9_Node000002_Node000008"><a xlink:title=" ">
<path fill="none" stroke="#63b8ff" d="M689.6,-121.65C664.61,-133.86 626.31,-150.86 591,-159.5 529.52,-174.55 458.11,-180.41 404.18,-182.58"/>
<polygon fill="#63b8ff" stroke="#63b8ff" points="691.41,-124.66 698.81,-117.07 688.3,-118.39 691.41,-124.66"/>
</a>
</g>
</g>
<!-- Node4 -->
<g id="Node000004" class="node">
<title>Node4</title>
<g id="a_Node000004"><a xlink:href="classWebServer.html#a8cbf37c0a840305ce15e8648566c9ce4" target="_top" xlink:title="Handles incoming data from a connected client.">
<polygon fill="white" stroke="#666666" points="395.5,-79 244.5,-79 244.5,-60 395.5,-60 395.5,-79"/>
<text text-anchor="middle" x="320" y="-67" font-family="Helvetica,sans-Serif" font-size="10.00">WebServer::receiveRequest</text>
</a>
</g>
</g>
<!-- Node3&#45;&gt;Node4 -->
<g id="edge3_Node000003_Node000004" class="edge">
<title>Node3&#45;&gt;Node4</title>
<g id="a_edge3_Node000003_Node000004"><a xlink:title=" ">
<path fill="none" stroke="#63b8ff" d="M447.61,-69.5C430.86,-69.5 412.82,-69.5 395.75,-69.5"/>
<polygon fill="#63b8ff" stroke="#63b8ff" points="447.84,-73 457.84,-69.5 447.84,-66 447.84,-73"/>
</a>
</g>
</g>
<!-- Node4&#45;&gt;Node5 -->
<g id="edge4_Node000004_Node000005" class="edge">
<title>Node4&#45;&gt;Node5</title>
<g id="a_edge4_Node000004_Node000005"><a xlink:title=" ">
<path fill="none" stroke="#63b8ff" d="M260.91,-81.41C252.17,-83.55 243.3,-85.93 235,-88.5 208.8,-96.6 179.62,-108.59 160.39,-116.93"/>
<polygon fill="#63b8ff" stroke="#63b8ff" points="261.77,-84.8 270.69,-79.09 260.15,-77.99 261.77,-84.8"/>
</a>
</g>
</g>
<!-- Node6 -->
<g id="Node000006" class="node">
<title>Node6</title>
<g id="a_Node000006"><a xlink:href="main_8cpp.html#a3c04138a5bfe5d72780bb7e82a18e627" target="_top" xlink:title="Entry point of the Webservinho web server.">
<polygon fill="white" stroke="#666666" points="41,-136 0,-136 0,-117 41,-117 41,-136"/>
<text text-anchor="middle" x="20.5" y="-124" font-family="Helvetica,sans-Serif" font-size="10.00">main</text>
</a>
</g>
</g>
<!-- Node5&#45;&gt;Node6 -->
<g id="edge5_Node000005_Node000006" class="edge">
<title>Node5&#45;&gt;Node6</title>
<g id="a_edge5_Node000005_Node000006"><a xlink:title=" ">
<path fill="none" stroke="#63b8ff" d="M66.66,-126.5C57.35,-126.5 48.51,-126.5 41.15,-126.5"/>
<polygon fill="#63b8ff" stroke="#63b8ff" points="66.88,-130 76.88,-126.5 66.88,-123 66.88,-130"/>
</a>
</g>
</g>
<!-- Node7&#45;&gt;Node5 -->
<g id="edge7_Node000007_Node000005" class="edge">
<title>Node7&#45;&gt;Node5</title>
<g id="a_edge7_Node000007_Node000005"><a xlink:title=" ">
<path fill="none" stroke="#63b8ff" d="M224.59,-117.47C215.91,-118.38 207.27,-119.29 199.02,-120.16"/>
<polygon fill="#63b8ff" stroke="#63b8ff" points="225.22,-120.92 234.8,-116.39 224.49,-113.96 225.22,-120.92"/>
</a>
</g>
</g>
<!-- Node8&#45;&gt;Node5 -->
<g id="edge10_Node000008_Node000005" class="edge">
<title>Node8&#45;&gt;Node5</title>
<g id="a_edge10_Node000008_Node000005"><a xlink:title=" ">
<path fill="none" stroke="#63b8ff" d="M274.22,-171.18C261.51,-167.55 247.67,-163.49 235,-159.5 211.46,-152.1 184.96,-142.92 165.77,-136.13"/>
<polygon fill="#63b8ff" stroke="#63b8ff" points="273.56,-174.63 284.14,-173.98 275.47,-167.89 273.56,-174.63"/>
</a>
</g>
</g>
<!-- Node10 -->
<g id="Node000010" class="node">
<title>Node10</title>
<g id="a_Node000010"><a xlink:href="classRequestParse.html#a5f2f35f5815fbb977cde05b19af41687" target="_top" xlink:title="Parses and processes raw HTTP request data incrementally.">
<polygon fill="white" stroke="#666666" points="809,-47 627,-47 627,-28 809,-28 809,-47"/>
<text text-anchor="middle" x="718" y="-35" font-family="Helvetica,sans-Serif" font-size="10.00">RequestParse::handleRawRequest</text>
</a>
</g>
</g>
<!-- Node9&#45;&gt;Node10 -->
<g id="edge12_Node000009_Node000010" class="edge">
<title>Node9&#45;&gt;Node10</title>
<g id="a_edge12_Node000009_Node000010"><a xlink:title=" ">
<path fill="none" stroke="#63b8ff" d="M842.54,-43.14C831.63,-42.65 820.27,-42.13 809.06,-41.61"/>
<polygon fill="#63b8ff" stroke="#63b8ff" points="842.71,-46.66 852.86,-43.62 843.03,-39.66 842.71,-46.66"/>
</a>
</g>
</g>
<!-- Node11 -->
<g id="Node000011" class="node">
<title>Node11</title>
<g id="a_Node000011"><a xlink:href="classClientConnection.html#a835586ce27b3c3598394bde3fff14211" target="_top" xlink:title="Receives incoming data from the client socket.">
<polygon fill="white" stroke="#666666" points="591,-42 441,-42 441,-23 591,-23 591,-42"/>
<text text-anchor="middle" x="516" y="-30" font-family="Helvetica,sans-Serif" font-size="10.00">ClientConnection::recvData</text>
</a>
</g>
</g>
<!-- Node10&#45;&gt;Node11 -->
<g id="edge13_Node000010_Node000011" class="edge">
<title>Node10&#45;&gt;Node11</title>
<g id="a_edge13_Node000010_Node000011"><a xlink:title=" ">
<path fill="none" stroke="#63b8ff" d="M616.86,-35C608.25,-34.78 599.64,-34.57 591.29,-34.36"/>
<polygon fill="#63b8ff" stroke="#63b8ff" points="616.86,-38.5 626.95,-35.25 617.04,-31.5 616.86,-38.5"/>
</a>
</g>
</g>
<!-- Node11&#45;&gt;Node4 -->
<g id="edge14_Node000011_Node000004" class="edge">
<title>Node11&#45;&gt;Node4</title>
<g id="a_edge14_Node000011_Node000004"><a xlink:title=" ">
<path fill="none" stroke="#63b8ff" d="M454.97,-43.95C428.08,-49.08 396.74,-55.06 371.13,-59.94"/>
<polygon fill="#63b8ff" stroke="#63b8ff" points="455.87,-47.34 465.04,-42.03 454.56,-40.46 455.87,-47.34"/>
</a>
</g>
</g>
</g>
</svg>
