<?xml version="1.0" encoding="UTF-8" standalone="no"?>
<!DOCTYPE svg PUBLIC "-//W3C//DTD SVG 1.1//EN"
 "http://www.w3.org/Graphics/SVG/1.1/DTD/svg11.dtd">
<!-- Generated by graphviz version 2.43.0 (0)
 -->
<!-- Title: RequestMeta::setExpectContinue Pages: 1 -->
<svg width="1193pt" height="103pt"
 viewBox="0.00 0.00 1193.00 103.00" xmlns="http://www.w3.org/2000/svg" xmlns:xlink="http://www.w3.org/1999/xlink">
<g id="graph0" class="graph" transform="scale(1 1) rotate(0) translate(4 99)">
<title>RequestMeta::setExpectContinue</title>
<!-- Node1 -->
<g id="Node000001" class="node">
<title>Node1</title>
<g id="a_Node000001"><a xlink:title="Sets the Expect: 100&#45;continue flag for the request.">
<polygon fill="#999999" stroke="#666666" points="1185,-57 1006,-57 1006,-38 1185,-38 1185,-57"/>
<text text-anchor="middle" x="1095.5" y="-45" font-family="Helvetica,sans-Serif" font-size="10.00">RequestMeta::setExpectContinue</text>
</a>
</g>
</g>
<!-- Node2 -->
<g id="Node000002" class="node">
<title>Node2</title>
<g id="a_Node000002"><a xlink:href="classRequestParse.html#ac3dc2d89d0e245ac752b5327f64bb70d" target="_top" xlink:title="Parses individual HTTP header lines and updates metadata.">
<polygon fill="white" stroke="#666666" points="962,-95 834,-95 834,-76 962,-76 962,-95"/>
<text text-anchor="middle" x="898" y="-83" font-family="Helvetica,sans-Serif" font-size="10.00">RequestParse::headers</text>
</a>
</g>
</g>
<!-- Node1&#45;&gt;Node2 -->
<g id="edge1_Node000001_Node000002" class="edge">
<title>Node1&#45;&gt;Node2</title>
<g id="a_edge1_Node000001_Node000002"><a xlink:title=" ">
<path fill="none" stroke="#63b8ff" d="M1035.39,-58.99C1007.5,-64.41 974.6,-70.81 948.1,-75.96"/>
<polygon fill="#63b8ff" stroke="#63b8ff" points="1036.27,-62.38 1045.42,-57.04 1034.94,-55.51 1036.27,-62.38"/>
</a>
</g>
</g>
<!-- Node5 -->
<g id="Node000005" class="node">
<title>Node5</title>
<g id="a_Node000005"><a xlink:href="classWebServer.html#a8cbf37c0a840305ce15e8648566c9ce4" target="_top" xlink:title="Handles incoming data from a connected client.">
<polygon fill="white" stroke="#666666" points="386,-76 235,-76 235,-57 386,-57 386,-76"/>
<text text-anchor="middle" x="310.5" y="-64" font-family="Helvetica,sans-Serif" font-size="10.00">WebServer::receiveRequest</text>
</a>
</g>
</g>
<!-- Node1&#45;&gt;Node5 -->
<g id="edge8_Node000001_Node000005" class="edge">
<title>Node1&#45;&gt;Node5</title>
<g id="a_edge8_Node000001_Node000005"><a xlink:title=" ">
<path fill="none" stroke="#63b8ff" d="M995.57,-49.9C836.63,-53.76 527.9,-61.25 386.05,-64.69"/>
<polygon fill="#63b8ff" stroke="#63b8ff" points="995.91,-53.39 1005.82,-49.65 995.74,-46.4 995.91,-53.39"/>
</a>
</g>
</g>
<!-- Node8 -->
<g id="Node000008" class="node">
<title>Node8</title>
<g id="a_Node000008"><a xlink:href="classHttpRequest.html#a42b01e8d23e15e65ad9c712922a6a812" target="_top" xlink:title="Constructs a new HttpRequest with default initialized state.">
<polygon fill="white" stroke="#666666" points="970,-19 826,-19 826,0 970,0 970,-19"/>
<text text-anchor="middle" x="898" y="-7" font-family="Helvetica,sans-Serif" font-size="10.00">HttpRequest::HttpRequest</text>
</a>
</g>
</g>
<!-- Node1&#45;&gt;Node8 -->
<g id="edge7_Node000001_Node000008" class="edge">
<title>Node1&#45;&gt;Node8</title>
<g id="a_edge7_Node000001_Node000008"><a xlink:title=" ">
<path fill="none" stroke="#63b8ff" d="M1035.39,-36.01C1007.5,-30.59 974.6,-24.19 948.1,-19.04"/>
<polygon fill="#63b8ff" stroke="#63b8ff" points="1034.94,-39.49 1045.42,-37.96 1036.27,-32.62 1034.94,-39.49"/>
</a>
</g>
</g>
<!-- Node3 -->
<g id="Node000003" class="node">
<title>Node3</title>
<g id="a_Node000003"><a xlink:href="classRequestParse.html#a5f2f35f5815fbb977cde05b19af41687" target="_top" xlink:title="Parses and processes raw HTTP request data incrementally.">
<polygon fill="white" stroke="#666666" points="790,-95 608,-95 608,-76 790,-76 790,-95"/>
<text text-anchor="middle" x="699" y="-83" font-family="Helvetica,sans-Serif" font-size="10.00">RequestParse::handleRawRequest</text>
</a>
</g>
</g>
<!-- Node2&#45;&gt;Node3 -->
<g id="edge2_Node000002_Node000003" class="edge">
<title>Node2&#45;&gt;Node3</title>
<g id="a_edge2_Node000002_Node000003"><a xlink:title=" ">
<path fill="none" stroke="#63b8ff" d="M823.54,-85.5C812.63,-85.5 801.27,-85.5 790.06,-85.5"/>
<polygon fill="#63b8ff" stroke="#63b8ff" points="823.86,-89 833.86,-85.5 823.86,-82 823.86,-89"/>
</a>
</g>
</g>
<!-- Node4 -->
<g id="Node000004" class="node">
<title>Node4</title>
<g id="a_Node000004"><a xlink:href="classClientConnection.html#a835586ce27b3c3598394bde3fff14211" target="_top" xlink:title="Receives incoming data from the client socket.">
<polygon fill="white" stroke="#666666" points="572,-95 422,-95 422,-76 572,-76 572,-95"/>
<text text-anchor="middle" x="497" y="-83" font-family="Helvetica,sans-Serif" font-size="10.00">ClientConnection::recvData</text>
</a>
</g>
</g>
<!-- Node3&#45;&gt;Node4 -->
<g id="edge3_Node000003_Node000004" class="edge">
<title>Node3&#45;&gt;Node4</title>
<g id="a_edge3_Node000003_Node000004"><a xlink:title=" ">
<path fill="none" stroke="#63b8ff" d="M597.86,-85.5C589.25,-85.5 580.64,-85.5 572.29,-85.5"/>
<polygon fill="#63b8ff" stroke="#63b8ff" points="597.95,-89 607.95,-85.5 597.95,-82 597.95,-89"/>
</a>
</g>
</g>
<!-- Node4&#45;&gt;Node5 -->
<g id="edge4_Node000004_Node000005" class="edge">
<title>Node4&#45;&gt;Node5</title>
<g id="a_edge4_Node000004_Node000005"><a xlink:title=" ">
<path fill="none" stroke="#63b8ff" d="M411.79,-76.83C403.25,-75.95 394.62,-75.06 386.19,-74.19"/>
<polygon fill="#63b8ff" stroke="#63b8ff" points="411.45,-80.31 421.75,-77.85 412.17,-73.35 411.45,-80.31"/>
</a>
</g>
</g>
<!-- Node6 -->
<g id="Node000006" class="node">
<title>Node6</title>
<g id="a_Node000006"><a xlink:href="classWebServer.html#af39709e3744077e019aa76555f03a42e" target="_top" xlink:title="Main event loop — monitors sockets, dispatches requests, and handles responses.">
<polygon fill="white" stroke="#666666" points="199,-76 77,-76 77,-57 199,-57 199,-76"/>
<text text-anchor="middle" x="138" y="-64" font-family="Helvetica,sans-Serif" font-size="10.00">WebServer::runServer</text>
</a>
</g>
</g>
<!-- Node5&#45;&gt;Node6 -->
<g id="edge5_Node000005_Node000006" class="edge">
<title>Node5&#45;&gt;Node6</title>
<g id="a_edge5_Node000005_Node000006"><a xlink:title=" ">
<path fill="none" stroke="#63b8ff" d="M224.63,-66.5C216.02,-66.5 207.4,-66.5 199.13,-66.5"/>
<polygon fill="#63b8ff" stroke="#63b8ff" points="224.72,-70 234.72,-66.5 224.72,-63 224.72,-70"/>
</a>
</g>
</g>
<!-- Node7 -->
<g id="Node000007" class="node">
<title>Node7</title>
<g id="a_Node000007"><a xlink:href="main_8cpp.html#a3c04138a5bfe5d72780bb7e82a18e627" target="_top" xlink:title="Entry point of the Webservinho web server.">
<polygon fill="white" stroke="#666666" points="41,-76 0,-76 0,-57 41,-57 41,-76"/>
<text text-anchor="middle" x="20.5" y="-64" font-family="Helvetica,sans-Serif" font-size="10.00">main</text>
</a>
</g>
</g>
<!-- Node6&#45;&gt;Node7 -->
<g id="edge6_Node000006_Node000007" class="edge">
<title>Node6&#45;&gt;Node7</title>
<g id="a_edge6_Node000006_Node000007"><a xlink:title=" ">
<path fill="none" stroke="#63b8ff" d="M66.66,-66.5C57.35,-66.5 48.51,-66.5 41.15,-66.5"/>
<polygon fill="#63b8ff" stroke="#63b8ff" points="66.88,-70 76.88,-66.5 66.88,-63 66.88,-70"/>
</a>
</g>
</g>
</g>
</svg>
