<?xml version="1.0" encoding="UTF-8" standalone="no"?>
<!DOCTYPE svg PUBLIC "-//W3C//DTD SVG 1.1//EN"
 "http://www.w3.org/Graphics/SVG/1.1/DTD/svg11.dtd">
<!-- Generated by graphviz version 2.43.0 (0)
 -->
<!-- Title: RequestParse::bodyChunked Pages: 1 -->
<svg width="385pt" height="580pt"
 viewBox="0.00 0.00 385.00 580.00" xmlns="http://www.w3.org/2000/svg" xmlns:xlink="http://www.w3.org/1999/xlink">
<g id="graph0" class="graph" transform="scale(1 1) rotate(0) translate(4 576)">
<title>RequestParse::bodyChunked</title>
<!-- Node1 -->
<g id="Node000001" class="node">
<title>Node1</title>
<g id="a_Node000001"><a xlink:title="Handles Transfer&#45;Encoding: chunked body parsing.">
<polygon fill="#999999" stroke="#666666" points="155,-296 0,-296 0,-277 155,-277 155,-296"/>
<text text-anchor="middle" x="77.5" y="-284" font-family="Helvetica,sans-Serif" font-size="10.00">RequestParse::bodyChunked</text>
</a>
</g>
</g>
<!-- Node2 -->
<g id="Node000002" class="node">
<title>Node2</title>
<g id="a_Node000002"><a xlink:href="classHttpRequest.html#ac2134dd5bc740ab26d1f1eeeb6c3b882" target="_top" xlink:title="Appends data to the body of the request.">
<polygon fill="white" stroke="#666666" points="356,-572 212,-572 212,-553 356,-553 356,-572"/>
<text text-anchor="middle" x="284" y="-560" font-family="Helvetica,sans-Serif" font-size="10.00">HttpRequest::appendBody</text>
</a>
</g>
</g>
<!-- Node1&#45;&gt;Node2 -->
<g id="edge1_Node000001_Node000002" class="edge">
<title>Node1&#45;&gt;Node2</title>
<g id="a_edge1_Node000001_Node000002"><a xlink:title=" ">
<path fill="none" stroke="#63b8ff" d="M79.54,-296.12C84.23,-334.39 106.98,-477.05 191,-544.5 194.43,-547.25 198.15,-549.62 202.08,-551.66"/>
<polygon fill="#63b8ff" stroke="#63b8ff" points="200.99,-555.01 211.56,-555.85 203.82,-548.6 200.99,-555.01"/>
</a>
</g>
</g>
<!-- Node3 -->
<g id="Node000003" class="node">
<title>Node3</title>
<g id="a_Node000003"><a xlink:href="classHttpRequest.html#a094748c8ada94274a3025671ec86efd9" target="_top" xlink:title="Clears the general parsing buffer.">
<polygon fill="white" stroke="#666666" points="352.5,-535 215.5,-535 215.5,-516 352.5,-516 352.5,-535"/>
<text text-anchor="middle" x="284" y="-523" font-family="Helvetica,sans-Serif" font-size="10.00">HttpRequest::clearBuffer</text>
</a>
</g>
</g>
<!-- Node1&#45;&gt;Node3 -->
<g id="edge2_Node000001_Node000003" class="edge">
<title>Node1&#45;&gt;Node3</title>
<g id="a_edge2_Node000001_Node000003"><a xlink:title=" ">
<path fill="none" stroke="#63b8ff" d="M80.35,-296.41C87.45,-331.56 116.43,-451.22 191,-507.5 195.47,-510.87 200.39,-513.66 205.57,-515.96"/>
<polygon fill="#63b8ff" stroke="#63b8ff" points="204.54,-519.32 215.13,-519.61 207.03,-512.78 204.54,-519.32"/>
</a>
</g>
</g>
<!-- Node4 -->
<g id="Node000004" class="node">
<title>Node4</title>
<g id="a_Node000004"><a xlink:href="classHttpRequest.html#a4695b2873bc8274e980fbd6b600a2a28" target="_top" xlink:title="Clears the temporary buffer used for chunked transfer decoding.">
<polygon fill="white" stroke="#666666" points="367.5,-498 200.5,-498 200.5,-479 367.5,-479 367.5,-498"/>
<text text-anchor="middle" x="284" y="-486" font-family="Helvetica,sans-Serif" font-size="10.00">HttpRequest::clearChunkBuffer</text>
</a>
</g>
</g>
<!-- Node1&#45;&gt;Node4 -->
<g id="edge3_Node000001_Node000004" class="edge">
<title>Node1&#45;&gt;Node4</title>
<g id="a_edge3_Node000001_Node000004"><a xlink:title=" ">
<path fill="none" stroke="#63b8ff" d="M81.28,-296.04C90.8,-326.91 125.22,-424.75 191,-470.5 193.1,-471.96 195.3,-473.31 197.56,-474.56"/>
<polygon fill="#63b8ff" stroke="#63b8ff" points="196.07,-477.73 206.6,-478.88 199.09,-471.41 196.07,-477.73"/>
</a>
</g>
</g>
<!-- Node5 -->
<g id="Node000005" class="node">
<title>Node5</title>
<g id="a_Node000005"><a xlink:href="classHttpRequest.html#af26b6c084c398687ce068b84d99c6a51" target="_top" xlink:title=" ">
<polygon fill="white" stroke="#666666" points="348,-461 220,-461 220,-442 348,-442 348,-461"/>
<text text-anchor="middle" x="284" y="-449" font-family="Helvetica,sans-Serif" font-size="10.00">HttpRequest::getBuffer</text>
</a>
</g>
</g>
<!-- Node1&#45;&gt;Node5 -->
<g id="edge4_Node000001_Node000005" class="edge">
<title>Node1&#45;&gt;Node5</title>
<g id="a_edge4_Node000001_Node000005"><a xlink:title=" ">
<path fill="none" stroke="#63b8ff" d="M82.89,-296.35C95.43,-323.24 134.2,-398.25 191,-433.5 196.85,-437.13 203.29,-440.06 209.95,-442.41"/>
<polygon fill="#63b8ff" stroke="#63b8ff" points="209.24,-445.85 219.83,-445.45 211.3,-439.16 209.24,-445.85"/>
</a>
</g>
</g>
<!-- Node6 -->
<g id="Node000006" class="node">
<title>Node6</title>
<g id="a_Node000006"><a xlink:href="classHttpRequest.html#adfeba15e2752ba4ad7a39a1a18a709e5" target="_top" xlink:title=" ">
<polygon fill="white" stroke="#666666" points="363.5,-424 204.5,-424 204.5,-405 363.5,-405 363.5,-424"/>
<text text-anchor="middle" x="284" y="-412" font-family="Helvetica,sans-Serif" font-size="10.00">HttpRequest::getChunkBuffer</text>
</a>
</g>
</g>
<!-- Node1&#45;&gt;Node6 -->
<g id="edge5_Node000001_Node000006" class="edge">
<title>Node1&#45;&gt;Node6</title>
<g id="a_edge5_Node000001_Node000006"><a xlink:title=" ">
<path fill="none" stroke="#63b8ff" d="M85.12,-296.01C100.76,-317.72 142.39,-370.97 191,-396.5 194.55,-398.36 198.26,-400.03 202.08,-401.53"/>
<polygon fill="#63b8ff" stroke="#63b8ff" points="201.15,-404.91 211.74,-404.91 203.46,-398.31 201.15,-404.91"/>
</a>
</g>
</g>
<!-- Node7 -->
<g id="Node000007" class="node">
<title>Node7</title>
<g id="a_Node000007"><a xlink:href="classHttpRequest.html#a0a1607918c6622e543117746635f5bf2" target="_top" xlink:title=" ">
<polygon fill="white" stroke="#666666" points="377,-387 191,-387 191,-368 377,-368 377,-387"/>
<text text-anchor="middle" x="284" y="-375" font-family="Helvetica,sans-Serif" font-size="10.00">HttpRequest::getCurrentChunkSize</text>
</a>
</g>
</g>
<!-- Node1&#45;&gt;Node7 -->
<g id="edge6_Node000001_Node000007" class="edge">
<title>Node1&#45;&gt;Node7</title>
<g id="a_edge6_Node000001_Node000007"><a xlink:title=" ">
<path fill="none" stroke="#63b8ff" d="M90.17,-296.06C109.76,-311.6 151.05,-342.24 191,-358.5 197.39,-361.1 204.19,-363.36 211.08,-365.32"/>
<polygon fill="#63b8ff" stroke="#63b8ff" points="210.64,-368.83 221.2,-367.99 212.42,-362.06 210.64,-368.83"/>
</a>
</g>
</g>
<!-- Node8 -->
<g id="Node000008" class="node">
<title>Node8</title>
<g id="a_Node000008"><a xlink:href="classHttpRequest.html#a287e0bbbae284ea81708e9da43a7790c" target="_top" xlink:title=" ">
<polygon fill="white" stroke="#666666" points="354,-349.5 214,-349.5 214,-319.5 354,-319.5 354,-349.5"/>
<text text-anchor="start" x="222" y="-337.5" font-family="Helvetica,sans-Serif" font-size="10.00">HttpRequest::isExpecting</text>
<text text-anchor="middle" x="284" y="-326.5" font-family="Helvetica,sans-Serif" font-size="10.00">ChunkSeparator</text>
</a>
</g>
</g>
<!-- Node1&#45;&gt;Node8 -->
<g id="edge7_Node000001_Node000008" class="edge">
<title>Node1&#45;&gt;Node8</title>
<g id="a_edge7_Node000001_Node000008"><a xlink:title=" ">
<path fill="none" stroke="#63b8ff" d="M119.39,-296.1C144.94,-302.1 178.61,-310 208.75,-317.07"/>
<polygon fill="#63b8ff" stroke="#63b8ff" points="208.29,-320.56 218.83,-319.44 209.89,-313.74 208.29,-320.56"/>
</a>
</g>
</g>
<!-- Node9 -->
<g id="Node000009" class="node">
<title>Node9</title>
<g id="a_Node000009"><a xlink:href="classRequestParse.html#a41fb8fd94bdb7ca3d28f6578d803377d" target="_top" xlink:title="Compares body size against maximum allowed by server configuration.">
<polygon fill="white" stroke="#666666" points="363,-301.5 205,-301.5 205,-271.5 363,-271.5 363,-301.5"/>
<text text-anchor="start" x="213" y="-289.5" font-family="Helvetica,sans-Serif" font-size="10.00">RequestParse::isGreaterThan</text>
<text text-anchor="middle" x="284" y="-278.5" font-family="Helvetica,sans-Serif" font-size="10.00">MaxBodySize</text>
</a>
</g>
</g>
<!-- Node1&#45;&gt;Node9 -->
<g id="edge8_Node000001_Node000009" class="edge">
<title>Node1&#45;&gt;Node9</title>
<g id="a_edge8_Node000001_Node000009"><a xlink:title=" ">
<path fill="none" stroke="#63b8ff" d="M155.23,-286.5C168.14,-286.5 181.64,-286.5 194.82,-286.5"/>
<polygon fill="#63b8ff" stroke="#63b8ff" points="194.82,-290 204.82,-286.5 194.82,-283 194.82,-290"/>
</a>
</g>
</g>
<!-- Node10 -->
<g id="Node000010" class="node">
<title>Node10</title>
<g id="a_Node000010"><a xlink:href="classHttpRequest.html#a41334d19e3ae765498ad828af9223178" target="_top" xlink:title=" ">
<polygon fill="white" stroke="#666666" points="373,-253 195,-253 195,-234 373,-234 373,-253"/>
<text text-anchor="middle" x="284" y="-241" font-family="Helvetica,sans-Serif" font-size="10.00">HttpRequest::isParsingChunkSize</text>
</a>
</g>
</g>
<!-- Node1&#45;&gt;Node10 -->
<g id="edge9_Node000001_Node000010" class="edge">
<title>Node1&#45;&gt;Node10</title>
<g id="a_edge9_Node000001_Node000010"><a xlink:title=" ">
<path fill="none" stroke="#63b8ff" d="M122.83,-276.97C143.54,-272.54 168.52,-267.22 191,-262.5 202.48,-260.09 214.77,-257.53 226.51,-255.1"/>
<polygon fill="#63b8ff" stroke="#63b8ff" points="227.57,-258.46 236.66,-253.01 226.16,-251.61 227.57,-258.46"/>
</a>
</g>
</g>
<!-- Node11 -->
<g id="Node000011" class="node">
<title>Node11</title>
<g id="a_Node000011"><a xlink:href="classHttpRequest.html#aea8112da8cc0f4e056bcb57d18a54988" target="_top" xlink:title="Updates the size of the current chunk being parsed.">
<polygon fill="white" stroke="#666666" points="376.5,-216 191.5,-216 191.5,-197 376.5,-197 376.5,-216"/>
<text text-anchor="middle" x="284" y="-204" font-family="Helvetica,sans-Serif" font-size="10.00">HttpRequest::setCurrentChunkSize</text>
</a>
</g>
</g>
<!-- Node1&#45;&gt;Node11 -->
<g id="edge10_Node000001_Node000011" class="edge">
<title>Node1&#45;&gt;Node11</title>
<g id="a_edge10_Node000001_Node000011"><a xlink:title=" ">
<path fill="none" stroke="#63b8ff" d="M92.77,-276.97C113.53,-263.53 153.65,-239.15 191,-225.5 198.32,-222.82 206.12,-220.49 213.96,-218.45"/>
<polygon fill="#63b8ff" stroke="#63b8ff" points="214.99,-221.8 223.88,-216.03 213.33,-215 214.99,-221.8"/>
</a>
</g>
</g>
<!-- Node12 -->
<g id="Node000012" class="node">
<title>Node12</title>
<g id="a_Node000012"><a xlink:href="classHttpRequest.html#ad875e49b03abccaf092ecb49d5bdad31" target="_top" xlink:title=" ">
<polygon fill="white" stroke="#666666" points="357,-178.5 211,-178.5 211,-148.5 357,-148.5 357,-178.5"/>
<text text-anchor="start" x="219" y="-166.5" font-family="Helvetica,sans-Serif" font-size="10.00">HttpRequest::setExpecting</text>
<text text-anchor="middle" x="284" y="-155.5" font-family="Helvetica,sans-Serif" font-size="10.00">ChunkSeparator</text>
</a>
</g>
</g>
<!-- Node1&#45;&gt;Node12 -->
<g id="edge11_Node000001_Node000012" class="edge">
<title>Node1&#45;&gt;Node12</title>
<g id="a_edge11_Node000001_Node000012"><a xlink:title=" ">
<path fill="none" stroke="#63b8ff" d="M86.76,-276.82C104.07,-257.17 146.23,-212.44 191,-188.5 195.25,-186.23 199.72,-184.15 204.3,-182.25"/>
<polygon fill="#63b8ff" stroke="#63b8ff" points="205.76,-185.44 213.85,-178.6 203.26,-178.91 205.76,-185.44"/>
</a>
</g>
</g>
<!-- Node13 -->
<g id="Node000013" class="node">
<title>Node13</title>
<g id="a_Node000013"><a xlink:href="classHttpRequest.html#a4af8abc5368c893ba9bb24939cb95aa3" target="_top" xlink:title=" ">
<polygon fill="white" stroke="#666666" points="358,-130 210,-130 210,-111 358,-111 358,-130"/>
<text text-anchor="middle" x="284" y="-118" font-family="Helvetica,sans-Serif" font-size="10.00">HttpRequest::setParseError</text>
</a>
</g>
</g>
<!-- Node1&#45;&gt;Node13 -->
<g id="edge12_Node000001_Node000013" class="edge">
<title>Node1&#45;&gt;Node13</title>
<g id="a_edge12_Node000001_Node000013"><a xlink:title=" ">
<path fill="none" stroke="#63b8ff" d="M82.91,-276.68C95.5,-249.87 134.39,-175.04 191,-139.5 194.23,-137.47 197.63,-135.66 201.16,-134.03"/>
<polygon fill="#63b8ff" stroke="#63b8ff" points="202.77,-137.16 210.72,-130.16 200.14,-130.67 202.77,-137.16"/>
</a>
</g>
</g>
<!-- Node14 -->
<g id="Node000014" class="node">
<title>Node14</title>
<g id="a_Node000014"><a xlink:href="classHttpRequest.html#a966aa80a9d050cecf9f51d21a2959da7" target="_top" xlink:title=" ">
<polygon fill="white" stroke="#666666" points="376.5,-93 191.5,-93 191.5,-74 376.5,-74 376.5,-93"/>
<text text-anchor="middle" x="284" y="-81" font-family="Helvetica,sans-Serif" font-size="10.00">HttpRequest::setParsingChunkSize</text>
</a>
</g>
</g>
<!-- Node1&#45;&gt;Node14 -->
<g id="edge13_Node000001_Node000014" class="edge">
<title>Node1&#45;&gt;Node14</title>
<g id="a_edge13_Node000001_Node000014"><a xlink:title=" ">
<path fill="none" stroke="#63b8ff" d="M81.3,-276.99C90.88,-246.2 125.46,-148.59 191,-102.5 193.73,-100.58 196.62,-98.84 199.62,-97.27"/>
<polygon fill="#63b8ff" stroke="#63b8ff" points="201.24,-100.38 208.9,-93.06 198.35,-94.01 201.24,-100.38"/>
</a>
</g>
</g>
<!-- Node15 -->
<g id="Node000015" class="node">
<title>Node15</title>
<g id="a_Node000015"><a xlink:href="classHttpRequest.html#a15c0dff5d8350a2c71306638d30d5fe3" target="_top" xlink:title=" ">
<polygon fill="white" stroke="#666666" points="366,-56 202,-56 202,-37 366,-37 366,-56"/>
<text text-anchor="middle" x="284" y="-44" font-family="Helvetica,sans-Serif" font-size="10.00">HttpRequest::setRequestState</text>
</a>
</g>
</g>
<!-- Node1&#45;&gt;Node15 -->
<g id="edge14_Node000001_Node000015" class="edge">
<title>Node1&#45;&gt;Node15</title>
<g id="a_edge14_Node000001_Node000015"><a xlink:title=" ">
<path fill="none" stroke="#63b8ff" d="M80.37,-276.62C87.54,-241.56 116.73,-122.17 191,-65.5 193.23,-63.8 195.58,-62.24 198.02,-60.81"/>
<polygon fill="#63b8ff" stroke="#63b8ff" points="199.84,-63.81 207.2,-56.19 196.69,-57.56 199.84,-63.81"/>
</a>
</g>
</g>
<!-- Node16 -->
<g id="Node000016" class="node">
<title>Node16</title>
<g id="a_Node000016"><a xlink:href="string__utils_8hpp.html#a8a4293a53b143f48d36876fcaff304b4" target="_top" xlink:title="Converts a hexadecimal string into an integer.">
<polygon fill="white" stroke="#666666" points="321,-19 247,-19 247,0 321,0 321,-19"/>
<text text-anchor="middle" x="284" y="-7" font-family="Helvetica,sans-Serif" font-size="10.00">stringToHex</text>
</a>
</g>
</g>
<!-- Node1&#45;&gt;Node16 -->
<g id="edge15_Node000001_Node000016" class="edge">
<title>Node1&#45;&gt;Node16</title>
<g id="a_edge15_Node000001_Node000016"><a xlink:title=" ">
<path fill="none" stroke="#63b8ff" d="M79.56,-276.91C84.33,-238.73 107.33,-96.39 191,-28.5 203.78,-18.13 220.78,-12.99 236.68,-10.55"/>
<polygon fill="#63b8ff" stroke="#63b8ff" points="237.41,-13.99 246.92,-9.32 236.57,-7.04 237.41,-13.99"/>
</a>
</g>
</g>
</g>
</svg>
