<?xml version="1.0" encoding="UTF-8" standalone="no"?>
<!DOCTYPE svg PUBLIC "-//W3C//DTD SVG 1.1//EN"
 "http://www.w3.org/Graphics/SVG/1.1/DTD/svg11.dtd">
<!-- Generated by graphviz version 2.43.0 (0)
 -->
<!-- Title: RequestParse::body Pages: 1 -->
<svg width="553pt" height="649pt"
 viewBox="0.00 0.00 553.00 649.00" xmlns="http://www.w3.org/2000/svg" xmlns:xlink="http://www.w3.org/1999/xlink">
<g id="graph0" class="graph" transform="scale(1 1) rotate(0) translate(4 645)">
<title>RequestParse::body</title>
<!-- Node1 -->
<g id="Node000001" class="node">
<title>Node1</title>
<g id="a_Node000001"><a xlink:title="Processes the message body for both fixed&#45;length and chunked modes.">
<polygon fill="#999999" stroke="#666666" points="113,-185 0,-185 0,-166 113,-166 113,-185"/>
<text text-anchor="middle" x="56.5" y="-173" font-family="Helvetica,sans-Serif" font-size="10.00">RequestParse::body</text>
</a>
</g>
</g>
<!-- Node2 -->
<g id="Node000002" class="node">
<title>Node2</title>
<g id="a_Node000002"><a xlink:href="classHttpRequest.html#ac2134dd5bc740ab26d1f1eeeb6c3b882" target="_top" xlink:title="Appends data to the body of the request.">
<polygon fill="white" stroke="#666666" points="524,-641 380,-641 380,-622 524,-622 524,-641"/>
<text text-anchor="middle" x="452" y="-629" font-family="Helvetica,sans-Serif" font-size="10.00">HttpRequest::appendBody</text>
</a>
</g>
</g>
<!-- Node1&#45;&gt;Node2 -->
<g id="edge1_Node000001_Node000002" class="edge">
<title>Node1&#45;&gt;Node2</title>
<g id="a_edge1_Node000001_Node000002"><a xlink:title=" ">
<path fill="none" stroke="#63b8ff" d="M60.69,-185.09C79.14,-238.81 177.64,-503.99 359,-613.5 362.6,-615.68 366.42,-617.6 370.37,-619.29"/>
<polygon fill="#63b8ff" stroke="#63b8ff" points="369.19,-622.59 379.78,-622.85 371.66,-616.04 369.19,-622.59"/>
</a>
</g>
</g>
<!-- Node3 -->
<g id="Node000003" class="node">
<title>Node3</title>
<g id="a_Node000003"><a xlink:href="classRequestParse.html#aaacc39eadbaa26e80ed2b6bfc495fbb4" target="_top" xlink:title="Handles Transfer&#45;Encoding: chunked body parsing.">
<polygon fill="white" stroke="#666666" points="313.5,-343 158.5,-343 158.5,-324 313.5,-324 313.5,-343"/>
<text text-anchor="middle" x="236" y="-331" font-family="Helvetica,sans-Serif" font-size="10.00">RequestParse::bodyChunked</text>
</a>
</g>
</g>
<!-- Node1&#45;&gt;Node3 -->
<g id="edge2_Node000001_Node000003" class="edge">
<title>Node1&#45;&gt;Node3</title>
<g id="a_edge2_Node000001_Node000003"><a xlink:title=" ">
<path fill="none" stroke="#63b8ff" d="M63.93,-185.11C77.71,-205.22 111.89,-252.41 149,-283.5 166.09,-297.82 187.81,-310.41 205.15,-319.38"/>
<polygon fill="#63b8ff" stroke="#63b8ff" points="203.77,-322.6 214.27,-323.97 206.92,-316.35 203.77,-322.6"/>
</a>
</g>
</g>
<!-- Node16 -->
<g id="Node000016" class="node">
<title>Node16</title>
<g id="a_Node000016"><a xlink:href="classHttpRequest.html#a15c0dff5d8350a2c71306638d30d5fe3" target="_top" xlink:title=" ">
<polygon fill="white" stroke="#666666" points="534,-88 370,-88 370,-69 534,-69 534,-88"/>
<text text-anchor="middle" x="452" y="-76" font-family="Helvetica,sans-Serif" font-size="10.00">HttpRequest::setRequestState</text>
</a>
</g>
</g>
<!-- Node1&#45;&gt;Node16 -->
<g id="edge25_Node000001_Node000016" class="edge">
<title>Node1&#45;&gt;Node16</title>
<g id="a_edge25_Node000001_Node000016"><a xlink:title=" ">
<path fill="none" stroke="#63b8ff" d="M65.28,-185.27C79.65,-202.41 112.25,-237.36 149,-250.5 221.82,-276.53 262.38,-298.51 323,-250.5 377.76,-207.13 308.93,-146.21 359,-97.5 360.45,-96.09 361.97,-94.78 363.55,-93.55"/>
<polygon fill="#63b8ff" stroke="#63b8ff" points="365.49,-96.47 371.97,-88.09 361.68,-90.59 365.49,-96.47"/>
</a>
</g>
</g>
<!-- Node18 -->
<g id="Node000018" class="node">
<title>Node18</title>
<g id="a_Node000018"><a xlink:href="classHttpRequest.html#ab30e8ad147999e3dc043302f81e7fef9" target="_top" xlink:title="Returns the body of the request.">
<polygon fill="white" stroke="#666666" points="298,-241 174,-241 174,-222 298,-222 298,-241"/>
<text text-anchor="middle" x="236" y="-229" font-family="Helvetica,sans-Serif" font-size="10.00">HttpRequest::getBody</text>
</a>
</g>
</g>
<!-- Node1&#45;&gt;Node18 -->
<g id="edge18_Node000001_Node000018" class="edge">
<title>Node1&#45;&gt;Node18</title>
<g id="a_edge18_Node000001_Node000018"><a xlink:title=" ">
<path fill="none" stroke="#63b8ff" d="M77.45,-185.06C95.72,-193.51 123.69,-205.67 149,-213.5 156.19,-215.73 163.81,-217.76 171.42,-219.6"/>
<polygon fill="#63b8ff" stroke="#63b8ff" points="170.86,-223.06 181.39,-221.9 172.43,-216.24 170.86,-223.06"/>
</a>
</g>
</g>
<!-- Node19 -->
<g id="Node000019" class="node">
<title>Node19</title>
<g id="a_Node000019"><a xlink:href="classRequestMeta.html#ac8dbee6450bf74ffd3ea1c9bb6213b7a" target="_top" xlink:title="Returns the Content&#45;Length value.">
<polygon fill="white" stroke="#666666" points="323,-204 149,-204 149,-185 323,-185 323,-204"/>
<text text-anchor="middle" x="236" y="-192" font-family="Helvetica,sans-Serif" font-size="10.00">RequestMeta::getContentLength</text>
</a>
</g>
</g>
<!-- Node1&#45;&gt;Node19 -->
<g id="edge19_Node000001_Node000019" class="edge">
<title>Node1&#45;&gt;Node19</title>
<g id="a_edge19_Node000001_Node000019"><a xlink:title=" ">
<path fill="none" stroke="#63b8ff" d="M113.18,-181.46C121.45,-182.35 130.17,-183.28 138.99,-184.22"/>
<polygon fill="#63b8ff" stroke="#63b8ff" points="138.65,-187.71 148.96,-185.29 139.39,-180.75 138.65,-187.71"/>
</a>
</g>
</g>
<!-- Node20 -->
<g id="Node000020" class="node">
<title>Node20</title>
<g id="a_Node000020"><a xlink:href="classHttpRequest.html#afee0e84f22f6d1226023d40f4a75c17a" target="_top" xlink:title="Returns a const reference to the RequestMeta structure.">
<polygon fill="white" stroke="#666666" points="298,-167 174,-167 174,-148 298,-148 298,-167"/>
<text text-anchor="middle" x="236" y="-155" font-family="Helvetica,sans-Serif" font-size="10.00">HttpRequest::getMeta</text>
</a>
</g>
</g>
<!-- Node1&#45;&gt;Node20 -->
<g id="edge20_Node000001_Node000020" class="edge">
<title>Node1&#45;&gt;Node20</title>
<g id="a_edge20_Node000001_Node000020"><a xlink:title=" ">
<path fill="none" stroke="#63b8ff" d="M113.18,-169.85C129.17,-168.23 146.84,-166.44 163.65,-164.74"/>
<polygon fill="#63b8ff" stroke="#63b8ff" points="164.38,-168.18 173.97,-163.69 163.67,-161.22 164.38,-168.18"/>
</a>
</g>
</g>
<!-- Node21 -->
<g id="Node000021" class="node">
<title>Node21</title>
<g id="a_Node000021"><a xlink:href="classLogger.html#a4aa4d7c3b98f6e12e7ea8253da5ea0cd" target="_top" xlink:title="Returns the singleton instance of the Logger.">
<polygon fill="white" stroke="#666666" points="284.5,-130 187.5,-130 187.5,-111 284.5,-111 284.5,-130"/>
<text text-anchor="middle" x="236" y="-118" font-family="Helvetica,sans-Serif" font-size="10.00">Logger::instance</text>
</a>
</g>
</g>
<!-- Node1&#45;&gt;Node21 -->
<g id="edge21_Node000001_Node000021" class="edge">
<title>Node1&#45;&gt;Node21</title>
<g id="a_edge21_Node000001_Node000021"><a xlink:title=" ">
<path fill="none" stroke="#63b8ff" d="M78.97,-165.94C97.3,-158.05 124.51,-146.97 149,-139.5 158.12,-136.72 167.9,-134.16 177.47,-131.89"/>
<polygon fill="#63b8ff" stroke="#63b8ff" points="178.37,-135.28 187.34,-129.63 176.81,-128.45 178.37,-135.28"/>
</a>
</g>
</g>
<!-- Node22 -->
<g id="Node000022" class="node">
<title>Node22</title>
<g id="a_Node000022"><a xlink:href="classRequestMeta.html#acded047391c25677409e4725a644b3da" target="_top" xlink:title="Returns true if transfer encoding is chunked.">
<polygon fill="white" stroke="#666666" points="304.5,-93 167.5,-93 167.5,-74 304.5,-74 304.5,-93"/>
<text text-anchor="middle" x="236" y="-81" font-family="Helvetica,sans-Serif" font-size="10.00">RequestMeta::isChunked</text>
</a>
</g>
</g>
<!-- Node1&#45;&gt;Node22 -->
<g id="edge22_Node000001_Node000022" class="edge">
<title>Node1&#45;&gt;Node22</title>
<g id="a_edge22_Node000001_Node000022"><a xlink:title=" ">
<path fill="none" stroke="#63b8ff" d="M66.63,-165.76C82.04,-149.94 114.89,-118.78 149,-102.5 154.22,-100.01 159.77,-97.84 165.44,-95.95"/>
<polygon fill="#63b8ff" stroke="#63b8ff" points="166.51,-99.29 175.06,-93.03 164.48,-92.59 166.51,-99.29"/>
</a>
</g>
</g>
<!-- Node23 -->
<g id="Node000023" class="node">
<title>Node23</title>
<g id="a_Node000023"><a xlink:href="classLogger.html#a3d3f0801eeaf39b33a906ea8569c19b2" target="_top" xlink:title="Writes a log entry with timestamp, level, and message.">
<polygon fill="white" stroke="#666666" points="271.5,-56 200.5,-56 200.5,-37 271.5,-37 271.5,-56"/>
<text text-anchor="middle" x="236" y="-44" font-family="Helvetica,sans-Serif" font-size="10.00">Logger::log</text>
</a>
</g>
</g>
<!-- Node1&#45;&gt;Node23 -->
<g id="edge23_Node000001_Node000023" class="edge">
<title>Node1&#45;&gt;Node23</title>
<g id="a_edge23_Node000001_Node000023"><a xlink:title=" ">
<path fill="none" stroke="#63b8ff" d="M62.41,-165.93C74.14,-144.09 106.04,-90.47 149,-64.5 161.39,-57.01 176.43,-52.59 190.43,-50.01"/>
<polygon fill="#63b8ff" stroke="#63b8ff" points="191.07,-53.45 200.4,-48.43 189.97,-46.54 191.07,-53.45"/>
</a>
</g>
</g>
<!-- Node25 -->
<g id="Node000025" class="node">
<title>Node25</title>
<g id="a_Node000025"><a xlink:href="string__utils_8hpp.html#ad735976365693b45c427000fe042e173" target="_top" xlink:title="Converts any printable type to a string representation.">
<polygon fill="white" stroke="#666666" points="263.5,-19 208.5,-19 208.5,0 263.5,0 263.5,-19"/>
<text text-anchor="middle" x="236" y="-7" font-family="Helvetica,sans-Serif" font-size="10.00">toString</text>
</a>
</g>
</g>
<!-- Node1&#45;&gt;Node25 -->
<g id="edge26_Node000001_Node000025" class="edge">
<title>Node1&#45;&gt;Node25</title>
<g id="a_edge26_Node000001_Node000025"><a xlink:title=" ">
<path fill="none" stroke="#63b8ff" d="M60.52,-165.65C69.31,-138.73 97.56,-63.58 149,-27.5 163.24,-17.51 181.86,-12.85 198.12,-10.75"/>
<polygon fill="#63b8ff" stroke="#63b8ff" points="198.81,-14.2 208.41,-9.71 198.11,-7.24 198.81,-14.2"/>
</a>
</g>
</g>
<!-- Node3&#45;&gt;Node2 -->
<g id="edge3_Node000003_Node000002" class="edge">
<title>Node3&#45;&gt;Node2</title>
<g id="a_edge3_Node000003_Node000002"><a xlink:title=" ">
<path fill="none" stroke="#63b8ff" d="M242.88,-343.18C257.82,-368.07 297.82,-436.59 323,-497.5 343.62,-547.39 318.83,-577.44 359,-613.5 362.5,-616.64 366.38,-619.31 370.52,-621.56"/>
<polygon fill="#63b8ff" stroke="#63b8ff" points="369.37,-624.88 379.92,-625.85 372.28,-618.51 369.37,-624.88"/>
</a>
</g>
</g>
<!-- Node4 -->
<g id="Node000004" class="node">
<title>Node4</title>
<g id="a_Node000004"><a xlink:href="classHttpRequest.html#a094748c8ada94274a3025671ec86efd9" target="_top" xlink:title="Clears the general parsing buffer.">
<polygon fill="white" stroke="#666666" points="520.5,-604 383.5,-604 383.5,-585 520.5,-585 520.5,-604"/>
<text text-anchor="middle" x="452" y="-592" font-family="Helvetica,sans-Serif" font-size="10.00">HttpRequest::clearBuffer</text>
</a>
</g>
</g>
<!-- Node3&#45;&gt;Node4 -->
<g id="edge4_Node000003_Node000004" class="edge">
<title>Node3&#45;&gt;Node4</title>
<g id="a_edge4_Node000003_Node000004"><a xlink:title=" ">
<path fill="none" stroke="#63b8ff" d="M242.23,-343.02C255.94,-368.07 293.88,-438.02 323,-497.5 339.97,-532.15 328.71,-552.59 359,-576.5 363.47,-580.03 368.44,-582.93 373.69,-585.31"/>
<polygon fill="#63b8ff" stroke="#63b8ff" points="372.79,-588.71 383.38,-589.05 375.31,-582.18 372.79,-588.71"/>
</a>
</g>
</g>
<!-- Node5 -->
<g id="Node000005" class="node">
<title>Node5</title>
<g id="a_Node000005"><a xlink:href="classHttpRequest.html#a4695b2873bc8274e980fbd6b600a2a28" target="_top" xlink:title="Clears the temporary buffer used for chunked transfer decoding.">
<polygon fill="white" stroke="#666666" points="535.5,-567 368.5,-567 368.5,-548 535.5,-548 535.5,-567"/>
<text text-anchor="middle" x="452" y="-555" font-family="Helvetica,sans-Serif" font-size="10.00">HttpRequest::clearChunkBuffer</text>
</a>
</g>
</g>
<!-- Node3&#45;&gt;Node5 -->
<g id="edge5_Node000003_Node000005" class="edge">
<title>Node3&#45;&gt;Node5</title>
<g id="a_edge5_Node000003_Node000005"><a xlink:title=" ">
<path fill="none" stroke="#63b8ff" d="M241.34,-343.01C258.39,-379.95 321.65,-513.13 359,-539.5 361.09,-540.98 363.28,-542.34 365.54,-543.6"/>
<polygon fill="#63b8ff" stroke="#63b8ff" points="364.02,-546.76 374.55,-547.95 367.07,-540.45 364.02,-546.76"/>
</a>
</g>
</g>
<!-- Node6 -->
<g id="Node000006" class="node">
<title>Node6</title>
<g id="a_Node000006"><a xlink:href="classHttpRequest.html#af26b6c084c398687ce068b84d99c6a51" target="_top" xlink:title=" ">
<polygon fill="white" stroke="#666666" points="516,-530 388,-530 388,-511 516,-511 516,-530"/>
<text text-anchor="middle" x="452" y="-518" font-family="Helvetica,sans-Serif" font-size="10.00">HttpRequest::getBuffer</text>
</a>
</g>
</g>
<!-- Node3&#45;&gt;Node6 -->
<g id="edge6_Node000003_Node000006" class="edge">
<title>Node3&#45;&gt;Node6</title>
<g id="a_edge6_Node000003_Node000006"><a xlink:title=" ">
<path fill="none" stroke="#63b8ff" d="M240.85,-343.1C253.12,-372.38 294.39,-461.14 359,-502.5 364.8,-506.21 371.2,-509.19 377.84,-511.58"/>
<polygon fill="#63b8ff" stroke="#63b8ff" points="377.11,-515.01 387.7,-514.66 379.2,-508.33 377.11,-515.01"/>
</a>
</g>
</g>
<!-- Node7 -->
<g id="Node000007" class="node">
<title>Node7</title>
<g id="a_Node000007"><a xlink:href="classHttpRequest.html#adfeba15e2752ba4ad7a39a1a18a709e5" target="_top" xlink:title=" ">
<polygon fill="white" stroke="#666666" points="531.5,-493 372.5,-493 372.5,-474 531.5,-474 531.5,-493"/>
<text text-anchor="middle" x="452" y="-481" font-family="Helvetica,sans-Serif" font-size="10.00">HttpRequest::getChunkBuffer</text>
</a>
</g>
</g>
<!-- Node3&#45;&gt;Node7 -->
<g id="edge7_Node000003_Node000007" class="edge">
<title>Node3&#45;&gt;Node7</title>
<g id="a_edge7_Node000003_Node000007"><a xlink:title=" ">
<path fill="none" stroke="#63b8ff" d="M242.72,-343.05C258.07,-367.79 302.86,-434.18 359,-465.5 362.25,-467.31 365.65,-468.94 369.15,-470.41"/>
<polygon fill="#63b8ff" stroke="#63b8ff" points="368.01,-473.73 378.61,-473.94 370.46,-467.17 368.01,-473.73"/>
</a>
</g>
</g>
<!-- Node8 -->
<g id="Node000008" class="node">
<title>Node8</title>
<g id="a_Node000008"><a xlink:href="classHttpRequest.html#a0a1607918c6622e543117746635f5bf2" target="_top" xlink:title=" ">
<polygon fill="white" stroke="#666666" points="545,-456 359,-456 359,-437 545,-437 545,-456"/>
<text text-anchor="middle" x="452" y="-444" font-family="Helvetica,sans-Serif" font-size="10.00">HttpRequest::getCurrentChunkSize</text>
</a>
</g>
</g>
<!-- Node3&#45;&gt;Node8 -->
<g id="edge8_Node000003_Node000008" class="edge">
<title>Node3&#45;&gt;Node8</title>
<g id="a_edge8_Node000003_Node000008"><a xlink:title=" ">
<path fill="none" stroke="#63b8ff" d="M246.41,-343.27C265.63,-362.6 311.61,-405.76 359,-427.5 364.41,-429.98 370.15,-432.14 376.02,-434.03"/>
<polygon fill="#63b8ff" stroke="#63b8ff" points="375.39,-437.49 385.97,-436.93 377.35,-430.77 375.39,-437.49"/>
</a>
</g>
</g>
<!-- Node9 -->
<g id="Node000009" class="node">
<title>Node9</title>
<g id="a_Node000009"><a xlink:href="classHttpRequest.html#a287e0bbbae284ea81708e9da43a7790c" target="_top" xlink:title=" ">
<polygon fill="white" stroke="#666666" points="522,-418.5 382,-418.5 382,-388.5 522,-388.5 522,-418.5"/>
<text text-anchor="start" x="390" y="-406.5" font-family="Helvetica,sans-Serif" font-size="10.00">HttpRequest::isExpecting</text>
<text text-anchor="middle" x="452" y="-395.5" font-family="Helvetica,sans-Serif" font-size="10.00">ChunkSeparator</text>
</a>
</g>
</g>
<!-- Node3&#45;&gt;Node9 -->
<g id="edge9_Node000003_Node000009" class="edge">
<title>Node3&#45;&gt;Node9</title>
<g id="a_edge9_Node000003_Node000009"><a xlink:title=" ">
<path fill="none" stroke="#63b8ff" d="M260.13,-343.06C284.48,-352.92 324.05,-368.39 359,-379.5 365.55,-381.58 372.41,-383.62 379.3,-385.58"/>
<polygon fill="#63b8ff" stroke="#63b8ff" points="378.81,-389.08 389.38,-388.38 380.68,-382.33 378.81,-389.08"/>
</a>
</g>
</g>
<!-- Node10 -->
<g id="Node000010" class="node">
<title>Node10</title>
<g id="a_Node000010"><a xlink:href="classRequestParse.html#a41fb8fd94bdb7ca3d28f6578d803377d" target="_top" xlink:title="Compares body size against maximum allowed by server configuration.">
<polygon fill="white" stroke="#666666" points="531,-370.5 373,-370.5 373,-340.5 531,-340.5 531,-370.5"/>
<text text-anchor="start" x="381" y="-358.5" font-family="Helvetica,sans-Serif" font-size="10.00">RequestParse::isGreaterThan</text>
<text text-anchor="middle" x="452" y="-347.5" font-family="Helvetica,sans-Serif" font-size="10.00">MaxBodySize</text>
</a>
</g>
</g>
<!-- Node3&#45;&gt;Node10 -->
<g id="edge10_Node000003_Node000010" class="edge">
<title>Node3&#45;&gt;Node10</title>
<g id="a_edge10_Node000003_Node000010"><a xlink:title=" ">
<path fill="none" stroke="#63b8ff" d="M313.65,-341.38C329.55,-343.01 346.41,-344.75 362.68,-346.42"/>
<polygon fill="#63b8ff" stroke="#63b8ff" points="362.41,-349.91 372.72,-347.45 363.13,-342.95 362.41,-349.91"/>
</a>
</g>
</g>
<!-- Node11 -->
<g id="Node000011" class="node">
<title>Node11</title>
<g id="a_Node000011"><a xlink:href="classHttpRequest.html#a41334d19e3ae765498ad828af9223178" target="_top" xlink:title=" ">
<polygon fill="white" stroke="#666666" points="541,-322 363,-322 363,-303 541,-303 541,-322"/>
<text text-anchor="middle" x="452" y="-310" font-family="Helvetica,sans-Serif" font-size="10.00">HttpRequest::isParsingChunkSize</text>
</a>
</g>
</g>
<!-- Node3&#45;&gt;Node11 -->
<g id="edge11_Node000003_Node000011" class="edge">
<title>Node3&#45;&gt;Node11</title>
<g id="a_edge11_Node000003_Node000011"><a xlink:title=" ">
<path fill="none" stroke="#63b8ff" d="M313.65,-325.98C326.37,-324.73 339.7,-323.42 352.85,-322.13"/>
<polygon fill="#63b8ff" stroke="#63b8ff" points="353.25,-325.61 362.86,-321.15 352.57,-318.64 353.25,-325.61"/>
</a>
</g>
</g>
<!-- Node12 -->
<g id="Node000012" class="node">
<title>Node12</title>
<g id="a_Node000012"><a xlink:href="classHttpRequest.html#aea8112da8cc0f4e056bcb57d18a54988" target="_top" xlink:title="Updates the size of the current chunk being parsed.">
<polygon fill="white" stroke="#666666" points="544.5,-285 359.5,-285 359.5,-266 544.5,-266 544.5,-285"/>
<text text-anchor="middle" x="452" y="-273" font-family="Helvetica,sans-Serif" font-size="10.00">HttpRequest::setCurrentChunkSize</text>
</a>
</g>
</g>
<!-- Node3&#45;&gt;Node12 -->
<g id="edge12_Node000003_Node000012" class="edge">
<title>Node3&#45;&gt;Node12</title>
<g id="a_edge12_Node000003_Node000012"><a xlink:title=" ">
<path fill="none" stroke="#63b8ff" d="M263.89,-324C288.46,-315.54 325.88,-303.19 359,-294.5 368.92,-291.9 379.52,-289.43 389.87,-287.18"/>
<polygon fill="#63b8ff" stroke="#63b8ff" points="390.62,-290.6 399.68,-285.1 389.17,-283.75 390.62,-290.6"/>
</a>
</g>
</g>
<!-- Node13 -->
<g id="Node000013" class="node">
<title>Node13</title>
<g id="a_Node000013"><a xlink:href="classHttpRequest.html#ad875e49b03abccaf092ecb49d5bdad31" target="_top" xlink:title=" ">
<polygon fill="white" stroke="#666666" points="525,-247.5 379,-247.5 379,-217.5 525,-217.5 525,-247.5"/>
<text text-anchor="start" x="387" y="-235.5" font-family="Helvetica,sans-Serif" font-size="10.00">HttpRequest::setExpecting</text>
<text text-anchor="middle" x="452" y="-224.5" font-family="Helvetica,sans-Serif" font-size="10.00">ChunkSeparator</text>
</a>
</g>
</g>
<!-- Node3&#45;&gt;Node13 -->
<g id="edge13_Node000003_Node000013" class="edge">
<title>Node3&#45;&gt;Node13</title>
<g id="a_edge13_Node000003_Node000013"><a xlink:title=" ">
<path fill="none" stroke="#63b8ff" d="M254.77,-323.85C272.37,-314.12 299.97,-298.46 323,-283.5 339.55,-272.75 341.19,-266 359,-257.5 363.95,-255.14 369.16,-252.97 374.47,-250.98"/>
<polygon fill="#63b8ff" stroke="#63b8ff" points="375.85,-254.21 384.13,-247.6 373.54,-247.6 375.85,-254.21"/>
</a>
</g>
</g>
<!-- Node14 -->
<g id="Node000014" class="node">
<title>Node14</title>
<g id="a_Node000014"><a xlink:href="classHttpRequest.html#a4af8abc5368c893ba9bb24939cb95aa3" target="_top" xlink:title=" ">
<polygon fill="white" stroke="#666666" points="526,-199 378,-199 378,-180 526,-180 526,-199"/>
<text text-anchor="middle" x="452" y="-187" font-family="Helvetica,sans-Serif" font-size="10.00">HttpRequest::setParseError</text>
</a>
</g>
</g>
<!-- Node3&#45;&gt;Node14 -->
<g id="edge14_Node000003_Node000014" class="edge">
<title>Node3&#45;&gt;Node14</title>
<g id="a_edge14_Node000003_Node000014"><a xlink:title=" ">
<path fill="none" stroke="#63b8ff" d="M261.51,-324C280.32,-315.68 305.89,-302.02 323,-283.5 348.09,-256.34 329.87,-231.27 359,-208.5 362,-206.15 365.23,-204.07 368.6,-202.24"/>
<polygon fill="#63b8ff" stroke="#63b8ff" points="370.27,-205.32 377.85,-197.92 367.31,-198.98 370.27,-205.32"/>
</a>
</g>
</g>
<!-- Node15 -->
<g id="Node000015" class="node">
<title>Node15</title>
<g id="a_Node000015"><a xlink:href="classHttpRequest.html#a966aa80a9d050cecf9f51d21a2959da7" target="_top" xlink:title=" ">
<polygon fill="white" stroke="#666666" points="544.5,-162 359.5,-162 359.5,-143 544.5,-143 544.5,-162"/>
<text text-anchor="middle" x="452" y="-150" font-family="Helvetica,sans-Serif" font-size="10.00">HttpRequest::setParsingChunkSize</text>
</a>
</g>
</g>
<!-- Node3&#45;&gt;Node15 -->
<g id="edge15_Node000003_Node000015" class="edge">
<title>Node3&#45;&gt;Node15</title>
<g id="a_edge15_Node000003_Node000015"><a xlink:title=" ">
<path fill="none" stroke="#63b8ff" d="M263.83,-323.95C282.85,-315.9 307.63,-302.61 323,-283.5 355.78,-242.76 320.1,-206.44 359,-171.5 360.73,-169.95 362.54,-168.51 364.44,-167.18"/>
<polygon fill="#63b8ff" stroke="#63b8ff" points="366.36,-170.11 373.18,-162 362.8,-164.09 366.36,-170.11"/>
</a>
</g>
</g>
<!-- Node3&#45;&gt;Node16 -->
<g id="edge16_Node000003_Node000016" class="edge">
<title>Node3&#45;&gt;Node16</title>
<g id="a_edge16_Node000003_Node000016"><a xlink:title=" ">
<path fill="none" stroke="#63b8ff" d="M265.76,-323.98C284.94,-316.13 309.1,-303.07 323,-283.5 371.76,-214.86 299.83,-157.41 359,-97.5 360.26,-96.22 361.58,-95.02 362.96,-93.89"/>
<polygon fill="#63b8ff" stroke="#63b8ff" points="365.08,-96.68 371.38,-88.15 361.14,-90.89 365.08,-96.68"/>
</a>
</g>
</g>
<!-- Node17 -->
<g id="Node000017" class="node">
<title>Node17</title>
<g id="a_Node000017"><a xlink:href="string__utils_8hpp.html#a8a4293a53b143f48d36876fcaff304b4" target="_top" xlink:title="Converts a hexadecimal string into an integer.">
<polygon fill="white" stroke="#666666" points="489,-125 415,-125 415,-106 489,-106 489,-125"/>
<text text-anchor="middle" x="452" y="-113" font-family="Helvetica,sans-Serif" font-size="10.00">stringToHex</text>
</a>
</g>
</g>
<!-- Node3&#45;&gt;Node17 -->
<g id="edge17_Node000003_Node000017" class="edge">
<title>Node3&#45;&gt;Node17</title>
<g id="a_edge17_Node000003_Node000017"><a xlink:title=" ">
<path fill="none" stroke="#63b8ff" d="M265.07,-323.95C284.18,-316.02 308.55,-302.88 323,-283.5 363.72,-228.88 310.03,-181.86 359,-134.5 371.14,-122.76 388.5,-117.41 404.88,-115.2"/>
<polygon fill="#63b8ff" stroke="#63b8ff" points="405.29,-118.68 414.9,-114.2 404.6,-111.71 405.29,-118.68"/>
</a>
</g>
</g>
<!-- Node24 -->
<g id="Node000024" class="node">
<title>Node24</title>
<g id="a_Node000024"><a xlink:href="classLogger.html#a19f9ef22095a67c9fe420c9d6e761fc2" target="_top" xlink:title="Converts a LogLevel enum value to its string label.">
<polygon fill="white" stroke="#666666" points="511.5,-51 392.5,-51 392.5,-32 511.5,-32 511.5,-51"/>
<text text-anchor="middle" x="452" y="-39" font-family="Helvetica,sans-Serif" font-size="10.00">Logger::levelToString</text>
</a>
</g>
</g>
<!-- Node23&#45;&gt;Node24 -->
<g id="edge24_Node000023_Node000024" class="edge">
<title>Node23&#45;&gt;Node24</title>
<g id="a_edge24_Node000023_Node000024"><a xlink:title=" ">
<path fill="none" stroke="#63b8ff" d="M271.86,-45.69C301.63,-44.99 345.35,-43.97 382.14,-43.11"/>
<polygon fill="#63b8ff" stroke="#63b8ff" points="382.4,-46.6 392.32,-42.87 382.24,-39.61 382.4,-46.6"/>
</a>
</g>
</g>
</g>
</svg>
