<?xml version="1.0" encoding="UTF-8" standalone="no"?>
<!DOCTYPE svg PUBLIC "-//W3C//DTD SVG 1.1//EN"
 "http://www.w3.org/Graphics/SVG/1.1/DTD/svg11.dtd">
<!-- Generated by graphviz version 2.43.0 (0)
 -->
<!-- Title: RequestParse::requestLine Pages: 1 -->
<svg width="980pt" height="27pt"
 viewBox="0.00 0.00 980.00 27.00" xmlns="http://www.w3.org/2000/svg" xmlns:xlink="http://www.w3.org/1999/xlink">
<g id="graph0" class="graph" transform="scale(1 1) rotate(0) translate(4 23)">
<title>RequestParse::requestLine</title>
<!-- Node1 -->
<g id="Node000001" class="node">
<title>Node1</title>
<g id="a_Node000001"><a xlink:title="Parses the HTTP request line (method, URI, version).">
<polygon fill="#999999" stroke="#666666" points="972,-19 826,-19 826,0 972,0 972,-19"/>
<text text-anchor="middle" x="899" y="-7" font-family="Helvetica,sans-Serif" font-size="10.00">RequestParse::requestLine</text>
</a>
</g>
</g>
<!-- Node2 -->
<g id="Node000002" class="node">
<title>Node2</title>
<g id="a_Node000002"><a xlink:href="classRequestParse.html#a5f2f35f5815fbb977cde05b19af41687" target="_top" xlink:title="Parses and processes raw HTTP request data incrementally.">
<polygon fill="white" stroke="#666666" points="790,-19 608,-19 608,0 790,0 790,-19"/>
<text text-anchor="middle" x="699" y="-7" font-family="Helvetica,sans-Serif" font-size="10.00">RequestParse::handleRawRequest</text>
</a>
</g>
</g>
<!-- Node1&#45;&gt;Node2 -->
<g id="edge1_Node000001_Node000002" class="edge">
<title>Node1&#45;&gt;Node2</title>
<g id="a_edge1_Node000001_Node000002"><a xlink:title=" ">
<path fill="none" stroke="#63b8ff" d="M815.77,-9.5C807.34,-9.5 798.74,-9.5 790.23,-9.5"/>
<polygon fill="#63b8ff" stroke="#63b8ff" points="815.96,-13 825.96,-9.5 815.96,-6 815.96,-13"/>
</a>
</g>
</g>
<!-- Node3 -->
<g id="Node000003" class="node">
<title>Node3</title>
<g id="a_Node000003"><a xlink:href="classClientConnection.html#a835586ce27b3c3598394bde3fff14211" target="_top" xlink:title="Receives incoming data from the client socket.">
<polygon fill="white" stroke="#666666" points="572,-19 422,-19 422,0 572,0 572,-19"/>
<text text-anchor="middle" x="497" y="-7" font-family="Helvetica,sans-Serif" font-size="10.00">ClientConnection::recvData</text>
</a>
</g>
</g>
<!-- Node2&#45;&gt;Node3 -->
<g id="edge2_Node000002_Node000003" class="edge">
<title>Node2&#45;&gt;Node3</title>
<g id="a_edge2_Node000002_Node000003"><a xlink:title=" ">
<path fill="none" stroke="#63b8ff" d="M597.86,-9.5C589.25,-9.5 580.64,-9.5 572.29,-9.5"/>
<polygon fill="#63b8ff" stroke="#63b8ff" points="597.95,-13 607.95,-9.5 597.95,-6 597.95,-13"/>
</a>
</g>
</g>
<!-- Node4 -->
<g id="Node000004" class="node">
<title>Node4</title>
<g id="a_Node000004"><a xlink:href="classWebServer.html#a8cbf37c0a840305ce15e8648566c9ce4" target="_top" xlink:title="Handles incoming data from a connected client.">
<polygon fill="white" stroke="#666666" points="386,-19 235,-19 235,0 386,0 386,-19"/>
<text text-anchor="middle" x="310.5" y="-7" font-family="Helvetica,sans-Serif" font-size="10.00">WebServer::receiveRequest</text>
</a>
</g>
</g>
<!-- Node3&#45;&gt;Node4 -->
<g id="edge3_Node000003_Node000004" class="edge">
<title>Node3&#45;&gt;Node4</title>
<g id="a_edge3_Node000003_Node000004"><a xlink:title=" ">
<path fill="none" stroke="#63b8ff" d="M411.51,-9.5C403.07,-9.5 394.53,-9.5 386.19,-9.5"/>
<polygon fill="#63b8ff" stroke="#63b8ff" points="411.75,-13 421.75,-9.5 411.75,-6 411.75,-13"/>
</a>
</g>
</g>
<!-- Node5 -->
<g id="Node000005" class="node">
<title>Node5</title>
<g id="a_Node000005"><a xlink:href="classWebServer.html#af39709e3744077e019aa76555f03a42e" target="_top" xlink:title="Main event loop — monitors sockets, dispatches requests, and handles responses.">
<polygon fill="white" stroke="#666666" points="199,-19 77,-19 77,0 199,0 199,-19"/>
<text text-anchor="middle" x="138" y="-7" font-family="Helvetica,sans-Serif" font-size="10.00">WebServer::runServer</text>
</a>
</g>
</g>
<!-- Node4&#45;&gt;Node5 -->
<g id="edge4_Node000004_Node000005" class="edge">
<title>Node4&#45;&gt;Node5</title>
<g id="a_edge4_Node000004_Node000005"><a xlink:title=" ">
<path fill="none" stroke="#63b8ff" d="M224.63,-9.5C216.02,-9.5 207.4,-9.5 199.13,-9.5"/>
<polygon fill="#63b8ff" stroke="#63b8ff" points="224.72,-13 234.72,-9.5 224.72,-6 224.72,-13"/>
</a>
</g>
</g>
<!-- Node6 -->
<g id="Node000006" class="node">
<title>Node6</title>
<g id="a_Node000006"><a xlink:href="main_8cpp.html#a3c04138a5bfe5d72780bb7e82a18e627" target="_top" xlink:title="Entry point of the Webservinho web server.">
<polygon fill="white" stroke="#666666" points="41,-19 0,-19 0,0 41,0 41,-19"/>
<text text-anchor="middle" x="20.5" y="-7" font-family="Helvetica,sans-Serif" font-size="10.00">main</text>
</a>
</g>
</g>
<!-- Node5&#45;&gt;Node6 -->
<g id="edge5_Node000005_Node000006" class="edge">
<title>Node5&#45;&gt;Node6</title>
<g id="a_edge5_Node000005_Node000006"><a xlink:title=" ">
<path fill="none" stroke="#63b8ff" d="M66.66,-9.5C57.35,-9.5 48.51,-9.5 41.15,-9.5"/>
<polygon fill="#63b8ff" stroke="#63b8ff" points="66.88,-13 76.88,-9.5 66.88,-6 66.88,-13"/>
</a>
</g>
</g>
</g>
</svg>
