<?xml version="1.0" encoding="UTF-8" standalone="no"?>
<!DOCTYPE svg PUBLIC "-//W3C//DTD SVG 1.1//EN"
 "http://www.w3.org/Graphics/SVG/1.1/DTD/svg11.dtd">
<!-- Generated by graphviz version 2.43.0 (0)
 -->
<!-- Title: ResponseBuilder::handleStaticPageOutput Pages: 1 -->
<svg width="361pt" height="138pt"
 viewBox="0.00 0.00 361.00 138.00" xmlns="http://www.w3.org/2000/svg" xmlns:xlink="http://www.w3.org/1999/xlink">
<g id="graph0" class="graph" transform="scale(1 1) rotate(0) translate(4 134)">
<title>ResponseBuilder::handleStaticPageOutput</title>
<!-- Node1 -->
<g id="Node000001" class="node">
<title>Node1</title>
<g id="a_Node000001"><a xlink:title="Prepares an HTTP response for a static page.">
<polygon fill="#999999" stroke="#666666" points="165,-79.5 0,-79.5 0,-49.5 165,-49.5 165,-79.5"/>
<text text-anchor="start" x="8" y="-67.5" font-family="Helvetica,sans-Serif" font-size="10.00">ResponseBuilder::handleStatic</text>
<text text-anchor="middle" x="82.5" y="-56.5" font-family="Helvetica,sans-Serif" font-size="10.00">PageOutput</text>
</a>
</g>
</g>
<!-- Node2 -->
<g id="Node000002" class="node">
<title>Node2</title>
<g id="a_Node000002"><a xlink:href="classHttpResponse.html#abb032c16ad3961d50a6582c50c330581" target="_top" xlink:title="Adds a header field to the HTTP response.">
<polygon fill="white" stroke="#666666" points="349,-130 205,-130 205,-111 349,-111 349,-130"/>
<text text-anchor="middle" x="277" y="-118" font-family="Helvetica,sans-Serif" font-size="10.00">HttpResponse::addHeader</text>
</a>
</g>
</g>
<!-- Node1&#45;&gt;Node2 -->
<g id="edge1_Node000001_Node000002" class="edge">
<title>Node1&#45;&gt;Node2</title>
<g id="a_edge1_Node000001_Node000002"><a xlink:title=" ">
<path fill="none" stroke="#63b8ff" d="M127.33,-79.57C149.32,-86.9 176.44,-95.59 201,-102.5 208.43,-104.59 216.32,-106.65 224.08,-108.59"/>
<polygon fill="#63b8ff" stroke="#63b8ff" points="223.26,-111.99 233.8,-110.98 224.93,-105.2 223.26,-111.99"/>
</a>
</g>
</g>
<!-- Node3 -->
<g id="Node000003" class="node">
<title>Node3</title>
<g id="a_Node000003"><a xlink:href="classHttpResponse.html#a22352917aff72615ead5686b7e7b09b8" target="_top" xlink:title="Appends text data to the response body.">
<polygon fill="white" stroke="#666666" points="353,-93 201,-93 201,-74 353,-74 353,-93"/>
<text text-anchor="middle" x="277" y="-81" font-family="Helvetica,sans-Serif" font-size="10.00">HttpResponse::appendBody</text>
</a>
</g>
</g>
<!-- Node1&#45;&gt;Node3 -->
<g id="edge2_Node000001_Node000003" class="edge">
<title>Node1&#45;&gt;Node3</title>
<g id="a_edge2_Node000001_Node000003"><a xlink:title=" ">
<path fill="none" stroke="#63b8ff" d="M165.14,-72.56C173.68,-73.4 182.38,-74.26 190.96,-75.11"/>
<polygon fill="#63b8ff" stroke="#63b8ff" points="190.67,-78.59 200.96,-76.09 191.36,-71.63 190.67,-78.59"/>
</a>
</g>
</g>
<!-- Node4 -->
<g id="Node000004" class="node">
<title>Node4</title>
<g id="a_Node000004"><a xlink:href="classHttpResponse.html#ab929ceba6ce5236a670f33f9a6eeeb35" target="_top" xlink:title="Sets whether the response will use chunked transfer encoding.">
<polygon fill="white" stroke="#666666" points="351,-56 203,-56 203,-37 351,-37 351,-56"/>
<text text-anchor="middle" x="277" y="-44" font-family="Helvetica,sans-Serif" font-size="10.00">HttpResponse::setChunked</text>
</a>
</g>
</g>
<!-- Node1&#45;&gt;Node4 -->
<g id="edge3_Node000001_Node000004" class="edge">
<title>Node1&#45;&gt;Node4</title>
<g id="a_edge3_Node000001_Node000004"><a xlink:title=" ">
<path fill="none" stroke="#63b8ff" d="M165.14,-56.87C174.22,-56.02 183.48,-55.15 192.59,-54.3"/>
<polygon fill="#63b8ff" stroke="#63b8ff" points="193.15,-57.76 202.78,-53.35 192.5,-50.79 193.15,-57.76"/>
</a>
</g>
</g>
<!-- Node5 -->
<g id="Node000005" class="node">
<title>Node5</title>
<g id="a_Node000005"><a xlink:href="string__utils_8hpp.html#ad735976365693b45c427000fe042e173" target="_top" xlink:title="Converts any printable type to a string representation.">
<polygon fill="white" stroke="#666666" points="304.5,-19 249.5,-19 249.5,0 304.5,0 304.5,-19"/>
<text text-anchor="middle" x="277" y="-7" font-family="Helvetica,sans-Serif" font-size="10.00">toString</text>
</a>
</g>
</g>
<!-- Node1&#45;&gt;Node5 -->
<g id="edge4_Node000001_Node000005" class="edge">
<title>Node1&#45;&gt;Node5</title>
<g id="a_edge4_Node000001_Node000005"><a xlink:title=" ">
<path fill="none" stroke="#63b8ff" d="M130.8,-49.43C152.17,-42.77 177.78,-34.99 201,-28.5 213.43,-25.02 227.1,-21.48 239.32,-18.41"/>
<polygon fill="#63b8ff" stroke="#63b8ff" points="240.33,-21.76 249.19,-15.95 238.64,-14.97 240.33,-21.76"/>
</a>
</g>
</g>
</g>
</svg>
