<?xml version="1.0" encoding="UTF-8" standalone="no"?>
<!DOCTYPE svg PUBLIC "-//W3C//DTD SVG 1.1//EN"
 "http://www.w3.org/Graphics/SVG/1.1/DTD/svg11.dtd">
<!-- Generated by graphviz version 2.43.0 (0)
 -->
<!-- Title: HttpResponse::setChunked Pages: 1 -->
<svg width="1353pt" height="175pt"
 viewBox="0.00 0.00 1353.00 175.00" xmlns="http://www.w3.org/2000/svg" xmlns:xlink="http://www.w3.org/1999/xlink">
<g id="graph0" class="graph" transform="scale(1 1) rotate(0) translate(4 171)">
<title>HttpResponse::setChunked</title>
<!-- Node1 -->
<g id="Node000001" class="node">
<title>Node1</title>
<g id="a_Node000001"><a xlink:title="Sets whether the response will use chunked transfer encoding.">
<polygon fill="#999999" stroke="#666666" points="1345,-56 1197,-56 1197,-37 1345,-37 1345,-56"/>
<text text-anchor="middle" x="1271" y="-44" font-family="Helvetica,sans-Serif" font-size="10.00">HttpResponse::setChunked</text>
</a>
</g>
</g>
<!-- Node2 -->
<g id="Node000002" class="node">
<title>Node2</title>
<g id="a_Node000002"><a xlink:href="classResponseBuilder.html#a0a1b2929111eec67e4ebe1acb7796915" target="_top" xlink:title="Prepares an HTTP response for a static page.">
<polygon fill="white" stroke="#666666" points="1161,-104.5 996,-104.5 996,-74.5 1161,-74.5 1161,-104.5"/>
<text text-anchor="start" x="1004" y="-92.5" font-family="Helvetica,sans-Serif" font-size="10.00">ResponseBuilder::handleStatic</text>
<text text-anchor="middle" x="1078.5" y="-81.5" font-family="Helvetica,sans-Serif" font-size="10.00">PageOutput</text>
</a>
</g>
</g>
<!-- Node1&#45;&gt;Node2 -->
<g id="edge1_Node000001_Node000002" class="edge">
<title>Node1&#45;&gt;Node2</title>
<g id="a_edge1_Node000001_Node000002"><a xlink:title=" ">
<path fill="none" stroke="#63b8ff" d="M1217.83,-58.28C1195.65,-63.28 1169.52,-69.18 1145.98,-74.49"/>
<polygon fill="#63b8ff" stroke="#63b8ff" points="1218.74,-61.66 1227.72,-56.04 1217.2,-54.83 1218.74,-61.66"/>
</a>
</g>
</g>
<!-- Node12 -->
<g id="Node000012" class="node">
<title>Node12</title>
<g id="a_Node000012"><a xlink:href="classHttpResponse.html#ab2e6cd363b5ea437643017766f882066" target="_top" xlink:title="Default constructor for HttpResponse.">
<polygon fill="white" stroke="#666666" points="1158,-56 999,-56 999,-37 1158,-37 1158,-56"/>
<text text-anchor="middle" x="1078.5" y="-44" font-family="Helvetica,sans-Serif" font-size="10.00">HttpResponse::HttpResponse</text>
</a>
</g>
</g>
<!-- Node1&#45;&gt;Node12 -->
<g id="edge16_Node000001_Node000012" class="edge">
<title>Node1&#45;&gt;Node12</title>
<g id="a_edge16_Node000001_Node000012"><a xlink:title=" ">
<path fill="none" stroke="#63b8ff" d="M1186.68,-46.5C1177.19,-46.5 1167.54,-46.5 1158.11,-46.5"/>
<polygon fill="#63b8ff" stroke="#63b8ff" points="1186.89,-50 1196.89,-46.5 1186.89,-43 1186.89,-50"/>
</a>
</g>
</g>
<!-- Node13 -->
<g id="Node000013" class="node">
<title>Node13</title>
<g id="a_Node000013"><a xlink:href="classRouter.html#a9cccffeb5ef1889ffc62987c437f6c59" target="_top" xlink:title="Checks if the request triggers an HTTP redirect.">
<polygon fill="white" stroke="#666666" points="1130.5,-19 1026.5,-19 1026.5,0 1130.5,0 1130.5,-19"/>
<text text-anchor="middle" x="1078.5" y="-7" font-family="Helvetica,sans-Serif" font-size="10.00">Router::isRedirect</text>
</a>
</g>
</g>
<!-- Node1&#45;&gt;Node13 -->
<g id="edge17_Node000001_Node000013" class="edge">
<title>Node1&#45;&gt;Node13</title>
<g id="a_edge17_Node000001_Node000013"><a xlink:title=" ">
<path fill="none" stroke="#63b8ff" d="M1211.06,-35.05C1184.65,-29.92 1153.87,-23.94 1128.72,-19.06"/>
<polygon fill="#63b8ff" stroke="#63b8ff" points="1210.46,-38.5 1220.94,-36.97 1211.79,-31.63 1210.46,-38.5"/>
</a>
</g>
</g>
<!-- Node3 -->
<g id="Node000003" class="node">
<title>Node3</title>
<g id="a_Node000003"><a xlink:href="classResponseBuilder.html#afd79929bb501be85bdc85d86fdce93e9" target="_top" xlink:title="Assembles the complete HTTP response, including error handling.">
<polygon fill="white" stroke="#666666" points="773,-121 645,-121 645,-102 773,-102 773,-121"/>
<text text-anchor="middle" x="709" y="-109" font-family="Helvetica,sans-Serif" font-size="10.00">ResponseBuilder::build</text>
</a>
</g>
</g>
<!-- Node2&#45;&gt;Node3 -->
<g id="edge2_Node000002_Node000003" class="edge">
<title>Node2&#45;&gt;Node3</title>
<g id="a_edge2_Node000002_Node000003"><a xlink:title=" ">
<path fill="none" stroke="#63b8ff" d="M985.9,-94.98C919.59,-98.95 831.67,-104.22 773.08,-107.72"/>
<polygon fill="#63b8ff" stroke="#63b8ff" points="986.17,-98.47 995.94,-94.38 985.75,-91.49 986.17,-98.47"/>
</a>
</g>
</g>
<!-- Node10 -->
<g id="Node000010" class="node">
<title>Node10</title>
<g id="a_Node000010"><a xlink:href="classResponseBuilder.html#a998edbfd6f08dd34332ca92507db5d77" target="_top" xlink:title="Attempts to load and serve a custom error page from configuration.">
<polygon fill="white" stroke="#666666" points="960,-147.5 809,-147.5 809,-117.5 960,-117.5 960,-147.5"/>
<text text-anchor="start" x="817" y="-135.5" font-family="Helvetica,sans-Serif" font-size="10.00">ResponseBuilder::errorPage</text>
<text text-anchor="middle" x="884.5" y="-124.5" font-family="Helvetica,sans-Serif" font-size="10.00">Config</text>
</a>
</g>
</g>
<!-- Node2&#45;&gt;Node10 -->
<g id="edge12_Node000002_Node000010" class="edge">
<title>Node2&#45;&gt;Node10</title>
<g id="a_edge12_Node000002_Node000010"><a xlink:title=" ">
<path fill="none" stroke="#63b8ff" d="M1000.57,-106.73C984.7,-110.28 968.11,-114 952.61,-117.47"/>
<polygon fill="#63b8ff" stroke="#63b8ff" points="1001.35,-110.14 1010.35,-104.54 999.82,-103.31 1001.35,-110.14"/>
</a>
</g>
</g>
<!-- Node11 -->
<g id="Node000011" class="node">
<title>Node11</title>
<g id="a_Node000011"><a xlink:href="classStaticPageHandler.html#a701db169c979ef5cfebc72f6c160fb32" target="_top" xlink:title="Handles serving static files from disk.">
<polygon fill="white" stroke="#666666" points="765,-67.5 653,-67.5 653,-37.5 765,-37.5 765,-67.5"/>
<text text-anchor="start" x="661" y="-55.5" font-family="Helvetica,sans-Serif" font-size="10.00">StaticPageHandler::</text>
<text text-anchor="middle" x="709" y="-44.5" font-family="Helvetica,sans-Serif" font-size="10.00">handle</text>
</a>
</g>
</g>
<!-- Node2&#45;&gt;Node11 -->
<g id="edge14_Node000002_Node000011" class="edge">
<title>Node2&#45;&gt;Node11</title>
<g id="a_edge14_Node000002_Node000011"><a xlink:title=" ">
<path fill="none" stroke="#63b8ff" d="M985.88,-80.28C916.5,-73.29 823.48,-63.93 765.14,-58.05"/>
<polygon fill="#63b8ff" stroke="#63b8ff" points="985.64,-83.77 995.94,-81.29 986.34,-76.8 985.64,-83.77"/>
</a>
</g>
</g>
<!-- Node4 -->
<g id="Node000004" class="node">
<title>Node4</title>
<g id="a_Node000004"><a xlink:href="classDispatcher.html#a13c8a2fd90033adf9788c8774c3f0f47" target="_top" xlink:title="Central dispatch routine that delegates HTTP requests to the appropriate handler.">
<polygon fill="white" stroke="#666666" points="583,-53 467,-53 467,-34 583,-34 583,-53"/>
<text text-anchor="middle" x="525" y="-41" font-family="Helvetica,sans-Serif" font-size="10.00">Dispatcher::dispatch</text>
</a>
</g>
</g>
<!-- Node3&#45;&gt;Node4 -->
<g id="edge3_Node000003_Node000004" class="edge">
<title>Node3&#45;&gt;Node4</title>
<g id="a_edge3_Node000003_Node000004"><a xlink:title=" ">
<path fill="none" stroke="#63b8ff" d="M679.35,-97.52C659.81,-88.29 633.18,-76.32 609,-67.5 594.2,-62.1 577.58,-57.09 563.12,-53.06"/>
<polygon fill="#63b8ff" stroke="#63b8ff" points="678.07,-100.78 688.6,-101.93 681.08,-94.47 678.07,-100.78"/>
</a>
</g>
</g>
<!-- Node6 -->
<g id="Node000006" class="node">
<title>Node6</title>
<g id="a_Node000006"><a xlink:href="classWebServer.html#af39709e3744077e019aa76555f03a42e" target="_top" xlink:title="Main event loop — monitors sockets, dispatches requests, and handles responses.">
<polygon fill="white" stroke="#666666" points="199,-110 77,-110 77,-91 199,-91 199,-110"/>
<text text-anchor="middle" x="138" y="-98" font-family="Helvetica,sans-Serif" font-size="10.00">WebServer::runServer</text>
</a>
</g>
</g>
<!-- Node3&#45;&gt;Node6 -->
<g id="edge9_Node000003_Node000006" class="edge">
<title>Node3&#45;&gt;Node6</title>
<g id="a_edge9_Node000003_Node000006"><a xlink:title=" ">
<path fill="none" stroke="#63b8ff" d="M634.59,-110.08C520.92,-107.88 304.49,-103.7 199.34,-101.67"/>
<polygon fill="#63b8ff" stroke="#63b8ff" points="634.87,-113.59 644.93,-110.28 635,-106.59 634.87,-113.59"/>
</a>
</g>
</g>
<!-- Node8 -->
<g id="Node000008" class="node">
<title>Node8</title>
<g id="a_Node000008"><a xlink:href="classWebServer.html#a7667bc8a87db8f9987a5e80da9c4cd37" target="_top" xlink:title="Reads CGI process output and assembles it into the client buffer.">
<polygon fill="white" stroke="#666666" points="405,-91 235,-91 235,-72 405,-72 405,-91"/>
<text text-anchor="middle" x="320" y="-79" font-family="Helvetica,sans-Serif" font-size="10.00">WebServer::handleCgiReadable</text>
</a>
</g>
</g>
<!-- Node3&#45;&gt;Node8 -->
<g id="edge7_Node000003_Node000008" class="edge">
<title>Node3&#45;&gt;Node8</title>
<g id="a_edge7_Node000003_Node000008"><a xlink:title=" ">
<path fill="none" stroke="#63b8ff" d="M634.73,-105.82C569.31,-100.75 473.51,-93.32 405.01,-88.01"/>
<polygon fill="#63b8ff" stroke="#63b8ff" points="634.72,-109.33 644.96,-106.61 635.26,-102.35 634.72,-109.33"/>
</a>
</g>
</g>
<!-- Node9 -->
<g id="Node000009" class="node">
<title>Node9</title>
<g id="a_Node000009"><a xlink:href="classWebServer.html#a32042bb7e426cf5c53c2c2860d622342" target="_top" xlink:title="Scans active CGI processes and terminates those exceeding timeout.">
<polygon fill="white" stroke="#666666" points="609,-167 441,-167 441,-148 609,-148 609,-167"/>
<text text-anchor="middle" x="525" y="-155" font-family="Helvetica,sans-Serif" font-size="10.00">WebServer::sweepCgiTimeouts</text>
</a>
</g>
</g>
<!-- Node3&#45;&gt;Node9 -->
<g id="edge10_Node000003_Node000009" class="edge">
<title>Node3&#45;&gt;Node9</title>
<g id="a_edge10_Node000003_Node000009"><a xlink:title=" ">
<path fill="none" stroke="#63b8ff" d="M660.4,-123.53C630.22,-131.16 591.71,-140.89 563.66,-147.98"/>
<polygon fill="#63b8ff" stroke="#63b8ff" points="661.45,-126.88 670.29,-121.03 659.74,-120.09 661.45,-126.88"/>
</a>
</g>
</g>
<!-- Node5 -->
<g id="Node000005" class="node">
<title>Node5</title>
<g id="a_Node000005"><a xlink:href="classWebServer.html#a8cbf37c0a840305ce15e8648566c9ce4" target="_top" xlink:title="Handles incoming data from a connected client.">
<polygon fill="white" stroke="#666666" points="395.5,-54 244.5,-54 244.5,-35 395.5,-35 395.5,-54"/>
<text text-anchor="middle" x="320" y="-42" font-family="Helvetica,sans-Serif" font-size="10.00">WebServer::receiveRequest</text>
</a>
</g>
</g>
<!-- Node4&#45;&gt;Node5 -->
<g id="edge4_Node000004_Node000005" class="edge">
<title>Node4&#45;&gt;Node5</title>
<g id="a_edge4_Node000004_Node000005"><a xlink:title=" ">
<path fill="none" stroke="#63b8ff" d="M456.88,-43.83C437.33,-43.93 415.85,-44.03 395.86,-44.13"/>
<polygon fill="#63b8ff" stroke="#63b8ff" points="456.93,-47.33 466.91,-43.78 456.9,-40.33 456.93,-47.33"/>
</a>
</g>
</g>
<!-- Node5&#45;&gt;Node6 -->
<g id="edge5_Node000005_Node000006" class="edge">
<title>Node5&#45;&gt;Node6</title>
<g id="a_edge5_Node000005_Node000006"><a xlink:title=" ">
<path fill="none" stroke="#63b8ff" d="M261.26,-56.4C252.41,-58.55 243.42,-60.94 235,-63.5 209.2,-71.35 180.43,-82.81 161.18,-90.89"/>
<polygon fill="#63b8ff" stroke="#63b8ff" points="262.22,-59.76 271.15,-54.06 260.61,-52.95 262.22,-59.76"/>
</a>
</g>
</g>
<!-- Node7 -->
<g id="Node000007" class="node">
<title>Node7</title>
<g id="a_Node000007"><a xlink:href="main_8cpp.html#a3c04138a5bfe5d72780bb7e82a18e627" target="_top" xlink:title="Entry point of the Webservinho web server.">
<polygon fill="white" stroke="#666666" points="41,-110 0,-110 0,-91 41,-91 41,-110"/>
<text text-anchor="middle" x="20.5" y="-98" font-family="Helvetica,sans-Serif" font-size="10.00">main</text>
</a>
</g>
</g>
<!-- Node6&#45;&gt;Node7 -->
<g id="edge6_Node000006_Node000007" class="edge">
<title>Node6&#45;&gt;Node7</title>
<g id="a_edge6_Node000006_Node000007"><a xlink:title=" ">
<path fill="none" stroke="#63b8ff" d="M66.66,-100.5C57.35,-100.5 48.51,-100.5 41.15,-100.5"/>
<polygon fill="#63b8ff" stroke="#63b8ff" points="66.88,-104 76.88,-100.5 66.88,-97 66.88,-104"/>
</a>
</g>
</g>
<!-- Node8&#45;&gt;Node6 -->
<g id="edge8_Node000008_Node000006" class="edge">
<title>Node8&#45;&gt;Node6</title>
<g id="a_edge8_Node000008_Node000006"><a xlink:title=" ">
<path fill="none" stroke="#63b8ff" d="M224.59,-91.47C215.91,-92.38 207.27,-93.29 199.02,-94.16"/>
<polygon fill="#63b8ff" stroke="#63b8ff" points="225.22,-94.92 234.8,-90.39 224.49,-87.96 225.22,-94.92"/>
</a>
</g>
</g>
<!-- Node9&#45;&gt;Node6 -->
<g id="edge11_Node000009_Node000006" class="edge">
<title>Node9&#45;&gt;Node6</title>
<g id="a_edge11_Node000009_Node000006"><a xlink:title=" ">
<path fill="none" stroke="#63b8ff" d="M430.91,-155.62C373.85,-153.03 299.61,-147.07 235,-133.5 209.3,-128.1 181,-117.81 161.82,-110.15"/>
<polygon fill="#63b8ff" stroke="#63b8ff" points="430.86,-159.12 441,-156.05 431.16,-152.13 430.86,-159.12"/>
</a>
</g>
</g>
<!-- Node10&#45;&gt;Node3 -->
<g id="edge13_Node000010_Node000003" class="edge">
<title>Node10&#45;&gt;Node3</title>
<g id="a_edge13_Node000010_Node000003"><a xlink:title=" ">
<path fill="none" stroke="#63b8ff" d="M798.79,-122.25C790.13,-121.2 781.45,-120.15 773.08,-119.14"/>
<polygon fill="#63b8ff" stroke="#63b8ff" points="798.57,-125.75 808.91,-123.47 799.41,-118.8 798.57,-125.75"/>
</a>
</g>
</g>
<!-- Node11&#45;&gt;Node4 -->
<g id="edge15_Node000011_Node000004" class="edge">
<title>Node11&#45;&gt;Node4</title>
<g id="a_edge15_Node000011_Node000004"><a xlink:title=" ">
<path fill="none" stroke="#63b8ff" d="M642.87,-49.28C623.34,-48.31 602.09,-47.26 583.12,-46.32"/>
<polygon fill="#63b8ff" stroke="#63b8ff" points="642.74,-52.78 652.9,-49.78 643.09,-45.79 642.74,-52.78"/>
</a>
</g>
</g>
<!-- Node14 -->
<g id="Node000014" class="node">
<title>Node14</title>
<g id="a_Node000014"><a xlink:href="classRouter.html#aa58c0c6f2a1fc66a6e2a78adfae162e6" target="_top" xlink:title="Main entry point for determining how an HTTP request should be handled.">
<polygon fill="white" stroke="#666666" points="930,-19 839,-19 839,0 930,0 930,-19"/>
<text text-anchor="middle" x="884.5" y="-7" font-family="Helvetica,sans-Serif" font-size="10.00">Router::resolve</text>
</a>
</g>
</g>
<!-- Node13&#45;&gt;Node14 -->
<g id="edge18_Node000013_Node000014" class="edge">
<title>Node13&#45;&gt;Node14</title>
<g id="a_edge18_Node000013_Node000014"><a xlink:title=" ">
<path fill="none" stroke="#63b8ff" d="M1016.21,-9.5C988.2,-9.5 955.65,-9.5 930.03,-9.5"/>
<polygon fill="#63b8ff" stroke="#63b8ff" points="1016.3,-13 1026.3,-9.5 1016.3,-6 1016.3,-13"/>
</a>
</g>
</g>
<!-- Node14&#45;&gt;Node4 -->
<g id="edge19_Node000014_Node000004" class="edge">
<title>Node14&#45;&gt;Node4</title>
<g id="a_edge19_Node000014_Node000004"><a xlink:title=" ">
<path fill="none" stroke="#63b8ff" d="M828.36,-13.17C779.97,-16.57 707.75,-22.05 645,-28.5 624.8,-30.58 602.73,-33.25 583.14,-35.76"/>
<polygon fill="#63b8ff" stroke="#63b8ff" points="828.87,-16.64 838.61,-12.46 828.39,-9.66 828.87,-16.64"/>
</a>
</g>
</g>
</g>
</svg>
