<?xml version="1.0" encoding="UTF-8" standalone="no"?>
<!DOCTYPE svg PUBLIC "-//W3C//DTD SVG 1.1//EN"
 "http://www.w3.org/Graphics/SVG/1.1/DTD/svg11.dtd">
<!-- Generated by graphviz version 2.43.0 (0)
 -->
<!-- Title: HttpResponse::appendBody Pages: 1 -->
<svg width="1374pt" height="238pt"
 viewBox="0.00 0.00 1374.00 237.50" xmlns="http://www.w3.org/2000/svg" xmlns:xlink="http://www.w3.org/1999/xlink">
<g id="graph0" class="graph" transform="scale(1 1) rotate(0) translate(4 233.5)">
<title>HttpResponse::appendBody</title>
<!-- Node1 -->
<g id="Node000001" class="node">
<title>Node1</title>
<g id="a_Node000001"><a xlink:title="Appends text data to the response body.">
<polygon fill="#999999" stroke="#666666" points="1366,-161.5 1214,-161.5 1214,-142.5 1366,-142.5 1366,-161.5"/>
<text text-anchor="middle" x="1290" y="-149.5" font-family="Helvetica,sans-Serif" font-size="10.00">HttpResponse::appendBody</text>
</a>
</g>
</g>
<!-- Node2 -->
<g id="Node000002" class="node">
<title>Node2</title>
<g id="a_Node000002"><a xlink:href="classAutoIndexHandler.html#a19f63277112e5a0d50bb8d570527ce0a" target="_top" xlink:title="Generates and serves an HTML directory listing when autoindex is enabled.">
<polygon fill="white" stroke="#666666" points="788,-229.5 645,-229.5 645,-210.5 788,-210.5 788,-229.5"/>
<text text-anchor="middle" x="716.5" y="-217.5" font-family="Helvetica,sans-Serif" font-size="10.00">AutoIndexHandler::handle</text>
</a>
</g>
</g>
<!-- Node1&#45;&gt;Node2 -->
<g id="edge1_Node000001_Node000002" class="edge">
<title>Node1&#45;&gt;Node2</title>
<g id="a_edge1_Node000001_Node000002"><a xlink:title=" ">
<path fill="none" stroke="#63b8ff" d="M1251.89,-164.74C1230.53,-171.56 1203.04,-179.46 1178,-184 1041.49,-208.75 879.18,-216.49 788.28,-218.91"/>
<polygon fill="#63b8ff" stroke="#63b8ff" points="1253.12,-168.02 1261.54,-161.6 1250.95,-161.37 1253.12,-168.02"/>
</a>
</g>
</g>
<!-- Node7 -->
<g id="Node000007" class="node">
<title>Node7</title>
<g id="a_Node000007"><a xlink:href="classUploadHandler.html#ae9d6fd83c1ba35b23829b8f4f619127d" target="_top" xlink:title="Entry point for handling file uploads.">
<polygon fill="white" stroke="#666666" points="1159.5,-175.5 1031.5,-175.5 1031.5,-156.5 1159.5,-156.5 1159.5,-175.5"/>
<text text-anchor="middle" x="1095.5" y="-163.5" font-family="Helvetica,sans-Serif" font-size="10.00">UploadHandler::handle</text>
</a>
</g>
</g>
<!-- Node1&#45;&gt;Node7 -->
<g id="edge6_Node000001_Node000007" class="edge">
<title>Node1&#45;&gt;Node7</title>
<g id="a_edge6_Node000001_Node000007"><a xlink:title=" ">
<path fill="none" stroke="#63b8ff" d="M1203.57,-158.21C1188.77,-159.29 1173.63,-160.39 1159.56,-161.41"/>
<polygon fill="#63b8ff" stroke="#63b8ff" points="1204.03,-161.69 1213.75,-157.47 1203.52,-154.71 1204.03,-161.69"/>
</a>
</g>
</g>
<!-- Node8 -->
<g id="Node000008" class="node">
<title>Node8</title>
<g id="a_Node000008"><a xlink:href="classResponseBuilder.html#a0f3257a6db27bcd3befa5005cc7cdfa0" target="_top" xlink:title="Processes CGI output and builds an HTTP response from it.">
<polygon fill="white" stroke="#666666" points="977,-30 824,-30 824,0 977,0 977,-30"/>
<text text-anchor="start" x="832" y="-18" font-family="Helvetica,sans-Serif" font-size="10.00">ResponseBuilder::handleCgi</text>
<text text-anchor="middle" x="900.5" y="-7" font-family="Helvetica,sans-Serif" font-size="10.00">Output</text>
</a>
</g>
</g>
<!-- Node1&#45;&gt;Node8 -->
<g id="edge8_Node000001_Node000008" class="edge">
<title>Node1&#45;&gt;Node8</title>
<g id="a_edge8_Node000001_Node000008"><a xlink:title=" ">
<path fill="none" stroke="#63b8ff" d="M1265.91,-136.89C1244.02,-123.11 1209.83,-102.98 1178,-90 1111.79,-63.01 1032.76,-42.68 976.17,-30.04"/>
<polygon fill="#63b8ff" stroke="#63b8ff" points="1264.19,-139.94 1274.5,-142.37 1267.95,-134.04 1264.19,-139.94"/>
</a>
</g>
</g>
<!-- Node10 -->
<g id="Node000010" class="node">
<title>Node10</title>
<g id="a_Node000010"><a xlink:href="classResponseBuilder.html#a0a1b2929111eec67e4ebe1acb7796915" target="_top" xlink:title="Prepares an HTTP response for a static page.">
<polygon fill="white" stroke="#666666" points="1178,-129 1013,-129 1013,-99 1178,-99 1178,-129"/>
<text text-anchor="start" x="1021" y="-117" font-family="Helvetica,sans-Serif" font-size="10.00">ResponseBuilder::handleStatic</text>
<text text-anchor="middle" x="1095.5" y="-106" font-family="Helvetica,sans-Serif" font-size="10.00">PageOutput</text>
</a>
</g>
</g>
<!-- Node1&#45;&gt;Node10 -->
<g id="edge11_Node000001_Node000010" class="edge">
<title>Node1&#45;&gt;Node10</title>
<g id="a_edge11_Node000001_Node000010"><a xlink:title=" ">
<path fill="none" stroke="#63b8ff" d="M1230.56,-140.46C1212.36,-136.87 1192.02,-132.86 1172.79,-129.06"/>
<polygon fill="#63b8ff" stroke="#63b8ff" points="1229.94,-143.91 1240.42,-142.41 1231.29,-137.04 1229.94,-143.91"/>
</a>
</g>
</g>
<!-- Node3 -->
<g id="Node000003" class="node">
<title>Node3</title>
<g id="a_Node000003"><a xlink:href="classDispatcher.html#a13c8a2fd90033adf9788c8774c3f0f47" target="_top" xlink:title="Central dispatch routine that delegates HTTP requests to the appropriate handler.">
<polygon fill="white" stroke="#666666" points="582,-148.5 466,-148.5 466,-129.5 582,-129.5 582,-148.5"/>
<text text-anchor="middle" x="524" y="-136.5" font-family="Helvetica,sans-Serif" font-size="10.00">Dispatcher::dispatch</text>
</a>
</g>
</g>
<!-- Node2&#45;&gt;Node3 -->
<g id="edge2_Node000002_Node000003" class="edge">
<title>Node2&#45;&gt;Node3</title>
<g id="a_edge2_Node000002_Node000003"><a xlink:title=" ">
<path fill="none" stroke="#63b8ff" d="M675.31,-207.21C665.32,-203.79 654.7,-199.94 645,-196 608.25,-181.07 566.71,-160.47 543.41,-148.56"/>
<polygon fill="#63b8ff" stroke="#63b8ff" points="674.43,-210.61 685.03,-210.48 676.66,-203.97 674.43,-210.61"/>
</a>
</g>
</g>
<!-- Node4 -->
<g id="Node000004" class="node">
<title>Node4</title>
<g id="a_Node000004"><a xlink:href="classWebServer.html#a8cbf37c0a840305ce15e8648566c9ce4" target="_top" xlink:title="Handles incoming data from a connected client.">
<polygon fill="white" stroke="#666666" points="394.5,-148.5 243.5,-148.5 243.5,-129.5 394.5,-129.5 394.5,-148.5"/>
<text text-anchor="middle" x="319" y="-136.5" font-family="Helvetica,sans-Serif" font-size="10.00">WebServer::receiveRequest</text>
</a>
</g>
</g>
<!-- Node3&#45;&gt;Node4 -->
<g id="edge3_Node000003_Node000004" class="edge">
<title>Node3&#45;&gt;Node4</title>
<g id="a_edge3_Node000003_Node000004"><a xlink:title=" ">
<path fill="none" stroke="#63b8ff" d="M455.88,-139C436.33,-139 414.85,-139 394.86,-139"/>
<polygon fill="#63b8ff" stroke="#63b8ff" points="455.91,-142.5 465.91,-139 455.91,-135.5 455.91,-142.5"/>
</a>
</g>
</g>
<!-- Node5 -->
<g id="Node000005" class="node">
<title>Node5</title>
<g id="a_Node000005"><a xlink:href="classWebServer.html#af39709e3744077e019aa76555f03a42e" target="_top" xlink:title="Main event loop — monitors sockets, dispatches requests, and handles responses.">
<polygon fill="white" stroke="#666666" points="199,-91.5 77,-91.5 77,-72.5 199,-72.5 199,-91.5"/>
<text text-anchor="middle" x="138" y="-79.5" font-family="Helvetica,sans-Serif" font-size="10.00">WebServer::runServer</text>
</a>
</g>
</g>
<!-- Node4&#45;&gt;Node5 -->
<g id="edge4_Node000004_Node000005" class="edge">
<title>Node4&#45;&gt;Node5</title>
<g id="a_edge4_Node000004_Node000005"><a xlink:title=" ">
<path fill="none" stroke="#63b8ff" d="M273.76,-126.65C261.2,-123.02 247.53,-118.96 235,-115 211.47,-107.56 184.97,-98.39 165.78,-91.6"/>
<polygon fill="#63b8ff" stroke="#63b8ff" points="272.98,-130.07 283.56,-129.46 274.91,-123.34 272.98,-130.07"/>
</a>
</g>
</g>
<!-- Node6 -->
<g id="Node000006" class="node">
<title>Node6</title>
<g id="a_Node000006"><a xlink:href="main_8cpp.html#a3c04138a5bfe5d72780bb7e82a18e627" target="_top" xlink:title="Entry point of the Webservinho web server.">
<polygon fill="white" stroke="#666666" points="41,-91.5 0,-91.5 0,-72.5 41,-72.5 41,-91.5"/>
<text text-anchor="middle" x="20.5" y="-79.5" font-family="Helvetica,sans-Serif" font-size="10.00">main</text>
</a>
</g>
</g>
<!-- Node5&#45;&gt;Node6 -->
<g id="edge5_Node000005_Node000006" class="edge">
<title>Node5&#45;&gt;Node6</title>
<g id="a_edge5_Node000005_Node000006"><a xlink:title=" ">
<path fill="none" stroke="#63b8ff" d="M66.66,-82C57.35,-82 48.51,-82 41.15,-82"/>
<polygon fill="#63b8ff" stroke="#63b8ff" points="66.88,-85.5 76.88,-82 66.88,-78.5 66.88,-85.5"/>
</a>
</g>
</g>
<!-- Node7&#45;&gt;Node3 -->
<g id="edge7_Node000007_Node000003" class="edge">
<title>Node7&#45;&gt;Node3</title>
<g id="a_edge7_Node000007_Node000003"><a xlink:title=" ">
<path fill="none" stroke="#63b8ff" d="M1021.38,-169.77C932.24,-173.4 777.13,-176.53 645,-163 617.31,-160.17 586.54,-153.95 563.09,-148.55"/>
<polygon fill="#63b8ff" stroke="#63b8ff" points="1021.54,-173.27 1031.39,-169.35 1021.25,-166.28 1021.54,-173.27"/>
</a>
</g>
</g>
<!-- Node9 -->
<g id="Node000009" class="node">
<title>Node9</title>
<g id="a_Node000009"><a xlink:href="classWebServer.html#a7667bc8a87db8f9987a5e80da9c4cd37" target="_top" xlink:title="Reads CGI process output and assembles it into the client buffer.">
<polygon fill="white" stroke="#666666" points="609,-34.5 439,-34.5 439,-15.5 609,-15.5 609,-34.5"/>
<text text-anchor="middle" x="524" y="-22.5" font-family="Helvetica,sans-Serif" font-size="10.00">WebServer::handleCgiReadable</text>
</a>
</g>
</g>
<!-- Node8&#45;&gt;Node9 -->
<g id="edge9_Node000008_Node000009" class="edge">
<title>Node8&#45;&gt;Node9</title>
<g id="a_edge9_Node000008_Node000009"><a xlink:title=" ">
<path fill="none" stroke="#63b8ff" d="M813.67,-17.29C752.3,-18.93 670.13,-21.12 609.15,-22.75"/>
<polygon fill="#63b8ff" stroke="#63b8ff" points="813.81,-20.79 823.71,-17.02 813.62,-13.79 813.81,-20.79"/>
</a>
</g>
</g>
<!-- Node9&#45;&gt;Node5 -->
<g id="edge10_Node000009_Node000005" class="edge">
<title>Node9&#45;&gt;Node5</title>
<g id="a_edge10_Node000009_Node000005"><a xlink:title=" ">
<path fill="none" stroke="#63b8ff" d="M428.8,-23.88C372.03,-25.01 298.64,-29.68 235,-44 207.2,-50.26 176.9,-63.4 157.93,-72.46"/>
<polygon fill="#63b8ff" stroke="#63b8ff" points="428.9,-27.38 438.84,-23.71 428.78,-20.38 428.9,-27.38"/>
</a>
</g>
</g>
<!-- Node11 -->
<g id="Node000011" class="node">
<title>Node11</title>
<g id="a_Node000011"><a xlink:href="classResponseBuilder.html#afd79929bb501be85bdc85d86fdce93e9" target="_top" xlink:title="Assembles the complete HTTP response, including error handling.">
<polygon fill="white" stroke="#666666" points="780.5,-72.5 652.5,-72.5 652.5,-53.5 780.5,-53.5 780.5,-72.5"/>
<text text-anchor="middle" x="716.5" y="-60.5" font-family="Helvetica,sans-Serif" font-size="10.00">ResponseBuilder::build</text>
</a>
</g>
</g>
<!-- Node10&#45;&gt;Node11 -->
<g id="edge12_Node000010_Node000011" class="edge">
<title>Node10&#45;&gt;Node11</title>
<g id="a_edge12_Node000010_Node000011"><a xlink:title=" ">
<path fill="none" stroke="#63b8ff" d="M1002.81,-107.65C950.27,-103.31 883.2,-96.59 824,-87 800.8,-83.24 775.09,-77.49 754.74,-72.57"/>
<polygon fill="#63b8ff" stroke="#63b8ff" points="1002.53,-111.14 1012.78,-108.46 1003.1,-104.16 1002.53,-111.14"/>
</a>
</g>
</g>
<!-- Node13 -->
<g id="Node000013" class="node">
<title>Node13</title>
<g id="a_Node000013"><a xlink:href="classResponseBuilder.html#a998edbfd6f08dd34332ca92507db5d77" target="_top" xlink:title="Attempts to load and serve a custom error page from configuration.">
<polygon fill="white" stroke="#666666" points="976,-78 825,-78 825,-48 976,-48 976,-78"/>
<text text-anchor="start" x="833" y="-66" font-family="Helvetica,sans-Serif" font-size="10.00">ResponseBuilder::errorPage</text>
<text text-anchor="middle" x="900.5" y="-55" font-family="Helvetica,sans-Serif" font-size="10.00">Config</text>
</a>
</g>
</g>
<!-- Node10&#45;&gt;Node13 -->
<g id="edge18_Node000010_Node000013" class="edge">
<title>Node10&#45;&gt;Node13</title>
<g id="a_edge18_Node000010_Node000013"><a xlink:title=" ">
<path fill="none" stroke="#63b8ff" d="M1027.77,-96.37C1005.13,-90.38 980.08,-83.76 958.29,-78.01"/>
<polygon fill="#63b8ff" stroke="#63b8ff" points="1027.08,-99.8 1037.64,-98.97 1028.86,-93.04 1027.08,-99.8"/>
</a>
</g>
</g>
<!-- Node14 -->
<g id="Node000014" class="node">
<title>Node14</title>
<g id="a_Node000014"><a xlink:href="classStaticPageHandler.html#a701db169c979ef5cfebc72f6c160fb32" target="_top" xlink:title="Handles serving static files from disk.">
<polygon fill="white" stroke="#666666" points="772.5,-154 660.5,-154 660.5,-124 772.5,-124 772.5,-154"/>
<text text-anchor="start" x="668.5" y="-142" font-family="Helvetica,sans-Serif" font-size="10.00">StaticPageHandler::</text>
<text text-anchor="middle" x="716.5" y="-131" font-family="Helvetica,sans-Serif" font-size="10.00">handle</text>
</a>
</g>
</g>
<!-- Node10&#45;&gt;Node14 -->
<g id="edge20_Node000010_Node000014" class="edge">
<title>Node10&#45;&gt;Node14</title>
<g id="a_edge20_Node000010_Node000014"><a xlink:title=" ">
<path fill="none" stroke="#63b8ff" d="M1002.28,-120.12C930.36,-124.88 832.89,-131.35 772.65,-135.34"/>
<polygon fill="#63b8ff" stroke="#63b8ff" points="1002.95,-123.58 1012.7,-119.42 1002.49,-116.59 1002.95,-123.58"/>
</a>
</g>
</g>
<!-- Node11&#45;&gt;Node3 -->
<g id="edge13_Node000011_Node000003" class="edge">
<title>Node11&#45;&gt;Node3</title>
<g id="a_edge13_Node000011_Node000003"><a xlink:title=" ">
<path fill="none" stroke="#63b8ff" d="M689.19,-77.46C667.98,-88.72 637.15,-104.2 609,-115 594.56,-120.54 578.29,-125.48 563.94,-129.41"/>
<polygon fill="#63b8ff" stroke="#63b8ff" points="691.05,-80.43 698.21,-72.62 687.74,-74.27 691.05,-80.43"/>
</a>
</g>
</g>
<!-- Node11&#45;&gt;Node5 -->
<g id="edge15_Node000011_Node000005" class="edge">
<title>Node11&#45;&gt;Node5</title>
<g id="a_edge15_Node000011_Node000005"><a xlink:title=" ">
<path fill="none" stroke="#63b8ff" d="M642.17,-73.73C631.07,-75.03 619.75,-76.19 609,-77 462.12,-88.05 288.71,-86 199.2,-83.83"/>
<polygon fill="#63b8ff" stroke="#63b8ff" points="642.77,-77.18 652.27,-72.49 641.91,-70.23 642.77,-77.18"/>
</a>
</g>
</g>
<!-- Node11&#45;&gt;Node9 -->
<g id="edge14_Node000011_Node000009" class="edge">
<title>Node11&#45;&gt;Node9</title>
<g id="a_edge14_Node000011_Node000009"><a xlink:title=" ">
<path fill="none" stroke="#63b8ff" d="M657.3,-51.39C630.21,-45.99 598.37,-39.64 572.73,-34.52"/>
<polygon fill="#63b8ff" stroke="#63b8ff" points="656.94,-54.89 667.43,-53.41 658.31,-48.02 656.94,-54.89"/>
</a>
</g>
</g>
<!-- Node12 -->
<g id="Node000012" class="node">
<title>Node12</title>
<g id="a_Node000012"><a xlink:href="classWebServer.html#a32042bb7e426cf5c53c2c2860d622342" target="_top" xlink:title="Scans active CGI processes and terminates those exceeding timeout.">
<polygon fill="white" stroke="#666666" points="403,-72.5 235,-72.5 235,-53.5 403,-53.5 403,-72.5"/>
<text text-anchor="middle" x="319" y="-60.5" font-family="Helvetica,sans-Serif" font-size="10.00">WebServer::sweepCgiTimeouts</text>
</a>
</g>
</g>
<!-- Node11&#45;&gt;Node12 -->
<g id="edge16_Node000011_Node000012" class="edge">
<title>Node11&#45;&gt;Node12</title>
<g id="a_edge16_Node000011_Node000012"><a xlink:title=" ">
<path fill="none" stroke="#63b8ff" d="M642.23,-63C574.49,-63 473.91,-63 403.18,-63"/>
<polygon fill="#63b8ff" stroke="#63b8ff" points="642.39,-66.5 652.39,-63 642.39,-59.5 642.39,-66.5"/>
</a>
</g>
</g>
<!-- Node12&#45;&gt;Node5 -->
<g id="edge17_Node000012_Node000005" class="edge">
<title>Node12&#45;&gt;Node5</title>
<g id="a_edge17_Node000012_Node000005"><a xlink:title=" ">
<path fill="none" stroke="#63b8ff" d="M224.6,-72.91C215.93,-73.83 207.3,-74.75 199.06,-75.63"/>
<polygon fill="#63b8ff" stroke="#63b8ff" points="225.21,-76.37 234.79,-71.83 224.47,-69.41 225.21,-76.37"/>
</a>
</g>
</g>
<!-- Node13&#45;&gt;Node11 -->
<g id="edge19_Node000013_Node000011" class="edge">
<title>Node13&#45;&gt;Node11</title>
<g id="a_edge19_Node000013_Node000011"><a xlink:title=" ">
<path fill="none" stroke="#63b8ff" d="M814.87,-63C803.33,-63 791.66,-63 780.6,-63"/>
<polygon fill="#63b8ff" stroke="#63b8ff" points="814.95,-66.5 824.95,-63 814.95,-59.5 814.95,-66.5"/>
</a>
</g>
</g>
<!-- Node14&#45;&gt;Node3 -->
<g id="edge21_Node000014_Node000003" class="edge">
<title>Node14&#45;&gt;Node3</title>
<g id="a_edge21_Node000014_Node000003"><a xlink:title=" ">
<path fill="none" stroke="#63b8ff" d="M650.13,-139C628.08,-139 603.67,-139 582.3,-139"/>
<polygon fill="#63b8ff" stroke="#63b8ff" points="650.4,-142.5 660.4,-139 650.4,-135.5 650.4,-142.5"/>
</a>
</g>
</g>
</g>
</svg>
