<?xml version="1.0" encoding="UTF-8" standalone="no"?>
<!DOCTYPE svg PUBLIC "-//W3C//DTD SVG 1.1//EN"
 "http://www.w3.org/Graphics/SVG/1.1/DTD/svg11.dtd">
<!-- Generated by graphviz version 2.43.0 (0)
 -->
<!-- Title: HttpRequest::setRouteType Pages: 1 -->
<svg width="1031pt" height="103pt"
 viewBox="0.00 0.00 1031.00 103.00" xmlns="http://www.w3.org/2000/svg" xmlns:xlink="http://www.w3.org/1999/xlink">
<g id="graph0" class="graph" transform="scale(1 1) rotate(0) translate(4 99)">
<title>HttpRequest::setRouteType</title>
<!-- Node1 -->
<g id="Node000001" class="node">
<title>Node1</title>
<g id="a_Node000001"><a xlink:title=" ">
<polygon fill="#999999" stroke="#666666" points="1023,-57 874,-57 874,-38 1023,-38 1023,-57"/>
<text text-anchor="middle" x="948.5" y="-45" font-family="Helvetica,sans-Serif" font-size="10.00">HttpRequest::setRouteType</text>
</a>
</g>
</g>
<!-- Node2 -->
<g id="Node000002" class="node">
<title>Node2</title>
<g id="a_Node000002"><a xlink:href="classRouter.html#a6a677663d297f4d367cb1e503a1bf1b3" target="_top" xlink:title="Checks if the response already contains an error status.">
<polygon fill="white" stroke="#666666" points="838,-95 701,-95 701,-76 838,-76 838,-95"/>
<text text-anchor="middle" x="769.5" y="-83" font-family="Helvetica,sans-Serif" font-size="10.00">Router::checkErrorStatus</text>
</a>
</g>
</g>
<!-- Node1&#45;&gt;Node2 -->
<g id="edge1_Node000001_Node000002" class="edge">
<title>Node1&#45;&gt;Node2</title>
<g id="a_edge1_Node000001_Node000002"><a xlink:title=" ">
<path fill="none" stroke="#63b8ff" d="M892.76,-59.25C867.73,-64.63 838.47,-70.91 814.84,-75.98"/>
<polygon fill="#63b8ff" stroke="#63b8ff" points="893.79,-62.61 902.84,-57.09 892.32,-55.77 893.79,-62.61"/>
</a>
</g>
</g>
<!-- Node3 -->
<g id="Node000003" class="node">
<title>Node3</title>
<g id="a_Node000003"><a xlink:href="classRouter.html#aa58c0c6f2a1fc66a6e2a78adfae162e6" target="_top" xlink:title="Main entry point for determining how an HTTP request should be handled.">
<polygon fill="white" stroke="#666666" points="665,-57 574,-57 574,-38 665,-38 665,-57"/>
<text text-anchor="middle" x="619.5" y="-45" font-family="Helvetica,sans-Serif" font-size="10.00">Router::resolve</text>
</a>
</g>
</g>
<!-- Node1&#45;&gt;Node3 -->
<g id="edge9_Node000001_Node000003" class="edge">
<title>Node1&#45;&gt;Node3</title>
<g id="a_edge9_Node000001_Node000003"><a xlink:title=" ">
<path fill="none" stroke="#63b8ff" d="M863.36,-47.5C800.2,-47.5 716.19,-47.5 665.34,-47.5"/>
<polygon fill="#63b8ff" stroke="#63b8ff" points="863.71,-51 873.71,-47.5 863.71,-44 863.71,-51"/>
</a>
</g>
</g>
<!-- Node8 -->
<g id="Node000008" class="node">
<title>Node8</title>
<g id="a_Node000008"><a xlink:href="classRouter.html#ab76bed10e7facdd1b6e4be3f2bbbff0f" target="_top" xlink:title="Determines if the current request is a valid upload operation.">
<polygon fill="white" stroke="#666666" points="818.5,-19 720.5,-19 720.5,0 818.5,0 818.5,-19"/>
<text text-anchor="middle" x="769.5" y="-7" font-family="Helvetica,sans-Serif" font-size="10.00">Router::isUpload</text>
</a>
</g>
</g>
<!-- Node1&#45;&gt;Node8 -->
<g id="edge7_Node000001_Node000008" class="edge">
<title>Node1&#45;&gt;Node8</title>
<g id="a_edge7_Node000001_Node000008"><a xlink:title=" ">
<path fill="none" stroke="#63b8ff" d="M892.76,-35.75C867.73,-30.37 838.47,-24.09 814.84,-19.02"/>
<polygon fill="#63b8ff" stroke="#63b8ff" points="892.32,-39.23 902.84,-37.91 893.79,-32.39 892.32,-39.23"/>
</a>
</g>
</g>
<!-- Node2&#45;&gt;Node3 -->
<g id="edge2_Node000002_Node000003" class="edge">
<title>Node2&#45;&gt;Node3</title>
<g id="a_edge2_Node000002_Node000003"><a xlink:title=" ">
<path fill="none" stroke="#63b8ff" d="M721.33,-73.39C700.71,-68.1 676.89,-61.98 657.58,-57.02"/>
<polygon fill="#63b8ff" stroke="#63b8ff" points="720.6,-76.81 731.15,-75.91 722.34,-70.03 720.6,-76.81"/>
</a>
</g>
</g>
<!-- Node4 -->
<g id="Node000004" class="node">
<title>Node4</title>
<g id="a_Node000004"><a xlink:href="classDispatcher.html#a13c8a2fd90033adf9788c8774c3f0f47" target="_top" xlink:title="Central dispatch routine that delegates HTTP requests to the appropriate handler.">
<polygon fill="white" stroke="#666666" points="538,-57 422,-57 422,-38 538,-38 538,-57"/>
<text text-anchor="middle" x="480" y="-45" font-family="Helvetica,sans-Serif" font-size="10.00">Dispatcher::dispatch</text>
</a>
</g>
</g>
<!-- Node3&#45;&gt;Node4 -->
<g id="edge3_Node000003_Node000004" class="edge">
<title>Node3&#45;&gt;Node4</title>
<g id="a_edge3_Node000003_Node000004"><a xlink:title=" ">
<path fill="none" stroke="#63b8ff" d="M563.85,-47.5C555.5,-47.5 546.86,-47.5 538.45,-47.5"/>
<polygon fill="#63b8ff" stroke="#63b8ff" points="563.86,-51 573.86,-47.5 563.86,-44 563.86,-51"/>
</a>
</g>
</g>
<!-- Node5 -->
<g id="Node000005" class="node">
<title>Node5</title>
<g id="a_Node000005"><a xlink:href="classWebServer.html#a8cbf37c0a840305ce15e8648566c9ce4" target="_top" xlink:title="Handles incoming data from a connected client.">
<polygon fill="white" stroke="#666666" points="386,-57 235,-57 235,-38 386,-38 386,-57"/>
<text text-anchor="middle" x="310.5" y="-45" font-family="Helvetica,sans-Serif" font-size="10.00">WebServer::receiveRequest</text>
</a>
</g>
</g>
<!-- Node4&#45;&gt;Node5 -->
<g id="edge4_Node000004_Node000005" class="edge">
<title>Node4&#45;&gt;Node5</title>
<g id="a_edge4_Node000004_Node000005"><a xlink:title=" ">
<path fill="none" stroke="#63b8ff" d="M411.72,-47.5C403.32,-47.5 394.69,-47.5 386.19,-47.5"/>
<polygon fill="#63b8ff" stroke="#63b8ff" points="411.82,-51 421.82,-47.5 411.82,-44 411.82,-51"/>
</a>
</g>
</g>
<!-- Node6 -->
<g id="Node000006" class="node">
<title>Node6</title>
<g id="a_Node000006"><a xlink:href="classWebServer.html#af39709e3744077e019aa76555f03a42e" target="_top" xlink:title="Main event loop — monitors sockets, dispatches requests, and handles responses.">
<polygon fill="white" stroke="#666666" points="199,-57 77,-57 77,-38 199,-38 199,-57"/>
<text text-anchor="middle" x="138" y="-45" font-family="Helvetica,sans-Serif" font-size="10.00">WebServer::runServer</text>
</a>
</g>
</g>
<!-- Node5&#45;&gt;Node6 -->
<g id="edge5_Node000005_Node000006" class="edge">
<title>Node5&#45;&gt;Node6</title>
<g id="a_edge5_Node000005_Node000006"><a xlink:title=" ">
<path fill="none" stroke="#63b8ff" d="M224.63,-47.5C216.02,-47.5 207.4,-47.5 199.13,-47.5"/>
<polygon fill="#63b8ff" stroke="#63b8ff" points="224.72,-51 234.72,-47.5 224.72,-44 224.72,-51"/>
</a>
</g>
</g>
<!-- Node7 -->
<g id="Node000007" class="node">
<title>Node7</title>
<g id="a_Node000007"><a xlink:href="main_8cpp.html#a3c04138a5bfe5d72780bb7e82a18e627" target="_top" xlink:title="Entry point of the Webservinho web server.">
<polygon fill="white" stroke="#666666" points="41,-57 0,-57 0,-38 41,-38 41,-57"/>
<text text-anchor="middle" x="20.5" y="-45" font-family="Helvetica,sans-Serif" font-size="10.00">main</text>
</a>
</g>
</g>
<!-- Node6&#45;&gt;Node7 -->
<g id="edge6_Node000006_Node000007" class="edge">
<title>Node6&#45;&gt;Node7</title>
<g id="a_edge6_Node000006_Node000007"><a xlink:title=" ">
<path fill="none" stroke="#63b8ff" d="M66.66,-47.5C57.35,-47.5 48.51,-47.5 41.15,-47.5"/>
<polygon fill="#63b8ff" stroke="#63b8ff" points="66.88,-51 76.88,-47.5 66.88,-44 66.88,-51"/>
</a>
</g>
</g>
<!-- Node8&#45;&gt;Node3 -->
<g id="edge8_Node000008_Node000003" class="edge">
<title>Node8&#45;&gt;Node3</title>
<g id="a_edge8_Node000008_Node000003"><a xlink:title=" ">
<path fill="none" stroke="#63b8ff" d="M721.33,-21.61C700.71,-26.9 676.89,-33.02 657.58,-37.98"/>
<polygon fill="#63b8ff" stroke="#63b8ff" points="722.34,-24.97 731.15,-19.09 720.6,-18.19 722.34,-24.97"/>
</a>
</g>
</g>
</g>
</svg>
