<?xml version="1.0" encoding="UTF-8" standalone="no"?>
<!DOCTYPE svg PUBLIC "-//W3C//DTD SVG 1.1//EN"
 "http://www.w3.org/Graphics/SVG/1.1/DTD/svg11.dtd">
<!-- Generated by graphviz version 2.43.0 (0)
 -->
<!-- Title: CgiHandler::buildEnvp Pages: 1 -->
<svg width="492pt" height="397pt"
 viewBox="0.00 0.00 492.00 397.00" xmlns="http://www.w3.org/2000/svg" xmlns:xlink="http://www.w3.org/1999/xlink">
<g id="graph0" class="graph" transform="scale(1 1) rotate(0) translate(4 393)">
<title>CgiHandler::buildEnvp</title>
<!-- Node1 -->
<g id="Node000001" class="node">
<title>Node1</title>
<g id="a_Node000001"><a xlink:title="Builds the CGI environment variables array (envp).">
<polygon fill="#999999" stroke="#666666" points="125,-204 0,-204 0,-185 125,-185 125,-204"/>
<text text-anchor="middle" x="62.5" y="-192" font-family="Helvetica,sans-Serif" font-size="10.00">CgiHandler::buildEnvp</text>
</a>
</g>
</g>
<!-- Node2 -->
<g id="Node000002" class="node">
<title>Node2</title>
<g id="a_Node000002"><a xlink:href="classCgiHandler.html#aa896fbfdd2eae9f5b734aa4a3b5a1c6b" target="_top" xlink:title="Extracts PATH_INFO from the original URI following the script name.">
<polygon fill="white" stroke="#666666" points="320.5,-389 169.5,-389 169.5,-370 320.5,-370 320.5,-389"/>
<text text-anchor="middle" x="245" y="-377" font-family="Helvetica,sans-Serif" font-size="10.00">CgiHandler::extractPathInfo</text>
</a>
</g>
</g>
<!-- Node1&#45;&gt;Node2 -->
<g id="edge1_Node000001_Node000002" class="edge">
<title>Node1&#45;&gt;Node2</title>
<g id="a_edge1_Node000001_Node000002"><a xlink:title=" ">
<path fill="none" stroke="#63b8ff" d="M66.17,-204.31C74.61,-233.42 103.68,-319.88 161,-361.5 162.89,-362.87 164.86,-364.14 166.91,-365.32"/>
<polygon fill="#63b8ff" stroke="#63b8ff" points="165.71,-368.63 176.22,-369.91 168.8,-362.35 165.71,-368.63"/>
</a>
</g>
</g>
<!-- Node3 -->
<g id="Node000003" class="node">
<title>Node3</title>
<g id="a_Node000003"><a xlink:href="classCgiHandler.html#a7302f3e29ecec992b270f931a809fffd" target="_top" xlink:title="Extracts the script name from a resolved filesystem path.">
<polygon fill="white" stroke="#666666" points="329,-352 161,-352 161,-333 329,-333 329,-352"/>
<text text-anchor="middle" x="245" y="-340" font-family="Helvetica,sans-Serif" font-size="10.00">CgiHandler::extractScriptName</text>
</a>
</g>
</g>
<!-- Node1&#45;&gt;Node3 -->
<g id="edge2_Node000001_Node000003" class="edge">
<title>Node1&#45;&gt;Node3</title>
<g id="a_edge2_Node000001_Node000003"><a xlink:title=" ">
<path fill="none" stroke="#63b8ff" d="M67.77,-204.2C79.08,-228.69 112.32,-293.27 161,-324.5 163.58,-326.16 166.3,-327.67 169.1,-329.04"/>
<polygon fill="#63b8ff" stroke="#63b8ff" points="167.75,-332.26 178.32,-332.96 170.49,-325.82 167.75,-332.26"/>
</a>
</g>
</g>
<!-- Node4 -->
<g id="Node000004" class="node">
<title>Node4</title>
<g id="a_Node000004"><a xlink:href="classHttpRequest.html#acf2987d88eeca215f0d1f467166afcd2" target="_top" xlink:title="Returns a const reference to the full headers map.">
<polygon fill="white" stroke="#666666" points="321,-315 169,-315 169,-296 321,-296 321,-315"/>
<text text-anchor="middle" x="245" y="-303" font-family="Helvetica,sans-Serif" font-size="10.00">HttpRequest::getAllHeaders</text>
</a>
</g>
</g>
<!-- Node1&#45;&gt;Node4 -->
<g id="edge3_Node000001_Node000004" class="edge">
<title>Node1&#45;&gt;Node4</title>
<g id="a_edge3_Node000001_Node000004"><a xlink:title=" ">
<path fill="none" stroke="#63b8ff" d="M70.61,-204.18C85.22,-223.35 120.7,-266.13 161,-287.5 164.49,-289.35 168.16,-291.01 171.93,-292.5"/>
<polygon fill="#63b8ff" stroke="#63b8ff" points="170.88,-295.84 181.48,-295.87 173.21,-289.24 170.88,-295.84"/>
</a>
</g>
</g>
<!-- Node5 -->
<g id="Node000005" class="node">
<title>Node5</title>
<g id="a_Node000005"><a xlink:href="classHttpRequest.html#a610ff6d9fe8d0ad21ea2c48c9ee52fca" target="_top" xlink:title="Retrieves a header value by name (case&#45;insensitive).">
<polygon fill="white" stroke="#666666" points="312,-278 178,-278 178,-259 312,-259 312,-278"/>
<text text-anchor="middle" x="245" y="-266" font-family="Helvetica,sans-Serif" font-size="10.00">HttpRequest::getHeader</text>
</a>
</g>
</g>
<!-- Node1&#45;&gt;Node5 -->
<g id="edge4_Node000001_Node000005" class="edge">
<title>Node1&#45;&gt;Node5</title>
<g id="a_edge4_Node000001_Node000005"><a xlink:title=" ">
<path fill="none" stroke="#63b8ff" d="M77.03,-204.09C95.26,-216.57 129.12,-238.23 161,-250.5 166.55,-252.64 172.42,-254.55 178.36,-256.25"/>
<polygon fill="#63b8ff" stroke="#63b8ff" points="177.82,-259.73 188.39,-258.92 179.63,-252.97 177.82,-259.73"/>
</a>
</g>
</g>
<!-- Node7 -->
<g id="Node000007" class="node">
<title>Node7</title>
<g id="a_Node000007"><a xlink:href="classHttpRequest.html#a4f8b5740106c8f1ffb935549cbcb3ec0" target="_top" xlink:title=" ">
<polygon fill="white" stroke="#666666" points="323.5,-241 166.5,-241 166.5,-222 323.5,-222 323.5,-241"/>
<text text-anchor="middle" x="245" y="-229" font-family="Helvetica,sans-Serif" font-size="10.00">HttpRequest::getQueryString</text>
</a>
</g>
</g>
<!-- Node1&#45;&gt;Node7 -->
<g id="edge6_Node000001_Node000007" class="edge">
<title>Node1&#45;&gt;Node7</title>
<g id="a_edge6_Node000001_Node000007"><a xlink:title=" ">
<path fill="none" stroke="#63b8ff" d="M109.98,-204.03C133.58,-208.86 162.44,-214.78 187.32,-219.88"/>
<polygon fill="#63b8ff" stroke="#63b8ff" points="186.86,-223.36 197.36,-221.94 188.27,-216.5 186.86,-223.36"/>
</a>
</g>
</g>
<!-- Node8 -->
<g id="Node000008" class="node">
<title>Node8</title>
<g id="a_Node000008"><a xlink:href="classHttpRequest.html#a9cd740d746bcd7fa6e4fcb8c537879ad" target="_top" xlink:title="Returns the resolved filesystem path corresponding to the URI.">
<polygon fill="white" stroke="#666666" points="327.5,-204 162.5,-204 162.5,-185 327.5,-185 327.5,-204"/>
<text text-anchor="middle" x="245" y="-192" font-family="Helvetica,sans-Serif" font-size="10.00">HttpRequest::getResolvedPath</text>
</a>
</g>
</g>
<!-- Node1&#45;&gt;Node8 -->
<g id="edge7_Node000001_Node000008" class="edge">
<title>Node1&#45;&gt;Node8</title>
<g id="a_edge7_Node000001_Node000008"><a xlink:title=" ">
<path fill="none" stroke="#63b8ff" d="M125.11,-194.5C133.79,-194.5 142.87,-194.5 151.97,-194.5"/>
<polygon fill="#63b8ff" stroke="#63b8ff" points="152.24,-198 162.24,-194.5 152.24,-191 152.24,-198"/>
</a>
</g>
</g>
<!-- Node9 -->
<g id="Node000009" class="node">
<title>Node9</title>
<g id="a_Node000009"><a xlink:href="classHttpRequest.html#a658d90f4dd4080c30c99c463c082abc8" target="_top" xlink:title=" ">
<polygon fill="white" stroke="#666666" points="301.5,-167 188.5,-167 188.5,-148 301.5,-148 301.5,-167"/>
<text text-anchor="middle" x="245" y="-155" font-family="Helvetica,sans-Serif" font-size="10.00">HttpRequest::getUri</text>
</a>
</g>
</g>
<!-- Node1&#45;&gt;Node9 -->
<g id="edge8_Node000001_Node000009" class="edge">
<title>Node1&#45;&gt;Node9</title>
<g id="a_edge8_Node000001_Node000009"><a xlink:title=" ">
<path fill="none" stroke="#63b8ff" d="M109.98,-184.97C133.58,-180.14 162.44,-174.22 187.32,-169.12"/>
<polygon fill="#63b8ff" stroke="#63b8ff" points="188.27,-172.5 197.36,-167.06 186.86,-165.64 188.27,-172.5"/>
</a>
</g>
</g>
<!-- Node10 -->
<g id="Node000010" class="node">
<title>Node10</title>
<g id="a_Node000010"><a xlink:href="classLogger.html#a4aa4d7c3b98f6e12e7ea8253da5ea0cd" target="_top" xlink:title="Returns the singleton instance of the Logger.">
<polygon fill="white" stroke="#666666" points="293.5,-130 196.5,-130 196.5,-111 293.5,-111 293.5,-130"/>
<text text-anchor="middle" x="245" y="-118" font-family="Helvetica,sans-Serif" font-size="10.00">Logger::instance</text>
</a>
</g>
</g>
<!-- Node1&#45;&gt;Node10 -->
<g id="edge9_Node000001_Node000010" class="edge">
<title>Node1&#45;&gt;Node10</title>
<g id="a_edge9_Node000001_Node000010"><a xlink:title=" ">
<path fill="none" stroke="#63b8ff" d="M77.4,-184.94C95.75,-172.73 129.46,-151.71 161,-139.5 169.11,-136.36 177.88,-133.66 186.58,-131.36"/>
<polygon fill="#63b8ff" stroke="#63b8ff" points="187.46,-134.75 196.32,-128.94 185.77,-127.95 187.46,-134.75"/>
</a>
</g>
</g>
<!-- Node11 -->
<g id="Node000011" class="node">
<title>Node11</title>
<g id="a_Node000011"><a xlink:href="classLogger.html#a3d3f0801eeaf39b33a906ea8569c19b2" target="_top" xlink:title="Writes a log entry with timestamp, level, and message.">
<polygon fill="white" stroke="#666666" points="280.5,-93 209.5,-93 209.5,-74 280.5,-74 280.5,-93"/>
<text text-anchor="middle" x="245" y="-81" font-family="Helvetica,sans-Serif" font-size="10.00">Logger::log</text>
</a>
</g>
</g>
<!-- Node1&#45;&gt;Node11 -->
<g id="edge10_Node000001_Node000011" class="edge">
<title>Node1&#45;&gt;Node11</title>
<g id="a_edge10_Node000001_Node000011"><a xlink:title=" ">
<path fill="none" stroke="#63b8ff" d="M70.65,-184.96C85.35,-166.07 120.97,-123.89 161,-102.5 172.73,-96.23 186.46,-92.03 199.34,-89.2"/>
<polygon fill="#63b8ff" stroke="#63b8ff" points="200.3,-92.58 209.44,-87.22 198.95,-85.71 200.3,-92.58"/>
</a>
</g>
</g>
<!-- Node13 -->
<g id="Node000013" class="node">
<title>Node13</title>
<g id="a_Node000013"><a xlink:href="classHttpRequest.html#afc9f6c2f9359ab0cec281221d9e7e25f" target="_top" xlink:title="Converts the HTTP method enum to its string representation.">
<polygon fill="white" stroke="#666666" points="325,-56 165,-56 165,-37 325,-37 325,-56"/>
<text text-anchor="middle" x="245" y="-44" font-family="Helvetica,sans-Serif" font-size="10.00">HttpRequest::methodToString</text>
</a>
</g>
</g>
<!-- Node1&#45;&gt;Node13 -->
<g id="edge12_Node000001_Node000013" class="edge">
<title>Node1&#45;&gt;Node13</title>
<g id="a_edge12_Node000001_Node000013"><a xlink:title=" ">
<path fill="none" stroke="#63b8ff" d="M67.81,-184.9C79.23,-160.68 112.68,-96.76 161,-65.5 164.16,-63.45 167.52,-61.62 171,-59.99"/>
<polygon fill="#63b8ff" stroke="#63b8ff" points="172.53,-63.15 180.46,-56.11 169.88,-56.67 172.53,-63.15"/>
</a>
</g>
</g>
<!-- Node14 -->
<g id="Node000014" class="node">
<title>Node14</title>
<g id="a_Node000014"><a xlink:href="string__utils_8hpp.html#ad735976365693b45c427000fe042e173" target="_top" xlink:title="Converts any printable type to a string representation.">
<polygon fill="white" stroke="#666666" points="272.5,-19 217.5,-19 217.5,0 272.5,0 272.5,-19"/>
<text text-anchor="middle" x="245" y="-7" font-family="Helvetica,sans-Serif" font-size="10.00">toString</text>
</a>
</g>
</g>
<!-- Node1&#45;&gt;Node14 -->
<g id="edge13_Node000001_Node000014" class="edge">
<title>Node1&#45;&gt;Node14</title>
<g id="a_edge13_Node000001_Node000014"><a xlink:title=" ">
<path fill="none" stroke="#63b8ff" d="M66.21,-184.78C74.77,-155.92 104.12,-70.18 161,-28.5 174.27,-18.77 191.7,-13.91 207.15,-11.53"/>
<polygon fill="#63b8ff" stroke="#63b8ff" points="207.97,-14.95 217.46,-10.24 207.1,-8.01 207.97,-14.95"/>
</a>
</g>
</g>
<!-- Node6 -->
<g id="Node000006" class="node">
<title>Node6</title>
<g id="a_Node000006"><a xlink:href="string__utils_8hpp.html#a96432d89bc886bc9cdd1d73f86b2bbca" target="_top" xlink:title="Converts a string to lowercase.">
<polygon fill="white" stroke="#666666" points="452.5,-278 396.5,-278 396.5,-259 452.5,-259 452.5,-278"/>
<text text-anchor="middle" x="424.5" y="-266" font-family="Helvetica,sans-Serif" font-size="10.00">toLower</text>
</a>
</g>
</g>
<!-- Node5&#45;&gt;Node6 -->
<g id="edge5_Node000005_Node000006" class="edge">
<title>Node5&#45;&gt;Node6</title>
<g id="a_edge5_Node000005_Node000006"><a xlink:title=" ">
<path fill="none" stroke="#63b8ff" d="M312.09,-268.5C337.17,-268.5 364.83,-268.5 386.31,-268.5"/>
<polygon fill="#63b8ff" stroke="#63b8ff" points="386.32,-272 396.32,-268.5 386.32,-265 386.32,-272"/>
</a>
</g>
</g>
<!-- Node12 -->
<g id="Node000012" class="node">
<title>Node12</title>
<g id="a_Node000012"><a xlink:href="classLogger.html#a19f9ef22095a67c9fe420c9d6e761fc2" target="_top" xlink:title="Converts a LogLevel enum value to its string label.">
<polygon fill="white" stroke="#666666" points="484,-93 365,-93 365,-74 484,-74 484,-93"/>
<text text-anchor="middle" x="424.5" y="-81" font-family="Helvetica,sans-Serif" font-size="10.00">Logger::levelToString</text>
</a>
</g>
</g>
<!-- Node11&#45;&gt;Node12 -->
<g id="edge11_Node000011_Node000012" class="edge">
<title>Node11&#45;&gt;Node12</title>
<g id="a_edge11_Node000011_Node000012"><a xlink:title=" ">
<path fill="none" stroke="#63b8ff" d="M280.65,-83.5C301.66,-83.5 329.22,-83.5 354.52,-83.5"/>
<polygon fill="#63b8ff" stroke="#63b8ff" points="354.83,-87 364.83,-83.5 354.83,-80 354.83,-87"/>
</a>
</g>
</g>
</g>
</svg>
