<?xml version="1.0" encoding="UTF-8" standalone="no"?>
<!DOCTYPE svg PUBLIC "-//W3C//DTD SVG 1.1//EN"
 "http://www.w3.org/Graphics/SVG/1.1/DTD/svg11.dtd">
<!-- Generated by graphviz version 2.43.0 (0)
 -->
<!-- Title: HttpResponse::setStatusCode Pages: 1 -->
<svg width="1181pt" height="559pt"
 viewBox="0.00 0.00 1181.00 558.79" xmlns="http://www.w3.org/2000/svg" xmlns:xlink="http://www.w3.org/1999/xlink">
<g id="graph0" class="graph" transform="scale(1 1) rotate(0) translate(4 554.79)">
<title>HttpResponse::setStatusCode</title>
<!-- Node1 -->
<g id="Node000001" class="node">
<title>Node1</title>
<g id="a_Node000001"><a xlink:title="Sets the HTTP status code and updates the corresponding reason phrase.">
<polygon fill="#999999" stroke="#666666" points="1173,-293 1012,-293 1012,-274 1173,-274 1173,-293"/>
<text text-anchor="middle" x="1092.5" y="-281" font-family="Helvetica,sans-Serif" font-size="10.00">HttpResponse::setStatusCode</text>
</a>
</g>
</g>
<!-- Node2 -->
<g id="Node000002" class="node">
<title>Node2</title>
<g id="a_Node000002"><a xlink:href="classDispatcher.html#a13c8a2fd90033adf9788c8774c3f0f47" target="_top" xlink:title="Central dispatch routine that delegates HTTP requests to the appropriate handler.">
<polygon fill="white" stroke="#666666" points="565,-381 449,-381 449,-362 565,-362 565,-381"/>
<text text-anchor="middle" x="507" y="-369" font-family="Helvetica,sans-Serif" font-size="10.00">Dispatcher::dispatch</text>
</a>
</g>
</g>
<!-- Node1&#45;&gt;Node2 -->
<g id="edge1_Node000001_Node000002" class="edge">
<title>Node1&#45;&gt;Node2</title>
<g id="a_edge1_Node000001_Node000002"><a xlink:title=" ">
<path fill="none" stroke="#63b8ff" d="M1084.97,-302.99C1071.3,-340.53 1035.88,-422.58 976,-461.5 902.43,-509.33 868.48,-485.59 781,-492.5 713.21,-497.85 690.77,-518.65 628,-492.5 572.01,-469.17 528.74,-405.61 513.72,-381.22"/>
<polygon fill="#63b8ff" stroke="#63b8ff" points="1088.38,-303.85 1088.39,-293.26 1081.77,-301.54 1088.38,-303.85"/>
</a>
</g>
</g>
<!-- Node4 -->
<g id="Node000004" class="node">
<title>Node4</title>
<g id="a_Node000004"><a xlink:href="classWebServer.html#af39709e3744077e019aa76555f03a42e" target="_top" xlink:title="Main event loop — monitors sockets, dispatches requests, and handles responses.">
<polygon fill="white" stroke="#666666" points="199,-253 77,-253 77,-234 199,-234 199,-253"/>
<text text-anchor="middle" x="138" y="-241" font-family="Helvetica,sans-Serif" font-size="10.00">WebServer::runServer</text>
</a>
</g>
</g>
<!-- Node1&#45;&gt;Node4 -->
<g id="edge34_Node000001_Node000004" class="edge">
<title>Node1&#45;&gt;Node4</title>
<g id="a_edge34_Node000001_Node000004"><a xlink:title=" ">
<path fill="none" stroke="#63b8ff" d="M1086.53,-302.91C1074.84,-344.4 1041.53,-441.88 976,-490.5 877.18,-563.82 828.55,-549.5 705.5,-549.5 705.5,-549.5 705.5,-549.5 506,-549.5 316.44,-549.5 172.89,-305.71 144.23,-253.33"/>
<polygon fill="#63b8ff" stroke="#63b8ff" points="1089.92,-303.77 1089.15,-293.2 1083.16,-301.94 1089.92,-303.77"/>
</a>
</g>
</g>
<!-- Node6 -->
<g id="Node000006" class="node">
<title>Node6</title>
<g id="a_Node000006"><a xlink:href="classResponseBuilder.html#a998edbfd6f08dd34332ca92507db5d77" target="_top" xlink:title="Attempts to load and serve a custom error page from configuration.">
<polygon fill="white" stroke="#666666" points="972,-143.5 821,-143.5 821,-113.5 972,-113.5 972,-143.5"/>
<text text-anchor="start" x="829" y="-131.5" font-family="Helvetica,sans-Serif" font-size="10.00">ResponseBuilder::errorPage</text>
<text text-anchor="middle" x="896.5" y="-120.5" font-family="Helvetica,sans-Serif" font-size="10.00">Config</text>
</a>
</g>
</g>
<!-- Node1&#45;&gt;Node6 -->
<g id="edge5_Node000001_Node000006" class="edge">
<title>Node1&#45;&gt;Node6</title>
<g id="a_edge5_Node000001_Node000006"><a xlink:title=" ">
<path fill="none" stroke="#63b8ff" d="M1080.41,-265.5C1062.12,-237.28 1022.94,-182.75 976,-152.5 970.73,-149.1 964.95,-146.17 959,-143.63"/>
<polygon fill="#63b8ff" stroke="#63b8ff" points="1077.48,-267.41 1085.8,-273.98 1083.39,-263.66 1077.48,-267.41"/>
</a>
</g>
</g>
<!-- Node9 -->
<g id="Node000009" class="node">
<title>Node9</title>
<g id="a_Node000009"><a xlink:href="classWebServer.html#a32042bb7e426cf5c53c2c2860d622342" target="_top" xlink:title="Scans active CGI processes and terminates those exceeding timeout.">
<polygon fill="white" stroke="#666666" points="591,-177 423,-177 423,-158 591,-158 591,-177"/>
<text text-anchor="middle" x="507" y="-165" font-family="Helvetica,sans-Serif" font-size="10.00">WebServer::sweepCgiTimeouts</text>
</a>
</g>
</g>
<!-- Node1&#45;&gt;Node9 -->
<g id="edge35_Node000001_Node000009" class="edge">
<title>Node1&#45;&gt;Node9</title>
<g id="a_edge35_Node000001_Node000009"><a xlink:title=" ">
<path fill="none" stroke="#63b8ff" d="M1087.5,-263.77C1077.53,-220.4 1047.06,-117.32 976,-75.5 957.67,-64.71 635.64,-78.91 628,-81.5 580.66,-97.54 535.82,-139.04 517.13,-157.91"/>
<polygon fill="#63b8ff" stroke="#63b8ff" points="1084.11,-264.63 1089.65,-273.65 1090.95,-263.14 1084.11,-264.63"/>
</a>
</g>
</g>
<!-- Node10 -->
<g id="Node000010" class="node">
<title>Node10</title>
<g id="a_Node000010"><a xlink:href="classAutoIndexHandler.html#a19f63277112e5a0d50bb8d570527ce0a" target="_top" xlink:title="Generates and serves an HTML directory listing when autoindex is enabled.">
<polygon fill="white" stroke="#666666" points="776,-483 633,-483 633,-464 776,-464 776,-483"/>
<text text-anchor="middle" x="704.5" y="-471" font-family="Helvetica,sans-Serif" font-size="10.00">AutoIndexHandler::handle</text>
</a>
</g>
</g>
<!-- Node1&#45;&gt;Node10 -->
<g id="edge13_Node000001_Node000010" class="edge">
<title>Node1&#45;&gt;Node10</title>
<g id="a_edge13_Node000001_Node000010"><a xlink:title=" ">
<path fill="none" stroke="#63b8ff" d="M1082.2,-301.98C1065.52,-333.03 1027.41,-395.26 976,-425.5 914.95,-461.41 833.71,-471.81 776.24,-474.22"/>
<polygon fill="#63b8ff" stroke="#63b8ff" points="1085.32,-303.55 1086.85,-293.07 1079.12,-300.31 1085.32,-303.55"/>
</a>
</g>
</g>
<!-- Node11 -->
<g id="Node000011" class="node">
<title>Node11</title>
<g id="a_Node000011"><a xlink:href="classDeleteHandler.html#a8817fc78dc56285c43b1047bddf39a1f" target="_top" xlink:title="Handles HTTP DELETE requests to remove files from the server.">
<polygon fill="white" stroke="#666666" points="767.5,-446 641.5,-446 641.5,-427 767.5,-427 767.5,-446"/>
<text text-anchor="middle" x="704.5" y="-434" font-family="Helvetica,sans-Serif" font-size="10.00">DeleteHandler::handle</text>
</a>
</g>
</g>
<!-- Node1&#45;&gt;Node11 -->
<g id="edge15_Node000001_Node000011" class="edge">
<title>Node1&#45;&gt;Node11</title>
<g id="a_edge15_Node000001_Node000011"><a xlink:title=" ">
<path fill="none" stroke="#63b8ff" d="M1078.11,-301.4C1058.6,-326.05 1019.85,-369.86 976,-391.5 909.83,-424.15 824.62,-433.76 767.69,-436.26"/>
<polygon fill="#63b8ff" stroke="#63b8ff" points="1081.06,-303.31 1084.41,-293.26 1075.52,-299.03 1081.06,-303.31"/>
</a>
</g>
</g>
<!-- Node12 -->
<g id="Node000012" class="node">
<title>Node12</title>
<g id="a_Node000012"><a xlink:href="classStaticPageHandler.html#a701db169c979ef5cfebc72f6c160fb32" target="_top" xlink:title="Handles serving static files from disk.">
<polygon fill="white" stroke="#666666" points="760.5,-408.5 648.5,-408.5 648.5,-378.5 760.5,-378.5 760.5,-408.5"/>
<text text-anchor="start" x="656.5" y="-396.5" font-family="Helvetica,sans-Serif" font-size="10.00">StaticPageHandler::</text>
<text text-anchor="middle" x="704.5" y="-385.5" font-family="Helvetica,sans-Serif" font-size="10.00">handle</text>
</a>
</g>
</g>
<!-- Node1&#45;&gt;Node12 -->
<g id="edge17_Node000001_Node000012" class="edge">
<title>Node1&#45;&gt;Node12</title>
<g id="a_edge17_Node000001_Node000012"><a xlink:title=" ">
<path fill="none" stroke="#63b8ff" d="M1073.73,-299.83C1052.31,-318.45 1014.38,-348.18 976,-362.5 904.92,-389.01 816.64,-394.47 760.67,-394.85"/>
<polygon fill="#63b8ff" stroke="#63b8ff" points="1076.2,-302.31 1081.35,-293.06 1071.55,-297.08 1076.2,-302.31"/>
</a>
</g>
</g>
<!-- Node13 -->
<g id="Node000013" class="node">
<title>Node13</title>
<g id="a_Node000013"><a xlink:href="classUploadHandler.html#ae9d6fd83c1ba35b23829b8f4f619127d" target="_top" xlink:title="Entry point for handling file uploads.">
<polygon fill="white" stroke="#666666" points="768.5,-360 640.5,-360 640.5,-341 768.5,-341 768.5,-360"/>
<text text-anchor="middle" x="704.5" y="-348" font-family="Helvetica,sans-Serif" font-size="10.00">UploadHandler::handle</text>
</a>
</g>
</g>
<!-- Node1&#45;&gt;Node13 -->
<g id="edge19_Node000001_Node000013" class="edge">
<title>Node1&#45;&gt;Node13</title>
<g id="a_edge19_Node000001_Node000013"><a xlink:title=" ">
<path fill="none" stroke="#63b8ff" d="M1068.45,-298.53C1045.91,-312.32 1010.11,-331.88 976,-340.5 906.64,-358.04 824.1,-358.26 768.6,-355.55"/>
<polygon fill="#63b8ff" stroke="#63b8ff" points="1070.35,-301.47 1076.97,-293.2 1066.64,-295.54 1070.35,-301.47"/>
</a>
</g>
</g>
<!-- Node14 -->
<g id="Node000014" class="node">
<title>Node14</title>
<g id="a_Node000014"><a xlink:href="classResponseBuilder.html#a0f3257a6db27bcd3befa5005cc7cdfa0" target="_top" xlink:title="Processes CGI output and builds an HTTP response from it.">
<polygon fill="white" stroke="#666666" points="781,-120.5 628,-120.5 628,-90.5 781,-90.5 781,-120.5"/>
<text text-anchor="start" x="636" y="-108.5" font-family="Helvetica,sans-Serif" font-size="10.00">ResponseBuilder::handleCgi</text>
<text text-anchor="middle" x="704.5" y="-97.5" font-family="Helvetica,sans-Serif" font-size="10.00">Output</text>
</a>
</g>
</g>
<!-- Node1&#45;&gt;Node14 -->
<g id="edge21_Node000001_Node000014" class="edge">
<title>Node1&#45;&gt;Node14</title>
<g id="a_edge21_Node000001_Node000014"><a xlink:title=" ">
<path fill="none" stroke="#63b8ff" d="M1085.86,-264.09C1073.41,-225.34 1039.53,-139.11 976,-104.5 909.19,-68.1 818.62,-78.17 761.11,-90.47"/>
<polygon fill="#63b8ff" stroke="#63b8ff" points="1082.52,-265.16 1088.81,-273.68 1089.21,-263.1 1082.52,-265.16"/>
</a>
</g>
</g>
<!-- Node15 -->
<g id="Node000015" class="node">
<title>Node15</title>
<g id="a_Node000015"><a xlink:href="classHttpResponse.html#ab2e6cd363b5ea437643017766f882066" target="_top" xlink:title="Default constructor for HttpResponse.">
<polygon fill="white" stroke="#666666" points="976,-19 817,-19 817,0 976,0 976,-19"/>
<text text-anchor="middle" x="896.5" y="-7" font-family="Helvetica,sans-Serif" font-size="10.00">HttpResponse::HttpResponse</text>
</a>
</g>
</g>
<!-- Node1&#45;&gt;Node15 -->
<g id="edge23_Node000001_Node000015" class="edge">
<title>Node1&#45;&gt;Node15</title>
<g id="a_edge23_Node000001_Node000015"><a xlink:title=" ">
<path fill="none" stroke="#63b8ff" d="M1088.07,-263.84C1078.84,-216.86 1049.06,-97.24 976,-33.5 968.7,-27.13 959.74,-22.45 950.51,-19.01"/>
<polygon fill="#63b8ff" stroke="#63b8ff" points="1084.68,-264.72 1089.95,-273.91 1091.56,-263.44 1084.68,-264.72"/>
</a>
</g>
</g>
<!-- Node16 -->
<g id="Node000016" class="node">
<title>Node16</title>
<g id="a_Node000016"><a xlink:href="classRouter.html#a4c44c26c85603949ccaed27088e3d07c" target="_top" xlink:title="Determines if the request targets a valid CGI script.">
<polygon fill="white" stroke="#666666" points="936,-255 857,-255 857,-236 936,-236 936,-255"/>
<text text-anchor="middle" x="896.5" y="-243" font-family="Helvetica,sans-Serif" font-size="10.00">Router::isCgi</text>
</a>
</g>
</g>
<!-- Node1&#45;&gt;Node16 -->
<g id="edge24_Node000001_Node000016" class="edge">
<title>Node1&#45;&gt;Node16</title>
<g id="a_edge24_Node000001_Node000016"><a xlink:title=" ">
<path fill="none" stroke="#63b8ff" d="M1032.61,-271.97C1001.28,-265.83 963.63,-258.45 936.05,-253.05"/>
<polygon fill="#63b8ff" stroke="#63b8ff" points="1032.06,-275.42 1042.55,-273.91 1033.4,-268.55 1032.06,-275.42"/>
</a>
</g>
</g>
<!-- Node17 -->
<g id="Node000017" class="node">
<title>Node17</title>
<g id="a_Node000017"><a xlink:href="classRouter.html#aa58c0c6f2a1fc66a6e2a78adfae162e6" target="_top" xlink:title="Main entry point for determining how an HTTP request should be handled.">
<polygon fill="white" stroke="#666666" points="750,-279 659,-279 659,-260 750,-260 750,-279"/>
<text text-anchor="middle" x="704.5" y="-267" font-family="Helvetica,sans-Serif" font-size="10.00">Router::resolve</text>
</a>
</g>
</g>
<!-- Node1&#45;&gt;Node17 -->
<g id="edge33_Node000001_Node000017" class="edge">
<title>Node1&#45;&gt;Node17</title>
<g id="a_edge33_Node000001_Node000017"><a xlink:title=" ">
<path fill="none" stroke="#63b8ff" d="M1001.56,-280.24C922.65,-277.38 811.21,-273.33 750.02,-271.11"/>
<polygon fill="#63b8ff" stroke="#63b8ff" points="1001.87,-283.75 1011.99,-280.62 1002.12,-276.76 1001.87,-283.75"/>
</a>
</g>
</g>
<!-- Node18 -->
<g id="Node000018" class="node">
<title>Node18</title>
<g id="a_Node000018"><a xlink:href="classRouter.html#a9cccffeb5ef1889ffc62987c437f6c59" target="_top" xlink:title="Checks if the request triggers an HTTP redirect.">
<polygon fill="white" stroke="#666666" points="948.5,-218 844.5,-218 844.5,-199 948.5,-199 948.5,-218"/>
<text text-anchor="middle" x="896.5" y="-206" font-family="Helvetica,sans-Serif" font-size="10.00">Router::isRedirect</text>
</a>
</g>
</g>
<!-- Node1&#45;&gt;Node18 -->
<g id="edge27_Node000001_Node000018" class="edge">
<title>Node1&#45;&gt;Node18</title>
<g id="a_edge27_Node000001_Node000018"><a xlink:title=" ">
<path fill="none" stroke="#63b8ff" d="M1066.47,-269.02C1043.56,-256.28 1008.4,-238.03 976,-226.5 966.78,-223.22 956.73,-220.39 947,-218"/>
<polygon fill="#63b8ff" stroke="#63b8ff" points="1064.77,-272.08 1075.2,-273.93 1068.2,-265.98 1064.77,-272.08"/>
</a>
</g>
</g>
<!-- Node19 -->
<g id="Node000019" class="node">
<title>Node19</title>
<g id="a_Node000019"><a xlink:href="classRouter.html#a8cd6b5ac09c54dff06c42498379d96b8" target="_top" xlink:title="Checks if the resolved path corresponds to a static file.">
<polygon fill="white" stroke="#666666" points="950.5,-181 842.5,-181 842.5,-162 950.5,-162 950.5,-181"/>
<text text-anchor="middle" x="896.5" y="-169" font-family="Helvetica,sans-Serif" font-size="10.00">Router::isStaticFile</text>
</a>
</g>
</g>
<!-- Node1&#45;&gt;Node19 -->
<g id="edge29_Node000001_Node000019" class="edge">
<title>Node1&#45;&gt;Node19</title>
<g id="a_edge29_Node000001_Node000019"><a xlink:title=" ">
<path fill="none" stroke="#63b8ff" d="M1075.59,-266.42C1054.77,-245.12 1016.17,-209.12 976,-189.5 968.08,-185.63 959.31,-182.58 950.58,-180.18"/>
<polygon fill="#63b8ff" stroke="#63b8ff" points="1073.22,-269 1082.67,-273.8 1078.27,-264.16 1073.22,-269"/>
</a>
</g>
</g>
<!-- Node20 -->
<g id="Node000020" class="node">
<title>Node20</title>
<g id="a_Node000020"><a xlink:href="classRouter.html#ab76bed10e7facdd1b6e4be3f2bbbff0f" target="_top" xlink:title="Determines if the current request is a valid upload operation.">
<polygon fill="white" stroke="#666666" points="945.5,-331 847.5,-331 847.5,-312 945.5,-312 945.5,-331"/>
<text text-anchor="middle" x="896.5" y="-319" font-family="Helvetica,sans-Serif" font-size="10.00">Router::isUpload</text>
</a>
</g>
</g>
<!-- Node1&#45;&gt;Node20 -->
<g id="edge31_Node000001_Node000020" class="edge">
<title>Node1&#45;&gt;Node20</title>
<g id="a_edge31_Node000001_Node000020"><a xlink:title=" ">
<path fill="none" stroke="#63b8ff" d="M1032.56,-295.05C1004.78,-300.49 972.05,-306.9 945.77,-312.05"/>
<polygon fill="#63b8ff" stroke="#63b8ff" points="1033.4,-298.45 1042.55,-293.09 1032.06,-291.58 1033.4,-298.45"/>
</a>
</g>
</g>
<!-- Node3 -->
<g id="Node000003" class="node">
<title>Node3</title>
<g id="a_Node000003"><a xlink:href="classWebServer.html#a8cbf37c0a840305ce15e8648566c9ce4" target="_top" xlink:title="Handles incoming data from a connected client.">
<polygon fill="white" stroke="#666666" points="386,-354 235,-354 235,-335 386,-335 386,-354"/>
<text text-anchor="middle" x="310.5" y="-342" font-family="Helvetica,sans-Serif" font-size="10.00">WebServer::receiveRequest</text>
</a>
</g>
</g>
<!-- Node2&#45;&gt;Node3 -->
<g id="edge2_Node000002_Node000003" class="edge">
<title>Node2&#45;&gt;Node3</title>
<g id="a_edge2_Node000002_Node000003"><a xlink:title=" ">
<path fill="none" stroke="#63b8ff" d="M438.92,-362.19C419.96,-359.56 399.3,-356.69 380.24,-354.04"/>
<polygon fill="#63b8ff" stroke="#63b8ff" points="438.57,-365.67 448.96,-363.58 439.53,-358.74 438.57,-365.67"/>
</a>
</g>
</g>
<!-- Node3&#45;&gt;Node4 -->
<g id="edge3_Node000003_Node000004" class="edge">
<title>Node3&#45;&gt;Node4</title>
<g id="a_edge3_Node000003_Node000004"><a xlink:title=" ">
<path fill="none" stroke="#63b8ff" d="M284.68,-329.8C249.22,-308.79 185.01,-270.76 155.12,-253.05"/>
<polygon fill="#63b8ff" stroke="#63b8ff" points="283.07,-332.91 293.46,-335 286.64,-326.89 283.07,-332.91"/>
</a>
</g>
</g>
<!-- Node5 -->
<g id="Node000005" class="node">
<title>Node5</title>
<g id="a_Node000005"><a xlink:href="main_8cpp.html#a3c04138a5bfe5d72780bb7e82a18e627" target="_top" xlink:title="Entry point of the Webservinho web server.">
<polygon fill="white" stroke="#666666" points="41,-253 0,-253 0,-234 41,-234 41,-253"/>
<text text-anchor="middle" x="20.5" y="-241" font-family="Helvetica,sans-Serif" font-size="10.00">main</text>
</a>
</g>
</g>
<!-- Node4&#45;&gt;Node5 -->
<g id="edge4_Node000004_Node000005" class="edge">
<title>Node4&#45;&gt;Node5</title>
<g id="a_edge4_Node000004_Node000005"><a xlink:title=" ">
<path fill="none" stroke="#63b8ff" d="M66.66,-243.5C57.35,-243.5 48.51,-243.5 41.15,-243.5"/>
<polygon fill="#63b8ff" stroke="#63b8ff" points="66.88,-247 76.88,-243.5 66.88,-240 66.88,-247"/>
</a>
</g>
</g>
<!-- Node7 -->
<g id="Node000007" class="node">
<title>Node7</title>
<g id="a_Node000007"><a xlink:href="classResponseBuilder.html#afd79929bb501be85bdc85d86fdce93e9" target="_top" xlink:title="Assembles the complete HTTP response, including error handling.">
<polygon fill="white" stroke="#666666" points="768.5,-214 640.5,-214 640.5,-195 768.5,-195 768.5,-214"/>
<text text-anchor="middle" x="704.5" y="-202" font-family="Helvetica,sans-Serif" font-size="10.00">ResponseBuilder::build</text>
</a>
</g>
</g>
<!-- Node6&#45;&gt;Node7 -->
<g id="edge6_Node000006_Node000007" class="edge">
<title>Node6&#45;&gt;Node7</title>
<g id="a_edge6_Node000006_Node000007"><a xlink:title=" ">
<path fill="none" stroke="#63b8ff" d="M832.99,-146.74C827.55,-148.59 822.16,-150.52 817,-152.5 783.5,-165.36 745.95,-183.74 724.09,-194.85"/>
<polygon fill="#63b8ff" stroke="#63b8ff" points="834.4,-149.96 842.79,-143.5 832.2,-143.32 834.4,-149.96"/>
</a>
</g>
</g>
<!-- Node7&#45;&gt;Node2 -->
<g id="edge7_Node000007_Node000002" class="edge">
<title>Node7&#45;&gt;Node2</title>
<g id="a_edge7_Node000007_Node000002"><a xlink:title=" ">
<path fill="none" stroke="#63b8ff" d="M675.85,-219.2C661.08,-227.57 642.92,-238.72 628,-250.5 581.56,-287.17 534.44,-340.4 516.05,-361.93"/>
<polygon fill="#63b8ff" stroke="#63b8ff" points="677.95,-222.03 685,-214.12 674.55,-215.91 677.95,-222.03"/>
</a>
</g>
</g>
<!-- Node7&#45;&gt;Node4 -->
<g id="edge10_Node000007_Node000004" class="edge">
<title>Node7&#45;&gt;Node4</title>
<g id="a_edge10_Node000007_Node000004"><a xlink:title=" ">
<path fill="none" stroke="#63b8ff" d="M642.36,-215.66C626.04,-218.28 608.39,-220.8 592,-222.5 451.82,-237.02 286.2,-241.5 199.25,-242.88"/>
<polygon fill="#63b8ff" stroke="#63b8ff" points="643.02,-219.09 652.32,-214.01 641.88,-212.19 643.02,-219.09"/>
</a>
</g>
</g>
<!-- Node8 -->
<g id="Node000008" class="node">
<title>Node8</title>
<g id="a_Node000008"><a xlink:href="classWebServer.html#a7667bc8a87db8f9987a5e80da9c4cd37" target="_top" xlink:title="Reads CGI process output and assembles it into the client buffer.">
<polygon fill="white" stroke="#666666" points="592,-214 422,-214 422,-195 592,-195 592,-214"/>
<text text-anchor="middle" x="507" y="-202" font-family="Helvetica,sans-Serif" font-size="10.00">WebServer::handleCgiReadable</text>
</a>
</g>
</g>
<!-- Node7&#45;&gt;Node8 -->
<g id="edge8_Node000007_Node000008" class="edge">
<title>Node7&#45;&gt;Node8</title>
<g id="a_edge8_Node000007_Node000008"><a xlink:title=" ">
<path fill="none" stroke="#63b8ff" d="M630.02,-204.5C617.62,-204.5 604.65,-204.5 592,-204.5"/>
<polygon fill="#63b8ff" stroke="#63b8ff" points="630.3,-208 640.3,-204.5 630.3,-201 630.3,-208"/>
</a>
</g>
</g>
<!-- Node7&#45;&gt;Node9 -->
<g id="edge11_Node000007_Node000009" class="edge">
<title>Node7&#45;&gt;Node9</title>
<g id="a_edge11_Node000007_Node000009"><a xlink:title=" ">
<path fill="none" stroke="#63b8ff" d="M643.01,-193.05C615.91,-187.92 584.32,-181.94 558.51,-177.06"/>
<polygon fill="#63b8ff" stroke="#63b8ff" points="642.68,-196.55 653.15,-194.97 643.98,-189.67 642.68,-196.55"/>
</a>
</g>
</g>
<!-- Node8&#45;&gt;Node4 -->
<g id="edge9_Node000008_Node000004" class="edge">
<title>Node8&#45;&gt;Node4</title>
<g id="a_edge9_Node000008_Node000004"><a xlink:title=" ">
<path fill="none" stroke="#63b8ff" d="M411.71,-211.97C359.55,-216.41 293.61,-222.53 235,-229.5 223.38,-230.88 210.99,-232.55 199.11,-234.24"/>
<polygon fill="#63b8ff" stroke="#63b8ff" points="412.28,-215.43 421.95,-211.1 411.69,-208.46 412.28,-215.43"/>
</a>
</g>
</g>
<!-- Node9&#45;&gt;Node4 -->
<g id="edge12_Node000009_Node000004" class="edge">
<title>Node9&#45;&gt;Node4</title>
<g id="a_edge12_Node000009_Node000004"><a xlink:title=" ">
<path fill="none" stroke="#63b8ff" d="M416.1,-178.4C362.99,-185.76 294.68,-196.81 235,-211.5 210.44,-217.55 183.13,-226.92 163.94,-233.96"/>
<polygon fill="#63b8ff" stroke="#63b8ff" points="416.73,-181.85 426.17,-177.03 415.79,-174.91 416.73,-181.85"/>
</a>
</g>
</g>
<!-- Node10&#45;&gt;Node2 -->
<g id="edge14_Node000010_Node000002" class="edge">
<title>Node10&#45;&gt;Node2</title>
<g id="a_edge14_Node000010_Node000002"><a xlink:title=" ">
<path fill="none" stroke="#63b8ff" d="M641.95,-460.9C637.15,-459.3 632.45,-457.5 628,-455.5 583.7,-435.59 538.7,-398.63 518.71,-381.15"/>
<polygon fill="#63b8ff" stroke="#63b8ff" points="641.28,-464.36 651.87,-463.94 643.33,-457.67 641.28,-464.36"/>
</a>
</g>
</g>
<!-- Node11&#45;&gt;Node2 -->
<g id="edge16_Node000011_Node000002" class="edge">
<title>Node11&#45;&gt;Node2</title>
<g id="a_edge16_Node000011_Node000002"><a xlink:title=" ">
<path fill="none" stroke="#63b8ff" d="M651.98,-424.41C643.91,-422.27 635.7,-419.93 628,-417.5 593.54,-406.6 554.64,-391.08 530.72,-381.14"/>
<polygon fill="#63b8ff" stroke="#63b8ff" points="651.15,-427.81 661.71,-426.93 652.91,-421.04 651.15,-427.81"/>
</a>
</g>
</g>
<!-- Node12&#45;&gt;Node2 -->
<g id="edge18_Node000012_Node000002" class="edge">
<title>Node12&#45;&gt;Node2</title>
<g id="a_edge18_Node000012_Node000002"><a xlink:title=" ">
<path fill="none" stroke="#63b8ff" d="M638.31,-386.16C614.63,-383.5 588.07,-380.51 565.14,-377.93"/>
<polygon fill="#63b8ff" stroke="#63b8ff" points="637.93,-389.64 648.26,-387.28 638.72,-382.69 637.93,-389.64"/>
</a>
</g>
</g>
<!-- Node13&#45;&gt;Node2 -->
<g id="edge20_Node000013_Node000002" class="edge">
<title>Node13&#45;&gt;Node2</title>
<g id="a_edge20_Node000013_Node000002"><a xlink:title=" ">
<path fill="none" stroke="#63b8ff" d="M630.2,-358.37C608.65,-360.69 585.41,-363.18 565.04,-365.37"/>
<polygon fill="#63b8ff" stroke="#63b8ff" points="630.73,-361.84 640.3,-357.29 629.98,-354.88 630.73,-361.84"/>
</a>
</g>
</g>
<!-- Node14&#45;&gt;Node8 -->
<g id="edge22_Node000014_Node000008" class="edge">
<title>Node14&#45;&gt;Node8</title>
<g id="a_edge22_Node000014_Node000008"><a xlink:title=" ">
<path fill="none" stroke="#63b8ff" d="M679.44,-127.16C657.98,-145.36 624.95,-170.69 592,-185.5 583.41,-189.36 573.96,-192.47 564.59,-194.97"/>
<polygon fill="#63b8ff" stroke="#63b8ff" points="681.79,-129.76 687.08,-120.58 677.22,-124.46 681.79,-129.76"/>
</a>
</g>
</g>
<!-- Node16&#45;&gt;Node17 -->
<g id="edge25_Node000016_Node000017" class="edge">
<title>Node16&#45;&gt;Node17</title>
<g id="a_edge25_Node000016_Node000017"><a xlink:title=" ">
<path fill="none" stroke="#63b8ff" d="M846.42,-251.7C816.64,-255.46 778.93,-260.22 750.02,-263.88"/>
<polygon fill="#63b8ff" stroke="#63b8ff" points="847.11,-255.14 856.59,-250.41 846.23,-248.2 847.11,-255.14"/>
</a>
</g>
</g>
<!-- Node17&#45;&gt;Node2 -->
<g id="edge26_Node000017_Node000002" class="edge">
<title>Node17&#45;&gt;Node2</title>
<g id="a_edge26_Node000017_Node000002"><a xlink:title=" ">
<path fill="none" stroke="#63b8ff" d="M676.08,-283.81C635.63,-304.91 561.05,-343.82 526.49,-361.86"/>
<polygon fill="#63b8ff" stroke="#63b8ff" points="677.86,-286.82 685.11,-279.1 674.62,-280.62 677.86,-286.82"/>
</a>
</g>
</g>
<!-- Node18&#45;&gt;Node17 -->
<g id="edge28_Node000018_Node000017" class="edge">
<title>Node18&#45;&gt;Node17</title>
<g id="a_edge28_Node000018_Node000017"><a xlink:title=" ">
<path fill="none" stroke="#63b8ff" d="M838.75,-220.5C831.39,-222.35 823.99,-224.36 817,-226.5 785.26,-236.21 749.64,-250.58 727.39,-259.99"/>
<polygon fill="#63b8ff" stroke="#63b8ff" points="839.83,-223.84 848.72,-218.07 838.18,-217.04 839.83,-223.84"/>
</a>
</g>
</g>
<!-- Node19&#45;&gt;Node17 -->
<g id="edge30_Node000019_Node000017" class="edge">
<title>Node19&#45;&gt;Node17</title>
<g id="a_edge30_Node000019_Node000017"><a xlink:title=" ">
<path fill="none" stroke="#63b8ff" d="M832.47,-182.85C827.11,-184.74 821.87,-186.94 817,-189.5 797.78,-199.59 798.29,-209.38 781,-222.5 762.06,-236.88 738.59,-250.97 722.89,-259.91"/>
<polygon fill="#63b8ff" stroke="#63b8ff" points="833.73,-186.13 842.22,-179.78 831.63,-179.45 833.73,-186.13"/>
</a>
</g>
</g>
<!-- Node20&#45;&gt;Node17 -->
<g id="edge32_Node000020_Node000017" class="edge">
<title>Node20&#45;&gt;Node17</title>
<g id="a_edge32_Node000020_Node000017"><a xlink:title=" ">
<path fill="none" stroke="#63b8ff" d="M850.6,-309.21C816.92,-299.99 771.45,-287.55 740.45,-279.07"/>
<polygon fill="#63b8ff" stroke="#63b8ff" points="850.08,-312.7 860.65,-311.96 851.93,-305.95 850.08,-312.7"/>
</a>
</g>
</g>
</g>
</svg>
