<?xml version="1.0" encoding="UTF-8" standalone="no"?>
<!DOCTYPE svg PUBLIC "-//W3C//DTD SVG 1.1//EN"
 "http://www.w3.org/Graphics/SVG/1.1/DTD/svg11.dtd">
<!-- Generated by graphviz version 2.43.0 (0)
 -->
<!-- Title: AutoIndexHandler::getTemplatePath Pages: 1 -->
<svg width="488pt" height="64pt"
 viewBox="0.00 0.00 488.00 64.00" xmlns="http://www.w3.org/2000/svg" xmlns:xlink="http://www.w3.org/1999/xlink">
<g id="graph0" class="graph" transform="scale(1 1) rotate(0) translate(4 60)">
<title>AutoIndexHandler::getTemplatePath</title>
<!-- Node1 -->
<g id="Node000001" class="node">
<title>Node1</title>
<g id="a_Node000001"><a xlink:title="Resolves the template path dynamically based on the executable&#39;s location.">
<polygon fill="#999999" stroke="#666666" points="192,-37 0,-37 0,-18 192,-18 192,-37"/>
<text text-anchor="middle" x="96" y="-25" font-family="Helvetica,sans-Serif" font-size="10.00">AutoIndexHandler::getTemplatePath</text>
</a>
</g>
</g>
<!-- Node2 -->
<g id="Node000002" class="node">
<title>Node2</title>
<g id="a_Node000002"><a xlink:href="classLogger.html#a4aa4d7c3b98f6e12e7ea8253da5ea0cd" target="_top" xlink:title="Returns the singleton instance of the Logger.">
<polygon fill="white" stroke="#666666" points="325,-56 228,-56 228,-37 325,-37 325,-56"/>
<text text-anchor="middle" x="276.5" y="-44" font-family="Helvetica,sans-Serif" font-size="10.00">Logger::instance</text>
</a>
</g>
</g>
<!-- Node1&#45;&gt;Node2 -->
<g id="edge1_Node000001_Node000002" class="edge">
<title>Node1&#45;&gt;Node2</title>
<g id="a_edge1_Node000001_Node000002"><a xlink:title=" ">
<path fill="none" stroke="#63b8ff" d="M186.51,-37.03C197.1,-38.15 207.68,-39.28 217.66,-40.34"/>
<polygon fill="#63b8ff" stroke="#63b8ff" points="217.51,-43.85 227.82,-41.43 218.25,-36.89 217.51,-43.85"/>
</a>
</g>
</g>
<!-- Node3 -->
<g id="Node000003" class="node">
<title>Node3</title>
<g id="a_Node000003"><a xlink:href="classLogger.html#a3d3f0801eeaf39b33a906ea8569c19b2" target="_top" xlink:title="Writes a log entry with timestamp, level, and message.">
<polygon fill="white" stroke="#666666" points="312,-19 241,-19 241,0 312,0 312,-19"/>
<text text-anchor="middle" x="276.5" y="-7" font-family="Helvetica,sans-Serif" font-size="10.00">Logger::log</text>
</a>
</g>
</g>
<!-- Node1&#45;&gt;Node3 -->
<g id="edge2_Node000001_Node000003" class="edge">
<title>Node1&#45;&gt;Node3</title>
<g id="a_edge2_Node000001_Node000003"><a xlink:title=" ">
<path fill="none" stroke="#63b8ff" d="M191.22,-18C204.96,-16.61 218.54,-15.24 230.66,-14.02"/>
<polygon fill="#63b8ff" stroke="#63b8ff" points="231.3,-17.47 240.9,-12.99 230.6,-10.51 231.3,-17.47"/>
</a>
</g>
</g>
<!-- Node4 -->
<g id="Node000004" class="node">
<title>Node4</title>
<g id="a_Node000004"><a xlink:href="classLogger.html#a19f9ef22095a67c9fe420c9d6e761fc2" target="_top" xlink:title="Converts a LogLevel enum value to its string label.">
<polygon fill="white" stroke="#666666" points="480,-19 361,-19 361,0 480,0 480,-19"/>
<text text-anchor="middle" x="420.5" y="-7" font-family="Helvetica,sans-Serif" font-size="10.00">Logger::levelToString</text>
</a>
</g>
</g>
<!-- Node3&#45;&gt;Node4 -->
<g id="edge3_Node000003_Node000004" class="edge">
<title>Node3&#45;&gt;Node4</title>
<g id="a_edge3_Node000003_Node000004"><a xlink:title=" ">
<path fill="none" stroke="#63b8ff" d="M312.24,-9.5C323.88,-9.5 337.31,-9.5 350.63,-9.5"/>
<polygon fill="#63b8ff" stroke="#63b8ff" points="350.77,-13 360.77,-9.5 350.77,-6 350.77,-13"/>
</a>
</g>
</g>
</g>
</svg>
