<?xml version="1.0" encoding="UTF-8" standalone="no"?>
<!DOCTYPE svg PUBLIC "-//W3C//DTD SVG 1.1//EN"
 "http://www.w3.org/Graphics/SVG/1.1/DTD/svg11.dtd">
<!-- Generated by graphviz version 2.43.0 (0)
 -->
<!-- Title: HttpResponse::getStatusCode Pages: 1 -->
<svg width="1170pt" height="164pt"
 viewBox="0.00 0.00 1170.00 164.20" xmlns="http://www.w3.org/2000/svg" xmlns:xlink="http://www.w3.org/1999/xlink">
<g id="graph0" class="graph" transform="scale(1 1) rotate(0) translate(4 160.2)">
<title>HttpResponse::getStatusCode</title>
<!-- Node1 -->
<g id="Node000001" class="node">
<title>Node1</title>
<g id="a_Node000001"><a xlink:title="Returns the current HTTP status code.">
<polygon fill="#999999" stroke="#666666" points="1162,-112.79 1000,-112.79 1000,-93.79 1162,-93.79 1162,-112.79"/>
<text text-anchor="middle" x="1081" y="-100.79" font-family="Helvetica,sans-Serif" font-size="10.00">HttpResponse::getStatusCode</text>
</a>
</g>
</g>
<!-- Node2 -->
<g id="Node000002" class="node">
<title>Node2</title>
<g id="a_Node000002"><a xlink:href="classResponseBuilder.html#afd79929bb501be85bdc85d86fdce93e9" target="_top" xlink:title="Assembles the complete HTTP response, including error handling.">
<polygon fill="white" stroke="#666666" points="766.5,-136.79 638.5,-136.79 638.5,-117.79 766.5,-117.79 766.5,-136.79"/>
<text text-anchor="middle" x="702.5" y="-124.79" font-family="Helvetica,sans-Serif" font-size="10.00">ResponseBuilder::build</text>
</a>
</g>
</g>
<!-- Node1&#45;&gt;Node2 -->
<g id="edge1_Node000001_Node000002" class="edge">
<title>Node1&#45;&gt;Node2</title>
<g id="a_edge1_Node000001_Node000002"><a xlink:title=" ">
<path fill="none" stroke="#63b8ff" d="M1053.05,-117.36C1030.09,-128.52 995.84,-143.21 964,-149.29 885.76,-164.24 792.37,-148.35 741.37,-136.88"/>
<polygon fill="#63b8ff" stroke="#63b8ff" points="1054.77,-120.42 1062.16,-112.84 1051.65,-114.15 1054.77,-120.42"/>
</a>
</g>
</g>
<!-- Node9 -->
<g id="Node000009" class="node">
<title>Node9</title>
<g id="a_Node000009"><a xlink:href="classRouter.html#a6a677663d297f4d367cb1e503a1bf1b3" target="_top" xlink:title="Checks if the response already contains an error status.">
<polygon fill="white" stroke="#666666" points="957,-52.79 820,-52.79 820,-33.79 957,-33.79 957,-52.79"/>
<text text-anchor="middle" x="888.5" y="-40.79" font-family="Helvetica,sans-Serif" font-size="10.00">Router::checkErrorStatus</text>
</a>
</g>
</g>
<!-- Node1&#45;&gt;Node9 -->
<g id="edge11_Node000001_Node000009" class="edge">
<title>Node1&#45;&gt;Node9</title>
<g id="a_edge11_Node000001_Node000009"><a xlink:title=" ">
<path fill="none" stroke="#63b8ff" d="M1040.16,-90.74C1004.32,-79.45 952.44,-63.11 919.86,-52.85"/>
<polygon fill="#63b8ff" stroke="#63b8ff" points="1039.23,-94.12 1049.81,-93.78 1041.33,-87.44 1039.23,-94.12"/>
</a>
</g>
</g>
<!-- Node11 -->
<g id="Node000011" class="node">
<title>Node11</title>
<g id="a_Node000011"><a xlink:href="classResponseBuilder.html#a998edbfd6f08dd34332ca92507db5d77" target="_top" xlink:title="Attempts to load and serve a custom error page from configuration.">
<polygon fill="white" stroke="#666666" points="964,-140.29 813,-140.29 813,-110.29 964,-110.29 964,-140.29"/>
<text text-anchor="start" x="821" y="-128.29" font-family="Helvetica,sans-Serif" font-size="10.00">ResponseBuilder::errorPage</text>
<text text-anchor="middle" x="888.5" y="-117.29" font-family="Helvetica,sans-Serif" font-size="10.00">Config</text>
</a>
</g>
</g>
<!-- Node1&#45;&gt;Node11 -->
<g id="edge14_Node000001_Node000011" class="edge">
<title>Node1&#45;&gt;Node11</title>
<g id="a_edge14_Node000001_Node000011"><a xlink:title=" ">
<path fill="none" stroke="#63b8ff" d="M989.75,-113.71C981.19,-114.7 972.57,-115.69 964.18,-116.66"/>
<polygon fill="#63b8ff" stroke="#63b8ff" points="990.23,-117.18 999.76,-112.55 989.43,-110.23 990.23,-117.18"/>
</a>
</g>
</g>
<!-- Node12 -->
<g id="Node000012" class="node">
<title>Node12</title>
<g id="a_Node000012"><a xlink:href="classResponseBuilder.html#ab1eeac4dc441885dfd3330fe69bc1b58" target="_top" xlink:title="Constructs the complete HTTP response string.">
<polygon fill="white" stroke="#666666" points="777,-99.29 628,-99.29 628,-69.29 777,-69.29 777,-99.29"/>
<text text-anchor="start" x="636" y="-87.29" font-family="Helvetica,sans-Serif" font-size="10.00">ResponseBuilder::response</text>
<text text-anchor="middle" x="702.5" y="-76.29" font-family="Helvetica,sans-Serif" font-size="10.00">Writer</text>
</a>
</g>
</g>
<!-- Node1&#45;&gt;Node12 -->
<g id="edge16_Node000001_Node000012" class="edge">
<title>Node1&#45;&gt;Node12</title>
<g id="a_edge16_Node000001_Node000012"><a xlink:title=" ">
<path fill="none" stroke="#63b8ff" d="M989.46,-98.72C924.5,-95.44 838.07,-91.08 777.3,-88.01"/>
<polygon fill="#63b8ff" stroke="#63b8ff" points="989.53,-102.23 999.69,-99.24 989.88,-95.24 989.53,-102.23"/>
</a>
</g>
</g>
<!-- Node3 -->
<g id="Node000003" class="node">
<title>Node3</title>
<g id="a_Node000003"><a xlink:href="classDispatcher.html#a13c8a2fd90033adf9788c8774c3f0f47" target="_top" xlink:title="Central dispatch routine that delegates HTTP requests to the appropriate handler.">
<polygon fill="white" stroke="#666666" points="565,-62.79 449,-62.79 449,-43.79 565,-43.79 565,-62.79"/>
<text text-anchor="middle" x="507" y="-50.79" font-family="Helvetica,sans-Serif" font-size="10.00">Dispatcher::dispatch</text>
</a>
</g>
</g>
<!-- Node2&#45;&gt;Node3 -->
<g id="edge2_Node000002_Node000003" class="edge">
<title>Node2&#45;&gt;Node3</title>
<g id="a_edge2_Node000002_Node000003"><a xlink:title=" ">
<path fill="none" stroke="#63b8ff" d="M640.33,-114.3C636.04,-112.54 631.89,-110.55 628,-108.29 608.16,-96.77 612.08,-82.39 592,-71.29 583.78,-66.74 574.51,-63.34 565.22,-60.8"/>
<polygon fill="#63b8ff" stroke="#63b8ff" points="639.27,-117.64 649.86,-117.79 641.67,-111.06 639.27,-117.64"/>
</a>
</g>
</g>
<!-- Node5 -->
<g id="Node000005" class="node">
<title>Node5</title>
<g id="a_Node000005"><a xlink:href="classWebServer.html#af39709e3744077e019aa76555f03a42e" target="_top" xlink:title="Main event loop — monitors sockets, dispatches requests, and handles responses.">
<polygon fill="white" stroke="#666666" points="199,-99.79 77,-99.79 77,-80.79 199,-80.79 199,-99.79"/>
<text text-anchor="middle" x="138" y="-87.79" font-family="Helvetica,sans-Serif" font-size="10.00">WebServer::runServer</text>
</a>
</g>
</g>
<!-- Node2&#45;&gt;Node5 -->
<g id="edge8_Node000002_Node000005" class="edge">
<title>Node2&#45;&gt;Node5</title>
<g id="a_edge8_Node000002_Node000005"><a xlink:title=" ">
<path fill="none" stroke="#63b8ff" d="M646.95,-138.65C629.48,-141.78 610,-144.74 592,-146.29 433.67,-159.92 389.63,-162.93 235,-126.29 208.33,-119.97 179,-108.22 159.87,-99.87"/>
<polygon fill="#63b8ff" stroke="#63b8ff" points="647.78,-142.06 656.97,-136.8 646.51,-135.18 647.78,-142.06"/>
</a>
</g>
</g>
<!-- Node7 -->
<g id="Node000007" class="node">
<title>Node7</title>
<g id="a_Node000007"><a xlink:href="classWebServer.html#a7667bc8a87db8f9987a5e80da9c4cd37" target="_top" xlink:title="Reads CGI process output and assembles it into the client buffer.">
<polygon fill="white" stroke="#666666" points="592,-136.79 422,-136.79 422,-117.79 592,-117.79 592,-136.79"/>
<text text-anchor="middle" x="507" y="-124.79" font-family="Helvetica,sans-Serif" font-size="10.00">WebServer::handleCgiReadable</text>
</a>
</g>
</g>
<!-- Node2&#45;&gt;Node7 -->
<g id="edge6_Node000002_Node000007" class="edge">
<title>Node2&#45;&gt;Node7</title>
<g id="a_edge6_Node000002_Node000007"><a xlink:title=" ">
<path fill="none" stroke="#63b8ff" d="M628.2,-127.29C616.41,-127.29 604.14,-127.29 592.12,-127.29"/>
<polygon fill="#63b8ff" stroke="#63b8ff" points="628.41,-130.79 638.41,-127.29 628.41,-123.79 628.41,-130.79"/>
</a>
</g>
</g>
<!-- Node8 -->
<g id="Node000008" class="node">
<title>Node8</title>
<g id="a_Node000008"><a xlink:href="classWebServer.html#a32042bb7e426cf5c53c2c2860d622342" target="_top" xlink:title="Scans active CGI processes and terminates those exceeding timeout.">
<polygon fill="white" stroke="#666666" points="591,-99.79 423,-99.79 423,-80.79 591,-80.79 591,-99.79"/>
<text text-anchor="middle" x="507" y="-87.79" font-family="Helvetica,sans-Serif" font-size="10.00">WebServer::sweepCgiTimeouts</text>
</a>
</g>
</g>
<!-- Node2&#45;&gt;Node8 -->
<g id="edge9_Node000002_Node000008" class="edge">
<title>Node2&#45;&gt;Node8</title>
<g id="a_edge9_Node000002_Node000008"><a xlink:title=" ">
<path fill="none" stroke="#63b8ff" d="M641.63,-115.84C614.81,-110.71 583.54,-104.73 558,-99.85"/>
<polygon fill="#63b8ff" stroke="#63b8ff" points="641.19,-119.32 651.67,-117.76 642.5,-112.44 641.19,-119.32"/>
</a>
</g>
</g>
<!-- Node4 -->
<g id="Node000004" class="node">
<title>Node4</title>
<g id="a_Node000004"><a xlink:href="classWebServer.html#a8cbf37c0a840305ce15e8648566c9ce4" target="_top" xlink:title="Handles incoming data from a connected client.">
<polygon fill="white" stroke="#666666" points="386,-61.79 235,-61.79 235,-42.79 386,-42.79 386,-61.79"/>
<text text-anchor="middle" x="310.5" y="-49.79" font-family="Helvetica,sans-Serif" font-size="10.00">WebServer::receiveRequest</text>
</a>
</g>
</g>
<!-- Node3&#45;&gt;Node4 -->
<g id="edge3_Node000003_Node000004" class="edge">
<title>Node3&#45;&gt;Node4</title>
<g id="a_edge3_Node000003_Node000004"><a xlink:title=" ">
<path fill="none" stroke="#63b8ff" d="M438.63,-52.94C421.73,-52.86 403.5,-52.76 386.26,-52.67"/>
<polygon fill="#63b8ff" stroke="#63b8ff" points="438.94,-56.44 448.96,-53 438.98,-49.44 438.94,-56.44"/>
</a>
</g>
</g>
<!-- Node4&#45;&gt;Node5 -->
<g id="edge4_Node000004_Node000005" class="edge">
<title>Node4&#45;&gt;Node5</title>
<g id="a_edge4_Node000004_Node000005"><a xlink:title=" ">
<path fill="none" stroke="#63b8ff" d="M256.45,-64.11C232.41,-69.47 204.37,-75.72 181.71,-80.77"/>
<polygon fill="#63b8ff" stroke="#63b8ff" points="257.48,-67.47 266.48,-61.88 255.95,-60.64 257.48,-67.47"/>
</a>
</g>
</g>
<!-- Node6 -->
<g id="Node000006" class="node">
<title>Node6</title>
<g id="a_Node000006"><a xlink:href="main_8cpp.html#a3c04138a5bfe5d72780bb7e82a18e627" target="_top" xlink:title="Entry point of the Webservinho web server.">
<polygon fill="white" stroke="#666666" points="41,-99.79 0,-99.79 0,-80.79 41,-80.79 41,-99.79"/>
<text text-anchor="middle" x="20.5" y="-87.79" font-family="Helvetica,sans-Serif" font-size="10.00">main</text>
</a>
</g>
</g>
<!-- Node5&#45;&gt;Node6 -->
<g id="edge5_Node000005_Node000006" class="edge">
<title>Node5&#45;&gt;Node6</title>
<g id="a_edge5_Node000005_Node000006"><a xlink:title=" ">
<path fill="none" stroke="#63b8ff" d="M66.66,-90.29C57.35,-90.29 48.51,-90.29 41.15,-90.29"/>
<polygon fill="#63b8ff" stroke="#63b8ff" points="66.88,-93.79 76.88,-90.29 66.88,-86.79 66.88,-93.79"/>
</a>
</g>
</g>
<!-- Node7&#45;&gt;Node5 -->
<g id="edge7_Node000007_Node000005" class="edge">
<title>Node7&#45;&gt;Node5</title>
<g id="a_edge7_Node000007_Node000005"><a xlink:title=" ">
<path fill="none" stroke="#63b8ff" d="M411.7,-120.69C359.54,-116.68 293.6,-111.04 235,-104.29 223.37,-102.95 210.98,-101.3 199.1,-99.62"/>
<polygon fill="#63b8ff" stroke="#63b8ff" points="411.71,-124.2 421.94,-121.46 412.24,-117.22 411.71,-124.2"/>
</a>
</g>
</g>
<!-- Node8&#45;&gt;Node5 -->
<g id="edge10_Node000008_Node000005" class="edge">
<title>Node8&#45;&gt;Node5</title>
<g id="a_edge10_Node000008_Node000005"><a xlink:title=" ">
<path fill="none" stroke="#63b8ff" d="M412.56,-90.29C345.46,-90.29 256.99,-90.29 199.08,-90.29"/>
<polygon fill="#63b8ff" stroke="#63b8ff" points="412.72,-93.79 422.72,-90.29 412.72,-86.79 412.72,-93.79"/>
</a>
</g>
</g>
<!-- Node10 -->
<g id="Node000010" class="node">
<title>Node10</title>
<g id="a_Node000010"><a xlink:href="classRouter.html#aa58c0c6f2a1fc66a6e2a78adfae162e6" target="_top" xlink:title="Main entry point for determining how an HTTP request should be handled.">
<polygon fill="white" stroke="#666666" points="748,-50.79 657,-50.79 657,-31.79 748,-31.79 748,-50.79"/>
<text text-anchor="middle" x="702.5" y="-38.79" font-family="Helvetica,sans-Serif" font-size="10.00">Router::resolve</text>
</a>
</g>
</g>
<!-- Node9&#45;&gt;Node10 -->
<g id="edge12_Node000009_Node000010" class="edge">
<title>Node9&#45;&gt;Node10</title>
<g id="a_edge12_Node000009_Node000010"><a xlink:title=" ">
<path fill="none" stroke="#63b8ff" d="M809.58,-42.44C788.61,-42.21 766.65,-41.97 748.18,-41.77"/>
<polygon fill="#63b8ff" stroke="#63b8ff" points="809.73,-45.94 819.77,-42.55 809.81,-38.94 809.73,-45.94"/>
</a>
</g>
</g>
<!-- Node10&#45;&gt;Node3 -->
<g id="edge13_Node000010_Node000003" class="edge">
<title>Node10&#45;&gt;Node3</title>
<g id="a_edge13_Node000010_Node000003"><a xlink:title=" ">
<path fill="none" stroke="#63b8ff" d="M646.41,-44.71C620.98,-46.28 590.81,-48.15 565.14,-49.74"/>
<polygon fill="#63b8ff" stroke="#63b8ff" points="646.86,-48.18 656.62,-44.07 646.42,-41.2 646.86,-48.18"/>
</a>
</g>
</g>
<!-- Node11&#45;&gt;Node2 -->
<g id="edge15_Node000011_Node000002" class="edge">
<title>Node11&#45;&gt;Node2</title>
<g id="a_edge15_Node000011_Node000002"><a xlink:title=" ">
<path fill="none" stroke="#63b8ff" d="M802.78,-126.21C790.63,-126.34 778.31,-126.48 766.68,-126.6"/>
<polygon fill="#63b8ff" stroke="#63b8ff" points="802.96,-129.71 812.93,-126.1 802.89,-122.71 802.96,-129.71"/>
</a>
</g>
</g>
<!-- Node12&#45;&gt;Node3 -->
<g id="edge17_Node000012_Node000003" class="edge">
<title>Node12&#45;&gt;Node3</title>
<g id="a_edge17_Node000012_Node000003"><a xlink:title=" ">
<path fill="none" stroke="#63b8ff" d="M617.49,-70.83C599.85,-68 581.64,-65.09 565.25,-62.46"/>
<polygon fill="#63b8ff" stroke="#63b8ff" points="617.37,-74.35 627.79,-72.48 618.47,-67.44 617.37,-74.35"/>
</a>
</g>
</g>
<!-- Node12&#45;&gt;Node5 -->
<g id="edge19_Node000012_Node000005" class="edge">
<title>Node12&#45;&gt;Node5</title>
<g id="a_edge19_Node000012_Node000005"><a xlink:title=" ">
<path fill="none" stroke="#63b8ff" d="M641.4,-65.42C636.8,-63.5 632.29,-61.45 628,-59.29 610.61,-50.51 610.58,-40.16 592,-34.29 440.7,13.5 388.01,8.71 235,-33.29 201.35,-42.52 167.56,-66.95 150.46,-80.64"/>
<polygon fill="#63b8ff" stroke="#63b8ff" points="640.33,-68.75 650.92,-69.17 642.9,-62.24 640.33,-68.75"/>
</a>
</g>
</g>
<!-- Node12&#45;&gt;Node7 -->
<g id="edge18_Node000012_Node000007" class="edge">
<title>Node12&#45;&gt;Node7</title>
<g id="a_edge18_Node000012_Node000007"><a xlink:title=" ">
<path fill="none" stroke="#63b8ff" d="M624,-101.51C599.07,-107.05 572.35,-112.99 550.85,-117.77"/>
<polygon fill="#63b8ff" stroke="#63b8ff" points="624.82,-104.91 633.82,-99.33 623.3,-98.08 624.82,-104.91"/>
</a>
</g>
</g>
<!-- Node12&#45;&gt;Node8 -->
<g id="edge20_Node000012_Node000008" class="edge">
<title>Node12&#45;&gt;Node8</title>
<g id="a_edge20_Node000012_Node000008"><a xlink:title=" ">
<path fill="none" stroke="#63b8ff" d="M617.6,-86.89C608.85,-87.16 599.95,-87.44 591.2,-87.71"/>
<polygon fill="#63b8ff" stroke="#63b8ff" points="617.91,-90.38 627.79,-86.57 617.69,-83.39 617.91,-90.38"/>
</a>
</g>
</g>
</g>
</svg>
