<?xml version="1.0" encoding="UTF-8" standalone="no"?>
<!DOCTYPE svg PUBLIC "-//W3C//DTD SVG 1.1//EN"
 "http://www.w3.org/Graphics/SVG/1.1/DTD/svg11.dtd">
<!-- Generated by graphviz version 2.43.0 (0)
 -->
<!-- Title: ConfigParser::parseListenInterface Pages: 1 -->
<svg width="512pt" height="101pt"
 viewBox="0.00 0.00 512.00 101.00" xmlns="http://www.w3.org/2000/svg" xmlns:xlink="http://www.w3.org/1999/xlink">
<g id="graph0" class="graph" transform="scale(1 1) rotate(0) translate(4 97)">
<title>ConfigParser::parseListenInterface</title>
<!-- Node1 -->
<g id="Node000001" class="node">
<title>Node1</title>
<g id="a_Node000001"><a xlink:title="Parses a &quot;listen&quot; directive into IP:port pair.">
<polygon fill="#999999" stroke="#666666" points="140,-61.5 0,-61.5 0,-31.5 140,-31.5 140,-61.5"/>
<text text-anchor="start" x="8" y="-49.5" font-family="Helvetica,sans-Serif" font-size="10.00">ConfigParser::parseListen</text>
<text text-anchor="middle" x="70" y="-38.5" font-family="Helvetica,sans-Serif" font-size="10.00">Interface</text>
</a>
</g>
</g>
<!-- Node2 -->
<g id="Node000002" class="node">
<title>Node2</title>
<g id="a_Node000002"><a xlink:href="classLogger.html#a4aa4d7c3b98f6e12e7ea8253da5ea0cd" target="_top" xlink:title="Returns the singleton instance of the Logger.">
<polygon fill="white" stroke="#666666" points="311,-93 214,-93 214,-74 311,-74 311,-93"/>
<text text-anchor="middle" x="262.5" y="-81" font-family="Helvetica,sans-Serif" font-size="10.00">Logger::instance</text>
</a>
</g>
</g>
<!-- Node1&#45;&gt;Node2 -->
<g id="edge1_Node000001_Node000002" class="edge">
<title>Node1&#45;&gt;Node2</title>
<g id="a_edge1_Node000001_Node000002"><a xlink:title=" ">
<path fill="none" stroke="#63b8ff" d="M140.04,-59.91C161,-63.98 183.78,-68.4 203.9,-72.31"/>
<polygon fill="#63b8ff" stroke="#63b8ff" points="203.36,-75.77 213.84,-74.24 204.69,-68.9 203.36,-75.77"/>
</a>
</g>
</g>
<!-- Node3 -->
<g id="Node000003" class="node">
<title>Node3</title>
<g id="a_Node000003"><a xlink:href="classLogger.html#a3d3f0801eeaf39b33a906ea8569c19b2" target="_top" xlink:title="Writes a log entry with timestamp, level, and message.">
<polygon fill="white" stroke="#666666" points="298,-56 227,-56 227,-37 298,-37 298,-56"/>
<text text-anchor="middle" x="262.5" y="-44" font-family="Helvetica,sans-Serif" font-size="10.00">Logger::log</text>
</a>
</g>
</g>
<!-- Node1&#45;&gt;Node3 -->
<g id="edge2_Node000001_Node000003" class="edge">
<title>Node1&#45;&gt;Node3</title>
<g id="a_edge2_Node000001_Node000003"><a xlink:title=" ">
<path fill="none" stroke="#63b8ff" d="M140.04,-46.5C165.62,-46.5 193.93,-46.5 216.78,-46.5"/>
<polygon fill="#63b8ff" stroke="#63b8ff" points="216.87,-50 226.87,-46.5 216.87,-43 216.87,-50"/>
</a>
</g>
</g>
<!-- Node5 -->
<g id="Node000005" class="node">
<title>Node5</title>
<g id="a_Node000005"><a xlink:href="classServerConfig.html#a59a6b8c51bca5e4d6da765a8a9bd6388" target="_top" xlink:title="Sets the listening interface for this server.">
<polygon fill="white" stroke="#666666" points="349,-19 176,-19 176,0 349,0 349,-19"/>
<text text-anchor="middle" x="262.5" y="-7" font-family="Helvetica,sans-Serif" font-size="10.00">ServerConfig::setListenInterface</text>
</a>
</g>
</g>
<!-- Node1&#45;&gt;Node5 -->
<g id="edge4_Node000001_Node000005" class="edge">
<title>Node1&#45;&gt;Node5</title>
<g id="a_edge4_Node000001_Node000005"><a xlink:title=" ">
<path fill="none" stroke="#63b8ff" d="M140.04,-33.09C160.45,-29.13 182.59,-24.83 202.31,-21"/>
<polygon fill="#63b8ff" stroke="#63b8ff" points="203.23,-24.38 212.38,-19.04 201.9,-17.51 203.23,-24.38"/>
</a>
</g>
</g>
<!-- Node4 -->
<g id="Node000004" class="node">
<title>Node4</title>
<g id="a_Node000004"><a xlink:href="classLogger.html#a19f9ef22095a67c9fe420c9d6e761fc2" target="_top" xlink:title="Converts a LogLevel enum value to its string label.">
<polygon fill="white" stroke="#666666" points="504,-56 385,-56 385,-37 504,-37 504,-56"/>
<text text-anchor="middle" x="444.5" y="-44" font-family="Helvetica,sans-Serif" font-size="10.00">Logger::levelToString</text>
</a>
</g>
</g>
<!-- Node3&#45;&gt;Node4 -->
<g id="edge3_Node000003_Node000004" class="edge">
<title>Node3&#45;&gt;Node4</title>
<g id="a_edge3_Node000003_Node000004"><a xlink:title=" ">
<path fill="none" stroke="#63b8ff" d="M298.21,-46.5C319.85,-46.5 348.46,-46.5 374.57,-46.5"/>
<polygon fill="#63b8ff" stroke="#63b8ff" points="374.81,-50 384.81,-46.5 374.81,-43 374.81,-50"/>
</a>
</g>
</g>
</g>
</svg>
