<?xml version="1.0" encoding="UTF-8" standalone="no"?>
<!DOCTYPE svg PUBLIC "-//W3C//DTD SVG 1.1//EN"
 "http://www.w3.org/Graphics/SVG/1.1/DTD/svg11.dtd">
<!-- Generated by graphviz version 2.43.0 (0)
 -->
<!-- Title: RequestParse::requestLine Pages: 1 -->
<svg width="876pt" height="488pt"
 viewBox="0.00 0.00 876.00 488.00" xmlns="http://www.w3.org/2000/svg" xmlns:xlink="http://www.w3.org/1999/xlink">
<g id="graph0" class="graph" transform="scale(1 1) rotate(0) translate(4 484)">
<title>RequestParse::requestLine</title>
<!-- Node1 -->
<g id="Node000001" class="node">
<title>Node1</title>
<g id="a_Node000001"><a xlink:title="Parses the HTTP request line (method, URI, version).">
<polygon fill="#999999" stroke="#666666" points="146,-178 0,-178 0,-159 146,-159 146,-178"/>
<text text-anchor="middle" x="73" y="-166" font-family="Helvetica,sans-Serif" font-size="10.00">RequestParse::requestLine</text>
</a>
</g>
</g>
<!-- Node2 -->
<g id="Node000002" class="node">
<title>Node2</title>
<g id="a_Node000002"><a xlink:href="classLogger.html#a4aa4d7c3b98f6e12e7ea8253da5ea0cd" target="_top" xlink:title="Returns the singleton instance of the Logger.">
<polygon fill="white" stroke="#666666" points="474.5,-480 377.5,-480 377.5,-461 474.5,-461 474.5,-480"/>
<text text-anchor="middle" x="426" y="-468" font-family="Helvetica,sans-Serif" font-size="10.00">Logger::instance</text>
</a>
</g>
</g>
<!-- Node1&#45;&gt;Node2 -->
<g id="edge1_Node000001_Node000002" class="edge">
<title>Node1&#45;&gt;Node2</title>
<g id="a_edge1_Node000001_Node000002"><a xlink:title=" ">
<path fill="none" stroke="#63b8ff" d="M75.63,-178.08C82.12,-213.24 109.37,-336.43 182,-400.5 233.65,-446.07 313.26,-462.07 367.16,-467.64"/>
<polygon fill="#63b8ff" stroke="#63b8ff" points="366.96,-471.13 377.25,-468.59 367.62,-464.16 366.96,-471.13"/>
</a>
</g>
</g>
<!-- Node3 -->
<g id="Node000003" class="node">
<title>Node3</title>
<g id="a_Node000003"><a xlink:href="classLogger.html#a3d3f0801eeaf39b33a906ea8569c19b2" target="_top" xlink:title="Writes a log entry with timestamp, level, and message.">
<polygon fill="white" stroke="#666666" points="461.5,-443 390.5,-443 390.5,-424 461.5,-424 461.5,-443"/>
<text text-anchor="middle" x="426" y="-431" font-family="Helvetica,sans-Serif" font-size="10.00">Logger::log</text>
</a>
</g>
</g>
<!-- Node1&#45;&gt;Node3 -->
<g id="edge2_Node000001_Node000003" class="edge">
<title>Node1&#45;&gt;Node3</title>
<g id="a_edge2_Node000001_Node000003"><a xlink:title=" ">
<path fill="none" stroke="#63b8ff" d="M76.9,-178.33C86.51,-209.29 120.32,-305.78 182,-357.5 239.48,-405.69 327.52,-423.39 380.36,-429.84"/>
<polygon fill="#63b8ff" stroke="#63b8ff" points="380.11,-433.34 390.44,-430.99 380.9,-426.38 380.11,-433.34"/>
</a>
</g>
</g>
<!-- Node5 -->
<g id="Node000005" class="node">
<title>Node5</title>
<g id="a_Node000005"><a xlink:href="classRequestParse.html#aba25f85cb2196680c3f6efb539ddb81b" target="_top" xlink:title="Determines the HTTP method and validates it against configuration.">
<polygon fill="white" stroke="#666666" points="308,-150 182,-150 182,-131 308,-131 308,-150"/>
<text text-anchor="middle" x="245" y="-138" font-family="Helvetica,sans-Serif" font-size="10.00">RequestParse::method</text>
</a>
</g>
</g>
<!-- Node1&#45;&gt;Node5 -->
<g id="edge4_Node000001_Node000005" class="edge">
<title>Node1&#45;&gt;Node5</title>
<g id="a_edge4_Node000001_Node000005"><a xlink:title=" ">
<path fill="none" stroke="#63b8ff" d="M132.03,-158.94C146.25,-156.6 161.6,-154.07 176.24,-151.66"/>
<polygon fill="#63b8ff" stroke="#63b8ff" points="176.93,-155.09 186.23,-150.01 175.8,-148.19 176.93,-155.09"/>
</a>
</g>
</g>
<!-- Node13 -->
<g id="Node000013" class="node">
<title>Node13</title>
<g id="a_Node000013"><a xlink:href="classHttpRequest.html#a4af8abc5368c893ba9bb24939cb95aa3" target="_top" xlink:title=" ">
<polygon fill="white" stroke="#666666" points="696.5,-196 548.5,-196 548.5,-177 696.5,-177 696.5,-196"/>
<text text-anchor="middle" x="622.5" y="-184" font-family="Helvetica,sans-Serif" font-size="10.00">HttpRequest::setParseError</text>
</a>
</g>
</g>
<!-- Node1&#45;&gt;Node13 -->
<g id="edge18_Node000001_Node000013" class="edge">
<title>Node1&#45;&gt;Node13</title>
<g id="a_edge18_Node000001_Node000013"><a xlink:title=" ">
<path fill="none" stroke="#63b8ff" d="M146.28,-175.15C158.21,-176.07 170.44,-176.9 182,-177.5 305.9,-183.92 449.67,-185.82 538.11,-186.35"/>
<polygon fill="#63b8ff" stroke="#63b8ff" points="538.33,-189.85 548.35,-186.4 538.37,-182.85 538.33,-189.85"/>
</a>
</g>
</g>
<!-- Node15 -->
<g id="Node000015" class="node">
<title>Node15</title>
<g id="a_Node000015"><a xlink:href="classHttpRequest.html#ac948d78fd7257154a6c7f82fb9128e70" target="_top" xlink:title="Sets the HTTP major version number.">
<polygon fill="white" stroke="#666666" points="308,-113 182,-113 182,-94 308,-94 308,-113"/>
<text text-anchor="middle" x="245" y="-101" font-family="Helvetica,sans-Serif" font-size="10.00">HttpRequest::setMajor</text>
</a>
</g>
</g>
<!-- Node1&#45;&gt;Node15 -->
<g id="edge16_Node000001_Node000015" class="edge">
<title>Node1&#45;&gt;Node15</title>
<g id="a_edge16_Node000001_Node000015"><a xlink:title=" ">
<path fill="none" stroke="#63b8ff" d="M94.85,-158.85C116.41,-149.04 151.18,-133.75 182,-122.5 188.04,-120.3 194.47,-118.13 200.81,-116.09"/>
<polygon fill="#63b8ff" stroke="#63b8ff" points="202.15,-119.34 210.64,-113.02 200.05,-112.66 202.15,-119.34"/>
</a>
</g>
</g>
<!-- Node16 -->
<g id="Node000016" class="node">
<title>Node16</title>
<g id="a_Node000016"><a xlink:href="classHttpRequest.html#afa0e4eefc3eb05c776a107e22b46a514" target="_top" xlink:title="Sets the HTTP minor version number.">
<polygon fill="white" stroke="#666666" points="308,-76 182,-76 182,-57 308,-57 308,-76"/>
<text text-anchor="middle" x="245" y="-64" font-family="Helvetica,sans-Serif" font-size="10.00">HttpRequest::setMinor</text>
</a>
</g>
</g>
<!-- Node1&#45;&gt;Node16 -->
<g id="edge17_Node000001_Node000016" class="edge">
<title>Node1&#45;&gt;Node16</title>
<g id="a_edge17_Node000001_Node000016"><a xlink:title=" ">
<path fill="none" stroke="#63b8ff" d="M83.87,-158.9C101.92,-141.84 142.07,-106.1 182,-85.5 186.28,-83.29 190.85,-81.29 195.51,-79.49"/>
<polygon fill="#63b8ff" stroke="#63b8ff" points="196.87,-82.73 205.12,-76.08 194.52,-76.13 196.87,-82.73"/>
</a>
</g>
</g>
<!-- Node17 -->
<g id="Node000017" class="node">
<title>Node17</title>
<g id="a_Node000017"><a xlink:href="string__utils_8hpp.html#a06e0a64f03d46165259e5b198ffc9f6a" target="_top" xlink:title="Splits a string by a given separator substring.">
<polygon fill="white" stroke="#666666" points="264,-39 226,-39 226,-20 264,-20 264,-39"/>
<text text-anchor="middle" x="245" y="-27" font-family="Helvetica,sans-Serif" font-size="10.00">split</text>
</a>
</g>
</g>
<!-- Node1&#45;&gt;Node17 -->
<g id="edge19_Node000001_Node000017" class="edge">
<title>Node1&#45;&gt;Node17</title>
<g id="a_edge19_Node000001_Node000017"><a xlink:title=" ">
<path fill="none" stroke="#63b8ff" d="M80.02,-158.8C94.62,-136.06 134.26,-78.94 182,-48.5 192.25,-41.97 204.88,-37.56 216.06,-34.66"/>
<polygon fill="#63b8ff" stroke="#63b8ff" points="216.86,-38.06 225.81,-32.39 215.28,-31.25 216.86,-38.06"/>
</a>
</g>
</g>
<!-- Node18 -->
<g id="Node000018" class="node">
<title>Node18</title>
<g id="a_Node000018"><a xlink:href="classRequestParse.html#af7f93170c8210ad122820dafaeee7f3a" target="_top" xlink:title="Extracts and validates the request URI and query string.">
<polygon fill="white" stroke="#666666" points="295.5,-330 194.5,-330 194.5,-311 295.5,-311 295.5,-330"/>
<text text-anchor="middle" x="245" y="-318" font-family="Helvetica,sans-Serif" font-size="10.00">RequestParse::uri</text>
</a>
</g>
</g>
<!-- Node1&#45;&gt;Node18 -->
<g id="edge20_Node000001_Node000018" class="edge">
<title>Node1&#45;&gt;Node18</title>
<g id="a_edge20_Node000001_Node000018"><a xlink:title=" ">
<path fill="none" stroke="#63b8ff" d="M84.63,-178.01C112.9,-203.28 190.14,-272.35 225.68,-304.12"/>
<polygon fill="#63b8ff" stroke="#63b8ff" points="223.58,-306.94 233.37,-311 228.25,-301.72 223.58,-306.94"/>
</a>
</g>
</g>
<!-- Node4 -->
<g id="Node000004" class="node">
<title>Node4</title>
<g id="a_Node000004"><a xlink:href="classLogger.html#a19f9ef22095a67c9fe420c9d6e761fc2" target="_top" xlink:title="Converts a LogLevel enum value to its string label.">
<polygon fill="white" stroke="#666666" points="682,-443 563,-443 563,-424 682,-424 682,-443"/>
<text text-anchor="middle" x="622.5" y="-431" font-family="Helvetica,sans-Serif" font-size="10.00">Logger::levelToString</text>
</a>
</g>
</g>
<!-- Node3&#45;&gt;Node4 -->
<g id="edge3_Node000003_Node000004" class="edge">
<title>Node3&#45;&gt;Node4</title>
<g id="a_edge3_Node000003_Node000004"><a xlink:title=" ">
<path fill="none" stroke="#63b8ff" d="M461.77,-433.5C486.9,-433.5 521.69,-433.5 552.38,-433.5"/>
<polygon fill="#63b8ff" stroke="#63b8ff" points="552.62,-437 562.62,-433.5 552.62,-430 552.62,-437"/>
</a>
</g>
</g>
<!-- Node5&#45;&gt;Node5 -->
<g id="edge13_Node000005_Node000005" class="edge">
<title>Node5&#45;&gt;Node5</title>
<g id="a_edge13_Node000005_Node000005"><a xlink:title=" ">
<path fill="none" stroke="#63b8ff" d="M218.49,-150.08C205.59,-158.73 214.43,-168 245,-168 265.54,-168 276.27,-163.82 277.19,-158.45"/>
<polygon fill="#63b8ff" stroke="#63b8ff" points="280.02,-156.39 271.51,-150.08 274.23,-160.32 280.02,-156.39"/>
</a>
</g>
</g>
<!-- Node6 -->
<g id="Node000006" class="node">
<title>Node6</title>
<g id="a_Node000006"><a xlink:href="classRequestParse.html#a3a3d2f425b7652c12b681fed8a66b8d9" target="_top" xlink:title="Validates if the HTTP method is allowed in the matched location block.">
<polygon fill="white" stroke="#666666" points="503,-92 349,-92 349,-73 503,-73 503,-92"/>
<text text-anchor="middle" x="426" y="-80" font-family="Helvetica,sans-Serif" font-size="10.00">RequestParse::checkMethod</text>
</a>
</g>
</g>
<!-- Node5&#45;&gt;Node6 -->
<g id="edge5_Node000005_Node000006" class="edge">
<title>Node5&#45;&gt;Node6</title>
<g id="a_edge5_Node000005_Node000006"><a xlink:title=" ">
<path fill="none" stroke="#63b8ff" d="M282,-130.94C290.6,-128.42 299.68,-125.54 308,-122.5 324.45,-116.49 327.57,-112.56 344,-106.5 355.28,-102.34 367.65,-98.38 379.24,-94.93"/>
<polygon fill="#63b8ff" stroke="#63b8ff" points="380.57,-98.19 389.19,-92.03 378.61,-91.47 380.57,-98.19"/>
</a>
</g>
</g>
<!-- Node5&#45;&gt;Node13 -->
<g id="edge15_Node000005_Node000013" class="edge">
<title>Node5&#45;&gt;Node13</title>
<g id="a_edge15_Node000005_Node000013"><a xlink:title=" ">
<path fill="none" stroke="#63b8ff" d="M308.25,-132.92C361.87,-128.17 440.98,-125.47 508,-140.5 525.27,-144.37 527.7,-150.62 544,-157.5 557.18,-163.07 571.84,-168.69 584.83,-173.49"/>
<polygon fill="#63b8ff" stroke="#63b8ff" points="583.79,-176.84 594.38,-176.98 586.19,-170.26 583.79,-176.84"/>
</a>
</g>
</g>
<!-- Node14 -->
<g id="Node000014" class="node">
<title>Node14</title>
<g id="a_Node000014"><a xlink:href="classHttpRequest.html#a85d34306cf62cabb5a8174532029c023" target="_top" xlink:title="Sets the HTTP request method.">
<polygon fill="white" stroke="#666666" points="493.5,-168 358.5,-168 358.5,-149 493.5,-149 493.5,-168"/>
<text text-anchor="middle" x="426" y="-156" font-family="Helvetica,sans-Serif" font-size="10.00">HttpRequest::setMethod</text>
</a>
</g>
</g>
<!-- Node5&#45;&gt;Node14 -->
<g id="edge14_Node000005_Node000014" class="edge">
<title>Node5&#45;&gt;Node14</title>
<g id="a_edge14_Node000005_Node000014"><a xlink:title=" ">
<path fill="none" stroke="#63b8ff" d="M308.1,-146.75C321.06,-148.05 334.86,-149.44 348.27,-150.78"/>
<polygon fill="#63b8ff" stroke="#63b8ff" points="348.13,-154.29 358.43,-151.81 348.83,-147.32 348.13,-154.29"/>
</a>
</g>
</g>
<!-- Node7 -->
<g id="Node000007" class="node">
<title>Node7</title>
<g id="a_Node000007"><a xlink:href="classHttpRequest.html#a5e8c184f323f39e36f2bb681554bc171" target="_top" xlink:title="Returns the current HTTP method.">
<polygon fill="white" stroke="#666666" points="690.5,-148 554.5,-148 554.5,-129 690.5,-129 690.5,-148"/>
<text text-anchor="middle" x="622.5" y="-136" font-family="Helvetica,sans-Serif" font-size="10.00">HttpRequest::getMethod</text>
</a>
</g>
</g>
<!-- Node6&#45;&gt;Node7 -->
<g id="edge6_Node000006_Node000007" class="edge">
<title>Node6&#45;&gt;Node7</title>
<g id="a_edge6_Node000006_Node000007"><a xlink:title=" ">
<path fill="none" stroke="#63b8ff" d="M461.49,-92.04C475.94,-96.21 492.87,-101.33 508,-106.5 524.24,-112.05 527.6,-115.43 544,-120.5 550.9,-122.63 558.21,-124.64 565.47,-126.49"/>
<polygon fill="#63b8ff" stroke="#63b8ff" points="564.77,-129.92 575.31,-128.91 566.44,-123.12 564.77,-129.92"/>
</a>
</g>
</g>
<!-- Node8 -->
<g id="Node000008" class="node">
<title>Node8</title>
<g id="a_Node000008"><a xlink:href="classLocationConfig.html#a8f52451547425e809ccdea74557339fe" target="_top" xlink:title=" ">
<polygon fill="white" stroke="#666666" points="698.5,-111 546.5,-111 546.5,-92 698.5,-92 698.5,-111"/>
<text text-anchor="middle" x="622.5" y="-99" font-family="Helvetica,sans-Serif" font-size="10.00">LocationConfig::getMethods</text>
</a>
</g>
</g>
<!-- Node6&#45;&gt;Node8 -->
<g id="edge7_Node000006_Node000008" class="edge">
<title>Node6&#45;&gt;Node8</title>
<g id="a_edge7_Node000006_Node000008"><a xlink:title=" ">
<path fill="none" stroke="#63b8ff" d="M503.03,-89.93C513.97,-91 525.27,-92.1 536.37,-93.18"/>
<polygon fill="#63b8ff" stroke="#63b8ff" points="536.18,-96.68 546.48,-94.17 536.86,-89.72 536.18,-96.68"/>
</a>
</g>
</g>
<!-- Node9 -->
<g id="Node000009" class="node">
<title>Node9</title>
<g id="a_Node000009"><a xlink:href="classHttpRequest.html#a658d90f4dd4080c30c99c463c082abc8" target="_top" xlink:title=" ">
<polygon fill="white" stroke="#666666" points="679,-74 566,-74 566,-55 679,-55 679,-74"/>
<text text-anchor="middle" x="622.5" y="-62" font-family="Helvetica,sans-Serif" font-size="10.00">HttpRequest::getUri</text>
</a>
</g>
</g>
<!-- Node6&#45;&gt;Node9 -->
<g id="edge8_Node000006_Node000009" class="edge">
<title>Node6&#45;&gt;Node9</title>
<g id="a_edge8_Node000006_Node000009"><a xlink:title=" ">
<path fill="none" stroke="#63b8ff" d="M503.03,-75.46C520.42,-73.85 538.75,-72.16 555.66,-70.59"/>
<polygon fill="#63b8ff" stroke="#63b8ff" points="556.35,-74.04 565.99,-69.64 555.71,-67.07 556.35,-74.04"/>
</a>
</g>
</g>
<!-- Node10 -->
<g id="Node000010" class="node">
<title>Node10</title>
<g id="a_Node000010"><a xlink:href="classServerConfig.html#a708ec8a352980380e36dc6090322ea41" target="_top" xlink:title="Finds the LocationConfig that best matches a given URI.">
<polygon fill="white" stroke="#666666" points="701,-37 544,-37 544,-18 701,-18 701,-37"/>
<text text-anchor="middle" x="622.5" y="-25" font-family="Helvetica,sans-Serif" font-size="10.00">ServerConfig::matchLocation</text>
</a>
</g>
</g>
<!-- Node6&#45;&gt;Node10 -->
<g id="edge9_Node000006_Node000010" class="edge">
<title>Node6&#45;&gt;Node10</title>
<g id="a_edge9_Node000006_Node000010"><a xlink:title=" ">
<path fill="none" stroke="#63b8ff" d="M455.19,-72.91C478.77,-65.04 513.38,-53.88 544,-45.5 551.59,-43.42 559.64,-41.38 567.56,-39.46"/>
<polygon fill="#63b8ff" stroke="#63b8ff" points="568.58,-42.81 577.49,-37.09 566.96,-36 568.58,-42.81"/>
</a>
</g>
</g>
<!-- Node6&#45;&gt;Node13 -->
<g id="edge12_Node000006_Node000013" class="edge">
<title>Node6&#45;&gt;Node13</title>
<g id="a_edge12_Node000006_Node000013"><a xlink:title=" ">
<path fill="none" stroke="#63b8ff" d="M478.23,-92.05C488.69,-95.5 499.18,-100.18 508,-106.5 530.55,-122.67 522.03,-140.55 544,-157.5 552.53,-164.08 562.72,-169.3 572.86,-173.38"/>
<polygon fill="#63b8ff" stroke="#63b8ff" points="571.92,-176.77 582.51,-176.96 574.35,-170.2 571.92,-176.77"/>
</a>
</g>
</g>
<!-- Node11 -->
<g id="Node000011" class="node">
<title>Node11</title>
<g id="a_Node000011"><a xlink:href="classLocationConfig.html#a06c65ab0130599edbd485a2db4e50b82" target="_top" xlink:title=" ">
<polygon fill="white" stroke="#666666" points="868,-56 737,-56 737,-37 868,-37 868,-56"/>
<text text-anchor="middle" x="802.5" y="-44" font-family="Helvetica,sans-Serif" font-size="10.00">LocationConfig::getPath</text>
</a>
</g>
</g>
<!-- Node10&#45;&gt;Node11 -->
<g id="edge10_Node000010_Node000011" class="edge">
<title>Node10&#45;&gt;Node11</title>
<g id="a_edge10_Node000010_Node000011"><a xlink:title=" ">
<path fill="none" stroke="#63b8ff" d="M701.06,-35.78C709.67,-36.7 718.44,-37.63 727.02,-38.55"/>
<polygon fill="#63b8ff" stroke="#63b8ff" points="726.67,-42.03 736.99,-39.61 727.41,-35.07 726.67,-42.03"/>
</a>
</g>
</g>
<!-- Node12 -->
<g id="Node000012" class="node">
<title>Node12</title>
<g id="a_Node000012"><a xlink:href="string__utils_8hpp.html#a54a8d2d3492cbc9eecedf25fda818a4d" target="_top" xlink:title="Checks whether a string starts with a given prefix.">
<polygon fill="white" stroke="#666666" points="836,-19 769,-19 769,0 836,0 836,-19"/>
<text text-anchor="middle" x="802.5" y="-7" font-family="Helvetica,sans-Serif" font-size="10.00">startsWith</text>
</a>
</g>
</g>
<!-- Node10&#45;&gt;Node12 -->
<g id="edge11_Node000010_Node000012" class="edge">
<title>Node10&#45;&gt;Node12</title>
<g id="a_edge11_Node000010_Node000012"><a xlink:title=" ">
<path fill="none" stroke="#63b8ff" d="M701.06,-19.66C720.76,-17.66 741.23,-15.59 758.51,-13.85"/>
<polygon fill="#63b8ff" stroke="#63b8ff" points="759.22,-17.29 768.82,-12.81 758.52,-10.33 759.22,-17.29"/>
</a>
</g>
</g>
<!-- Node18&#45;&gt;Node2 -->
<g id="edge23_Node000018_Node000002" class="edge">
<title>Node18&#45;&gt;Node2</title>
<g id="a_edge23_Node000018_Node000002"><a xlink:title=" ">
<path fill="none" stroke="#63b8ff" d="M250.27,-330.34C261.6,-355.17 294.91,-420.66 344,-452.5 351.12,-457.12 359.26,-460.57 367.57,-463.14"/>
<polygon fill="#63b8ff" stroke="#63b8ff" points="366.78,-466.55 377.34,-465.77 368.6,-459.79 366.78,-466.55"/>
</a>
</g>
</g>
<!-- Node18&#45;&gt;Node3 -->
<g id="edge24_Node000018_Node000003" class="edge">
<title>Node18&#45;&gt;Node3</title>
<g id="a_edge24_Node000018_Node000003"><a xlink:title=" ">
<path fill="none" stroke="#63b8ff" d="M252.89,-330.08C267.39,-349.49 303.11,-393.47 344,-415.5 355.1,-421.48 368.07,-425.47 380.34,-428.14"/>
<polygon fill="#63b8ff" stroke="#63b8ff" points="379.95,-431.63 390.43,-430.09 381.27,-424.76 379.95,-431.63"/>
</a>
</g>
</g>
<!-- Node18&#45;&gt;Node13 -->
<g id="edge25_Node000018_Node000013" class="edge">
<title>Node18&#45;&gt;Node13</title>
<g id="a_edge25_Node000018_Node000013"><a xlink:title=" ">
<path fill="none" stroke="#63b8ff" d="M270.01,-330.03C318.13,-347.53 428.56,-379.48 508,-339.5 564.49,-311.07 599.92,-239.75 614.23,-205.47"/>
<polygon fill="#63b8ff" stroke="#63b8ff" points="617.51,-206.7 617.99,-196.11 611.01,-204.08 617.51,-206.7"/>
</a>
</g>
</g>
<!-- Node18&#45;&gt;Node18 -->
<g id="edge29_Node000018_Node000018" class="edge">
<title>Node18&#45;&gt;Node18</title>
<g id="a_edge29_Node000018_Node000018"><a xlink:title=" ">
<path fill="none" stroke="#63b8ff" d="M218.49,-330.08C205.59,-338.73 214.43,-348 245,-348 265.54,-348 276.27,-343.82 277.19,-338.45"/>
<polygon fill="#63b8ff" stroke="#63b8ff" points="280.02,-336.39 271.51,-330.08 274.23,-340.32 280.02,-336.39"/>
</a>
</g>
</g>
<!-- Node19 -->
<g id="Node000019" class="node">
<title>Node19</title>
<g id="a_Node000019"><a xlink:href="classRequestParse.html#af2da061f29a38d73ea2d3fabdf80e0ec" target="_top" xlink:title="Extracts the query string portion from a URI.">
<polygon fill="white" stroke="#666666" points="502,-292.5 350,-292.5 350,-262.5 502,-262.5 502,-292.5"/>
<text text-anchor="start" x="358" y="-280.5" font-family="Helvetica,sans-Serif" font-size="10.00">RequestParse::extractQuery</text>
<text text-anchor="middle" x="426" y="-269.5" font-family="Helvetica,sans-Serif" font-size="10.00">String</text>
</a>
</g>
</g>
<!-- Node18&#45;&gt;Node19 -->
<g id="edge21_Node000018_Node000019" class="edge">
<title>Node18&#45;&gt;Node19</title>
<g id="a_edge21_Node000018_Node000019"><a xlink:title=" ">
<path fill="none" stroke="#63b8ff" d="M266.88,-310.96C285.12,-305.01 312.85,-297.61 340.02,-291.17"/>
<polygon fill="#63b8ff" stroke="#63b8ff" points="341.04,-294.53 349.99,-288.85 339.46,-287.71 341.04,-294.53"/>
</a>
</g>
</g>
<!-- Node20 -->
<g id="Node000020" class="node">
<title>Node20</title>
<g id="a_Node000020"><a xlink:href="classHttpRequest.html#aebc5ebbc9a36a9ab66135c2884866fb6" target="_top" xlink:title="Sets the query string extracted from the URI.">
<polygon fill="white" stroke="#666666" points="504,-244 348,-244 348,-225 504,-225 504,-244"/>
<text text-anchor="middle" x="426" y="-232" font-family="Helvetica,sans-Serif" font-size="10.00">HttpRequest::setQueryString</text>
</a>
</g>
</g>
<!-- Node18&#45;&gt;Node20 -->
<g id="edge26_Node000018_Node000020" class="edge">
<title>Node18&#45;&gt;Node20</title>
<g id="a_edge26_Node000018_Node000020"><a xlink:title=" ">
<path fill="none" stroke="#63b8ff" d="M256.94,-310.97C274.24,-296.41 309.49,-268.71 344,-253.5 349.72,-250.98 355.83,-248.76 362.03,-246.83"/>
<polygon fill="#63b8ff" stroke="#63b8ff" points="363.15,-250.15 371.79,-244.01 361.21,-243.42 363.15,-250.15"/>
</a>
</g>
</g>
<!-- Node21 -->
<g id="Node000021" class="node">
<title>Node21</title>
<g id="a_Node000021"><a xlink:href="classHttpRequest.html#a15c0dff5d8350a2c71306638d30d5fe3" target="_top" xlink:title=" ">
<polygon fill="white" stroke="#666666" points="508,-406 344,-406 344,-387 508,-387 508,-406"/>
<text text-anchor="middle" x="426" y="-394" font-family="Helvetica,sans-Serif" font-size="10.00">HttpRequest::setRequestState</text>
</a>
</g>
</g>
<!-- Node18&#45;&gt;Node21 -->
<g id="edge27_Node000018_Node000021" class="edge">
<title>Node18&#45;&gt;Node21</title>
<g id="a_edge27_Node000018_Node000021"><a xlink:title=" ">
<path fill="none" stroke="#63b8ff" d="M261.82,-330.17C280.81,-341.47 313.87,-360.19 344,-372.5 354.5,-376.79 366.05,-380.68 377.05,-384.02"/>
<polygon fill="#63b8ff" stroke="#63b8ff" points="376.38,-387.47 386.96,-386.92 378.35,-380.75 376.38,-387.47"/>
</a>
</g>
</g>
<!-- Node22 -->
<g id="Node000022" class="node">
<title>Node22</title>
<g id="a_Node000022"><a xlink:href="classHttpRequest.html#aee6d6d4468cb5f45ab6fe750d9a816ca" target="_top" xlink:title="Sets the request target URI.">
<polygon fill="white" stroke="#666666" points="482.5,-330 369.5,-330 369.5,-311 482.5,-311 482.5,-330"/>
<text text-anchor="middle" x="426" y="-318" font-family="Helvetica,sans-Serif" font-size="10.00">HttpRequest::setUri</text>
</a>
</g>
</g>
<!-- Node18&#45;&gt;Node22 -->
<g id="edge28_Node000018_Node000022" class="edge">
<title>Node18&#45;&gt;Node22</title>
<g id="a_edge28_Node000018_Node000022"><a xlink:title=" ">
<path fill="none" stroke="#63b8ff" d="M295.86,-320.5C315.51,-320.5 338.35,-320.5 359.31,-320.5"/>
<polygon fill="#63b8ff" stroke="#63b8ff" points="359.43,-324 369.43,-320.5 359.43,-317 359.43,-324"/>
</a>
</g>
</g>
<!-- Node19&#45;&gt;Node18 -->
<g id="edge22_Node000019_Node000018" class="edge">
<title>Node19&#45;&gt;Node18</title>
<g id="a_edge22_Node000019_Node000018"><a xlink:title=" ">
<path fill="none" stroke="#63b8ff" d="M386.18,-292.5C362.71,-299.26 332.3,-306.81 305.8,-312.54"/>
<polygon fill="#63b8ff" stroke="#63b8ff" points="304.92,-309.15 295.86,-314.65 306.37,-316 304.92,-309.15"/>
</a>
</g>
</g>
</g>
</svg>
