<?xml version="1.0" encoding="UTF-8" standalone="no"?>
<!DOCTYPE svg PUBLIC "-//W3C//DTD SVG 1.1//EN"
 "http://www.w3.org/Graphics/SVG/1.1/DTD/svg11.dtd">
<!-- Generated by graphviz version 2.43.0 (0)
 -->
<!-- Title: ResponseBuilder::errorPageConfig Pages: 1 -->
<svg width="753pt" height="230pt"
 viewBox="0.00 0.00 753.00 229.50" xmlns="http://www.w3.org/2000/svg" xmlns:xlink="http://www.w3.org/1999/xlink">
<g id="graph0" class="graph" transform="scale(1 1) rotate(0) translate(4 225.5)">
<title>ResponseBuilder::errorPageConfig</title>
<!-- Node1 -->
<g id="Node000001" class="node">
<title>Node1</title>
<g id="a_Node000001"><a xlink:title="Attempts to load and serve a custom error page from configuration.">
<polygon fill="#999999" stroke="#666666" points="151,-125 0,-125 0,-95 151,-95 151,-125"/>
<text text-anchor="start" x="8" y="-113" font-family="Helvetica,sans-Serif" font-size="10.00">ResponseBuilder::errorPage</text>
<text text-anchor="middle" x="75.5" y="-102" font-family="Helvetica,sans-Serif" font-size="10.00">Config</text>
</a>
</g>
</g>
<!-- Node2 -->
<g id="Node000002" class="node">
<title>Node2</title>
<g id="a_Node000002"><a xlink:href="classServerConfig.html#ae077f794f7c8027bfd81a0b218edbff7" target="_top" xlink:title=" ">
<polygon fill="white" stroke="#666666" points="343,-221.5 196,-221.5 196,-202.5 343,-202.5 343,-221.5"/>
<text text-anchor="middle" x="269.5" y="-209.5" font-family="Helvetica,sans-Serif" font-size="10.00">ServerConfig::getErrorPage</text>
</a>
</g>
</g>
<!-- Node1&#45;&gt;Node2 -->
<g id="edge1_Node000001_Node000002" class="edge">
<title>Node1&#45;&gt;Node2</title>
<g id="a_edge1_Node000001_Node000002"><a xlink:title=" ">
<path fill="none" stroke="#63b8ff" d="M91.88,-125.24C112.01,-144.28 149.17,-176.48 187,-194 191.37,-196.02 195.98,-197.83 200.7,-199.43"/>
<polygon fill="#63b8ff" stroke="#63b8ff" points="199.89,-202.84 210.48,-202.45 201.95,-196.16 199.89,-202.84"/>
</a>
</g>
</g>
<!-- Node3 -->
<g id="Node000003" class="node">
<title>Node3</title>
<g id="a_Node000003"><a xlink:href="classHttpResponse.html#aefca7483c5921d939a7c8dccc705ba08" target="_top" xlink:title="Returns the current HTTP status code.">
<polygon fill="white" stroke="#666666" points="350.5,-184.5 188.5,-184.5 188.5,-165.5 350.5,-165.5 350.5,-184.5"/>
<text text-anchor="middle" x="269.5" y="-172.5" font-family="Helvetica,sans-Serif" font-size="10.00">HttpResponse::getStatusCode</text>
</a>
</g>
</g>
<!-- Node1&#45;&gt;Node3 -->
<g id="edge2_Node000001_Node000003" class="edge">
<title>Node1&#45;&gt;Node3</title>
<g id="a_edge2_Node000001_Node000003"><a xlink:title=" ">
<path fill="none" stroke="#63b8ff" d="M108.85,-125.13C130.6,-134.89 160.1,-147.33 187,-156 194.95,-158.56 203.44,-160.93 211.83,-163.07"/>
<polygon fill="#63b8ff" stroke="#63b8ff" points="211.04,-166.48 221.59,-165.46 212.71,-159.68 211.04,-166.48"/>
</a>
</g>
</g>
<!-- Node4 -->
<g id="Node000004" class="node">
<title>Node4</title>
<g id="a_Node000004"><a xlink:href="classResponseBuilder.html#a0a1b2929111eec67e4ebe1acb7796915" target="_top" xlink:title="Prepares an HTTP response for a static page.">
<polygon fill="white" stroke="#666666" points="352,-147 187,-147 187,-117 352,-117 352,-147"/>
<text text-anchor="start" x="195" y="-135" font-family="Helvetica,sans-Serif" font-size="10.00">ResponseBuilder::handleStatic</text>
<text text-anchor="middle" x="269.5" y="-124" font-family="Helvetica,sans-Serif" font-size="10.00">PageOutput</text>
</a>
</g>
</g>
<!-- Node1&#45;&gt;Node4 -->
<g id="edge3_Node000001_Node000004" class="edge">
<title>Node1&#45;&gt;Node4</title>
<g id="a_edge3_Node000001_Node000004"><a xlink:title=" ">
<path fill="none" stroke="#63b8ff" d="M151.01,-118.54C159.42,-119.5 168.06,-120.49 176.66,-121.48"/>
<polygon fill="#63b8ff" stroke="#63b8ff" points="176.38,-124.97 186.71,-122.63 177.17,-118.01 176.38,-124.97"/>
</a>
</g>
</g>
<!-- Node9 -->
<g id="Node000009" class="node">
<title>Node9</title>
<g id="a_Node000009"><a xlink:href="classLogger.html#a4aa4d7c3b98f6e12e7ea8253da5ea0cd" target="_top" xlink:title="Returns the singleton instance of the Logger.">
<polygon fill="white" stroke="#666666" points="318,-98.5 221,-98.5 221,-79.5 318,-79.5 318,-98.5"/>
<text text-anchor="middle" x="269.5" y="-86.5" font-family="Helvetica,sans-Serif" font-size="10.00">Logger::instance</text>
</a>
</g>
</g>
<!-- Node1&#45;&gt;Node9 -->
<g id="edge8_Node000001_Node000009" class="edge">
<title>Node1&#45;&gt;Node9</title>
<g id="a_edge8_Node000001_Node000009"><a xlink:title=" ">
<path fill="none" stroke="#63b8ff" d="M151.01,-101.85C170.84,-99.68 191.96,-97.37 210.75,-95.32"/>
<polygon fill="#63b8ff" stroke="#63b8ff" points="211.37,-98.77 220.93,-94.2 210.6,-91.81 211.37,-98.77"/>
</a>
</g>
</g>
<!-- Node10 -->
<g id="Node000010" class="node">
<title>Node10</title>
<g id="a_Node000010"><a xlink:href="classLogger.html#a3d3f0801eeaf39b33a906ea8569c19b2" target="_top" xlink:title="Writes a log entry with timestamp, level, and message.">
<polygon fill="white" stroke="#666666" points="305,-61.5 234,-61.5 234,-42.5 305,-42.5 305,-61.5"/>
<text text-anchor="middle" x="269.5" y="-49.5" font-family="Helvetica,sans-Serif" font-size="10.00">Logger::log</text>
</a>
</g>
</g>
<!-- Node1&#45;&gt;Node10 -->
<g id="edge9_Node000001_Node000010" class="edge">
<title>Node1&#45;&gt;Node10</title>
<g id="a_edge9_Node000001_Node000010"><a xlink:title=" ">
<path fill="none" stroke="#63b8ff" d="M115.79,-94.94C136.75,-87.22 163.08,-77.99 187,-71 198.88,-67.53 211.87,-64.27 223.92,-61.46"/>
<polygon fill="#63b8ff" stroke="#63b8ff" points="224.81,-64.84 233.78,-59.21 223.25,-58.02 224.81,-64.84"/>
</a>
</g>
</g>
<!-- Node12 -->
<g id="Node000012" class="node">
<title>Node12</title>
<g id="a_Node000012"><a xlink:href="classHttpResponse.html#af02b3b82a638bfbf23226b9f3bf06843" target="_top" xlink:title="Sets the HTTP status code and updates the corresponding reason phrase.">
<polygon fill="white" stroke="#666666" points="350,-24.5 189,-24.5 189,-5.5 350,-5.5 350,-24.5"/>
<text text-anchor="middle" x="269.5" y="-12.5" font-family="Helvetica,sans-Serif" font-size="10.00">HttpResponse::setStatusCode</text>
</a>
</g>
</g>
<!-- Node1&#45;&gt;Node12 -->
<g id="edge11_Node000001_Node000012" class="edge">
<title>Node1&#45;&gt;Node12</title>
<g id="a_edge11_Node000001_Node000012"><a xlink:title=" ">
<path fill="none" stroke="#63b8ff" d="M93.57,-94.86C114.24,-77.34 150.81,-48.86 187,-33 191.69,-30.94 196.64,-29.11 201.69,-27.48"/>
<polygon fill="#63b8ff" stroke="#63b8ff" points="202.87,-30.78 211.47,-24.59 200.89,-24.07 202.87,-30.78"/>
</a>
</g>
</g>
<!-- Node5 -->
<g id="Node000005" class="node">
<title>Node5</title>
<g id="a_Node000005"><a xlink:href="classHttpResponse.html#abb032c16ad3961d50a6582c50c330581" target="_top" xlink:title="Adds a header field to the HTTP response.">
<polygon fill="white" stroke="#666666" points="547.5,-212.5 403.5,-212.5 403.5,-193.5 547.5,-193.5 547.5,-212.5"/>
<text text-anchor="middle" x="475.5" y="-200.5" font-family="Helvetica,sans-Serif" font-size="10.00">HttpResponse::addHeader</text>
</a>
</g>
</g>
<!-- Node4&#45;&gt;Node5 -->
<g id="edge4_Node000004_Node000005" class="edge">
<title>Node4&#45;&gt;Node5</title>
<g id="a_edge4_Node000004_Node000005"><a xlink:title=" ">
<path fill="none" stroke="#63b8ff" d="M328.97,-147.09C336.9,-149.95 344.78,-153.25 352,-157 369.99,-166.35 369.6,-176.49 388,-185 392.38,-187.03 396.99,-188.83 401.71,-190.42"/>
<polygon fill="#63b8ff" stroke="#63b8ff" points="400.92,-193.84 411.51,-193.43 402.97,-187.15 400.92,-193.84"/>
</a>
</g>
</g>
<!-- Node6 -->
<g id="Node000006" class="node">
<title>Node6</title>
<g id="a_Node000006"><a xlink:href="classHttpResponse.html#a22352917aff72615ead5686b7e7b09b8" target="_top" xlink:title="Appends text data to the response body.">
<polygon fill="white" stroke="#666666" points="551.5,-175.5 399.5,-175.5 399.5,-156.5 551.5,-156.5 551.5,-175.5"/>
<text text-anchor="middle" x="475.5" y="-163.5" font-family="Helvetica,sans-Serif" font-size="10.00">HttpResponse::appendBody</text>
</a>
</g>
</g>
<!-- Node4&#45;&gt;Node6 -->
<g id="edge5_Node000004_Node000006" class="edge">
<title>Node4&#45;&gt;Node6</title>
<g id="a_edge5_Node000004_Node000006"><a xlink:title=" ">
<path fill="none" stroke="#63b8ff" d="M352.01,-145.58C370.28,-148.63 389.47,-151.83 407.1,-154.77"/>
<polygon fill="#63b8ff" stroke="#63b8ff" points="406.84,-158.27 417.28,-156.46 407.99,-151.37 406.84,-158.27"/>
</a>
</g>
</g>
<!-- Node7 -->
<g id="Node000007" class="node">
<title>Node7</title>
<g id="a_Node000007"><a xlink:href="classHttpResponse.html#ab929ceba6ce5236a670f33f9a6eeeb35" target="_top" xlink:title="Sets whether the response will use chunked transfer encoding.">
<polygon fill="white" stroke="#666666" points="549.5,-138.5 401.5,-138.5 401.5,-119.5 549.5,-119.5 549.5,-138.5"/>
<text text-anchor="middle" x="475.5" y="-126.5" font-family="Helvetica,sans-Serif" font-size="10.00">HttpResponse::setChunked</text>
</a>
</g>
</g>
<!-- Node4&#45;&gt;Node7 -->
<g id="edge6_Node000004_Node000007" class="edge">
<title>Node4&#45;&gt;Node7</title>
<g id="a_edge6_Node000004_Node000007"><a xlink:title=" ">
<path fill="none" stroke="#63b8ff" d="M352.01,-130.8C364.88,-130.61 378.21,-130.42 391.12,-130.23"/>
<polygon fill="#63b8ff" stroke="#63b8ff" points="391.43,-133.72 401.37,-130.08 391.32,-126.72 391.43,-133.72"/>
</a>
</g>
</g>
<!-- Node8 -->
<g id="Node000008" class="node">
<title>Node8</title>
<g id="a_Node000008"><a xlink:href="string__utils_8hpp.html#ad735976365693b45c427000fe042e173" target="_top" xlink:title="Converts any printable type to a string representation.">
<polygon fill="white" stroke="#666666" points="503,-101.5 448,-101.5 448,-82.5 503,-82.5 503,-101.5"/>
<text text-anchor="middle" x="475.5" y="-89.5" font-family="Helvetica,sans-Serif" font-size="10.00">toString</text>
</a>
</g>
</g>
<!-- Node4&#45;&gt;Node8 -->
<g id="edge7_Node000004_Node000008" class="edge">
<title>Node4&#45;&gt;Node8</title>
<g id="a_edge7_Node000004_Node000008"><a xlink:title=" ">
<path fill="none" stroke="#63b8ff" d="M347.04,-116.99C378.24,-110.87 412.84,-104.09 438.11,-99.14"/>
<polygon fill="#63b8ff" stroke="#63b8ff" points="438.85,-102.56 447.99,-97.2 437.5,-95.69 438.85,-102.56"/>
</a>
</g>
</g>
<!-- Node11 -->
<g id="Node000011" class="node">
<title>Node11</title>
<g id="a_Node000011"><a xlink:href="classLogger.html#a19f9ef22095a67c9fe420c9d6e761fc2" target="_top" xlink:title="Converts a LogLevel enum value to its string label.">
<polygon fill="white" stroke="#666666" points="535,-61.5 416,-61.5 416,-42.5 535,-42.5 535,-61.5"/>
<text text-anchor="middle" x="475.5" y="-49.5" font-family="Helvetica,sans-Serif" font-size="10.00">Logger::levelToString</text>
</a>
</g>
</g>
<!-- Node10&#45;&gt;Node11 -->
<g id="edge10_Node000010_Node000011" class="edge">
<title>Node10&#45;&gt;Node11</title>
<g id="a_edge10_Node000010_Node000011"><a xlink:title=" ">
<path fill="none" stroke="#63b8ff" d="M305.11,-52C332.51,-52 371.66,-52 405.42,-52"/>
<polygon fill="#63b8ff" stroke="#63b8ff" points="405.7,-55.5 415.7,-52 405.7,-48.5 405.7,-55.5"/>
</a>
</g>
</g>
<!-- Node13 -->
<g id="Node000013" class="node">
<title>Node13</title>
<g id="a_Node000013"><a xlink:href="classHttpResponse.html#a98bb39b2757912eae4f667db80e3e6a4" target="_top" xlink:title="Sets the textual reason phrase for a given status code.">
<polygon fill="white" stroke="#666666" points="563,-24.5 388,-24.5 388,-5.5 563,-5.5 563,-24.5"/>
<text text-anchor="middle" x="475.5" y="-12.5" font-family="Helvetica,sans-Serif" font-size="10.00">HttpResponse::setReasonPhrase</text>
</a>
</g>
</g>
<!-- Node12&#45;&gt;Node13 -->
<g id="edge12_Node000012_Node000013" class="edge">
<title>Node12&#45;&gt;Node13</title>
<g id="a_edge12_Node000012_Node000013"><a xlink:title=" ">
<path fill="none" stroke="#63b8ff" d="M350.25,-15C359.18,-15 368.35,-15 377.47,-15"/>
<polygon fill="#63b8ff" stroke="#63b8ff" points="377.72,-18.5 387.72,-15 377.72,-11.5 377.72,-18.5"/>
</a>
</g>
</g>
<!-- Node14 -->
<g id="Node000014" class="node">
<title>Node14</title>
<g id="a_Node000014"><a xlink:href="classHttpResponse.html#ae09f25f31d917b068fae8bbf07b29c19" target="_top" xlink:title="Converts an HTTP status code to its standard reason phrase string.">
<polygon fill="white" stroke="#666666" points="745,-30 599,-30 599,0 745,0 745,-30"/>
<text text-anchor="start" x="607" y="-18" font-family="Helvetica,sans-Serif" font-size="10.00">HttpResponse::statusCode</text>
<text text-anchor="middle" x="672" y="-7" font-family="Helvetica,sans-Serif" font-size="10.00">ToString</text>
</a>
</g>
</g>
<!-- Node13&#45;&gt;Node14 -->
<g id="edge13_Node000013_Node000014" class="edge">
<title>Node13&#45;&gt;Node14</title>
<g id="a_edge13_Node000013_Node000014"><a xlink:title=" ">
<path fill="none" stroke="#63b8ff" d="M563.23,-15C571.72,-15 580.33,-15 588.78,-15"/>
<polygon fill="#63b8ff" stroke="#63b8ff" points="589,-18.5 599,-15 589,-11.5 589,-18.5"/>
</a>
</g>
</g>
</g>
</svg>
