<?xml version="1.0" encoding="UTF-8" standalone="no"?>
<!DOCTYPE svg PUBLIC "-//W3C//DTD SVG 1.1//EN"
 "http://www.w3.org/Graphics/SVG/1.1/DTD/svg11.dtd">
<!-- Generated by graphviz version 2.43.0 (0)
 -->
<!-- Title: HttpRequest::setQueryString Pages: 1 -->
<svg width="1315pt" height="88pt"
 viewBox="0.00 0.00 1315.00 88.00" xmlns="http://www.w3.org/2000/svg" xmlns:xlink="http://www.w3.org/1999/xlink">
<g id="graph0" class="graph" transform="scale(1 1) rotate(0) translate(4 84)">
<title>HttpRequest::setQueryString</title>
<!-- Node1 -->
<g id="Node000001" class="node">
<title>Node1</title>
<g id="a_Node000001"><a xlink:title="Sets the query string extracted from the URI.">
<polygon fill="#999999" stroke="#666666" points="1307,-62 1151,-62 1151,-43 1307,-43 1307,-62"/>
<text text-anchor="middle" x="1229" y="-50" font-family="Helvetica,sans-Serif" font-size="10.00">HttpRequest::setQueryString</text>
</a>
</g>
</g>
<!-- Node2 -->
<g id="Node000002" class="node">
<title>Node2</title>
<g id="a_Node000002"><a xlink:href="classRequestParse.html#af7f93170c8210ad122820dafaeee7f3a" target="_top" xlink:title="Extracts and validates the request URI and query string.">
<polygon fill="white" stroke="#666666" points="1115,-62 1014,-62 1014,-43 1115,-43 1115,-62"/>
<text text-anchor="middle" x="1064.5" y="-50" font-family="Helvetica,sans-Serif" font-size="10.00">RequestParse::uri</text>
</a>
</g>
</g>
<!-- Node1&#45;&gt;Node2 -->
<g id="edge1_Node000001_Node000002" class="edge">
<title>Node1&#45;&gt;Node2</title>
<g id="a_edge1_Node000001_Node000002"><a xlink:title=" ">
<path fill="none" stroke="#63b8ff" d="M1140.35,-52.5C1131.67,-52.5 1123.08,-52.5 1115,-52.5"/>
<polygon fill="#63b8ff" stroke="#63b8ff" points="1140.56,-56 1150.56,-52.5 1140.56,-49 1140.56,-56"/>
</a>
</g>
</g>
<!-- Node2&#45;&gt;Node2 -->
<g id="edge10_Node000002_Node000002" class="edge">
<title>Node2&#45;&gt;Node2</title>
<g id="a_edge10_Node000002_Node000002"><a xlink:title=" ">
<path fill="none" stroke="#63b8ff" d="M1094.74,-70.82C1093.48,-76.01 1083.4,-80 1064.5,-80 1035.71,-80 1027.38,-70.73 1039.53,-62.08"/>
<polygon fill="#63b8ff" stroke="#63b8ff" points="1097.63,-68.84 1089.47,-62.08 1091.64,-72.45 1097.63,-68.84"/>
</a>
</g>
</g>
<!-- Node3 -->
<g id="Node000003" class="node">
<title>Node3</title>
<g id="a_Node000003"><a xlink:href="classRequestParse.html#af2da061f29a38d73ea2d3fabdf80e0ec" target="_top" xlink:title="Extracts the query string portion from a URI.">
<polygon fill="white" stroke="#666666" points="978,-67.5 826,-67.5 826,-37.5 978,-37.5 978,-67.5"/>
<text text-anchor="start" x="834" y="-55.5" font-family="Helvetica,sans-Serif" font-size="10.00">RequestParse::extractQuery</text>
<text text-anchor="middle" x="902" y="-44.5" font-family="Helvetica,sans-Serif" font-size="10.00">String</text>
</a>
</g>
</g>
<!-- Node2&#45;&gt;Node3 -->
<g id="edge2_Node000002_Node000003" class="edge">
<title>Node2&#45;&gt;Node3</title>
<g id="a_edge2_Node000002_Node000003"><a xlink:title=" ">
<path fill="none" stroke="#63b8ff" d="M1003.38,-45.94C995.17,-45.78 986.65,-45.72 978.21,-45.76"/>
<polygon fill="#63b8ff" stroke="#63b8ff" points="1003.51,-49.45 1013.6,-46.2 1003.69,-42.45 1003.51,-49.45"/>
</a>
</g>
</g>
<!-- Node4 -->
<g id="Node000004" class="node">
<title>Node4</title>
<g id="a_Node000004"><a xlink:href="classRequestParse.html#abba0923a3ae7422916f11a81b7c4d552" target="_top" xlink:title="Parses the HTTP request line (method, URI, version).">
<polygon fill="white" stroke="#666666" points="975,-19 829,-19 829,0 975,0 975,-19"/>
<text text-anchor="middle" x="902" y="-7" font-family="Helvetica,sans-Serif" font-size="10.00">RequestParse::requestLine</text>
</a>
</g>
</g>
<!-- Node2&#45;&gt;Node4 -->
<g id="edge4_Node000002_Node000004" class="edge">
<title>Node2&#45;&gt;Node4</title>
<g id="a_edge4_Node000002_Node000004"><a xlink:title=" ">
<path fill="none" stroke="#63b8ff" d="M1020.25,-40.13C1006.74,-36.33 991.77,-32.18 978,-28.5 966.19,-25.35 953.3,-22.03 941.59,-19.08"/>
<polygon fill="#63b8ff" stroke="#63b8ff" points="1019.68,-43.61 1030.26,-42.96 1021.59,-36.87 1019.68,-43.61"/>
</a>
</g>
</g>
<!-- Node3&#45;&gt;Node2 -->
<g id="edge3_Node000003_Node000002" class="edge">
<title>Node3&#45;&gt;Node2</title>
<g id="a_edge3_Node000003_Node000002"><a xlink:title=" ">
<path fill="none" stroke="#63b8ff" d="M988.35,-59.24C996.98,-59.2 1005.53,-59.05 1013.6,-58.8"/>
<polygon fill="#63b8ff" stroke="#63b8ff" points="988.21,-55.74 978.21,-59.24 988.21,-62.74 988.21,-55.74"/>
</a>
</g>
</g>
<!-- Node5 -->
<g id="Node000005" class="node">
<title>Node5</title>
<g id="a_Node000005"><a xlink:href="classRequestParse.html#a5f2f35f5815fbb977cde05b19af41687" target="_top" xlink:title="Parses and processes raw HTTP request data incrementally.">
<polygon fill="white" stroke="#666666" points="790,-19 608,-19 608,0 790,0 790,-19"/>
<text text-anchor="middle" x="699" y="-7" font-family="Helvetica,sans-Serif" font-size="10.00">RequestParse::handleRawRequest</text>
</a>
</g>
</g>
<!-- Node4&#45;&gt;Node5 -->
<g id="edge5_Node000004_Node000005" class="edge">
<title>Node4&#45;&gt;Node5</title>
<g id="a_edge5_Node000004_Node000005"><a xlink:title=" ">
<path fill="none" stroke="#63b8ff" d="M818.65,-9.5C809.27,-9.5 799.67,-9.5 790.2,-9.5"/>
<polygon fill="#63b8ff" stroke="#63b8ff" points="818.72,-13 828.72,-9.5 818.72,-6 818.72,-13"/>
</a>
</g>
</g>
<!-- Node6 -->
<g id="Node000006" class="node">
<title>Node6</title>
<g id="a_Node000006"><a xlink:href="classClientConnection.html#a835586ce27b3c3598394bde3fff14211" target="_top" xlink:title="Receives incoming data from the client socket.">
<polygon fill="white" stroke="#666666" points="572,-19 422,-19 422,0 572,0 572,-19"/>
<text text-anchor="middle" x="497" y="-7" font-family="Helvetica,sans-Serif" font-size="10.00">ClientConnection::recvData</text>
</a>
</g>
</g>
<!-- Node5&#45;&gt;Node6 -->
<g id="edge6_Node000005_Node000006" class="edge">
<title>Node5&#45;&gt;Node6</title>
<g id="a_edge6_Node000005_Node000006"><a xlink:title=" ">
<path fill="none" stroke="#63b8ff" d="M597.86,-9.5C589.25,-9.5 580.64,-9.5 572.29,-9.5"/>
<polygon fill="#63b8ff" stroke="#63b8ff" points="597.95,-13 607.95,-9.5 597.95,-6 597.95,-13"/>
</a>
</g>
</g>
<!-- Node7 -->
<g id="Node000007" class="node">
<title>Node7</title>
<g id="a_Node000007"><a xlink:href="classWebServer.html#a8cbf37c0a840305ce15e8648566c9ce4" target="_top" xlink:title="Handles incoming data from a connected client.">
<polygon fill="white" stroke="#666666" points="386,-19 235,-19 235,0 386,0 386,-19"/>
<text text-anchor="middle" x="310.5" y="-7" font-family="Helvetica,sans-Serif" font-size="10.00">WebServer::receiveRequest</text>
</a>
</g>
</g>
<!-- Node6&#45;&gt;Node7 -->
<g id="edge7_Node000006_Node000007" class="edge">
<title>Node6&#45;&gt;Node7</title>
<g id="a_edge7_Node000006_Node000007"><a xlink:title=" ">
<path fill="none" stroke="#63b8ff" d="M411.51,-9.5C403.07,-9.5 394.53,-9.5 386.19,-9.5"/>
<polygon fill="#63b8ff" stroke="#63b8ff" points="411.75,-13 421.75,-9.5 411.75,-6 411.75,-13"/>
</a>
</g>
</g>
<!-- Node8 -->
<g id="Node000008" class="node">
<title>Node8</title>
<g id="a_Node000008"><a xlink:href="classWebServer.html#af39709e3744077e019aa76555f03a42e" target="_top" xlink:title="Main event loop — monitors sockets, dispatches requests, and handles responses.">
<polygon fill="white" stroke="#666666" points="199,-19 77,-19 77,0 199,0 199,-19"/>
<text text-anchor="middle" x="138" y="-7" font-family="Helvetica,sans-Serif" font-size="10.00">WebServer::runServer</text>
</a>
</g>
</g>
<!-- Node7&#45;&gt;Node8 -->
<g id="edge8_Node000007_Node000008" class="edge">
<title>Node7&#45;&gt;Node8</title>
<g id="a_edge8_Node000007_Node000008"><a xlink:title=" ">
<path fill="none" stroke="#63b8ff" d="M224.63,-9.5C216.02,-9.5 207.4,-9.5 199.13,-9.5"/>
<polygon fill="#63b8ff" stroke="#63b8ff" points="224.72,-13 234.72,-9.5 224.72,-6 224.72,-13"/>
</a>
</g>
</g>
<!-- Node9 -->
<g id="Node000009" class="node">
<title>Node9</title>
<g id="a_Node000009"><a xlink:href="main_8cpp.html#a3c04138a5bfe5d72780bb7e82a18e627" target="_top" xlink:title="Entry point of the Webservinho web server.">
<polygon fill="white" stroke="#666666" points="41,-19 0,-19 0,0 41,0 41,-19"/>
<text text-anchor="middle" x="20.5" y="-7" font-family="Helvetica,sans-Serif" font-size="10.00">main</text>
</a>
</g>
</g>
<!-- Node8&#45;&gt;Node9 -->
<g id="edge9_Node000008_Node000009" class="edge">
<title>Node8&#45;&gt;Node9</title>
<g id="a_edge9_Node000008_Node000009"><a xlink:title=" ">
<path fill="none" stroke="#63b8ff" d="M66.66,-9.5C57.35,-9.5 48.51,-9.5 41.15,-9.5"/>
<polygon fill="#63b8ff" stroke="#63b8ff" points="66.88,-13 76.88,-9.5 66.88,-6 66.88,-13"/>
</a>
</g>
</g>
</g>
</svg>
