<?xml version="1.0" encoding="UTF-8" standalone="no"?>
<!DOCTYPE svg PUBLIC "-//W3C//DTD SVG 1.1//EN"
 "http://www.w3.org/Graphics/SVG/1.1/DTD/svg11.dtd">
<!-- Generated by graphviz version 2.43.0 (0)
 -->
<!-- Title: WebServer::removeClientConnection Pages: 1 -->
<svg width="626pt" height="103pt"
 viewBox="0.00 0.00 626.00 103.00" xmlns="http://www.w3.org/2000/svg" xmlns:xlink="http://www.w3.org/1999/xlink">
<g id="graph0" class="graph" transform="scale(1 1) rotate(0) translate(4 99)">
<title>WebServer::removeClientConnection</title>
<!-- Node1 -->
<g id="Node000001" class="node">
<title>Node1</title>
<g id="a_Node000001"><a xlink:title="Removes a client connection and cleans up associated poll entry.">
<polygon fill="#999999" stroke="#666666" points="618,-57 422,-57 422,-38 618,-38 618,-57"/>
<text text-anchor="middle" x="520" y="-45" font-family="Helvetica,sans-Serif" font-size="10.00">WebServer::removeClientConnection</text>
</a>
</g>
</g>
<!-- Node2 -->
<g id="Node000002" class="node">
<title>Node2</title>
<g id="a_Node000002"><a xlink:href="classWebServer.html#a8cbf37c0a840305ce15e8648566c9ce4" target="_top" xlink:title="Handles incoming data from a connected client.">
<polygon fill="white" stroke="#666666" points="386,-95 235,-95 235,-76 386,-76 386,-95"/>
<text text-anchor="middle" x="310.5" y="-83" font-family="Helvetica,sans-Serif" font-size="10.00">WebServer::receiveRequest</text>
</a>
</g>
</g>
<!-- Node1&#45;&gt;Node2 -->
<g id="edge1_Node000001_Node000002" class="edge">
<title>Node1&#45;&gt;Node2</title>
<g id="a_edge1_Node000001_Node000002"><a xlink:title=" ">
<path fill="none" stroke="#63b8ff" d="M457.04,-58.85C427.27,-64.3 391.98,-70.76 363.61,-75.96"/>
<polygon fill="#63b8ff" stroke="#63b8ff" points="457.7,-62.28 466.91,-57.04 456.44,-55.4 457.7,-62.28"/>
</a>
</g>
</g>
<!-- Node3 -->
<g id="Node000003" class="node">
<title>Node3</title>
<g id="a_Node000003"><a xlink:href="classWebServer.html#af39709e3744077e019aa76555f03a42e" target="_top" xlink:title="Main event loop — monitors sockets, dispatches requests, and handles responses.">
<polygon fill="white" stroke="#666666" points="199,-57 77,-57 77,-38 199,-38 199,-57"/>
<text text-anchor="middle" x="138" y="-45" font-family="Helvetica,sans-Serif" font-size="10.00">WebServer::runServer</text>
</a>
</g>
</g>
<!-- Node1&#45;&gt;Node3 -->
<g id="edge4_Node000001_Node000003" class="edge">
<title>Node1&#45;&gt;Node3</title>
<g id="a_edge4_Node000001_Node000003"><a xlink:title=" ">
<path fill="none" stroke="#63b8ff" d="M411.61,-47.5C342.76,-47.5 255.94,-47.5 199.02,-47.5"/>
<polygon fill="#63b8ff" stroke="#63b8ff" points="411.63,-51 421.63,-47.5 411.63,-44 411.63,-51"/>
</a>
</g>
</g>
<!-- Node5 -->
<g id="Node000005" class="node">
<title>Node5</title>
<g id="a_Node000005"><a xlink:href="classWebServer.html#acbda203d0faed2cb204ee17908e1c2c3" target="_top" xlink:title="Sends buffered response data to a connected client.">
<polygon fill="white" stroke="#666666" points="383.5,-19 237.5,-19 237.5,0 383.5,0 383.5,-19"/>
<text text-anchor="middle" x="310.5" y="-7" font-family="Helvetica,sans-Serif" font-size="10.00">WebServer::sendResponse</text>
</a>
</g>
</g>
<!-- Node1&#45;&gt;Node5 -->
<g id="edge5_Node000001_Node000005" class="edge">
<title>Node1&#45;&gt;Node5</title>
<g id="a_edge5_Node000001_Node000005"><a xlink:title=" ">
<path fill="none" stroke="#63b8ff" d="M457.04,-36.15C427.27,-30.7 391.98,-24.24 363.61,-19.04"/>
<polygon fill="#63b8ff" stroke="#63b8ff" points="456.44,-39.6 466.91,-37.96 457.7,-32.72 456.44,-39.6"/>
</a>
</g>
</g>
<!-- Node2&#45;&gt;Node3 -->
<g id="edge2_Node000002_Node000003" class="edge">
<title>Node2&#45;&gt;Node3</title>
<g id="a_edge2_Node000002_Node000003"><a xlink:title=" ">
<path fill="none" stroke="#63b8ff" d="M256.45,-73.68C232.41,-68.32 204.37,-62.07 181.71,-57.02"/>
<polygon fill="#63b8ff" stroke="#63b8ff" points="255.95,-77.15 266.48,-75.91 257.48,-70.32 255.95,-77.15"/>
</a>
</g>
</g>
<!-- Node4 -->
<g id="Node000004" class="node">
<title>Node4</title>
<g id="a_Node000004"><a xlink:href="main_8cpp.html#a3c04138a5bfe5d72780bb7e82a18e627" target="_top" xlink:title="Entry point of the Webservinho web server.">
<polygon fill="white" stroke="#666666" points="41,-57 0,-57 0,-38 41,-38 41,-57"/>
<text text-anchor="middle" x="20.5" y="-45" font-family="Helvetica,sans-Serif" font-size="10.00">main</text>
</a>
</g>
</g>
<!-- Node3&#45;&gt;Node4 -->
<g id="edge3_Node000003_Node000004" class="edge">
<title>Node3&#45;&gt;Node4</title>
<g id="a_edge3_Node000003_Node000004"><a xlink:title=" ">
<path fill="none" stroke="#63b8ff" d="M66.66,-47.5C57.35,-47.5 48.51,-47.5 41.15,-47.5"/>
<polygon fill="#63b8ff" stroke="#63b8ff" points="66.88,-51 76.88,-47.5 66.88,-44 66.88,-51"/>
</a>
</g>
</g>
<!-- Node5&#45;&gt;Node3 -->
<g id="edge6_Node000005_Node000003" class="edge">
<title>Node5&#45;&gt;Node3</title>
<g id="a_edge6_Node000005_Node000003"><a xlink:title=" ">
<path fill="none" stroke="#63b8ff" d="M256.45,-21.32C232.41,-26.68 204.37,-32.93 181.71,-37.98"/>
<polygon fill="#63b8ff" stroke="#63b8ff" points="257.48,-24.68 266.48,-19.09 255.95,-17.85 257.48,-24.68"/>
</a>
</g>
</g>
</g>
</svg>
