<?xml version="1.0" encoding="UTF-8" standalone="no"?>
<!DOCTYPE svg PUBLIC "-//W3C//DTD SVG 1.1//EN"
 "http://www.w3.org/Graphics/SVG/1.1/DTD/svg11.dtd">
<!-- Generated by graphviz version 2.43.0 (0)
 -->
<!-- Title: RequestMeta::isChunked Pages: 1 -->
<svg width="1120pt" height="46pt"
 viewBox="0.00 0.00 1120.00 46.00" xmlns="http://www.w3.org/2000/svg" xmlns:xlink="http://www.w3.org/1999/xlink">
<g id="graph0" class="graph" transform="scale(1 1) rotate(0) translate(4 42)">
<title>RequestMeta::isChunked</title>
<!-- Node1 -->
<g id="Node000001" class="node">
<title>Node1</title>
<g id="a_Node000001"><a xlink:title="Returns true if transfer encoding is chunked.">
<polygon fill="#999999" stroke="#666666" points="1112,-19 975,-19 975,0 1112,0 1112,-19"/>
<text text-anchor="middle" x="1043.5" y="-7" font-family="Helvetica,sans-Serif" font-size="10.00">RequestMeta::isChunked</text>
</a>
</g>
</g>
<!-- Node2 -->
<g id="Node000002" class="node">
<title>Node2</title>
<g id="a_Node000002"><a xlink:href="classRequestParse.html#ab81826a3c30d9a2a4f9d0f8ee6fa855c" target="_top" xlink:title="Processes the message body for both fixed&#45;length and chunked modes.">
<polygon fill="white" stroke="#666666" points="939,-38 826,-38 826,-19 939,-19 939,-38"/>
<text text-anchor="middle" x="882.5" y="-26" font-family="Helvetica,sans-Serif" font-size="10.00">RequestParse::body</text>
</a>
</g>
</g>
<!-- Node1&#45;&gt;Node2 -->
<g id="edge1_Node000001_Node000002" class="edge">
<title>Node1&#45;&gt;Node2</title>
<g id="a_edge1_Node000001_Node000002"><a xlink:title=" ">
<path fill="none" stroke="#63b8ff" d="M964.58,-18.81C956.01,-19.84 947.41,-20.86 939.18,-21.85"/>
<polygon fill="#63b8ff" stroke="#63b8ff" points="965.09,-22.27 974.61,-17.61 964.26,-15.32 965.09,-22.27"/>
</a>
</g>
</g>
<!-- Node3 -->
<g id="Node000003" class="node">
<title>Node3</title>
<g id="a_Node000003"><a xlink:href="classRequestParse.html#a5f2f35f5815fbb977cde05b19af41687" target="_top" xlink:title="Parses and processes raw HTTP request data incrementally.">
<polygon fill="white" stroke="#666666" points="790,-19 608,-19 608,0 790,0 790,-19"/>
<text text-anchor="middle" x="699" y="-7" font-family="Helvetica,sans-Serif" font-size="10.00">RequestParse::handleRawRequest</text>
</a>
</g>
</g>
<!-- Node1&#45;&gt;Node3 -->
<g id="edge7_Node000001_Node000003" class="edge">
<title>Node1&#45;&gt;Node3</title>
<g id="a_edge7_Node000001_Node000003"><a xlink:title=" ">
<path fill="none" stroke="#63b8ff" d="M964.69,-9.5C912.83,-9.5 844.48,-9.5 790.24,-9.5"/>
<polygon fill="#63b8ff" stroke="#63b8ff" points="964.83,-13 974.83,-9.5 964.83,-6 964.83,-13"/>
</a>
</g>
</g>
<!-- Node2&#45;&gt;Node3 -->
<g id="edge2_Node000002_Node000003" class="edge">
<title>Node2&#45;&gt;Node3</title>
<g id="a_edge2_Node000002_Node000003"><a xlink:title=" ">
<path fill="none" stroke="#63b8ff" d="M815.34,-21.57C807.14,-20.72 798.64,-19.83 790.15,-18.94"/>
<polygon fill="#63b8ff" stroke="#63b8ff" points="815.25,-25.08 825.56,-22.64 815.98,-18.12 815.25,-25.08"/>
</a>
</g>
</g>
<!-- Node4 -->
<g id="Node000004" class="node">
<title>Node4</title>
<g id="a_Node000004"><a xlink:href="classClientConnection.html#a835586ce27b3c3598394bde3fff14211" target="_top" xlink:title="Receives incoming data from the client socket.">
<polygon fill="white" stroke="#666666" points="572,-19 422,-19 422,0 572,0 572,-19"/>
<text text-anchor="middle" x="497" y="-7" font-family="Helvetica,sans-Serif" font-size="10.00">ClientConnection::recvData</text>
</a>
</g>
</g>
<!-- Node3&#45;&gt;Node4 -->
<g id="edge3_Node000003_Node000004" class="edge">
<title>Node3&#45;&gt;Node4</title>
<g id="a_edge3_Node000003_Node000004"><a xlink:title=" ">
<path fill="none" stroke="#63b8ff" d="M597.86,-9.5C589.25,-9.5 580.64,-9.5 572.29,-9.5"/>
<polygon fill="#63b8ff" stroke="#63b8ff" points="597.95,-13 607.95,-9.5 597.95,-6 597.95,-13"/>
</a>
</g>
</g>
<!-- Node5 -->
<g id="Node000005" class="node">
<title>Node5</title>
<g id="a_Node000005"><a xlink:href="classWebServer.html#a8cbf37c0a840305ce15e8648566c9ce4" target="_top" xlink:title="Handles incoming data from a connected client.">
<polygon fill="white" stroke="#666666" points="386,-19 235,-19 235,0 386,0 386,-19"/>
<text text-anchor="middle" x="310.5" y="-7" font-family="Helvetica,sans-Serif" font-size="10.00">WebServer::receiveRequest</text>
</a>
</g>
</g>
<!-- Node4&#45;&gt;Node5 -->
<g id="edge4_Node000004_Node000005" class="edge">
<title>Node4&#45;&gt;Node5</title>
<g id="a_edge4_Node000004_Node000005"><a xlink:title=" ">
<path fill="none" stroke="#63b8ff" d="M411.51,-9.5C403.07,-9.5 394.53,-9.5 386.19,-9.5"/>
<polygon fill="#63b8ff" stroke="#63b8ff" points="411.75,-13 421.75,-9.5 411.75,-6 411.75,-13"/>
</a>
</g>
</g>
<!-- Node6 -->
<g id="Node000006" class="node">
<title>Node6</title>
<g id="a_Node000006"><a xlink:href="classWebServer.html#af39709e3744077e019aa76555f03a42e" target="_top" xlink:title="Main event loop — monitors sockets, dispatches requests, and handles responses.">
<polygon fill="white" stroke="#666666" points="199,-19 77,-19 77,0 199,0 199,-19"/>
<text text-anchor="middle" x="138" y="-7" font-family="Helvetica,sans-Serif" font-size="10.00">WebServer::runServer</text>
</a>
</g>
</g>
<!-- Node5&#45;&gt;Node6 -->
<g id="edge5_Node000005_Node000006" class="edge">
<title>Node5&#45;&gt;Node6</title>
<g id="a_edge5_Node000005_Node000006"><a xlink:title=" ">
<path fill="none" stroke="#63b8ff" d="M224.63,-9.5C216.02,-9.5 207.4,-9.5 199.13,-9.5"/>
<polygon fill="#63b8ff" stroke="#63b8ff" points="224.72,-13 234.72,-9.5 224.72,-6 224.72,-13"/>
</a>
</g>
</g>
<!-- Node7 -->
<g id="Node000007" class="node">
<title>Node7</title>
<g id="a_Node000007"><a xlink:href="main_8cpp.html#a3c04138a5bfe5d72780bb7e82a18e627" target="_top" xlink:title="Entry point of the Webservinho web server.">
<polygon fill="white" stroke="#666666" points="41,-19 0,-19 0,0 41,0 41,-19"/>
<text text-anchor="middle" x="20.5" y="-7" font-family="Helvetica,sans-Serif" font-size="10.00">main</text>
</a>
</g>
</g>
<!-- Node6&#45;&gt;Node7 -->
<g id="edge6_Node000006_Node000007" class="edge">
<title>Node6&#45;&gt;Node7</title>
<g id="a_edge6_Node000006_Node000007"><a xlink:title=" ">
<path fill="none" stroke="#63b8ff" d="M66.66,-9.5C57.35,-9.5 48.51,-9.5 41.15,-9.5"/>
<polygon fill="#63b8ff" stroke="#63b8ff" points="66.88,-13 76.88,-9.5 66.88,-6 66.88,-13"/>
</a>
</g>
</g>
</g>
</svg>
