<?xml version="1.0" encoding="UTF-8" standalone="no"?>
<!DOCTYPE svg PUBLIC "-//W3C//DTD SVG 1.1//EN"
 "http://www.w3.org/Graphics/SVG/1.1/DTD/svg11.dtd">
<!-- Generated by graphviz version 2.43.0 (0)
 -->
<!-- Title: HttpRequest::setResolvedPath Pages: 1 -->
<svg width="1073pt" height="64pt"
 viewBox="0.00 0.00 1073.00 64.00" xmlns="http://www.w3.org/2000/svg" xmlns:xlink="http://www.w3.org/1999/xlink">
<g id="graph0" class="graph" transform="scale(1 1) rotate(0) translate(4 60)">
<title>HttpRequest::setResolvedPath</title>
<!-- Node1 -->
<g id="Node000001" class="node">
<title>Node1</title>
<g id="a_Node000001"><a xlink:title="Sets the absolute filesystem path resolved from the URI.">
<polygon fill="#999999" stroke="#666666" points="1065,-37 901,-37 901,-18 1065,-18 1065,-37"/>
<text text-anchor="middle" x="983" y="-25" font-family="Helvetica,sans-Serif" font-size="10.00">HttpRequest::setResolvedPath</text>
</a>
</g>
</g>
<!-- Node2 -->
<g id="Node000002" class="node">
<title>Node2</title>
<g id="a_Node000002"><a xlink:href="classRouter.html#a8155613701b9739e2ae1e34c39894247" target="_top" xlink:title="Computes the absolute filesystem path of the requested resource.">
<polygon fill="white" stroke="#666666" points="865,-56 701,-56 701,-37 865,-37 865,-56"/>
<text text-anchor="middle" x="783" y="-44" font-family="Helvetica,sans-Serif" font-size="10.00">Router::computeResolvedPath</text>
</a>
</g>
</g>
<!-- Node1&#45;&gt;Node2 -->
<g id="edge1_Node000001_Node000002" class="edge">
<title>Node1&#45;&gt;Node2</title>
<g id="a_edge1_Node000001_Node000002"><a xlink:title=" ">
<path fill="none" stroke="#63b8ff" d="M890.92,-36.24C882.37,-37.06 873.75,-37.89 865.3,-38.7"/>
<polygon fill="#63b8ff" stroke="#63b8ff" points="891.27,-39.72 900.89,-35.28 890.61,-32.75 891.27,-39.72"/>
</a>
</g>
</g>
<!-- Node8 -->
<g id="Node000008" class="node">
<title>Node8</title>
<g id="a_Node000008"><a xlink:href="classRouter.html#a8cd6b5ac09c54dff06c42498379d96b8" target="_top" xlink:title="Checks if the resolved path corresponds to a static file.">
<polygon fill="white" stroke="#666666" points="837,-19 729,-19 729,0 837,0 837,-19"/>
<text text-anchor="middle" x="783" y="-7" font-family="Helvetica,sans-Serif" font-size="10.00">Router::isStaticFile</text>
</a>
</g>
</g>
<!-- Node1&#45;&gt;Node8 -->
<g id="edge7_Node000001_Node000008" class="edge">
<title>Node1&#45;&gt;Node8</title>
<g id="a_edge7_Node000001_Node000008"><a xlink:title=" ">
<path fill="none" stroke="#63b8ff" d="M890.76,-19.21C872.43,-17.54 853.74,-15.84 837.23,-14.34"/>
<polygon fill="#63b8ff" stroke="#63b8ff" points="890.62,-22.71 900.89,-20.13 891.25,-15.74 890.62,-22.71"/>
</a>
</g>
</g>
<!-- Node3 -->
<g id="Node000003" class="node">
<title>Node3</title>
<g id="a_Node000003"><a xlink:href="classRouter.html#aa58c0c6f2a1fc66a6e2a78adfae162e6" target="_top" xlink:title="Main entry point for determining how an HTTP request should be handled.">
<polygon fill="white" stroke="#666666" points="665,-37 574,-37 574,-18 665,-18 665,-37"/>
<text text-anchor="middle" x="619.5" y="-25" font-family="Helvetica,sans-Serif" font-size="10.00">Router::resolve</text>
</a>
</g>
</g>
<!-- Node2&#45;&gt;Node3 -->
<g id="edge2_Node000002_Node000003" class="edge">
<title>Node2&#45;&gt;Node3</title>
<g id="a_edge2_Node000002_Node000003"><a xlink:title=" ">
<path fill="none" stroke="#63b8ff" d="M690.75,-35.76C681.92,-34.73 673.25,-33.71 665.19,-32.76"/>
<polygon fill="#63b8ff" stroke="#63b8ff" points="690.44,-39.25 700.78,-36.94 691.25,-32.3 690.44,-39.25"/>
</a>
</g>
</g>
<!-- Node4 -->
<g id="Node000004" class="node">
<title>Node4</title>
<g id="a_Node000004"><a xlink:href="classDispatcher.html#a13c8a2fd90033adf9788c8774c3f0f47" target="_top" xlink:title="Central dispatch routine that delegates HTTP requests to the appropriate handler.">
<polygon fill="white" stroke="#666666" points="538,-37 422,-37 422,-18 538,-18 538,-37"/>
<text text-anchor="middle" x="480" y="-25" font-family="Helvetica,sans-Serif" font-size="10.00">Dispatcher::dispatch</text>
</a>
</g>
</g>
<!-- Node3&#45;&gt;Node4 -->
<g id="edge3_Node000003_Node000004" class="edge">
<title>Node3&#45;&gt;Node4</title>
<g id="a_edge3_Node000003_Node000004"><a xlink:title=" ">
<path fill="none" stroke="#63b8ff" d="M563.85,-27.5C555.5,-27.5 546.86,-27.5 538.45,-27.5"/>
<polygon fill="#63b8ff" stroke="#63b8ff" points="563.86,-31 573.86,-27.5 563.86,-24 563.86,-31"/>
</a>
</g>
</g>
<!-- Node5 -->
<g id="Node000005" class="node">
<title>Node5</title>
<g id="a_Node000005"><a xlink:href="classWebServer.html#a8cbf37c0a840305ce15e8648566c9ce4" target="_top" xlink:title="Handles incoming data from a connected client.">
<polygon fill="white" stroke="#666666" points="386,-37 235,-37 235,-18 386,-18 386,-37"/>
<text text-anchor="middle" x="310.5" y="-25" font-family="Helvetica,sans-Serif" font-size="10.00">WebServer::receiveRequest</text>
</a>
</g>
</g>
<!-- Node4&#45;&gt;Node5 -->
<g id="edge4_Node000004_Node000005" class="edge">
<title>Node4&#45;&gt;Node5</title>
<g id="a_edge4_Node000004_Node000005"><a xlink:title=" ">
<path fill="none" stroke="#63b8ff" d="M411.72,-27.5C403.32,-27.5 394.69,-27.5 386.19,-27.5"/>
<polygon fill="#63b8ff" stroke="#63b8ff" points="411.82,-31 421.82,-27.5 411.82,-24 411.82,-31"/>
</a>
</g>
</g>
<!-- Node6 -->
<g id="Node000006" class="node">
<title>Node6</title>
<g id="a_Node000006"><a xlink:href="classWebServer.html#af39709e3744077e019aa76555f03a42e" target="_top" xlink:title="Main event loop — monitors sockets, dispatches requests, and handles responses.">
<polygon fill="white" stroke="#666666" points="199,-37 77,-37 77,-18 199,-18 199,-37"/>
<text text-anchor="middle" x="138" y="-25" font-family="Helvetica,sans-Serif" font-size="10.00">WebServer::runServer</text>
</a>
</g>
</g>
<!-- Node5&#45;&gt;Node6 -->
<g id="edge5_Node000005_Node000006" class="edge">
<title>Node5&#45;&gt;Node6</title>
<g id="a_edge5_Node000005_Node000006"><a xlink:title=" ">
<path fill="none" stroke="#63b8ff" d="M224.63,-27.5C216.02,-27.5 207.4,-27.5 199.13,-27.5"/>
<polygon fill="#63b8ff" stroke="#63b8ff" points="224.72,-31 234.72,-27.5 224.72,-24 224.72,-31"/>
</a>
</g>
</g>
<!-- Node7 -->
<g id="Node000007" class="node">
<title>Node7</title>
<g id="a_Node000007"><a xlink:href="main_8cpp.html#a3c04138a5bfe5d72780bb7e82a18e627" target="_top" xlink:title="Entry point of the Webservinho web server.">
<polygon fill="white" stroke="#666666" points="41,-37 0,-37 0,-18 41,-18 41,-37"/>
<text text-anchor="middle" x="20.5" y="-25" font-family="Helvetica,sans-Serif" font-size="10.00">main</text>
</a>
</g>
</g>
<!-- Node6&#45;&gt;Node7 -->
<g id="edge6_Node000006_Node000007" class="edge">
<title>Node6&#45;&gt;Node7</title>
<g id="a_edge6_Node000006_Node000007"><a xlink:title=" ">
<path fill="none" stroke="#63b8ff" d="M66.66,-27.5C57.35,-27.5 48.51,-27.5 41.15,-27.5"/>
<polygon fill="#63b8ff" stroke="#63b8ff" points="66.88,-31 76.88,-27.5 66.88,-24 66.88,-31"/>
</a>
</g>
</g>
<!-- Node8&#45;&gt;Node3 -->
<g id="edge8_Node000008_Node000003" class="edge">
<title>Node8&#45;&gt;Node3</title>
<g id="a_edge8_Node000008_Node000003"><a xlink:title=" ">
<path fill="none" stroke="#63b8ff" d="M718.35,-16.59C700.55,-18.58 681.59,-20.69 665.14,-22.52"/>
<polygon fill="#63b8ff" stroke="#63b8ff" points="719.12,-20.03 728.67,-15.44 718.35,-13.07 719.12,-20.03"/>
</a>
</g>
</g>
</g>
</svg>
