<?xml version="1.0" encoding="UTF-8" standalone="no"?>
<!DOCTYPE svg PUBLIC "-//W3C//DTD SVG 1.1//EN"
 "http://www.w3.org/Graphics/SVG/1.1/DTD/svg11.dtd">
<!-- Generated by graphviz version 2.43.0 (0)
 -->
<!-- Title: HttpRequest::HttpRequest Pages: 1 -->
<svg width="373pt" height="458pt"
 viewBox="0.00 0.00 373.00 458.00" xmlns="http://www.w3.org/2000/svg" xmlns:xlink="http://www.w3.org/1999/xlink">
<g id="graph0" class="graph" transform="scale(1 1) rotate(0) translate(4 454)">
<title>HttpRequest::HttpRequest</title>
<!-- Node1 -->
<g id="Node000001" class="node">
<title>Node1</title>
<g id="a_Node000001"><a xlink:title="Constructs a new HttpRequest with default initialized state.">
<polygon fill="#999999" stroke="#666666" points="144,-231 0,-231 0,-212 144,-212 144,-231"/>
<text text-anchor="middle" x="72" y="-219" font-family="Helvetica,sans-Serif" font-size="10.00">HttpRequest::HttpRequest</text>
</a>
</g>
</g>
<!-- Node2 -->
<g id="Node000002" class="node">
<title>Node2</title>
<g id="a_Node000002"><a xlink:href="classHttpRequest.html#afee0e84f22f6d1226023d40f4a75c17a" target="_top" xlink:title="Returns a const reference to the RequestMeta structure.">
<polygon fill="white" stroke="#666666" points="334.5,-450 210.5,-450 210.5,-431 334.5,-431 334.5,-450"/>
<text text-anchor="middle" x="272.5" y="-438" font-family="Helvetica,sans-Serif" font-size="10.00">HttpRequest::getMeta</text>
</a>
</g>
</g>
<!-- Node1&#45;&gt;Node2 -->
<g id="edge1_Node000001_Node000002" class="edge">
<title>Node1&#45;&gt;Node2</title>
<g id="a_edge1_Node000001_Node000002"><a xlink:title=" ">
<path fill="none" stroke="#63b8ff" d="M75.1,-231.42C82.66,-264.51 111.72,-371.88 180,-422.5 186.08,-427.01 192.99,-430.47 200.23,-433.12"/>
<polygon fill="#63b8ff" stroke="#63b8ff" points="199.66,-436.61 210.25,-436.24 201.74,-429.92 199.66,-436.61"/>
</a>
</g>
</g>
<!-- Node3 -->
<g id="Node000003" class="node">
<title>Node3</title>
<g id="a_Node000003"><a xlink:href="classRequestMeta.html#a360c94feb081bd7436c055c9f7ed1715" target="_top" xlink:title="Defines whether the request uses chunked transfer encoding.">
<polygon fill="white" stroke="#666666" points="344.5,-413 200.5,-413 200.5,-394 344.5,-394 344.5,-413"/>
<text text-anchor="middle" x="272.5" y="-401" font-family="Helvetica,sans-Serif" font-size="10.00">RequestMeta::setChunked</text>
</a>
</g>
</g>
<!-- Node1&#45;&gt;Node3 -->
<g id="edge2_Node000001_Node000003" class="edge">
<title>Node1&#45;&gt;Node3</title>
<g id="a_edge2_Node000001_Node000003"><a xlink:title=" ">
<path fill="none" stroke="#63b8ff" d="M76.28,-231.12C86.55,-259.65 120.94,-344.33 180,-384.5 183.37,-386.8 186.97,-388.82 190.71,-390.61"/>
<polygon fill="#63b8ff" stroke="#63b8ff" points="189.68,-393.98 200.26,-394.59 192.37,-387.52 189.68,-393.98"/>
</a>
</g>
</g>
<!-- Node4 -->
<g id="Node000004" class="node">
<title>Node4</title>
<g id="a_Node000004"><a xlink:href="classRequestMeta.html#ad4f70f6ac25a37bd22eead55abc63a88" target="_top" xlink:title="Defines whether the connection should be closed after the response.">
<polygon fill="white" stroke="#666666" points="351,-375.5 194,-375.5 194,-345.5 351,-345.5 351,-375.5"/>
<text text-anchor="start" x="202" y="-363.5" font-family="Helvetica,sans-Serif" font-size="10.00">RequestMeta::setConnection</text>
<text text-anchor="middle" x="272.5" y="-352.5" font-family="Helvetica,sans-Serif" font-size="10.00">Close</text>
</a>
</g>
</g>
<!-- Node1&#45;&gt;Node4 -->
<g id="edge3_Node000001_Node000004" class="edge">
<title>Node1&#45;&gt;Node4</title>
<g id="a_edge3_Node000001_Node000004"><a xlink:title=" ">
<path fill="none" stroke="#63b8ff" d="M79.18,-231.25C93.82,-253.52 132.96,-308.37 180,-336.5 182.98,-338.28 186.09,-339.93 189.29,-341.46"/>
<polygon fill="#63b8ff" stroke="#63b8ff" points="187.95,-344.7 198.52,-345.46 190.73,-338.27 187.95,-344.7"/>
</a>
</g>
</g>
<!-- Node5 -->
<g id="Node000005" class="node">
<title>Node5</title>
<g id="a_Node000005"><a xlink:href="classRequestMeta.html#a7384f594ae41f8f0151e8875a663f795" target="_top" xlink:title="Sets the Content&#45;Length value for the request.">
<polygon fill="white" stroke="#666666" points="359,-327 186,-327 186,-308 359,-308 359,-327"/>
<text text-anchor="middle" x="272.5" y="-315" font-family="Helvetica,sans-Serif" font-size="10.00">RequestMeta::setContentLength</text>
</a>
</g>
</g>
<!-- Node1&#45;&gt;Node5 -->
<g id="edge4_Node000001_Node000005" class="edge">
<title>Node1&#45;&gt;Node5</title>
<g id="a_edge4_Node000001_Node000005"><a xlink:title=" ">
<path fill="none" stroke="#63b8ff" d="M82.97,-231.16C100.84,-247.88 140.19,-282.1 180,-299.5 184.79,-301.59 189.83,-303.45 194.98,-305.08"/>
<polygon fill="#63b8ff" stroke="#63b8ff" points="194.39,-308.56 204.97,-307.98 196.34,-301.84 194.39,-308.56"/>
</a>
</g>
</g>
<!-- Node6 -->
<g id="Node000006" class="node">
<title>Node6</title>
<g id="a_Node000006"><a xlink:href="classHttpRequest.html#aea8112da8cc0f4e056bcb57d18a54988" target="_top" xlink:title="Updates the size of the current chunk being parsed.">
<polygon fill="white" stroke="#666666" points="365,-290 180,-290 180,-271 365,-271 365,-290"/>
<text text-anchor="middle" x="272.5" y="-278" font-family="Helvetica,sans-Serif" font-size="10.00">HttpRequest::setCurrentChunkSize</text>
</a>
</g>
</g>
<!-- Node1&#45;&gt;Node6 -->
<g id="edge5_Node000001_Node000006" class="edge">
<title>Node1&#45;&gt;Node6</title>
<g id="a_edge5_Node000001_Node000006"><a xlink:title=" ">
<path fill="none" stroke="#63b8ff" d="M94.76,-231.11C116.11,-240.23 149.79,-253.81 180,-262.5 188.05,-264.82 196.59,-266.93 205.08,-268.83"/>
<polygon fill="#63b8ff" stroke="#63b8ff" points="204.49,-272.29 215,-270.96 205.96,-265.44 204.49,-272.29"/>
</a>
</g>
</g>
<!-- Node7 -->
<g id="Node000007" class="node">
<title>Node7</title>
<g id="a_Node000007"><a xlink:href="classRequestMeta.html#a023589236b86199328fac468381d4686" target="_top" xlink:title="Sets the Expect: 100&#45;continue flag for the request.">
<polygon fill="white" stroke="#666666" points="362,-253 183,-253 183,-234 362,-234 362,-253"/>
<text text-anchor="middle" x="272.5" y="-241" font-family="Helvetica,sans-Serif" font-size="10.00">RequestMeta::setExpectContinue</text>
</a>
</g>
</g>
<!-- Node1&#45;&gt;Node7 -->
<g id="edge6_Node000001_Node000007" class="edge">
<title>Node1&#45;&gt;Node7</title>
<g id="a_edge6_Node000001_Node000007"><a xlink:title=" ">
<path fill="none" stroke="#63b8ff" d="M144.1,-229.38C154.3,-230.51 164.94,-231.69 175.52,-232.86"/>
<polygon fill="#63b8ff" stroke="#63b8ff" points="175.31,-236.36 185.64,-233.98 176.08,-229.4 175.31,-236.36"/>
</a>
</g>
</g>
<!-- Node8 -->
<g id="Node000008" class="node">
<title>Node8</title>
<g id="a_Node000008"><a xlink:href="classHttpRequest.html#ad875e49b03abccaf092ecb49d5bdad31" target="_top" xlink:title=" ">
<polygon fill="white" stroke="#666666" points="345.5,-215.5 199.5,-215.5 199.5,-185.5 345.5,-185.5 345.5,-215.5"/>
<text text-anchor="start" x="207.5" y="-203.5" font-family="Helvetica,sans-Serif" font-size="10.00">HttpRequest::setExpecting</text>
<text text-anchor="middle" x="272.5" y="-192.5" font-family="Helvetica,sans-Serif" font-size="10.00">ChunkSeparator</text>
</a>
</g>
</g>
<!-- Node1&#45;&gt;Node8 -->
<g id="edge7_Node000001_Node000008" class="edge">
<title>Node1&#45;&gt;Node8</title>
<g id="a_edge7_Node000001_Node000008"><a xlink:title=" ">
<path fill="none" stroke="#63b8ff" d="M144.1,-213.98C158.65,-212.44 174.09,-210.81 189,-209.23"/>
<polygon fill="#63b8ff" stroke="#63b8ff" points="189.65,-212.68 199.22,-208.15 188.91,-205.72 189.65,-212.68"/>
</a>
</g>
</g>
<!-- Node9 -->
<g id="Node000009" class="node">
<title>Node9</title>
<g id="a_Node000009"><a xlink:href="classHttpRequest.html#a85d34306cf62cabb5a8174532029c023" target="_top" xlink:title="Sets the HTTP request method.">
<polygon fill="white" stroke="#666666" points="340,-167 205,-167 205,-148 340,-148 340,-167"/>
<text text-anchor="middle" x="272.5" y="-155" font-family="Helvetica,sans-Serif" font-size="10.00">HttpRequest::setMethod</text>
</a>
</g>
</g>
<!-- Node1&#45;&gt;Node9 -->
<g id="edge8_Node000001_Node000009" class="edge">
<title>Node1&#45;&gt;Node9</title>
<g id="a_edge8_Node000001_Node000009"><a xlink:title=" ">
<path fill="none" stroke="#63b8ff" d="M92.68,-211.86C113.83,-201.83 148.63,-186.25 180,-176.5 188.65,-173.81 197.87,-171.39 207.01,-169.25"/>
<polygon fill="#63b8ff" stroke="#63b8ff" points="207.88,-172.65 216.87,-167.04 206.34,-165.82 207.88,-172.65"/>
</a>
</g>
</g>
<!-- Node10 -->
<g id="Node000010" class="node">
<title>Node10</title>
<g id="a_Node000010"><a xlink:href="classHttpRequest.html#a4af8abc5368c893ba9bb24939cb95aa3" target="_top" xlink:title=" ">
<polygon fill="white" stroke="#666666" points="346.5,-130 198.5,-130 198.5,-111 346.5,-111 346.5,-130"/>
<text text-anchor="middle" x="272.5" y="-118" font-family="Helvetica,sans-Serif" font-size="10.00">HttpRequest::setParseError</text>
</a>
</g>
</g>
<!-- Node1&#45;&gt;Node10 -->
<g id="edge9_Node000001_Node000010" class="edge">
<title>Node1&#45;&gt;Node10</title>
<g id="a_edge9_Node000001_Node000010"><a xlink:title=" ">
<path fill="none" stroke="#63b8ff" d="M82.33,-211.92C99.8,-194.59 139.35,-158.11 180,-139.5 185.39,-137.03 191.1,-134.88 196.93,-133.01"/>
<polygon fill="#63b8ff" stroke="#63b8ff" points="198.22,-136.28 206.83,-130.12 196.25,-129.57 198.22,-136.28"/>
</a>
</g>
</g>
<!-- Node11 -->
<g id="Node000011" class="node">
<title>Node11</title>
<g id="a_Node000011"><a xlink:href="classHttpRequest.html#a966aa80a9d050cecf9f51d21a2959da7" target="_top" xlink:title=" ">
<polygon fill="white" stroke="#666666" points="365,-93 180,-93 180,-74 365,-74 365,-93"/>
<text text-anchor="middle" x="272.5" y="-81" font-family="Helvetica,sans-Serif" font-size="10.00">HttpRequest::setParsingChunkSize</text>
</a>
</g>
</g>
<!-- Node1&#45;&gt;Node11 -->
<g id="edge10_Node000001_Node000011" class="edge">
<title>Node1&#45;&gt;Node11</title>
<g id="a_edge10_Node000001_Node000011"><a xlink:title=" ">
<path fill="none" stroke="#63b8ff" d="M78.57,-211.92C92.47,-188.96 131.1,-130.6 180,-102.5 183.9,-100.26 188.04,-98.28 192.3,-96.53"/>
<polygon fill="#63b8ff" stroke="#63b8ff" points="193.62,-99.77 201.82,-93.06 191.22,-93.2 193.62,-99.77"/>
</a>
</g>
</g>
<!-- Node12 -->
<g id="Node000012" class="node">
<title>Node12</title>
<g id="a_Node000012"><a xlink:href="classRequestMeta.html#a340d195d3f4552366d501915c4a03714" target="_top" xlink:title="Sets whether this request is associated with a redirect.">
<polygon fill="white" stroke="#666666" points="344,-56 201,-56 201,-37 344,-37 344,-56"/>
<text text-anchor="middle" x="272.5" y="-44" font-family="Helvetica,sans-Serif" font-size="10.00">RequestMeta::setRedirect</text>
</a>
</g>
</g>
<!-- Node1&#45;&gt;Node12 -->
<g id="edge11_Node000001_Node000012" class="edge">
<title>Node1&#45;&gt;Node12</title>
<g id="a_edge11_Node000001_Node000012"><a xlink:title=" ">
<path fill="none" stroke="#63b8ff" d="M76.56,-211.9C87.36,-184.21 122.58,-103.71 180,-65.5 183.57,-63.12 187.38,-61.04 191.34,-59.2"/>
<polygon fill="#63b8ff" stroke="#63b8ff" points="192.86,-62.36 200.81,-55.37 190.23,-55.87 192.86,-62.36"/>
</a>
</g>
</g>
<!-- Node13 -->
<g id="Node000013" class="node">
<title>Node13</title>
<g id="a_Node000013"><a xlink:href="classHttpRequest.html#a15c0dff5d8350a2c71306638d30d5fe3" target="_top" xlink:title=" ">
<polygon fill="white" stroke="#666666" points="354.5,-19 190.5,-19 190.5,0 354.5,0 354.5,-19"/>
<text text-anchor="middle" x="272.5" y="-7" font-family="Helvetica,sans-Serif" font-size="10.00">HttpRequest::setRequestState</text>
</a>
</g>
</g>
<!-- Node1&#45;&gt;Node13 -->
<g id="edge12_Node000001_Node000013" class="edge">
<title>Node1&#45;&gt;Node13</title>
<g id="a_edge12_Node000001_Node000013"><a xlink:title=" ">
<path fill="none" stroke="#63b8ff" d="M75.25,-211.99C83.28,-180.27 113.67,-77.34 180,-28.5 182.53,-26.64 185.2,-24.95 187.98,-23.41"/>
<polygon fill="#63b8ff" stroke="#63b8ff" points="189.64,-26.5 197.16,-19.04 186.63,-20.18 189.64,-26.5"/>
</a>
</g>
</g>
</g>
</svg>
