<?xml version="1.0" encoding="UTF-8" standalone="no"?>
<!DOCTYPE svg PUBLIC "-//W3C//DTD SVG 1.1//EN"
 "http://www.w3.org/Graphics/SVG/1.1/DTD/svg11.dtd">
<!-- Generated by graphviz version 2.43.0 (0)
 -->
<!-- Title: ConfigParser::parseServerBlock Pages: 1 -->
<svg width="705pt" height="820pt"
 viewBox="0.00 0.00 705.00 820.00" xmlns="http://www.w3.org/2000/svg" xmlns:xlink="http://www.w3.org/1999/xlink">
<g id="graph0" class="graph" transform="scale(1 1) rotate(0) translate(4 816)">
<title>ConfigParser::parseServerBlock</title>
<!-- Node1 -->
<g id="Node000001" class="node">
<title>Node1</title>
<g id="a_Node000001"><a xlink:title="Parses a complete server {} block and adds it to Config.">
<polygon fill="#999999" stroke="#666666" points="142,-178.5 0,-178.5 0,-148.5 142,-148.5 142,-178.5"/>
<text text-anchor="start" x="8" y="-166.5" font-family="Helvetica,sans-Serif" font-size="10.00">ConfigParser::parseServer</text>
<text text-anchor="middle" x="71" y="-155.5" font-family="Helvetica,sans-Serif" font-size="10.00">Block</text>
</a>
</g>
</g>
<!-- Node2 -->
<g id="Node000002" class="node">
<title>Node2</title>
<g id="a_Node000002"><a xlink:href="classConfig.html#a02ceba7e01adf73a2dc7a5e9edc316ed" target="_top" xlink:title="Adds a new server configuration to the configuration set.">
<polygon fill="white" stroke="#666666" points="305.5,-574 202.5,-574 202.5,-555 305.5,-555 305.5,-574"/>
<text text-anchor="middle" x="254" y="-562" font-family="Helvetica,sans-Serif" font-size="10.00">Config::addServer</text>
</a>
</g>
</g>
<!-- Node1&#45;&gt;Node2 -->
<g id="edge1_Node000001_Node000002" class="edge">
<title>Node1&#45;&gt;Node2</title>
<g id="a_edge1_Node000001_Node000002"><a xlink:title=" ">
<path fill="none" stroke="#63b8ff" d="M71.52,-178.52C70.56,-234.54 74.84,-433.6 178,-540.5 182.26,-544.91 187.32,-548.51 192.79,-551.46"/>
<polygon fill="#63b8ff" stroke="#63b8ff" points="191.73,-554.82 202.28,-555.81 194.65,-548.46 191.73,-554.82"/>
</a>
</g>
</g>
<!-- Node3 -->
<g id="Node000003" class="node">
<title>Node3</title>
<g id="a_Node000003"><a xlink:href="classConfigParser.html#a6188c94ab0c7f0e867d5ffa2a5efb17e" target="_top" xlink:title="Utility: checks if next token matches the expected symbol.">
<polygon fill="white" stroke="#666666" points="512,-812 396,-812 396,-793 512,-793 512,-812"/>
<text text-anchor="middle" x="454" y="-800" font-family="Helvetica,sans-Serif" font-size="10.00">ConfigParser::expect</text>
</a>
</g>
</g>
<!-- Node1&#45;&gt;Node3 -->
<g id="edge2_Node000001_Node000003" class="edge">
<title>Node1&#45;&gt;Node3</title>
<g id="a_edge2_Node000001_Node000003"><a xlink:title=" ">
<path fill="none" stroke="#63b8ff" d="M71.8,-178.5C71.93,-231.82 79.85,-413.93 178,-507.5 228.48,-555.63 283.24,-494.76 330,-546.5 401.73,-625.87 292.42,-706.84 366,-784.5 371.66,-790.47 378.73,-794.73 386.39,-797.74"/>
<polygon fill="#63b8ff" stroke="#63b8ff" points="385.37,-801.09 395.96,-800.82 387.51,-794.43 385.37,-801.09"/>
</a>
</g>
</g>
<!-- Node4 -->
<g id="Node000004" class="node">
<title>Node4</title>
<g id="a_Node000004"><a xlink:href="classConfigParser.html#a41d0e0c0542002106e6e9e455df8cc59" target="_top" xlink:title="Parses &quot;client_max_body_size&quot; directive with suffixes (K, M, G).">
<polygon fill="white" stroke="#666666" points="323.5,-226.5 184.5,-226.5 184.5,-196.5 323.5,-196.5 323.5,-226.5"/>
<text text-anchor="start" x="192.5" y="-214.5" font-family="Helvetica,sans-Serif" font-size="10.00">ConfigParser::parseClient</text>
<text text-anchor="middle" x="254" y="-203.5" font-family="Helvetica,sans-Serif" font-size="10.00">BodySize</text>
</a>
</g>
</g>
<!-- Node1&#45;&gt;Node4 -->
<g id="edge3_Node000001_Node000004" class="edge">
<title>Node1&#45;&gt;Node4</title>
<g id="a_edge3_Node000001_Node000004"><a xlink:title=" ">
<path fill="none" stroke="#63b8ff" d="M128.77,-178.56C147.14,-183.43 167.66,-188.87 186.66,-193.91"/>
<polygon fill="#63b8ff" stroke="#63b8ff" points="185.87,-197.32 196.43,-196.5 187.66,-190.55 185.87,-197.32"/>
</a>
</g>
</g>
<!-- Node6 -->
<g id="Node000006" class="node">
<title>Node6</title>
<g id="a_Node000006"><a xlink:href="classConfigParser.html#ad66827cd7be60417c1598e4b0003e1c1" target="_top" xlink:title="Parses a &quot;listen&quot; directive into IP:port pair.">
<polygon fill="white" stroke="#666666" points="324,-178.5 184,-178.5 184,-148.5 324,-148.5 324,-178.5"/>
<text text-anchor="start" x="192" y="-166.5" font-family="Helvetica,sans-Serif" font-size="10.00">ConfigParser::parseListen</text>
<text text-anchor="middle" x="254" y="-155.5" font-family="Helvetica,sans-Serif" font-size="10.00">Interface</text>
</a>
</g>
</g>
<!-- Node1&#45;&gt;Node6 -->
<g id="edge5_Node000001_Node000006" class="edge">
<title>Node1&#45;&gt;Node6</title>
<g id="a_edge5_Node000001_Node000006"><a xlink:title=" ">
<path fill="none" stroke="#63b8ff" d="M142.24,-163.5C152.63,-163.5 163.4,-163.5 173.95,-163.5"/>
<polygon fill="#63b8ff" stroke="#63b8ff" points="173.99,-167 183.99,-163.5 173.99,-160 173.99,-167"/>
</a>
</g>
</g>
<!-- Node11 -->
<g id="Node000011" class="node">
<title>Node11</title>
<g id="a_Node000011"><a xlink:href="classConfigParser.html#a99a7670aacf418332702850134b4e4ca" target="_top" xlink:title="Parses a location block and adds it to the current server.">
<polygon fill="white" stroke="#666666" points="330,-498.5 178,-498.5 178,-468.5 330,-468.5 330,-498.5"/>
<text text-anchor="start" x="186" y="-486.5" font-family="Helvetica,sans-Serif" font-size="10.00">ConfigParser::parseLocation</text>
<text text-anchor="middle" x="254" y="-475.5" font-family="Helvetica,sans-Serif" font-size="10.00">Block</text>
</a>
</g>
</g>
<!-- Node1&#45;&gt;Node11 -->
<g id="edge10_Node000001_Node000011" class="edge">
<title>Node1&#45;&gt;Node11</title>
<g id="a_edge10_Node000001_Node000011"><a xlink:title=" ">
<path fill="none" stroke="#63b8ff" d="M80.49,-178.51C109.34,-229.51 203.81,-396.54 239.33,-459.34"/>
<polygon fill="#63b8ff" stroke="#63b8ff" points="236.35,-461.17 244.32,-468.16 242.44,-457.73 236.35,-461.17"/>
</a>
</g>
</g>
<!-- Node26 -->
<g id="Node000026" class="node">
<title>Node26</title>
<g id="a_Node000026"><a xlink:href="classServerConfig.html#a8f784c384fec1f0573a319c1da6bf6db" target="_top" xlink:title="Enables or disables autoindex globally for the server.">
<polygon fill="white" stroke="#666666" points="328.5,-130 179.5,-130 179.5,-111 328.5,-111 328.5,-130"/>
<text text-anchor="middle" x="254" y="-118" font-family="Helvetica,sans-Serif" font-size="10.00">ServerConfig::setAutoindex</text>
</a>
</g>
</g>
<!-- Node1&#45;&gt;Node26 -->
<g id="edge26_Node000001_Node000026" class="edge">
<title>Node1&#45;&gt;Node26</title>
<g id="a_edge26_Node000001_Node000026"><a xlink:title=" ">
<path fill="none" stroke="#63b8ff" d="M135.31,-148.46C157.47,-143.2 182.03,-137.36 202.96,-132.39"/>
<polygon fill="#63b8ff" stroke="#63b8ff" points="204,-135.74 212.92,-130.02 202.38,-128.93 204,-135.74"/>
</a>
</g>
</g>
<!-- Node27 -->
<g id="Node000027" class="node">
<title>Node27</title>
<g id="a_Node000027"><a xlink:href="classServerConfig.html#af898de48e307e096dbac0808f7353878" target="_top" xlink:title="Associates a custom error page with an HTTP status code.">
<polygon fill="white" stroke="#666666" points="327,-93 181,-93 181,-74 327,-74 327,-93"/>
<text text-anchor="middle" x="254" y="-81" font-family="Helvetica,sans-Serif" font-size="10.00">ServerConfig::setErrorPage</text>
</a>
</g>
</g>
<!-- Node1&#45;&gt;Node27 -->
<g id="edge27_Node000001_Node000027" class="edge">
<title>Node1&#45;&gt;Node27</title>
<g id="a_edge27_Node000001_Node000027"><a xlink:title=" ">
<path fill="none" stroke="#63b8ff" d="M94.24,-148.28C115.08,-134.62 147.5,-114.86 178,-102.5 183.96,-100.08 190.32,-97.9 196.72,-95.96"/>
<polygon fill="#63b8ff" stroke="#63b8ff" points="198.09,-99.21 206.75,-93.1 196.17,-92.48 198.09,-99.21"/>
</a>
</g>
</g>
<!-- Node28 -->
<g id="Node000028" class="node">
<title>Node28</title>
<g id="a_Node000028"><a xlink:href="classServerConfig.html#a0ded1329bab47f9ae44187c2b98f93d0" target="_top" xlink:title="Sets the default index file (e.g., &quot;index.html&quot;).">
<polygon fill="white" stroke="#666666" points="326,-56 182,-56 182,-37 326,-37 326,-56"/>
<text text-anchor="middle" x="254" y="-44" font-family="Helvetica,sans-Serif" font-size="10.00">ServerConfig::setIndexFile</text>
</a>
</g>
</g>
<!-- Node1&#45;&gt;Node28 -->
<g id="edge28_Node000001_Node000028" class="edge">
<title>Node1&#45;&gt;Node28</title>
<g id="a_edge28_Node000001_Node000028"><a xlink:title=" ">
<path fill="none" stroke="#63b8ff" d="M83.93,-148.18C101.89,-126.19 138.08,-85.97 178,-64.5 181.48,-62.63 185.16,-60.95 188.94,-59.44"/>
<polygon fill="#63b8ff" stroke="#63b8ff" points="190.25,-62.69 198.5,-56.04 187.9,-56.09 190.25,-62.69"/>
</a>
</g>
</g>
<!-- Node29 -->
<g id="Node000029" class="node">
<title>Node29</title>
<g id="a_Node000029"><a xlink:href="classServerConfig.html#aedf2857c76797e9f3938cf357b4d6b67" target="_top" xlink:title="Defines the root directory for this server.">
<polygon fill="white" stroke="#666666" points="315,-19 193,-19 193,0 315,0 315,-19"/>
<text text-anchor="middle" x="254" y="-7" font-family="Helvetica,sans-Serif" font-size="10.00">ServerConfig::setRoot</text>
</a>
</g>
</g>
<!-- Node1&#45;&gt;Node29 -->
<g id="edge29_Node000001_Node000029" class="edge">
<title>Node1&#45;&gt;Node29</title>
<g id="a_edge29_Node000001_Node000029"><a xlink:title=" ">
<path fill="none" stroke="#63b8ff" d="M79.5,-148.08C94.21,-119.56 129.68,-58.62 178,-27.5 180.48,-25.9 183.09,-24.45 185.79,-23.12"/>
<polygon fill="#63b8ff" stroke="#63b8ff" points="187.41,-26.23 195.24,-19.09 184.66,-19.79 187.41,-26.23"/>
</a>
</g>
</g>
<!-- Node5 -->
<g id="Node000005" class="node">
<title>Node5</title>
<g id="a_Node000005"><a xlink:href="classServerConfig.html#a8ff368bdd1c0a9bc6d5ff80a1caefa26" target="_top" xlink:title="Defines the maximum allowed body size (in bytes).">
<polygon fill="white" stroke="#666666" points="528.5,-221.5 379.5,-221.5 379.5,-191.5 528.5,-191.5 528.5,-221.5"/>
<text text-anchor="start" x="387.5" y="-209.5" font-family="Helvetica,sans-Serif" font-size="10.00">ServerConfig::setClientMax</text>
<text text-anchor="middle" x="454" y="-198.5" font-family="Helvetica,sans-Serif" font-size="10.00">BodySize</text>
</a>
</g>
</g>
<!-- Node4&#45;&gt;Node5 -->
<g id="edge4_Node000004_Node000005" class="edge">
<title>Node4&#45;&gt;Node5</title>
<g id="a_edge4_Node000004_Node000005"><a xlink:title=" ">
<path fill="none" stroke="#63b8ff" d="M323.7,-209.77C338.31,-209.4 353.89,-209 369,-208.62"/>
<polygon fill="#63b8ff" stroke="#63b8ff" points="369.46,-212.11 379.37,-208.36 369.28,-205.11 369.46,-212.11"/>
</a>
</g>
</g>
<!-- Node7 -->
<g id="Node000007" class="node">
<title>Node7</title>
<g id="a_Node000007"><a xlink:href="classLogger.html#a4aa4d7c3b98f6e12e7ea8253da5ea0cd" target="_top" xlink:title="Returns the singleton instance of the Logger.">
<polygon fill="white" stroke="#666666" points="502.5,-173 405.5,-173 405.5,-154 502.5,-154 502.5,-173"/>
<text text-anchor="middle" x="454" y="-161" font-family="Helvetica,sans-Serif" font-size="10.00">Logger::instance</text>
</a>
</g>
</g>
<!-- Node6&#45;&gt;Node7 -->
<g id="edge6_Node000006_Node000007" class="edge">
<title>Node6&#45;&gt;Node7</title>
<g id="a_edge6_Node000006_Node000007"><a xlink:title=" ">
<path fill="none" stroke="#63b8ff" d="M324.25,-163.5C347.36,-163.5 372.84,-163.5 395,-163.5"/>
<polygon fill="#63b8ff" stroke="#63b8ff" points="395.26,-167 405.26,-163.5 395.26,-160 395.26,-167"/>
</a>
</g>
</g>
<!-- Node8 -->
<g id="Node000008" class="node">
<title>Node8</title>
<g id="a_Node000008"><a xlink:href="classLogger.html#a3d3f0801eeaf39b33a906ea8569c19b2" target="_top" xlink:title="Writes a log entry with timestamp, level, and message.">
<polygon fill="white" stroke="#666666" points="489.5,-136 418.5,-136 418.5,-117 489.5,-117 489.5,-136"/>
<text text-anchor="middle" x="454" y="-124" font-family="Helvetica,sans-Serif" font-size="10.00">Logger::log</text>
</a>
</g>
</g>
<!-- Node6&#45;&gt;Node8 -->
<g id="edge7_Node000006_Node000008" class="edge">
<title>Node6&#45;&gt;Node8</title>
<g id="a_edge7_Node000006_Node000008"><a xlink:title=" ">
<path fill="none" stroke="#63b8ff" d="M324.25,-150.56C352.18,-145.34 383.6,-139.47 408.41,-134.83"/>
<polygon fill="#63b8ff" stroke="#63b8ff" points="409.07,-138.27 418.26,-132.99 407.79,-131.39 409.07,-138.27"/>
</a>
</g>
</g>
<!-- Node10 -->
<g id="Node000010" class="node">
<title>Node10</title>
<g id="a_Node000010"><a xlink:href="classServerConfig.html#a59a6b8c51bca5e4d6da765a8a9bd6388" target="_top" xlink:title="Sets the listening interface for this server.">
<polygon fill="white" stroke="#666666" points="540.5,-99 367.5,-99 367.5,-80 540.5,-80 540.5,-99"/>
<text text-anchor="middle" x="454" y="-87" font-family="Helvetica,sans-Serif" font-size="10.00">ServerConfig::setListenInterface</text>
</a>
</g>
</g>
<!-- Node6&#45;&gt;Node10 -->
<g id="edge9_Node000006_Node000010" class="edge">
<title>Node6&#45;&gt;Node10</title>
<g id="a_edge9_Node000006_Node000010"><a xlink:title=" ">
<path fill="none" stroke="#63b8ff" d="M310.95,-148.37C317.54,-145.79 324.04,-142.84 330,-139.5 348.42,-129.19 347.11,-117.93 366,-108.5 370.84,-106.08 375.99,-103.97 381.26,-102.13"/>
<polygon fill="#63b8ff" stroke="#63b8ff" points="382.38,-105.45 390.85,-99.09 380.26,-98.77 382.38,-105.45"/>
</a>
</g>
</g>
<!-- Node9 -->
<g id="Node000009" class="node">
<title>Node9</title>
<g id="a_Node000009"><a xlink:href="classLogger.html#a19f9ef22095a67c9fe420c9d6e761fc2" target="_top" xlink:title="Converts a LogLevel enum value to its string label.">
<polygon fill="white" stroke="#666666" points="697,-136 578,-136 578,-117 697,-117 697,-136"/>
<text text-anchor="middle" x="637.5" y="-124" font-family="Helvetica,sans-Serif" font-size="10.00">Logger::levelToString</text>
</a>
</g>
</g>
<!-- Node8&#45;&gt;Node9 -->
<g id="edge8_Node000008_Node000009" class="edge">
<title>Node8&#45;&gt;Node9</title>
<g id="a_edge8_Node000008_Node000009"><a xlink:title=" ">
<path fill="none" stroke="#63b8ff" d="M489.57,-126.5C511.64,-126.5 541.02,-126.5 567.7,-126.5"/>
<polygon fill="#63b8ff" stroke="#63b8ff" points="567.78,-130 577.78,-126.5 567.78,-123 567.78,-130"/>
</a>
</g>
</g>
<!-- Node11&#45;&gt;Node3 -->
<g id="edge13_Node000011_Node000003" class="edge">
<title>Node11&#45;&gt;Node3</title>
<g id="a_edge13_Node000011_Node000003"><a xlink:title=" ">
<path fill="none" stroke="#63b8ff" d="M313.42,-498.53C319.75,-502.21 325.51,-506.8 330,-512.5 405.41,-608.33 282.95,-695.21 366,-784.5 371.6,-790.52 378.64,-794.82 386.28,-797.84"/>
<polygon fill="#63b8ff" stroke="#63b8ff" points="385.25,-801.19 395.84,-800.93 387.4,-794.53 385.25,-801.19"/>
</a>
</g>
</g>
<!-- Node12 -->
<g id="Node000012" class="node">
<title>Node12</title>
<g id="a_Node000012"><a xlink:href="classLocationConfig.html#a0dbc1def632966c3091c627917f0cd63" target="_top" xlink:title="Adds an extension&#45;handler pair for CGI execution.">
<polygon fill="white" stroke="#666666" points="542,-775 366,-775 366,-756 542,-756 542,-775"/>
<text text-anchor="middle" x="454" y="-763" font-family="Helvetica,sans-Serif" font-size="10.00">LocationConfig::addCgiExtension</text>
</a>
</g>
</g>
<!-- Node11&#45;&gt;Node12 -->
<g id="edge11_Node000011_Node000012" class="edge">
<title>Node11&#45;&gt;Node12</title>
<g id="a_edge11_Node000011_Node000012"><a xlink:title=" ">
<path fill="none" stroke="#63b8ff" d="M313.31,-498.62C319.66,-502.28 325.45,-506.84 330,-512.5 396.19,-594.86 293.25,-670.87 366,-747.5 366.67,-748.21 367.37,-748.9 368.08,-749.56"/>
<polygon fill="#63b8ff" stroke="#63b8ff" points="366.27,-752.57 376.36,-755.79 370.48,-746.98 366.27,-752.57"/>
</a>
</g>
</g>
<!-- Node13 -->
<g id="Node000013" class="node">
<title>Node13</title>
<g id="a_Node000013"><a xlink:href="classServerConfig.html#a6eba0775d2b1b31242740a9ff53d4364" target="_top" xlink:title="Adds a new LocationConfig to the server.">
<polygon fill="white" stroke="#666666" points="526,-738 382,-738 382,-719 526,-719 526,-738"/>
<text text-anchor="middle" x="454" y="-726" font-family="Helvetica,sans-Serif" font-size="10.00">ServerConfig::addLocation</text>
</a>
</g>
</g>
<!-- Node11&#45;&gt;Node13 -->
<g id="edge12_Node000011_Node000013" class="edge">
<title>Node11&#45;&gt;Node13</title>
<g id="a_edge12_Node000011_Node000013"><a xlink:title=" ">
<path fill="none" stroke="#63b8ff" d="M312.79,-498.53C319.3,-502.22 325.28,-506.8 330,-512.5 386.74,-581.07 304.15,-645.49 366,-709.5 368.12,-711.69 370.42,-713.65 372.87,-715.42"/>
<polygon fill="#63b8ff" stroke="#63b8ff" points="371.33,-718.57 381.72,-720.66 374.9,-712.55 371.33,-718.57"/>
</a>
</g>
</g>
<!-- Node14 -->
<g id="Node000014" class="node">
<title>Node14</title>
<g id="a_Node000014"><a xlink:href="classLocationConfig.html#a4eeda49130a29cbb64e48b845976821e" target="_top" xlink:title=" ">
<polygon fill="white" stroke="#666666" points="530,-700.5 378,-700.5 378,-670.5 530,-670.5 530,-700.5"/>
<text text-anchor="start" x="386" y="-688.5" font-family="Helvetica,sans-Serif" font-size="10.00">LocationConfig::getHasAuto</text>
<text text-anchor="middle" x="454" y="-677.5" font-family="Helvetica,sans-Serif" font-size="10.00">Index</text>
</a>
</g>
</g>
<!-- Node11&#45;&gt;Node14 -->
<g id="edge14_Node000011_Node000014" class="edge">
<title>Node11&#45;&gt;Node14</title>
<g id="a_edge14_Node000011_Node000014"><a xlink:title=" ">
<path fill="none" stroke="#63b8ff" d="M312.12,-498.58C318.82,-502.26 325.03,-506.83 330,-512.5 374.89,-563.74 318.61,-612.56 366,-661.5 367.09,-662.63 368.23,-663.7 369.41,-664.73"/>
<polygon fill="#63b8ff" stroke="#63b8ff" points="367.61,-667.74 377.75,-670.8 371.73,-662.09 367.61,-667.74"/>
</a>
</g>
</g>
<!-- Node15 -->
<g id="Node000015" class="node">
<title>Node15</title>
<g id="a_Node000015"><a xlink:href="classLocationConfig.html#a7e9d4ee69ce1e4da6e16b24053335540" target="_top" xlink:title=" ">
<polygon fill="white" stroke="#666666" points="532,-652.5 376,-652.5 376,-622.5 532,-622.5 532,-652.5"/>
<text text-anchor="start" x="384" y="-640.5" font-family="Helvetica,sans-Serif" font-size="10.00">LocationConfig::getHasIndex</text>
<text text-anchor="middle" x="454" y="-629.5" font-family="Helvetica,sans-Serif" font-size="10.00">Files</text>
</a>
</g>
</g>
<!-- Node11&#45;&gt;Node15 -->
<g id="edge15_Node000011_Node000015" class="edge">
<title>Node11&#45;&gt;Node15</title>
<g id="a_edge15_Node000011_Node000015"><a xlink:title=" ">
<path fill="none" stroke="#63b8ff" d="M310.82,-498.69C317.89,-502.36 324.55,-506.9 330,-512.5 363.25,-546.64 331.09,-581.06 366,-613.5 367.15,-614.57 368.34,-615.59 369.57,-616.56"/>
<polygon fill="#63b8ff" stroke="#63b8ff" points="367.93,-619.68 378.17,-622.37 371.84,-613.88 367.93,-619.68"/>
</a>
</g>
</g>
<!-- Node16 -->
<g id="Node000016" class="node">
<title>Node16</title>
<g id="a_Node000016"><a xlink:href="classLocationConfig.html#af10d1ad36f0f3a7a3119e054efd88b8b" target="_top" xlink:title=" ">
<polygon fill="white" stroke="#666666" points="530,-604 378,-604 378,-585 530,-585 530,-604"/>
<text text-anchor="middle" x="454" y="-592" font-family="Helvetica,sans-Serif" font-size="10.00">LocationConfig::getHasRoot</text>
</a>
</g>
</g>
<!-- Node11&#45;&gt;Node16 -->
<g id="edge16_Node000011_Node000016" class="edge">
<title>Node11&#45;&gt;Node16</title>
<g id="a_edge16_Node000011_Node000016"><a xlink:title=" ">
<path fill="none" stroke="#63b8ff" d="M308.05,-498.64C315.93,-502.36 323.56,-506.93 330,-512.5 354.67,-533.86 339.65,-557.24 366,-576.5 367.87,-577.87 369.82,-579.14 371.84,-580.32"/>
<polygon fill="#63b8ff" stroke="#63b8ff" points="370.53,-583.57 381.04,-584.91 373.66,-577.31 370.53,-583.57"/>
</a>
</g>
</g>
<!-- Node17 -->
<g id="Node000017" class="node">
<title>Node17</title>
<g id="a_Node000017"><a xlink:href="classConfigParser.html#a560c0318ac8a3a868f5222327f3e7b57" target="_top" xlink:title="Converts a lowercase string token into a RequestMethod enumeration.">
<polygon fill="white" stroke="#666666" points="527.5,-567 380.5,-567 380.5,-548 527.5,-548 527.5,-567"/>
<text text-anchor="middle" x="454" y="-555" font-family="Helvetica,sans-Serif" font-size="10.00">ConfigParser::parseMethod</text>
</a>
</g>
</g>
<!-- Node11&#45;&gt;Node17 -->
<g id="edge17_Node000011_Node000017" class="edge">
<title>Node11&#45;&gt;Node17</title>
<g id="a_edge17_Node000011_Node000017"><a xlink:title=" ">
<path fill="none" stroke="#63b8ff" d="M299.94,-498.56C310.07,-502.59 320.6,-507.29 330,-512.5 347.49,-522.2 347.77,-531.28 366,-539.5 370.63,-541.59 375.5,-543.43 380.48,-545.07"/>
<polygon fill="#63b8ff" stroke="#63b8ff" points="379.58,-548.45 390.16,-547.96 381.58,-541.75 379.58,-548.45"/>
</a>
</g>
</g>
<!-- Node18 -->
<g id="Node000018" class="node">
<title>Node18</title>
<g id="a_Node000018"><a xlink:href="classLocationConfig.html#a52b3e401c3b59f5fb1166310c2bf8ae0" target="_top" xlink:title="Enables or disables directory listing (autoindex).">
<polygon fill="white" stroke="#666666" points="533.5,-530 374.5,-530 374.5,-511 533.5,-511 533.5,-530"/>
<text text-anchor="middle" x="454" y="-518" font-family="Helvetica,sans-Serif" font-size="10.00">LocationConfig::setAutoindex</text>
</a>
</g>
</g>
<!-- Node11&#45;&gt;Node18 -->
<g id="edge18_Node000011_Node000018" class="edge">
<title>Node11&#45;&gt;Node18</title>
<g id="a_edge18_Node000011_Node000018"><a xlink:title=" ">
<path fill="none" stroke="#63b8ff" d="M330.14,-497.54C350.54,-501.35 372.38,-505.43 391.9,-509.08"/>
<polygon fill="#63b8ff" stroke="#63b8ff" points="391.41,-512.55 401.88,-510.95 392.69,-505.67 391.41,-512.55"/>
</a>
</g>
</g>
<!-- Node19 -->
<g id="Node000019" class="node">
<title>Node19</title>
<g id="a_Node000019"><a xlink:href="classLocationConfig.html#a4871be53fb5569ae7cf1e33bfada0323" target="_top" xlink:title="Sets the path to the CGI executable.">
<polygon fill="white" stroke="#666666" points="527,-493 381,-493 381,-474 527,-474 527,-493"/>
<text text-anchor="middle" x="454" y="-481" font-family="Helvetica,sans-Serif" font-size="10.00">LocationConfig::setCgiPath</text>
</a>
</g>
</g>
<!-- Node11&#45;&gt;Node19 -->
<g id="edge19_Node000011_Node000019" class="edge">
<title>Node11&#45;&gt;Node19</title>
<g id="a_edge19_Node000011_Node000019"><a xlink:title=" ">
<path fill="none" stroke="#63b8ff" d="M330.14,-483.5C343.39,-483.5 357.25,-483.5 370.68,-483.5"/>
<polygon fill="#63b8ff" stroke="#63b8ff" points="370.86,-487 380.86,-483.5 370.86,-480 370.86,-487"/>
</a>
</g>
</g>
<!-- Node20 -->
<g id="Node000020" class="node">
<title>Node20</title>
<g id="a_Node000020"><a xlink:href="classLocationConfig.html#a1173dea22f3b63e2b9ff5c43510b0dc9" target="_top" xlink:title="Defines the default index file for this location.">
<polygon fill="white" stroke="#666666" points="522.5,-456 385.5,-456 385.5,-437 522.5,-437 522.5,-456"/>
<text text-anchor="middle" x="454" y="-444" font-family="Helvetica,sans-Serif" font-size="10.00">LocationConfig::setIndex</text>
</a>
</g>
</g>
<!-- Node11&#45;&gt;Node20 -->
<g id="edge20_Node000011_Node000020" class="edge">
<title>Node11&#45;&gt;Node20</title>
<g id="a_edge20_Node000011_Node000020"><a xlink:title=" ">
<path fill="none" stroke="#63b8ff" d="M330.14,-469.46C350.54,-465.65 372.38,-461.57 391.9,-457.92"/>
<polygon fill="#63b8ff" stroke="#63b8ff" points="392.69,-461.33 401.88,-456.05 391.41,-454.45 392.69,-461.33"/>
</a>
</g>
</g>
<!-- Node21 -->
<g id="Node000021" class="node">
<title>Node21</title>
<g id="a_Node000021"><a xlink:href="classLocationConfig.html#a9a80290a8b4bc948f9041ddd2547ece4" target="_top" xlink:title="Sets the list of allowed HTTP methods.">
<polygon fill="white" stroke="#666666" points="530,-419 378,-419 378,-400 530,-400 530,-419"/>
<text text-anchor="middle" x="454" y="-407" font-family="Helvetica,sans-Serif" font-size="10.00">LocationConfig::setMethods</text>
</a>
</g>
</g>
<!-- Node11&#45;&gt;Node21 -->
<g id="edge21_Node000011_Node000021" class="edge">
<title>Node11&#45;&gt;Node21</title>
<g id="a_edge21_Node000011_Node000021"><a xlink:title=" ">
<path fill="none" stroke="#63b8ff" d="M281.12,-468.27C303.12,-456 335.76,-439.11 366,-428.5 373.57,-425.84 381.65,-423.48 389.71,-421.41"/>
<polygon fill="#63b8ff" stroke="#63b8ff" points="390.63,-424.79 399.51,-419.02 388.97,-417.99 390.63,-424.79"/>
</a>
</g>
</g>
<!-- Node22 -->
<g id="Node000022" class="node">
<title>Node22</title>
<g id="a_Node000022"><a xlink:href="classLocationConfig.html#a46184880a603b58940a464ebb9c4b77c" target="_top" xlink:title="Sets the HTTP redirection rule (status, URL).">
<polygon fill="white" stroke="#666666" points="525,-382 383,-382 383,-363 525,-363 525,-382"/>
<text text-anchor="middle" x="454" y="-370" font-family="Helvetica,sans-Serif" font-size="10.00">LocationConfig::setReturn</text>
</a>
</g>
</g>
<!-- Node11&#45;&gt;Node22 -->
<g id="edge22_Node000011_Node000022" class="edge">
<title>Node11&#45;&gt;Node22</title>
<g id="a_edge22_Node000011_Node000022"><a xlink:title=" ">
<path fill="none" stroke="#63b8ff" d="M268.81,-468.17C288.36,-447.46 326.18,-410.91 366,-391.5 370.95,-389.09 376.21,-386.98 381.59,-385.13"/>
<polygon fill="#63b8ff" stroke="#63b8ff" points="382.87,-388.4 391.38,-382.09 380.79,-381.72 382.87,-388.4"/>
</a>
</g>
</g>
<!-- Node23 -->
<g id="Node000023" class="node">
<title>Node23</title>
<g id="a_Node000023"><a xlink:href="classLocationConfig.html#ad1cdc0a2ef75f2efa6b5255cce7286ea" target="_top" xlink:title="Sets the root directory for this location.">
<polygon fill="white" stroke="#666666" points="520,-345 388,-345 388,-326 520,-326 520,-345"/>
<text text-anchor="middle" x="454" y="-333" font-family="Helvetica,sans-Serif" font-size="10.00">LocationConfig::setRoot</text>
</a>
</g>
</g>
<!-- Node11&#45;&gt;Node23 -->
<g id="edge23_Node000011_Node000023" class="edge">
<title>Node11&#45;&gt;Node23</title>
<g id="a_edge23_Node000011_Node000023"><a xlink:title=" ">
<path fill="none" stroke="#63b8ff" d="M263.46,-468.36C279.6,-440.98 317.53,-383.4 366,-354.5 369.84,-352.21 373.92,-350.2 378.14,-348.43"/>
<polygon fill="#63b8ff" stroke="#63b8ff" points="379.41,-351.69 387.56,-344.92 376.96,-345.13 379.41,-351.69"/>
</a>
</g>
</g>
<!-- Node24 -->
<g id="Node000024" class="node">
<title>Node24</title>
<g id="a_Node000024"><a xlink:href="classLocationConfig.html#a29d368d1cc6ae21a7cf880159ca0e712" target="_top" xlink:title="Enables or disables file upload for this location.">
<polygon fill="white" stroke="#666666" points="526,-307.5 382,-307.5 382,-277.5 526,-277.5 526,-307.5"/>
<text text-anchor="start" x="390" y="-295.5" font-family="Helvetica,sans-Serif" font-size="10.00">LocationConfig::setUpload</text>
<text text-anchor="middle" x="454" y="-284.5" font-family="Helvetica,sans-Serif" font-size="10.00">Enabled</text>
</a>
</g>
</g>
<!-- Node11&#45;&gt;Node24 -->
<g id="edge24_Node000011_Node000024" class="edge">
<title>Node11&#45;&gt;Node24</title>
<g id="a_edge24_Node000011_Node000024"><a xlink:title=" ">
<path fill="none" stroke="#63b8ff" d="M260.97,-468.03C274.48,-435.14 310.56,-357.98 366,-317.5 368.67,-315.55 371.48,-313.76 374.4,-312.1"/>
<polygon fill="#63b8ff" stroke="#63b8ff" points="376.08,-315.17 383.43,-307.54 372.93,-308.93 376.08,-315.17"/>
</a>
</g>
</g>
<!-- Node25 -->
<g id="Node000025" class="node">
<title>Node25</title>
<g id="a_Node000025"><a xlink:href="classLocationConfig.html#a81921c69bff5933cb0087c4c5c2a9c1b" target="_top" xlink:title="Defines the upload directory for incoming files.">
<polygon fill="white" stroke="#666666" points="536.5,-259 371.5,-259 371.5,-240 536.5,-240 536.5,-259"/>
<text text-anchor="middle" x="454" y="-247" font-family="Helvetica,sans-Serif" font-size="10.00">LocationConfig::setUploadPath</text>
</a>
</g>
</g>
<!-- Node11&#45;&gt;Node25 -->
<g id="edge25_Node000011_Node000025" class="edge">
<title>Node11&#45;&gt;Node25</title>
<g id="a_edge25_Node000011_Node000025"><a xlink:title=" ">
<path fill="none" stroke="#63b8ff" d="M258.13,-468.42C267.16,-428.82 297.19,-321.32 366,-268.5 368.36,-266.69 370.85,-265.05 373.45,-263.55"/>
<polygon fill="#63b8ff" stroke="#63b8ff" points="375.2,-266.59 382.62,-259.03 372.1,-260.31 375.2,-266.59"/>
</a>
</g>
</g>
</g>
</svg>
