<?xml version="1.0" encoding="UTF-8" standalone="no"?>
<!DOCTYPE svg PUBLIC "-//W3C//DTD SVG 1.1//EN"
 "http://www.w3.org/Graphics/SVG/1.1/DTD/svg11.dtd">
<!-- Generated by graphviz version 2.43.0 (0)
 -->
<!-- Title: HttpRequest::getResolvedPath Pages: 1 -->
<svg width="1087pt" height="329pt"
 viewBox="0.00 0.00 1087.00 329.00" xmlns="http://www.w3.org/2000/svg" xmlns:xlink="http://www.w3.org/1999/xlink">
<g id="graph0" class="graph" transform="scale(1 1) rotate(0) translate(4 325)">
<title>HttpRequest::getResolvedPath</title>
<!-- Node1 -->
<g id="Node000001" class="node">
<title>Node1</title>
<g id="a_Node000001"><a xlink:title="Returns the resolved filesystem path corresponding to the URI.">
<polygon fill="#999999" stroke="#666666" points="1079,-169 914,-169 914,-150 1079,-150 1079,-169"/>
<text text-anchor="middle" x="996.5" y="-157" font-family="Helvetica,sans-Serif" font-size="10.00">HttpRequest::getResolvedPath</text>
</a>
</g>
</g>
<!-- Node2 -->
<g id="Node000002" class="node">
<title>Node2</title>
<g id="a_Node000002"><a xlink:href="classCgiHandler.html#a61c5a0066d14988001792da45dba2207" target="_top" xlink:title="Builds the CGI environment variables array (envp).">
<polygon fill="white" stroke="#666666" points="878,-321 753,-321 753,-302 878,-302 878,-321"/>
<text text-anchor="middle" x="815.5" y="-309" font-family="Helvetica,sans-Serif" font-size="10.00">CgiHandler::buildEnvp</text>
</a>
</g>
</g>
<!-- Node1&#45;&gt;Node2 -->
<g id="edge1_Node000001_Node000002" class="edge">
<title>Node1&#45;&gt;Node2</title>
<g id="a_edge1_Node000001_Node000002"><a xlink:title=" ">
<path fill="none" stroke="#63b8ff" d="M983.2,-177.46C963.75,-204.66 923.4,-256.43 878,-287.5 869.3,-293.45 858.91,-298.23 849.17,-301.9"/>
<polygon fill="#63b8ff" stroke="#63b8ff" points="986.09,-179.44 988.97,-169.24 980.36,-175.41 986.09,-179.44"/>
</a>
</g>
</g>
<!-- Node3 -->
<g id="Node000003" class="node">
<title>Node3</title>
<g id="a_Node000003"><a xlink:href="classCgiHandler.html#aa5b570b370a65926aaedd54b61350e58" target="_top" xlink:title="Starts an asynchronous CGI execution process.">
<polygon fill="white" stroke="#666666" points="709.5,-283 581.5,-283 581.5,-264 709.5,-264 709.5,-283"/>
<text text-anchor="middle" x="645.5" y="-271" font-family="Helvetica,sans-Serif" font-size="10.00">CgiHandler::startAsync</text>
</a>
</g>
</g>
<!-- Node1&#45;&gt;Node3 -->
<g id="edge21_Node000001_Node000003" class="edge">
<title>Node1&#45;&gt;Node3</title>
<g id="a_edge21_Node000001_Node000003"><a xlink:title=" ">
<path fill="none" stroke="#63b8ff" d="M979.45,-176.6C958.4,-197.78 919.29,-233.08 878,-249.5 823.93,-271 757.44,-275.91 709.61,-276.08"/>
<polygon fill="#63b8ff" stroke="#63b8ff" points="982.14,-178.85 986.6,-169.24 977.12,-173.98 982.14,-178.85"/>
</a>
</g>
</g>
<!-- Node4 -->
<g id="Node000004" class="node">
<title>Node4</title>
<g id="a_Node000004"><a xlink:href="classDispatcher.html#a13c8a2fd90033adf9788c8774c3f0f47" target="_top" xlink:title="Central dispatch routine that delegates HTTP requests to the appropriate handler.">
<polygon fill="white" stroke="#666666" points="538,-188 422,-188 422,-169 538,-169 538,-188"/>
<text text-anchor="middle" x="480" y="-176" font-family="Helvetica,sans-Serif" font-size="10.00">Dispatcher::dispatch</text>
</a>
</g>
</g>
<!-- Node1&#45;&gt;Node4 -->
<g id="edge7_Node000001_Node000004" class="edge">
<title>Node1&#45;&gt;Node4</title>
<g id="a_edge7_Node000001_Node000004"><a xlink:title=" ">
<path fill="none" stroke="#63b8ff" d="M959.53,-172.28C886.44,-196.5 715.52,-244.3 574,-216.5 546.45,-211.09 516.77,-197.45 498.53,-188.08"/>
<polygon fill="#63b8ff" stroke="#63b8ff" points="960.82,-175.54 969.18,-169.03 958.58,-168.9 960.82,-175.54"/>
</a>
</g>
</g>
<!-- Node8 -->
<g id="Node000008" class="node">
<title>Node8</title>
<g id="a_Node000008"><a xlink:href="classAutoIndexHandler.html#a19f63277112e5a0d50bb8d570527ce0a" target="_top" xlink:title="Generates and serves an HTML directory listing when autoindex is enabled.">
<polygon fill="white" stroke="#666666" points="717,-207 574,-207 574,-188 717,-188 717,-207"/>
<text text-anchor="middle" x="645.5" y="-195" font-family="Helvetica,sans-Serif" font-size="10.00">AutoIndexHandler::handle</text>
</a>
</g>
</g>
<!-- Node1&#45;&gt;Node8 -->
<g id="edge8_Node000001_Node000008" class="edge">
<title>Node1&#45;&gt;Node8</title>
<g id="a_edge8_Node000001_Node000008"><a xlink:title=" ">
<path fill="none" stroke="#63b8ff" d="M906.99,-170.19C897.21,-171.33 887.4,-172.45 878,-173.5 824.09,-179.51 763.06,-185.81 717.2,-190.45"/>
<polygon fill="#63b8ff" stroke="#63b8ff" points="907.62,-173.64 917.15,-169 906.81,-166.69 907.62,-173.64"/>
</a>
</g>
</g>
<!-- Node9 -->
<g id="Node000009" class="node">
<title>Node9</title>
<g id="a_Node000009"><a xlink:href="classDeleteHandler.html#a8817fc78dc56285c43b1047bddf39a1f" target="_top" xlink:title="Handles HTTP DELETE requests to remove files from the server.">
<polygon fill="white" stroke="#666666" points="708.5,-170 582.5,-170 582.5,-151 708.5,-151 708.5,-170"/>
<text text-anchor="middle" x="645.5" y="-158" font-family="Helvetica,sans-Serif" font-size="10.00">DeleteHandler::handle</text>
</a>
</g>
</g>
<!-- Node1&#45;&gt;Node9 -->
<g id="edge10_Node000001_Node000009" class="edge">
<title>Node1&#45;&gt;Node9</title>
<g id="a_edge10_Node000001_Node000009"><a xlink:title=" ">
<path fill="none" stroke="#63b8ff" d="M903.58,-159.76C842.12,-159.94 762.89,-160.17 708.73,-160.32"/>
<polygon fill="#63b8ff" stroke="#63b8ff" points="903.69,-163.26 913.68,-159.73 903.66,-156.26 903.69,-163.26"/>
</a>
</g>
</g>
<!-- Node10 -->
<g id="Node000010" class="node">
<title>Node10</title>
<g id="a_Node000010"><a xlink:href="classStaticPageHandler.html#a701db169c979ef5cfebc72f6c160fb32" target="_top" xlink:title="Handles serving static files from disk.">
<polygon fill="white" stroke="#666666" points="701.5,-132.5 589.5,-132.5 589.5,-102.5 701.5,-102.5 701.5,-132.5"/>
<text text-anchor="start" x="597.5" y="-120.5" font-family="Helvetica,sans-Serif" font-size="10.00">StaticPageHandler::</text>
<text text-anchor="middle" x="645.5" y="-109.5" font-family="Helvetica,sans-Serif" font-size="10.00">handle</text>
</a>
</g>
</g>
<!-- Node1&#45;&gt;Node10 -->
<g id="edge12_Node000001_Node000010" class="edge">
<title>Node1&#45;&gt;Node10</title>
<g id="a_edge12_Node000001_Node000010"><a xlink:title=" ">
<path fill="none" stroke="#63b8ff" d="M906.14,-148.75C841.66,-140.99 756.63,-130.75 701.76,-124.15"/>
<polygon fill="#63b8ff" stroke="#63b8ff" points="905.96,-152.25 916.31,-149.97 906.8,-145.3 905.96,-152.25"/>
</a>
</g>
</g>
<!-- Node11 -->
<g id="Node000011" class="node">
<title>Node11</title>
<g id="a_Node000011"><a xlink:href="classRouter.html#abc4267c8a267ca9baf524891e1443037" target="_top" xlink:title="Determines whether to enable AutoIndex for a directory listing.">
<polygon fill="white" stroke="#666666" points="872,-93 759,-93 759,-74 872,-74 872,-93"/>
<text text-anchor="middle" x="815.5" y="-81" font-family="Helvetica,sans-Serif" font-size="10.00">Router::isAutoIndex</text>
</a>
</g>
</g>
<!-- Node1&#45;&gt;Node11 -->
<g id="edge14_Node000001_Node000011" class="edge">
<title>Node1&#45;&gt;Node11</title>
<g id="a_edge14_Node000001_Node000011"><a xlink:title=" ">
<path fill="none" stroke="#63b8ff" d="M965.24,-145.66C941.6,-134.96 907.87,-119.93 878,-107.5 866.15,-102.57 852.9,-97.36 841.74,-93.06"/>
<polygon fill="#63b8ff" stroke="#63b8ff" points="963.84,-148.87 974.4,-149.82 966.74,-142.5 963.84,-148.87"/>
</a>
</g>
</g>
<!-- Node13 -->
<g id="Node000013" class="node">
<title>Node13</title>
<g id="a_Node000013"><a xlink:href="classRouter.html#a4c44c26c85603949ccaed27088e3d07c" target="_top" xlink:title="Determines if the request targets a valid CGI script.">
<polygon fill="white" stroke="#666666" points="855,-56 776,-56 776,-37 855,-37 855,-56"/>
<text text-anchor="middle" x="815.5" y="-44" font-family="Helvetica,sans-Serif" font-size="10.00">Router::isCgi</text>
</a>
</g>
</g>
<!-- Node1&#45;&gt;Node13 -->
<g id="edge17_Node000001_Node000013" class="edge">
<title>Node1&#45;&gt;Node13</title>
<g id="a_edge17_Node000001_Node000013"><a xlink:title=" ">
<path fill="none" stroke="#63b8ff" d="M979.1,-142.62C957.69,-121.5 918.18,-85.54 878,-64.5 870.9,-60.78 862.93,-57.74 855.14,-55.27"/>
<polygon fill="#63b8ff" stroke="#63b8ff" points="976.85,-145.32 986.38,-149.93 981.8,-140.38 976.85,-145.32"/>
</a>
</g>
</g>
<!-- Node14 -->
<g id="Node000014" class="node">
<title>Node14</title>
<g id="a_Node000014"><a xlink:href="classRouter.html#a8cd6b5ac09c54dff06c42498379d96b8" target="_top" xlink:title="Checks if the resolved path corresponds to a static file.">
<polygon fill="white" stroke="#666666" points="869.5,-19 761.5,-19 761.5,0 869.5,0 869.5,-19"/>
<text text-anchor="middle" x="815.5" y="-7" font-family="Helvetica,sans-Serif" font-size="10.00">Router::isStaticFile</text>
</a>
</g>
</g>
<!-- Node1&#45;&gt;Node14 -->
<g id="edge19_Node000001_Node000014" class="edge">
<title>Node1&#45;&gt;Node14</title>
<g id="a_edge19_Node000001_Node000014"><a xlink:title=" ">
<path fill="none" stroke="#63b8ff" d="M984.22,-141.29C965.61,-112.78 925.75,-57.71 878,-27.5 872.64,-24.11 866.62,-21.34 860.5,-19.07"/>
<polygon fill="#63b8ff" stroke="#63b8ff" points="981.37,-143.33 989.7,-149.87 987.27,-139.56 981.37,-143.33"/>
</a>
</g>
</g>
<!-- Node2&#45;&gt;Node3 -->
<g id="edge2_Node000002_Node000003" class="edge">
<title>Node2&#45;&gt;Node3</title>
<g id="a_edge2_Node000002_Node000003"><a xlink:title=" ">
<path fill="none" stroke="#63b8ff" d="M762.22,-299.68C738.54,-294.32 710.91,-288.07 688.59,-283.02"/>
<polygon fill="#63b8ff" stroke="#63b8ff" points="761.58,-303.12 772.11,-301.91 763.13,-296.29 761.58,-303.12"/>
</a>
</g>
</g>
<!-- Node3&#45;&gt;Node4 -->
<g id="edge3_Node000003_Node000004" class="edge">
<title>Node3&#45;&gt;Node4</title>
<g id="a_edge3_Node000003_Node000004"><a xlink:title=" ">
<path fill="none" stroke="#63b8ff" d="M599.48,-260.61C590.81,-257.46 581.96,-253.74 574,-249.5 541.02,-231.91 507.41,-202.93 491.11,-188.01"/>
<polygon fill="#63b8ff" stroke="#63b8ff" points="598.55,-263.99 609.14,-263.94 600.82,-257.37 598.55,-263.99"/>
</a>
</g>
</g>
<!-- Node5 -->
<g id="Node000005" class="node">
<title>Node5</title>
<g id="a_Node000005"><a xlink:href="classWebServer.html#a8cbf37c0a840305ce15e8648566c9ce4" target="_top" xlink:title="Handles incoming data from a connected client.">
<polygon fill="white" stroke="#666666" points="386,-188 235,-188 235,-169 386,-169 386,-188"/>
<text text-anchor="middle" x="310.5" y="-176" font-family="Helvetica,sans-Serif" font-size="10.00">WebServer::receiveRequest</text>
</a>
</g>
</g>
<!-- Node4&#45;&gt;Node5 -->
<g id="edge4_Node000004_Node000005" class="edge">
<title>Node4&#45;&gt;Node5</title>
<g id="a_edge4_Node000004_Node000005"><a xlink:title=" ">
<path fill="none" stroke="#63b8ff" d="M411.72,-178.5C403.32,-178.5 394.69,-178.5 386.19,-178.5"/>
<polygon fill="#63b8ff" stroke="#63b8ff" points="411.82,-182 421.82,-178.5 411.82,-175 411.82,-182"/>
</a>
</g>
</g>
<!-- Node6 -->
<g id="Node000006" class="node">
<title>Node6</title>
<g id="a_Node000006"><a xlink:href="classWebServer.html#af39709e3744077e019aa76555f03a42e" target="_top" xlink:title="Main event loop — monitors sockets, dispatches requests, and handles responses.">
<polygon fill="white" stroke="#666666" points="199,-188 77,-188 77,-169 199,-169 199,-188"/>
<text text-anchor="middle" x="138" y="-176" font-family="Helvetica,sans-Serif" font-size="10.00">WebServer::runServer</text>
</a>
</g>
</g>
<!-- Node5&#45;&gt;Node6 -->
<g id="edge5_Node000005_Node000006" class="edge">
<title>Node5&#45;&gt;Node6</title>
<g id="a_edge5_Node000005_Node000006"><a xlink:title=" ">
<path fill="none" stroke="#63b8ff" d="M224.63,-178.5C216.02,-178.5 207.4,-178.5 199.13,-178.5"/>
<polygon fill="#63b8ff" stroke="#63b8ff" points="224.72,-182 234.72,-178.5 224.72,-175 224.72,-182"/>
</a>
</g>
</g>
<!-- Node7 -->
<g id="Node000007" class="node">
<title>Node7</title>
<g id="a_Node000007"><a xlink:href="main_8cpp.html#a3c04138a5bfe5d72780bb7e82a18e627" target="_top" xlink:title="Entry point of the Webservinho web server.">
<polygon fill="white" stroke="#666666" points="41,-188 0,-188 0,-169 41,-169 41,-188"/>
<text text-anchor="middle" x="20.5" y="-176" font-family="Helvetica,sans-Serif" font-size="10.00">main</text>
</a>
</g>
</g>
<!-- Node6&#45;&gt;Node7 -->
<g id="edge6_Node000006_Node000007" class="edge">
<title>Node6&#45;&gt;Node7</title>
<g id="a_edge6_Node000006_Node000007"><a xlink:title=" ">
<path fill="none" stroke="#63b8ff" d="M66.66,-178.5C57.35,-178.5 48.51,-178.5 41.15,-178.5"/>
<polygon fill="#63b8ff" stroke="#63b8ff" points="66.88,-182 76.88,-178.5 66.88,-175 66.88,-182"/>
</a>
</g>
</g>
<!-- Node8&#45;&gt;Node4 -->
<g id="edge9_Node000008_Node000004" class="edge">
<title>Node8&#45;&gt;Node4</title>
<g id="a_edge9_Node000008_Node000004"><a xlink:title=" ">
<path fill="none" stroke="#63b8ff" d="M563.64,-188.1C555.01,-187.1 546.36,-186.1 538.09,-185.13"/>
<polygon fill="#63b8ff" stroke="#63b8ff" points="563.4,-191.6 573.74,-189.28 564.21,-184.65 563.4,-191.6"/>
</a>
</g>
</g>
<!-- Node9&#45;&gt;Node4 -->
<g id="edge11_Node000009_Node000004" class="edge">
<title>Node9&#45;&gt;Node4</title>
<g id="a_edge11_Node000009_Node000004"><a xlink:title=" ">
<path fill="none" stroke="#63b8ff" d="M572.23,-168.46C560.77,-169.72 549.05,-171.01 538,-172.22"/>
<polygon fill="#63b8ff" stroke="#63b8ff" points="572.66,-171.93 582.22,-167.36 571.9,-164.97 572.66,-171.93"/>
</a>
</g>
</g>
<!-- Node10&#45;&gt;Node4 -->
<g id="edge13_Node000010_Node000004" class="edge">
<title>Node10&#45;&gt;Node4</title>
<g id="a_edge13_Node000010_Node000004"><a xlink:title=" ">
<path fill="none" stroke="#63b8ff" d="M592.05,-135.91C585.95,-138.11 579.83,-140.34 574,-142.5 550.46,-151.23 523.75,-161.62 505.01,-168.99"/>
<polygon fill="#63b8ff" stroke="#63b8ff" points="593.32,-139.18 601.56,-132.51 590.96,-132.59 593.32,-139.18"/>
</a>
</g>
</g>
<!-- Node12 -->
<g id="Node000012" class="node">
<title>Node12</title>
<g id="a_Node000012"><a xlink:href="classRouter.html#aa58c0c6f2a1fc66a6e2a78adfae162e6" target="_top" xlink:title="Main entry point for determining how an HTTP request should be handled.">
<polygon fill="white" stroke="#666666" points="691,-70 600,-70 600,-51 691,-51 691,-70"/>
<text text-anchor="middle" x="645.5" y="-58" font-family="Helvetica,sans-Serif" font-size="10.00">Router::resolve</text>
</a>
</g>
</g>
<!-- Node11&#45;&gt;Node12 -->
<g id="edge15_Node000011_Node000012" class="edge">
<title>Node11&#45;&gt;Node12</title>
<g id="a_edge15_Node000011_Node000012"><a xlink:title=" ">
<path fill="none" stroke="#63b8ff" d="M748.61,-74.48C729.32,-71.84 708.69,-69.01 691.06,-66.6"/>
<polygon fill="#63b8ff" stroke="#63b8ff" points="748.18,-77.95 758.56,-75.84 749.13,-71.02 748.18,-77.95"/>
</a>
</g>
</g>
<!-- Node12&#45;&gt;Node4 -->
<g id="edge16_Node000012_Node000004" class="edge">
<title>Node12&#45;&gt;Node4</title>
<g id="a_edge16_Node000012_Node000004"><a xlink:title=" ">
<path fill="none" stroke="#63b8ff" d="M610.18,-74.06C598.3,-79.39 585.17,-86.03 574,-93.5 539.63,-116.47 505.32,-151.85 489.71,-168.8"/>
<polygon fill="#63b8ff" stroke="#63b8ff" points="611.59,-77.26 619.38,-70.07 608.81,-70.83 611.59,-77.26"/>
</a>
</g>
</g>
<!-- Node13&#45;&gt;Node12 -->
<g id="edge18_Node000013_Node000012" class="edge">
<title>Node13&#45;&gt;Node12</title>
<g id="a_edge18_Node000013_Node000012"><a xlink:title=" ">
<path fill="none" stroke="#63b8ff" d="M765.82,-50.56C742.24,-52.52 714.12,-54.86 691.1,-56.78"/>
<polygon fill="#63b8ff" stroke="#63b8ff" points="766.28,-54.03 775.96,-49.71 765.7,-47.05 766.28,-54.03"/>
</a>
</g>
</g>
<!-- Node14&#45;&gt;Node12 -->
<g id="edge20_Node000014_Node000012" class="edge">
<title>Node14&#45;&gt;Node12</title>
<g id="a_edge20_Node000014_Node000012"><a xlink:title=" ">
<path fill="none" stroke="#63b8ff" d="M771.83,-21.9C765.51,-23.76 759.08,-25.67 753,-27.5 727.24,-35.26 698.05,-44.32 676.76,-50.98"/>
<polygon fill="#63b8ff" stroke="#63b8ff" points="772.99,-25.2 781.6,-19.03 771.02,-18.49 772.99,-25.2"/>
</a>
</g>
</g>
</g>
</svg>
