<?xml version="1.0" encoding="UTF-8" standalone="no"?>
<!DOCTYPE svg PUBLIC "-//W3C//DTD SVG 1.1//EN"
 "http://www.w3.org/Graphics/SVG/1.1/DTD/svg11.dtd">
<!-- Generated by graphviz version 2.43.0 (0)
 -->
<!-- Title: ServerConfig::matchLocation Pages: 1 -->
<svg width="332pt" height="64pt"
 viewBox="0.00 0.00 332.00 64.00" xmlns="http://www.w3.org/2000/svg" xmlns:xlink="http://www.w3.org/1999/xlink">
<g id="graph0" class="graph" transform="scale(1 1) rotate(0) translate(4 60)">
<title>ServerConfig::matchLocation</title>
<!-- Node1 -->
<g id="Node000001" class="node">
<title>Node1</title>
<g id="a_Node000001"><a xlink:title="Finds the LocationConfig that best matches a given URI.">
<polygon fill="#999999" stroke="#666666" points="157,-37 0,-37 0,-18 157,-18 157,-37"/>
<text text-anchor="middle" x="78.5" y="-25" font-family="Helvetica,sans-Serif" font-size="10.00">ServerConfig::matchLocation</text>
</a>
</g>
</g>
<!-- Node2 -->
<g id="Node000002" class="node">
<title>Node2</title>
<g id="a_Node000002"><a xlink:href="classLocationConfig.html#a06c65ab0130599edbd485a2db4e50b82" target="_top" xlink:title=" ">
<polygon fill="white" stroke="#666666" points="324,-56 193,-56 193,-37 324,-37 324,-56"/>
<text text-anchor="middle" x="258.5" y="-44" font-family="Helvetica,sans-Serif" font-size="10.00">LocationConfig::getPath</text>
</a>
</g>
</g>
<!-- Node1&#45;&gt;Node2 -->
<g id="edge1_Node000001_Node000002" class="edge">
<title>Node1&#45;&gt;Node2</title>
<g id="a_edge1_Node000001_Node000002"><a xlink:title=" ">
<path fill="none" stroke="#63b8ff" d="M157.06,-35.78C165.67,-36.7 174.44,-37.63 183.02,-38.55"/>
<polygon fill="#63b8ff" stroke="#63b8ff" points="182.67,-42.03 192.99,-39.61 183.41,-35.07 182.67,-42.03"/>
</a>
</g>
</g>
<!-- Node3 -->
<g id="Node000003" class="node">
<title>Node3</title>
<g id="a_Node000003"><a xlink:href="string__utils_8hpp.html#a54a8d2d3492cbc9eecedf25fda818a4d" target="_top" xlink:title="Checks whether a string starts with a given prefix.">
<polygon fill="white" stroke="#666666" points="292,-19 225,-19 225,0 292,0 292,-19"/>
<text text-anchor="middle" x="258.5" y="-7" font-family="Helvetica,sans-Serif" font-size="10.00">startsWith</text>
</a>
</g>
</g>
<!-- Node1&#45;&gt;Node3 -->
<g id="edge2_Node000001_Node000003" class="edge">
<title>Node1&#45;&gt;Node3</title>
<g id="a_edge2_Node000001_Node000003"><a xlink:title=" ">
<path fill="none" stroke="#63b8ff" d="M157.06,-19.66C176.76,-17.66 197.23,-15.59 214.51,-13.85"/>
<polygon fill="#63b8ff" stroke="#63b8ff" points="215.22,-17.29 224.82,-12.81 214.52,-10.33 215.22,-17.29"/>
</a>
</g>
</g>
</g>
</svg>
