<?xml version="1.0" encoding="UTF-8" standalone="no"?>
<!DOCTYPE svg PUBLIC "-//W3C//DTD SVG 1.1//EN"
 "http://www.w3.org/Graphics/SVG/1.1/DTD/svg11.dtd">
<!-- Generated by graphviz version 2.43.0 (0)
 -->
<!-- Title: ResponseBuilder::handleCgiOutput Pages: 1 -->
<svg width="751pt" height="304pt"
 viewBox="0.00 0.00 751.00 304.00" xmlns="http://www.w3.org/2000/svg" xmlns:xlink="http://www.w3.org/1999/xlink">
<g id="graph0" class="graph" transform="scale(1 1) rotate(0) translate(4 300)">
<title>ResponseBuilder::handleCgiOutput</title>
<!-- Node1 -->
<g id="Node000001" class="node">
<title>Node1</title>
<g id="a_Node000001"><a xlink:title="Processes CGI output and builds an HTTP response from it.">
<polygon fill="#999999" stroke="#666666" points="153,-171.5 0,-171.5 0,-141.5 153,-141.5 153,-171.5"/>
<text text-anchor="start" x="8" y="-159.5" font-family="Helvetica,sans-Serif" font-size="10.00">ResponseBuilder::handleCgi</text>
<text text-anchor="middle" x="76.5" y="-148.5" font-family="Helvetica,sans-Serif" font-size="10.00">Output</text>
</a>
</g>
</g>
<!-- Node2 -->
<g id="Node000002" class="node">
<title>Node2</title>
<g id="a_Node000002"><a xlink:href="classHttpResponse.html#abb032c16ad3961d50a6582c50c330581" target="_top" xlink:title="Adds a header field to the HTTP response.">
<polygon fill="white" stroke="#666666" points="341.5,-296 197.5,-296 197.5,-277 341.5,-277 341.5,-296"/>
<text text-anchor="middle" x="269.5" y="-284" font-family="Helvetica,sans-Serif" font-size="10.00">HttpResponse::addHeader</text>
</a>
</g>
</g>
<!-- Node1&#45;&gt;Node2 -->
<g id="edge1_Node000001_Node000002" class="edge">
<title>Node1&#45;&gt;Node2</title>
<g id="a_edge1_Node000001_Node000002"><a xlink:title=" ">
<path fill="none" stroke="#63b8ff" d="M87.93,-171.5C105.72,-195.87 144.34,-243.8 189,-268.5 192.29,-270.32 195.75,-271.95 199.32,-273.42"/>
<polygon fill="#63b8ff" stroke="#63b8ff" points="198.35,-276.8 208.94,-276.94 200.75,-270.22 198.35,-276.8"/>
</a>
</g>
</g>
<!-- Node3 -->
<g id="Node000003" class="node">
<title>Node3</title>
<g id="a_Node000003"><a xlink:href="classHttpResponse.html#a22352917aff72615ead5686b7e7b09b8" target="_top" xlink:title="Appends text data to the response body.">
<polygon fill="white" stroke="#666666" points="345.5,-259 193.5,-259 193.5,-240 345.5,-240 345.5,-259"/>
<text text-anchor="middle" x="269.5" y="-247" font-family="Helvetica,sans-Serif" font-size="10.00">HttpResponse::appendBody</text>
</a>
</g>
</g>
<!-- Node1&#45;&gt;Node3 -->
<g id="edge2_Node000001_Node000003" class="edge">
<title>Node1&#45;&gt;Node3</title>
<g id="a_edge2_Node000001_Node000003"><a xlink:title=" ">
<path fill="none" stroke="#63b8ff" d="M95.59,-171.79C116.68,-188.85 153.23,-216.06 189,-231.5 193.75,-233.55 198.77,-235.38 203.87,-237.02"/>
<polygon fill="#63b8ff" stroke="#63b8ff" points="203.18,-240.46 213.76,-239.92 205.15,-233.74 203.18,-240.46"/>
</a>
</g>
</g>
<!-- Node4 -->
<g id="Node000004" class="node">
<title>Node4</title>
<g id="a_Node000004"><a xlink:href="classLogger.html#a4aa4d7c3b98f6e12e7ea8253da5ea0cd" target="_top" xlink:title="Returns the singleton instance of the Logger.">
<polygon fill="white" stroke="#666666" points="318,-222 221,-222 221,-203 318,-203 318,-222"/>
<text text-anchor="middle" x="269.5" y="-210" font-family="Helvetica,sans-Serif" font-size="10.00">Logger::instance</text>
</a>
</g>
</g>
<!-- Node1&#45;&gt;Node4 -->
<g id="edge3_Node000001_Node000004" class="edge">
<title>Node1&#45;&gt;Node4</title>
<g id="a_edge3_Node000001_Node000004"><a xlink:title=" ">
<path fill="none" stroke="#63b8ff" d="M118.21,-171.53C139.19,-178.98 165.29,-187.79 189,-194.5 196.56,-196.64 204.59,-198.7 212.52,-200.61"/>
<polygon fill="#63b8ff" stroke="#63b8ff" points="211.93,-204.07 222.47,-202.95 213.53,-197.25 211.93,-204.07"/>
</a>
</g>
</g>
<!-- Node5 -->
<g id="Node000005" class="node">
<title>Node5</title>
<g id="a_Node000005"><a xlink:href="classLogger.html#a3d3f0801eeaf39b33a906ea8569c19b2" target="_top" xlink:title="Writes a log entry with timestamp, level, and message.">
<polygon fill="white" stroke="#666666" points="305,-185 234,-185 234,-166 305,-166 305,-185"/>
<text text-anchor="middle" x="269.5" y="-173" font-family="Helvetica,sans-Serif" font-size="10.00">Logger::log</text>
</a>
</g>
</g>
<!-- Node1&#45;&gt;Node5 -->
<g id="edge4_Node000001_Node000005" class="edge">
<title>Node1&#45;&gt;Node5</title>
<g id="a_edge4_Node000001_Node000005"><a xlink:title=" ">
<path fill="none" stroke="#63b8ff" d="M153.26,-164.04C177.14,-166.41 202.74,-168.96 223.73,-171.05"/>
<polygon fill="#63b8ff" stroke="#63b8ff" points="223.65,-174.56 233.95,-172.06 224.34,-167.59 223.65,-174.56"/>
</a>
</g>
</g>
<!-- Node7 -->
<g id="Node000007" class="node">
<title>Node7</title>
<g id="a_Node000007"><a xlink:href="classHttpResponse.html#af02b3b82a638bfbf23226b9f3bf06843" target="_top" xlink:title="Sets the HTTP status code and updates the corresponding reason phrase.">
<polygon fill="white" stroke="#666666" points="350,-148 189,-148 189,-129 350,-129 350,-148"/>
<text text-anchor="middle" x="269.5" y="-136" font-family="Helvetica,sans-Serif" font-size="10.00">HttpResponse::setStatusCode</text>
</a>
</g>
</g>
<!-- Node1&#45;&gt;Node7 -->
<g id="edge6_Node000001_Node000007" class="edge">
<title>Node1&#45;&gt;Node7</title>
<g id="a_edge6_Node000001_Node000007"><a xlink:title=" ">
<path fill="none" stroke="#63b8ff" d="M153.26,-149.36C161.65,-148.57 170.24,-147.76 178.78,-146.96"/>
<polygon fill="#63b8ff" stroke="#63b8ff" points="179.12,-150.44 188.75,-146.02 178.47,-143.47 179.12,-150.44"/>
</a>
</g>
</g>
<!-- Node10 -->
<g id="Node000010" class="node">
<title>Node10</title>
<g id="a_Node000010"><a xlink:href="string__utils_8hpp.html#a96432d89bc886bc9cdd1d73f86b2bbca" target="_top" xlink:title="Converts a string to lowercase.">
<polygon fill="white" stroke="#666666" points="297.5,-111 241.5,-111 241.5,-92 297.5,-92 297.5,-111"/>
<text text-anchor="middle" x="269.5" y="-99" font-family="Helvetica,sans-Serif" font-size="10.00">toLower</text>
</a>
</g>
</g>
<!-- Node1&#45;&gt;Node10 -->
<g id="edge9_Node000001_Node000010" class="edge">
<title>Node1&#45;&gt;Node10</title>
<g id="a_edge9_Node000001_Node000010"><a xlink:title=" ">
<path fill="none" stroke="#63b8ff" d="M121.48,-141.43C141.9,-134.65 166.57,-126.79 189,-120.5 202.72,-116.65 217.91,-112.9 231.3,-109.76"/>
<polygon fill="#63b8ff" stroke="#63b8ff" points="232.18,-113.15 241.14,-107.49 230.61,-106.33 232.18,-113.15"/>
</a>
</g>
</g>
<!-- Node11 -->
<g id="Node000011" class="node">
<title>Node11</title>
<g id="a_Node000011"><a xlink:href="string__utils_8hpp.html#ad735976365693b45c427000fe042e173" target="_top" xlink:title="Converts any printable type to a string representation.">
<polygon fill="white" stroke="#666666" points="297,-74 242,-74 242,-55 297,-55 297,-74"/>
<text text-anchor="middle" x="269.5" y="-62" font-family="Helvetica,sans-Serif" font-size="10.00">toString</text>
</a>
</g>
</g>
<!-- Node1&#45;&gt;Node11 -->
<g id="edge10_Node000001_Node000011" class="edge">
<title>Node1&#45;&gt;Node11</title>
<g id="a_edge10_Node000001_Node000011"><a xlink:title=" ">
<path fill="none" stroke="#63b8ff" d="M95.62,-141.42C116.75,-124.6 153.33,-97.76 189,-82.5 202.48,-76.73 218.07,-72.69 231.85,-69.91"/>
<polygon fill="#63b8ff" stroke="#63b8ff" points="232.78,-73.3 241.97,-68.03 231.5,-66.42 232.78,-73.3"/>
</a>
</g>
</g>
<!-- Node12 -->
<g id="Node000012" class="node">
<title>Node12</title>
<g id="a_Node000012"><a xlink:href="string__utils_8hpp.html#a5a01f705cc7b4a7317a57f6bf41aef25" target="_top" xlink:title="Removes leading and trailing whitespace characters from a string.">
<polygon fill="white" stroke="#666666" points="288,-37 251,-37 251,-18 288,-18 288,-37"/>
<text text-anchor="middle" x="269.5" y="-25" font-family="Helvetica,sans-Serif" font-size="10.00">trim</text>
</a>
</g>
</g>
<!-- Node1&#45;&gt;Node12 -->
<g id="edge11_Node000001_Node000012" class="edge">
<title>Node1&#45;&gt;Node12</title>
<g id="a_edge11_Node000001_Node000012"><a xlink:title=" ">
<path fill="none" stroke="#63b8ff" d="M88.26,-141.24C106.21,-116.98 144.72,-69.86 189,-45.5 204.82,-36.8 224.61,-32.3 240.49,-29.98"/>
<polygon fill="#63b8ff" stroke="#63b8ff" points="241.27,-33.41 250.76,-28.69 240.4,-26.46 241.27,-33.41"/>
</a>
</g>
</g>
<!-- Node6 -->
<g id="Node000006" class="node">
<title>Node6</title>
<g id="a_Node000006"><a xlink:href="classLogger.html#a19f9ef22095a67c9fe420c9d6e761fc2" target="_top" xlink:title="Converts a LogLevel enum value to its string label.">
<polygon fill="white" stroke="#666666" points="533,-185 414,-185 414,-166 533,-166 533,-185"/>
<text text-anchor="middle" x="473.5" y="-173" font-family="Helvetica,sans-Serif" font-size="10.00">Logger::levelToString</text>
</a>
</g>
</g>
<!-- Node5&#45;&gt;Node6 -->
<g id="edge5_Node000005_Node000006" class="edge">
<title>Node5&#45;&gt;Node6</title>
<g id="a_edge5_Node000005_Node000006"><a xlink:title=" ">
<path fill="none" stroke="#63b8ff" d="M305.23,-175.5C332.21,-175.5 370.5,-175.5 403.64,-175.5"/>
<polygon fill="#63b8ff" stroke="#63b8ff" points="403.74,-179 413.74,-175.5 403.74,-172 403.74,-179"/>
</a>
</g>
</g>
<!-- Node8 -->
<g id="Node000008" class="node">
<title>Node8</title>
<g id="a_Node000008"><a xlink:href="classHttpResponse.html#a98bb39b2757912eae4f667db80e3e6a4" target="_top" xlink:title="Sets the textual reason phrase for a given status code.">
<polygon fill="white" stroke="#666666" points="561,-148 386,-148 386,-129 561,-129 561,-148"/>
<text text-anchor="middle" x="473.5" y="-136" font-family="Helvetica,sans-Serif" font-size="10.00">HttpResponse::setReasonPhrase</text>
</a>
</g>
</g>
<!-- Node7&#45;&gt;Node8 -->
<g id="edge7_Node000007_Node000008" class="edge">
<title>Node7&#45;&gt;Node8</title>
<g id="a_edge7_Node000007_Node000008"><a xlink:title=" ">
<path fill="none" stroke="#63b8ff" d="M350.05,-138.5C358.46,-138.5 367.08,-138.5 375.66,-138.5"/>
<polygon fill="#63b8ff" stroke="#63b8ff" points="375.69,-142 385.69,-138.5 375.69,-135 375.69,-142"/>
</a>
</g>
</g>
<!-- Node9 -->
<g id="Node000009" class="node">
<title>Node9</title>
<g id="a_Node000009"><a xlink:href="classHttpResponse.html#ae09f25f31d917b068fae8bbf07b29c19" target="_top" xlink:title="Converts an HTTP status code to its standard reason phrase string.">
<polygon fill="white" stroke="#666666" points="743,-153.5 597,-153.5 597,-123.5 743,-123.5 743,-153.5"/>
<text text-anchor="start" x="605" y="-141.5" font-family="Helvetica,sans-Serif" font-size="10.00">HttpResponse::statusCode</text>
<text text-anchor="middle" x="670" y="-130.5" font-family="Helvetica,sans-Serif" font-size="10.00">ToString</text>
</a>
</g>
</g>
<!-- Node8&#45;&gt;Node9 -->
<g id="edge8_Node000008_Node000009" class="edge">
<title>Node8&#45;&gt;Node9</title>
<g id="a_edge8_Node000008_Node000009"><a xlink:title=" ">
<path fill="none" stroke="#63b8ff" d="M561.23,-138.5C569.72,-138.5 578.33,-138.5 586.78,-138.5"/>
<polygon fill="#63b8ff" stroke="#63b8ff" points="587,-142 597,-138.5 587,-135 587,-142"/>
</a>
</g>
</g>
<!-- Node13 -->
<g id="Node000013" class="node">
<title>Node13</title>
<g id="a_Node000013"><a xlink:href="string__utils_8hpp.html#aaead76ef6abc119bc66f6ecdedfcb295" target="_top" xlink:title="Removes leading whitespace characters from a string.">
<polygon fill="white" stroke="#666666" points="494,-56 453,-56 453,-37 494,-37 494,-56"/>
<text text-anchor="middle" x="473.5" y="-44" font-family="Helvetica,sans-Serif" font-size="10.00">lTrim</text>
</a>
</g>
</g>
<!-- Node12&#45;&gt;Node13 -->
<g id="edge12_Node000012_Node000013" class="edge">
<title>Node12&#45;&gt;Node13</title>
<g id="a_edge12_Node000012_Node000013"><a xlink:title=" ">
<path fill="none" stroke="#63b8ff" d="M288.07,-29.15C322.67,-32.41 399.96,-39.68 442.69,-43.7"/>
<polygon fill="#63b8ff" stroke="#63b8ff" points="442.47,-47.19 452.76,-44.64 443.13,-40.22 442.47,-47.19"/>
</a>
</g>
</g>
<!-- Node14 -->
<g id="Node000014" class="node">
<title>Node14</title>
<g id="a_Node000014"><a xlink:href="string__utils_8hpp.html#adde35d1801d4d11cacb9a39124e8e96b" target="_top" xlink:title="Removes trailing whitespace characters from a string.">
<polygon fill="white" stroke="#666666" points="494,-19 453,-19 453,0 494,0 494,-19"/>
<text text-anchor="middle" x="473.5" y="-7" font-family="Helvetica,sans-Serif" font-size="10.00">rTrim</text>
</a>
</g>
</g>
<!-- Node12&#45;&gt;Node14 -->
<g id="edge13_Node000012_Node000014" class="edge">
<title>Node12&#45;&gt;Node14</title>
<g id="a_edge13_Node000012_Node000014"><a xlink:title=" ">
<path fill="none" stroke="#63b8ff" d="M288.07,-25.93C322.67,-22.85 399.96,-15.96 442.69,-12.16"/>
<polygon fill="#63b8ff" stroke="#63b8ff" points="443.11,-15.63 452.76,-11.26 442.48,-8.66 443.11,-15.63"/>
</a>
</g>
</g>
</g>
</svg>
