<?xml version="1.0" encoding="UTF-8" standalone="no"?>
<!DOCTYPE svg PUBLIC "-//W3C//DTD SVG 1.1//EN"
 "http://www.w3.org/Graphics/SVG/1.1/DTD/svg11.dtd">
<!-- Generated by graphviz version 2.43.0 (0)
 -->
<!-- Title: Router::checkErrorStatus Pages: 1 -->
<svg width="498pt" height="175pt"
 viewBox="0.00 0.00 498.00 175.00" xmlns="http://www.w3.org/2000/svg" xmlns:xlink="http://www.w3.org/1999/xlink">
<g id="graph0" class="graph" transform="scale(1 1) rotate(0) translate(4 171)">
<title>Router::checkErrorStatus</title>
<!-- Node1 -->
<g id="Node000001" class="node">
<title>Node1</title>
<g id="a_Node000001"><a xlink:title="Checks if the response already contains an error status.">
<polygon fill="#999999" stroke="#666666" points="137,-93 0,-93 0,-74 137,-74 137,-93"/>
<text text-anchor="middle" x="68.5" y="-81" font-family="Helvetica,sans-Serif" font-size="10.00">Router::checkErrorStatus</text>
</a>
</g>
</g>
<!-- Node2 -->
<g id="Node000002" class="node">
<title>Node2</title>
<g id="a_Node000002"><a xlink:href="classHttpResponse.html#aefca7483c5921d939a7c8dccc705ba08" target="_top" xlink:title="Returns the current HTTP status code.">
<polygon fill="white" stroke="#666666" points="335,-167 173,-167 173,-148 335,-148 335,-167"/>
<text text-anchor="middle" x="254" y="-155" font-family="Helvetica,sans-Serif" font-size="10.00">HttpResponse::getStatusCode</text>
</a>
</g>
</g>
<!-- Node1&#45;&gt;Node2 -->
<g id="edge1_Node000001_Node000002" class="edge">
<title>Node1&#45;&gt;Node2</title>
<g id="a_edge1_Node000001_Node000002"><a xlink:title=" ">
<path fill="none" stroke="#63b8ff" d="M83.97,-93C103.45,-105.39 139.52,-126.95 173,-139.5 178.77,-141.66 184.88,-143.61 191.05,-145.35"/>
<polygon fill="#63b8ff" stroke="#63b8ff" points="190.19,-148.74 200.75,-147.92 191.98,-141.98 190.19,-148.74"/>
</a>
</g>
</g>
<!-- Node3 -->
<g id="Node000003" class="node">
<title>Node3</title>
<g id="a_Node000003"><a xlink:href="classLogger.html#a4aa4d7c3b98f6e12e7ea8253da5ea0cd" target="_top" xlink:title="Returns the singleton instance of the Logger.">
<polygon fill="white" stroke="#666666" points="302.5,-130 205.5,-130 205.5,-111 302.5,-111 302.5,-130"/>
<text text-anchor="middle" x="254" y="-118" font-family="Helvetica,sans-Serif" font-size="10.00">Logger::instance</text>
</a>
</g>
</g>
<!-- Node1&#45;&gt;Node3 -->
<g id="edge2_Node000001_Node000003" class="edge">
<title>Node1&#45;&gt;Node3</title>
<g id="a_edge2_Node000001_Node000003"><a xlink:title=" ">
<path fill="none" stroke="#63b8ff" d="M116.76,-93.03C140.85,-97.89 170.34,-103.83 195.72,-108.95"/>
<polygon fill="#63b8ff" stroke="#63b8ff" points="195.09,-112.39 205.59,-110.94 196.47,-105.53 195.09,-112.39"/>
</a>
</g>
</g>
<!-- Node4 -->
<g id="Node000004" class="node">
<title>Node4</title>
<g id="a_Node000004"><a xlink:href="classLogger.html#a3d3f0801eeaf39b33a906ea8569c19b2" target="_top" xlink:title="Writes a log entry with timestamp, level, and message.">
<polygon fill="white" stroke="#666666" points="289.5,-93 218.5,-93 218.5,-74 289.5,-74 289.5,-93"/>
<text text-anchor="middle" x="254" y="-81" font-family="Helvetica,sans-Serif" font-size="10.00">Logger::log</text>
</a>
</g>
</g>
<!-- Node1&#45;&gt;Node4 -->
<g id="edge3_Node000001_Node000004" class="edge">
<title>Node1&#45;&gt;Node4</title>
<g id="a_edge3_Node000001_Node000004"><a xlink:title=" ">
<path fill="none" stroke="#63b8ff" d="M137.05,-83.5C160.76,-83.5 186.79,-83.5 208.17,-83.5"/>
<polygon fill="#63b8ff" stroke="#63b8ff" points="208.27,-87 218.27,-83.5 208.27,-80 208.27,-87"/>
</a>
</g>
</g>
<!-- Node6 -->
<g id="Node000006" class="node">
<title>Node6</title>
<g id="a_Node000006"><a xlink:href="classHttpRequest.html#a4b150de7245da2eebd2412d1c88dce99" target="_top" xlink:title=" ">
<polygon fill="white" stroke="#666666" points="328.5,-56 179.5,-56 179.5,-37 328.5,-37 328.5,-56"/>
<text text-anchor="middle" x="254" y="-44" font-family="Helvetica,sans-Serif" font-size="10.00">HttpRequest::setRouteType</text>
</a>
</g>
</g>
<!-- Node1&#45;&gt;Node6 -->
<g id="edge5_Node000001_Node000006" class="edge">
<title>Node1&#45;&gt;Node6</title>
<g id="a_edge5_Node000001_Node000006"><a xlink:title=" ">
<path fill="none" stroke="#63b8ff" d="M116.76,-73.97C140.85,-69.11 170.34,-63.17 195.72,-58.05"/>
<polygon fill="#63b8ff" stroke="#63b8ff" points="196.47,-61.47 205.59,-56.06 195.09,-54.61 196.47,-61.47"/>
</a>
</g>
</g>
<!-- Node7 -->
<g id="Node000007" class="node">
<title>Node7</title>
<g id="a_Node000007"><a xlink:href="string__utils_8hpp.html#ad735976365693b45c427000fe042e173" target="_top" xlink:title="Converts any printable type to a string representation.">
<polygon fill="white" stroke="#666666" points="281.5,-19 226.5,-19 226.5,0 281.5,0 281.5,-19"/>
<text text-anchor="middle" x="254" y="-7" font-family="Helvetica,sans-Serif" font-size="10.00">toString</text>
</a>
</g>
</g>
<!-- Node1&#45;&gt;Node7 -->
<g id="edge6_Node000001_Node000007" class="edge">
<title>Node1&#45;&gt;Node7</title>
<g id="a_edge6_Node000001_Node000007"><a xlink:title=" ">
<path fill="none" stroke="#63b8ff" d="M84.7,-73.82C104.38,-61.68 140.06,-40.93 173,-28.5 186.73,-23.32 202.33,-19.24 216.09,-16.2"/>
<polygon fill="#63b8ff" stroke="#63b8ff" points="217.12,-19.56 226.19,-14.09 215.68,-12.71 217.12,-19.56"/>
</a>
</g>
</g>
<!-- Node5 -->
<g id="Node000005" class="node">
<title>Node5</title>
<g id="a_Node000005"><a xlink:href="classLogger.html#a19f9ef22095a67c9fe420c9d6e761fc2" target="_top" xlink:title="Converts a LogLevel enum value to its string label.">
<polygon fill="white" stroke="#666666" points="490,-93 371,-93 371,-74 490,-74 490,-93"/>
<text text-anchor="middle" x="430.5" y="-81" font-family="Helvetica,sans-Serif" font-size="10.00">Logger::levelToString</text>
</a>
</g>
</g>
<!-- Node4&#45;&gt;Node5 -->
<g id="edge4_Node000004_Node000005" class="edge">
<title>Node4&#45;&gt;Node5</title>
<g id="a_edge4_Node000004_Node000005"><a xlink:title=" ">
<path fill="none" stroke="#63b8ff" d="M289.89,-83.5C310.17,-83.5 336.44,-83.5 360.7,-83.5"/>
<polygon fill="#63b8ff" stroke="#63b8ff" points="360.96,-87 370.96,-83.5 360.96,-80 360.96,-87"/>
</a>
</g>
</g>
</g>
</svg>
