<?xml version="1.0" encoding="UTF-8" standalone="no"?>
<!DOCTYPE svg PUBLIC "-//W3C//DTD SVG 1.1//EN"
 "http://www.w3.org/Graphics/SVG/1.1/DTD/svg11.dtd">
<!-- Generated by graphviz version 2.43.0 (0)
 -->
<!-- Title: LocationConfig::getPath Pages: 1 -->
<svg width="1699pt" height="272pt"
 viewBox="0.00 0.00 1699.00 272.00" xmlns="http://www.w3.org/2000/svg" xmlns:xlink="http://www.w3.org/1999/xlink">
<g id="graph0" class="graph" transform="scale(1 1) rotate(0) translate(4 268)">
<title>LocationConfig::getPath</title>
<!-- Node1 -->
<g id="Node000001" class="node">
<title>Node1</title>
<g id="a_Node000001"><a xlink:title=" ">
<polygon fill="#999999" stroke="#666666" points="1691,-226 1560,-226 1560,-207 1691,-207 1691,-226"/>
<text text-anchor="middle" x="1625.5" y="-214" font-family="Helvetica,sans-Serif" font-size="10.00">LocationConfig::getPath</text>
</a>
</g>
</g>
<!-- Node2 -->
<g id="Node000002" class="node">
<title>Node2</title>
<g id="a_Node000002"><a xlink:href="classRouter.html#a8155613701b9739e2ae1e34c39894247" target="_top" xlink:title="Computes the absolute filesystem path of the requested resource.">
<polygon fill="white" stroke="#666666" points="1524,-264 1360,-264 1360,-245 1524,-245 1524,-264"/>
<text text-anchor="middle" x="1442" y="-252" font-family="Helvetica,sans-Serif" font-size="10.00">Router::computeResolvedPath</text>
</a>
</g>
</g>
<!-- Node1&#45;&gt;Node2 -->
<g id="edge1_Node000001_Node000002" class="edge">
<title>Node1&#45;&gt;Node2</title>
<g id="a_edge1_Node000001_Node000002"><a xlink:title=" ">
<path fill="none" stroke="#63b8ff" d="M1568.71,-228.18C1542.97,-233.57 1512.8,-239.89 1488.47,-244.98"/>
<polygon fill="#63b8ff" stroke="#63b8ff" points="1569.63,-231.56 1578.7,-226.09 1568.19,-224.71 1569.63,-231.56"/>
</a>
</g>
</g>
<!-- Node8 -->
<g id="Node000008" class="node">
<title>Node8</title>
<g id="a_Node000008"><a xlink:href="classRouter.html#ab76bed10e7facdd1b6e4be3f2bbbff0f" target="_top" xlink:title="Determines if the current request is a valid upload operation.">
<polygon fill="white" stroke="#666666" points="1296,-226 1198,-226 1198,-207 1296,-207 1296,-226"/>
<text text-anchor="middle" x="1247" y="-214" font-family="Helvetica,sans-Serif" font-size="10.00">Router::isUpload</text>
</a>
</g>
</g>
<!-- Node1&#45;&gt;Node8 -->
<g id="edge7_Node000001_Node000008" class="edge">
<title>Node1&#45;&gt;Node8</title>
<g id="a_edge7_Node000001_Node000008"><a xlink:title=" ">
<path fill="none" stroke="#63b8ff" d="M1549.4,-216.5C1474,-216.5 1360.08,-216.5 1296.07,-216.5"/>
<polygon fill="#63b8ff" stroke="#63b8ff" points="1549.78,-220 1559.78,-216.5 1549.78,-213 1549.78,-220"/>
</a>
</g>
</g>
<!-- Node9 -->
<g id="Node000009" class="node">
<title>Node9</title>
<g id="a_Node000009"><a xlink:href="classServerConfig.html#a708ec8a352980380e36dc6090322ea41" target="_top" xlink:title="Finds the LocationConfig that best matches a given URI.">
<polygon fill="white" stroke="#666666" points="1520.5,-150 1363.5,-150 1363.5,-131 1520.5,-131 1520.5,-150"/>
<text text-anchor="middle" x="1442" y="-138" font-family="Helvetica,sans-Serif" font-size="10.00">ServerConfig::matchLocation</text>
</a>
</g>
</g>
<!-- Node1&#45;&gt;Node9 -->
<g id="edge9_Node000001_Node000009" class="edge">
<title>Node1&#45;&gt;Node9</title>
<g id="a_edge9_Node000001_Node000009"><a xlink:title=" ">
<path fill="none" stroke="#63b8ff" d="M1591.86,-202.83C1555.49,-187.6 1497.61,-163.37 1465.8,-150.05"/>
<polygon fill="#63b8ff" stroke="#63b8ff" points="1590.94,-206.24 1601.51,-206.87 1593.64,-199.78 1590.94,-206.24"/>
</a>
</g>
</g>
<!-- Node3 -->
<g id="Node000003" class="node">
<title>Node3</title>
<g id="a_Node000003"><a xlink:href="classRouter.html#aa58c0c6f2a1fc66a6e2a78adfae162e6" target="_top" xlink:title="Main entry point for determining how an HTTP request should be handled.">
<polygon fill="white" stroke="#666666" points="1116.5,-169 1025.5,-169 1025.5,-150 1116.5,-150 1116.5,-169"/>
<text text-anchor="middle" x="1071" y="-157" font-family="Helvetica,sans-Serif" font-size="10.00">Router::resolve</text>
</a>
</g>
</g>
<!-- Node2&#45;&gt;Node3 -->
<g id="edge2_Node000002_Node000003" class="edge">
<title>Node2&#45;&gt;Node3</title>
<g id="a_edge2_Node000002_Node000003"><a xlink:title=" ">
<path fill="none" stroke="#63b8ff" d="M1349.57,-261.13C1295.64,-261.89 1227.02,-257.28 1170,-235.5 1131.78,-220.91 1096.31,-186.11 1080.56,-169.14"/>
<polygon fill="#63b8ff" stroke="#63b8ff" points="1349.88,-264.63 1359.8,-260.92 1349.73,-257.63 1349.88,-264.63"/>
</a>
</g>
</g>
<!-- Node4 -->
<g id="Node000004" class="node">
<title>Node4</title>
<g id="a_Node000004"><a xlink:href="classDispatcher.html#a13c8a2fd90033adf9788c8774c3f0f47" target="_top" xlink:title="Central dispatch routine that delegates HTTP requests to the appropriate handler.">
<polygon fill="white" stroke="#666666" points="957,-75 841,-75 841,-56 957,-56 957,-75"/>
<text text-anchor="middle" x="899" y="-63" font-family="Helvetica,sans-Serif" font-size="10.00">Dispatcher::dispatch</text>
</a>
</g>
</g>
<!-- Node3&#45;&gt;Node4 -->
<g id="edge3_Node000003_Node000004" class="edge">
<title>Node3&#45;&gt;Node4</title>
<g id="a_edge3_Node000003_Node000004"><a xlink:title=" ">
<path fill="none" stroke="#63b8ff" d="M1043.58,-144.89C1008.38,-125.43 947.1,-91.54 917.28,-75.06"/>
<polygon fill="#63b8ff" stroke="#63b8ff" points="1042.32,-148.19 1052.76,-149.97 1045.71,-142.07 1042.32,-148.19"/>
</a>
</g>
</g>
<!-- Node5 -->
<g id="Node000005" class="node">
<title>Node5</title>
<g id="a_Node000005"><a xlink:href="classWebServer.html#a8cbf37c0a840305ce15e8648566c9ce4" target="_top" xlink:title="Handles incoming data from a connected client.">
<polygon fill="white" stroke="#666666" points="386,-53 235,-53 235,-34 386,-34 386,-53"/>
<text text-anchor="middle" x="310.5" y="-41" font-family="Helvetica,sans-Serif" font-size="10.00">WebServer::receiveRequest</text>
</a>
</g>
</g>
<!-- Node4&#45;&gt;Node5 -->
<g id="edge4_Node000004_Node000005" class="edge">
<title>Node4&#45;&gt;Node5</title>
<g id="a_edge4_Node000004_Node000005"><a xlink:title=" ">
<path fill="none" stroke="#63b8ff" d="M830.95,-62.98C720.51,-58.84 501.17,-50.61 386.03,-46.3"/>
<polygon fill="#63b8ff" stroke="#63b8ff" points="830.84,-66.48 840.96,-63.36 831.1,-59.49 830.84,-66.48"/>
</a>
</g>
</g>
<!-- Node6 -->
<g id="Node000006" class="node">
<title>Node6</title>
<g id="a_Node000006"><a xlink:href="classWebServer.html#af39709e3744077e019aa76555f03a42e" target="_top" xlink:title="Main event loop — monitors sockets, dispatches requests, and handles responses.">
<polygon fill="white" stroke="#666666" points="199,-53 77,-53 77,-34 199,-34 199,-53"/>
<text text-anchor="middle" x="138" y="-41" font-family="Helvetica,sans-Serif" font-size="10.00">WebServer::runServer</text>
</a>
</g>
</g>
<!-- Node5&#45;&gt;Node6 -->
<g id="edge5_Node000005_Node000006" class="edge">
<title>Node5&#45;&gt;Node6</title>
<g id="a_edge5_Node000005_Node000006"><a xlink:title=" ">
<path fill="none" stroke="#63b8ff" d="M224.63,-43.5C216.02,-43.5 207.4,-43.5 199.13,-43.5"/>
<polygon fill="#63b8ff" stroke="#63b8ff" points="224.72,-47 234.72,-43.5 224.72,-40 224.72,-47"/>
</a>
</g>
</g>
<!-- Node7 -->
<g id="Node000007" class="node">
<title>Node7</title>
<g id="a_Node000007"><a xlink:href="main_8cpp.html#a3c04138a5bfe5d72780bb7e82a18e627" target="_top" xlink:title="Entry point of the Webservinho web server.">
<polygon fill="white" stroke="#666666" points="41,-53 0,-53 0,-34 41,-34 41,-53"/>
<text text-anchor="middle" x="20.5" y="-41" font-family="Helvetica,sans-Serif" font-size="10.00">main</text>
</a>
</g>
</g>
<!-- Node6&#45;&gt;Node7 -->
<g id="edge6_Node000006_Node000007" class="edge">
<title>Node6&#45;&gt;Node7</title>
<g id="a_edge6_Node000006_Node000007"><a xlink:title=" ">
<path fill="none" stroke="#63b8ff" d="M66.66,-43.5C57.35,-43.5 48.51,-43.5 41.15,-43.5"/>
<polygon fill="#63b8ff" stroke="#63b8ff" points="66.88,-47 76.88,-43.5 66.88,-40 66.88,-47"/>
</a>
</g>
</g>
<!-- Node8&#45;&gt;Node3 -->
<g id="edge8_Node000008_Node000003" class="edge">
<title>Node8&#45;&gt;Node3</title>
<g id="a_edge8_Node000008_Node000003"><a xlink:title=" ">
<path fill="none" stroke="#63b8ff" d="M1205.49,-203.86C1194,-200.24 1181.5,-196.25 1170,-192.5 1146.28,-184.76 1119.42,-175.7 1099.83,-169.03"/>
<polygon fill="#63b8ff" stroke="#63b8ff" points="1204.68,-207.28 1215.27,-206.94 1206.78,-200.6 1204.68,-207.28"/>
</a>
</g>
</g>
<!-- Node9&#45;&gt;Node3 -->
<g id="edge23_Node000009_Node000003" class="edge">
<title>Node9&#45;&gt;Node3</title>
<g id="a_edge23_Node000009_Node000003"><a xlink:title=" ">
<path fill="none" stroke="#63b8ff" d="M1383.46,-151.73C1364.59,-154.91 1343.47,-157.93 1324,-159.5 1251.61,-165.34 1167.14,-163.61 1116.7,-161.67"/>
<polygon fill="#63b8ff" stroke="#63b8ff" points="1384.14,-155.17 1393.4,-150.01 1382.94,-148.27 1384.14,-155.17"/>
</a>
</g>
</g>
<!-- Node9&#45;&gt;Node4 -->
<g id="edge17_Node000009_Node000004" class="edge">
<title>Node9&#45;&gt;Node4</title>
<g id="a_edge17_Node000009_Node000004"><a xlink:title=" ">
<path fill="none" stroke="#63b8ff" d="M1417.18,-125.57C1394.27,-112.08 1358.17,-93.07 1324,-84.5 1196.06,-52.43 1039.74,-55.92 957.28,-60.92"/>
<polygon fill="#63b8ff" stroke="#63b8ff" points="1415.49,-128.63 1425.86,-130.79 1419.1,-122.63 1415.49,-128.63"/>
</a>
</g>
</g>
<!-- Node9&#45;&gt;Node8 -->
<g id="edge22_Node000009_Node000008" class="edge">
<title>Node9&#45;&gt;Node8</title>
<g id="a_edge22_Node000009_Node000008"><a xlink:title=" ">
<path fill="none" stroke="#63b8ff" d="M1412.36,-154.31C1388.9,-165.36 1354.69,-180.87 1324,-192.5 1310.15,-197.74 1294.61,-202.8 1281.2,-206.9"/>
<polygon fill="#63b8ff" stroke="#63b8ff" points="1413.87,-157.47 1421.41,-150.02 1410.87,-151.14 1413.87,-157.47"/>
</a>
</g>
</g>
<!-- Node10 -->
<g id="Node000010" class="node">
<title>Node10</title>
<g id="a_Node000010"><a xlink:href="classRequestParse.html#a3a3d2f425b7652c12b681fed8a66b8d9" target="_top" xlink:title="Validates if the HTTP method is allowed in the matched location block.">
<polygon fill="white" stroke="#666666" points="1324,-28 1170,-28 1170,-9 1324,-9 1324,-28"/>
<text text-anchor="middle" x="1247" y="-16" font-family="Helvetica,sans-Serif" font-size="10.00">RequestParse::checkMethod</text>
</a>
</g>
</g>
<!-- Node9&#45;&gt;Node10 -->
<g id="edge10_Node000009_Node000010" class="edge">
<title>Node9&#45;&gt;Node10</title>
<g id="a_edge10_Node000009_Node000010"><a xlink:title=" ">
<path fill="none" stroke="#63b8ff" d="M1422.68,-124.33C1400.45,-105.24 1361.29,-73.35 1324,-51.5 1308.11,-42.19 1289.11,-33.94 1274.09,-28.02"/>
<polygon fill="#63b8ff" stroke="#63b8ff" points="1420.49,-127.06 1430.34,-130.97 1425.08,-121.77 1420.49,-127.06"/>
</a>
</g>
</g>
<!-- Node15 -->
<g id="Node000015" class="node">
<title>Node15</title>
<g id="a_Node000015"><a xlink:href="classRouter.html#abc4267c8a267ca9baf524891e1443037" target="_top" xlink:title="Determines whether to enable AutoIndex for a directory listing.">
<polygon fill="white" stroke="#666666" points="1303.5,-150 1190.5,-150 1190.5,-131 1303.5,-131 1303.5,-150"/>
<text text-anchor="middle" x="1247" y="-138" font-family="Helvetica,sans-Serif" font-size="10.00">Router::isAutoIndex</text>
</a>
</g>
</g>
<!-- Node9&#45;&gt;Node15 -->
<g id="edge18_Node000009_Node000015" class="edge">
<title>Node9&#45;&gt;Node15</title>
<g id="a_edge18_Node000009_Node000015"><a xlink:title=" ">
<path fill="none" stroke="#63b8ff" d="M1352.94,-140.5C1336.14,-140.5 1319,-140.5 1303.57,-140.5"/>
<polygon fill="#63b8ff" stroke="#63b8ff" points="1353.33,-144 1363.33,-140.5 1353.33,-137 1353.33,-144"/>
</a>
</g>
</g>
<!-- Node16 -->
<g id="Node000016" class="node">
<title>Node16</title>
<g id="a_Node000016"><a xlink:href="classRouter.html#a9cccffeb5ef1889ffc62987c437f6c59" target="_top" xlink:title="Checks if the request triggers an HTTP redirect.">
<polygon fill="white" stroke="#666666" points="1299,-113 1195,-113 1195,-94 1299,-94 1299,-113"/>
<text text-anchor="middle" x="1247" y="-101" font-family="Helvetica,sans-Serif" font-size="10.00">Router::isRedirect</text>
</a>
</g>
</g>
<!-- Node9&#45;&gt;Node16 -->
<g id="edge20_Node000009_Node000016" class="edge">
<title>Node9&#45;&gt;Node16</title>
<g id="a_edge20_Node000009_Node000016"><a xlink:title=" ">
<path fill="none" stroke="#63b8ff" d="M1381.28,-129.05C1354.53,-123.92 1323.35,-117.94 1297.87,-113.06"/>
<polygon fill="#63b8ff" stroke="#63b8ff" points="1380.82,-132.53 1391.3,-130.97 1382.14,-125.65 1380.82,-132.53"/>
</a>
</g>
</g>
<!-- Node11 -->
<g id="Node000011" class="node">
<title>Node11</title>
<g id="a_Node000011"><a xlink:href="classRequestParse.html#aba25f85cb2196680c3f6efb539ddb81b" target="_top" xlink:title="Determines the HTTP method and validates it against configuration.">
<polygon fill="white" stroke="#666666" points="1134,-19 1008,-19 1008,0 1134,0 1134,-19"/>
<text text-anchor="middle" x="1071" y="-7" font-family="Helvetica,sans-Serif" font-size="10.00">RequestParse::method</text>
</a>
</g>
</g>
<!-- Node10&#45;&gt;Node11 -->
<g id="edge11_Node000010_Node000011" class="edge">
<title>Node10&#45;&gt;Node11</title>
<g id="a_edge11_Node000010_Node000011"><a xlink:title=" ">
<path fill="none" stroke="#63b8ff" d="M1159.78,-14.04C1151.11,-13.59 1142.43,-13.14 1134.08,-12.71"/>
<polygon fill="#63b8ff" stroke="#63b8ff" points="1159.77,-17.54 1169.93,-14.57 1160.13,-10.55 1159.77,-17.54"/>
</a>
</g>
</g>
<!-- Node11&#45;&gt;Node11 -->
<g id="edge12_Node000011_Node000011" class="edge">
<title>Node11&#45;&gt;Node11</title>
<g id="a_edge12_Node000011_Node000011"><a xlink:title=" ">
<path fill="none" stroke="#63b8ff" d="M1103.19,-27.45C1102.27,-32.82 1091.54,-37 1071,-37 1040.43,-37 1031.59,-27.73 1044.49,-19.08"/>
<polygon fill="#63b8ff" stroke="#63b8ff" points="1106.02,-25.39 1097.51,-19.08 1100.23,-29.32 1106.02,-25.39"/>
</a>
</g>
</g>
<!-- Node12 -->
<g id="Node000012" class="node">
<title>Node12</title>
<g id="a_Node000012"><a xlink:href="classRequestParse.html#abba0923a3ae7422916f11a81b7c4d552" target="_top" xlink:title="Parses the HTTP request line (method, URI, version).">
<polygon fill="white" stroke="#666666" points="972,-21 826,-21 826,-2 972,-2 972,-21"/>
<text text-anchor="middle" x="899" y="-9" font-family="Helvetica,sans-Serif" font-size="10.00">RequestParse::requestLine</text>
</a>
</g>
</g>
<!-- Node11&#45;&gt;Node12 -->
<g id="edge13_Node000011_Node000012" class="edge">
<title>Node11&#45;&gt;Node12</title>
<g id="a_edge13_Node000011_Node000012"><a xlink:title=" ">
<path fill="none" stroke="#63b8ff" d="M997.51,-10.35C989.1,-10.45 980.52,-10.55 972.11,-10.65"/>
<polygon fill="#63b8ff" stroke="#63b8ff" points="997.71,-13.85 1007.66,-10.23 997.62,-6.85 997.71,-13.85"/>
</a>
</g>
</g>
<!-- Node13 -->
<g id="Node000013" class="node">
<title>Node13</title>
<g id="a_Node000013"><a xlink:href="classRequestParse.html#a5f2f35f5815fbb977cde05b19af41687" target="_top" xlink:title="Parses and processes raw HTTP request data incrementally.">
<polygon fill="white" stroke="#666666" points="790,-30 608,-30 608,-11 790,-11 790,-30"/>
<text text-anchor="middle" x="699" y="-18" font-family="Helvetica,sans-Serif" font-size="10.00">RequestParse::handleRawRequest</text>
</a>
</g>
</g>
<!-- Node12&#45;&gt;Node13 -->
<g id="edge14_Node000012_Node000013" class="edge">
<title>Node12&#45;&gt;Node13</title>
<g id="a_edge14_Node000012_Node000013"><a xlink:title=" ">
<path fill="none" stroke="#63b8ff" d="M815.77,-15.24C807.34,-15.62 798.74,-16.01 790.23,-16.4"/>
<polygon fill="#63b8ff" stroke="#63b8ff" points="816.13,-18.73 825.96,-14.77 815.81,-11.73 816.13,-18.73"/>
</a>
</g>
</g>
<!-- Node14 -->
<g id="Node000014" class="node">
<title>Node14</title>
<g id="a_Node000014"><a xlink:href="classClientConnection.html#a835586ce27b3c3598394bde3fff14211" target="_top" xlink:title="Receives incoming data from the client socket.">
<polygon fill="white" stroke="#666666" points="572,-34 422,-34 422,-15 572,-15 572,-34"/>
<text text-anchor="middle" x="497" y="-22" font-family="Helvetica,sans-Serif" font-size="10.00">ClientConnection::recvData</text>
</a>
</g>
</g>
<!-- Node13&#45;&gt;Node14 -->
<g id="edge15_Node000013_Node000014" class="edge">
<title>Node13&#45;&gt;Node14</title>
<g id="a_edge15_Node000013_Node000014"><a xlink:title=" ">
<path fill="none" stroke="#63b8ff" d="M597.86,-22.5C589.25,-22.68 580.64,-22.85 572.29,-23.01"/>
<polygon fill="#63b8ff" stroke="#63b8ff" points="598.02,-26 607.95,-22.3 597.88,-19 598.02,-26"/>
</a>
</g>
</g>
<!-- Node14&#45;&gt;Node5 -->
<g id="edge16_Node000014_Node000005" class="edge">
<title>Node14&#45;&gt;Node5</title>
<g id="a_edge16_Node000014_Node000005"><a xlink:title=" ">
<path fill="none" stroke="#63b8ff" d="M411.79,-33.17C403.25,-34.05 394.62,-34.94 386.19,-35.81"/>
<polygon fill="#63b8ff" stroke="#63b8ff" points="412.17,-36.65 421.75,-32.15 411.45,-29.69 412.17,-36.65"/>
</a>
</g>
</g>
<!-- Node15&#45;&gt;Node3 -->
<g id="edge19_Node000015_Node000003" class="edge">
<title>Node15&#45;&gt;Node3</title>
<g id="a_edge19_Node000015_Node000003"><a xlink:title=" ">
<path fill="none" stroke="#63b8ff" d="M1180.49,-147.65C1159.17,-149.98 1136,-152.51 1116.57,-154.63"/>
<polygon fill="#63b8ff" stroke="#63b8ff" points="1180.91,-151.13 1190.47,-146.56 1180.15,-144.17 1180.91,-151.13"/>
</a>
</g>
</g>
<!-- Node16&#45;&gt;Node3 -->
<g id="edge21_Node000016_Node000003" class="edge">
<title>Node16&#45;&gt;Node3</title>
<g id="a_edge21_Node000016_Node000003"><a xlink:title=" ">
<path fill="none" stroke="#63b8ff" d="M1194.15,-115.61C1186.02,-117.75 1177.75,-120.08 1170,-122.5 1143.96,-130.64 1114.79,-141.94 1095.1,-149.91"/>
<polygon fill="#63b8ff" stroke="#63b8ff" points="1195.13,-118.97 1203.94,-113.09 1193.39,-112.19 1195.13,-118.97"/>
</a>
</g>
</g>
</g>
</svg>
