<?xml version="1.0" encoding="UTF-8" standalone="no"?>
<!DOCTYPE svg PUBLIC "-//W3C//DTD SVG 1.1//EN"
 "http://www.w3.org/Graphics/SVG/1.1/DTD/svg11.dtd">
<!-- Generated by graphviz version 2.43.0 (0)
 -->
<!-- Title: WebServer::sweepCgiTimeouts Pages: 1 -->
<svg width="1189pt" height="1167pt"
 viewBox="0.00 0.00 1189.00 1167.43" xmlns="http://www.w3.org/2000/svg" xmlns:xlink="http://www.w3.org/1999/xlink">
<g id="graph0" class="graph" transform="scale(1 1) rotate(0) translate(4 1163.43)">
<title>WebServer::sweepCgiTimeouts</title>
<!-- Node1 -->
<g id="Node000001" class="node">
<title>Node1</title>
<g id="a_Node000001"><a xlink:title="Scans active CGI processes and terminates those exceeding timeout.">
<polygon fill="#999999" stroke="#666666" points="168,-312 0,-312 0,-293 168,-293 168,-312"/>
<text text-anchor="middle" x="84" y="-300" font-family="Helvetica,sans-Serif" font-size="10.00">WebServer::sweepCgiTimeouts</text>
</a>
</g>
</g>
<!-- Node2 -->
<g id="Node000002" class="node">
<title>Node2</title>
<g id="a_Node000002"><a xlink:href="classResponseBuilder.html#afd79929bb501be85bdc85d86fdce93e9" target="_top" xlink:title="Assembles the complete HTTP response, including error handling.">
<polygon fill="white" stroke="#666666" points="352.5,-791 224.5,-791 224.5,-772 352.5,-772 352.5,-791"/>
<text text-anchor="middle" x="288.5" y="-779" font-family="Helvetica,sans-Serif" font-size="10.00">ResponseBuilder::build</text>
</a>
</g>
</g>
<!-- Node1&#45;&gt;Node2 -->
<g id="edge1_Node000001_Node000002" class="edge">
<title>Node1&#45;&gt;Node2</title>
<g id="a_edge1_Node000001_Node000002"><a xlink:title=" ">
<path fill="none" stroke="#63b8ff" d="M88.28,-312.05C101.51,-350.4 152.8,-496.76 204,-613.5 228.21,-668.7 261.06,-731.9 277.4,-762.67"/>
<polygon fill="#63b8ff" stroke="#63b8ff" points="274.48,-764.63 282.27,-771.81 280.66,-761.34 274.48,-764.63"/>
</a>
</g>
</g>
<!-- Node10 -->
<g id="Node000010" class="node">
<title>Node10</title>
<g id="a_Node000010"><a xlink:href="string__utils_8hpp.html#ad735976365693b45c427000fe042e173" target="_top" xlink:title="Converts any printable type to a string representation.">
<polygon fill="white" stroke="#666666" points="939,-528 884,-528 884,-509 939,-509 939,-528"/>
<text text-anchor="middle" x="911.5" y="-516" font-family="Helvetica,sans-Serif" font-size="10.00">toString</text>
</a>
</g>
</g>
<!-- Node1&#45;&gt;Node10 -->
<g id="edge53_Node000001_Node000010" class="edge">
<title>Node1&#45;&gt;Node10</title>
<g id="a_edge53_Node000001_Node000010"><a xlink:title=" ">
<path fill="none" stroke="#63b8ff" d="M91.41,-312.07C107.35,-334.99 151.29,-392.97 204,-418.5 439.57,-532.59 529.66,-452.43 788,-494.5 817.01,-499.22 849.66,-505.68 873.96,-510.7"/>
<polygon fill="#63b8ff" stroke="#63b8ff" points="873.32,-514.15 883.82,-512.76 874.75,-507.29 873.32,-514.15"/>
</a>
</g>
</g>
<!-- Node11 -->
<g id="Node000011" class="node">
<title>Node11</title>
<g id="a_Node000011"><a xlink:href="classLogger.html#a4aa4d7c3b98f6e12e7ea8253da5ea0cd" target="_top" xlink:title="Returns the singleton instance of the Logger.">
<polygon fill="white" stroke="#666666" points="748,-409 651,-409 651,-390 748,-390 748,-409"/>
<text text-anchor="middle" x="699.5" y="-397" font-family="Helvetica,sans-Serif" font-size="10.00">Logger::instance</text>
</a>
</g>
</g>
<!-- Node1&#45;&gt;Node11 -->
<g id="edge39_Node000001_Node000011" class="edge">
<title>Node1&#45;&gt;Node11</title>
<g id="a_edge39_Node000001_Node000011"><a xlink:title=" ">
<path fill="none" stroke="#63b8ff" d="M92.62,-312.24C109.77,-333.27 153.87,-382.51 204,-400.5 244.04,-414.87 518.55,-406.39 640.42,-401.83"/>
<polygon fill="#63b8ff" stroke="#63b8ff" points="640.82,-405.31 650.68,-401.44 640.56,-398.32 640.82,-405.31"/>
</a>
</g>
</g>
<!-- Node12 -->
<g id="Node000012" class="node">
<title>Node12</title>
<g id="a_Node000012"><a xlink:href="classLogger.html#a3d3f0801eeaf39b33a906ea8569c19b2" target="_top" xlink:title="Writes a log entry with timestamp, level, and message.">
<polygon fill="white" stroke="#666666" points="735,-333 664,-333 664,-314 735,-314 735,-333"/>
<text text-anchor="middle" x="699.5" y="-321" font-family="Helvetica,sans-Serif" font-size="10.00">Logger::log</text>
</a>
</g>
</g>
<!-- Node1&#45;&gt;Node12 -->
<g id="edge40_Node000001_Node000012" class="edge">
<title>Node1&#45;&gt;Node12</title>
<g id="a_edge40_Node000001_Node000012"><a xlink:title=" ">
<path fill="none" stroke="#63b8ff" d="M88.75,-292.63C100.44,-263.44 139.37,-177.61 204,-145.5 271.27,-112.08 300.23,-126.9 373,-145.5 499.3,-177.78 629.36,-270.28 678.28,-307.6"/>
<polygon fill="#63b8ff" stroke="#63b8ff" points="676.39,-310.57 686.45,-313.9 680.67,-305.03 676.39,-310.57"/>
</a>
</g>
</g>
<!-- Node14 -->
<g id="Node000014" class="node">
<title>Node14</title>
<g id="a_Node000014"><a xlink:href="classHttpResponse.html#af02b3b82a638bfbf23226b9f3bf06843" target="_top" xlink:title="Sets the HTTP status code and updates the corresponding reason phrase.">
<polygon fill="white" stroke="#666666" points="780,-609 619,-609 619,-590 780,-590 780,-609"/>
<text text-anchor="middle" x="699.5" y="-597" font-family="Helvetica,sans-Serif" font-size="10.00">HttpResponse::setStatusCode</text>
</a>
</g>
</g>
<!-- Node1&#45;&gt;Node14 -->
<g id="edge52_Node000001_Node000014" class="edge">
<title>Node1&#45;&gt;Node14</title>
<g id="a_edge52_Node000001_Node000014"><a xlink:title=" ">
<path fill="none" stroke="#63b8ff" d="M88.69,-312.03C100.75,-342.08 141.89,-436.02 204,-489.5 317.79,-587.49 499.77,-603.7 608.35,-603.63"/>
<polygon fill="#63b8ff" stroke="#63b8ff" points="608.65,-607.13 618.63,-603.57 608.61,-600.13 608.65,-607.13"/>
</a>
</g>
</g>
<!-- Node27 -->
<g id="Node000027" class="node">
<title>Node27</title>
<g id="a_Node000027"><a xlink:href="classClientConnection.html#a97a43b53eee31d7e8bb42f80845a7813" target="_top" xlink:title="Resets all CGI&#45;related state (after process termination).">
<polygon fill="white" stroke="#666666" points="361.5,-371 215.5,-371 215.5,-352 361.5,-352 361.5,-371"/>
<text text-anchor="middle" x="288.5" y="-359" font-family="Helvetica,sans-Serif" font-size="10.00">ClientConnection::clearCgi</text>
</a>
</g>
</g>
<!-- Node1&#45;&gt;Node27 -->
<g id="edge34_Node000001_Node000027" class="edge">
<title>Node1&#45;&gt;Node27</title>
<g id="a_edge34_Node000001_Node000027"><a xlink:title=" ">
<path fill="none" stroke="#63b8ff" d="M111.23,-312.16C135.19,-320.79 171.69,-333.42 204,-342.5 212.93,-345.01 222.48,-347.43 231.8,-349.65"/>
<polygon fill="#63b8ff" stroke="#63b8ff" points="231.25,-353.11 241.79,-351.97 232.84,-346.29 231.25,-353.11"/>
</a>
</g>
</g>
<!-- Node28 -->
<g id="Node000028" class="node">
<title>Node28</title>
<g id="a_Node000028"><a xlink:href="classClientConnection.html#af11c5f6a2ca8803c42d4091b55c8917f" target="_top" xlink:title=" ">
<polygon fill="white" stroke="#666666" points="364.5,-334 212.5,-334 212.5,-315 364.5,-315 364.5,-334"/>
<text text-anchor="middle" x="288.5" y="-322" font-family="Helvetica,sans-Serif" font-size="10.00">ClientConnection::getCgiPid</text>
</a>
</g>
</g>
<!-- Node1&#45;&gt;Node28 -->
<g id="edge35_Node000001_Node000028" class="edge">
<title>Node1&#45;&gt;Node28</title>
<g id="a_edge35_Node000001_Node000028"><a xlink:title=" ">
<path fill="none" stroke="#63b8ff" d="M168.24,-311.54C179.43,-312.76 190.93,-314.01 202.15,-315.23"/>
<polygon fill="#63b8ff" stroke="#63b8ff" points="202.05,-318.74 212.37,-316.34 202.81,-311.78 202.05,-318.74"/>
</a>
</g>
</g>
<!-- Node29 -->
<g id="Node000029" class="node">
<title>Node29</title>
<g id="a_Node000029"><a xlink:href="classClientConnection.html#a55345f20e2eb13d50f5cb259e6483d78" target="_top" xlink:title=" ">
<polygon fill="white" stroke="#666666" points="357,-296.5 220,-296.5 220,-266.5 357,-266.5 357,-296.5"/>
<text text-anchor="start" x="228" y="-284.5" font-family="Helvetica,sans-Serif" font-size="10.00">ClientConnection::getCgi</text>
<text text-anchor="middle" x="288.5" y="-273.5" font-family="Helvetica,sans-Serif" font-size="10.00">Start</text>
</a>
</g>
</g>
<!-- Node1&#45;&gt;Node29 -->
<g id="edge36_Node000001_Node000029" class="edge">
<title>Node1&#45;&gt;Node29</title>
<g id="a_edge36_Node000001_Node000029"><a xlink:title=" ">
<path fill="none" stroke="#63b8ff" d="M168.24,-293.87C181.89,-292.45 195.99,-290.99 209.5,-289.59"/>
<polygon fill="#63b8ff" stroke="#63b8ff" points="210.12,-293.04 219.71,-288.53 209.4,-286.08 210.12,-293.04"/>
</a>
</g>
</g>
<!-- Node30 -->
<g id="Node000030" class="node">
<title>Node30</title>
<g id="a_Node000030"><a xlink:href="classClientConnection.html#a9b3f87772610502966568929b71fecf4" target="_top" xlink:title=" ">
<polygon fill="white" stroke="#666666" points="369,-248 208,-248 208,-229 369,-229 369,-248"/>
<text text-anchor="middle" x="288.5" y="-236" font-family="Helvetica,sans-Serif" font-size="10.00">ClientConnection::getRequest</text>
</a>
</g>
</g>
<!-- Node1&#45;&gt;Node30 -->
<g id="edge37_Node000001_Node000030" class="edge">
<title>Node1&#45;&gt;Node30</title>
<g id="a_edge37_Node000001_Node000030"><a xlink:title=" ">
<path fill="none" stroke="#63b8ff" d="M107.49,-292.93C131.19,-283.1 169.74,-267.82 204,-257.5 212.48,-254.94 221.54,-252.55 230.44,-250.38"/>
<polygon fill="#63b8ff" stroke="#63b8ff" points="231.46,-253.73 240.39,-248.03 229.85,-246.92 231.46,-253.73"/>
</a>
</g>
</g>
<!-- Node31 -->
<g id="Node000031" class="node">
<title>Node31</title>
<g id="a_Node000031"><a xlink:href="classClientConnection.html#a9831615e09faee64781ea0e1c74eb3b8" target="_top" xlink:title=" ">
<polygon fill="white" stroke="#666666" points="373,-211 204,-211 204,-192 373,-192 373,-211"/>
<text text-anchor="middle" x="288.5" y="-199" font-family="Helvetica,sans-Serif" font-size="10.00">ClientConnection::getResponse</text>
</a>
</g>
</g>
<!-- Node1&#45;&gt;Node31 -->
<g id="edge38_Node000001_Node000031" class="edge">
<title>Node1&#45;&gt;Node31</title>
<g id="a_edge38_Node000001_Node000031"><a xlink:title=" ">
<path fill="none" stroke="#63b8ff" d="M95.59,-292.88C115.36,-275.46 159.89,-238.71 204,-219.5 208.72,-217.44 213.7,-215.61 218.78,-213.99"/>
<polygon fill="#63b8ff" stroke="#63b8ff" points="220.01,-217.27 228.62,-211.1 218.04,-210.56 220.01,-217.27"/>
</a>
</g>
</g>
<!-- Node32 -->
<g id="Node000032" class="node">
<title>Node32</title>
<g id="a_Node000032"><a xlink:href="classWebServer.html#ab3ae1ee99bdea0520245ed9bc2d5d597" target="_top" xlink:title="Removes a CGI FD from poll() monitoring.">
<polygon fill="white" stroke="#666666" points="367.5,-174 209.5,-174 209.5,-155 367.5,-155 367.5,-174"/>
<text text-anchor="middle" x="288.5" y="-162" font-family="Helvetica,sans-Serif" font-size="10.00">WebServer::removeCgiPollFd</text>
</a>
</g>
</g>
<!-- Node1&#45;&gt;Node32 -->
<g id="edge41_Node000001_Node000032" class="edge">
<title>Node1&#45;&gt;Node32</title>
<g id="a_edge41_Node000001_Node000032"><a xlink:title=" ">
<path fill="none" stroke="#63b8ff" d="M91.47,-292.88C107.54,-269.8 151.76,-211.1 204,-182.5 207.32,-180.68 210.8,-179.05 214.39,-177.58"/>
<polygon fill="#63b8ff" stroke="#63b8ff" points="215.86,-180.77 224.07,-174.07 213.48,-174.19 215.86,-180.77"/>
</a>
</g>
</g>
<!-- Node33 -->
<g id="Node000033" class="node">
<title>Node33</title>
<g id="a_Node000033"><a xlink:href="classResponseBuilder.html#ab1eeac4dc441885dfd3330fe69bc1b58" target="_top" xlink:title="Constructs the complete HTTP response string.">
<polygon fill="white" stroke="#666666" points="566.5,-98.5 417.5,-98.5 417.5,-68.5 566.5,-68.5 566.5,-98.5"/>
<text text-anchor="start" x="425.5" y="-86.5" font-family="Helvetica,sans-Serif" font-size="10.00">ResponseBuilder::response</text>
<text text-anchor="middle" x="492" y="-75.5" font-family="Helvetica,sans-Serif" font-size="10.00">Writer</text>
</a>
</g>
</g>
<!-- Node1&#45;&gt;Node33 -->
<g id="edge42_Node000001_Node000033" class="edge">
<title>Node1&#45;&gt;Node33</title>
<g id="a_edge42_Node000001_Node000033"><a xlink:title=" ">
<path fill="none" stroke="#63b8ff" d="M86.16,-292.94C91.34,-254.98 116.12,-114.32 204,-59.5 279.15,-12.63 387.71,-42.11 447.47,-64.73"/>
<polygon fill="#63b8ff" stroke="#63b8ff" points="446.39,-68.06 456.98,-68.42 448.93,-61.54 446.39,-68.06"/>
</a>
</g>
</g>
<!-- Node39 -->
<g id="Node000039" class="node">
<title>Node39</title>
<g id="a_Node000039"><a xlink:href="classClientConnection.html#aa11f1d93d9dcf41a5ab77a17d386403c" target="_top" xlink:title=" ">
<polygon fill="white" stroke="#666666" points="372.5,-98.5 204.5,-98.5 204.5,-68.5 372.5,-68.5 372.5,-98.5"/>
<text text-anchor="start" x="212.5" y="-86.5" font-family="Helvetica,sans-Serif" font-size="10.00">ClientConnection::setResponse</text>
<text text-anchor="middle" x="288.5" y="-75.5" font-family="Helvetica,sans-Serif" font-size="10.00">Buffer</text>
</a>
</g>
</g>
<!-- Node1&#45;&gt;Node39 -->
<g id="edge51_Node000001_Node000039" class="edge">
<title>Node1&#45;&gt;Node39</title>
<g id="a_edge51_Node000001_Node000039"><a xlink:title=" ">
<path fill="none" stroke="#63b8ff" d="M88.46,-292.59C99.84,-261.39 139.16,-164.16 204,-112.5 208.54,-108.89 213.55,-105.71 218.81,-102.91"/>
<polygon fill="#63b8ff" stroke="#63b8ff" points="220.35,-106.06 227.84,-98.57 217.31,-99.75 220.35,-106.06"/>
</a>
</g>
</g>
<!-- Node40 -->
<g id="Node000040" class="node">
<title>Node40</title>
<g id="a_Node000040"><a xlink:href="classSignals.html#aa783f74c1937b7e3a797914950378870" target="_top" xlink:title="Unregisters a finished CGI process.">
<polygon fill="white" stroke="#666666" points="572.5,-371 411.5,-371 411.5,-352 572.5,-352 572.5,-371"/>
<text text-anchor="middle" x="492" y="-359" font-family="Helvetica,sans-Serif" font-size="10.00">Signals::unregisterCgiProcess</text>
</a>
</g>
</g>
<!-- Node1&#45;&gt;Node40 -->
<g id="edge54_Node000001_Node000040" class="edge">
<title>Node1&#45;&gt;Node40</title>
<g id="a_edge54_Node000001_Node000040"><a xlink:title=" ">
<path fill="none" stroke="#63b8ff" d="M95.1,-312.02C114.41,-329.5 158.69,-366.12 204,-379.5 287.34,-404.11 390.02,-386.94 447.22,-373.42"/>
<polygon fill="#63b8ff" stroke="#63b8ff" points="448.13,-376.8 457.02,-371.03 446.47,-370 448.13,-376.8"/>
</a>
</g>
</g>
<!-- Node3 -->
<g id="Node000003" class="node">
<title>Node3</title>
<g id="a_Node000003"><a xlink:href="classHttpResponse.html#abb032c16ad3961d50a6582c50c330581" target="_top" xlink:title="Adds a header field to the HTTP response.">
<polygon fill="white" stroke="#666666" points="983.5,-1103 839.5,-1103 839.5,-1084 983.5,-1084 983.5,-1103"/>
<text text-anchor="middle" x="911.5" y="-1091" font-family="Helvetica,sans-Serif" font-size="10.00">HttpResponse::addHeader</text>
</a>
</g>
</g>
<!-- Node2&#45;&gt;Node3 -->
<g id="edge2_Node000002_Node000003" class="edge">
<title>Node2&#45;&gt;Node3</title>
<g id="a_edge2_Node000002_Node000003"><a xlink:title=" ">
<path fill="none" stroke="#63b8ff" d="M289.93,-791.06C292.38,-833.29 308.41,-1004.09 409,-1074.5 474.61,-1120.42 704.59,-1110.19 829.05,-1100.77"/>
<polygon fill="#63b8ff" stroke="#63b8ff" points="829.59,-1104.24 839.29,-1099.98 829.05,-1097.26 829.59,-1104.24"/>
</a>
</g>
</g>
<!-- Node4 -->
<g id="Node000004" class="node">
<title>Node4</title>
<g id="a_Node000004"><a xlink:href="classResponseBuilder.html#a998edbfd6f08dd34332ca92507db5d77" target="_top" xlink:title="Attempts to load and serve a custom error page from configuration.">
<polygon fill="white" stroke="#666666" points="567.5,-571.5 416.5,-571.5 416.5,-541.5 567.5,-541.5 567.5,-571.5"/>
<text text-anchor="start" x="424.5" y="-559.5" font-family="Helvetica,sans-Serif" font-size="10.00">ResponseBuilder::errorPage</text>
<text text-anchor="middle" x="492" y="-548.5" font-family="Helvetica,sans-Serif" font-size="10.00">Config</text>
</a>
</g>
</g>
<!-- Node2&#45;&gt;Node4 -->
<g id="edge3_Node000002_Node000004" class="edge">
<title>Node2&#45;&gt;Node4</title>
<g id="a_edge3_Node000002_Node000004"><a xlink:title=" ">
<path fill="none" stroke="#63b8ff" d="M295.53,-771.99C311.96,-746.43 359.61,-674.78 409,-623.5 425.07,-606.81 445.19,-590.32 461.48,-577.87"/>
<polygon fill="#63b8ff" stroke="#63b8ff" points="463.73,-580.56 469.61,-571.75 459.52,-574.97 463.73,-580.56"/>
</a>
</g>
</g>
<!-- Node6 -->
<g id="Node000006" class="node">
<title>Node6</title>
<g id="a_Node000006"><a xlink:href="classHttpResponse.html#aefca7483c5921d939a7c8dccc705ba08" target="_top" xlink:title="Returns the current HTTP status code.">
<polygon fill="white" stroke="#666666" points="780.5,-523 618.5,-523 618.5,-504 780.5,-504 780.5,-523"/>
<text text-anchor="middle" x="699.5" y="-511" font-family="Helvetica,sans-Serif" font-size="10.00">HttpResponse::getStatusCode</text>
</a>
</g>
</g>
<!-- Node2&#45;&gt;Node6 -->
<g id="edge21_Node000002_Node000006" class="edge">
<title>Node2&#45;&gt;Node6</title>
<g id="a_edge21_Node000002_Node000006"><a xlink:title=" ">
<path fill="none" stroke="#63b8ff" d="M290.7,-771.88C296.05,-733.65 321.41,-591.71 409,-532.5 479.85,-484.6 584.08,-491.88 646.23,-502.22"/>
<polygon fill="#63b8ff" stroke="#63b8ff" points="645.75,-505.69 656.21,-503.96 646.96,-498.79 645.75,-505.69"/>
</a>
</g>
</g>
<!-- Node7 -->
<g id="Node000007" class="node">
<title>Node7</title>
<g id="a_Node000007"><a xlink:href="classResponseBuilder.html#a0a1b2929111eec67e4ebe1acb7796915" target="_top" xlink:title="Prepares an HTTP response for a static page.">
<polygon fill="white" stroke="#666666" points="782,-952.5 617,-952.5 617,-922.5 782,-922.5 782,-952.5"/>
<text text-anchor="start" x="625" y="-940.5" font-family="Helvetica,sans-Serif" font-size="10.00">ResponseBuilder::handleStatic</text>
<text text-anchor="middle" x="699.5" y="-929.5" font-family="Helvetica,sans-Serif" font-size="10.00">PageOutput</text>
</a>
</g>
</g>
<!-- Node2&#45;&gt;Node7 -->
<g id="edge22_Node000002_Node000007" class="edge">
<title>Node2&#45;&gt;Node7</title>
<g id="a_edge22_Node000002_Node000007"><a xlink:title=" ">
<path fill="none" stroke="#63b8ff" d="M295.21,-791.35C310.19,-816.13 353.33,-881.07 409,-908.5 470.25,-938.68 547.54,-945.07 606.84,-944.39"/>
<polygon fill="#63b8ff" stroke="#63b8ff" points="607.02,-947.88 616.95,-944.2 606.89,-940.88 607.02,-947.88"/>
</a>
</g>
</g>
<!-- Node2&#45;&gt;Node10 -->
<g id="edge33_Node000002_Node000010" class="edge">
<title>Node2&#45;&gt;Node10</title>
<g id="a_edge33_Node000002_Node000010"><a xlink:title=" ">
<path fill="none" stroke="#63b8ff" d="M295.26,-771.82C310.35,-747.44 353.72,-683.56 409,-656.5 561.09,-582.05 631.45,-682.05 788,-617.5 832.58,-599.12 873.87,-559.08 895.25,-535.95"/>
<polygon fill="#63b8ff" stroke="#63b8ff" points="898.09,-538.03 902.19,-528.26 892.89,-533.34 898.09,-538.03"/>
</a>
</g>
</g>
<!-- Node2&#45;&gt;Node11 -->
<g id="edge23_Node000002_Node000011" class="edge">
<title>Node2&#45;&gt;Node11</title>
<g id="a_edge23_Node000002_Node000011"><a xlink:title=" ">
<path fill="none" stroke="#63b8ff" d="M290.56,-771.84C295.5,-731.33 320.04,-573.35 409,-491.5 473.65,-432.01 576.75,-410.99 640.88,-403.56"/>
<polygon fill="#63b8ff" stroke="#63b8ff" points="641.27,-407.04 650.83,-402.48 640.51,-400.08 641.27,-407.04"/>
</a>
</g>
</g>
<!-- Node2&#45;&gt;Node12 -->
<g id="edge24_Node000002_Node000012" class="edge">
<title>Node2&#45;&gt;Node12</title>
<g id="a_edge24_Node000002_Node000012"><a xlink:title=" ">
<path fill="none" stroke="#63b8ff" d="M290.63,-771.8C297.73,-712.57 338.21,-400.36 409,-342.5 478.45,-285.73 591.37,-298.75 653.67,-311.93"/>
<polygon fill="#63b8ff" stroke="#63b8ff" points="653.07,-315.38 663.59,-314.12 654.58,-308.55 653.07,-315.38"/>
</a>
</g>
</g>
<!-- Node15 -->
<g id="Node000015" class="node">
<title>Node15</title>
<g id="a_Node000015"><a xlink:href="classHttpResponse.html#a98bb39b2757912eae4f667db80e3e6a4" target="_top" xlink:title="Sets the textual reason phrase for a given status code.">
<polygon fill="white" stroke="#666666" points="999,-750 824,-750 824,-731 999,-731 999,-750"/>
<text text-anchor="middle" x="911.5" y="-738" font-family="Helvetica,sans-Serif" font-size="10.00">HttpResponse::setReasonPhrase</text>
</a>
</g>
</g>
<!-- Node2&#45;&gt;Node15 -->
<g id="edge29_Node000002_Node000015" class="edge">
<title>Node2&#45;&gt;Node15</title>
<g id="a_edge29_Node000002_Node000015"><a xlink:title=" ">
<path fill="none" stroke="#63b8ff" d="M297.52,-791.16C315.14,-811.52 359.61,-858.4 409,-875.5 478.72,-899.63 502.57,-889.53 575,-875.5 696.24,-852.02 829.23,-784.93 884.34,-755.1"/>
<polygon fill="#63b8ff" stroke="#63b8ff" points="886.31,-758.01 893.41,-750.15 882.95,-751.87 886.31,-758.01"/>
</a>
</g>
</g>
<!-- Node17 -->
<g id="Node000017" class="node">
<title>Node17</title>
<g id="a_Node000017"><a xlink:href="classResponseBuilder.html#ac417ac0be55269cb7f95d0e3bc01dc51" target="_top" xlink:title="Generates a simple HTML error page for a given HTTP status code.">
<polygon fill="white" stroke="#666666" points="567.5,-1065.5 416.5,-1065.5 416.5,-1035.5 567.5,-1035.5 567.5,-1065.5"/>
<text text-anchor="start" x="424.5" y="-1053.5" font-family="Helvetica,sans-Serif" font-size="10.00">ResponseBuilder::errorPage</text>
<text text-anchor="middle" x="492" y="-1042.5" font-family="Helvetica,sans-Serif" font-size="10.00">Generator</text>
</a>
</g>
</g>
<!-- Node2&#45;&gt;Node17 -->
<g id="edge17_Node000002_Node000017" class="edge">
<title>Node2&#45;&gt;Node17</title>
<g id="a_edge17_Node000002_Node000017"><a xlink:title=" ">
<path fill="none" stroke="#63b8ff" d="M291.34,-791.12C298.82,-827.57 330.37,-958.51 409,-1025.5 410.98,-1027.19 413.08,-1028.76 415.26,-1030.23"/>
<polygon fill="#63b8ff" stroke="#63b8ff" points="413.66,-1033.35 424.06,-1035.39 417.2,-1027.31 413.66,-1033.35"/>
</a>
</g>
</g>
<!-- Node18 -->
<g id="Node000018" class="node">
<title>Node18</title>
<g id="a_Node000018"><a xlink:href="classHttpRequest.html#afee0e84f22f6d1226023d40f4a75c17a" target="_top" xlink:title="Returns a const reference to the RequestMeta structure.">
<polygon fill="white" stroke="#666666" points="554,-1017 430,-1017 430,-998 554,-998 554,-1017"/>
<text text-anchor="middle" x="492" y="-1005" font-family="Helvetica,sans-Serif" font-size="10.00">HttpRequest::getMeta</text>
</a>
</g>
</g>
<!-- Node2&#45;&gt;Node18 -->
<g id="edge18_Node000002_Node000018" class="edge">
<title>Node2&#45;&gt;Node18</title>
<g id="a_edge18_Node000002_Node000018"><a xlink:title=" ">
<path fill="none" stroke="#63b8ff" d="M292.07,-791.17C301.42,-824.46 336.97,-935.15 409,-988.5 412.5,-991.09 416.3,-993.34 420.28,-995.29"/>
<polygon fill="#63b8ff" stroke="#63b8ff" points="419.25,-998.65 429.83,-999.3 421.97,-992.2 419.25,-998.65"/>
</a>
</g>
</g>
<!-- Node19 -->
<g id="Node000019" class="node">
<title>Node19</title>
<g id="a_Node000019"><a xlink:href="classServerConfig.html#a1d6c7f794b3c144162edd0f6a29df94a" target="_top" xlink:title=" ">
<polygon fill="white" stroke="#666666" points="553.5,-980 430.5,-980 430.5,-961 553.5,-961 553.5,-980"/>
<text text-anchor="middle" x="492" y="-968" font-family="Helvetica,sans-Serif" font-size="10.00">ServerConfig::getRoot</text>
</a>
</g>
</g>
<!-- Node2&#45;&gt;Node19 -->
<g id="edge19_Node000002_Node000019" class="edge">
<title>Node2&#45;&gt;Node19</title>
<g id="a_edge19_Node000002_Node000019"><a xlink:title=" ">
<path fill="none" stroke="#63b8ff" d="M293.63,-791.01C306.38,-819.29 348.02,-903.48 409,-946.5 415.17,-950.85 422.12,-954.42 429.31,-957.35"/>
<polygon fill="#63b8ff" stroke="#63b8ff" points="428.6,-960.81 439.19,-960.95 431,-954.24 428.6,-960.81"/>
</a>
</g>
</g>
<!-- Node20 -->
<g id="Node000020" class="node">
<title>Node20</title>
<g id="a_Node000020"><a xlink:href="classClientConnection.html#ad157100f057508c3f4766a0b9c011d56" target="_top" xlink:title=" ">
<polygon fill="white" stroke="#666666" points="568.5,-866.5 415.5,-866.5 415.5,-836.5 568.5,-836.5 568.5,-866.5"/>
<text text-anchor="start" x="423.5" y="-854.5" font-family="Helvetica,sans-Serif" font-size="10.00">ClientConnection::getServer</text>
<text text-anchor="middle" x="492" y="-843.5" font-family="Helvetica,sans-Serif" font-size="10.00">Config</text>
</a>
</g>
</g>
<!-- Node2&#45;&gt;Node20 -->
<g id="edge20_Node000002_Node000020" class="edge">
<title>Node2&#45;&gt;Node20</title>
<g id="a_edge20_Node000002_Node000020"><a xlink:title=" ">
<path fill="none" stroke="#63b8ff" d="M312.65,-791.07C336.57,-800.8 375.09,-816.03 409,-827.5 414.9,-829.5 421.07,-831.48 427.27,-833.41"/>
<polygon fill="#63b8ff" stroke="#63b8ff" points="426.4,-836.8 436.99,-836.38 428.45,-830.11 426.4,-836.8"/>
</a>
</g>
</g>
<!-- Node21 -->
<g id="Node000021" class="node">
<title>Node21</title>
<g id="a_Node000021"><a xlink:href="classRequestMeta.html#ad4f70f6ac25a37bd22eead55abc63a88" target="_top" xlink:title="Defines whether the connection should be closed after the response.">
<polygon fill="white" stroke="#666666" points="570.5,-818.5 413.5,-818.5 413.5,-788.5 570.5,-788.5 570.5,-818.5"/>
<text text-anchor="start" x="421.5" y="-806.5" font-family="Helvetica,sans-Serif" font-size="10.00">RequestMeta::setConnection</text>
<text text-anchor="middle" x="492" y="-795.5" font-family="Helvetica,sans-Serif" font-size="10.00">Close</text>
</a>
</g>
</g>
<!-- Node2&#45;&gt;Node21 -->
<g id="edge25_Node000002_Node000021" class="edge">
<title>Node2&#45;&gt;Node21</title>
<g id="a_edge25_Node000002_Node000021"><a xlink:title=" ">
<path fill="none" stroke="#63b8ff" d="M352.7,-788.4C368.82,-790.16 386.42,-792.08 403.51,-793.95"/>
<polygon fill="#63b8ff" stroke="#63b8ff" points="403.18,-797.43 413.5,-795.04 403.94,-790.47 403.18,-797.43"/>
</a>
</g>
</g>
<!-- Node22 -->
<g id="Node000022" class="node">
<title>Node22</title>
<g id="a_Node000022"><a xlink:href="classResponseBuilder.html#a8c8e1391a9e13ef9c48e73cdc5ffb96a" target="_top" xlink:title="Adds mandatory HTTP headers to the response.">
<polygon fill="white" stroke="#666666" points="575,-1151.5 409,-1151.5 409,-1121.5 575,-1121.5 575,-1151.5"/>
<text text-anchor="start" x="417" y="-1139.5" font-family="Helvetica,sans-Serif" font-size="10.00">ResponseBuilder::setMinimum</text>
<text text-anchor="middle" x="492" y="-1128.5" font-family="Helvetica,sans-Serif" font-size="10.00">Headers</text>
</a>
</g>
</g>
<!-- Node2&#45;&gt;Node22 -->
<g id="edge26_Node000002_Node000022" class="edge">
<title>Node2&#45;&gt;Node22</title>
<g id="a_edge26_Node000002_Node000022"><a xlink:title=" ">
<path fill="none" stroke="#63b8ff" d="M290.13,-791.06C293.5,-834.17 312.98,-1012.57 409,-1107.5 412.29,-1110.75 415.97,-1113.64 419.89,-1116.21"/>
<polygon fill="#63b8ff" stroke="#63b8ff" points="418.41,-1119.39 428.82,-1121.33 421.89,-1113.32 418.41,-1119.39"/>
</a>
</g>
</g>
<!-- Node24 -->
<g id="Node000024" class="node">
<title>Node24</title>
<g id="a_Node000024"><a xlink:href="classHttpResponse.html#a407dc1ea3f01365d8105fadc0418bc79" target="_top" xlink:title="Defines the HTTP version string (e.g., &quot;1.1&quot;).">
<polygon fill="white" stroke="#666666" points="563,-770 421,-770 421,-751 563,-751 563,-770"/>
<text text-anchor="middle" x="492" y="-758" font-family="Helvetica,sans-Serif" font-size="10.00">HttpResponse::setVersion</text>
</a>
</g>
</g>
<!-- Node2&#45;&gt;Node24 -->
<g id="edge30_Node000002_Node000024" class="edge">
<title>Node2&#45;&gt;Node24</title>
<g id="a_edge30_Node000002_Node000024"><a xlink:title=" ">
<path fill="none" stroke="#63b8ff" d="M352.7,-774.91C371.08,-773 391.41,-770.88 410.69,-768.87"/>
<polygon fill="#63b8ff" stroke="#63b8ff" points="411.08,-772.35 420.66,-767.83 410.35,-765.39 411.08,-772.35"/>
</a>
</g>
</g>
<!-- Node25 -->
<g id="Node000025" class="node">
<title>Node25</title>
<g id="a_Node000025"><a xlink:href="classRequestMeta.html#ac4273e56ac2833d678fcb296983b957e" target="_top" xlink:title="Returns true if the connection should be closed.">
<polygon fill="white" stroke="#666666" points="565,-733 419,-733 419,-714 565,-714 565,-733"/>
<text text-anchor="middle" x="492" y="-721" font-family="Helvetica,sans-Serif" font-size="10.00">RequestMeta::shouldClose</text>
</a>
</g>
</g>
<!-- Node2&#45;&gt;Node25 -->
<g id="edge31_Node000002_Node000025" class="edge">
<title>Node2&#45;&gt;Node25</title>
<g id="a_edge31_Node000002_Node000025"><a xlink:title=" ">
<path fill="none" stroke="#63b8ff" d="M315.36,-771.95C339.4,-763.29 376.31,-750.53 409,-741.5 416.89,-739.32 425.27,-737.23 433.53,-735.3"/>
<polygon fill="#63b8ff" stroke="#63b8ff" points="434.55,-738.65 443.52,-733.02 433,-731.83 434.55,-738.65"/>
</a>
</g>
</g>
<!-- Node26 -->
<g id="Node000026" class="node">
<title>Node26</title>
<g id="a_Node000026"><a xlink:href="classResponseBuilder.html#a118396ba3bce90b9bc2e7df02a84d2c4" target="_top" xlink:title="Determines whether the connection should be closed based on status code.">
<polygon fill="white" stroke="#666666" points="574,-695.5 410,-695.5 410,-665.5 574,-665.5 574,-695.5"/>
<text text-anchor="start" x="418" y="-683.5" font-family="Helvetica,sans-Serif" font-size="10.00">ResponseBuilder::shouldClose</text>
<text text-anchor="middle" x="492" y="-672.5" font-family="Helvetica,sans-Serif" font-size="10.00">Connection</text>
</a>
</g>
</g>
<!-- Node2&#45;&gt;Node26 -->
<g id="edge32_Node000002_Node000026" class="edge">
<title>Node2&#45;&gt;Node26</title>
<g id="a_edge32_Node000002_Node000026"><a xlink:title=" ">
<path fill="none" stroke="#63b8ff" d="M301.72,-771.91C322.61,-755.92 367.02,-723.68 409,-704.5 413.33,-702.52 417.85,-700.67 422.47,-698.93"/>
<polygon fill="#63b8ff" stroke="#63b8ff" points="423.77,-702.18 432.01,-695.53 421.42,-695.59 423.77,-702.18"/>
</a>
</g>
</g>
<!-- Node5 -->
<g id="Node000005" class="node">
<title>Node5</title>
<g id="a_Node000005"><a xlink:href="classServerConfig.html#ae077f794f7c8027bfd81a0b218edbff7" target="_top" xlink:title=" ">
<polygon fill="white" stroke="#666666" points="773,-566 626,-566 626,-547 773,-547 773,-566"/>
<text text-anchor="middle" x="699.5" y="-554" font-family="Helvetica,sans-Serif" font-size="10.00">ServerConfig::getErrorPage</text>
</a>
</g>
</g>
<!-- Node4&#45;&gt;Node5 -->
<g id="edge4_Node000004_Node000005" class="edge">
<title>Node4&#45;&gt;Node5</title>
<g id="a_edge4_Node000004_Node000005"><a xlink:title=" ">
<path fill="none" stroke="#63b8ff" d="M567.77,-556.5C583.3,-556.5 599.76,-556.5 615.57,-556.5"/>
<polygon fill="#63b8ff" stroke="#63b8ff" points="615.84,-560 625.84,-556.5 615.84,-553 615.84,-560"/>
</a>
</g>
</g>
<!-- Node4&#45;&gt;Node6 -->
<g id="edge5_Node000004_Node000006" class="edge">
<title>Node4&#45;&gt;Node6</title>
<g id="a_edge5_Node000004_Node000006"><a xlink:title=" ">
<path fill="none" stroke="#63b8ff" d="M564.87,-541.46C590.5,-536.1 618.94,-530.15 642.98,-525.12"/>
<polygon fill="#63b8ff" stroke="#63b8ff" points="643.92,-528.5 652.99,-523.02 642.49,-521.64 643.92,-528.5"/>
</a>
</g>
</g>
<!-- Node4&#45;&gt;Node7 -->
<g id="edge6_Node000004_Node000007" class="edge">
<title>Node4&#45;&gt;Node7</title>
<g id="a_edge6_Node000004_Node000007"><a xlink:title=" ">
<path fill="none" stroke="#63b8ff" d="M507.79,-571.76C525.43,-590.55 555.04,-623.97 575,-656.5 629.52,-745.33 672.82,-862.45 690.22,-912.78"/>
<polygon fill="#63b8ff" stroke="#63b8ff" points="686.99,-914.14 693.54,-922.47 693.61,-911.88 686.99,-914.14"/>
</a>
</g>
</g>
<!-- Node4&#45;&gt;Node11 -->
<g id="edge11_Node000004_Node000011" class="edge">
<title>Node4&#45;&gt;Node11</title>
<g id="a_edge11_Node000004_Node000011"><a xlink:title=" ">
<path fill="none" stroke="#63b8ff" d="M512.7,-541.45C551.56,-511.76 637.73,-445.93 677.56,-415.5"/>
<polygon fill="#63b8ff" stroke="#63b8ff" points="679.94,-418.08 685.76,-409.23 675.69,-412.52 679.94,-418.08"/>
</a>
</g>
</g>
<!-- Node4&#45;&gt;Node12 -->
<g id="edge12_Node000004_Node000012" class="edge">
<title>Node4&#45;&gt;Node12</title>
<g id="a_edge12_Node000004_Node000012"><a xlink:title=" ">
<path fill="none" stroke="#63b8ff" d="M500.44,-541.37C516.92,-508.97 559.15,-431.66 611,-380.5 628.47,-363.26 651.94,-348.31 670.17,-338.05"/>
<polygon fill="#63b8ff" stroke="#63b8ff" points="672.08,-341 679.17,-333.13 668.72,-334.86 672.08,-341"/>
</a>
</g>
</g>
<!-- Node4&#45;&gt;Node14 -->
<g id="edge14_Node000004_Node000014" class="edge">
<title>Node4&#45;&gt;Node14</title>
<g id="a_edge14_Node000004_Node000014"><a xlink:title=" ">
<path fill="none" stroke="#63b8ff" d="M564.87,-571.54C590.5,-576.9 618.94,-582.85 642.98,-587.88"/>
<polygon fill="#63b8ff" stroke="#63b8ff" points="642.49,-591.36 652.99,-589.98 643.92,-584.5 642.49,-591.36"/>
</a>
</g>
</g>
<!-- Node7&#45;&gt;Node3 -->
<g id="edge7_Node000007_Node000003" class="edge">
<title>Node7&#45;&gt;Node3</title>
<g id="a_edge7_Node000007_Node000003"><a xlink:title=" ">
<path fill="none" stroke="#63b8ff" d="M721.02,-952.74C761.02,-982.46 849.03,-1047.84 889.45,-1077.86"/>
<polygon fill="#63b8ff" stroke="#63b8ff" points="887.43,-1080.72 897.54,-1083.87 891.6,-1075.1 887.43,-1080.72"/>
</a>
</g>
</g>
<!-- Node8 -->
<g id="Node000008" class="node">
<title>Node8</title>
<g id="a_Node000008"><a xlink:href="classHttpResponse.html#a22352917aff72615ead5686b7e7b09b8" target="_top" xlink:title="Appends text data to the response body.">
<polygon fill="white" stroke="#666666" points="987.5,-965 835.5,-965 835.5,-946 987.5,-946 987.5,-965"/>
<text text-anchor="middle" x="911.5" y="-953" font-family="Helvetica,sans-Serif" font-size="10.00">HttpResponse::appendBody</text>
</a>
</g>
</g>
<!-- Node7&#45;&gt;Node8 -->
<g id="edge8_Node000007_Node000008" class="edge">
<title>Node7&#45;&gt;Node8</title>
<g id="a_edge8_Node000007_Node000008"><a xlink:title=" ">
<path fill="none" stroke="#63b8ff" d="M782.29,-944.51C796.38,-945.72 811.05,-946.98 825.23,-948.19"/>
<polygon fill="#63b8ff" stroke="#63b8ff" points="825.18,-951.7 835.44,-949.07 825.78,-944.73 825.18,-951.7"/>
</a>
</g>
</g>
<!-- Node9 -->
<g id="Node000009" class="node">
<title>Node9</title>
<g id="a_Node000009"><a xlink:href="classHttpResponse.html#ab929ceba6ce5236a670f33f9a6eeeb35" target="_top" xlink:title="Sets whether the response will use chunked transfer encoding.">
<polygon fill="white" stroke="#666666" points="985.5,-928 837.5,-928 837.5,-909 985.5,-909 985.5,-928"/>
<text text-anchor="middle" x="911.5" y="-916" font-family="Helvetica,sans-Serif" font-size="10.00">HttpResponse::setChunked</text>
</a>
</g>
</g>
<!-- Node7&#45;&gt;Node9 -->
<g id="edge9_Node000007_Node000009" class="edge">
<title>Node7&#45;&gt;Node9</title>
<g id="a_edge9_Node000007_Node000009"><a xlink:title=" ">
<path fill="none" stroke="#63b8ff" d="M782.29,-930.1C797.08,-928.76 812.51,-927.37 827.33,-926.02"/>
<polygon fill="#63b8ff" stroke="#63b8ff" points="827.84,-929.49 837.48,-925.11 827.21,-922.52 827.84,-929.49"/>
</a>
</g>
</g>
<!-- Node7&#45;&gt;Node10 -->
<g id="edge10_Node000007_Node000010" class="edge">
<title>Node7&#45;&gt;Node10</title>
<g id="a_edge10_Node000007_Node000010"><a xlink:title=" ">
<path fill="none" stroke="#63b8ff" d="M708.22,-922.09C740.67,-857.36 865.87,-607.54 901.18,-537.09"/>
<polygon fill="#63b8ff" stroke="#63b8ff" points="904.37,-538.55 905.72,-528.04 898.11,-535.41 904.37,-538.55"/>
</a>
</g>
</g>
<!-- Node13 -->
<g id="Node000013" class="node">
<title>Node13</title>
<g id="a_Node000013"><a xlink:href="classLogger.html#a19f9ef22095a67c9fe420c9d6e761fc2" target="_top" xlink:title="Converts a LogLevel enum value to its string label.">
<polygon fill="white" stroke="#666666" points="971,-333 852,-333 852,-314 971,-314 971,-333"/>
<text text-anchor="middle" x="911.5" y="-321" font-family="Helvetica,sans-Serif" font-size="10.00">Logger::levelToString</text>
</a>
</g>
</g>
<!-- Node12&#45;&gt;Node13 -->
<g id="edge13_Node000012_Node000013" class="edge">
<title>Node12&#45;&gt;Node13</title>
<g id="a_edge13_Node000012_Node000013"><a xlink:title=" ">
<path fill="none" stroke="#63b8ff" d="M735.18,-323.5C764.02,-323.5 805.96,-323.5 841.59,-323.5"/>
<polygon fill="#63b8ff" stroke="#63b8ff" points="841.93,-327 851.93,-323.5 841.93,-320 841.93,-327"/>
</a>
</g>
</g>
<!-- Node14&#45;&gt;Node15 -->
<g id="edge15_Node000014_Node000015" class="edge">
<title>Node14&#45;&gt;Node15</title>
<g id="a_edge15_Node000014_Node000015"><a xlink:title=" ">
<path fill="none" stroke="#63b8ff" d="M714.93,-609.19C750.84,-633.3 844.39,-696.11 887.78,-725.25"/>
<polygon fill="#63b8ff" stroke="#63b8ff" points="885.99,-728.26 896.24,-730.93 889.89,-722.45 885.99,-728.26"/>
</a>
</g>
</g>
<!-- Node16 -->
<g id="Node000016" class="node">
<title>Node16</title>
<g id="a_Node000016"><a xlink:href="classHttpResponse.html#ae09f25f31d917b068fae8bbf07b29c19" target="_top" xlink:title="Converts an HTTP status code to its standard reason phrase string.">
<polygon fill="white" stroke="#666666" points="1181,-755.5 1035,-755.5 1035,-725.5 1181,-725.5 1181,-755.5"/>
<text text-anchor="start" x="1043" y="-743.5" font-family="Helvetica,sans-Serif" font-size="10.00">HttpResponse::statusCode</text>
<text text-anchor="middle" x="1108" y="-732.5" font-family="Helvetica,sans-Serif" font-size="10.00">ToString</text>
</a>
</g>
</g>
<!-- Node15&#45;&gt;Node16 -->
<g id="edge16_Node000015_Node000016" class="edge">
<title>Node15&#45;&gt;Node16</title>
<g id="a_edge16_Node000015_Node000016"><a xlink:title=" ">
<path fill="none" stroke="#63b8ff" d="M999.23,-740.5C1007.72,-740.5 1016.33,-740.5 1024.78,-740.5"/>
<polygon fill="#63b8ff" stroke="#63b8ff" points="1025,-744 1035,-740.5 1025,-737 1025,-744"/>
</a>
</g>
</g>
<!-- Node22&#45;&gt;Node3 -->
<g id="edge27_Node000022_Node000003" class="edge">
<title>Node22&#45;&gt;Node3</title>
<g id="a_edge27_Node000022_Node000003"><a xlink:title=" ">
<path fill="none" stroke="#63b8ff" d="M575.03,-1151.28C634.76,-1159.35 717.25,-1164.91 788,-1149.5 824.31,-1141.59 862.74,-1121.93 886.67,-1108.14"/>
<polygon fill="#63b8ff" stroke="#63b8ff" points="888.55,-1111.1 895.4,-1103.01 885,-1105.07 888.55,-1111.1"/>
</a>
</g>
</g>
<!-- Node23 -->
<g id="Node000023" class="node">
<title>Node23</title>
<g id="a_Node000023"><a xlink:href="classResponseBuilder.html#ae58c2cc5b2bc78a9a2feed205780871c" target="_top" xlink:title="Generates a timestamp string in RFC 1123 format for HTTP headers.">
<polygon fill="white" stroke="#666666" points="788,-1141 611,-1141 611,-1122 788,-1122 788,-1141"/>
<text text-anchor="middle" x="699.5" y="-1129" font-family="Helvetica,sans-Serif" font-size="10.00">ResponseBuilder::fmtTimestamp</text>
</a>
</g>
</g>
<!-- Node22&#45;&gt;Node23 -->
<g id="edge28_Node000022_Node000023" class="edge">
<title>Node22&#45;&gt;Node23</title>
<g id="a_edge28_Node000022_Node000023"><a xlink:title=" ">
<path fill="none" stroke="#63b8ff" d="M575.1,-1134.5C583.54,-1134.3 592.17,-1134.09 600.76,-1133.88"/>
<polygon fill="#63b8ff" stroke="#63b8ff" points="600.89,-1137.38 610.8,-1133.63 600.72,-1130.38 600.89,-1137.38"/>
</a>
</g>
</g>
<!-- Node33&#45;&gt;Node6 -->
<g id="edge47_Node000033_Node000006" class="edge">
<title>Node33&#45;&gt;Node6</title>
<g id="a_edge47_Node000033_Node000006"><a xlink:title=" ">
<path fill="none" stroke="#63b8ff" d="M497.51,-98.79C514.65,-156.37 576.41,-359.72 611,-417.5 629.85,-448.99 660.1,-479.24 679.63,-497.1"/>
<polygon fill="#63b8ff" stroke="#63b8ff" points="677.5,-499.89 687.28,-503.96 682.18,-494.68 677.5,-499.89"/>
</a>
</g>
</g>
<!-- Node33&#45;&gt;Node11 -->
<g id="edge48_Node000033_Node000011" class="edge">
<title>Node33&#45;&gt;Node11</title>
<g id="a_edge48_Node000033_Node000011"><a xlink:title=" ">
<path fill="none" stroke="#63b8ff" d="M496.79,-98.79C507.97,-141.39 544.28,-263.43 611,-341.5 626.9,-360.11 650.2,-375.16 668.76,-385.26"/>
<polygon fill="#63b8ff" stroke="#63b8ff" points="667.22,-388.4 677.7,-389.95 670.47,-382.2 667.22,-388.4"/>
</a>
</g>
</g>
<!-- Node33&#45;&gt;Node12 -->
<g id="edge50_Node000033_Node000012" class="edge">
<title>Node33&#45;&gt;Node12</title>
<g id="a_edge50_Node000033_Node000012"><a xlink:title=" ">
<path fill="none" stroke="#63b8ff" d="M552.22,-98.63C560.39,-102.33 568.28,-106.89 575,-112.5 599.75,-133.17 594.79,-147.62 611,-175.5 638.24,-222.36 670.86,-277.21 687.52,-305.13"/>
<polygon fill="#63b8ff" stroke="#63b8ff" points="684.59,-307.04 692.72,-313.83 690.6,-303.45 684.59,-307.04"/>
</a>
</g>
</g>
<!-- Node34 -->
<g id="Node000034" class="node">
<title>Node34</title>
<g id="a_Node000034"><a xlink:href="classHttpResponse.html#a68de6b4795dd83a58885a8bddeacc2cf" target="_top" xlink:title="Returns the current response body.">
<polygon fill="white" stroke="#666666" points="765,-130 634,-130 634,-111 765,-111 765,-130"/>
<text text-anchor="middle" x="699.5" y="-118" font-family="Helvetica,sans-Serif" font-size="10.00">HttpResponse::getBody</text>
</a>
</g>
</g>
<!-- Node33&#45;&gt;Node34 -->
<g id="edge43_Node000033_Node000034" class="edge">
<title>Node33&#45;&gt;Node34</title>
<g id="a_edge43_Node000033_Node000034"><a xlink:title=" ">
<path fill="none" stroke="#63b8ff" d="M566.61,-96.75C589.18,-100.82 613.79,-105.25 635.58,-109.17"/>
<polygon fill="#63b8ff" stroke="#63b8ff" points="635.24,-112.67 645.7,-110.99 636.48,-105.78 635.24,-112.67"/>
</a>
</g>
</g>
<!-- Node35 -->
<g id="Node000035" class="node">
<title>Node35</title>
<g id="a_Node000035"><a xlink:href="classHttpResponse.html#a17de729c00961355e46dc880ec560e78" target="_top" xlink:title="Returns all response headers as a constant reference.">
<polygon fill="white" stroke="#666666" points="773,-93 626,-93 626,-74 773,-74 773,-93"/>
<text text-anchor="middle" x="699.5" y="-81" font-family="Helvetica,sans-Serif" font-size="10.00">HttpResponse::getHeaders</text>
</a>
</g>
</g>
<!-- Node33&#45;&gt;Node35 -->
<g id="edge44_Node000033_Node000035" class="edge">
<title>Node33&#45;&gt;Node35</title>
<g id="a_edge44_Node000033_Node000035"><a xlink:title=" ">
<path fill="none" stroke="#63b8ff" d="M566.61,-83.5C582.54,-83.5 599.48,-83.5 615.73,-83.5"/>
<polygon fill="#63b8ff" stroke="#63b8ff" points="615.75,-87 625.75,-83.5 615.75,-80 615.75,-87"/>
</a>
</g>
</g>
<!-- Node36 -->
<g id="Node000036" class="node">
<title>Node36</title>
<g id="a_Node000036"><a xlink:href="classHttpResponse.html#a5083285cec69d77baa805353feeb4bf5" target="_top" xlink:title="Returns the HTTP version of this response.">
<polygon fill="white" stroke="#666666" points="781.5,-56 617.5,-56 617.5,-37 781.5,-37 781.5,-56"/>
<text text-anchor="middle" x="699.5" y="-44" font-family="Helvetica,sans-Serif" font-size="10.00">HttpResponse::getHttpVersion</text>
</a>
</g>
</g>
<!-- Node33&#45;&gt;Node36 -->
<g id="edge45_Node000033_Node000036" class="edge">
<title>Node33&#45;&gt;Node36</title>
<g id="a_edge45_Node000033_Node000036"><a xlink:title=" ">
<path fill="none" stroke="#63b8ff" d="M566.61,-70.25C589.18,-66.18 613.79,-61.75 635.58,-57.83"/>
<polygon fill="#63b8ff" stroke="#63b8ff" points="636.48,-61.22 645.7,-56.01 635.24,-54.33 636.48,-61.22"/>
</a>
</g>
</g>
<!-- Node37 -->
<g id="Node000037" class="node">
<title>Node37</title>
<g id="a_Node000037"><a xlink:href="classHttpResponse.html#aa8e6d774dd6b3268566de8a53f06580a" target="_top" xlink:title="Returns the reason phrase associated with the status code.">
<polygon fill="white" stroke="#666666" points="787.5,-19 611.5,-19 611.5,0 787.5,0 787.5,-19"/>
<text text-anchor="middle" x="699.5" y="-7" font-family="Helvetica,sans-Serif" font-size="10.00">HttpResponse::getReasonPhrase</text>
</a>
</g>
</g>
<!-- Node33&#45;&gt;Node37 -->
<g id="edge46_Node000033_Node000037" class="edge">
<title>Node33&#45;&gt;Node37</title>
<g id="a_edge46_Node000033_Node000037"><a xlink:title=" ">
<path fill="none" stroke="#63b8ff" d="M519.88,-68.45C543.31,-55.9 578.53,-38.37 611,-27.5 617.77,-25.23 624.94,-23.2 632.15,-21.39"/>
<polygon fill="#63b8ff" stroke="#63b8ff" points="633.04,-24.77 641.96,-19.05 631.42,-17.96 633.04,-24.77"/>
</a>
</g>
</g>
<!-- Node38 -->
<g id="Node000038" class="node">
<title>Node38</title>
<g id="a_Node000038"><a xlink:href="classHttpResponse.html#a0932034fd9acccab28a5151435fd0032" target="_top" xlink:title="Returns true if response uses chunked transfer encoding.">
<polygon fill="white" stroke="#666666" points="770,-167 629,-167 629,-148 770,-148 770,-167"/>
<text text-anchor="middle" x="699.5" y="-155" font-family="Helvetica,sans-Serif" font-size="10.00">HttpResponse::isChunked</text>
</a>
</g>
</g>
<!-- Node33&#45;&gt;Node38 -->
<g id="edge49_Node000033_Node000038" class="edge">
<title>Node33&#45;&gt;Node38</title>
<g id="a_edge49_Node000033_Node000038"><a xlink:title=" ">
<path fill="none" stroke="#63b8ff" d="M542.97,-98.61C553.78,-102.58 564.97,-107.24 575,-112.5 592.48,-121.66 592.98,-130.46 611,-138.5 616.68,-141.04 622.73,-143.24 628.88,-145.16"/>
<polygon fill="#63b8ff" stroke="#63b8ff" points="628.03,-148.56 638.61,-147.95 629.96,-141.83 628.03,-148.56"/>
</a>
</g>
</g>
<!-- Node40&#45;&gt;Node10 -->
<g id="edge57_Node000040_Node000010" class="edge">
<title>Node40&#45;&gt;Node10</title>
<g id="a_edge57_Node000040_Node000010"><a xlink:title=" ">
<path fill="none" stroke="#63b8ff" d="M558.45,-351.98C620.75,-345.99 715.49,-345.07 788,-380.5 842.02,-406.9 882.68,-468.77 900.53,-499.9"/>
<polygon fill="#63b8ff" stroke="#63b8ff" points="897.59,-501.82 905.51,-508.85 903.7,-498.41 897.59,-501.82"/>
</a>
</g>
</g>
<!-- Node40&#45;&gt;Node11 -->
<g id="edge55_Node000040_Node000011" class="edge">
<title>Node40&#45;&gt;Node11</title>
<g id="a_edge55_Node000040_Node000011"><a xlink:title=" ">
<path fill="none" stroke="#63b8ff" d="M544.59,-371.04C573.86,-376.45 610.56,-383.24 640.78,-388.83"/>
<polygon fill="#63b8ff" stroke="#63b8ff" points="640.3,-392.3 650.77,-390.67 641.57,-385.41 640.3,-392.3"/>
</a>
</g>
</g>
<!-- Node40&#45;&gt;Node12 -->
<g id="edge56_Node000040_Node000012" class="edge">
<title>Node40&#45;&gt;Node12</title>
<g id="a_edge56_Node000040_Node000012"><a xlink:title=" ">
<path fill="none" stroke="#63b8ff" d="M544.59,-351.96C578.28,-345.73 621.81,-337.68 653.98,-331.73"/>
<polygon fill="#63b8ff" stroke="#63b8ff" points="654.8,-335.14 664,-329.88 653.53,-328.26 654.8,-335.14"/>
</a>
</g>
</g>
</g>
</svg>
