<?xml version="1.0" encoding="UTF-8" standalone="no"?>
<!DOCTYPE svg PUBLIC "-//W3C//DTD SVG 1.1//EN"
 "http://www.w3.org/Graphics/SVG/1.1/DTD/svg11.dtd">
<!-- Generated by graphviz version 2.43.0 (0)
 -->
<!-- Title: ServerConfig::matchLocation Pages: 1 -->
<svg width="1525pt" height="234pt"
 viewBox="0.00 0.00 1525.00 234.00" xmlns="http://www.w3.org/2000/svg" xmlns:xlink="http://www.w3.org/1999/xlink">
<g id="graph0" class="graph" transform="scale(1 1) rotate(0) translate(4 230)">
<title>ServerConfig::matchLocation</title>
<!-- Node1 -->
<g id="Node000001" class="node">
<title>Node1</title>
<g id="a_Node000001"><a xlink:title="Finds the LocationConfig that best matches a given URI.">
<polygon fill="#999999" stroke="#666666" points="1517,-113 1360,-113 1360,-94 1517,-94 1517,-113"/>
<text text-anchor="middle" x="1438.5" y="-101" font-family="Helvetica,sans-Serif" font-size="10.00">ServerConfig::matchLocation</text>
</a>
</g>
</g>
<!-- Node2 -->
<g id="Node000002" class="node">
<title>Node2</title>
<g id="a_Node000002"><a xlink:href="classRequestParse.html#a3a3d2f425b7652c12b681fed8a66b8d9" target="_top" xlink:title="Validates if the HTTP method is allowed in the matched location block.">
<polygon fill="white" stroke="#666666" points="1324,-208 1170,-208 1170,-189 1324,-189 1324,-208"/>
<text text-anchor="middle" x="1247" y="-196" font-family="Helvetica,sans-Serif" font-size="10.00">RequestParse::checkMethod</text>
</a>
</g>
</g>
<!-- Node1&#45;&gt;Node2 -->
<g id="edge1_Node000001_Node000002" class="edge">
<title>Node1&#45;&gt;Node2</title>
<g id="a_edge1_Node000001_Node000002"><a xlink:title=" ">
<path fill="none" stroke="#63b8ff" d="M1416.18,-119.14C1394.04,-134.83 1357.94,-158.83 1324,-174.5 1311.56,-180.24 1297.38,-185.13 1284.66,-188.97"/>
<polygon fill="#63b8ff" stroke="#63b8ff" points="1418.41,-121.85 1424.5,-113.18 1414.33,-116.16 1418.41,-121.85"/>
</a>
</g>
</g>
<!-- Node10 -->
<g id="Node000010" class="node">
<title>Node10</title>
<g id="a_Node000010"><a xlink:href="classDispatcher.html#a13c8a2fd90033adf9788c8774c3f0f47" target="_top" xlink:title="Central dispatch routine that delegates HTTP requests to the appropriate handler.">
<polygon fill="white" stroke="#666666" points="957,-170 841,-170 841,-151 957,-151 957,-170"/>
<text text-anchor="middle" x="899" y="-158" font-family="Helvetica,sans-Serif" font-size="10.00">Dispatcher::dispatch</text>
</a>
</g>
</g>
<!-- Node1&#45;&gt;Node10 -->
<g id="edge10_Node000001_Node000010" class="edge">
<title>Node1&#45;&gt;Node10</title>
<g id="a_edge10_Node000001_Node000010"><a xlink:title=" ">
<path fill="none" stroke="#63b8ff" d="M1405.6,-116.84C1383.2,-125.55 1352.3,-136.24 1324,-141.5 1194.51,-165.59 1039.13,-165.3 957.15,-162.93"/>
<polygon fill="#63b8ff" stroke="#63b8ff" points="1406.95,-120.07 1414.95,-113.13 1404.37,-113.56 1406.95,-120.07"/>
</a>
</g>
</g>
<!-- Node11 -->
<g id="Node000011" class="node">
<title>Node11</title>
<g id="a_Node000011"><a xlink:href="classRouter.html#abc4267c8a267ca9baf524891e1443037" target="_top" xlink:title="Determines whether to enable AutoIndex for a directory listing.">
<polygon fill="white" stroke="#666666" points="1303.5,-132 1190.5,-132 1190.5,-113 1303.5,-113 1303.5,-132"/>
<text text-anchor="middle" x="1247" y="-120" font-family="Helvetica,sans-Serif" font-size="10.00">Router::isAutoIndex</text>
</a>
</g>
</g>
<!-- Node1&#45;&gt;Node11 -->
<g id="edge12_Node000001_Node000011" class="edge">
<title>Node1&#45;&gt;Node11</title>
<g id="a_edge12_Node000001_Node000011"><a xlink:title=" ">
<path fill="none" stroke="#63b8ff" d="M1349.67,-112.31C1334.05,-113.87 1318.17,-115.46 1303.76,-116.91"/>
<polygon fill="#63b8ff" stroke="#63b8ff" points="1350.28,-115.76 1359.88,-111.28 1349.58,-108.8 1350.28,-115.76"/>
</a>
</g>
</g>
<!-- Node12 -->
<g id="Node000012" class="node">
<title>Node12</title>
<g id="a_Node000012"><a xlink:href="classRouter.html#aa58c0c6f2a1fc66a6e2a78adfae162e6" target="_top" xlink:title="Main entry point for determining how an HTTP request should be handled.">
<polygon fill="white" stroke="#666666" points="1116.5,-94 1025.5,-94 1025.5,-75 1116.5,-75 1116.5,-94"/>
<text text-anchor="middle" x="1071" y="-82" font-family="Helvetica,sans-Serif" font-size="10.00">Router::resolve</text>
</a>
</g>
</g>
<!-- Node1&#45;&gt;Node12 -->
<g id="edge19_Node000001_Node000012" class="edge">
<title>Node1&#45;&gt;Node12</title>
<g id="a_edge19_Node000001_Node000012"><a xlink:title=" ">
<path fill="none" stroke="#63b8ff" d="M1349.81,-98.94C1276.33,-95.12 1174.43,-89.82 1116.67,-86.82"/>
<polygon fill="#63b8ff" stroke="#63b8ff" points="1349.82,-102.45 1359.99,-99.47 1350.18,-95.46 1349.82,-102.45"/>
</a>
</g>
</g>
<!-- Node13 -->
<g id="Node000013" class="node">
<title>Node13</title>
<g id="a_Node000013"><a xlink:href="classRouter.html#a9cccffeb5ef1889ffc62987c437f6c59" target="_top" xlink:title="Checks if the request triggers an HTTP redirect.">
<polygon fill="white" stroke="#666666" points="1299,-56 1195,-56 1195,-37 1299,-37 1299,-56"/>
<text text-anchor="middle" x="1247" y="-44" font-family="Helvetica,sans-Serif" font-size="10.00">Router::isRedirect</text>
</a>
</g>
</g>
<!-- Node1&#45;&gt;Node13 -->
<g id="edge15_Node000001_Node000013" class="edge">
<title>Node1&#45;&gt;Node13</title>
<g id="a_edge15_Node000001_Node000013"><a xlink:title=" ">
<path fill="none" stroke="#63b8ff" d="M1395.88,-90.98C1360.92,-80.46 1311.7,-65.66 1279.82,-56.07"/>
<polygon fill="#63b8ff" stroke="#63b8ff" points="1395.2,-94.43 1405.78,-93.96 1397.21,-87.73 1395.2,-94.43"/>
</a>
</g>
</g>
<!-- Node14 -->
<g id="Node000014" class="node">
<title>Node14</title>
<g id="a_Node000014"><a xlink:href="classRouter.html#ab76bed10e7facdd1b6e4be3f2bbbff0f" target="_top" xlink:title="Determines if the current request is a valid upload operation.">
<polygon fill="white" stroke="#666666" points="1296,-19 1198,-19 1198,0 1296,0 1296,-19"/>
<text text-anchor="middle" x="1247" y="-7" font-family="Helvetica,sans-Serif" font-size="10.00">Router::isUpload</text>
</a>
</g>
</g>
<!-- Node1&#45;&gt;Node14 -->
<g id="edge17_Node000001_Node000014" class="edge">
<title>Node1&#45;&gt;Node14</title>
<g id="a_edge17_Node000001_Node000014"><a xlink:title=" ">
<path fill="none" stroke="#63b8ff" d="M1418.3,-87.47C1396.69,-70.22 1359.88,-43.15 1324,-27.5 1315.3,-23.71 1305.68,-20.64 1296.28,-18.19"/>
<polygon fill="#63b8ff" stroke="#63b8ff" points="1416.1,-90.19 1426.07,-93.78 1420.51,-84.76 1416.1,-90.19"/>
</a>
</g>
</g>
<!-- Node3 -->
<g id="Node000003" class="node">
<title>Node3</title>
<g id="a_Node000003"><a xlink:href="classRequestParse.html#aba25f85cb2196680c3f6efb539ddb81b" target="_top" xlink:title="Determines the HTTP method and validates it against configuration.">
<polygon fill="white" stroke="#666666" points="1134,-208 1008,-208 1008,-189 1134,-189 1134,-208"/>
<text text-anchor="middle" x="1071" y="-196" font-family="Helvetica,sans-Serif" font-size="10.00">RequestParse::method</text>
</a>
</g>
</g>
<!-- Node2&#45;&gt;Node3 -->
<g id="edge2_Node000002_Node000003" class="edge">
<title>Node2&#45;&gt;Node3</title>
<g id="a_edge2_Node000002_Node000003"><a xlink:title=" ">
<path fill="none" stroke="#63b8ff" d="M1159.78,-198.5C1151.11,-198.5 1142.43,-198.5 1134.08,-198.5"/>
<polygon fill="#63b8ff" stroke="#63b8ff" points="1159.93,-202 1169.93,-198.5 1159.93,-195 1159.93,-202"/>
</a>
</g>
</g>
<!-- Node3&#45;&gt;Node3 -->
<g id="edge3_Node000003_Node000003" class="edge">
<title>Node3&#45;&gt;Node3</title>
<g id="a_edge3_Node000003_Node000003"><a xlink:title=" ">
<path fill="none" stroke="#63b8ff" d="M1103.19,-216.45C1102.27,-221.82 1091.54,-226 1071,-226 1040.43,-226 1031.59,-216.73 1044.49,-208.08"/>
<polygon fill="#63b8ff" stroke="#63b8ff" points="1106.02,-214.39 1097.51,-208.08 1100.23,-218.32 1106.02,-214.39"/>
</a>
</g>
</g>
<!-- Node4 -->
<g id="Node000004" class="node">
<title>Node4</title>
<g id="a_Node000004"><a xlink:href="classRequestParse.html#abba0923a3ae7422916f11a81b7c4d552" target="_top" xlink:title="Parses the HTTP request line (method, URI, version).">
<polygon fill="white" stroke="#666666" points="972,-208 826,-208 826,-189 972,-189 972,-208"/>
<text text-anchor="middle" x="899" y="-196" font-family="Helvetica,sans-Serif" font-size="10.00">RequestParse::requestLine</text>
</a>
</g>
</g>
<!-- Node3&#45;&gt;Node4 -->
<g id="edge4_Node000003_Node000004" class="edge">
<title>Node3&#45;&gt;Node4</title>
<g id="a_edge4_Node000003_Node000004"><a xlink:title=" ">
<path fill="none" stroke="#63b8ff" d="M997.51,-198.5C989.1,-198.5 980.52,-198.5 972.11,-198.5"/>
<polygon fill="#63b8ff" stroke="#63b8ff" points="997.66,-202 1007.66,-198.5 997.66,-195 997.66,-202"/>
</a>
</g>
</g>
<!-- Node5 -->
<g id="Node000005" class="node">
<title>Node5</title>
<g id="a_Node000005"><a xlink:href="classRequestParse.html#a5f2f35f5815fbb977cde05b19af41687" target="_top" xlink:title="Parses and processes raw HTTP request data incrementally.">
<polygon fill="white" stroke="#666666" points="790,-208 608,-208 608,-189 790,-189 790,-208"/>
<text text-anchor="middle" x="699" y="-196" font-family="Helvetica,sans-Serif" font-size="10.00">RequestParse::handleRawRequest</text>
</a>
</g>
</g>
<!-- Node4&#45;&gt;Node5 -->
<g id="edge5_Node000004_Node000005" class="edge">
<title>Node4&#45;&gt;Node5</title>
<g id="a_edge5_Node000004_Node000005"><a xlink:title=" ">
<path fill="none" stroke="#63b8ff" d="M815.77,-198.5C807.34,-198.5 798.74,-198.5 790.23,-198.5"/>
<polygon fill="#63b8ff" stroke="#63b8ff" points="815.96,-202 825.96,-198.5 815.96,-195 815.96,-202"/>
</a>
</g>
</g>
<!-- Node6 -->
<g id="Node000006" class="node">
<title>Node6</title>
<g id="a_Node000006"><a xlink:href="classClientConnection.html#a835586ce27b3c3598394bde3fff14211" target="_top" xlink:title="Receives incoming data from the client socket.">
<polygon fill="white" stroke="#666666" points="572,-208 422,-208 422,-189 572,-189 572,-208"/>
<text text-anchor="middle" x="497" y="-196" font-family="Helvetica,sans-Serif" font-size="10.00">ClientConnection::recvData</text>
</a>
</g>
</g>
<!-- Node5&#45;&gt;Node6 -->
<g id="edge6_Node000005_Node000006" class="edge">
<title>Node5&#45;&gt;Node6</title>
<g id="a_edge6_Node000005_Node000006"><a xlink:title=" ">
<path fill="none" stroke="#63b8ff" d="M597.86,-198.5C589.25,-198.5 580.64,-198.5 572.29,-198.5"/>
<polygon fill="#63b8ff" stroke="#63b8ff" points="597.95,-202 607.95,-198.5 597.95,-195 597.95,-202"/>
</a>
</g>
</g>
<!-- Node7 -->
<g id="Node000007" class="node">
<title>Node7</title>
<g id="a_Node000007"><a xlink:href="classWebServer.html#a8cbf37c0a840305ce15e8648566c9ce4" target="_top" xlink:title="Handles incoming data from a connected client.">
<polygon fill="white" stroke="#666666" points="386,-189 235,-189 235,-170 386,-170 386,-189"/>
<text text-anchor="middle" x="310.5" y="-177" font-family="Helvetica,sans-Serif" font-size="10.00">WebServer::receiveRequest</text>
</a>
</g>
</g>
<!-- Node6&#45;&gt;Node7 -->
<g id="edge7_Node000006_Node000007" class="edge">
<title>Node6&#45;&gt;Node7</title>
<g id="a_edge7_Node000006_Node000007"><a xlink:title=" ">
<path fill="none" stroke="#63b8ff" d="M411.79,-189.83C403.25,-188.95 394.62,-188.06 386.19,-187.19"/>
<polygon fill="#63b8ff" stroke="#63b8ff" points="411.45,-193.31 421.75,-190.85 412.17,-186.35 411.45,-193.31"/>
</a>
</g>
</g>
<!-- Node8 -->
<g id="Node000008" class="node">
<title>Node8</title>
<g id="a_Node000008"><a xlink:href="classWebServer.html#af39709e3744077e019aa76555f03a42e" target="_top" xlink:title="Main event loop — monitors sockets, dispatches requests, and handles responses.">
<polygon fill="white" stroke="#666666" points="199,-189 77,-189 77,-170 199,-170 199,-189"/>
<text text-anchor="middle" x="138" y="-177" font-family="Helvetica,sans-Serif" font-size="10.00">WebServer::runServer</text>
</a>
</g>
</g>
<!-- Node7&#45;&gt;Node8 -->
<g id="edge8_Node000007_Node000008" class="edge">
<title>Node7&#45;&gt;Node8</title>
<g id="a_edge8_Node000007_Node000008"><a xlink:title=" ">
<path fill="none" stroke="#63b8ff" d="M224.63,-179.5C216.02,-179.5 207.4,-179.5 199.13,-179.5"/>
<polygon fill="#63b8ff" stroke="#63b8ff" points="224.72,-183 234.72,-179.5 224.72,-176 224.72,-183"/>
</a>
</g>
</g>
<!-- Node9 -->
<g id="Node000009" class="node">
<title>Node9</title>
<g id="a_Node000009"><a xlink:href="main_8cpp.html#a3c04138a5bfe5d72780bb7e82a18e627" target="_top" xlink:title="Entry point of the Webservinho web server.">
<polygon fill="white" stroke="#666666" points="41,-189 0,-189 0,-170 41,-170 41,-189"/>
<text text-anchor="middle" x="20.5" y="-177" font-family="Helvetica,sans-Serif" font-size="10.00">main</text>
</a>
</g>
</g>
<!-- Node8&#45;&gt;Node9 -->
<g id="edge9_Node000008_Node000009" class="edge">
<title>Node8&#45;&gt;Node9</title>
<g id="a_edge9_Node000008_Node000009"><a xlink:title=" ">
<path fill="none" stroke="#63b8ff" d="M66.66,-179.5C57.35,-179.5 48.51,-179.5 41.15,-179.5"/>
<polygon fill="#63b8ff" stroke="#63b8ff" points="66.88,-183 76.88,-179.5 66.88,-176 66.88,-183"/>
</a>
</g>
</g>
<!-- Node10&#45;&gt;Node7 -->
<g id="edge11_Node000010_Node000007" class="edge">
<title>Node10&#45;&gt;Node7</title>
<g id="a_edge11_Node000010_Node000007"><a xlink:title=" ">
<path fill="none" stroke="#63b8ff" d="M830.95,-162.67C720.51,-166.25 501.17,-173.36 386.03,-177.09"/>
<polygon fill="#63b8ff" stroke="#63b8ff" points="831.08,-166.17 840.96,-162.35 830.86,-159.17 831.08,-166.17"/>
</a>
</g>
</g>
<!-- Node11&#45;&gt;Node12 -->
<g id="edge13_Node000011_Node000012" class="edge">
<title>Node11&#45;&gt;Node12</title>
<g id="a_edge13_Node000011_Node000012"><a xlink:title=" ">
<path fill="none" stroke="#63b8ff" d="M1192.19,-110.75C1167.58,-105.37 1138.81,-99.09 1115.59,-94.02"/>
<polygon fill="#63b8ff" stroke="#63b8ff" points="1191.58,-114.2 1202.09,-112.91 1193.07,-107.36 1191.58,-114.2"/>
</a>
</g>
</g>
<!-- Node12&#45;&gt;Node10 -->
<g id="edge14_Node000012_Node000010" class="edge">
<title>Node12&#45;&gt;Node10</title>
<g id="a_edge14_Node000012_Node000010"><a xlink:title=" ">
<path fill="none" stroke="#63b8ff" d="M1038.99,-98.36C1004.9,-113.6 951.02,-137.69 921.36,-150.95"/>
<polygon fill="#63b8ff" stroke="#63b8ff" points="1040.77,-101.4 1048.47,-94.13 1037.91,-95.01 1040.77,-101.4"/>
</a>
</g>
</g>
<!-- Node13&#45;&gt;Node12 -->
<g id="edge16_Node000013_Node000012" class="edge">
<title>Node13&#45;&gt;Node12</title>
<g id="a_edge16_Node000013_Node000012"><a xlink:title=" ">
<path fill="none" stroke="#63b8ff" d="M1192.19,-58.25C1167.58,-63.63 1138.81,-69.91 1115.59,-74.98"/>
<polygon fill="#63b8ff" stroke="#63b8ff" points="1193.07,-61.64 1202.09,-56.09 1191.58,-54.8 1193.07,-61.64"/>
</a>
</g>
</g>
<!-- Node14&#45;&gt;Node12 -->
<g id="edge18_Node000014_Node000012" class="edge">
<title>Node14&#45;&gt;Node12</title>
<g id="a_edge18_Node000014_Node000012"><a xlink:title=" ">
<path fill="none" stroke="#63b8ff" d="M1188.15,-21.31C1181.94,-23.13 1175.79,-25.19 1170,-27.5 1138.01,-40.27 1103.96,-62.21 1085.62,-74.83"/>
<polygon fill="#63b8ff" stroke="#63b8ff" points="1189.19,-24.65 1197.9,-18.63 1187.33,-17.9 1189.19,-24.65"/>
</a>
</g>
</g>
</g>
</svg>
