<?xml version="1.0" encoding="UTF-8" standalone="no"?>
<!DOCTYPE svg PUBLIC "-//W3C//DTD SVG 1.1//EN"
 "http://www.w3.org/Graphics/SVG/1.1/DTD/svg11.dtd">
<!-- Generated by graphviz version 2.43.0 (0)
 -->
<!-- Title: RequestParse::isGreaterThanMaxBodySize Pages: 1 -->
<svg width="1347pt" height="65pt"
 viewBox="0.00 0.00 1347.00 65.00" xmlns="http://www.w3.org/2000/svg" xmlns:xlink="http://www.w3.org/1999/xlink">
<g id="graph0" class="graph" transform="scale(1 1) rotate(0) translate(4 61)">
<title>RequestParse::isGreaterThanMaxBodySize</title>
<!-- Node1 -->
<g id="Node000001" class="node">
<title>Node1</title>
<g id="a_Node000001"><a xlink:title="Compares body size against maximum allowed by server configuration.">
<polygon fill="#999999" stroke="#666666" points="1339,-43.5 1181,-43.5 1181,-13.5 1339,-13.5 1339,-43.5"/>
<text text-anchor="start" x="1189" y="-31.5" font-family="Helvetica,sans-Serif" font-size="10.00">RequestParse::isGreaterThan</text>
<text text-anchor="middle" x="1260" y="-20.5" font-family="Helvetica,sans-Serif" font-size="10.00">MaxBodySize</text>
</a>
</g>
</g>
<!-- Node2 -->
<g id="Node000002" class="node">
<title>Node2</title>
<g id="a_Node000002"><a xlink:href="classRequestParse.html#aaacc39eadbaa26e80ed2b6bfc495fbb4" target="_top" xlink:title="Handles Transfer&#45;Encoding: chunked body parsing.">
<polygon fill="white" stroke="#666666" points="1145,-57 990,-57 990,-38 1145,-38 1145,-57"/>
<text text-anchor="middle" x="1067.5" y="-45" font-family="Helvetica,sans-Serif" font-size="10.00">RequestParse::bodyChunked</text>
</a>
</g>
</g>
<!-- Node1&#45;&gt;Node2 -->
<g id="edge1_Node000001_Node000002" class="edge">
<title>Node1&#45;&gt;Node2</title>
<g id="a_edge1_Node000001_Node000002"><a xlink:title=" ">
<path fill="none" stroke="#63b8ff" d="M1170.93,-37.28C1162.33,-38.14 1153.65,-39.01 1145.18,-39.85"/>
<polygon fill="#63b8ff" stroke="#63b8ff" points="1171.36,-40.76 1180.97,-36.28 1170.67,-33.79 1171.36,-40.76"/>
</a>
</g>
</g>
<!-- Node9 -->
<g id="Node000009" class="node">
<title>Node9</title>
<g id="a_Node000009"><a xlink:href="classRequestParse.html#ac3dc2d89d0e245ac752b5327f64bb70d" target="_top" xlink:title="Parses individual HTTP header lines and updates metadata.">
<polygon fill="white" stroke="#666666" points="954,-19 826,-19 826,0 954,0 954,-19"/>
<text text-anchor="middle" x="890" y="-7" font-family="Helvetica,sans-Serif" font-size="10.00">RequestParse::headers</text>
</a>
</g>
</g>
<!-- Node1&#45;&gt;Node9 -->
<g id="edge8_Node000001_Node000009" class="edge">
<title>Node1&#45;&gt;Node9</title>
<g id="a_edge8_Node000001_Node000009"><a xlink:title=" ">
<path fill="none" stroke="#63b8ff" d="M1170.87,-23.95C1104.11,-20.5 1013.99,-15.85 954.26,-12.77"/>
<polygon fill="#63b8ff" stroke="#63b8ff" points="1170.79,-27.45 1180.96,-24.47 1171.15,-20.46 1170.79,-27.45"/>
</a>
</g>
</g>
<!-- Node3 -->
<g id="Node000003" class="node">
<title>Node3</title>
<g id="a_Node000003"><a xlink:href="classRequestParse.html#ab81826a3c30d9a2a4f9d0f8ee6fa855c" target="_top" xlink:title="Processes the message body for both fixed&#45;length and chunked modes.">
<polygon fill="white" stroke="#666666" points="946.5,-56 833.5,-56 833.5,-37 946.5,-37 946.5,-56"/>
<text text-anchor="middle" x="890" y="-44" font-family="Helvetica,sans-Serif" font-size="10.00">RequestParse::body</text>
</a>
</g>
</g>
<!-- Node2&#45;&gt;Node3 -->
<g id="edge2_Node000002_Node000003" class="edge">
<title>Node2&#45;&gt;Node3</title>
<g id="a_edge2_Node000002_Node000003"><a xlink:title=" ">
<path fill="none" stroke="#63b8ff" d="M979.55,-47C968.38,-46.94 957.2,-46.88 946.73,-46.82"/>
<polygon fill="#63b8ff" stroke="#63b8ff" points="979.76,-50.51 989.78,-47.06 979.8,-43.51 979.76,-50.51"/>
</a>
</g>
</g>
<!-- Node4 -->
<g id="Node000004" class="node">
<title>Node4</title>
<g id="a_Node000004"><a xlink:href="classRequestParse.html#a5f2f35f5815fbb977cde05b19af41687" target="_top" xlink:title="Parses and processes raw HTTP request data incrementally.">
<polygon fill="white" stroke="#666666" points="790,-37 608,-37 608,-18 790,-18 790,-37"/>
<text text-anchor="middle" x="699" y="-25" font-family="Helvetica,sans-Serif" font-size="10.00">RequestParse::handleRawRequest</text>
</a>
</g>
</g>
<!-- Node3&#45;&gt;Node4 -->
<g id="edge3_Node000003_Node000004" class="edge">
<title>Node3&#45;&gt;Node4</title>
<g id="a_edge3_Node000003_Node000004"><a xlink:title=" ">
<path fill="none" stroke="#63b8ff" d="M823.22,-39.89C812.49,-38.81 801.22,-37.68 790.03,-36.55"/>
<polygon fill="#63b8ff" stroke="#63b8ff" points="823.02,-43.38 833.32,-40.9 823.72,-36.42 823.02,-43.38"/>
</a>
</g>
</g>
<!-- Node5 -->
<g id="Node000005" class="node">
<title>Node5</title>
<g id="a_Node000005"><a xlink:href="classClientConnection.html#a835586ce27b3c3598394bde3fff14211" target="_top" xlink:title="Receives incoming data from the client socket.">
<polygon fill="white" stroke="#666666" points="572,-37 422,-37 422,-18 572,-18 572,-37"/>
<text text-anchor="middle" x="497" y="-25" font-family="Helvetica,sans-Serif" font-size="10.00">ClientConnection::recvData</text>
</a>
</g>
</g>
<!-- Node4&#45;&gt;Node5 -->
<g id="edge4_Node000004_Node000005" class="edge">
<title>Node4&#45;&gt;Node5</title>
<g id="a_edge4_Node000004_Node000005"><a xlink:title=" ">
<path fill="none" stroke="#63b8ff" d="M597.86,-27.5C589.25,-27.5 580.64,-27.5 572.29,-27.5"/>
<polygon fill="#63b8ff" stroke="#63b8ff" points="597.95,-31 607.95,-27.5 597.95,-24 597.95,-31"/>
</a>
</g>
</g>
<!-- Node6 -->
<g id="Node000006" class="node">
<title>Node6</title>
<g id="a_Node000006"><a xlink:href="classWebServer.html#a8cbf37c0a840305ce15e8648566c9ce4" target="_top" xlink:title="Handles incoming data from a connected client.">
<polygon fill="white" stroke="#666666" points="386,-37 235,-37 235,-18 386,-18 386,-37"/>
<text text-anchor="middle" x="310.5" y="-25" font-family="Helvetica,sans-Serif" font-size="10.00">WebServer::receiveRequest</text>
</a>
</g>
</g>
<!-- Node5&#45;&gt;Node6 -->
<g id="edge5_Node000005_Node000006" class="edge">
<title>Node5&#45;&gt;Node6</title>
<g id="a_edge5_Node000005_Node000006"><a xlink:title=" ">
<path fill="none" stroke="#63b8ff" d="M411.51,-27.5C403.07,-27.5 394.53,-27.5 386.19,-27.5"/>
<polygon fill="#63b8ff" stroke="#63b8ff" points="411.75,-31 421.75,-27.5 411.75,-24 411.75,-31"/>
</a>
</g>
</g>
<!-- Node7 -->
<g id="Node000007" class="node">
<title>Node7</title>
<g id="a_Node000007"><a xlink:href="classWebServer.html#af39709e3744077e019aa76555f03a42e" target="_top" xlink:title="Main event loop — monitors sockets, dispatches requests, and handles responses.">
<polygon fill="white" stroke="#666666" points="199,-37 77,-37 77,-18 199,-18 199,-37"/>
<text text-anchor="middle" x="138" y="-25" font-family="Helvetica,sans-Serif" font-size="10.00">WebServer::runServer</text>
</a>
</g>
</g>
<!-- Node6&#45;&gt;Node7 -->
<g id="edge6_Node000006_Node000007" class="edge">
<title>Node6&#45;&gt;Node7</title>
<g id="a_edge6_Node000006_Node000007"><a xlink:title=" ">
<path fill="none" stroke="#63b8ff" d="M224.63,-27.5C216.02,-27.5 207.4,-27.5 199.13,-27.5"/>
<polygon fill="#63b8ff" stroke="#63b8ff" points="224.72,-31 234.72,-27.5 224.72,-24 224.72,-31"/>
</a>
</g>
</g>
<!-- Node8 -->
<g id="Node000008" class="node">
<title>Node8</title>
<g id="a_Node000008"><a xlink:href="main_8cpp.html#a3c04138a5bfe5d72780bb7e82a18e627" target="_top" xlink:title="Entry point of the Webservinho web server.">
<polygon fill="white" stroke="#666666" points="41,-37 0,-37 0,-18 41,-18 41,-37"/>
<text text-anchor="middle" x="20.5" y="-25" font-family="Helvetica,sans-Serif" font-size="10.00">main</text>
</a>
</g>
</g>
<!-- Node7&#45;&gt;Node8 -->
<g id="edge7_Node000007_Node000008" class="edge">
<title>Node7&#45;&gt;Node8</title>
<g id="a_edge7_Node000007_Node000008"><a xlink:title=" ">
<path fill="none" stroke="#63b8ff" d="M66.66,-27.5C57.35,-27.5 48.51,-27.5 41.15,-27.5"/>
<polygon fill="#63b8ff" stroke="#63b8ff" points="66.88,-31 76.88,-27.5 66.88,-24 66.88,-31"/>
</a>
</g>
</g>
<!-- Node9&#45;&gt;Node4 -->
<g id="edge9_Node000009_Node000004" class="edge">
<title>Node9&#45;&gt;Node4</title>
<g id="a_edge9_Node000009_Node000004"><a xlink:title=" ">
<path fill="none" stroke="#63b8ff" d="M815.69,-16.48C807.29,-17.28 798.65,-18.1 790.06,-18.92"/>
<polygon fill="#63b8ff" stroke="#63b8ff" points="816.18,-19.95 825.8,-15.52 815.52,-12.98 816.18,-19.95"/>
</a>
</g>
</g>
</g>
</svg>
