<?xml version="1.0" encoding="UTF-8" standalone="no"?>
<!DOCTYPE svg PUBLIC "-//W3C//DTD SVG 1.1//EN"
 "http://www.w3.org/Graphics/SVG/1.1/DTD/svg11.dtd">
<!-- Generated by graphviz version 2.43.0 (0)
 -->
<!-- Title: Router::computeResolvedPath Pages: 1 -->
<svg width="527pt" height="446pt"
 viewBox="0.00 0.00 527.00 446.00" xmlns="http://www.w3.org/2000/svg" xmlns:xlink="http://www.w3.org/1999/xlink">
<g id="graph0" class="graph" transform="scale(1 1) rotate(0) translate(4 442)">
<title>Router::computeResolvedPath</title>
<!-- Node1 -->
<g id="Node000001" class="node">
<title>Node1</title>
<g id="a_Node000001"><a xlink:title="Computes the absolute filesystem path of the requested resource.">
<polygon fill="#999999" stroke="#666666" points="164,-222 0,-222 0,-203 164,-203 164,-222"/>
<text text-anchor="middle" x="82" y="-210" font-family="Helvetica,sans-Serif" font-size="10.00">Router::computeResolvedPath</text>
</a>
</g>
</g>
<!-- Node2 -->
<g id="Node000002" class="node">
<title>Node2</title>
<g id="a_Node000002"><a xlink:href="classLocationConfig.html#abd29007a675ad2835d85354d8a9778c4" target="_top" xlink:title=" ">
<polygon fill="white" stroke="#666666" points="355.5,-438 208.5,-438 208.5,-419 355.5,-419 355.5,-438"/>
<text text-anchor="middle" x="282" y="-426" font-family="Helvetica,sans-Serif" font-size="10.00">LocationConfig::getCgiPath</text>
</a>
</g>
</g>
<!-- Node1&#45;&gt;Node2 -->
<g id="edge1_Node000001_Node000002" class="edge">
<title>Node1&#45;&gt;Node2</title>
<g id="a_edge1_Node000001_Node000002"><a xlink:title=" ">
<path fill="none" stroke="#63b8ff" d="M85.73,-222.15C95.38,-254.35 131.03,-358.93 200,-409.5 202.54,-411.36 205.23,-413.04 208.04,-414.56"/>
<polygon fill="#63b8ff" stroke="#63b8ff" points="206.77,-417.83 217.31,-418.89 209.73,-411.49 206.77,-417.83"/>
</a>
</g>
</g>
<!-- Node3 -->
<g id="Node000003" class="node">
<title>Node3</title>
<g id="a_Node000003"><a xlink:href="classLocationConfig.html#a7e9d4ee69ce1e4da6e16b24053335540" target="_top" xlink:title=" ">
<polygon fill="white" stroke="#666666" points="360,-400.5 204,-400.5 204,-370.5 360,-370.5 360,-400.5"/>
<text text-anchor="start" x="212" y="-388.5" font-family="Helvetica,sans-Serif" font-size="10.00">LocationConfig::getHasIndex</text>
<text text-anchor="middle" x="282" y="-377.5" font-family="Helvetica,sans-Serif" font-size="10.00">Files</text>
</a>
</g>
</g>
<!-- Node1&#45;&gt;Node3 -->
<g id="edge2_Node000001_Node000003" class="edge">
<title>Node1&#45;&gt;Node3</title>
<g id="a_edge2_Node000001_Node000003"><a xlink:title=" ">
<path fill="none" stroke="#63b8ff" d="M87.83,-222.2C101.54,-248.72 143.41,-323.06 200,-361.5 202.39,-363.12 204.89,-364.64 207.47,-366.05"/>
<polygon fill="#63b8ff" stroke="#63b8ff" points="205.99,-369.22 216.51,-370.48 209.07,-362.94 205.99,-369.22"/>
</a>
</g>
</g>
<!-- Node4 -->
<g id="Node000004" class="node">
<title>Node4</title>
<g id="a_Node000004"><a xlink:href="classLocationConfig.html#af10d1ad36f0f3a7a3119e054efd88b8b" target="_top" xlink:title=" ">
<polygon fill="white" stroke="#666666" points="358,-352 206,-352 206,-333 358,-333 358,-352"/>
<text text-anchor="middle" x="282" y="-340" font-family="Helvetica,sans-Serif" font-size="10.00">LocationConfig::getHasRoot</text>
</a>
</g>
</g>
<!-- Node1&#45;&gt;Node4 -->
<g id="edge3_Node000001_Node000004" class="edge">
<title>Node1&#45;&gt;Node4</title>
<g id="a_edge3_Node000001_Node000004"><a xlink:title=" ">
<path fill="none" stroke="#63b8ff" d="M89.98,-222.1C106.46,-244 150.16,-297.84 200,-324.5 203.47,-326.36 207.13,-328.02 210.89,-329.52"/>
<polygon fill="#63b8ff" stroke="#63b8ff" points="209.81,-332.85 220.4,-332.89 212.14,-326.25 209.81,-332.85"/>
</a>
</g>
</g>
<!-- Node5 -->
<g id="Node000005" class="node">
<title>Node5</title>
<g id="a_Node000005"><a xlink:href="classLocationConfig.html#a6575d885f89f38865f7628e146f767d0" target="_top" xlink:title=" ">
<polygon fill="white" stroke="#666666" points="350.5,-315 213.5,-315 213.5,-296 350.5,-296 350.5,-315"/>
<text text-anchor="middle" x="282" y="-303" font-family="Helvetica,sans-Serif" font-size="10.00">LocationConfig::getIndex</text>
</a>
</g>
</g>
<!-- Node1&#45;&gt;Node5 -->
<g id="edge4_Node000001_Node000005" class="edge">
<title>Node1&#45;&gt;Node5</title>
<g id="a_edge4_Node000001_Node000005"><a xlink:title=" ">
<path fill="none" stroke="#63b8ff" d="M94.84,-222.13C115.12,-238.14 158.34,-270.16 200,-287.5 205.07,-289.61 210.43,-291.49 215.87,-293.16"/>
<polygon fill="#63b8ff" stroke="#63b8ff" points="215.15,-296.6 225.73,-295.96 217.06,-289.86 215.15,-296.6"/>
</a>
</g>
</g>
<!-- Node6 -->
<g id="Node000006" class="node">
<title>Node6</title>
<g id="a_Node000006"><a xlink:href="classLocationConfig.html#a06c65ab0130599edbd485a2db4e50b82" target="_top" xlink:title=" ">
<polygon fill="white" stroke="#666666" points="347.5,-278 216.5,-278 216.5,-259 347.5,-259 347.5,-278"/>
<text text-anchor="middle" x="282" y="-266" font-family="Helvetica,sans-Serif" font-size="10.00">LocationConfig::getPath</text>
</a>
</g>
</g>
<!-- Node1&#45;&gt;Node6 -->
<g id="edge5_Node000001_Node000006" class="edge">
<title>Node1&#45;&gt;Node6</title>
<g id="a_edge5_Node000001_Node000006"><a xlink:title=" ">
<path fill="none" stroke="#63b8ff" d="M110.2,-222.15C133.77,-230.32 168.89,-242.01 200,-250.5 207.9,-252.66 216.29,-254.74 224.56,-256.68"/>
<polygon fill="#63b8ff" stroke="#63b8ff" points="224.02,-260.15 234.55,-258.98 225.59,-253.33 224.02,-260.15"/>
</a>
</g>
</g>
<!-- Node7 -->
<g id="Node000007" class="node">
<title>Node7</title>
<g id="a_Node000007"><a xlink:href="classLocationConfig.html#a6b42578abcf4dc90a68989afdcd8dc1e" target="_top" xlink:title=" ">
<polygon fill="white" stroke="#666666" points="348.5,-241 215.5,-241 215.5,-222 348.5,-222 348.5,-241"/>
<text text-anchor="middle" x="282" y="-229" font-family="Helvetica,sans-Serif" font-size="10.00">LocationConfig::getRoot</text>
</a>
</g>
</g>
<!-- Node1&#45;&gt;Node7 -->
<g id="edge6_Node000001_Node000007" class="edge">
<title>Node1&#45;&gt;Node7</title>
<g id="a_edge6_Node000001_Node000007"><a xlink:title=" ">
<path fill="none" stroke="#63b8ff" d="M164.11,-220.28C177.72,-221.59 191.81,-222.94 205.28,-224.23"/>
<polygon fill="#63b8ff" stroke="#63b8ff" points="205.16,-227.74 215.45,-225.21 205.83,-220.77 205.16,-227.74"/>
</a>
</g>
</g>
<!-- Node8 -->
<g id="Node000008" class="node">
<title>Node8</title>
<g id="a_Node000008"><a xlink:href="classServerConfig.html#a1d6c7f794b3c144162edd0f6a29df94a" target="_top" xlink:title=" ">
<polygon fill="white" stroke="#666666" points="343.5,-204 220.5,-204 220.5,-185 343.5,-185 343.5,-204"/>
<text text-anchor="middle" x="282" y="-192" font-family="Helvetica,sans-Serif" font-size="10.00">ServerConfig::getRoot</text>
</a>
</g>
</g>
<!-- Node1&#45;&gt;Node8 -->
<g id="edge7_Node000001_Node000008" class="edge">
<title>Node1&#45;&gt;Node8</title>
<g id="a_edge7_Node000001_Node000008"><a xlink:title=" ">
<path fill="none" stroke="#63b8ff" d="M164.11,-205.13C179.38,-203.74 195.24,-202.3 210.17,-200.94"/>
<polygon fill="#63b8ff" stroke="#63b8ff" points="210.69,-204.41 220.33,-200.02 210.06,-197.44 210.69,-204.41"/>
</a>
</g>
</g>
<!-- Node9 -->
<g id="Node000009" class="node">
<title>Node9</title>
<g id="a_Node000009"><a xlink:href="classHttpRequest.html#a658d90f4dd4080c30c99c463c082abc8" target="_top" xlink:title=" ">
<polygon fill="white" stroke="#666666" points="338.5,-167 225.5,-167 225.5,-148 338.5,-148 338.5,-167"/>
<text text-anchor="middle" x="282" y="-155" font-family="Helvetica,sans-Serif" font-size="10.00">HttpRequest::getUri</text>
</a>
</g>
</g>
<!-- Node1&#45;&gt;Node9 -->
<g id="edge8_Node000001_Node000009" class="edge">
<title>Node1&#45;&gt;Node9</title>
<g id="a_edge8_Node000001_Node000009"><a xlink:title=" ">
<path fill="none" stroke="#63b8ff" d="M112.17,-202.92C135.74,-195.32 169.85,-184.67 200,-176.5 209.01,-174.06 218.63,-171.64 227.99,-169.39"/>
<polygon fill="#63b8ff" stroke="#63b8ff" points="229.06,-172.73 237.99,-167.02 227.45,-165.92 229.06,-172.73"/>
</a>
</g>
</g>
<!-- Node10 -->
<g id="Node000010" class="node">
<title>Node10</title>
<g id="a_Node000010"><a xlink:href="classLogger.html#a4aa4d7c3b98f6e12e7ea8253da5ea0cd" target="_top" xlink:title="Returns the singleton instance of the Logger.">
<polygon fill="white" stroke="#666666" points="330.5,-130 233.5,-130 233.5,-111 330.5,-111 330.5,-130"/>
<text text-anchor="middle" x="282" y="-118" font-family="Helvetica,sans-Serif" font-size="10.00">Logger::instance</text>
</a>
</g>
</g>
<!-- Node1&#45;&gt;Node10 -->
<g id="edge9_Node000001_Node000010" class="edge">
<title>Node1&#45;&gt;Node10</title>
<g id="a_edge9_Node000001_Node000010"><a xlink:title=" ">
<path fill="none" stroke="#63b8ff" d="M95.24,-202.95C115.75,-187.39 158.88,-156.6 200,-139.5 207.49,-136.38 215.59,-133.72 223.68,-131.46"/>
<polygon fill="#63b8ff" stroke="#63b8ff" points="224.7,-134.81 233.49,-128.9 222.93,-128.04 224.7,-134.81"/>
</a>
</g>
</g>
<!-- Node11 -->
<g id="Node000011" class="node">
<title>Node11</title>
<g id="a_Node000011"><a xlink:href="string__utils_8hpp.html#a9f1586d17c9a5c7d77ee394f29867ca5" target="_top" xlink:title="Joins two path segments, ensuring correct slash placement.">
<polygon fill="white" stroke="#666666" points="312.5,-93 251.5,-93 251.5,-74 312.5,-74 312.5,-93"/>
<text text-anchor="middle" x="282" y="-81" font-family="Helvetica,sans-Serif" font-size="10.00">joinPaths</text>
</a>
</g>
</g>
<!-- Node1&#45;&gt;Node11 -->
<g id="edge10_Node000001_Node000011" class="edge">
<title>Node1&#45;&gt;Node11</title>
<g id="a_edge10_Node000001_Node000011"><a xlink:title=" ">
<path fill="none" stroke="#63b8ff" d="M90.29,-202.8C107.09,-181.17 150.87,-128.86 200,-102.5 212.58,-95.75 227.51,-91.38 241.11,-88.56"/>
<polygon fill="#63b8ff" stroke="#63b8ff" points="242,-91.96 251.19,-86.69 240.72,-85.07 242,-91.96"/>
</a>
</g>
</g>
<!-- Node12 -->
<g id="Node000012" class="node">
<title>Node12</title>
<g id="a_Node000012"><a xlink:href="classLogger.html#a3d3f0801eeaf39b33a906ea8569c19b2" target="_top" xlink:title="Writes a log entry with timestamp, level, and message.">
<polygon fill="white" stroke="#666666" points="317.5,-56 246.5,-56 246.5,-37 317.5,-37 317.5,-56"/>
<text text-anchor="middle" x="282" y="-44" font-family="Helvetica,sans-Serif" font-size="10.00">Logger::log</text>
</a>
</g>
</g>
<!-- Node1&#45;&gt;Node12 -->
<g id="edge11_Node000001_Node000012" class="edge">
<title>Node1&#45;&gt;Node12</title>
<g id="a_edge11_Node000001_Node000012"><a xlink:title=" ">
<path fill="none" stroke="#63b8ff" d="M87.75,-202.76C101.27,-176.15 142.68,-101.8 200,-65.5 210.88,-58.61 224.01,-54.21 236.5,-51.41"/>
<polygon fill="#63b8ff" stroke="#63b8ff" points="237.18,-54.84 246.32,-49.49 235.84,-47.98 237.18,-54.84"/>
</a>
</g>
</g>
<!-- Node14 -->
<g id="Node000014" class="node">
<title>Node14</title>
<g id="a_Node000014"><a xlink:href="classHttpRequest.html#a084808f1cf57195c1a76ce68a2cbb4e8" target="_top" xlink:title="Sets the absolute filesystem path resolved from the URI.">
<polygon fill="white" stroke="#666666" points="364,-19 200,-19 200,0 364,0 364,-19"/>
<text text-anchor="middle" x="282" y="-7" font-family="Helvetica,sans-Serif" font-size="10.00">HttpRequest::setResolvedPath</text>
</a>
</g>
</g>
<!-- Node1&#45;&gt;Node14 -->
<g id="edge13_Node000001_Node000014" class="edge">
<title>Node1&#45;&gt;Node14</title>
<g id="a_edge13_Node000001_Node000014"><a xlink:title=" ">
<path fill="none" stroke="#63b8ff" d="M86.23,-202.62C96.92,-171.56 134.25,-75.18 200,-28.5 202.71,-26.58 205.58,-24.85 208.58,-23.29"/>
<polygon fill="#63b8ff" stroke="#63b8ff" points="210.16,-26.41 217.84,-19.11 207.29,-20.03 210.16,-26.41"/>
</a>
</g>
</g>
<!-- Node13 -->
<g id="Node000013" class="node">
<title>Node13</title>
<g id="a_Node000013"><a xlink:href="classLogger.html#a19f9ef22095a67c9fe420c9d6e761fc2" target="_top" xlink:title="Converts a LogLevel enum value to its string label.">
<polygon fill="white" stroke="#666666" points="519,-56 400,-56 400,-37 519,-37 519,-56"/>
<text text-anchor="middle" x="459.5" y="-44" font-family="Helvetica,sans-Serif" font-size="10.00">Logger::levelToString</text>
</a>
</g>
</g>
<!-- Node12&#45;&gt;Node13 -->
<g id="edge12_Node000012_Node000013" class="edge">
<title>Node12&#45;&gt;Node13</title>
<g id="a_edge12_Node000012_Node000013"><a xlink:title=" ">
<path fill="none" stroke="#63b8ff" d="M317.67,-46.5C338.22,-46.5 364.98,-46.5 389.65,-46.5"/>
<polygon fill="#63b8ff" stroke="#63b8ff" points="389.71,-50 399.71,-46.5 389.71,-43 389.71,-50"/>
</a>
</g>
</g>
</g>
</svg>
