<?xml version="1.0" encoding="UTF-8" standalone="no"?>
<!DOCTYPE svg PUBLIC "-//W3C//DTD SVG 1.1//EN"
 "http://www.w3.org/Graphics/SVG/1.1/DTD/svg11.dtd">
<!-- Generated by graphviz version 2.43.0 (0)
 -->
<!-- Title: HttpRequest::setRequestState Pages: 1 -->
<svg width="1377pt" height="238pt"
 viewBox="0.00 0.00 1377.00 238.37" xmlns="http://www.w3.org/2000/svg" xmlns:xlink="http://www.w3.org/1999/xlink">
<g id="graph0" class="graph" transform="scale(1 1) rotate(0) translate(4 234.37)">
<title>HttpRequest::setRequestState</title>
<!-- Node1 -->
<g id="Node000001" class="node">
<title>Node1</title>
<g id="a_Node000001"><a xlink:title=" ">
<polygon fill="#999999" stroke="#666666" points="1369,-152 1205,-152 1205,-133 1369,-133 1369,-152"/>
<text text-anchor="middle" x="1287" y="-140" font-family="Helvetica,sans-Serif" font-size="10.00">HttpRequest::setRequestState</text>
</a>
</g>
</g>
<!-- Node2 -->
<g id="Node000002" class="node">
<title>Node2</title>
<g id="a_Node000002"><a xlink:href="classRequestParse.html#ab81826a3c30d9a2a4f9d0f8ee6fa855c" target="_top" xlink:title="Processes the message body for both fixed&#45;length and chunked modes.">
<polygon fill="white" stroke="#666666" points="958.5,-209 845.5,-209 845.5,-190 958.5,-190 958.5,-209"/>
<text text-anchor="middle" x="902" y="-197" font-family="Helvetica,sans-Serif" font-size="10.00">RequestParse::body</text>
</a>
</g>
</g>
<!-- Node1&#45;&gt;Node2 -->
<g id="edge1_Node000001_Node000002" class="edge">
<title>Node1&#45;&gt;Node2</title>
<g id="a_edge1_Node000001_Node000002"><a xlink:title=" ">
<path fill="none" stroke="#63b8ff" d="M1268.1,-158.96C1246.49,-177.61 1208.16,-206.9 1169,-218.5 1087.54,-242.63 986.19,-222.41 935.32,-209.02"/>
<polygon fill="#63b8ff" stroke="#63b8ff" points="1270.61,-161.42 1275.78,-152.17 1265.97,-156.17 1270.61,-161.42"/>
</a>
</g>
</g>
<!-- Node3 -->
<g id="Node000003" class="node">
<title>Node3</title>
<g id="a_Node000003"><a xlink:href="classRequestParse.html#a5f2f35f5815fbb977cde05b19af41687" target="_top" xlink:title="Parses and processes raw HTTP request data incrementally.">
<polygon fill="white" stroke="#666666" points="790,-152 608,-152 608,-133 790,-133 790,-152"/>
<text text-anchor="middle" x="699" y="-140" font-family="Helvetica,sans-Serif" font-size="10.00">RequestParse::handleRawRequest</text>
</a>
</g>
</g>
<!-- Node1&#45;&gt;Node3 -->
<g id="edge9_Node000001_Node000003" class="edge">
<title>Node1&#45;&gt;Node3</title>
<g id="a_edge9_Node000001_Node000003"><a xlink:title=" ">
<path fill="none" stroke="#63b8ff" d="M1194.65,-145.92C1185.98,-146.16 1177.33,-146.36 1169,-146.5 1037.31,-148.75 884.8,-146.56 790.35,-144.64"/>
<polygon fill="#63b8ff" stroke="#63b8ff" points="1194.92,-149.42 1204.82,-145.63 1194.72,-142.42 1194.92,-149.42"/>
</a>
</g>
</g>
<!-- Node8 -->
<g id="Node000008" class="node">
<title>Node8</title>
<g id="a_Node000008"><a xlink:href="classRequestParse.html#aaacc39eadbaa26e80ed2b6bfc495fbb4" target="_top" xlink:title="Handles Transfer&#45;Encoding: chunked body parsing.">
<polygon fill="white" stroke="#666666" points="1169,-209 1014,-209 1014,-190 1169,-190 1169,-209"/>
<text text-anchor="middle" x="1091.5" y="-197" font-family="Helvetica,sans-Serif" font-size="10.00">RequestParse::bodyChunked</text>
</a>
</g>
</g>
<!-- Node1&#45;&gt;Node8 -->
<g id="edge7_Node000001_Node000008" class="edge">
<title>Node1&#45;&gt;Node8</title>
<g id="a_edge7_Node000001_Node000008"><a xlink:title=" ">
<path fill="none" stroke="#63b8ff" d="M1243.96,-154.88C1208.23,-165.41 1157.68,-180.3 1124.99,-189.93"/>
<polygon fill="#63b8ff" stroke="#63b8ff" points="1245.01,-158.22 1253.61,-152.04 1243.03,-151.51 1245.01,-158.22"/>
</a>
</g>
</g>
<!-- Node9 -->
<g id="Node000009" class="node">
<title>Node9</title>
<g id="a_Node000009"><a xlink:href="classRequestParse.html#ac3dc2d89d0e245ac752b5327f64bb70d" target="_top" xlink:title="Parses individual HTTP header lines and updates metadata.">
<polygon fill="white" stroke="#666666" points="966,-133 838,-133 838,-114 966,-114 966,-133"/>
<text text-anchor="middle" x="902" y="-121" font-family="Helvetica,sans-Serif" font-size="10.00">RequestParse::headers</text>
</a>
</g>
</g>
<!-- Node1&#45;&gt;Node9 -->
<g id="edge10_Node000001_Node000009" class="edge">
<title>Node1&#45;&gt;Node9</title>
<g id="a_edge10_Node000001_Node000009"><a xlink:title=" ">
<path fill="none" stroke="#63b8ff" d="M1194.56,-137.96C1124.03,-134.46 1028.31,-129.72 966.1,-126.63"/>
<polygon fill="#63b8ff" stroke="#63b8ff" points="1194.61,-141.47 1204.78,-138.47 1194.96,-134.48 1194.61,-141.47"/>
</a>
</g>
</g>
<!-- Node10 -->
<g id="Node000010" class="node">
<title>Node10</title>
<g id="a_Node000010"><a xlink:href="classHttpRequest.html#a42b01e8d23e15e65ad9c712922a6a812" target="_top" xlink:title="Constructs a new HttpRequest with default initialized state.">
<polygon fill="white" stroke="#666666" points="1163.5,-95 1019.5,-95 1019.5,-76 1163.5,-76 1163.5,-95"/>
<text text-anchor="middle" x="1091.5" y="-83" font-family="Helvetica,sans-Serif" font-size="10.00">HttpRequest::HttpRequest</text>
</a>
</g>
</g>
<!-- Node1&#45;&gt;Node10 -->
<g id="edge12_Node000001_Node000010" class="edge">
<title>Node1&#45;&gt;Node10</title>
<g id="a_edge12_Node000001_Node000010"><a xlink:title=" ">
<path fill="none" stroke="#63b8ff" d="M1243.96,-130.12C1208.23,-119.59 1157.68,-104.7 1124.99,-95.07"/>
<polygon fill="#63b8ff" stroke="#63b8ff" points="1243.03,-133.49 1253.61,-132.96 1245.01,-126.78 1243.03,-133.49"/>
</a>
</g>
</g>
<!-- Node11 -->
<g id="Node000011" class="node">
<title>Node11</title>
<g id="a_Node000011"><a xlink:href="classRequestParse.html#af7f93170c8210ad122820dafaeee7f3a" target="_top" xlink:title="Extracts and validates the request URI and query string.">
<polygon fill="white" stroke="#666666" points="1142,-40 1041,-40 1041,-21 1142,-21 1142,-40"/>
<text text-anchor="middle" x="1091.5" y="-28" font-family="Helvetica,sans-Serif" font-size="10.00">RequestParse::uri</text>
</a>
</g>
</g>
<!-- Node1&#45;&gt;Node11 -->
<g id="edge13_Node000001_Node000011" class="edge">
<title>Node1&#45;&gt;Node11</title>
<g id="a_edge13_Node000001_Node000011"><a xlink:title=" ">
<path fill="none" stroke="#63b8ff" d="M1263.86,-127.18C1240.69,-111.42 1203.01,-86.54 1169,-67.5 1150.85,-57.34 1129.48,-47.15 1113.95,-40.04"/>
<polygon fill="#63b8ff" stroke="#63b8ff" points="1262.05,-130.18 1272.28,-132.94 1266.01,-124.41 1262.05,-130.18"/>
</a>
</g>
</g>
<!-- Node2&#45;&gt;Node3 -->
<g id="edge2_Node000002_Node000003" class="edge">
<title>Node2&#45;&gt;Node3</title>
<g id="a_edge2_Node000002_Node000003"><a xlink:title=" ">
<path fill="none" stroke="#63b8ff" d="M857.33,-187.12C820.22,-176.59 767.71,-161.7 733.75,-152.07"/>
<polygon fill="#63b8ff" stroke="#63b8ff" points="856.78,-190.6 867.36,-189.96 858.69,-183.86 856.78,-190.6"/>
</a>
</g>
</g>
<!-- Node4 -->
<g id="Node000004" class="node">
<title>Node4</title>
<g id="a_Node000004"><a xlink:href="classClientConnection.html#a835586ce27b3c3598394bde3fff14211" target="_top" xlink:title="Receives incoming data from the client socket.">
<polygon fill="white" stroke="#666666" points="572,-152 422,-152 422,-133 572,-133 572,-152"/>
<text text-anchor="middle" x="497" y="-140" font-family="Helvetica,sans-Serif" font-size="10.00">ClientConnection::recvData</text>
</a>
</g>
</g>
<!-- Node3&#45;&gt;Node4 -->
<g id="edge3_Node000003_Node000004" class="edge">
<title>Node3&#45;&gt;Node4</title>
<g id="a_edge3_Node000003_Node000004"><a xlink:title=" ">
<path fill="none" stroke="#63b8ff" d="M597.86,-142.5C589.25,-142.5 580.64,-142.5 572.29,-142.5"/>
<polygon fill="#63b8ff" stroke="#63b8ff" points="597.95,-146 607.95,-142.5 597.95,-139 597.95,-146"/>
</a>
</g>
</g>
<!-- Node5 -->
<g id="Node000005" class="node">
<title>Node5</title>
<g id="a_Node000005"><a xlink:href="classWebServer.html#a8cbf37c0a840305ce15e8648566c9ce4" target="_top" xlink:title="Handles incoming data from a connected client.">
<polygon fill="white" stroke="#666666" points="386,-152 235,-152 235,-133 386,-133 386,-152"/>
<text text-anchor="middle" x="310.5" y="-140" font-family="Helvetica,sans-Serif" font-size="10.00">WebServer::receiveRequest</text>
</a>
</g>
</g>
<!-- Node4&#45;&gt;Node5 -->
<g id="edge4_Node000004_Node000005" class="edge">
<title>Node4&#45;&gt;Node5</title>
<g id="a_edge4_Node000004_Node000005"><a xlink:title=" ">
<path fill="none" stroke="#63b8ff" d="M411.51,-142.5C403.07,-142.5 394.53,-142.5 386.19,-142.5"/>
<polygon fill="#63b8ff" stroke="#63b8ff" points="411.75,-146 421.75,-142.5 411.75,-139 411.75,-146"/>
</a>
</g>
</g>
<!-- Node6 -->
<g id="Node000006" class="node">
<title>Node6</title>
<g id="a_Node000006"><a xlink:href="classWebServer.html#af39709e3744077e019aa76555f03a42e" target="_top" xlink:title="Main event loop — monitors sockets, dispatches requests, and handles responses.">
<polygon fill="white" stroke="#666666" points="199,-152 77,-152 77,-133 199,-133 199,-152"/>
<text text-anchor="middle" x="138" y="-140" font-family="Helvetica,sans-Serif" font-size="10.00">WebServer::runServer</text>
</a>
</g>
</g>
<!-- Node5&#45;&gt;Node6 -->
<g id="edge5_Node000005_Node000006" class="edge">
<title>Node5&#45;&gt;Node6</title>
<g id="a_edge5_Node000005_Node000006"><a xlink:title=" ">
<path fill="none" stroke="#63b8ff" d="M224.63,-142.5C216.02,-142.5 207.4,-142.5 199.13,-142.5"/>
<polygon fill="#63b8ff" stroke="#63b8ff" points="224.72,-146 234.72,-142.5 224.72,-139 224.72,-146"/>
</a>
</g>
</g>
<!-- Node7 -->
<g id="Node000007" class="node">
<title>Node7</title>
<g id="a_Node000007"><a xlink:href="main_8cpp.html#a3c04138a5bfe5d72780bb7e82a18e627" target="_top" xlink:title="Entry point of the Webservinho web server.">
<polygon fill="white" stroke="#666666" points="41,-152 0,-152 0,-133 41,-133 41,-152"/>
<text text-anchor="middle" x="20.5" y="-140" font-family="Helvetica,sans-Serif" font-size="10.00">main</text>
</a>
</g>
</g>
<!-- Node6&#45;&gt;Node7 -->
<g id="edge6_Node000006_Node000007" class="edge">
<title>Node6&#45;&gt;Node7</title>
<g id="a_edge6_Node000006_Node000007"><a xlink:title=" ">
<path fill="none" stroke="#63b8ff" d="M66.66,-142.5C57.35,-142.5 48.51,-142.5 41.15,-142.5"/>
<polygon fill="#63b8ff" stroke="#63b8ff" points="66.88,-146 76.88,-142.5 66.88,-139 66.88,-146"/>
</a>
</g>
</g>
<!-- Node8&#45;&gt;Node2 -->
<g id="edge8_Node000008_Node000002" class="edge">
<title>Node8&#45;&gt;Node2</title>
<g id="a_edge8_Node000008_Node000002"><a xlink:title=" ">
<path fill="none" stroke="#63b8ff" d="M1003.9,-199.5C988.51,-199.5 972.86,-199.5 958.62,-199.5"/>
<polygon fill="#63b8ff" stroke="#63b8ff" points="1003.97,-203 1013.97,-199.5 1003.97,-196 1003.97,-203"/>
</a>
</g>
</g>
<!-- Node9&#45;&gt;Node3 -->
<g id="edge11_Node000009_Node000003" class="edge">
<title>Node9&#45;&gt;Node3</title>
<g id="a_edge11_Node000009_Node000003"><a xlink:title=" ">
<path fill="none" stroke="#63b8ff" d="M827.81,-130.42C815.54,-131.58 802.69,-132.79 790.06,-133.99"/>
<polygon fill="#63b8ff" stroke="#63b8ff" points="828.33,-133.89 837.95,-129.46 827.67,-126.92 828.33,-133.89"/>
</a>
</g>
</g>
<!-- Node11&#45;&gt;Node11 -->
<g id="edge18_Node000011_Node000011" class="edge">
<title>Node11&#45;&gt;Node11</title>
<g id="a_edge18_Node000011_Node000011"><a xlink:title=" ">
<path fill="none" stroke="#63b8ff" d="M1126.73,-48.07C1126.22,-53.62 1114.47,-58 1091.5,-58 1058.09,-58 1048.43,-48.73 1062.52,-40.08"/>
<polygon fill="#63b8ff" stroke="#63b8ff" points="1129.4,-45.8 1120.48,-40.08 1123.89,-50.11 1129.4,-45.8"/>
</a>
</g>
</g>
<!-- Node12 -->
<g id="Node000012" class="node">
<title>Node12</title>
<g id="a_Node000012"><a xlink:href="classRequestParse.html#af2da061f29a38d73ea2d3fabdf80e0ec" target="_top" xlink:title="Extracts the query string portion from a URI.">
<polygon fill="white" stroke="#666666" points="978,-67.5 826,-67.5 826,-37.5 978,-37.5 978,-67.5"/>
<text text-anchor="start" x="834" y="-55.5" font-family="Helvetica,sans-Serif" font-size="10.00">RequestParse::extractQuery</text>
<text text-anchor="middle" x="902" y="-44.5" font-family="Helvetica,sans-Serif" font-size="10.00">String</text>
</a>
</g>
</g>
<!-- Node11&#45;&gt;Node12 -->
<g id="edge14_Node000011_Node000012" class="edge">
<title>Node11&#45;&gt;Node12</title>
<g id="a_edge14_Node000011_Node000012"><a xlink:title=" ">
<path fill="none" stroke="#63b8ff" d="M1030.55,-31.19C1012.84,-32.82 993.26,-35.04 974.87,-37.48"/>
<polygon fill="#63b8ff" stroke="#63b8ff" points="1031.09,-34.66 1040.75,-30.3 1030.48,-27.68 1031.09,-34.66"/>
</a>
</g>
</g>
<!-- Node13 -->
<g id="Node000013" class="node">
<title>Node13</title>
<g id="a_Node000013"><a xlink:href="classRequestParse.html#abba0923a3ae7422916f11a81b7c4d552" target="_top" xlink:title="Parses the HTTP request line (method, URI, version).">
<polygon fill="white" stroke="#666666" points="975,-19 829,-19 829,0 975,0 975,-19"/>
<text text-anchor="middle" x="902" y="-7" font-family="Helvetica,sans-Serif" font-size="10.00">RequestParse::requestLine</text>
</a>
</g>
</g>
<!-- Node11&#45;&gt;Node13 -->
<g id="edge16_Node000011_Node000013" class="edge">
<title>Node11&#45;&gt;Node13</title>
<g id="a_edge16_Node000011_Node000013"><a xlink:title=" ">
<path fill="none" stroke="#63b8ff" d="M1030.61,-23.79C1012.99,-21.82 993.53,-19.64 975.23,-17.59"/>
<polygon fill="#63b8ff" stroke="#63b8ff" points="1030.42,-27.29 1040.75,-24.93 1031.2,-20.34 1030.42,-27.29"/>
</a>
</g>
</g>
<!-- Node12&#45;&gt;Node11 -->
<g id="edge15_Node000012_Node000011" class="edge">
<title>Node12&#45;&gt;Node11</title>
<g id="a_edge15_Node000012_Node000011"><a xlink:title=" ">
<path fill="none" stroke="#63b8ff" d="M988.18,-49.23C1011.82,-46.6 1036.2,-43.3 1055.23,-40.05"/>
<polygon fill="#63b8ff" stroke="#63b8ff" points="987.67,-45.76 978.11,-50.32 988.42,-52.72 987.67,-45.76"/>
</a>
</g>
</g>
<!-- Node13&#45;&gt;Node3 -->
<g id="edge17_Node000013_Node000003" class="edge">
<title>Node13&#45;&gt;Node3</title>
<g id="a_edge17_Node000013_Node000003"><a xlink:title=" ">
<path fill="none" stroke="#63b8ff" d="M839.56,-22.39C834.86,-24.18 830.29,-26.2 826,-28.5 773.73,-56.5 725.87,-110.81 707.71,-132.85"/>
<polygon fill="#63b8ff" stroke="#63b8ff" points="840.99,-25.6 849.32,-19.04 838.72,-18.97 840.99,-25.6"/>
</a>
</g>
</g>
</g>
</svg>
