<?xml version="1.0" encoding="UTF-8" standalone="no"?>
<!DOCTYPE svg PUBLIC "-//W3C//DTD SVG 1.1//EN"
 "http://www.w3.org/Graphics/SVG/1.1/DTD/svg11.dtd">
<!-- Generated by graphviz version 2.43.0 (0)
 -->
<!-- Title: LocationConfig::getCgiPath Pages: 1 -->
<svg width="1056pt" height="103pt"
 viewBox="0.00 0.00 1056.00 103.00" xmlns="http://www.w3.org/2000/svg" xmlns:xlink="http://www.w3.org/1999/xlink">
<g id="graph0" class="graph" transform="scale(1 1) rotate(0) translate(4 99)">
<title>LocationConfig::getCgiPath</title>
<!-- Node1 -->
<g id="Node000001" class="node">
<title>Node1</title>
<g id="a_Node000001"><a xlink:title=" ">
<polygon fill="#999999" stroke="#666666" points="1048,-57 901,-57 901,-38 1048,-38 1048,-57"/>
<text text-anchor="middle" x="974.5" y="-45" font-family="Helvetica,sans-Serif" font-size="10.00">LocationConfig::getCgiPath</text>
</a>
</g>
</g>
<!-- Node2 -->
<g id="Node000002" class="node">
<title>Node2</title>
<g id="a_Node000002"><a xlink:href="classRouter.html#a8155613701b9739e2ae1e34c39894247" target="_top" xlink:title="Computes the absolute filesystem path of the requested resource.">
<polygon fill="white" stroke="#666666" points="865,-95 701,-95 701,-76 865,-76 865,-95"/>
<text text-anchor="middle" x="783" y="-83" font-family="Helvetica,sans-Serif" font-size="10.00">Router::computeResolvedPath</text>
</a>
</g>
</g>
<!-- Node1&#45;&gt;Node2 -->
<g id="edge1_Node000001_Node000002" class="edge">
<title>Node1&#45;&gt;Node2</title>
<g id="a_edge1_Node000001_Node000002"><a xlink:title=" ">
<path fill="none" stroke="#63b8ff" d="M915.61,-59.11C888.65,-64.51 856.99,-70.86 831.47,-75.98"/>
<polygon fill="#63b8ff" stroke="#63b8ff" points="916.56,-62.49 925.68,-57.09 915.19,-55.62 916.56,-62.49"/>
</a>
</g>
</g>
<!-- Node3 -->
<g id="Node000003" class="node">
<title>Node3</title>
<g id="a_Node000003"><a xlink:href="classRouter.html#aa58c0c6f2a1fc66a6e2a78adfae162e6" target="_top" xlink:title="Main entry point for determining how an HTTP request should be handled.">
<polygon fill="white" stroke="#666666" points="665,-57 574,-57 574,-38 665,-38 665,-57"/>
<text text-anchor="middle" x="619.5" y="-45" font-family="Helvetica,sans-Serif" font-size="10.00">Router::resolve</text>
</a>
</g>
</g>
<!-- Node1&#45;&gt;Node3 -->
<g id="edge9_Node000001_Node000003" class="edge">
<title>Node1&#45;&gt;Node3</title>
<g id="a_edge9_Node000001_Node000003"><a xlink:title=" ">
<path fill="none" stroke="#63b8ff" d="M890.6,-47.5C820.16,-47.5 721.73,-47.5 665.2,-47.5"/>
<polygon fill="#63b8ff" stroke="#63b8ff" points="890.79,-51 900.79,-47.5 890.79,-44 890.79,-51"/>
</a>
</g>
</g>
<!-- Node8 -->
<g id="Node000008" class="node">
<title>Node8</title>
<g id="a_Node000008"><a xlink:href="classRouter.html#a4c44c26c85603949ccaed27088e3d07c" target="_top" xlink:title="Determines if the request targets a valid CGI script.">
<polygon fill="white" stroke="#666666" points="822.5,-19 743.5,-19 743.5,0 822.5,0 822.5,-19"/>
<text text-anchor="middle" x="783" y="-7" font-family="Helvetica,sans-Serif" font-size="10.00">Router::isCgi</text>
</a>
</g>
</g>
<!-- Node1&#45;&gt;Node8 -->
<g id="edge7_Node000001_Node000008" class="edge">
<title>Node1&#45;&gt;Node8</title>
<g id="a_edge7_Node000001_Node000008"><a xlink:title=" ">
<path fill="none" stroke="#63b8ff" d="M915.69,-35.91C885.48,-29.85 849.34,-22.6 822.57,-17.23"/>
<polygon fill="#63b8ff" stroke="#63b8ff" points="915.19,-39.38 925.68,-37.91 916.56,-32.51 915.19,-39.38"/>
</a>
</g>
</g>
<!-- Node2&#45;&gt;Node3 -->
<g id="edge2_Node000002_Node000003" class="edge">
<title>Node2&#45;&gt;Node3</title>
<g id="a_edge2_Node000002_Node000003"><a xlink:title=" ">
<path fill="none" stroke="#63b8ff" d="M731.44,-73.6C708.74,-68.26 682.32,-62.05 660.96,-57.02"/>
<polygon fill="#63b8ff" stroke="#63b8ff" points="730.71,-77.03 741.25,-75.91 732.31,-70.21 730.71,-77.03"/>
</a>
</g>
</g>
<!-- Node4 -->
<g id="Node000004" class="node">
<title>Node4</title>
<g id="a_Node000004"><a xlink:href="classDispatcher.html#a13c8a2fd90033adf9788c8774c3f0f47" target="_top" xlink:title="Central dispatch routine that delegates HTTP requests to the appropriate handler.">
<polygon fill="white" stroke="#666666" points="538,-57 422,-57 422,-38 538,-38 538,-57"/>
<text text-anchor="middle" x="480" y="-45" font-family="Helvetica,sans-Serif" font-size="10.00">Dispatcher::dispatch</text>
</a>
</g>
</g>
<!-- Node3&#45;&gt;Node4 -->
<g id="edge3_Node000003_Node000004" class="edge">
<title>Node3&#45;&gt;Node4</title>
<g id="a_edge3_Node000003_Node000004"><a xlink:title=" ">
<path fill="none" stroke="#63b8ff" d="M563.85,-47.5C555.5,-47.5 546.86,-47.5 538.45,-47.5"/>
<polygon fill="#63b8ff" stroke="#63b8ff" points="563.86,-51 573.86,-47.5 563.86,-44 563.86,-51"/>
</a>
</g>
</g>
<!-- Node5 -->
<g id="Node000005" class="node">
<title>Node5</title>
<g id="a_Node000005"><a xlink:href="classWebServer.html#a8cbf37c0a840305ce15e8648566c9ce4" target="_top" xlink:title="Handles incoming data from a connected client.">
<polygon fill="white" stroke="#666666" points="386,-57 235,-57 235,-38 386,-38 386,-57"/>
<text text-anchor="middle" x="310.5" y="-45" font-family="Helvetica,sans-Serif" font-size="10.00">WebServer::receiveRequest</text>
</a>
</g>
</g>
<!-- Node4&#45;&gt;Node5 -->
<g id="edge4_Node000004_Node000005" class="edge">
<title>Node4&#45;&gt;Node5</title>
<g id="a_edge4_Node000004_Node000005"><a xlink:title=" ">
<path fill="none" stroke="#63b8ff" d="M411.72,-47.5C403.32,-47.5 394.69,-47.5 386.19,-47.5"/>
<polygon fill="#63b8ff" stroke="#63b8ff" points="411.82,-51 421.82,-47.5 411.82,-44 411.82,-51"/>
</a>
</g>
</g>
<!-- Node6 -->
<g id="Node000006" class="node">
<title>Node6</title>
<g id="a_Node000006"><a xlink:href="classWebServer.html#af39709e3744077e019aa76555f03a42e" target="_top" xlink:title="Main event loop — monitors sockets, dispatches requests, and handles responses.">
<polygon fill="white" stroke="#666666" points="199,-57 77,-57 77,-38 199,-38 199,-57"/>
<text text-anchor="middle" x="138" y="-45" font-family="Helvetica,sans-Serif" font-size="10.00">WebServer::runServer</text>
</a>
</g>
</g>
<!-- Node5&#45;&gt;Node6 -->
<g id="edge5_Node000005_Node000006" class="edge">
<title>Node5&#45;&gt;Node6</title>
<g id="a_edge5_Node000005_Node000006"><a xlink:title=" ">
<path fill="none" stroke="#63b8ff" d="M224.63,-47.5C216.02,-47.5 207.4,-47.5 199.13,-47.5"/>
<polygon fill="#63b8ff" stroke="#63b8ff" points="224.72,-51 234.72,-47.5 224.72,-44 224.72,-51"/>
</a>
</g>
</g>
<!-- Node7 -->
<g id="Node000007" class="node">
<title>Node7</title>
<g id="a_Node000007"><a xlink:href="main_8cpp.html#a3c04138a5bfe5d72780bb7e82a18e627" target="_top" xlink:title="Entry point of the Webservinho web server.">
<polygon fill="white" stroke="#666666" points="41,-57 0,-57 0,-38 41,-38 41,-57"/>
<text text-anchor="middle" x="20.5" y="-45" font-family="Helvetica,sans-Serif" font-size="10.00">main</text>
</a>
</g>
</g>
<!-- Node6&#45;&gt;Node7 -->
<g id="edge6_Node000006_Node000007" class="edge">
<title>Node6&#45;&gt;Node7</title>
<g id="a_edge6_Node000006_Node000007"><a xlink:title=" ">
<path fill="none" stroke="#63b8ff" d="M66.66,-47.5C57.35,-47.5 48.51,-47.5 41.15,-47.5"/>
<polygon fill="#63b8ff" stroke="#63b8ff" points="66.88,-51 76.88,-47.5 66.88,-44 66.88,-51"/>
</a>
</g>
</g>
<!-- Node8&#45;&gt;Node3 -->
<g id="edge8_Node000008_Node000003" class="edge">
<title>Node8&#45;&gt;Node3</title>
<g id="a_edge8_Node000008_Node000003"><a xlink:title=" ">
<path fill="none" stroke="#63b8ff" d="M733.38,-20.94C710.31,-26.37 683.07,-32.78 661.12,-37.94"/>
<polygon fill="#63b8ff" stroke="#63b8ff" points="734.38,-24.3 743.32,-18.6 732.78,-17.49 734.38,-24.3"/>
</a>
</g>
</g>
</g>
</svg>
