<?xml version="1.0" encoding="UTF-8" standalone="no"?>
<!DOCTYPE svg PUBLIC "-//W3C//DTD SVG 1.1//EN"
 "http://www.w3.org/Graphics/SVG/1.1/DTD/svg11.dtd">
<!-- Generated by graphviz version 2.43.0 (0)
 -->
<!-- Title: ConfigParser::parseLocationBlock Pages: 1 -->
<svg width="372pt" height="580pt"
 viewBox="0.00 0.00 372.00 580.00" xmlns="http://www.w3.org/2000/svg" xmlns:xlink="http://www.w3.org/1999/xlink">
<g id="graph0" class="graph" transform="scale(1 1) rotate(0) translate(4 576)">
<title>ConfigParser::parseLocationBlock</title>
<!-- Node1 -->
<g id="Node000001" class="node">
<title>Node1</title>
<g id="a_Node000001"><a xlink:title="Parses a location block and adds it to the current server.">
<polygon fill="#999999" stroke="#666666" points="152,-295.5 0,-295.5 0,-265.5 152,-265.5 152,-295.5"/>
<text text-anchor="start" x="8" y="-283.5" font-family="Helvetica,sans-Serif" font-size="10.00">ConfigParser::parseLocation</text>
<text text-anchor="middle" x="76" y="-272.5" font-family="Helvetica,sans-Serif" font-size="10.00">Block</text>
</a>
</g>
</g>
<!-- Node2 -->
<g id="Node000002" class="node">
<title>Node2</title>
<g id="a_Node000002"><a xlink:href="classLocationConfig.html#a0dbc1def632966c3091c627917f0cd63" target="_top" xlink:title="Adds an extension&#45;handler pair for CGI execution.">
<polygon fill="white" stroke="#666666" points="364,-572 188,-572 188,-553 364,-553 364,-572"/>
<text text-anchor="middle" x="276" y="-560" font-family="Helvetica,sans-Serif" font-size="10.00">LocationConfig::addCgiExtension</text>
</a>
</g>
</g>
<!-- Node1&#45;&gt;Node2 -->
<g id="edge1_Node000001_Node000002" class="edge">
<title>Node1&#45;&gt;Node2</title>
<g id="a_edge1_Node000001_Node000002"><a xlink:title=" ">
<path fill="none" stroke="#63b8ff" d="M78.53,-295.6C84,-341.08 106.79,-477.69 188,-544.5 189.39,-545.65 190.84,-546.72 192.33,-547.74"/>
<polygon fill="#63b8ff" stroke="#63b8ff" points="190.91,-550.96 201.33,-552.88 194.39,-544.88 190.91,-550.96"/>
</a>
</g>
</g>
<!-- Node3 -->
<g id="Node000003" class="node">
<title>Node3</title>
<g id="a_Node000003"><a xlink:href="classServerConfig.html#a6eba0775d2b1b31242740a9ff53d4364" target="_top" xlink:title="Adds a new LocationConfig to the server.">
<polygon fill="white" stroke="#666666" points="348,-535 204,-535 204,-516 348,-516 348,-535"/>
<text text-anchor="middle" x="276" y="-523" font-family="Helvetica,sans-Serif" font-size="10.00">ServerConfig::addLocation</text>
</a>
</g>
</g>
<!-- Node1&#45;&gt;Node3 -->
<g id="edge2_Node000001_Node000003" class="edge">
<title>Node1&#45;&gt;Node3</title>
<g id="a_edge2_Node000001_Node000003"><a xlink:title=" ">
<path fill="none" stroke="#63b8ff" d="M79.64,-295.55C87.69,-336.66 115.92,-451.55 188,-507.5 190.08,-509.11 192.27,-510.59 194.54,-511.95"/>
<polygon fill="#63b8ff" stroke="#63b8ff" points="193.18,-515.18 203.69,-516.58 196.35,-508.94 193.18,-515.18"/>
</a>
</g>
</g>
<!-- Node4 -->
<g id="Node000004" class="node">
<title>Node4</title>
<g id="a_Node000004"><a xlink:href="classConfigParser.html#a6188c94ab0c7f0e867d5ffa2a5efb17e" target="_top" xlink:title="Utility: checks if next token matches the expected symbol.">
<polygon fill="white" stroke="#666666" points="334,-498 218,-498 218,-479 334,-479 334,-498"/>
<text text-anchor="middle" x="276" y="-486" font-family="Helvetica,sans-Serif" font-size="10.00">ConfigParser::expect</text>
</a>
</g>
</g>
<!-- Node1&#45;&gt;Node4 -->
<g id="edge3_Node000001_Node000004" class="edge">
<title>Node1&#45;&gt;Node4</title>
<g id="a_edge3_Node000001_Node000004"><a xlink:title=" ">
<path fill="none" stroke="#63b8ff" d="M81.26,-295.62C92.31,-331.88 125.46,-424.15 188,-469.5 194.02,-473.87 200.86,-477.26 207.98,-479.9"/>
<polygon fill="#63b8ff" stroke="#63b8ff" points="207.24,-483.34 217.83,-483.05 209.37,-476.67 207.24,-483.34"/>
</a>
</g>
</g>
<!-- Node5 -->
<g id="Node000005" class="node">
<title>Node5</title>
<g id="a_Node000005"><a xlink:href="classLocationConfig.html#a4eeda49130a29cbb64e48b845976821e" target="_top" xlink:title=" ">
<polygon fill="white" stroke="#666666" points="352,-460.5 200,-460.5 200,-430.5 352,-430.5 352,-460.5"/>
<text text-anchor="start" x="208" y="-448.5" font-family="Helvetica,sans-Serif" font-size="10.00">LocationConfig::getHasAuto</text>
<text text-anchor="middle" x="276" y="-437.5" font-family="Helvetica,sans-Serif" font-size="10.00">Index</text>
</a>
</g>
</g>
<!-- Node1&#45;&gt;Node5 -->
<g id="edge4_Node000001_Node000005" class="edge">
<title>Node1&#45;&gt;Node5</title>
<g id="a_edge4_Node000001_Node000005"><a xlink:title=" ">
<path fill="none" stroke="#63b8ff" d="M84.76,-295.87C100.26,-324.98 137.92,-388.22 188,-421.5 190.45,-423.13 193,-424.64 195.64,-426.06"/>
<polygon fill="#63b8ff" stroke="#63b8ff" points="194.33,-429.31 204.86,-430.48 197.36,-423 194.33,-429.31"/>
</a>
</g>
</g>
<!-- Node6 -->
<g id="Node000006" class="node">
<title>Node6</title>
<g id="a_Node000006"><a xlink:href="classLocationConfig.html#a7e9d4ee69ce1e4da6e16b24053335540" target="_top" xlink:title=" ">
<polygon fill="white" stroke="#666666" points="354,-412.5 198,-412.5 198,-382.5 354,-382.5 354,-412.5"/>
<text text-anchor="start" x="206" y="-400.5" font-family="Helvetica,sans-Serif" font-size="10.00">LocationConfig::getHasIndex</text>
<text text-anchor="middle" x="276" y="-389.5" font-family="Helvetica,sans-Serif" font-size="10.00">Files</text>
</a>
</g>
</g>
<!-- Node1&#45;&gt;Node6 -->
<g id="edge5_Node000001_Node000006" class="edge">
<title>Node1&#45;&gt;Node6</title>
<g id="a_edge5_Node000001_Node000006"><a xlink:title=" ">
<path fill="none" stroke="#63b8ff" d="M90.93,-295.7C110.62,-316.28 148.6,-352.82 188,-373.5 191.57,-375.37 195.29,-377.11 199.11,-378.72"/>
<polygon fill="#63b8ff" stroke="#63b8ff" points="198.17,-382.11 208.76,-382.47 200.71,-375.59 198.17,-382.11"/>
</a>
</g>
</g>
<!-- Node7 -->
<g id="Node000007" class="node">
<title>Node7</title>
<g id="a_Node000007"><a xlink:href="classLocationConfig.html#af10d1ad36f0f3a7a3119e054efd88b8b" target="_top" xlink:title=" ">
<polygon fill="white" stroke="#666666" points="352,-364 200,-364 200,-345 352,-345 352,-364"/>
<text text-anchor="middle" x="276" y="-352" font-family="Helvetica,sans-Serif" font-size="10.00">LocationConfig::getHasRoot</text>
</a>
</g>
</g>
<!-- Node1&#45;&gt;Node7 -->
<g id="edge6_Node000001_Node000007" class="edge">
<title>Node1&#45;&gt;Node7</title>
<g id="a_edge6_Node000001_Node000007"><a xlink:title=" ">
<path fill="none" stroke="#63b8ff" d="M102.17,-295.62C124.14,-308.21 157.23,-325.77 188,-336.5 194.36,-338.72 201.08,-340.7 207.86,-342.47"/>
<polygon fill="#63b8ff" stroke="#63b8ff" points="207.24,-345.92 217.79,-344.91 208.91,-339.13 207.24,-345.92"/>
</a>
</g>
</g>
<!-- Node8 -->
<g id="Node000008" class="node">
<title>Node8</title>
<g id="a_Node000008"><a xlink:href="classConfigParser.html#a560c0318ac8a3a868f5222327f3e7b57" target="_top" xlink:title="Converts a lowercase string token into a RequestMethod enumeration.">
<polygon fill="white" stroke="#666666" points="349.5,-327 202.5,-327 202.5,-308 349.5,-308 349.5,-327"/>
<text text-anchor="middle" x="276" y="-315" font-family="Helvetica,sans-Serif" font-size="10.00">ConfigParser::parseMethod</text>
</a>
</g>
</g>
<!-- Node1&#45;&gt;Node8 -->
<g id="edge7_Node000001_Node000008" class="edge">
<title>Node1&#45;&gt;Node8</title>
<g id="a_edge7_Node000001_Node000008"><a xlink:title=" ">
<path fill="none" stroke="#63b8ff" d="M152.14,-294.54C172.54,-298.35 194.38,-302.43 213.9,-306.08"/>
<polygon fill="#63b8ff" stroke="#63b8ff" points="213.41,-309.55 223.88,-307.95 214.69,-302.67 213.41,-309.55"/>
</a>
</g>
</g>
<!-- Node9 -->
<g id="Node000009" class="node">
<title>Node9</title>
<g id="a_Node000009"><a xlink:href="classLocationConfig.html#a52b3e401c3b59f5fb1166310c2bf8ae0" target="_top" xlink:title="Enables or disables directory listing (autoindex).">
<polygon fill="white" stroke="#666666" points="355.5,-290 196.5,-290 196.5,-271 355.5,-271 355.5,-290"/>
<text text-anchor="middle" x="276" y="-278" font-family="Helvetica,sans-Serif" font-size="10.00">LocationConfig::setAutoindex</text>
</a>
</g>
</g>
<!-- Node1&#45;&gt;Node9 -->
<g id="edge8_Node000001_Node000009" class="edge">
<title>Node1&#45;&gt;Node9</title>
<g id="a_edge8_Node000001_Node000009"><a xlink:title=" ">
<path fill="none" stroke="#63b8ff" d="M152.14,-280.5C163.19,-280.5 174.67,-280.5 185.98,-280.5"/>
<polygon fill="#63b8ff" stroke="#63b8ff" points="186.29,-284 196.29,-280.5 186.29,-277 186.29,-284"/>
</a>
</g>
</g>
<!-- Node10 -->
<g id="Node000010" class="node">
<title>Node10</title>
<g id="a_Node000010"><a xlink:href="classLocationConfig.html#a4871be53fb5569ae7cf1e33bfada0323" target="_top" xlink:title="Sets the path to the CGI executable.">
<polygon fill="white" stroke="#666666" points="349,-253 203,-253 203,-234 349,-234 349,-253"/>
<text text-anchor="middle" x="276" y="-241" font-family="Helvetica,sans-Serif" font-size="10.00">LocationConfig::setCgiPath</text>
</a>
</g>
</g>
<!-- Node1&#45;&gt;Node10 -->
<g id="edge9_Node000001_Node000010" class="edge">
<title>Node1&#45;&gt;Node10</title>
<g id="a_edge9_Node000001_Node000010"><a xlink:title=" ">
<path fill="none" stroke="#63b8ff" d="M152.14,-266.46C172.54,-262.65 194.38,-258.57 213.9,-254.92"/>
<polygon fill="#63b8ff" stroke="#63b8ff" points="214.69,-258.33 223.88,-253.05 213.41,-251.45 214.69,-258.33"/>
</a>
</g>
</g>
<!-- Node11 -->
<g id="Node000011" class="node">
<title>Node11</title>
<g id="a_Node000011"><a xlink:href="classLocationConfig.html#a1173dea22f3b63e2b9ff5c43510b0dc9" target="_top" xlink:title="Defines the default index file for this location.">
<polygon fill="white" stroke="#666666" points="344.5,-216 207.5,-216 207.5,-197 344.5,-197 344.5,-216"/>
<text text-anchor="middle" x="276" y="-204" font-family="Helvetica,sans-Serif" font-size="10.00">LocationConfig::setIndex</text>
</a>
</g>
</g>
<!-- Node1&#45;&gt;Node11 -->
<g id="edge10_Node000001_Node000011" class="edge">
<title>Node1&#45;&gt;Node11</title>
<g id="a_edge10_Node000001_Node000011"><a xlink:title=" ">
<path fill="none" stroke="#63b8ff" d="M103.12,-265.27C125.12,-253 157.76,-236.11 188,-225.5 195.57,-222.84 203.65,-220.48 211.71,-218.41"/>
<polygon fill="#63b8ff" stroke="#63b8ff" points="212.63,-221.79 221.51,-216.02 210.97,-214.99 212.63,-221.79"/>
</a>
</g>
</g>
<!-- Node12 -->
<g id="Node000012" class="node">
<title>Node12</title>
<g id="a_Node000012"><a xlink:href="classLocationConfig.html#a9a80290a8b4bc948f9041ddd2547ece4" target="_top" xlink:title="Sets the list of allowed HTTP methods.">
<polygon fill="white" stroke="#666666" points="352,-179 200,-179 200,-160 352,-160 352,-179"/>
<text text-anchor="middle" x="276" y="-167" font-family="Helvetica,sans-Serif" font-size="10.00">LocationConfig::setMethods</text>
</a>
</g>
</g>
<!-- Node1&#45;&gt;Node12 -->
<g id="edge11_Node000001_Node000012" class="edge">
<title>Node1&#45;&gt;Node12</title>
<g id="a_edge11_Node000001_Node000012"><a xlink:title=" ">
<path fill="none" stroke="#63b8ff" d="M90.81,-265.17C110.36,-244.46 148.18,-207.91 188,-188.5 192.95,-186.09 198.21,-183.98 203.59,-182.13"/>
<polygon fill="#63b8ff" stroke="#63b8ff" points="204.87,-185.4 213.38,-179.09 202.79,-178.72 204.87,-185.4"/>
</a>
</g>
</g>
<!-- Node13 -->
<g id="Node000013" class="node">
<title>Node13</title>
<g id="a_Node000013"><a xlink:href="classLocationConfig.html#a46184880a603b58940a464ebb9c4b77c" target="_top" xlink:title="Sets the HTTP redirection rule (status, URL).">
<polygon fill="white" stroke="#666666" points="347,-142 205,-142 205,-123 347,-123 347,-142"/>
<text text-anchor="middle" x="276" y="-130" font-family="Helvetica,sans-Serif" font-size="10.00">LocationConfig::setReturn</text>
</a>
</g>
</g>
<!-- Node1&#45;&gt;Node13 -->
<g id="edge12_Node000001_Node000013" class="edge">
<title>Node1&#45;&gt;Node13</title>
<g id="a_edge12_Node000001_Node000013"><a xlink:title=" ">
<path fill="none" stroke="#63b8ff" d="M85.46,-265.36C101.6,-237.98 139.53,-180.4 188,-151.5 191.66,-149.32 195.54,-147.39 199.55,-145.67"/>
<polygon fill="#63b8ff" stroke="#63b8ff" points="200.98,-148.87 209.1,-142.07 198.51,-142.32 200.98,-148.87"/>
</a>
</g>
</g>
<!-- Node14 -->
<g id="Node000014" class="node">
<title>Node14</title>
<g id="a_Node000014"><a xlink:href="classLocationConfig.html#ad1cdc0a2ef75f2efa6b5255cce7286ea" target="_top" xlink:title="Sets the root directory for this location.">
<polygon fill="white" stroke="#666666" points="342,-105 210,-105 210,-86 342,-86 342,-105"/>
<text text-anchor="middle" x="276" y="-93" font-family="Helvetica,sans-Serif" font-size="10.00">LocationConfig::setRoot</text>
</a>
</g>
</g>
<!-- Node1&#45;&gt;Node14 -->
<g id="edge13_Node000001_Node000014" class="edge">
<title>Node1&#45;&gt;Node14</title>
<g id="a_edge13_Node000001_Node000014"><a xlink:title=" ">
<path fill="none" stroke="#63b8ff" d="M82.58,-265.25C95.54,-232.11 130.99,-153.35 188,-114.5 191.94,-111.81 196.2,-109.5 200.64,-107.5"/>
<polygon fill="#63b8ff" stroke="#63b8ff" points="201.94,-110.75 209.97,-103.84 199.38,-104.24 201.94,-110.75"/>
</a>
</g>
</g>
<!-- Node15 -->
<g id="Node000015" class="node">
<title>Node15</title>
<g id="a_Node000015"><a xlink:href="classLocationConfig.html#a29d368d1cc6ae21a7cf880159ca0e712" target="_top" xlink:title="Enables or disables file upload for this location.">
<polygon fill="white" stroke="#666666" points="348,-67.5 204,-67.5 204,-37.5 348,-37.5 348,-67.5"/>
<text text-anchor="start" x="212" y="-55.5" font-family="Helvetica,sans-Serif" font-size="10.00">LocationConfig::setUpload</text>
<text text-anchor="middle" x="276" y="-44.5" font-family="Helvetica,sans-Serif" font-size="10.00">Enabled</text>
</a>
</g>
</g>
<!-- Node1&#45;&gt;Node15 -->
<g id="edge14_Node000001_Node000015" class="edge">
<title>Node1&#45;&gt;Node15</title>
<g id="a_edge14_Node000001_Node000015"><a xlink:title=" ">
<path fill="none" stroke="#63b8ff" d="M80.88,-265.39C91.37,-227.7 123.88,-128.84 188,-77.5 190.09,-75.82 192.29,-74.26 194.58,-72.8"/>
<polygon fill="#63b8ff" stroke="#63b8ff" points="196.73,-75.61 203.76,-67.68 193.32,-69.5 196.73,-75.61"/>
</a>
</g>
</g>
<!-- Node16 -->
<g id="Node000016" class="node">
<title>Node16</title>
<g id="a_Node000016"><a xlink:href="classLocationConfig.html#a81921c69bff5933cb0087c4c5c2a9c1b" target="_top" xlink:title="Defines the upload directory for incoming files.">
<polygon fill="white" stroke="#666666" points="358.5,-19 193.5,-19 193.5,0 358.5,0 358.5,-19"/>
<text text-anchor="middle" x="276" y="-7" font-family="Helvetica,sans-Serif" font-size="10.00">LocationConfig::setUploadPath</text>
</a>
</g>
</g>
<!-- Node1&#45;&gt;Node16 -->
<g id="edge15_Node000001_Node000016" class="edge">
<title>Node1&#45;&gt;Node16</title>
<g id="a_edge15_Node000001_Node000016"><a xlink:title=" ">
<path fill="none" stroke="#63b8ff" d="M78.89,-265.49C85.26,-221.53 110.1,-92.2 188,-28.5 190.04,-26.83 192.2,-25.3 194.44,-23.89"/>
<polygon fill="#63b8ff" stroke="#63b8ff" points="196.31,-26.87 203.5,-19.08 193.03,-20.68 196.31,-26.87"/>
</a>
</g>
</g>
</g>
</svg>
