<?xml version="1.0" encoding="UTF-8" standalone="no"?>
<!DOCTYPE svg PUBLIC "-//W3C//DTD SVG 1.1//EN"
 "http://www.w3.org/Graphics/SVG/1.1/DTD/svg11.dtd">
<!-- Generated by graphviz version 2.43.0 (0)
 -->
<!-- Title: Signals::childSignalHandle Pages: 1 -->
<svg width="639pt" height="101pt"
 viewBox="0.00 0.00 639.00 101.00" xmlns="http://www.w3.org/2000/svg" xmlns:xlink="http://www.w3.org/1999/xlink">
<g id="graph0" class="graph" transform="scale(1 1) rotate(0) translate(4 97)">
<title>Signals::childSignalHandle</title>
<!-- Node1 -->
<g id="Node000001" class="node">
<title>Node1</title>
<g id="a_Node000001"><a xlink:title="Handles SIGCHLD signals to clean up terminated child processes.">
<polygon fill="#999999" stroke="#666666" points="146,-56 0,-56 0,-37 146,-37 146,-56"/>
<text text-anchor="middle" x="73" y="-44" font-family="Helvetica,sans-Serif" font-size="10.00">Signals::childSignalHandle</text>
</a>
</g>
</g>
<!-- Node2 -->
<g id="Node000002" class="node">
<title>Node2</title>
<g id="a_Node000002"><a xlink:href="classSignals.html#aa783f74c1937b7e3a797914950378870" target="_top" xlink:title="Unregisters a finished CGI process.">
<polygon fill="white" stroke="#666666" points="343,-56 182,-56 182,-37 343,-37 343,-56"/>
<text text-anchor="middle" x="262.5" y="-44" font-family="Helvetica,sans-Serif" font-size="10.00">Signals::unregisterCgiProcess</text>
</a>
</g>
</g>
<!-- Node1&#45;&gt;Node2 -->
<g id="edge1_Node000001_Node000002" class="edge">
<title>Node1&#45;&gt;Node2</title>
<g id="a_edge1_Node000001_Node000002"><a xlink:title=" ">
<path fill="none" stroke="#63b8ff" d="M146.22,-46.5C154.6,-46.5 163.22,-46.5 171.8,-46.5"/>
<polygon fill="#63b8ff" stroke="#63b8ff" points="171.83,-50 181.83,-46.5 171.83,-43 171.83,-50"/>
</a>
</g>
</g>
<!-- Node3 -->
<g id="Node000003" class="node">
<title>Node3</title>
<g id="a_Node000003"><a xlink:href="classLogger.html#a4aa4d7c3b98f6e12e7ea8253da5ea0cd" target="_top" xlink:title="Returns the singleton instance of the Logger.">
<polygon fill="white" stroke="#666666" points="476,-93 379,-93 379,-74 476,-74 476,-93"/>
<text text-anchor="middle" x="427.5" y="-81" font-family="Helvetica,sans-Serif" font-size="10.00">Logger::instance</text>
</a>
</g>
</g>
<!-- Node2&#45;&gt;Node3 -->
<g id="edge2_Node000002_Node000003" class="edge">
<title>Node2&#45;&gt;Node3</title>
<g id="a_edge2_Node000002_Node000003"><a xlink:title=" ">
<path fill="none" stroke="#63b8ff" d="M305.48,-56.03C326.5,-60.8 352.15,-66.62 374.42,-71.68"/>
<polygon fill="#63b8ff" stroke="#63b8ff" points="373.86,-75.14 384.38,-73.94 375.41,-68.31 373.86,-75.14"/>
</a>
</g>
</g>
<!-- Node4 -->
<g id="Node000004" class="node">
<title>Node4</title>
<g id="a_Node000004"><a xlink:href="classLogger.html#a3d3f0801eeaf39b33a906ea8569c19b2" target="_top" xlink:title="Writes a log entry with timestamp, level, and message.">
<polygon fill="white" stroke="#666666" points="463,-56 392,-56 392,-37 463,-37 463,-56"/>
<text text-anchor="middle" x="427.5" y="-44" font-family="Helvetica,sans-Serif" font-size="10.00">Logger::log</text>
</a>
</g>
</g>
<!-- Node2&#45;&gt;Node4 -->
<g id="edge3_Node000002_Node000004" class="edge">
<title>Node2&#45;&gt;Node4</title>
<g id="a_edge3_Node000002_Node000004"><a xlink:title=" ">
<path fill="none" stroke="#63b8ff" d="M343.09,-46.5C356.34,-46.5 369.66,-46.5 381.64,-46.5"/>
<polygon fill="#63b8ff" stroke="#63b8ff" points="381.79,-50 391.79,-46.5 381.79,-43 381.79,-50"/>
</a>
</g>
</g>
<!-- Node6 -->
<g id="Node000006" class="node">
<title>Node6</title>
<g id="a_Node000006"><a xlink:href="string__utils_8hpp.html#ad735976365693b45c427000fe042e173" target="_top" xlink:title="Converts any printable type to a string representation.">
<polygon fill="white" stroke="#666666" points="455,-19 400,-19 400,0 455,0 455,-19"/>
<text text-anchor="middle" x="427.5" y="-7" font-family="Helvetica,sans-Serif" font-size="10.00">toString</text>
</a>
</g>
</g>
<!-- Node2&#45;&gt;Node6 -->
<g id="edge5_Node000002_Node000006" class="edge">
<title>Node2&#45;&gt;Node6</title>
<g id="a_edge5_Node000002_Node000006"><a xlink:title=" ">
<path fill="none" stroke="#63b8ff" d="M305.48,-36.97C331.67,-31.02 365.06,-23.45 390.13,-17.76"/>
<polygon fill="#63b8ff" stroke="#63b8ff" points="391,-21.15 399.98,-15.52 389.45,-14.32 391,-21.15"/>
</a>
</g>
</g>
<!-- Node5 -->
<g id="Node000005" class="node">
<title>Node5</title>
<g id="a_Node000005"><a xlink:href="classLogger.html#a19f9ef22095a67c9fe420c9d6e761fc2" target="_top" xlink:title="Converts a LogLevel enum value to its string label.">
<polygon fill="white" stroke="#666666" points="631,-56 512,-56 512,-37 631,-37 631,-56"/>
<text text-anchor="middle" x="571.5" y="-44" font-family="Helvetica,sans-Serif" font-size="10.00">Logger::levelToString</text>
</a>
</g>
</g>
<!-- Node4&#45;&gt;Node5 -->
<g id="edge4_Node000004_Node000005" class="edge">
<title>Node4&#45;&gt;Node5</title>
<g id="a_edge4_Node000004_Node000005"><a xlink:title=" ">
<path fill="none" stroke="#63b8ff" d="M463.24,-46.5C474.88,-46.5 488.31,-46.5 501.63,-46.5"/>
<polygon fill="#63b8ff" stroke="#63b8ff" points="501.77,-50 511.77,-46.5 501.77,-43 501.77,-50"/>
</a>
</g>
</g>
</g>
</svg>
