<?xml version="1.0" encoding="UTF-8" standalone="no"?>
<!DOCTYPE svg PUBLIC "-//W3C//DTD SVG 1.1//EN"
 "http://www.w3.org/Graphics/SVG/1.1/DTD/svg11.dtd">
<!-- Generated by graphviz version 2.43.0 (0)
 -->
<!-- Title: ClientConnection::getFD Pages: 1 -->
<svg width="753pt" height="161pt"
 viewBox="0.00 0.00 753.00 160.51" xmlns="http://www.w3.org/2000/svg" xmlns:xlink="http://www.w3.org/1999/xlink">
<g id="graph0" class="graph" transform="scale(1 1) rotate(0) translate(4 156.51)">
<title>ClientConnection::getFD</title>
<!-- Node1 -->
<g id="Node000001" class="node">
<title>Node1</title>
<g id="a_Node000001"><a xlink:title=" ">
<polygon fill="#999999" stroke="#666666" points="745,-76.51 610,-76.51 610,-57.51 745,-57.51 745,-76.51"/>
<text text-anchor="middle" x="677.5" y="-64.51" font-family="Helvetica,sans-Serif" font-size="10.00">ClientConnection::getFD</text>
</a>
</g>
</g>
<!-- Node2 -->
<g id="Node000002" class="node">
<title>Node2</title>
<g id="a_Node000002"><a xlink:href="classDispatcher.html#a13c8a2fd90033adf9788c8774c3f0f47" target="_top" xlink:title="Central dispatch routine that delegates HTTP requests to the appropriate handler.">
<polygon fill="white" stroke="#666666" points="556,-152.51 440,-152.51 440,-133.51 556,-133.51 556,-152.51"/>
<text text-anchor="middle" x="498" y="-140.51" font-family="Helvetica,sans-Serif" font-size="10.00">Dispatcher::dispatch</text>
</a>
</g>
</g>
<!-- Node1&#45;&gt;Node2 -->
<g id="edge1_Node000001_Node000002" class="edge">
<title>Node1&#45;&gt;Node2</title>
<g id="a_edge1_Node000001_Node000002"><a xlink:title=" ">
<path fill="none" stroke="#63b8ff" d="M650.51,-81.65C630.11,-92.79 600.77,-108.01 574,-119.01 560.72,-124.46 545.72,-129.48 532.64,-133.5"/>
<polygon fill="#63b8ff" stroke="#63b8ff" points="652.42,-84.6 659.48,-76.7 649.04,-78.47 652.42,-84.6"/>
</a>
</g>
</g>
<!-- Node3 -->
<g id="Node000003" class="node">
<title>Node3</title>
<g id="a_Node000003"><a xlink:href="classWebServer.html#a8cbf37c0a840305ce15e8648566c9ce4" target="_top" xlink:title="Handles incoming data from a connected client.">
<polygon fill="white" stroke="#666666" points="386,-114.51 235,-114.51 235,-95.51 386,-95.51 386,-114.51"/>
<text text-anchor="middle" x="310.5" y="-102.51" font-family="Helvetica,sans-Serif" font-size="10.00">WebServer::receiveRequest</text>
</a>
</g>
</g>
<!-- Node1&#45;&gt;Node3 -->
<g id="edge5_Node000001_Node000003" class="edge">
<title>Node1&#45;&gt;Node3</title>
<g id="a_edge5_Node000001_Node000003"><a xlink:title=" ">
<path fill="none" stroke="#63b8ff" d="M600.19,-77.81C591.37,-78.95 582.49,-80.04 574,-81.01 510.8,-88.21 438.84,-94.66 386.27,-99.06"/>
<polygon fill="#63b8ff" stroke="#63b8ff" points="600.65,-81.28 610.11,-76.51 599.74,-74.34 600.65,-81.28"/>
</a>
</g>
</g>
<!-- Node4 -->
<g id="Node000004" class="node">
<title>Node4</title>
<g id="a_Node000004"><a xlink:href="classWebServer.html#af39709e3744077e019aa76555f03a42e" target="_top" xlink:title="Main event loop — monitors sockets, dispatches requests, and handles responses.">
<polygon fill="white" stroke="#666666" points="199,-76.51 77,-76.51 77,-57.51 199,-57.51 199,-76.51"/>
<text text-anchor="middle" x="138" y="-64.51" font-family="Helvetica,sans-Serif" font-size="10.00">WebServer::runServer</text>
</a>
</g>
</g>
<!-- Node1&#45;&gt;Node4 -->
<g id="edge6_Node000001_Node000004" class="edge">
<title>Node1&#45;&gt;Node4</title>
<g id="a_edge6_Node000001_Node000004"><a xlink:title=" ">
<path fill="none" stroke="#63b8ff" d="M599.6,-67.01C491.57,-67.01 297.11,-67.01 199.03,-67.01"/>
<polygon fill="#63b8ff" stroke="#63b8ff" points="599.78,-70.51 609.78,-67.01 599.78,-63.51 599.78,-70.51"/>
</a>
</g>
</g>
<!-- Node6 -->
<g id="Node000006" class="node">
<title>Node6</title>
<g id="a_Node000006"><a xlink:href="classClientConnection.html#abbef9ce451a487c2961910457915824e" target="_top" xlink:title="Sends response data to the client.">
<polygon fill="white" stroke="#666666" points="574,-38.51 422,-38.51 422,-19.51 574,-19.51 574,-38.51"/>
<text text-anchor="middle" x="498" y="-26.51" font-family="Helvetica,sans-Serif" font-size="10.00">ClientConnection::sendData</text>
</a>
</g>
</g>
<!-- Node1&#45;&gt;Node6 -->
<g id="edge7_Node000001_Node000006" class="edge">
<title>Node1&#45;&gt;Node6</title>
<g id="a_edge7_Node000001_Node000006"><a xlink:title=" ">
<path fill="none" stroke="#63b8ff" d="M621.6,-55.25C596.5,-49.88 567.16,-43.6 543.47,-38.53"/>
<polygon fill="#63b8ff" stroke="#63b8ff" points="621.2,-58.75 631.71,-57.42 622.66,-51.9 621.2,-58.75"/>
</a>
</g>
</g>
<!-- Node7 -->
<g id="Node000007" class="node">
<title>Node7</title>
<g id="a_Node000007"><a xlink:href="classWebServer.html#acbda203d0faed2cb204ee17908e1c2c3" target="_top" xlink:title="Sends buffered response data to a connected client.">
<polygon fill="white" stroke="#666666" points="383.5,-38.51 237.5,-38.51 237.5,-19.51 383.5,-19.51 383.5,-38.51"/>
<text text-anchor="middle" x="310.5" y="-26.51" font-family="Helvetica,sans-Serif" font-size="10.00">WebServer::sendResponse</text>
</a>
</g>
</g>
<!-- Node1&#45;&gt;Node7 -->
<g id="edge10_Node000001_Node000007" class="edge">
<title>Node1&#45;&gt;Node7</title>
<g id="a_edge10_Node000001_Node000007"><a xlink:title=" ">
<path fill="none" stroke="#63b8ff" d="M655.91,-51.38C636.12,-37.43 604.77,-17.98 574,-10.01 494.61,10.58 397.5,-7.04 346.54,-19.41"/>
<polygon fill="#63b8ff" stroke="#63b8ff" points="653.99,-54.32 664.14,-57.35 658.1,-48.65 653.99,-54.32"/>
</a>
</g>
</g>
<!-- Node2&#45;&gt;Node3 -->
<g id="edge2_Node000002_Node000003" class="edge">
<title>Node2&#45;&gt;Node3</title>
<g id="a_edge2_Node000002_Node000003"><a xlink:title=" ">
<path fill="none" stroke="#63b8ff" d="M440.33,-131.4C413.94,-125.99 382.95,-119.64 357.97,-114.53"/>
<polygon fill="#63b8ff" stroke="#63b8ff" points="439.69,-134.84 450.19,-133.42 441.1,-127.98 439.69,-134.84"/>
</a>
</g>
</g>
<!-- Node3&#45;&gt;Node4 -->
<g id="edge3_Node000003_Node000004" class="edge">
<title>Node3&#45;&gt;Node4</title>
<g id="a_edge3_Node000003_Node000004"><a xlink:title=" ">
<path fill="none" stroke="#63b8ff" d="M256.45,-93.18C232.41,-87.82 204.37,-81.57 181.71,-76.53"/>
<polygon fill="#63b8ff" stroke="#63b8ff" points="255.95,-96.66 266.48,-95.42 257.48,-89.83 255.95,-96.66"/>
</a>
</g>
</g>
<!-- Node5 -->
<g id="Node000005" class="node">
<title>Node5</title>
<g id="a_Node000005"><a xlink:href="main_8cpp.html#a3c04138a5bfe5d72780bb7e82a18e627" target="_top" xlink:title="Entry point of the Webservinho web server.">
<polygon fill="white" stroke="#666666" points="41,-76.51 0,-76.51 0,-57.51 41,-57.51 41,-76.51"/>
<text text-anchor="middle" x="20.5" y="-64.51" font-family="Helvetica,sans-Serif" font-size="10.00">main</text>
</a>
</g>
</g>
<!-- Node4&#45;&gt;Node5 -->
<g id="edge4_Node000004_Node000005" class="edge">
<title>Node4&#45;&gt;Node5</title>
<g id="a_edge4_Node000004_Node000005"><a xlink:title=" ">
<path fill="none" stroke="#63b8ff" d="M66.66,-67.01C57.35,-67.01 48.51,-67.01 41.15,-67.01"/>
<polygon fill="#63b8ff" stroke="#63b8ff" points="66.88,-70.51 76.88,-67.01 66.88,-63.51 66.88,-70.51"/>
</a>
</g>
</g>
<!-- Node6&#45;&gt;Node7 -->
<g id="edge8_Node000006_Node000007" class="edge">
<title>Node6&#45;&gt;Node7</title>
<g id="a_edge8_Node000006_Node000007"><a xlink:title=" ">
<path fill="none" stroke="#63b8ff" d="M411.74,-29.01C402.39,-29.01 392.95,-29.01 383.79,-29.01"/>
<polygon fill="#63b8ff" stroke="#63b8ff" points="411.82,-32.51 421.82,-29.01 411.82,-25.51 411.82,-32.51"/>
</a>
</g>
</g>
<!-- Node7&#45;&gt;Node4 -->
<g id="edge9_Node000007_Node000004" class="edge">
<title>Node7&#45;&gt;Node4</title>
<g id="a_edge9_Node000007_Node000004"><a xlink:title=" ">
<path fill="none" stroke="#63b8ff" d="M256.45,-40.83C232.41,-46.19 204.37,-52.44 181.71,-57.49"/>
<polygon fill="#63b8ff" stroke="#63b8ff" points="257.48,-44.19 266.48,-38.59 255.95,-37.35 257.48,-44.19"/>
</a>
</g>
</g>
</g>
</svg>
