<?xml version="1.0" encoding="UTF-8" standalone="no"?>
<!DOCTYPE svg PUBLIC "-//W3C//DTD SVG 1.1//EN"
 "http://www.w3.org/Graphics/SVG/1.1/DTD/svg11.dtd">
<!-- Generated by graphviz version 2.43.0 (0)
 -->
<!-- Title: HttpResponse::addHeader Pages: 1 -->
<svg width="1375pt" height="326pt"
 viewBox="0.00 0.00 1375.00 325.57" xmlns="http://www.w3.org/2000/svg" xmlns:xlink="http://www.w3.org/1999/xlink">
<g id="graph0" class="graph" transform="scale(1 1) rotate(0) translate(4 321.57)">
<title>HttpResponse::addHeader</title>
<!-- Node1 -->
<g id="Node000001" class="node">
<title>Node1</title>
<g id="a_Node000001"><a xlink:title="Adds a header field to the HTTP response.">
<polygon fill="#999999" stroke="#666666" points="1367,-176 1223,-176 1223,-157 1367,-157 1367,-176"/>
<text text-anchor="middle" x="1295" y="-164" font-family="Helvetica,sans-Serif" font-size="10.00">HttpResponse::addHeader</text>
</a>
</g>
</g>
<!-- Node2 -->
<g id="Node000002" class="node">
<title>Node2</title>
<g id="a_Node000002"><a xlink:href="classResponseBuilder.html#afd79929bb501be85bdc85d86fdce93e9" target="_top" xlink:title="Assembles the complete HTTP response, including error handling.">
<polygon fill="white" stroke="#666666" points="785.5,-219 657.5,-219 657.5,-200 785.5,-200 785.5,-219"/>
<text text-anchor="middle" x="721.5" y="-207" font-family="Helvetica,sans-Serif" font-size="10.00">ResponseBuilder::build</text>
</a>
</g>
</g>
<!-- Node1&#45;&gt;Node2 -->
<g id="edge1_Node000001_Node000002" class="edge">
<title>Node1&#45;&gt;Node2</title>
<g id="a_edge1_Node000001_Node000002"><a xlink:title=" ">
<path fill="none" stroke="#63b8ff" d="M1279.54,-183.75C1260.74,-204.69 1225.7,-238.88 1187,-252.5 1027.53,-308.64 819.28,-244.63 747.83,-219.09"/>
<polygon fill="#63b8ff" stroke="#63b8ff" points="1282.2,-186.03 1286.14,-176.19 1276.92,-181.42 1282.2,-186.03"/>
</a>
</g>
</g>
<!-- Node9 -->
<g id="Node000009" class="node">
<title>Node9</title>
<g id="a_Node000009"><a xlink:href="classAutoIndexHandler.html#a19f63277112e5a0d50bb8d570527ce0a" target="_top" xlink:title="Generates and serves an HTML directory listing when autoindex is enabled.">
<polygon fill="white" stroke="#666666" points="793,-95 650,-95 650,-76 793,-76 793,-95"/>
<text text-anchor="middle" x="721.5" y="-83" font-family="Helvetica,sans-Serif" font-size="10.00">AutoIndexHandler::handle</text>
</a>
</g>
</g>
<!-- Node1&#45;&gt;Node9 -->
<g id="edge11_Node000001_Node000009" class="edge">
<title>Node1&#45;&gt;Node9</title>
<g id="a_edge11_Node000001_Node000009"><a xlink:title=" ">
<path fill="none" stroke="#63b8ff" d="M1245.7,-154.6C1227.39,-150.38 1206.31,-145.84 1187,-142.5 1048.3,-118.5 884.59,-100.88 793.25,-91.99"/>
<polygon fill="#63b8ff" stroke="#63b8ff" points="1245.02,-158.04 1255.55,-156.91 1246.61,-151.22 1245.02,-158.04"/>
</a>
</g>
</g>
<!-- Node10 -->
<g id="Node000010" class="node">
<title>Node10</title>
<g id="a_Node000010"><a xlink:href="classUploadHandler.html#ae9d6fd83c1ba35b23829b8f4f619127d" target="_top" xlink:title="Entry point for handling file uploads.">
<polygon fill="white" stroke="#666666" points="973.5,-57 845.5,-57 845.5,-38 973.5,-38 973.5,-57"/>
<text text-anchor="middle" x="909.5" y="-45" font-family="Helvetica,sans-Serif" font-size="10.00">UploadHandler::handle</text>
</a>
</g>
</g>
<!-- Node1&#45;&gt;Node10 -->
<g id="edge13_Node000001_Node000010" class="edge">
<title>Node1&#45;&gt;Node10</title>
<g id="a_edge13_Node000001_Node000010"><a xlink:title=" ">
<path fill="none" stroke="#63b8ff" d="M1280.29,-148.73C1261.83,-126.29 1226.69,-88.58 1187,-71.5 1118.4,-41.98 1031.5,-39.41 973.62,-41.98"/>
<polygon fill="#63b8ff" stroke="#63b8ff" points="1277.75,-151.15 1286.73,-156.77 1283.21,-146.78 1277.75,-151.15"/>
</a>
</g>
</g>
<!-- Node11 -->
<g id="Node000011" class="node">
<title>Node11</title>
<g id="a_Node000011"><a xlink:href="classResponseBuilder.html#a0f3257a6db27bcd3befa5005cc7cdfa0" target="_top" xlink:title="Processes CGI output and builds an HTTP response from it.">
<polygon fill="white" stroke="#666666" points="798,-302.5 645,-302.5 645,-272.5 798,-272.5 798,-302.5"/>
<text text-anchor="start" x="653" y="-290.5" font-family="Helvetica,sans-Serif" font-size="10.00">ResponseBuilder::handleCgi</text>
<text text-anchor="middle" x="721.5" y="-279.5" font-family="Helvetica,sans-Serif" font-size="10.00">Output</text>
</a>
</g>
</g>
<!-- Node1&#45;&gt;Node11 -->
<g id="edge15_Node000001_Node000011" class="edge">
<title>Node1&#45;&gt;Node11</title>
<g id="a_edge15_Node000001_Node000011"><a xlink:title=" ">
<path fill="none" stroke="#63b8ff" d="M1283.2,-184.58C1266.41,-210.73 1231.33,-258.09 1187,-277.5 1058.8,-333.62 891.01,-318.27 796.19,-302.54"/>
<polygon fill="#63b8ff" stroke="#63b8ff" points="1286.23,-186.34 1288.54,-176 1280.29,-182.64 1286.23,-186.34"/>
</a>
</g>
</g>
<!-- Node12 -->
<g id="Node000012" class="node">
<title>Node12</title>
<g id="a_Node000012"><a xlink:href="classResponseBuilder.html#a0a1b2929111eec67e4ebe1acb7796915" target="_top" xlink:title="Prepares an HTTP response for a static page.">
<polygon fill="white" stroke="#666666" points="1186.5,-181.5 1021.5,-181.5 1021.5,-151.5 1186.5,-151.5 1186.5,-181.5"/>
<text text-anchor="start" x="1029.5" y="-169.5" font-family="Helvetica,sans-Serif" font-size="10.00">ResponseBuilder::handleStatic</text>
<text text-anchor="middle" x="1104" y="-158.5" font-family="Helvetica,sans-Serif" font-size="10.00">PageOutput</text>
</a>
</g>
</g>
<!-- Node1&#45;&gt;Node12 -->
<g id="edge17_Node000001_Node000012" class="edge">
<title>Node1&#45;&gt;Node12</title>
<g id="a_edge17_Node000001_Node000012"><a xlink:title=" ">
<path fill="none" stroke="#63b8ff" d="M1212.73,-166.5C1204.07,-166.5 1195.26,-166.5 1186.59,-166.5"/>
<polygon fill="#63b8ff" stroke="#63b8ff" points="1212.82,-170 1222.82,-166.5 1212.82,-163 1212.82,-170"/>
</a>
</g>
</g>
<!-- Node15 -->
<g id="Node000015" class="node">
<title>Node15</title>
<g id="a_Node000015"><a xlink:href="classRouter.html#a9cccffeb5ef1889ffc62987c437f6c59" target="_top" xlink:title="Checks if the request triggers an HTTP redirect.">
<polygon fill="white" stroke="#666666" points="1156,-19 1052,-19 1052,0 1156,0 1156,-19"/>
<text text-anchor="middle" x="1104" y="-7" font-family="Helvetica,sans-Serif" font-size="10.00">Router::isRedirect</text>
</a>
</g>
</g>
<!-- Node1&#45;&gt;Node15 -->
<g id="edge23_Node000001_Node000015" class="edge">
<title>Node1&#45;&gt;Node15</title>
<g id="a_edge23_Node000001_Node000015"><a xlink:title=" ">
<path fill="none" stroke="#63b8ff" d="M1283.96,-147.75C1267.54,-118.87 1232.19,-63.69 1187,-33.5 1177.63,-27.24 1166.59,-22.58 1155.71,-19.12"/>
<polygon fill="#63b8ff" stroke="#63b8ff" points="1281.06,-149.73 1288.97,-156.79 1287.18,-146.34 1281.06,-149.73"/>
</a>
</g>
</g>
<!-- Node17 -->
<g id="Node000017" class="node">
<title>Node17</title>
<g id="a_Node000017"><a xlink:href="classResponseBuilder.html#a8c8e1391a9e13ef9c48e73cdc5ffb96a" target="_top" xlink:title="Adds mandatory HTTP headers to the response.">
<polygon fill="white" stroke="#666666" points="1187,-243.5 1021,-243.5 1021,-213.5 1187,-213.5 1187,-243.5"/>
<text text-anchor="start" x="1029" y="-231.5" font-family="Helvetica,sans-Serif" font-size="10.00">ResponseBuilder::setMinimum</text>
<text text-anchor="middle" x="1104" y="-220.5" font-family="Helvetica,sans-Serif" font-size="10.00">Headers</text>
</a>
</g>
</g>
<!-- Node1&#45;&gt;Node17 -->
<g id="edge26_Node000001_Node000017" class="edge">
<title>Node1&#45;&gt;Node17</title>
<g id="a_edge26_Node000001_Node000017"><a xlink:title=" ">
<path fill="none" stroke="#63b8ff" d="M1255.12,-179.25C1224.93,-189.16 1182.96,-202.92 1151.08,-213.38"/>
<polygon fill="#63b8ff" stroke="#63b8ff" points="1256.47,-182.49 1264.88,-176.05 1254.29,-175.84 1256.47,-182.49"/>
</a>
</g>
</g>
<!-- Node3 -->
<g id="Node000003" class="node">
<title>Node3</title>
<g id="a_Node000003"><a xlink:href="classDispatcher.html#a13c8a2fd90033adf9788c8774c3f0f47" target="_top" xlink:title="Central dispatch routine that delegates HTTP requests to the appropriate handler.">
<polygon fill="white" stroke="#666666" points="582,-117 466,-117 466,-98 582,-98 582,-117"/>
<text text-anchor="middle" x="524" y="-105" font-family="Helvetica,sans-Serif" font-size="10.00">Dispatcher::dispatch</text>
</a>
</g>
</g>
<!-- Node2&#45;&gt;Node3 -->
<g id="edge2_Node000002_Node000003" class="edge">
<title>Node2&#45;&gt;Node3</title>
<g id="a_edge2_Node000002_Node000003"><a xlink:title=" ">
<path fill="none" stroke="#63b8ff" d="M693.08,-195.19C652.63,-174.09 578.05,-135.18 543.49,-117.14"/>
<polygon fill="#63b8ff" stroke="#63b8ff" points="691.62,-198.38 702.11,-199.9 694.86,-192.18 691.62,-198.38"/>
</a>
</g>
</g>
<!-- Node5 -->
<g id="Node000005" class="node">
<title>Node5</title>
<g id="a_Node000005"><a xlink:href="classWebServer.html#af39709e3744077e019aa76555f03a42e" target="_top" xlink:title="Main event loop — monitors sockets, dispatches requests, and handles responses.">
<polygon fill="white" stroke="#666666" points="199,-200 77,-200 77,-181 199,-181 199,-200"/>
<text text-anchor="middle" x="138" y="-188" font-family="Helvetica,sans-Serif" font-size="10.00">WebServer::runServer</text>
</a>
</g>
</g>
<!-- Node2&#45;&gt;Node5 -->
<g id="edge8_Node000002_Node000005" class="edge">
<title>Node2&#45;&gt;Node5</title>
<g id="a_edge8_Node000002_Node000005"><a xlink:title=" ">
<path fill="none" stroke="#63b8ff" d="M647.22,-207.11C531.04,-203.31 306.73,-195.98 199.27,-192.47"/>
<polygon fill="#63b8ff" stroke="#63b8ff" points="647.33,-210.61 657.44,-207.44 647.56,-203.61 647.33,-210.61"/>
</a>
</g>
</g>
<!-- Node7 -->
<g id="Node000007" class="node">
<title>Node7</title>
<g id="a_Node000007"><a xlink:href="classWebServer.html#a7667bc8a87db8f9987a5e80da9c4cd37" target="_top" xlink:title="Reads CGI process output and assembles it into the client buffer.">
<polygon fill="white" stroke="#666666" points="609,-257 439,-257 439,-238 609,-238 609,-257"/>
<text text-anchor="middle" x="524" y="-245" font-family="Helvetica,sans-Serif" font-size="10.00">WebServer::handleCgiReadable</text>
</a>
</g>
</g>
<!-- Node2&#45;&gt;Node7 -->
<g id="edge6_Node000002_Node000007" class="edge">
<title>Node2&#45;&gt;Node7</title>
<g id="a_edge6_Node000002_Node000007"><a xlink:title=" ">
<path fill="none" stroke="#63b8ff" d="M661.39,-220.99C633.5,-226.41 600.6,-232.81 574.1,-237.96"/>
<polygon fill="#63b8ff" stroke="#63b8ff" points="662.27,-224.38 671.42,-219.04 660.94,-217.51 662.27,-224.38"/>
</a>
</g>
</g>
<!-- Node8 -->
<g id="Node000008" class="node">
<title>Node8</title>
<g id="a_Node000008"><a xlink:href="classWebServer.html#a32042bb7e426cf5c53c2c2860d622342" target="_top" xlink:title="Scans active CGI processes and terminates those exceeding timeout.">
<polygon fill="white" stroke="#666666" points="403,-181 235,-181 235,-162 403,-162 403,-181"/>
<text text-anchor="middle" x="319" y="-169" font-family="Helvetica,sans-Serif" font-size="10.00">WebServer::sweepCgiTimeouts</text>
</a>
</g>
</g>
<!-- Node2&#45;&gt;Node8 -->
<g id="edge9_Node000002_Node000008" class="edge">
<title>Node2&#45;&gt;Node8</title>
<g id="a_edge9_Node000002_Node000008"><a xlink:title=" ">
<path fill="none" stroke="#63b8ff" d="M647.33,-199.87C634.56,-198.31 621.4,-196.79 609,-195.5 539.77,-188.28 461.03,-181.86 403.24,-177.48"/>
<polygon fill="#63b8ff" stroke="#63b8ff" points="647.11,-203.37 657.46,-201.12 647.96,-196.42 647.11,-203.37"/>
</a>
</g>
</g>
<!-- Node4 -->
<g id="Node000004" class="node">
<title>Node4</title>
<g id="a_Node000004"><a xlink:href="classWebServer.html#a8cbf37c0a840305ce15e8648566c9ce4" target="_top" xlink:title="Handles incoming data from a connected client.">
<polygon fill="white" stroke="#666666" points="394.5,-141 243.5,-141 243.5,-122 394.5,-122 394.5,-141"/>
<text text-anchor="middle" x="319" y="-129" font-family="Helvetica,sans-Serif" font-size="10.00">WebServer::receiveRequest</text>
</a>
</g>
</g>
<!-- Node3&#45;&gt;Node4 -->
<g id="edge3_Node000003_Node000004" class="edge">
<title>Node3&#45;&gt;Node4</title>
<g id="a_edge3_Node000003_Node000004"><a xlink:title=" ">
<path fill="none" stroke="#63b8ff" d="M455.88,-115.43C436.33,-117.75 414.85,-120.29 394.86,-122.65"/>
<polygon fill="#63b8ff" stroke="#63b8ff" points="456.39,-118.9 465.91,-114.25 455.57,-111.95 456.39,-118.9"/>
</a>
</g>
</g>
<!-- Node4&#45;&gt;Node5 -->
<g id="edge4_Node000004_Node000005" class="edge">
<title>Node4&#45;&gt;Node5</title>
<g id="a_edge4_Node000004_Node000005"><a xlink:title=" ">
<path fill="none" stroke="#63b8ff" d="M266.11,-143.53C255.74,-146.24 244.97,-149.28 235,-152.5 209.07,-160.87 180.09,-172.7 160.82,-180.93"/>
<polygon fill="#63b8ff" stroke="#63b8ff" points="267.08,-146.9 275.9,-141.03 265.35,-140.11 267.08,-146.9"/>
</a>
</g>
</g>
<!-- Node6 -->
<g id="Node000006" class="node">
<title>Node6</title>
<g id="a_Node000006"><a xlink:href="main_8cpp.html#a3c04138a5bfe5d72780bb7e82a18e627" target="_top" xlink:title="Entry point of the Webservinho web server.">
<polygon fill="white" stroke="#666666" points="41,-200 0,-200 0,-181 41,-181 41,-200"/>
<text text-anchor="middle" x="20.5" y="-188" font-family="Helvetica,sans-Serif" font-size="10.00">main</text>
</a>
</g>
</g>
<!-- Node5&#45;&gt;Node6 -->
<g id="edge5_Node000005_Node000006" class="edge">
<title>Node5&#45;&gt;Node6</title>
<g id="a_edge5_Node000005_Node000006"><a xlink:title=" ">
<path fill="none" stroke="#63b8ff" d="M66.66,-190.5C57.35,-190.5 48.51,-190.5 41.15,-190.5"/>
<polygon fill="#63b8ff" stroke="#63b8ff" points="66.88,-194 76.88,-190.5 66.88,-187 66.88,-194"/>
</a>
</g>
</g>
<!-- Node7&#45;&gt;Node5 -->
<g id="edge7_Node000007_Node000005" class="edge">
<title>Node7&#45;&gt;Node5</title>
<g id="a_edge7_Node000007_Node000005"><a xlink:title=" ">
<path fill="none" stroke="#63b8ff" d="M428.7,-245.53C372.04,-242.89 298.81,-236.91 235,-223.5 209.3,-218.1 181,-207.81 161.83,-200.15"/>
<polygon fill="#63b8ff" stroke="#63b8ff" points="428.57,-249.02 438.72,-245.97 428.88,-242.03 428.57,-249.02"/>
</a>
</g>
</g>
<!-- Node8&#45;&gt;Node5 -->
<g id="edge10_Node000008_Node000005" class="edge">
<title>Node8&#45;&gt;Node5</title>
<g id="a_edge10_Node000008_Node000005"><a xlink:title=" ">
<path fill="none" stroke="#63b8ff" d="M224.6,-181.41C215.93,-182.33 207.3,-183.25 199.06,-184.13"/>
<polygon fill="#63b8ff" stroke="#63b8ff" points="225.21,-184.87 234.79,-180.33 224.47,-177.91 225.21,-184.87"/>
</a>
</g>
</g>
<!-- Node9&#45;&gt;Node3 -->
<g id="edge12_Node000009_Node000003" class="edge">
<title>Node9&#45;&gt;Node3</title>
<g id="a_edge12_Node000009_Node000003"><a xlink:title=" ">
<path fill="none" stroke="#63b8ff" d="M639.87,-94.57C620.44,-96.76 600.09,-99.05 582.01,-101.08"/>
<polygon fill="#63b8ff" stroke="#63b8ff" points="640.37,-98.04 649.92,-93.44 639.59,-91.08 640.37,-98.04"/>
</a>
</g>
</g>
<!-- Node10&#45;&gt;Node3 -->
<g id="edge14_Node000010_Node000003" class="edge">
<title>Node10&#45;&gt;Node3</title>
<g id="a_edge14_Node000010_Node000003"><a xlink:title=" ">
<path fill="none" stroke="#63b8ff" d="M835.29,-47.75C782.03,-49.15 708.44,-53.6 645,-66.5 610.05,-73.61 571.28,-88.14 547.52,-97.85"/>
<polygon fill="#63b8ff" stroke="#63b8ff" points="835.41,-51.25 845.33,-47.52 835.25,-44.25 835.41,-51.25"/>
</a>
</g>
</g>
<!-- Node11&#45;&gt;Node7 -->
<g id="edge16_Node000011_Node000007" class="edge">
<title>Node11&#45;&gt;Node7</title>
<g id="a_edge16_Node000011_Node000007"><a xlink:title=" ">
<path fill="none" stroke="#63b8ff" d="M637.24,-270.47C614.74,-265.86 591.19,-261.04 571.5,-257.01"/>
<polygon fill="#63b8ff" stroke="#63b8ff" points="636.65,-273.92 647.15,-272.49 638.05,-267.06 636.65,-273.92"/>
</a>
</g>
</g>
<!-- Node12&#45;&gt;Node2 -->
<g id="edge18_Node000012_Node000002" class="edge">
<title>Node12&#45;&gt;Node2</title>
<g id="a_edge18_Node000012_Node000002"><a xlink:title=" ">
<path fill="none" stroke="#63b8ff" d="M1026.81,-183.49C1012.95,-186.15 998.58,-188.63 985,-190.5 917.21,-199.81 838.91,-204.73 785.59,-207.21"/>
<polygon fill="#63b8ff" stroke="#63b8ff" points="1027.66,-186.89 1036.79,-181.52 1026.3,-180.02 1027.66,-186.89"/>
</a>
</g>
</g>
<!-- Node13 -->
<g id="Node000013" class="node">
<title>Node13</title>
<g id="a_Node000013"><a xlink:href="classResponseBuilder.html#a998edbfd6f08dd34332ca92507db5d77" target="_top" xlink:title="Attempts to load and serve a custom error page from configuration.">
<polygon fill="white" stroke="#666666" points="985,-181.5 834,-181.5 834,-151.5 985,-151.5 985,-181.5"/>
<text text-anchor="start" x="842" y="-169.5" font-family="Helvetica,sans-Serif" font-size="10.00">ResponseBuilder::errorPage</text>
<text text-anchor="middle" x="909.5" y="-158.5" font-family="Helvetica,sans-Serif" font-size="10.00">Config</text>
</a>
</g>
</g>
<!-- Node12&#45;&gt;Node13 -->
<g id="edge19_Node000012_Node000013" class="edge">
<title>Node12&#45;&gt;Node13</title>
<g id="a_edge19_Node000012_Node000013"><a xlink:title=" ">
<path fill="none" stroke="#63b8ff" d="M1011.19,-166.5C1002.49,-166.5 993.74,-166.5 985.23,-166.5"/>
<polygon fill="#63b8ff" stroke="#63b8ff" points="1011.36,-170 1021.36,-166.5 1011.36,-163 1011.36,-170"/>
</a>
</g>
</g>
<!-- Node14 -->
<g id="Node000014" class="node">
<title>Node14</title>
<g id="a_Node000014"><a xlink:href="classStaticPageHandler.html#a701db169c979ef5cfebc72f6c160fb32" target="_top" xlink:title="Handles serving static files from disk.">
<polygon fill="white" stroke="#666666" points="777.5,-143.5 665.5,-143.5 665.5,-113.5 777.5,-113.5 777.5,-143.5"/>
<text text-anchor="start" x="673.5" y="-131.5" font-family="Helvetica,sans-Serif" font-size="10.00">StaticPageHandler::</text>
<text text-anchor="middle" x="721.5" y="-120.5" font-family="Helvetica,sans-Serif" font-size="10.00">handle</text>
</a>
</g>
</g>
<!-- Node12&#45;&gt;Node14 -->
<g id="edge21_Node000012_Node000014" class="edge">
<title>Node12&#45;&gt;Node14</title>
<g id="a_edge21_Node000012_Node000014"><a xlink:title=" ">
<path fill="none" stroke="#63b8ff" d="M1027.6,-149.45C1013.51,-146.75 998.85,-144.27 985,-142.5 913.7,-133.4 830.77,-130.2 777.51,-129.08"/>
<polygon fill="#63b8ff" stroke="#63b8ff" points="1027.26,-152.95 1037.75,-151.44 1028.61,-146.08 1027.26,-152.95"/>
</a>
</g>
</g>
<!-- Node13&#45;&gt;Node2 -->
<g id="edge20_Node000013_Node000002" class="edge">
<title>Node13&#45;&gt;Node2</title>
<g id="a_edge20_Node000013_Node000002"><a xlink:title=" ">
<path fill="none" stroke="#63b8ff" d="M833.69,-183.8C809.81,-189.32 784.26,-195.22 763.69,-199.98"/>
<polygon fill="#63b8ff" stroke="#63b8ff" points="834.49,-187.2 843.45,-181.54 832.91,-180.38 834.49,-187.2"/>
</a>
</g>
</g>
<!-- Node14&#45;&gt;Node3 -->
<g id="edge22_Node000014_Node000003" class="edge">
<title>Node14&#45;&gt;Node3</title>
<g id="a_edge22_Node000014_Node000003"><a xlink:title=" ">
<path fill="none" stroke="#63b8ff" d="M655.31,-121.5C631.63,-118.95 605.07,-116.1 582.14,-113.64"/>
<polygon fill="#63b8ff" stroke="#63b8ff" points="654.94,-124.98 665.26,-122.57 655.69,-118.02 654.94,-124.98"/>
</a>
</g>
</g>
<!-- Node16 -->
<g id="Node000016" class="node">
<title>Node16</title>
<g id="a_Node000016"><a xlink:href="classRouter.html#aa58c0c6f2a1fc66a6e2a78adfae162e6" target="_top" xlink:title="Main entry point for determining how an HTTP request should be handled.">
<polygon fill="white" stroke="#666666" points="955,-19 864,-19 864,0 955,0 955,-19"/>
<text text-anchor="middle" x="909.5" y="-7" font-family="Helvetica,sans-Serif" font-size="10.00">Router::resolve</text>
</a>
</g>
</g>
<!-- Node15&#45;&gt;Node16 -->
<g id="edge24_Node000015_Node000016" class="edge">
<title>Node15&#45;&gt;Node16</title>
<g id="a_edge24_Node000015_Node000016"><a xlink:title=" ">
<path fill="none" stroke="#63b8ff" d="M1041.8,-9.5C1013.71,-9.5 981,-9.5 955.26,-9.5"/>
<polygon fill="#63b8ff" stroke="#63b8ff" points="1041.92,-13 1051.92,-9.5 1041.92,-6 1041.92,-13"/>
</a>
</g>
</g>
<!-- Node16&#45;&gt;Node3 -->
<g id="edge25_Node000016_Node000003" class="edge">
<title>Node16&#45;&gt;Node3</title>
<g id="a_edge25_Node000016_Node000003"><a xlink:title=" ">
<path fill="none" stroke="#63b8ff" d="M853.59,-11.57C799.44,-14.86 714.89,-23.39 645,-45.5 604.53,-58.3 561.3,-83.99 539.44,-97.95"/>
<polygon fill="#63b8ff" stroke="#63b8ff" points="853.88,-15.06 863.66,-10.99 853.48,-8.07 853.88,-15.06"/>
</a>
</g>
</g>
<!-- Node17&#45;&gt;Node2 -->
<g id="edge27_Node000017_Node000002" class="edge">
<title>Node17&#45;&gt;Node2</title>
<g id="a_edge27_Node000017_Node000002"><a xlink:title=" ">
<path fill="none" stroke="#63b8ff" d="M1010.59,-229.2C958.64,-228.99 892.64,-227.71 834,-223.5 818.34,-222.37 801.5,-220.57 785.77,-218.63"/>
<polygon fill="#63b8ff" stroke="#63b8ff" points="1010.77,-232.7 1020.78,-229.23 1010.79,-225.71 1010.77,-232.7"/>
</a>
</g>
</g>
</g>
</svg>
