<?xml version="1.0" encoding="UTF-8" standalone="no"?>
<!DOCTYPE svg PUBLIC "-//W3C//DTD SVG 1.1//EN"
 "http://www.w3.org/Graphics/SVG/1.1/DTD/svg11.dtd">
<!-- Generated by graphviz version 2.43.0 (0)
 -->
<!-- Title: ClientConnection::setResponseBuffer Pages: 1 -->
<svg width="821pt" height="179pt"
 viewBox="0.00 0.00 821.00 179.00" xmlns="http://www.w3.org/2000/svg" xmlns:xlink="http://www.w3.org/1999/xlink">
<g id="graph0" class="graph" transform="scale(1 1) rotate(0) translate(4 175)">
<title>ClientConnection::setResponseBuffer</title>
<!-- Node1 -->
<g id="Node000001" class="node">
<title>Node1</title>
<g id="a_Node000001"><a xlink:title=" ">
<polygon fill="#999999" stroke="#666666" points="813,-100.5 645,-100.5 645,-70.5 813,-70.5 813,-100.5"/>
<text text-anchor="start" x="653" y="-88.5" font-family="Helvetica,sans-Serif" font-size="10.00">ClientConnection::setResponse</text>
<text text-anchor="middle" x="729" y="-77.5" font-family="Helvetica,sans-Serif" font-size="10.00">Buffer</text>
</a>
</g>
</g>
<!-- Node2 -->
<g id="Node000002" class="node">
<title>Node2</title>
<g id="a_Node000002"><a xlink:href="classDispatcher.html#a13c8a2fd90033adf9788c8774c3f0f47" target="_top" xlink:title="Central dispatch routine that delegates HTTP requests to the appropriate handler.">
<polygon fill="white" stroke="#666666" points="583,-171 467,-171 467,-152 583,-152 583,-171"/>
<text text-anchor="middle" x="525" y="-159" font-family="Helvetica,sans-Serif" font-size="10.00">Dispatcher::dispatch</text>
</a>
</g>
</g>
<!-- Node1&#45;&gt;Node2 -->
<g id="edge1_Node000001_Node000002" class="edge">
<title>Node1&#45;&gt;Node2</title>
<g id="a_edge1_Node000001_Node000002"><a xlink:title=" ">
<path fill="none" stroke="#63b8ff" d="M687.3,-104.86C664.56,-115.28 635.53,-127.91 609,-137.5 594.19,-142.85 577.56,-147.85 563.1,-151.89"/>
<polygon fill="#63b8ff" stroke="#63b8ff" points="689.02,-107.92 696.64,-100.55 686.09,-101.56 689.02,-107.92"/>
</a>
</g>
</g>
<!-- Node3 -->
<g id="Node000003" class="node">
<title>Node3</title>
<g id="a_Node000003"><a xlink:href="classWebServer.html#a8cbf37c0a840305ce15e8648566c9ce4" target="_top" xlink:title="Handles incoming data from a connected client.">
<polygon fill="white" stroke="#666666" points="395.5,-133 244.5,-133 244.5,-114 395.5,-114 395.5,-133"/>
<text text-anchor="middle" x="320" y="-121" font-family="Helvetica,sans-Serif" font-size="10.00">WebServer::receiveRequest</text>
</a>
</g>
</g>
<!-- Node1&#45;&gt;Node3 -->
<g id="edge7_Node000001_Node000003" class="edge">
<title>Node1&#45;&gt;Node3</title>
<g id="a_edge7_Node000001_Node000003"><a xlink:title=" ">
<path fill="none" stroke="#63b8ff" d="M634.65,-96.79C625.98,-97.74 617.33,-98.66 609,-99.5 536.61,-106.77 453.83,-113.51 395.65,-117.98"/>
<polygon fill="#63b8ff" stroke="#63b8ff" points="635.27,-100.24 644.82,-95.65 634.49,-93.28 635.27,-100.24"/>
</a>
</g>
</g>
<!-- Node4 -->
<g id="Node000004" class="node">
<title>Node4</title>
<g id="a_Node000004"><a xlink:href="classWebServer.html#af39709e3744077e019aa76555f03a42e" target="_top" xlink:title="Main event loop — monitors sockets, dispatches requests, and handles responses.">
<polygon fill="white" stroke="#666666" points="199,-76 77,-76 77,-57 199,-57 199,-76"/>
<text text-anchor="middle" x="138" y="-64" font-family="Helvetica,sans-Serif" font-size="10.00">WebServer::runServer</text>
</a>
</g>
</g>
<!-- Node1&#45;&gt;Node4 -->
<g id="edge8_Node000001_Node000004" class="edge">
<title>Node1&#45;&gt;Node4</title>
<g id="a_edge8_Node000001_Node000004"><a xlink:title=" ">
<path fill="none" stroke="#63b8ff" d="M634.78,-82.49C512.76,-78.56 302.34,-71.77 199.34,-68.45"/>
<polygon fill="#63b8ff" stroke="#63b8ff" points="634.75,-85.99 644.86,-82.82 634.98,-79 634.75,-85.99"/>
</a>
</g>
</g>
<!-- Node6 -->
<g id="Node000006" class="node">
<title>Node6</title>
<g id="a_Node000006"><a xlink:href="classWebServer.html#a7667bc8a87db8f9987a5e80da9c4cd37" target="_top" xlink:title="Reads CGI process output and assembles it into the client buffer.">
<polygon fill="white" stroke="#666666" points="405,-57 235,-57 235,-38 405,-38 405,-57"/>
<text text-anchor="middle" x="320" y="-45" font-family="Helvetica,sans-Serif" font-size="10.00">WebServer::handleCgiReadable</text>
</a>
</g>
</g>
<!-- Node1&#45;&gt;Node6 -->
<g id="edge5_Node000001_Node000006" class="edge">
<title>Node1&#45;&gt;Node6</title>
<g id="a_edge5_Node000001_Node000006"><a xlink:title=" ">
<path fill="none" stroke="#63b8ff" d="M634.65,-74.21C625.98,-73.26 617.33,-72.34 609,-71.5 540.48,-64.62 462.65,-58.22 405.19,-53.76"/>
<polygon fill="#63b8ff" stroke="#63b8ff" points="634.49,-77.72 644.82,-75.35 635.27,-70.76 634.49,-77.72"/>
</a>
</g>
</g>
<!-- Node7 -->
<g id="Node000007" class="node">
<title>Node7</title>
<g id="a_Node000007"><a xlink:href="classWebServer.html#a32042bb7e426cf5c53c2c2860d622342" target="_top" xlink:title="Scans active CGI processes and terminates those exceeding timeout.">
<polygon fill="white" stroke="#666666" points="609,-19 441,-19 441,0 609,0 609,-19"/>
<text text-anchor="middle" x="525" y="-7" font-family="Helvetica,sans-Serif" font-size="10.00">WebServer::sweepCgiTimeouts</text>
</a>
</g>
</g>
<!-- Node1&#45;&gt;Node7 -->
<g id="edge9_Node000001_Node000007" class="edge">
<title>Node1&#45;&gt;Node7</title>
<g id="a_edge9_Node000001_Node000007"><a xlink:title=" ">
<path fill="none" stroke="#63b8ff" d="M687.3,-66.14C664.56,-55.72 635.53,-43.09 609,-33.5 594.19,-28.15 577.56,-23.15 563.1,-19.11"/>
<polygon fill="#63b8ff" stroke="#63b8ff" points="686.09,-69.44 696.64,-70.45 689.02,-63.08 686.09,-69.44"/>
</a>
</g>
</g>
<!-- Node2&#45;&gt;Node3 -->
<g id="edge2_Node000002_Node000003" class="edge">
<title>Node2&#45;&gt;Node3</title>
<g id="a_edge2_Node000002_Node000003"><a xlink:title=" ">
<path fill="none" stroke="#63b8ff" d="M463,-150.08C433.96,-144.64 399.62,-138.22 371.98,-133.04"/>
<polygon fill="#63b8ff" stroke="#63b8ff" points="462.56,-153.56 473.04,-151.96 463.85,-146.68 462.56,-153.56"/>
</a>
</g>
</g>
<!-- Node3&#45;&gt;Node4 -->
<g id="edge3_Node000003_Node000004" class="edge">
<title>Node3&#45;&gt;Node4</title>
<g id="a_edge3_Node000003_Node000004"><a xlink:title=" ">
<path fill="none" stroke="#63b8ff" d="M274.22,-111.18C261.51,-107.55 247.67,-103.49 235,-99.5 211.46,-92.1 184.96,-82.92 165.77,-76.13"/>
<polygon fill="#63b8ff" stroke="#63b8ff" points="273.56,-114.63 284.14,-113.98 275.47,-107.89 273.56,-114.63"/>
</a>
</g>
</g>
<!-- Node5 -->
<g id="Node000005" class="node">
<title>Node5</title>
<g id="a_Node000005"><a xlink:href="main_8cpp.html#a3c04138a5bfe5d72780bb7e82a18e627" target="_top" xlink:title="Entry point of the Webservinho web server.">
<polygon fill="white" stroke="#666666" points="41,-76 0,-76 0,-57 41,-57 41,-76"/>
<text text-anchor="middle" x="20.5" y="-64" font-family="Helvetica,sans-Serif" font-size="10.00">main</text>
</a>
</g>
</g>
<!-- Node4&#45;&gt;Node5 -->
<g id="edge4_Node000004_Node000005" class="edge">
<title>Node4&#45;&gt;Node5</title>
<g id="a_edge4_Node000004_Node000005"><a xlink:title=" ">
<path fill="none" stroke="#63b8ff" d="M66.66,-66.5C57.35,-66.5 48.51,-66.5 41.15,-66.5"/>
<polygon fill="#63b8ff" stroke="#63b8ff" points="66.88,-70 76.88,-66.5 66.88,-63 66.88,-70"/>
</a>
</g>
</g>
<!-- Node6&#45;&gt;Node4 -->
<g id="edge6_Node000006_Node000004" class="edge">
<title>Node6&#45;&gt;Node4</title>
<g id="a_edge6_Node000006_Node000004"><a xlink:title=" ">
<path fill="none" stroke="#63b8ff" d="M224.59,-57.47C215.91,-58.38 207.27,-59.29 199.02,-60.16"/>
<polygon fill="#63b8ff" stroke="#63b8ff" points="225.22,-60.92 234.8,-56.39 224.49,-53.96 225.22,-60.92"/>
</a>
</g>
</g>
<!-- Node7&#45;&gt;Node4 -->
<g id="edge10_Node000007_Node000004" class="edge">
<title>Node7&#45;&gt;Node4</title>
<g id="a_edge10_Node000007_Node000004"><a xlink:title=" ">
<path fill="none" stroke="#63b8ff" d="M430.75,-8.93C373.63,-10.31 299.38,-15.21 235,-29.5 207.62,-35.58 177.72,-48.12 158.68,-56.91"/>
<polygon fill="#63b8ff" stroke="#63b8ff" points="430.92,-12.43 440.85,-8.72 430.78,-5.43 430.92,-12.43"/>
</a>
</g>
</g>
</g>
</svg>
