<?xml version="1.0" encoding="UTF-8" standalone="no"?>
<!DOCTYPE svg PUBLIC "-//W3C//DTD SVG 1.1//EN"
 "http://www.w3.org/Graphics/SVG/1.1/DTD/svg11.dtd">
<!-- Generated by graphviz version 2.43.0 (0)
 -->
<!-- Title: ServerSocket::getFD Pages: 1 -->
<svg width="596pt" height="65pt"
 viewBox="0.00 0.00 596.00 65.00" xmlns="http://www.w3.org/2000/svg" xmlns:xlink="http://www.w3.org/1999/xlink">
<g id="graph0" class="graph" transform="scale(1 1) rotate(0) translate(4 61)">
<title>ServerSocket::getFD</title>
<!-- Node1 -->
<g id="Node000001" class="node">
<title>Node1</title>
<g id="a_Node000001"><a xlink:title="Returns the socket file descriptor.">
<polygon fill="#999999" stroke="#666666" points="588,-38 472,-38 472,-19 588,-19 588,-38"/>
<text text-anchor="middle" x="530" y="-26" font-family="Helvetica,sans-Serif" font-size="10.00">ServerSocket::getFD</text>
</a>
</g>
</g>
<!-- Node2 -->
<g id="Node000002" class="node">
<title>Node2</title>
<g id="a_Node000002"><a xlink:href="classWebServer.html#aacdbe29d455db5ca3387cd06a67b890b" target="_top" xlink:title="Accepts new client connections on a given listening socket.">
<polygon fill="white" stroke="#666666" points="436,-57 242,-57 242,-38 436,-38 436,-57"/>
<text text-anchor="middle" x="339" y="-45" font-family="Helvetica,sans-Serif" font-size="10.00">WebServer::queueClientConnections</text>
</a>
</g>
</g>
<!-- Node1&#45;&gt;Node2 -->
<g id="edge1_Node000001_Node000002" class="edge">
<title>Node1&#45;&gt;Node2</title>
<g id="a_edge1_Node000001_Node000002"><a xlink:title=" ">
<path fill="none" stroke="#63b8ff" d="M461.68,-35.27C452.93,-36.15 443.84,-37.06 434.75,-37.98"/>
<polygon fill="#63b8ff" stroke="#63b8ff" points="462.18,-38.73 471.78,-34.25 461.48,-31.77 462.18,-38.73"/>
</a>
</g>
</g>
<!-- Node5 -->
<g id="Node000005" class="node">
<title>Node5</title>
<g id="a_Node000005"><a xlink:href="classWebServer.html#aaa47870e992fde48631172d73babbe92" target="_top" xlink:title="Initializes and binds all listening sockets defined in the configuration.">
<polygon fill="white" stroke="#666666" points="206,-19 77,-19 77,0 206,0 206,-19"/>
<text text-anchor="middle" x="141.5" y="-7" font-family="Helvetica,sans-Serif" font-size="10.00">WebServer::startServer</text>
</a>
</g>
</g>
<!-- Node1&#45;&gt;Node5 -->
<g id="edge4_Node000001_Node000005" class="edge">
<title>Node1&#45;&gt;Node5</title>
<g id="a_edge4_Node000001_Node000005"><a xlink:title=" ">
<path fill="none" stroke="#63b8ff" d="M461.67,-25.19C389.77,-21.66 276.68,-16.1 206.2,-12.63"/>
<polygon fill="#63b8ff" stroke="#63b8ff" points="461.81,-28.7 471.97,-25.7 462.15,-21.71 461.81,-28.7"/>
</a>
</g>
</g>
<!-- Node3 -->
<g id="Node000003" class="node">
<title>Node3</title>
<g id="a_Node000003"><a xlink:href="classWebServer.html#af39709e3744077e019aa76555f03a42e" target="_top" xlink:title="Main event loop — monitors sockets, dispatches requests, and handles responses.">
<polygon fill="white" stroke="#666666" points="202.5,-56 80.5,-56 80.5,-37 202.5,-37 202.5,-56"/>
<text text-anchor="middle" x="141.5" y="-44" font-family="Helvetica,sans-Serif" font-size="10.00">WebServer::runServer</text>
</a>
</g>
</g>
<!-- Node2&#45;&gt;Node3 -->
<g id="edge2_Node000002_Node000003" class="edge">
<title>Node2&#45;&gt;Node3</title>
<g id="a_edge2_Node000002_Node000003"><a xlink:title=" ">
<path fill="none" stroke="#63b8ff" d="M231.91,-46.96C221.87,-46.91 211.96,-46.86 202.58,-46.81"/>
<polygon fill="#63b8ff" stroke="#63b8ff" points="231.95,-50.46 241.97,-47.01 231.99,-43.46 231.95,-50.46"/>
</a>
</g>
</g>
<!-- Node4 -->
<g id="Node000004" class="node">
<title>Node4</title>
<g id="a_Node000004"><a xlink:href="main_8cpp.html#a3c04138a5bfe5d72780bb7e82a18e627" target="_top" xlink:title="Entry point of the Webservinho web server.">
<polygon fill="white" stroke="#666666" points="41,-37 0,-37 0,-18 41,-18 41,-37"/>
<text text-anchor="middle" x="20.5" y="-25" font-family="Helvetica,sans-Serif" font-size="10.00">main</text>
</a>
</g>
</g>
<!-- Node3&#45;&gt;Node4 -->
<g id="edge3_Node000003_Node000004" class="edge">
<title>Node3&#45;&gt;Node4</title>
<g id="a_edge3_Node000003_Node000004"><a xlink:title=" ">
<path fill="none" stroke="#63b8ff" d="M70.61,-35.34C59.77,-33.61 49.4,-31.96 41.01,-30.62"/>
<polygon fill="#63b8ff" stroke="#63b8ff" points="70.22,-38.82 80.65,-36.94 71.33,-31.91 70.22,-38.82"/>
</a>
</g>
</g>
<!-- Node5&#45;&gt;Node4 -->
<g id="edge5_Node000005_Node000004" class="edge">
<title>Node5&#45;&gt;Node4</title>
<g id="a_edge5_Node000005_Node000004"><a xlink:title=" ">
<path fill="none" stroke="#63b8ff" d="M67.34,-20.57C57.72,-22.02 48.59,-23.4 41.06,-24.54"/>
<polygon fill="#63b8ff" stroke="#63b8ff" points="68.15,-23.98 77.52,-19.03 67.1,-17.06 68.15,-23.98"/>
</a>
</g>
</g>
</g>
</svg>
