<?xml version="1.0" encoding="UTF-8" standalone="no"?>
<!DOCTYPE svg PUBLIC "-//W3C//DTD SVG 1.1//EN"
 "http://www.w3.org/Graphics/SVG/1.1/DTD/svg11.dtd">
<!-- Generated by graphviz version 2.43.0 (0)
 -->
<!-- Title: WebServer::sendResponse Pages: 1 -->
<svg width="746pt" height="433pt"
 viewBox="0.00 0.00 746.00 433.43" xmlns="http://www.w3.org/2000/svg" xmlns:xlink="http://www.w3.org/1999/xlink">
<g id="graph0" class="graph" transform="scale(1 1) rotate(0) translate(4 429.43)">
<title>WebServer::sendResponse</title>
<!-- Node1 -->
<g id="Node000001" class="node">
<title>Node1</title>
<g id="a_Node000001"><a xlink:title="Sends buffered response data to a connected client.">
<polygon fill="#999999" stroke="#666666" points="146,-239.5 0,-239.5 0,-220.5 146,-220.5 146,-239.5"/>
<text text-anchor="middle" x="73" y="-227.5" font-family="Helvetica,sans-Serif" font-size="10.00">WebServer::sendResponse</text>
</a>
</g>
</g>
<!-- Node2 -->
<g id="Node000002" class="node">
<title>Node2</title>
<g id="a_Node000002"><a xlink:href="classClientConnection.html#a20bd376cb881d6257fdd83f1cd709b70" target="_top" xlink:title="Clears the pending request buffer.">
<polygon fill="white" stroke="#666666" points="359.5,-391.5 200.5,-391.5 200.5,-372.5 359.5,-372.5 359.5,-391.5"/>
<text text-anchor="middle" x="280" y="-379.5" font-family="Helvetica,sans-Serif" font-size="10.00">ClientConnection::clearBuffer</text>
</a>
</g>
</g>
<!-- Node1&#45;&gt;Node2 -->
<g id="edge1_Node000001_Node000002" class="edge">
<title>Node1&#45;&gt;Node2</title>
<g id="a_edge1_Node000001_Node000002"><a xlink:title=" ">
<path fill="none" stroke="#63b8ff" d="M79.32,-239.82C92.96,-264 131.63,-326.68 182,-358 189.44,-362.63 197.72,-366.36 206.22,-369.37"/>
<polygon fill="#63b8ff" stroke="#63b8ff" points="205.28,-372.75 215.87,-372.48 207.42,-366.09 205.28,-372.75"/>
</a>
</g>
</g>
<!-- Node3 -->
<g id="Node000003" class="node">
<title>Node3</title>
<g id="a_Node000003"><a xlink:href="classLogger.html#a4aa4d7c3b98f6e12e7ea8253da5ea0cd" target="_top" xlink:title="Returns the singleton instance of the Logger.">
<polygon fill="white" stroke="#666666" points="547,-381.5 450,-381.5 450,-362.5 547,-362.5 547,-381.5"/>
<text text-anchor="middle" x="498.5" y="-369.5" font-family="Helvetica,sans-Serif" font-size="10.00">Logger::instance</text>
</a>
</g>
</g>
<!-- Node1&#45;&gt;Node3 -->
<g id="edge9_Node000001_Node000003" class="edge">
<title>Node1&#45;&gt;Node3</title>
<g id="a_edge9_Node000001_Node000003"><a xlink:title=" ">
<path fill="none" stroke="#63b8ff" d="M76.57,-239.8C85.23,-270.49 116.5,-364.9 182,-401 275.13,-452.33 407.52,-409.6 466.77,-385.6"/>
<polygon fill="#63b8ff" stroke="#63b8ff" points="468.4,-388.71 476.29,-381.64 465.72,-382.24 468.4,-388.71"/>
</a>
</g>
</g>
<!-- Node4 -->
<g id="Node000004" class="node">
<title>Node4</title>
<g id="a_Node000004"><a xlink:href="classLogger.html#a3d3f0801eeaf39b33a906ea8569c19b2" target="_top" xlink:title="Writes a log entry with timestamp, level, and message.">
<polygon fill="white" stroke="#666666" points="534,-325.5 463,-325.5 463,-306.5 534,-306.5 534,-325.5"/>
<text text-anchor="middle" x="498.5" y="-313.5" font-family="Helvetica,sans-Serif" font-size="10.00">Logger::log</text>
</a>
</g>
</g>
<!-- Node1&#45;&gt;Node4 -->
<g id="edge10_Node000001_Node000004" class="edge">
<title>Node1&#45;&gt;Node4</title>
<g id="a_edge10_Node000001_Node000004"><a xlink:title=" ">
<path fill="none" stroke="#63b8ff" d="M81,-239.73C96.43,-260.26 135.74,-307.55 182,-325 273.3,-359.44 390.26,-341.61 452.99,-327.56"/>
<polygon fill="#63b8ff" stroke="#63b8ff" points="453.99,-330.93 462.95,-325.26 452.42,-324.1 453.99,-330.93"/>
</a>
</g>
</g>
<!-- Node6 -->
<g id="Node000006" class="node">
<title>Node6</title>
<g id="a_Node000006"><a xlink:href="classClientConnection.html#a5b90a3b273d782b56307fd371779e57c" target="_top" xlink:title=" ">
<polygon fill="white" stroke="#666666" points="566,-223.5 431,-223.5 431,-204.5 566,-204.5 566,-223.5"/>
<text text-anchor="middle" x="498.5" y="-211.5" font-family="Helvetica,sans-Serif" font-size="10.00">ClientConnection::getFD</text>
</a>
</g>
</g>
<!-- Node1&#45;&gt;Node6 -->
<g id="edge5_Node000001_Node000006" class="edge">
<title>Node1&#45;&gt;Node6</title>
<g id="a_edge5_Node000001_Node000006"><a xlink:title=" ">
<path fill="none" stroke="#63b8ff" d="M120.84,-220.46C139.74,-217.07 161.82,-213.67 182,-212 263.35,-205.27 356.91,-207.05 420.89,-209.72"/>
<polygon fill="#63b8ff" stroke="#63b8ff" points="420.75,-213.21 430.89,-210.15 421.06,-206.22 420.75,-213.21"/>
</a>
</g>
</g>
<!-- Node7 -->
<g id="Node000007" class="node">
<title>Node7</title>
<g id="a_Node000007"><a xlink:href="classClientConnection.html#a4b8b0b92dcf541f45fb60eaa04d07f98" target="_top" xlink:title=" ">
<polygon fill="white" stroke="#666666" points="353,-126 207,-126 207,-96 353,-96 353,-126"/>
<text text-anchor="start" x="215" y="-114" font-family="Helvetica,sans-Serif" font-size="10.00">ClientConnection::getKeep</text>
<text text-anchor="middle" x="280" y="-103" font-family="Helvetica,sans-Serif" font-size="10.00">Alive</text>
</a>
</g>
</g>
<!-- Node1&#45;&gt;Node7 -->
<g id="edge6_Node000001_Node000007" class="edge">
<title>Node1&#45;&gt;Node7</title>
<g id="a_edge6_Node000001_Node000007"><a xlink:title=" ">
<path fill="none" stroke="#63b8ff" d="M82.86,-220.38C100.19,-202.12 140.5,-162.28 182,-140 189.4,-136.03 197.42,-132.53 205.57,-129.46"/>
<polygon fill="#63b8ff" stroke="#63b8ff" points="206.91,-132.7 215.17,-126.06 204.57,-126.1 206.91,-132.7"/>
</a>
</g>
</g>
<!-- Node8 -->
<g id="Node000008" class="node">
<title>Node8</title>
<g id="a_Node000008"><a xlink:href="classClientConnection.html#a2f8a4311d678e06bcd23abd3b7f605a9" target="_top" xlink:title=" ">
<polygon fill="white" stroke="#666666" points="583,-178 414,-178 414,-148 583,-148 583,-178"/>
<text text-anchor="start" x="422" y="-166" font-family="Helvetica,sans-Serif" font-size="10.00">ClientConnection::getResponse</text>
<text text-anchor="middle" x="498.5" y="-155" font-family="Helvetica,sans-Serif" font-size="10.00">Buffer</text>
</a>
</g>
</g>
<!-- Node1&#45;&gt;Node8 -->
<g id="edge7_Node000001_Node000008" class="edge">
<title>Node1&#45;&gt;Node8</title>
<g id="a_edge7_Node000001_Node000008"><a xlink:title=" ">
<path fill="none" stroke="#63b8ff" d="M107.82,-220.45C129,-214.74 156.93,-207.71 182,-203 255.89,-189.13 340.44,-178.7 403.4,-171.97"/>
<polygon fill="#63b8ff" stroke="#63b8ff" points="404.13,-175.41 413.71,-170.88 403.4,-168.45 404.13,-175.41"/>
</a>
</g>
</g>
<!-- Node9 -->
<g id="Node000009" class="node">
<title>Node9</title>
<g id="a_Node000009"><a xlink:href="classClientConnection.html#a5f3adea4749660acc050e64f5a57e2dc" target="_top" xlink:title=" ">
<polygon fill="white" stroke="#666666" points="351.5,-78 208.5,-78 208.5,-48 351.5,-48 351.5,-78"/>
<text text-anchor="start" x="216.5" y="-66" font-family="Helvetica,sans-Serif" font-size="10.00">ClientConnection::getSent</text>
<text text-anchor="middle" x="280" y="-55" font-family="Helvetica,sans-Serif" font-size="10.00">Bytes</text>
</a>
</g>
</g>
<!-- Node1&#45;&gt;Node9 -->
<g id="edge8_Node000001_Node000009" class="edge">
<title>Node1&#45;&gt;Node9</title>
<g id="a_edge8_Node000001_Node000009"><a xlink:title=" ">
<path fill="none" stroke="#63b8ff" d="M78.45,-220.19C90.81,-194.07 128.25,-122.47 182,-87 187.27,-83.52 193.01,-80.54 198.97,-78"/>
<polygon fill="#63b8ff" stroke="#63b8ff" points="200.41,-81.2 208.49,-74.35 197.9,-74.66 200.41,-81.2"/>
</a>
</g>
</g>
<!-- Node10 -->
<g id="Node000010" class="node">
<title>Node10</title>
<g id="a_Node000010"><a xlink:href="classWebServer.html#a4229c99fb202be210f93cbde92a560b0" target="_top" xlink:title="Removes a client connection and cleans up associated poll entry.">
<polygon fill="white" stroke="#666666" points="378,-315.5 182,-315.5 182,-296.5 378,-296.5 378,-315.5"/>
<text text-anchor="middle" x="280" y="-303.5" font-family="Helvetica,sans-Serif" font-size="10.00">WebServer::removeClientConnection</text>
</a>
</g>
</g>
<!-- Node1&#45;&gt;Node10 -->
<g id="edge11_Node000001_Node000010" class="edge">
<title>Node1&#45;&gt;Node10</title>
<g id="a_edge11_Node000001_Node000010"><a xlink:title=" ">
<path fill="none" stroke="#63b8ff" d="M91.11,-239.6C112.01,-251.02 148.71,-270.01 182,-282 194.75,-286.59 208.74,-290.61 222.04,-293.99"/>
<polygon fill="#63b8ff" stroke="#63b8ff" points="221.49,-297.46 232.04,-296.44 223.16,-290.66 221.49,-297.46"/>
</a>
</g>
</g>
<!-- Node11 -->
<g id="Node000011" class="node">
<title>Node11</title>
<g id="a_Node000011"><a xlink:href="string__utils_8hpp.html#ad735976365693b45c427000fe042e173" target="_top" xlink:title="Converts any printable type to a string representation.">
<polygon fill="white" stroke="#666666" points="526,-277.5 471,-277.5 471,-258.5 526,-258.5 526,-277.5"/>
<text text-anchor="middle" x="498.5" y="-265.5" font-family="Helvetica,sans-Serif" font-size="10.00">toString</text>
</a>
</g>
</g>
<!-- Node1&#45;&gt;Node11 -->
<g id="edge22_Node000001_Node000011" class="edge">
<title>Node1&#45;&gt;Node11</title>
<g id="a_edge22_Node000001_Node000011"><a xlink:title=" ">
<path fill="none" stroke="#63b8ff" d="M121.41,-239.55C140.2,-243.01 162.05,-246.65 182,-249 282.3,-260.8 401.45,-265.46 460.51,-267.14"/>
<polygon fill="#63b8ff" stroke="#63b8ff" points="460.73,-270.65 470.82,-267.42 460.92,-263.65 460.73,-270.65"/>
</a>
</g>
</g>
<!-- Node12 -->
<g id="Node000012" class="node">
<title>Node12</title>
<g id="a_Node000012"><a xlink:href="classClientConnection.html#abbef9ce451a487c2961910457915824e" target="_top" xlink:title="Sends response data to the client.">
<polygon fill="white" stroke="#666666" points="356,-239.5 204,-239.5 204,-220.5 356,-220.5 356,-239.5"/>
<text text-anchor="middle" x="280" y="-227.5" font-family="Helvetica,sans-Serif" font-size="10.00">ClientConnection::sendData</text>
</a>
</g>
</g>
<!-- Node1&#45;&gt;Node12 -->
<g id="edge15_Node000001_Node000012" class="edge">
<title>Node1&#45;&gt;Node12</title>
<g id="a_edge15_Node000001_Node000012"><a xlink:title=" ">
<path fill="none" stroke="#63b8ff" d="M146.28,-230C161.59,-230 177.9,-230 193.65,-230"/>
<polygon fill="#63b8ff" stroke="#63b8ff" points="193.91,-233.5 203.91,-230 193.91,-226.5 193.91,-233.5"/>
</a>
</g>
</g>
<!-- Node13 -->
<g id="Node000013" class="node">
<title>Node13</title>
<g id="a_Node000013"><a xlink:href="classClientConnection.html#a590269f3f8005c64161c043c7bd58de5" target="_top" xlink:title=" ">
<polygon fill="white" stroke="#666666" points="351.5,-30 208.5,-30 208.5,0 351.5,0 351.5,-30"/>
<text text-anchor="start" x="216.5" y="-18" font-family="Helvetica,sans-Serif" font-size="10.00">ClientConnection::setSent</text>
<text text-anchor="middle" x="280" y="-7" font-family="Helvetica,sans-Serif" font-size="10.00">Bytes</text>
</a>
</g>
</g>
<!-- Node1&#45;&gt;Node13 -->
<g id="edge21_Node000001_Node000013" class="edge">
<title>Node1&#45;&gt;Node13</title>
<g id="a_edge21_Node000001_Node000013"><a xlink:title=" ">
<path fill="none" stroke="#63b8ff" d="M76.52,-220.24C85.23,-188.64 117.07,-88.29 182,-39 187.12,-35.11 192.8,-31.84 198.75,-29.1"/>
<polygon fill="#63b8ff" stroke="#63b8ff" points="200.37,-32.22 208.31,-25.21 197.73,-25.74 200.37,-32.22"/>
</a>
</g>
</g>
<!-- Node2&#45;&gt;Node3 -->
<g id="edge2_Node000002_Node000003" class="edge">
<title>Node2&#45;&gt;Node3</title>
<g id="a_edge2_Node000002_Node000003"><a xlink:title=" ">
<path fill="none" stroke="#63b8ff" d="M359.77,-378.36C386.22,-377.14 415.21,-375.8 439.74,-374.67"/>
<polygon fill="#63b8ff" stroke="#63b8ff" points="440.13,-378.15 449.96,-374.2 439.81,-371.16 440.13,-378.15"/>
</a>
</g>
</g>
<!-- Node2&#45;&gt;Node4 -->
<g id="edge3_Node000002_Node000004" class="edge">
<title>Node2&#45;&gt;Node4</title>
<g id="a_edge3_Node000002_Node000004"><a xlink:title=" ">
<path fill="none" stroke="#63b8ff" d="M323.25,-372.47C340.35,-368.38 360.21,-363.31 378,-358 406.95,-349.35 439.24,-337.89 462.95,-329.13"/>
<polygon fill="#63b8ff" stroke="#63b8ff" points="464.4,-332.32 472.55,-325.55 461.96,-325.76 464.4,-332.32"/>
</a>
</g>
</g>
<!-- Node5 -->
<g id="Node000005" class="node">
<title>Node5</title>
<g id="a_Node000005"><a xlink:href="classLogger.html#a19f9ef22095a67c9fe420c9d6e761fc2" target="_top" xlink:title="Converts a LogLevel enum value to its string label.">
<polygon fill="white" stroke="#666666" points="738,-325.5 619,-325.5 619,-306.5 738,-306.5 738,-325.5"/>
<text text-anchor="middle" x="678.5" y="-313.5" font-family="Helvetica,sans-Serif" font-size="10.00">Logger::levelToString</text>
</a>
</g>
</g>
<!-- Node4&#45;&gt;Node5 -->
<g id="edge4_Node000004_Node000005" class="edge">
<title>Node4&#45;&gt;Node5</title>
<g id="a_edge4_Node000004_Node000005"><a xlink:title=" ">
<path fill="none" stroke="#63b8ff" d="M534.24,-316C555.32,-316 582.96,-316 608.33,-316"/>
<polygon fill="#63b8ff" stroke="#63b8ff" points="608.66,-319.5 618.66,-316 608.66,-312.5 608.66,-319.5"/>
</a>
</g>
</g>
<!-- Node10&#45;&gt;Node3 -->
<g id="edge12_Node000010_Node000003" class="edge">
<title>Node10&#45;&gt;Node3</title>
<g id="a_edge12_Node000010_Node000003"><a xlink:title=" ">
<path fill="none" stroke="#63b8ff" d="M312.48,-315.6C350.59,-327.21 414.85,-346.8 456.72,-359.57"/>
<polygon fill="#63b8ff" stroke="#63b8ff" points="455.75,-362.93 466.33,-362.5 457.79,-356.23 455.75,-362.93"/>
</a>
</g>
</g>
<!-- Node10&#45;&gt;Node4 -->
<g id="edge13_Node000010_Node000004" class="edge">
<title>Node10&#45;&gt;Node4</title>
<g id="a_edge13_Node000010_Node000004"><a xlink:title=" ">
<path fill="none" stroke="#63b8ff" d="M378.17,-310.49C404.15,-311.69 431,-312.93 452.63,-313.93"/>
<polygon fill="#63b8ff" stroke="#63b8ff" points="452.66,-317.43 462.81,-314.4 452.98,-310.44 452.66,-317.43"/>
</a>
</g>
</g>
<!-- Node10&#45;&gt;Node11 -->
<g id="edge14_Node000010_Node000011" class="edge">
<title>Node10&#45;&gt;Node11</title>
<g id="a_edge14_Node000010_Node000011"><a xlink:title=" ">
<path fill="none" stroke="#63b8ff" d="M335.35,-296.46C374.51,-289.59 426.31,-280.49 460.71,-274.46"/>
<polygon fill="#63b8ff" stroke="#63b8ff" points="461.55,-277.86 470.79,-272.69 460.34,-270.97 461.55,-277.86"/>
</a>
</g>
</g>
<!-- Node12&#45;&gt;Node3 -->
<g id="edge18_Node000012_Node000003" class="edge">
<title>Node12&#45;&gt;Node3</title>
<g id="a_edge18_Node000012_Node000003"><a xlink:title=" ">
<path fill="none" stroke="#63b8ff" d="M301.8,-239.54C322.53,-249.68 354.56,-267.11 378,-288 397.64,-305.51 393.33,-318.72 414,-335 426.65,-344.96 442.41,-352.85 456.81,-358.73"/>
<polygon fill="#63b8ff" stroke="#63b8ff" points="455.92,-362.14 466.51,-362.48 458.45,-355.61 455.92,-362.14"/>
</a>
</g>
</g>
<!-- Node12&#45;&gt;Node4 -->
<g id="edge19_Node000012_Node000004" class="edge">
<title>Node12&#45;&gt;Node4</title>
<g id="a_edge19_Node000012_Node000004"><a xlink:title=" ">
<path fill="none" stroke="#63b8ff" d="M302,-239.55C328.06,-251.26 373.94,-271.48 414,-287 428.39,-292.58 444.37,-298.25 458.46,-303.08"/>
<polygon fill="#63b8ff" stroke="#63b8ff" points="457.74,-306.53 468.33,-306.43 459.99,-299.9 457.74,-306.53"/>
</a>
</g>
</g>
<!-- Node12&#45;&gt;Node6 -->
<g id="edge16_Node000012_Node000006" class="edge">
<title>Node12&#45;&gt;Node6</title>
<g id="a_edge16_Node000012_Node000006"><a xlink:title=" ">
<path fill="none" stroke="#63b8ff" d="M356.11,-224.45C377,-222.91 399.71,-221.23 420.69,-219.68"/>
<polygon fill="#63b8ff" stroke="#63b8ff" points="421.12,-223.15 430.84,-218.93 420.6,-216.17 421.12,-223.15"/>
</a>
</g>
</g>
<!-- Node12&#45;&gt;Node8 -->
<g id="edge17_Node000012_Node000008" class="edge">
<title>Node12&#45;&gt;Node8</title>
<g id="a_edge17_Node000012_Node000008"><a xlink:title=" ">
<path fill="none" stroke="#63b8ff" d="M312.02,-220.4C345.14,-210.15 398.39,-193.67 439.36,-180.99"/>
<polygon fill="#63b8ff" stroke="#63b8ff" points="440.44,-184.32 448.96,-178.02 438.37,-177.63 440.44,-184.32"/>
</a>
</g>
</g>
<!-- Node12&#45;&gt;Node11 -->
<g id="edge20_Node000012_Node000011" class="edge">
<title>Node12&#45;&gt;Node11</title>
<g id="a_edge20_Node000012_Node000011"><a xlink:title=" ">
<path fill="none" stroke="#63b8ff" d="M335.35,-239.54C374.51,-246.41 426.31,-255.51 460.71,-261.54"/>
<polygon fill="#63b8ff" stroke="#63b8ff" points="460.34,-265.03 470.79,-263.31 461.55,-258.14 460.34,-265.03"/>
</a>
</g>
</g>
</g>
</svg>
