<?xml version="1.0" encoding="UTF-8" standalone="no"?>
<!DOCTYPE svg PUBLIC "-//W3C//DTD SVG 1.1//EN"
 "http://www.w3.org/Graphics/SVG/1.1/DTD/svg11.dtd">
<!-- Generated by graphviz version 2.43.0 (0)
 -->
<!-- Title: RequestParse::headers Pages: 1 -->
<svg width="506pt" height="550pt"
 viewBox="0.00 0.00 506.00 550.00" xmlns="http://www.w3.org/2000/svg" xmlns:xlink="http://www.w3.org/1999/xlink">
<g id="graph0" class="graph" transform="scale(1 1) rotate(0) translate(4 546)">
<title>RequestParse::headers</title>
<!-- Node1 -->
<g id="Node000001" class="node">
<title>Node1</title>
<g id="a_Node000001"><a xlink:title="Parses individual HTTP header lines and updates metadata.">
<polygon fill="#999999" stroke="#666666" points="128,-280 0,-280 0,-261 128,-261 128,-280"/>
<text text-anchor="middle" x="64" y="-268" font-family="Helvetica,sans-Serif" font-size="10.00">RequestParse::headers</text>
</a>
</g>
</g>
<!-- Node2 -->
<g id="Node000002" class="node">
<title>Node2</title>
<g id="a_Node000002"><a xlink:href="classHttpRequest.html#a3451bf0bde2a98a5599e710639f1cd98" target="_top" xlink:title="Adds or appends a header field to the internal map.">
<polygon fill="white" stroke="#666666" points="322,-542 185,-542 185,-523 322,-523 322,-542"/>
<text text-anchor="middle" x="253.5" y="-530" font-family="Helvetica,sans-Serif" font-size="10.00">HttpRequest::addHeader</text>
</a>
</g>
</g>
<!-- Node1&#45;&gt;Node2 -->
<g id="edge1_Node000001_Node000002" class="edge">
<title>Node1&#45;&gt;Node2</title>
<g id="a_edge1_Node000001_Node000002"><a xlink:title=" ">
<path fill="none" stroke="#63b8ff" d="M65.76,-280.06C69.2,-316.84 86.8,-450.39 164,-514.5 167.56,-517.45 171.47,-519.97 175.6,-522.1"/>
<polygon fill="#63b8ff" stroke="#63b8ff" points="174.41,-525.39 184.97,-526.19 177.21,-518.98 174.41,-525.39"/>
</a>
</g>
</g>
<!-- Node3 -->
<g id="Node000003" class="node">
<title>Node3</title>
<g id="a_Node000003"><a xlink:href="classHttpRequest.html#afee0e84f22f6d1226023d40f4a75c17a" target="_top" xlink:title="Returns a const reference to the RequestMeta structure.">
<polygon fill="white" stroke="#666666" points="315.5,-505 191.5,-505 191.5,-486 315.5,-486 315.5,-505"/>
<text text-anchor="middle" x="253.5" y="-493" font-family="Helvetica,sans-Serif" font-size="10.00">HttpRequest::getMeta</text>
</a>
</g>
</g>
<!-- Node1&#45;&gt;Node3 -->
<g id="edge2_Node000001_Node000003" class="edge">
<title>Node1&#45;&gt;Node3</title>
<g id="a_edge2_Node000001_Node000003"><a xlink:title=" ">
<path fill="none" stroke="#63b8ff" d="M66.53,-280.2C72.32,-313.59 96.17,-424.56 164,-477.5 169.32,-481.65 175.34,-484.91 181.69,-487.47"/>
<polygon fill="#63b8ff" stroke="#63b8ff" points="180.58,-490.79 191.18,-490.73 182.86,-484.17 180.58,-490.79"/>
</a>
</g>
</g>
<!-- Node4 -->
<g id="Node000004" class="node">
<title>Node4</title>
<g id="a_Node000004"><a xlink:href="classLogger.html#a4aa4d7c3b98f6e12e7ea8253da5ea0cd" target="_top" xlink:title="Returns the singleton instance of the Logger.">
<polygon fill="white" stroke="#666666" points="302,-468 205,-468 205,-449 302,-449 302,-468"/>
<text text-anchor="middle" x="253.5" y="-456" font-family="Helvetica,sans-Serif" font-size="10.00">Logger::instance</text>
</a>
</g>
</g>
<!-- Node1&#45;&gt;Node4 -->
<g id="edge3_Node000001_Node000004" class="edge">
<title>Node1&#45;&gt;Node4</title>
<g id="a_edge3_Node000001_Node000004"><a xlink:title=" ">
<path fill="none" stroke="#63b8ff" d="M67.59,-280.02C76.03,-309.08 105.59,-397.25 164,-439.5 173.07,-446.06 183.94,-450.44 194.9,-453.34"/>
<polygon fill="#63b8ff" stroke="#63b8ff" points="194.43,-456.82 204.96,-455.62 195.97,-450 194.43,-456.82"/>
</a>
</g>
</g>
<!-- Node5 -->
<g id="Node000005" class="node">
<title>Node5</title>
<g id="a_Node000005"><a xlink:href="classRequestParse.html#a41fb8fd94bdb7ca3d28f6578d803377d" target="_top" xlink:title="Compares body size against maximum allowed by server configuration.">
<polygon fill="white" stroke="#666666" points="332.5,-430.5 174.5,-430.5 174.5,-400.5 332.5,-400.5 332.5,-430.5"/>
<text text-anchor="start" x="182.5" y="-418.5" font-family="Helvetica,sans-Serif" font-size="10.00">RequestParse::isGreaterThan</text>
<text text-anchor="middle" x="253.5" y="-407.5" font-family="Helvetica,sans-Serif" font-size="10.00">MaxBodySize</text>
</a>
</g>
</g>
<!-- Node1&#45;&gt;Node5 -->
<g id="edge4_Node000001_Node000005" class="edge">
<title>Node1&#45;&gt;Node5</title>
<g id="a_edge4_Node000001_Node000005"><a xlink:title=" ">
<path fill="none" stroke="#63b8ff" d="M70.03,-280.06C82.6,-303.01 117.76,-361.54 164,-391.5 166.59,-393.18 169.29,-394.74 172.08,-396.19"/>
<polygon fill="#63b8ff" stroke="#63b8ff" points="170.68,-399.4 181.22,-400.47 173.65,-393.06 170.68,-399.4"/>
</a>
</g>
</g>
<!-- Node6 -->
<g id="Node000006" class="node">
<title>Node6</title>
<g id="a_Node000006"><a xlink:href="classLogger.html#a3d3f0801eeaf39b33a906ea8569c19b2" target="_top" xlink:title="Writes a log entry with timestamp, level, and message.">
<polygon fill="white" stroke="#666666" points="289,-382 218,-382 218,-363 289,-363 289,-382"/>
<text text-anchor="middle" x="253.5" y="-370" font-family="Helvetica,sans-Serif" font-size="10.00">Logger::log</text>
</a>
</g>
</g>
<!-- Node1&#45;&gt;Node6 -->
<g id="edge5_Node000001_Node000006" class="edge">
<title>Node1&#45;&gt;Node6</title>
<g id="a_edge5_Node000001_Node000006"><a xlink:title=" ">
<path fill="none" stroke="#63b8ff" d="M73.17,-280.08C88.85,-297.8 125.07,-335.59 164,-354.5 177.39,-361 193.02,-365.16 207.39,-367.81"/>
<polygon fill="#63b8ff" stroke="#63b8ff" points="207.15,-371.32 217.58,-369.49 208.29,-364.41 207.15,-371.32"/>
</a>
</g>
</g>
<!-- Node8 -->
<g id="Node000008" class="node">
<title>Node8</title>
<g id="a_Node000008"><a xlink:href="classRequestMeta.html#a360c94feb081bd7436c055c9f7ed1715" target="_top" xlink:title="Defines whether the request uses chunked transfer encoding.">
<polygon fill="white" stroke="#666666" points="325.5,-345 181.5,-345 181.5,-326 325.5,-326 325.5,-345"/>
<text text-anchor="middle" x="253.5" y="-333" font-family="Helvetica,sans-Serif" font-size="10.00">RequestMeta::setChunked</text>
</a>
</g>
</g>
<!-- Node1&#45;&gt;Node8 -->
<g id="edge7_Node000001_Node000008" class="edge">
<title>Node1&#45;&gt;Node8</title>
<g id="a_edge7_Node000001_Node000008"><a xlink:title=" ">
<path fill="none" stroke="#63b8ff" d="M82.39,-280.04C101.79,-290.33 134.35,-306.57 164,-316.5 171.93,-319.15 180.38,-321.53 188.8,-323.62"/>
<polygon fill="#63b8ff" stroke="#63b8ff" points="188.09,-327.05 198.63,-325.95 189.7,-320.24 188.09,-327.05"/>
</a>
</g>
</g>
<!-- Node9 -->
<g id="Node000009" class="node">
<title>Node9</title>
<g id="a_Node000009"><a xlink:href="classRequestMeta.html#ad4f70f6ac25a37bd22eead55abc63a88" target="_top" xlink:title="Defines whether the connection should be closed after the response.">
<polygon fill="white" stroke="#666666" points="332,-307.5 175,-307.5 175,-277.5 332,-277.5 332,-307.5"/>
<text text-anchor="start" x="183" y="-295.5" font-family="Helvetica,sans-Serif" font-size="10.00">RequestMeta::setConnection</text>
<text text-anchor="middle" x="253.5" y="-284.5" font-family="Helvetica,sans-Serif" font-size="10.00">Close</text>
</a>
</g>
</g>
<!-- Node1&#45;&gt;Node9 -->
<g id="edge8_Node000001_Node000009" class="edge">
<title>Node1&#45;&gt;Node9</title>
<g id="a_edge8_Node000001_Node000009"><a xlink:title=" ">
<path fill="none" stroke="#63b8ff" d="M128.22,-277.92C139.93,-279.29 152.35,-280.75 164.64,-282.19"/>
<polygon fill="#63b8ff" stroke="#63b8ff" points="164.58,-285.71 174.92,-283.4 165.39,-278.76 164.58,-285.71"/>
</a>
</g>
</g>
<!-- Node10 -->
<g id="Node000010" class="node">
<title>Node10</title>
<g id="a_Node000010"><a xlink:href="classRequestMeta.html#a7384f594ae41f8f0151e8875a663f795" target="_top" xlink:title="Sets the Content&#45;Length value for the request.">
<polygon fill="white" stroke="#666666" points="340,-259 167,-259 167,-240 340,-240 340,-259"/>
<text text-anchor="middle" x="253.5" y="-247" font-family="Helvetica,sans-Serif" font-size="10.00">RequestMeta::setContentLength</text>
</a>
</g>
</g>
<!-- Node1&#45;&gt;Node10 -->
<g id="edge9_Node000001_Node000010" class="edge">
<title>Node1&#45;&gt;Node10</title>
<g id="a_edge9_Node000001_Node000010"><a xlink:title=" ">
<path fill="none" stroke="#63b8ff" d="M128.22,-263.42C137.71,-262.36 147.66,-261.24 157.64,-260.12"/>
<polygon fill="#63b8ff" stroke="#63b8ff" points="158.05,-263.6 167.6,-259.01 157.27,-256.64 158.05,-263.6"/>
</a>
</g>
</g>
<!-- Node11 -->
<g id="Node000011" class="node">
<title>Node11</title>
<g id="a_Node000011"><a xlink:href="classRequestMeta.html#a023589236b86199328fac468381d4686" target="_top" xlink:title="Sets the Expect: 100&#45;continue flag for the request.">
<polygon fill="white" stroke="#666666" points="343,-222 164,-222 164,-203 343,-203 343,-222"/>
<text text-anchor="middle" x="253.5" y="-210" font-family="Helvetica,sans-Serif" font-size="10.00">RequestMeta::setExpectContinue</text>
</a>
</g>
</g>
<!-- Node1&#45;&gt;Node11 -->
<g id="edge10_Node000001_Node000011" class="edge">
<title>Node1&#45;&gt;Node11</title>
<g id="a_edge10_Node000001_Node000011"><a xlink:title=" ">
<path fill="none" stroke="#63b8ff" d="M86.27,-260.95C106.08,-252.33 136.59,-239.78 164,-231.5 172.73,-228.86 182.04,-226.45 191.24,-224.28"/>
<polygon fill="#63b8ff" stroke="#63b8ff" points="192.15,-227.67 201.13,-222.04 190.6,-220.84 192.15,-227.67"/>
</a>
</g>
</g>
<!-- Node12 -->
<g id="Node000012" class="node">
<title>Node12</title>
<g id="a_Node000012"><a xlink:href="classRequestMeta.html#a3d73559654d623e960e0c68a6cb476f6" target="_top" xlink:title="Stores the value of the Host header for this request.">
<polygon fill="white" stroke="#666666" points="316,-185 191,-185 191,-166 316,-166 316,-185"/>
<text text-anchor="middle" x="253.5" y="-173" font-family="Helvetica,sans-Serif" font-size="10.00">RequestMeta::setHost</text>
</a>
</g>
</g>
<!-- Node1&#45;&gt;Node12 -->
<g id="edge11_Node000001_Node000012" class="edge">
<title>Node1&#45;&gt;Node12</title>
<g id="a_edge11_Node000001_Node000012"><a xlink:title=" ">
<path fill="none" stroke="#63b8ff" d="M74.42,-260.88C90.97,-244.57 127.03,-211.6 164,-194.5 169.39,-192.01 175.12,-189.84 180.97,-187.95"/>
<polygon fill="#63b8ff" stroke="#63b8ff" points="182.28,-191.21 190.89,-185.02 180.3,-184.49 182.28,-191.21"/>
</a>
</g>
</g>
<!-- Node13 -->
<g id="Node000013" class="node">
<title>Node13</title>
<g id="a_Node000013"><a xlink:href="classHttpRequest.html#a4af8abc5368c893ba9bb24939cb95aa3" target="_top" xlink:title=" ">
<polygon fill="white" stroke="#666666" points="327.5,-148 179.5,-148 179.5,-129 327.5,-129 327.5,-148"/>
<text text-anchor="middle" x="253.5" y="-136" font-family="Helvetica,sans-Serif" font-size="10.00">HttpRequest::setParseError</text>
</a>
</g>
</g>
<!-- Node1&#45;&gt;Node13 -->
<g id="edge12_Node000001_Node000013" class="edge">
<title>Node1&#45;&gt;Node13</title>
<g id="a_edge12_Node000001_Node000013"><a xlink:title=" ">
<path fill="none" stroke="#63b8ff" d="M70.49,-260.77C83.55,-238.58 118.8,-184.07 164,-157.5 167.84,-155.24 171.91,-153.25 176.12,-151.5"/>
<polygon fill="#63b8ff" stroke="#63b8ff" points="177.34,-154.78 185.51,-148.02 174.91,-148.21 177.34,-154.78"/>
</a>
</g>
</g>
<!-- Node14 -->
<g id="Node000014" class="node">
<title>Node14</title>
<g id="a_Node000014"><a xlink:href="classHttpRequest.html#a15c0dff5d8350a2c71306638d30d5fe3" target="_top" xlink:title=" ">
<polygon fill="white" stroke="#666666" points="335.5,-111 171.5,-111 171.5,-92 335.5,-92 335.5,-111"/>
<text text-anchor="middle" x="253.5" y="-99" font-family="Helvetica,sans-Serif" font-size="10.00">HttpRequest::setRequestState</text>
</a>
</g>
</g>
<!-- Node1&#45;&gt;Node14 -->
<g id="edge13_Node000001_Node000014" class="edge">
<title>Node1&#45;&gt;Node14</title>
<g id="a_edge13_Node000001_Node000014"><a xlink:title=" ">
<path fill="none" stroke="#63b8ff" d="M68.34,-260.91C78.24,-233.99 110.16,-157.29 164,-120.5 166.88,-118.53 169.92,-116.77 173.08,-115.18"/>
<polygon fill="#63b8ff" stroke="#63b8ff" points="174.49,-118.38 182.24,-111.15 171.68,-111.97 174.49,-118.38"/>
</a>
</g>
</g>
<!-- Node15 -->
<g id="Node000015" class="node">
<title>Node15</title>
<g id="a_Node000015"><a xlink:href="string__utils_8hpp.html#a96432d89bc886bc9cdd1d73f86b2bbca" target="_top" xlink:title="Converts a string to lowercase.">
<polygon fill="white" stroke="#666666" points="281.5,-74 225.5,-74 225.5,-55 281.5,-55 281.5,-74"/>
<text text-anchor="middle" x="253.5" y="-62" font-family="Helvetica,sans-Serif" font-size="10.00">toLower</text>
</a>
</g>
</g>
<!-- Node1&#45;&gt;Node15 -->
<g id="edge14_Node000001_Node000015" class="edge">
<title>Node1&#45;&gt;Node15</title>
<g id="a_edge14_Node000001_Node000015"><a xlink:title=" ">
<path fill="none" stroke="#63b8ff" d="M67.06,-260.88C74.25,-229.74 101.31,-130.93 164,-83.5 178.53,-72.51 198.05,-67.57 215.06,-65.47"/>
<polygon fill="#63b8ff" stroke="#63b8ff" points="215.64,-68.93 225.26,-64.49 214.97,-61.96 215.64,-68.93"/>
</a>
</g>
</g>
<!-- Node16 -->
<g id="Node000016" class="node">
<title>Node16</title>
<g id="a_Node000016"><a xlink:href="string__utils_8hpp.html#a5a01f705cc7b4a7317a57f6bf41aef25" target="_top" xlink:title="Removes leading and trailing whitespace characters from a string.">
<polygon fill="white" stroke="#666666" points="272,-37 235,-37 235,-18 272,-18 272,-37"/>
<text text-anchor="middle" x="253.5" y="-25" font-family="Helvetica,sans-Serif" font-size="10.00">trim</text>
</a>
</g>
</g>
<!-- Node1&#45;&gt;Node16 -->
<g id="edge15_Node000001_Node000016" class="edge">
<title>Node1&#45;&gt;Node16</title>
<g id="a_edge15_Node000001_Node000016"><a xlink:title=" ">
<path fill="none" stroke="#63b8ff" d="M66.11,-260.96C70.71,-225.99 91.57,-103.89 164,-45.5 181.02,-31.78 205.75,-27.67 224.74,-26.76"/>
<polygon fill="#63b8ff" stroke="#63b8ff" points="224.96,-30.26 234.89,-26.55 224.82,-23.26 224.96,-30.26"/>
</a>
</g>
</g>
<!-- Node7 -->
<g id="Node000007" class="node">
<title>Node7</title>
<g id="a_Node000007"><a xlink:href="classLogger.html#a19f9ef22095a67c9fe420c9d6e761fc2" target="_top" xlink:title="Converts a LogLevel enum value to its string label.">
<polygon fill="white" stroke="#666666" points="498,-382 379,-382 379,-363 498,-363 498,-382"/>
<text text-anchor="middle" x="438.5" y="-370" font-family="Helvetica,sans-Serif" font-size="10.00">Logger::levelToString</text>
</a>
</g>
</g>
<!-- Node6&#45;&gt;Node7 -->
<g id="edge6_Node000006_Node000007" class="edge">
<title>Node6&#45;&gt;Node7</title>
<g id="a_edge6_Node000006_Node000007"><a xlink:title=" ">
<path fill="none" stroke="#63b8ff" d="M289.35,-372.5C311.7,-372.5 341.47,-372.5 368.47,-372.5"/>
<polygon fill="#63b8ff" stroke="#63b8ff" points="368.66,-376 378.66,-372.5 368.66,-369 368.66,-376"/>
</a>
</g>
</g>
<!-- Node17 -->
<g id="Node000017" class="node">
<title>Node17</title>
<g id="a_Node000017"><a xlink:href="string__utils_8hpp.html#aaead76ef6abc119bc66f6ecdedfcb295" target="_top" xlink:title="Removes leading whitespace characters from a string.">
<polygon fill="white" stroke="#666666" points="459,-56 418,-56 418,-37 459,-37 459,-56"/>
<text text-anchor="middle" x="438.5" y="-44" font-family="Helvetica,sans-Serif" font-size="10.00">lTrim</text>
</a>
</g>
</g>
<!-- Node16&#45;&gt;Node17 -->
<g id="edge16_Node000016_Node000017" class="edge">
<title>Node16&#45;&gt;Node17</title>
<g id="a_edge16_Node000016_Node000017"><a xlink:title=" ">
<path fill="none" stroke="#63b8ff" d="M272.05,-29.32C303.37,-32.57 369.21,-39.41 407.72,-43.41"/>
<polygon fill="#63b8ff" stroke="#63b8ff" points="407.5,-46.9 417.81,-44.46 408.22,-39.94 407.5,-46.9"/>
</a>
</g>
</g>
<!-- Node18 -->
<g id="Node000018" class="node">
<title>Node18</title>
<g id="a_Node000018"><a xlink:href="string__utils_8hpp.html#adde35d1801d4d11cacb9a39124e8e96b" target="_top" xlink:title="Removes trailing whitespace characters from a string.">
<polygon fill="white" stroke="#666666" points="459,-19 418,-19 418,0 459,0 459,-19"/>
<text text-anchor="middle" x="438.5" y="-7" font-family="Helvetica,sans-Serif" font-size="10.00">rTrim</text>
</a>
</g>
</g>
<!-- Node16&#45;&gt;Node18 -->
<g id="edge17_Node000016_Node000018" class="edge">
<title>Node16&#45;&gt;Node18</title>
<g id="a_edge17_Node000016_Node000018"><a xlink:title=" ">
<path fill="none" stroke="#63b8ff" d="M272.05,-25.77C303.37,-22.69 369.21,-16.22 407.72,-12.43"/>
<polygon fill="#63b8ff" stroke="#63b8ff" points="408.2,-15.9 417.81,-11.44 407.51,-8.93 408.2,-15.9"/>
</a>
</g>
</g>
</g>
</svg>
