<?xml version="1.0" encoding="UTF-8" standalone="no"?>
<!DOCTYPE svg PUBLIC "-//W3C//DTD SVG 1.1//EN"
 "http://www.w3.org/Graphics/SVG/1.1/DTD/svg11.dtd">
<!-- Generated by graphviz version 2.43.0 (0)
 -->
<!-- Title: HttpResponse::setVersion Pages: 1 -->
<svg width="990pt" height="141pt"
 viewBox="0.00 0.00 990.00 141.00" xmlns="http://www.w3.org/2000/svg" xmlns:xlink="http://www.w3.org/1999/xlink">
<g id="graph0" class="graph" transform="scale(1 1) rotate(0) translate(4 137)">
<title>HttpResponse::setVersion</title>
<!-- Node1 -->
<g id="Node000001" class="node">
<title>Node1</title>
<g id="a_Node000001"><a xlink:title="Defines the HTTP version string (e.g., &quot;1.1&quot;).">
<polygon fill="#999999" stroke="#666666" points="982,-57 840,-57 840,-38 982,-38 982,-57"/>
<text text-anchor="middle" x="911" y="-45" font-family="Helvetica,sans-Serif" font-size="10.00">HttpResponse::setVersion</text>
</a>
</g>
</g>
<!-- Node2 -->
<g id="Node000002" class="node">
<title>Node2</title>
<g id="a_Node000002"><a xlink:href="classResponseBuilder.html#afd79929bb501be85bdc85d86fdce93e9" target="_top" xlink:title="Assembles the complete HTTP response, including error handling.">
<polygon fill="white" stroke="#666666" points="788.5,-76 660.5,-76 660.5,-57 788.5,-57 788.5,-76"/>
<text text-anchor="middle" x="724.5" y="-64" font-family="Helvetica,sans-Serif" font-size="10.00">ResponseBuilder::build</text>
</a>
</g>
</g>
<!-- Node1&#45;&gt;Node2 -->
<g id="edge1_Node000001_Node000002" class="edge">
<title>Node1&#45;&gt;Node2</title>
<g id="a_edge1_Node000001_Node000002"><a xlink:title=" ">
<path fill="none" stroke="#63b8ff" d="M829.97,-55.74C816.09,-57.17 801.84,-58.64 788.5,-60.01"/>
<polygon fill="#63b8ff" stroke="#63b8ff" points="830.4,-59.22 839.99,-54.71 829.68,-52.25 830.4,-59.22"/>
</a>
</g>
</g>
<!-- Node9 -->
<g id="Node000009" class="node">
<title>Node9</title>
<g id="a_Node000009"><a xlink:href="classHttpResponse.html#ab2e6cd363b5ea437643017766f882066" target="_top" xlink:title="Default constructor for HttpResponse.">
<polygon fill="white" stroke="#666666" points="804,-39 645,-39 645,-20 804,-20 804,-39"/>
<text text-anchor="middle" x="724.5" y="-27" font-family="Helvetica,sans-Serif" font-size="10.00">HttpResponse::HttpResponse</text>
</a>
</g>
</g>
<!-- Node1&#45;&gt;Node9 -->
<g id="edge11_Node000001_Node000009" class="edge">
<title>Node1&#45;&gt;Node9</title>
<g id="a_edge11_Node000001_Node000009"><a xlink:title=" ">
<path fill="none" stroke="#63b8ff" d="M829.99,-39.69C821.41,-38.86 812.68,-38.01 804.11,-37.17"/>
<polygon fill="#63b8ff" stroke="#63b8ff" points="829.69,-43.18 839.99,-40.67 830.37,-36.21 829.69,-43.18"/>
</a>
</g>
</g>
<!-- Node3 -->
<g id="Node000003" class="node">
<title>Node3</title>
<g id="a_Node000003"><a xlink:href="classDispatcher.html#a13c8a2fd90033adf9788c8774c3f0f47" target="_top" xlink:title="Central dispatch routine that delegates HTTP requests to the appropriate handler.">
<polygon fill="white" stroke="#666666" points="583,-133 467,-133 467,-114 583,-114 583,-133"/>
<text text-anchor="middle" x="525" y="-121" font-family="Helvetica,sans-Serif" font-size="10.00">Dispatcher::dispatch</text>
</a>
</g>
</g>
<!-- Node2&#45;&gt;Node3 -->
<g id="edge2_Node000002_Node000003" class="edge">
<title>Node2&#45;&gt;Node3</title>
<g id="a_edge2_Node000002_Node000003"><a xlink:title=" ">
<path fill="none" stroke="#63b8ff" d="M680.59,-78.88C644.12,-89.41 592.53,-104.3 559.16,-113.93"/>
<polygon fill="#63b8ff" stroke="#63b8ff" points="681.81,-82.18 690.44,-76.04 679.86,-75.45 681.81,-82.18"/>
</a>
</g>
</g>
<!-- Node5 -->
<g id="Node000005" class="node">
<title>Node5</title>
<g id="a_Node000005"><a xlink:href="classWebServer.html#af39709e3744077e019aa76555f03a42e" target="_top" xlink:title="Main event loop — monitors sockets, dispatches requests, and handles responses.">
<polygon fill="white" stroke="#666666" points="199,-76 77,-76 77,-57 199,-57 199,-76"/>
<text text-anchor="middle" x="138" y="-64" font-family="Helvetica,sans-Serif" font-size="10.00">WebServer::runServer</text>
</a>
</g>
</g>
<!-- Node2&#45;&gt;Node5 -->
<g id="edge8_Node000002_Node000005" class="edge">
<title>Node2&#45;&gt;Node5</title>
<g id="a_edge8_Node000002_Node000005"><a xlink:title=" ">
<path fill="none" stroke="#63b8ff" d="M649.93,-69.45C636.32,-69.89 622.23,-70.27 609,-70.5 461.73,-73.07 288.48,-70.03 199.1,-68.01"/>
<polygon fill="#63b8ff" stroke="#63b8ff" points="650.34,-72.94 660.22,-69.11 650.11,-65.94 650.34,-72.94"/>
</a>
</g>
</g>
<!-- Node7 -->
<g id="Node000007" class="node">
<title>Node7</title>
<g id="a_Node000007"><a xlink:href="classWebServer.html#a7667bc8a87db8f9987a5e80da9c4cd37" target="_top" xlink:title="Reads CGI process output and assembles it into the client buffer.">
<polygon fill="white" stroke="#666666" points="405,-57 235,-57 235,-38 405,-38 405,-57"/>
<text text-anchor="middle" x="320" y="-45" font-family="Helvetica,sans-Serif" font-size="10.00">WebServer::handleCgiReadable</text>
</a>
</g>
</g>
<!-- Node2&#45;&gt;Node7 -->
<g id="edge6_Node000002_Node000007" class="edge">
<title>Node2&#45;&gt;Node7</title>
<g id="a_edge6_Node000002_Node000007"><a xlink:title=" ">
<path fill="none" stroke="#63b8ff" d="M649.81,-63.02C580.76,-59.76 477.61,-54.89 405.31,-51.48"/>
<polygon fill="#63b8ff" stroke="#63b8ff" points="650.01,-66.53 660.17,-63.51 650.34,-59.54 650.01,-66.53"/>
</a>
</g>
</g>
<!-- Node8 -->
<g id="Node000008" class="node">
<title>Node8</title>
<g id="a_Node000008"><a xlink:href="classWebServer.html#a32042bb7e426cf5c53c2c2860d622342" target="_top" xlink:title="Scans active CGI processes and terminates those exceeding timeout.">
<polygon fill="white" stroke="#666666" points="609,-19 441,-19 441,0 609,0 609,-19"/>
<text text-anchor="middle" x="525" y="-7" font-family="Helvetica,sans-Serif" font-size="10.00">WebServer::sweepCgiTimeouts</text>
</a>
</g>
</g>
<!-- Node2&#45;&gt;Node8 -->
<g id="edge9_Node000002_Node000008" class="edge">
<title>Node2&#45;&gt;Node8</title>
<g id="a_edge9_Node000002_Node000008"><a xlink:title=" ">
<path fill="none" stroke="#63b8ff" d="M666.12,-54.53C658.96,-52.69 651.77,-50.67 645,-48.5 628.49,-43.21 625.35,-39.25 609,-33.5 593.86,-28.18 576.87,-23.11 562.23,-19.02"/>
<polygon fill="#63b8ff" stroke="#63b8ff" points="665.28,-57.93 675.83,-56.93 666.96,-51.13 665.28,-57.93"/>
</a>
</g>
</g>
<!-- Node4 -->
<g id="Node000004" class="node">
<title>Node4</title>
<g id="a_Node000004"><a xlink:href="classWebServer.html#a8cbf37c0a840305ce15e8648566c9ce4" target="_top" xlink:title="Handles incoming data from a connected client.">
<polygon fill="white" stroke="#666666" points="395.5,-133 244.5,-133 244.5,-114 395.5,-114 395.5,-133"/>
<text text-anchor="middle" x="320" y="-121" font-family="Helvetica,sans-Serif" font-size="10.00">WebServer::receiveRequest</text>
</a>
</g>
</g>
<!-- Node3&#45;&gt;Node4 -->
<g id="edge3_Node000003_Node000004" class="edge">
<title>Node3&#45;&gt;Node4</title>
<g id="a_edge3_Node000003_Node000004"><a xlink:title=" ">
<path fill="none" stroke="#63b8ff" d="M456.88,-123.5C437.33,-123.5 415.85,-123.5 395.86,-123.5"/>
<polygon fill="#63b8ff" stroke="#63b8ff" points="456.91,-127 466.91,-123.5 456.91,-120 456.91,-127"/>
</a>
</g>
</g>
<!-- Node4&#45;&gt;Node5 -->
<g id="edge4_Node000004_Node000005" class="edge">
<title>Node4&#45;&gt;Node5</title>
<g id="a_edge4_Node000004_Node000005"><a xlink:title=" ">
<path fill="none" stroke="#63b8ff" d="M274.22,-111.18C261.51,-107.55 247.67,-103.49 235,-99.5 211.46,-92.1 184.96,-82.92 165.77,-76.13"/>
<polygon fill="#63b8ff" stroke="#63b8ff" points="273.56,-114.63 284.14,-113.98 275.47,-107.89 273.56,-114.63"/>
</a>
</g>
</g>
<!-- Node6 -->
<g id="Node000006" class="node">
<title>Node6</title>
<g id="a_Node000006"><a xlink:href="main_8cpp.html#a3c04138a5bfe5d72780bb7e82a18e627" target="_top" xlink:title="Entry point of the Webservinho web server.">
<polygon fill="white" stroke="#666666" points="41,-76 0,-76 0,-57 41,-57 41,-76"/>
<text text-anchor="middle" x="20.5" y="-64" font-family="Helvetica,sans-Serif" font-size="10.00">main</text>
</a>
</g>
</g>
<!-- Node5&#45;&gt;Node6 -->
<g id="edge5_Node000005_Node000006" class="edge">
<title>Node5&#45;&gt;Node6</title>
<g id="a_edge5_Node000005_Node000006"><a xlink:title=" ">
<path fill="none" stroke="#63b8ff" d="M66.66,-66.5C57.35,-66.5 48.51,-66.5 41.15,-66.5"/>
<polygon fill="#63b8ff" stroke="#63b8ff" points="66.88,-70 76.88,-66.5 66.88,-63 66.88,-70"/>
</a>
</g>
</g>
<!-- Node7&#45;&gt;Node5 -->
<g id="edge7_Node000007_Node000005" class="edge">
<title>Node7&#45;&gt;Node5</title>
<g id="a_edge7_Node000007_Node000005"><a xlink:title=" ">
<path fill="none" stroke="#63b8ff" d="M224.59,-57.47C215.91,-58.38 207.27,-59.29 199.02,-60.16"/>
<polygon fill="#63b8ff" stroke="#63b8ff" points="225.22,-60.92 234.8,-56.39 224.49,-53.96 225.22,-60.92"/>
</a>
</g>
</g>
<!-- Node8&#45;&gt;Node5 -->
<g id="edge10_Node000008_Node000005" class="edge">
<title>Node8&#45;&gt;Node5</title>
<g id="a_edge10_Node000008_Node000005"><a xlink:title=" ">
<path fill="none" stroke="#63b8ff" d="M430.71,-8.32C373.58,-9.4 299.33,-14.03 235,-28.5 207.19,-34.76 176.9,-47.9 157.93,-56.96"/>
<polygon fill="#63b8ff" stroke="#63b8ff" points="430.87,-11.82 440.81,-8.17 430.76,-4.82 430.87,-11.82"/>
</a>
</g>
</g>
</g>
</svg>
