<?xml version="1.0" encoding="UTF-8" standalone="no"?>
<!DOCTYPE svg PUBLIC "-//W3C//DTD SVG 1.1//EN"
 "http://www.w3.org/Graphics/SVG/1.1/DTD/svg11.dtd">
<!-- Generated by graphviz version 2.43.0 (0)
 -->
<!-- Title: Router::isStaticFile Pages: 1 -->
<svg width="710pt" height="181pt"
 viewBox="0.00 0.00 710.00 180.50" xmlns="http://www.w3.org/2000/svg" xmlns:xlink="http://www.w3.org/1999/xlink">
<g id="graph0" class="graph" transform="scale(1 1) rotate(0) translate(4 176.5)">
<title>Router::isStaticFile</title>
<!-- Node1 -->
<g id="Node000001" class="node">
<title>Node1</title>
<g id="a_Node000001"><a xlink:title="Checks if the resolved path corresponds to a static file.">
<polygon fill="#999999" stroke="#666666" points="108,-98.5 0,-98.5 0,-79.5 108,-79.5 108,-98.5"/>
<text text-anchor="middle" x="54" y="-86.5" font-family="Helvetica,sans-Serif" font-size="10.00">Router::isStaticFile</text>
</a>
</g>
</g>
<!-- Node2 -->
<g id="Node000002" class="node">
<title>Node2</title>
<g id="a_Node000002"><a xlink:href="classHttpRequest.html#a9cd740d746bcd7fa6e4fcb8c537879ad" target="_top" xlink:title="Returns the resolved filesystem path corresponding to the URI.">
<polygon fill="white" stroke="#666666" points="309,-172.5 144,-172.5 144,-153.5 309,-153.5 309,-172.5"/>
<text text-anchor="middle" x="226.5" y="-160.5" font-family="Helvetica,sans-Serif" font-size="10.00">HttpRequest::getResolvedPath</text>
</a>
</g>
</g>
<!-- Node1&#45;&gt;Node2 -->
<g id="edge1_Node000001_Node000002" class="edge">
<title>Node1&#45;&gt;Node2</title>
<g id="a_edge1_Node000001_Node000002"><a xlink:title=" ">
<path fill="none" stroke="#63b8ff" d="M67.22,-98.63C83.71,-111.15 114.45,-132.87 144,-145 149.11,-147.1 154.51,-148.97 159.99,-150.64"/>
<polygon fill="#63b8ff" stroke="#63b8ff" points="159.34,-154.09 169.91,-153.42 161.23,-147.35 159.34,-154.09"/>
</a>
</g>
</g>
<!-- Node3 -->
<g id="Node000003" class="node">
<title>Node3</title>
<g id="a_Node000003"><a xlink:href="classLogger.html#a4aa4d7c3b98f6e12e7ea8253da5ea0cd" target="_top" xlink:title="Returns the singleton instance of the Logger.">
<polygon fill="white" stroke="#666666" points="275,-135.5 178,-135.5 178,-116.5 275,-116.5 275,-135.5"/>
<text text-anchor="middle" x="226.5" y="-123.5" font-family="Helvetica,sans-Serif" font-size="10.00">Logger::instance</text>
</a>
</g>
</g>
<!-- Node1&#45;&gt;Node3 -->
<g id="edge2_Node000001_Node000003" class="edge">
<title>Node1&#45;&gt;Node3</title>
<g id="a_edge2_Node000001_Node000003"><a xlink:title=" ">
<path fill="none" stroke="#63b8ff" d="M98.91,-98.53C121.1,-103.34 148.21,-109.23 171.65,-114.31"/>
<polygon fill="#63b8ff" stroke="#63b8ff" points="170.93,-117.74 181.44,-116.44 172.41,-110.9 170.93,-117.74"/>
</a>
</g>
</g>
<!-- Node4 -->
<g id="Node000004" class="node">
<title>Node4</title>
<g id="a_Node000004"><a xlink:href="classLogger.html#a3d3f0801eeaf39b33a906ea8569c19b2" target="_top" xlink:title="Writes a log entry with timestamp, level, and message.">
<polygon fill="white" stroke="#666666" points="262,-98.5 191,-98.5 191,-79.5 262,-79.5 262,-98.5"/>
<text text-anchor="middle" x="226.5" y="-86.5" font-family="Helvetica,sans-Serif" font-size="10.00">Logger::log</text>
</a>
</g>
</g>
<!-- Node1&#45;&gt;Node4 -->
<g id="edge3_Node000001_Node000004" class="edge">
<title>Node1&#45;&gt;Node4</title>
<g id="a_edge3_Node000001_Node000004"><a xlink:title=" ">
<path fill="none" stroke="#63b8ff" d="M108.01,-89C131.3,-89 158.36,-89 180.63,-89"/>
<polygon fill="#63b8ff" stroke="#63b8ff" points="180.82,-92.5 190.82,-89 180.82,-85.5 180.82,-92.5"/>
</a>
</g>
</g>
<!-- Node6 -->
<g id="Node000006" class="node">
<title>Node6</title>
<g id="a_Node000006"><a xlink:href="classHttpRequest.html#a084808f1cf57195c1a76ce68a2cbb4e8" target="_top" xlink:title="Sets the absolute filesystem path resolved from the URI.">
<polygon fill="white" stroke="#666666" points="308.5,-61.5 144.5,-61.5 144.5,-42.5 308.5,-42.5 308.5,-61.5"/>
<text text-anchor="middle" x="226.5" y="-49.5" font-family="Helvetica,sans-Serif" font-size="10.00">HttpRequest::setResolvedPath</text>
</a>
</g>
</g>
<!-- Node1&#45;&gt;Node6 -->
<g id="edge5_Node000001_Node000006" class="edge">
<title>Node1&#45;&gt;Node6</title>
<g id="a_edge5_Node000001_Node000006"><a xlink:title=" ">
<path fill="none" stroke="#63b8ff" d="M98.91,-79.47C121.1,-74.66 148.21,-68.77 171.65,-63.69"/>
<polygon fill="#63b8ff" stroke="#63b8ff" points="172.41,-67.1 181.44,-61.56 170.93,-60.26 172.41,-67.1"/>
</a>
</g>
</g>
<!-- Node7 -->
<g id="Node000007" class="node">
<title>Node7</title>
<g id="a_Node000007"><a xlink:href="classHttpResponse.html#af02b3b82a638bfbf23226b9f3bf06843" target="_top" xlink:title="Sets the HTTP status code and updates the corresponding reason phrase.">
<polygon fill="white" stroke="#666666" points="307,-24.5 146,-24.5 146,-5.5 307,-5.5 307,-24.5"/>
<text text-anchor="middle" x="226.5" y="-12.5" font-family="Helvetica,sans-Serif" font-size="10.00">HttpResponse::setStatusCode</text>
</a>
</g>
</g>
<!-- Node1&#45;&gt;Node7 -->
<g id="edge6_Node000001_Node000007" class="edge">
<title>Node1&#45;&gt;Node7</title>
<g id="a_edge6_Node000001_Node000007"><a xlink:title=" ">
<path fill="none" stroke="#63b8ff" d="M67.55,-79.4C84.17,-67.13 114.78,-46.05 144,-34 150.14,-31.47 156.68,-29.24 163.29,-27.27"/>
<polygon fill="#63b8ff" stroke="#63b8ff" points="164.27,-30.63 172.97,-24.59 162.4,-23.89 164.27,-30.63"/>
</a>
</g>
</g>
<!-- Node5 -->
<g id="Node000005" class="node">
<title>Node5</title>
<g id="a_Node000005"><a xlink:href="classLogger.html#a19f9ef22095a67c9fe420c9d6e761fc2" target="_top" xlink:title="Converts a LogLevel enum value to its string label.">
<polygon fill="white" stroke="#666666" points="492,-98.5 373,-98.5 373,-79.5 492,-79.5 492,-98.5"/>
<text text-anchor="middle" x="432.5" y="-86.5" font-family="Helvetica,sans-Serif" font-size="10.00">Logger::levelToString</text>
</a>
</g>
</g>
<!-- Node4&#45;&gt;Node5 -->
<g id="edge4_Node000004_Node000005" class="edge">
<title>Node4&#45;&gt;Node5</title>
<g id="a_edge4_Node000004_Node000005"><a xlink:title=" ">
<path fill="none" stroke="#63b8ff" d="M262.11,-89C289.51,-89 328.66,-89 362.42,-89"/>
<polygon fill="#63b8ff" stroke="#63b8ff" points="362.7,-92.5 372.7,-89 362.7,-85.5 362.7,-92.5"/>
</a>
</g>
</g>
<!-- Node8 -->
<g id="Node000008" class="node">
<title>Node8</title>
<g id="a_Node000008"><a xlink:href="classHttpResponse.html#a98bb39b2757912eae4f667db80e3e6a4" target="_top" xlink:title="Sets the textual reason phrase for a given status code.">
<polygon fill="white" stroke="#666666" points="520,-24.5 345,-24.5 345,-5.5 520,-5.5 520,-24.5"/>
<text text-anchor="middle" x="432.5" y="-12.5" font-family="Helvetica,sans-Serif" font-size="10.00">HttpResponse::setReasonPhrase</text>
</a>
</g>
</g>
<!-- Node7&#45;&gt;Node8 -->
<g id="edge7_Node000007_Node000008" class="edge">
<title>Node7&#45;&gt;Node8</title>
<g id="a_edge7_Node000007_Node000008"><a xlink:title=" ">
<path fill="none" stroke="#63b8ff" d="M307.25,-15C316.18,-15 325.35,-15 334.47,-15"/>
<polygon fill="#63b8ff" stroke="#63b8ff" points="334.72,-18.5 344.72,-15 334.72,-11.5 334.72,-18.5"/>
</a>
</g>
</g>
<!-- Node9 -->
<g id="Node000009" class="node">
<title>Node9</title>
<g id="a_Node000009"><a xlink:href="classHttpResponse.html#ae09f25f31d917b068fae8bbf07b29c19" target="_top" xlink:title="Converts an HTTP status code to its standard reason phrase string.">
<polygon fill="white" stroke="#666666" points="702,-30 556,-30 556,0 702,0 702,-30"/>
<text text-anchor="start" x="564" y="-18" font-family="Helvetica,sans-Serif" font-size="10.00">HttpResponse::statusCode</text>
<text text-anchor="middle" x="629" y="-7" font-family="Helvetica,sans-Serif" font-size="10.00">ToString</text>
</a>
</g>
</g>
<!-- Node8&#45;&gt;Node9 -->
<g id="edge8_Node000008_Node000009" class="edge">
<title>Node8&#45;&gt;Node9</title>
<g id="a_edge8_Node000008_Node000009"><a xlink:title=" ">
<path fill="none" stroke="#63b8ff" d="M520.23,-15C528.72,-15 537.33,-15 545.78,-15"/>
<polygon fill="#63b8ff" stroke="#63b8ff" points="546,-18.5 556,-15 546,-11.5 546,-18.5"/>
</a>
</g>
</g>
</g>
</svg>
