<?xml version="1.0" encoding="UTF-8" standalone="no"?>
<!DOCTYPE svg PUBLIC "-//W3C//DTD SVG 1.1//EN"
 "http://www.w3.org/Graphics/SVG/1.1/DTD/svg11.dtd">
<!-- Generated by graphviz version 2.43.0 (0)
 -->
<!-- Title: HttpResponse::setReasonPhrase Pages: 1 -->
<svg width="1392pt" height="595pt"
 viewBox="0.00 0.00 1392.00 595.24" xmlns="http://www.w3.org/2000/svg" xmlns:xlink="http://www.w3.org/1999/xlink">
<g id="graph0" class="graph" transform="scale(1 1) rotate(0) translate(4 591.24)">
<title>HttpResponse::setReasonPhrase</title>
<!-- Node1 -->
<g id="Node000001" class="node">
<title>Node1</title>
<g id="a_Node000001"><a xlink:title="Sets the textual reason phrase for a given status code.">
<polygon fill="#999999" stroke="#666666" points="1384,-143.86 1209,-143.86 1209,-124.86 1384,-124.86 1384,-143.86"/>
<text text-anchor="middle" x="1296.5" y="-131.86" font-family="Helvetica,sans-Serif" font-size="10.00">HttpResponse::setReasonPhrase</text>
</a>
</g>
</g>
<!-- Node2 -->
<g id="Node000002" class="node">
<title>Node2</title>
<g id="a_Node000002"><a xlink:href="classResponseBuilder.html#afd79929bb501be85bdc85d86fdce93e9" target="_top" xlink:title="Assembles the complete HTTP response, including error handling.">
<polygon fill="white" stroke="#666666" points="768.5,-81.86 640.5,-81.86 640.5,-62.86 768.5,-62.86 768.5,-81.86"/>
<text text-anchor="middle" x="704.5" y="-69.86" font-family="Helvetica,sans-Serif" font-size="10.00">ResponseBuilder::build</text>
</a>
</g>
</g>
<!-- Node1&#45;&gt;Node2 -->
<g id="edge1_Node000001_Node000002" class="edge">
<title>Node1&#45;&gt;Node2</title>
<g id="a_edge1_Node000001_Node000002"><a xlink:title=" ">
<path fill="none" stroke="#63b8ff" d="M1257.16,-121.67C1197.74,-102.73 1079.48,-67.97 976,-55.36 905.85,-46.82 887.46,-50.02 817,-55.36 797.28,-56.86 775.76,-59.82 756.94,-62.86"/>
<polygon fill="#63b8ff" stroke="#63b8ff" points="1256.27,-125.06 1266.86,-124.79 1258.41,-118.4 1256.27,-125.06"/>
</a>
</g>
</g>
<!-- Node9 -->
<g id="Node000009" class="node">
<title>Node9</title>
<g id="a_Node000009"><a xlink:href="classHttpResponse.html#af02b3b82a638bfbf23226b9f3bf06843" target="_top" xlink:title="Sets the HTTP status code and updates the corresponding reason phrase.">
<polygon fill="white" stroke="#666666" points="1173,-304.86 1012,-304.86 1012,-285.86 1173,-285.86 1173,-304.86"/>
<text text-anchor="middle" x="1092.5" y="-292.86" font-family="Helvetica,sans-Serif" font-size="10.00">HttpResponse::setStatusCode</text>
</a>
</g>
</g>
<!-- Node1&#45;&gt;Node9 -->
<g id="edge11_Node000001_Node000009" class="edge">
<title>Node1&#45;&gt;Node9</title>
<g id="a_edge11_Node000001_Node000009"><a xlink:title=" ">
<path fill="none" stroke="#63b8ff" d="M1275.42,-150.37C1233.74,-183.59 1138.93,-259.15 1105.47,-285.83"/>
<polygon fill="#63b8ff" stroke="#63b8ff" points="1277.83,-152.92 1283.47,-143.95 1273.47,-147.45 1277.83,-152.92"/>
</a>
</g>
</g>
<!-- Node3 -->
<g id="Node000003" class="node">
<title>Node3</title>
<g id="a_Node000003"><a xlink:href="classDispatcher.html#a13c8a2fd90033adf9788c8774c3f0f47" target="_top" xlink:title="Central dispatch routine that delegates HTTP requests to the appropriate handler.">
<polygon fill="white" stroke="#666666" points="565,-233.86 449,-233.86 449,-214.86 565,-214.86 565,-233.86"/>
<text text-anchor="middle" x="507" y="-221.86" font-family="Helvetica,sans-Serif" font-size="10.00">Dispatcher::dispatch</text>
</a>
</g>
</g>
<!-- Node2&#45;&gt;Node3 -->
<g id="edge2_Node000002_Node000003" class="edge">
<title>Node2&#45;&gt;Node3</title>
<g id="a_edge2_Node000002_Node000003"><a xlink:title=" ">
<path fill="none" stroke="#63b8ff" d="M639.29,-85.5C635.35,-87.22 631.56,-89.16 628,-91.36 607.1,-104.31 608.34,-115 592,-133.36 565.28,-163.4 532.77,-198.11 517.19,-214.64"/>
<polygon fill="#63b8ff" stroke="#63b8ff" points="640.58,-88.75 648.65,-81.87 638.06,-82.22 640.58,-88.75"/>
</a>
</g>
</g>
<!-- Node5 -->
<g id="Node000005" class="node">
<title>Node5</title>
<g id="a_Node000005"><a xlink:href="classWebServer.html#af39709e3744077e019aa76555f03a42e" target="_top" xlink:title="Main event loop — monitors sockets, dispatches requests, and handles responses.">
<polygon fill="white" stroke="#666666" points="199,-124.86 77,-124.86 77,-105.86 199,-105.86 199,-124.86"/>
<text text-anchor="middle" x="138" y="-112.86" font-family="Helvetica,sans-Serif" font-size="10.00">WebServer::runServer</text>
</a>
</g>
</g>
<!-- Node2&#45;&gt;Node5 -->
<g id="edge8_Node000002_Node000005" class="edge">
<title>Node2&#45;&gt;Node5</title>
<g id="a_edge8_Node000002_Node000005"><a xlink:title=" ">
<path fill="none" stroke="#63b8ff" d="M630.12,-77.95C517.31,-86.55 303.4,-102.84 199.14,-110.78"/>
<polygon fill="#63b8ff" stroke="#63b8ff" points="630.68,-81.42 640.39,-77.17 630.15,-74.44 630.68,-81.42"/>
</a>
</g>
</g>
<!-- Node7 -->
<g id="Node000007" class="node">
<title>Node7</title>
<g id="a_Node000007"><a xlink:href="classWebServer.html#a7667bc8a87db8f9987a5e80da9c4cd37" target="_top" xlink:title="Reads CGI process output and assembles it into the client buffer.">
<polygon fill="white" stroke="#666666" points="592,-124.86 422,-124.86 422,-105.86 592,-105.86 592,-124.86"/>
<text text-anchor="middle" x="507" y="-112.86" font-family="Helvetica,sans-Serif" font-size="10.00">WebServer::handleCgiReadable</text>
</a>
</g>
</g>
<!-- Node2&#45;&gt;Node7 -->
<g id="edge6_Node000002_Node000007" class="edge">
<title>Node2&#45;&gt;Node7</title>
<g id="a_edge6_Node000002_Node000007"><a xlink:title=" ">
<path fill="none" stroke="#63b8ff" d="M650.31,-84.06C619.22,-90.9 580.47,-99.42 551.27,-105.85"/>
<polygon fill="#63b8ff" stroke="#63b8ff" points="651.1,-87.47 660.11,-81.91 649.59,-80.64 651.1,-87.47"/>
</a>
</g>
</g>
<!-- Node8 -->
<g id="Node000008" class="node">
<title>Node8</title>
<g id="a_Node000008"><a xlink:href="classWebServer.html#a32042bb7e426cf5c53c2c2860d622342" target="_top" xlink:title="Scans active CGI processes and terminates those exceeding timeout.">
<polygon fill="white" stroke="#666666" points="591,-48.86 423,-48.86 423,-29.86 591,-29.86 591,-48.86"/>
<text text-anchor="middle" x="507" y="-36.86" font-family="Helvetica,sans-Serif" font-size="10.00">WebServer::sweepCgiTimeouts</text>
</a>
</g>
</g>
<!-- Node2&#45;&gt;Node8 -->
<g id="edge9_Node000002_Node000008" class="edge">
<title>Node2&#45;&gt;Node8</title>
<g id="a_edge9_Node000002_Node000008"><a xlink:title=" ">
<path fill="none" stroke="#63b8ff" d="M637.28,-61.19C613.66,-57.2 587.3,-52.75 564.56,-48.91"/>
<polygon fill="#63b8ff" stroke="#63b8ff" points="636.77,-64.65 647.22,-62.86 637.94,-57.75 636.77,-64.65"/>
</a>
</g>
</g>
<!-- Node4 -->
<g id="Node000004" class="node">
<title>Node4</title>
<g id="a_Node000004"><a xlink:href="classWebServer.html#a8cbf37c0a840305ce15e8648566c9ce4" target="_top" xlink:title="Handles incoming data from a connected client.">
<polygon fill="white" stroke="#666666" points="386,-207.86 235,-207.86 235,-188.86 386,-188.86 386,-207.86"/>
<text text-anchor="middle" x="310.5" y="-195.86" font-family="Helvetica,sans-Serif" font-size="10.00">WebServer::receiveRequest</text>
</a>
</g>
</g>
<!-- Node3&#45;&gt;Node4 -->
<g id="edge3_Node000003_Node000004" class="edge">
<title>Node3&#45;&gt;Node4</title>
<g id="a_edge3_Node000003_Node000004"><a xlink:title=" ">
<path fill="none" stroke="#63b8ff" d="M439.04,-215.41C420.86,-212.98 401.12,-210.34 382.71,-207.88"/>
<polygon fill="#63b8ff" stroke="#63b8ff" points="438.58,-218.88 448.96,-216.74 439.51,-211.95 438.58,-218.88"/>
</a>
</g>
</g>
<!-- Node4&#45;&gt;Node5 -->
<g id="edge4_Node000004_Node000005" class="edge">
<title>Node4&#45;&gt;Node5</title>
<g id="a_edge4_Node000004_Node000005"><a xlink:title=" ">
<path fill="none" stroke="#63b8ff" d="M280.8,-184.39C246.09,-167.49 188.6,-139.51 158.59,-124.9"/>
<polygon fill="#63b8ff" stroke="#63b8ff" points="279.42,-187.61 289.94,-188.84 282.48,-181.32 279.42,-187.61"/>
</a>
</g>
</g>
<!-- Node6 -->
<g id="Node000006" class="node">
<title>Node6</title>
<g id="a_Node000006"><a xlink:href="main_8cpp.html#a3c04138a5bfe5d72780bb7e82a18e627" target="_top" xlink:title="Entry point of the Webservinho web server.">
<polygon fill="white" stroke="#666666" points="41,-124.86 0,-124.86 0,-105.86 41,-105.86 41,-124.86"/>
<text text-anchor="middle" x="20.5" y="-112.86" font-family="Helvetica,sans-Serif" font-size="10.00">main</text>
</a>
</g>
</g>
<!-- Node5&#45;&gt;Node6 -->
<g id="edge5_Node000005_Node000006" class="edge">
<title>Node5&#45;&gt;Node6</title>
<g id="a_edge5_Node000005_Node000006"><a xlink:title=" ">
<path fill="none" stroke="#63b8ff" d="M66.66,-115.36C57.35,-115.36 48.51,-115.36 41.15,-115.36"/>
<polygon fill="#63b8ff" stroke="#63b8ff" points="66.88,-118.86 76.88,-115.36 66.88,-111.86 66.88,-118.86"/>
</a>
</g>
</g>
<!-- Node7&#45;&gt;Node5 -->
<g id="edge7_Node000007_Node000005" class="edge">
<title>Node7&#45;&gt;Node5</title>
<g id="a_edge7_Node000007_Node000005"><a xlink:title=" ">
<path fill="none" stroke="#63b8ff" d="M411.66,-115.36C344.66,-115.36 256.71,-115.36 199.06,-115.36"/>
<polygon fill="#63b8ff" stroke="#63b8ff" points="411.8,-118.86 421.8,-115.36 411.8,-111.86 411.8,-118.86"/>
</a>
</g>
</g>
<!-- Node8&#45;&gt;Node5 -->
<g id="edge10_Node000008_Node000005" class="edge">
<title>Node8&#45;&gt;Node5</title>
<g id="a_edge10_Node000008_Node000005"><a xlink:title=" ">
<path fill="none" stroke="#63b8ff" d="M412.74,-38.33C359.65,-40.03 292.47,-46.07 235,-63.36 203.42,-72.87 170.42,-93.48 152.52,-105.7"/>
<polygon fill="#63b8ff" stroke="#63b8ff" points="412.93,-41.83 422.83,-38.06 412.74,-34.83 412.93,-41.83"/>
</a>
</g>
</g>
<!-- Node9&#45;&gt;Node3 -->
<g id="edge12_Node000009_Node000003" class="edge">
<title>Node9&#45;&gt;Node3</title>
<g id="a_edge12_Node000009_Node000003"><a xlink:title=" ">
<path fill="none" stroke="#63b8ff" d="M1001.62,-294.76C907.67,-292.73 756.33,-285.53 628,-261.36 594.58,-255.07 557.33,-242.71 533.33,-234.01"/>
<polygon fill="#63b8ff" stroke="#63b8ff" points="1001.58,-298.26 1011.65,-294.96 1001.73,-291.26 1001.58,-298.26"/>
</a>
</g>
</g>
<!-- Node9&#45;&gt;Node5 -->
<g id="edge36_Node000009_Node000005" class="edge">
<title>Node9&#45;&gt;Node5</title>
<g id="a_edge36_Node000009_Node000005"><a xlink:title=" ">
<path fill="none" stroke="#63b8ff" d="M1088.79,-315.07C1081.06,-363.09 1054.17,-486.37 976,-543.36 878.09,-614.75 826.67,-577.36 705.5,-577.36 705.5,-577.36 705.5,-577.36 506,-577.36 266.3,-577.36 158.17,-191.36 141.35,-125.01"/>
<polygon fill="#63b8ff" stroke="#63b8ff" points="1092.27,-315.45 1090.3,-305.05 1085.35,-314.41 1092.27,-315.45"/>
</a>
</g>
</g>
<!-- Node9&#45;&gt;Node8 -->
<g id="edge37_Node000009_Node000008" class="edge">
<title>Node9&#45;&gt;Node8</title>
<g id="a_edge37_Node000009_Node000008"><a xlink:title=" ">
<path fill="none" stroke="#63b8ff" d="M1088.88,-275.83C1081.35,-228.32 1054.87,-106.84 976,-55.36 837.11,35.28 622.39,-8.38 540.89,-29.86"/>
<polygon fill="#63b8ff" stroke="#63b8ff" points="1085.42,-276.38 1090.34,-285.76 1092.35,-275.36 1085.42,-276.38"/>
</a>
</g>
</g>
<!-- Node10 -->
<g id="Node000010" class="node">
<title>Node10</title>
<g id="a_Node000010"><a xlink:href="classResponseBuilder.html#a998edbfd6f08dd34332ca92507db5d77" target="_top" xlink:title="Attempts to load and serve a custom error page from configuration.">
<polygon fill="white" stroke="#666666" points="972,-94.36 821,-94.36 821,-64.36 972,-64.36 972,-94.36"/>
<text text-anchor="start" x="829" y="-82.36" font-family="Helvetica,sans-Serif" font-size="10.00">ResponseBuilder::errorPage</text>
<text text-anchor="middle" x="896.5" y="-71.36" font-family="Helvetica,sans-Serif" font-size="10.00">Config</text>
</a>
</g>
</g>
<!-- Node9&#45;&gt;Node10 -->
<g id="edge13_Node000009_Node000010" class="edge">
<title>Node9&#45;&gt;Node10</title>
<g id="a_edge13_Node000009_Node000010"><a xlink:title=" ">
<path fill="none" stroke="#63b8ff" d="M1084.43,-276.1C1069.82,-238.8 1032.83,-156.27 976,-109.36 968.69,-103.33 960.03,-98.42 951.17,-94.46"/>
<polygon fill="#63b8ff" stroke="#63b8ff" points="1081.28,-277.64 1088.1,-285.75 1087.82,-275.16 1081.28,-277.64"/>
</a>
</g>
</g>
<!-- Node11 -->
<g id="Node000011" class="node">
<title>Node11</title>
<g id="a_Node000011"><a xlink:href="classAutoIndexHandler.html#a19f63277112e5a0d50bb8d570527ce0a" target="_top" xlink:title="Generates and serves an HTML directory listing when autoindex is enabled.">
<polygon fill="white" stroke="#666666" points="776,-252.86 633,-252.86 633,-233.86 776,-233.86 776,-252.86"/>
<text text-anchor="middle" x="704.5" y="-240.86" font-family="Helvetica,sans-Serif" font-size="10.00">AutoIndexHandler::handle</text>
</a>
</g>
</g>
<!-- Node9&#45;&gt;Node11 -->
<g id="edge15_Node000009_Node000011" class="edge">
<title>Node9&#45;&gt;Node11</title>
<g id="a_edge15_Node000009_Node000011"><a xlink:title=" ">
<path fill="none" stroke="#63b8ff" d="M1054.1,-282.54C1031.71,-275.4 1002.54,-267.04 976,-262.36 908.77,-250.53 830.92,-246.01 776.05,-244.31"/>
<polygon fill="#63b8ff" stroke="#63b8ff" points="1053.28,-285.95 1063.87,-285.71 1055.44,-279.29 1053.28,-285.95"/>
</a>
</g>
</g>
<!-- Node12 -->
<g id="Node000012" class="node">
<title>Node12</title>
<g id="a_Node000012"><a xlink:href="classDeleteHandler.html#a8817fc78dc56285c43b1047bddf39a1f" target="_top" xlink:title="Handles HTTP DELETE requests to remove files from the server.">
<polygon fill="white" stroke="#666666" points="767.5,-215.86 641.5,-215.86 641.5,-196.86 767.5,-196.86 767.5,-215.86"/>
<text text-anchor="middle" x="704.5" y="-203.86" font-family="Helvetica,sans-Serif" font-size="10.00">DeleteHandler::handle</text>
</a>
</g>
</g>
<!-- Node9&#45;&gt;Node12 -->
<g id="edge17_Node000009_Node000012" class="edge">
<title>Node9&#45;&gt;Node12</title>
<g id="a_edge17_Node000009_Node000012"><a xlink:title=" ">
<path fill="none" stroke="#63b8ff" d="M1065.87,-280.9C1043.01,-268.67 1008.27,-251.69 976,-242.36 906.25,-222.21 823.07,-213.29 767.54,-209.37"/>
<polygon fill="#63b8ff" stroke="#63b8ff" points="1064.44,-284.11 1074.89,-285.81 1067.78,-277.96 1064.44,-284.11"/>
</a>
</g>
</g>
<!-- Node13 -->
<g id="Node000013" class="node">
<title>Node13</title>
<g id="a_Node000013"><a xlink:href="classStaticPageHandler.html#a701db169c979ef5cfebc72f6c160fb32" target="_top" xlink:title="Handles serving static files from disk.">
<polygon fill="white" stroke="#666666" points="760.5,-178.36 648.5,-178.36 648.5,-148.36 760.5,-148.36 760.5,-178.36"/>
<text text-anchor="start" x="656.5" y="-166.36" font-family="Helvetica,sans-Serif" font-size="10.00">StaticPageHandler::</text>
<text text-anchor="middle" x="704.5" y="-155.36" font-family="Helvetica,sans-Serif" font-size="10.00">handle</text>
</a>
</g>
</g>
<!-- Node9&#45;&gt;Node13 -->
<g id="edge19_Node000009_Node000013" class="edge">
<title>Node9&#45;&gt;Node13</title>
<g id="a_edge19_Node000009_Node000013"><a xlink:title=" ">
<path fill="none" stroke="#63b8ff" d="M1074.1,-278.71C1052.77,-259.31 1014.67,-227.82 976,-211.36 905.45,-181.35 816.84,-170.1 760.67,-165.89"/>
<polygon fill="#63b8ff" stroke="#63b8ff" points="1071.96,-281.5 1081.67,-285.73 1076.72,-276.37 1071.96,-281.5"/>
</a>
</g>
</g>
<!-- Node14 -->
<g id="Node000014" class="node">
<title>Node14</title>
<g id="a_Node000014"><a xlink:href="classUploadHandler.html#ae9d6fd83c1ba35b23829b8f4f619127d" target="_top" xlink:title="Entry point for handling file uploads.">
<polygon fill="white" stroke="#666666" points="768.5,-473.86 640.5,-473.86 640.5,-454.86 768.5,-454.86 768.5,-473.86"/>
<text text-anchor="middle" x="704.5" y="-461.86" font-family="Helvetica,sans-Serif" font-size="10.00">UploadHandler::handle</text>
</a>
</g>
</g>
<!-- Node9&#45;&gt;Node14 -->
<g id="edge21_Node000009_Node000014" class="edge">
<title>Node9&#45;&gt;Node14</title>
<g id="a_edge21_Node000009_Node000014"><a xlink:title=" ">
<path fill="none" stroke="#63b8ff" d="M1088.34,-315.08C1079.82,-360.89 1051.65,-474.16 976,-520.36 889.85,-572.98 762.48,-501.21 719.93,-474.03"/>
<polygon fill="#63b8ff" stroke="#63b8ff" points="1091.83,-315.42 1090.1,-304.97 1084.94,-314.22 1091.83,-315.42"/>
</a>
</g>
</g>
<!-- Node15 -->
<g id="Node000015" class="node">
<title>Node15</title>
<g id="a_Node000015"><a xlink:href="classResponseBuilder.html#a0f3257a6db27bcd3befa5005cc7cdfa0" target="_top" xlink:title="Processes CGI output and builds an HTTP response from it.">
<polygon fill="white" stroke="#666666" points="781,-130.36 628,-130.36 628,-100.36 781,-100.36 781,-130.36"/>
<text text-anchor="start" x="636" y="-118.36" font-family="Helvetica,sans-Serif" font-size="10.00">ResponseBuilder::handleCgi</text>
<text text-anchor="middle" x="704.5" y="-107.36" font-family="Helvetica,sans-Serif" font-size="10.00">Output</text>
</a>
</g>
</g>
<!-- Node9&#45;&gt;Node15 -->
<g id="edge23_Node000009_Node000015" class="edge">
<title>Node9&#45;&gt;Node15</title>
<g id="a_edge23_Node000009_Node000015"><a xlink:title=" ">
<path fill="none" stroke="#63b8ff" d="M1080.38,-276.98C1062.28,-248.75 1023.61,-195.19 976,-168.36 915.96,-134.54 837.88,-121.99 781.05,-117.5"/>
<polygon fill="#63b8ff" stroke="#63b8ff" points="1077.64,-279.2 1085.91,-285.82 1083.58,-275.49 1077.64,-279.2"/>
</a>
</g>
</g>
<!-- Node16 -->
<g id="Node000016" class="node">
<title>Node16</title>
<g id="a_Node000016"><a xlink:href="classHttpResponse.html#ab2e6cd363b5ea437643017766f882066" target="_top" xlink:title="Default constructor for HttpResponse.">
<polygon fill="white" stroke="#666666" points="976,-510.86 817,-510.86 817,-491.86 976,-491.86 976,-510.86"/>
<text text-anchor="middle" x="896.5" y="-498.86" font-family="Helvetica,sans-Serif" font-size="10.00">HttpResponse::HttpResponse</text>
</a>
</g>
</g>
<!-- Node9&#45;&gt;Node16 -->
<g id="edge25_Node000009_Node000016" class="edge">
<title>Node9&#45;&gt;Node16</title>
<g id="a_edge25_Node000009_Node000016"><a xlink:title=" ">
<path fill="none" stroke="#63b8ff" d="M1085.41,-314.52C1072.15,-352.98 1036.87,-439.67 976,-483.36 971.23,-486.79 965.91,-489.57 960.35,-491.84"/>
<polygon fill="#63b8ff" stroke="#63b8ff" points="1088.74,-315.62 1088.57,-305.02 1082.09,-313.41 1088.74,-315.62"/>
</a>
</g>
</g>
<!-- Node17 -->
<g id="Node000017" class="node">
<title>Node17</title>
<g id="a_Node000017"><a xlink:href="classRouter.html#a4c44c26c85603949ccaed27088e3d07c" target="_top" xlink:title="Determines if the request targets a valid CGI script.">
<polygon fill="white" stroke="#666666" points="936,-360.86 857,-360.86 857,-341.86 936,-341.86 936,-360.86"/>
<text text-anchor="middle" x="896.5" y="-348.86" font-family="Helvetica,sans-Serif" font-size="10.00">Router::isCgi</text>
</a>
</g>
</g>
<!-- Node9&#45;&gt;Node17 -->
<g id="edge26_Node000009_Node000017" class="edge">
<title>Node9&#45;&gt;Node17</title>
<g id="a_edge26_Node000009_Node000017"><a xlink:title=" ">
<path fill="none" stroke="#63b8ff" d="M1054.15,-308.09C1031.63,-315.57 1002.31,-324.98 976,-332.36 963.18,-335.97 949.06,-339.51 936.37,-342.55"/>
<polygon fill="#63b8ff" stroke="#63b8ff" points="1055.29,-311.4 1063.66,-304.91 1053.07,-304.76 1055.29,-311.4"/>
</a>
</g>
</g>
<!-- Node18 -->
<g id="Node000018" class="node">
<title>Node18</title>
<g id="a_Node000018"><a xlink:href="classRouter.html#aa58c0c6f2a1fc66a6e2a78adfae162e6" target="_top" xlink:title="Main entry point for determining how an HTTP request should be handled.">
<polygon fill="white" stroke="#666666" points="750,-379.86 659,-379.86 659,-360.86 750,-360.86 750,-379.86"/>
<text text-anchor="middle" x="704.5" y="-367.86" font-family="Helvetica,sans-Serif" font-size="10.00">Router::resolve</text>
</a>
</g>
</g>
<!-- Node9&#45;&gt;Node18 -->
<g id="edge35_Node000009_Node000018" class="edge">
<title>Node9&#45;&gt;Node18</title>
<g id="a_edge35_Node000009_Node000018"><a xlink:title=" ">
<path fill="none" stroke="#63b8ff" d="M1073.83,-311.61C1052.5,-330.01 1014.65,-358.92 976,-370.36 899.23,-393.1 804.73,-385.55 750.17,-377.97"/>
<polygon fill="#63b8ff" stroke="#63b8ff" points="1076.24,-314.15 1081.41,-304.91 1071.6,-308.91 1076.24,-314.15"/>
</a>
</g>
</g>
<!-- Node19 -->
<g id="Node000019" class="node">
<title>Node19</title>
<g id="a_Node000019"><a xlink:href="classRouter.html#a9cccffeb5ef1889ffc62987c437f6c59" target="_top" xlink:title="Checks if the request triggers an HTTP redirect.">
<polygon fill="white" stroke="#666666" points="948.5,-323.86 844.5,-323.86 844.5,-304.86 948.5,-304.86 948.5,-323.86"/>
<text text-anchor="middle" x="896.5" y="-311.86" font-family="Helvetica,sans-Serif" font-size="10.00">Router::isRedirect</text>
</a>
</g>
</g>
<!-- Node9&#45;&gt;Node19 -->
<g id="edge29_Node000009_Node000019" class="edge">
<title>Node9&#45;&gt;Node19</title>
<g id="a_edge29_Node000009_Node000019"><a xlink:title=" ">
<path fill="none" stroke="#63b8ff" d="M1001.69,-304.16C983.49,-305.94 964.95,-307.76 948.65,-309.36"/>
<polygon fill="#63b8ff" stroke="#63b8ff" points="1002.14,-307.63 1011.75,-303.17 1001.46,-300.67 1002.14,-307.63"/>
</a>
</g>
</g>
<!-- Node20 -->
<g id="Node000020" class="node">
<title>Node20</title>
<g id="a_Node000020"><a xlink:href="classRouter.html#a8cd6b5ac09c54dff06c42498379d96b8" target="_top" xlink:title="Checks if the resolved path corresponds to a static file.">
<polygon fill="white" stroke="#666666" points="950.5,-473.86 842.5,-473.86 842.5,-454.86 950.5,-454.86 950.5,-473.86"/>
<text text-anchor="middle" x="896.5" y="-461.86" font-family="Helvetica,sans-Serif" font-size="10.00">Router::isStaticFile</text>
</a>
</g>
</g>
<!-- Node9&#45;&gt;Node20 -->
<g id="edge31_Node000009_Node000020" class="edge">
<title>Node9&#45;&gt;Node20</title>
<g id="a_edge31_Node000009_Node000020"><a xlink:title=" ">
<path fill="none" stroke="#63b8ff" d="M1082.58,-314.26C1066.25,-346.68 1028.35,-412.69 976,-446.36 968.36,-451.28 959.53,-454.86 950.62,-457.47"/>
<polygon fill="#63b8ff" stroke="#63b8ff" points="1085.86,-315.51 1087.12,-304.99 1079.58,-312.43 1085.86,-315.51"/>
</a>
</g>
</g>
<!-- Node21 -->
<g id="Node000021" class="node">
<title>Node21</title>
<g id="a_Node000021"><a xlink:href="classRouter.html#ab76bed10e7facdd1b6e4be3f2bbbff0f" target="_top" xlink:title="Determines if the current request is a valid upload operation.">
<polygon fill="white" stroke="#666666" points="945.5,-436.86 847.5,-436.86 847.5,-417.86 945.5,-417.86 945.5,-436.86"/>
<text text-anchor="middle" x="896.5" y="-424.86" font-family="Helvetica,sans-Serif" font-size="10.00">Router::isUpload</text>
</a>
</g>
</g>
<!-- Node9&#45;&gt;Node21 -->
<g id="edge33_Node000009_Node000021" class="edge">
<title>Node9&#45;&gt;Node21</title>
<g id="a_edge33_Node000009_Node000021"><a xlink:title=" ">
<path fill="none" stroke="#63b8ff" d="M1077.39,-312.83C1057.28,-336.61 1018.12,-379.01 976,-403.36 965.39,-409.5 953.05,-414.22 941.34,-417.79"/>
<polygon fill="#63b8ff" stroke="#63b8ff" points="1080.21,-314.91 1083.91,-304.98 1074.83,-310.44 1080.21,-314.91"/>
</a>
</g>
</g>
<!-- Node10&#45;&gt;Node2 -->
<g id="edge14_Node000010_Node000002" class="edge">
<title>Node10&#45;&gt;Node2</title>
<g id="a_edge14_Node000010_Node000002"><a xlink:title=" ">
<path fill="none" stroke="#63b8ff" d="M810.75,-76.24C796.64,-75.72 782.22,-75.19 768.77,-74.7"/>
<polygon fill="#63b8ff" stroke="#63b8ff" points="810.83,-79.75 820.95,-76.62 811.09,-72.75 810.83,-79.75"/>
</a>
</g>
</g>
<!-- Node11&#45;&gt;Node3 -->
<g id="edge16_Node000011_Node000003" class="edge">
<title>Node11&#45;&gt;Node3</title>
<g id="a_edge16_Node000011_Node000003"><a xlink:title=" ">
<path fill="none" stroke="#63b8ff" d="M622.87,-235.53C603.44,-233.64 583.09,-231.66 565.01,-229.9"/>
<polygon fill="#63b8ff" stroke="#63b8ff" points="622.63,-239.02 632.92,-236.51 623.31,-232.05 622.63,-239.02"/>
</a>
</g>
</g>
<!-- Node12&#45;&gt;Node3 -->
<g id="edge18_Node000012_Node000003" class="edge">
<title>Node12&#45;&gt;Node3</title>
<g id="a_edge18_Node000012_Node000003"><a xlink:title=" ">
<path fill="none" stroke="#63b8ff" d="M631.2,-213.02C609.47,-215.02 585.94,-217.19 565.32,-219.09"/>
<polygon fill="#63b8ff" stroke="#63b8ff" points="631.74,-216.49 641.37,-212.08 631.1,-209.52 631.74,-216.49"/>
</a>
</g>
</g>
<!-- Node13&#45;&gt;Node3 -->
<g id="edge20_Node000013_Node000003" class="edge">
<title>Node13&#45;&gt;Node3</title>
<g id="a_edge20_Node000013_Node000003"><a xlink:title=" ">
<path fill="none" stroke="#63b8ff" d="M645.75,-181.38C610.6,-192.35 567.1,-205.92 538.51,-214.85"/>
<polygon fill="#63b8ff" stroke="#63b8ff" points="646.92,-184.68 655.42,-178.36 644.84,-178 646.92,-184.68"/>
</a>
</g>
</g>
<!-- Node14&#45;&gt;Node3 -->
<g id="edge22_Node000014_Node000003" class="edge">
<title>Node14&#45;&gt;Node3</title>
<g id="a_edge22_Node000014_Node000003"><a xlink:title=" ">
<path fill="none" stroke="#63b8ff" d="M685.16,-447.72C669.34,-433 646.23,-410.63 628,-389.36 580.28,-333.7 531.27,-260.18 514.26,-234.07"/>
<polygon fill="#63b8ff" stroke="#63b8ff" points="682.98,-450.47 692.71,-454.67 687.72,-445.32 682.98,-450.47"/>
</a>
</g>
</g>
<!-- Node15&#45;&gt;Node7 -->
<g id="edge24_Node000015_Node000007" class="edge">
<title>Node15&#45;&gt;Node7</title>
<g id="a_edge24_Node000015_Node000007"><a xlink:title=" ">
<path fill="none" stroke="#63b8ff" d="M617.66,-115.36C609.2,-115.36 600.61,-115.36 592.16,-115.36"/>
<polygon fill="#63b8ff" stroke="#63b8ff" points="617.91,-118.86 627.91,-115.36 617.91,-111.86 617.91,-118.86"/>
</a>
</g>
</g>
<!-- Node17&#45;&gt;Node18 -->
<g id="edge27_Node000017_Node000018" class="edge">
<title>Node17&#45;&gt;Node18</title>
<g id="a_edge27_Node000017_Node000018"><a xlink:title=" ">
<path fill="none" stroke="#63b8ff" d="M846.42,-356.27C816.64,-359.25 778.93,-363.02 750.02,-365.91"/>
<polygon fill="#63b8ff" stroke="#63b8ff" points="846.99,-359.73 856.59,-355.26 846.29,-352.77 846.99,-359.73"/>
</a>
</g>
</g>
<!-- Node18&#45;&gt;Node3 -->
<g id="edge28_Node000018_Node000003" class="edge">
<title>Node18&#45;&gt;Node3</title>
<g id="a_edge28_Node000018_Node000003"><a xlink:title=" ">
<path fill="none" stroke="#63b8ff" d="M682.56,-354.73C642.02,-324.45 553.93,-258.66 520.87,-233.98"/>
<polygon fill="#63b8ff" stroke="#63b8ff" points="680.57,-357.61 690.67,-360.78 684.75,-352 680.57,-357.61"/>
</a>
</g>
</g>
<!-- Node19&#45;&gt;Node18 -->
<g id="edge30_Node000019_Node000018" class="edge">
<title>Node19&#45;&gt;Node18</title>
<g id="a_edge30_Node000019_Node000018"><a xlink:title=" ">
<path fill="none" stroke="#63b8ff" d="M840.22,-326.28C832.4,-328.19 824.47,-330.24 817,-332.36 787.1,-340.86 753.4,-352.67 730.95,-360.85"/>
<polygon fill="#63b8ff" stroke="#63b8ff" points="841.13,-329.67 850.05,-323.95 839.51,-322.86 841.13,-329.67"/>
</a>
</g>
</g>
<!-- Node20&#45;&gt;Node18 -->
<g id="edge32_Node000020_Node000018" class="edge">
<title>Node20&#45;&gt;Node18</title>
<g id="a_edge32_Node000020_Node000018"><a xlink:title=" ">
<path fill="none" stroke="#63b8ff" d="M832.58,-452.16C827.23,-450.46 821.97,-448.53 817,-446.36 776.64,-428.73 735.43,-396.01 716.38,-379.87"/>
<polygon fill="#63b8ff" stroke="#63b8ff" points="831.69,-455.55 842.27,-455 833.66,-448.83 831.69,-455.55"/>
</a>
</g>
</g>
<!-- Node21&#45;&gt;Node18 -->
<g id="edge34_Node000021_Node000018" class="edge">
<title>Node21&#45;&gt;Node18</title>
<g id="a_edge34_Node000021_Node000018"><a xlink:title=" ">
<path fill="none" stroke="#63b8ff" d="M853.77,-414.84C818.71,-404.33 769.37,-389.52 737.41,-379.94"/>
<polygon fill="#63b8ff" stroke="#63b8ff" points="853.11,-418.3 863.7,-417.82 855.13,-411.6 853.11,-418.3"/>
</a>
</g>
</g>
</g>
</svg>
