<?xml version="1.0" encoding="UTF-8" standalone="no"?>
<!DOCTYPE svg PUBLIC "-//W3C//DTD SVG 1.1//EN"
 "http://www.w3.org/Graphics/SVG/1.1/DTD/svg11.dtd">
<!-- Generated by graphviz version 2.43.0 (0)
 -->
<!-- Title: HttpRequest::setParsingChunkSize Pages: 1 -->
<svg width="1359pt" height="64pt"
 viewBox="0.00 0.00 1359.00 64.00" xmlns="http://www.w3.org/2000/svg" xmlns:xlink="http://www.w3.org/1999/xlink">
<g id="graph0" class="graph" transform="scale(1 1) rotate(0) translate(4 60)">
<title>HttpRequest::setParsingChunkSize</title>
<!-- Node1 -->
<g id="Node000001" class="node">
<title>Node1</title>
<g id="a_Node000001"><a xlink:title=" ">
<polygon fill="#999999" stroke="#666666" points="1351,-37 1166,-37 1166,-18 1351,-18 1351,-37"/>
<text text-anchor="middle" x="1258.5" y="-25" font-family="Helvetica,sans-Serif" font-size="10.00">HttpRequest::setParsingChunkSize</text>
</a>
</g>
</g>
<!-- Node2 -->
<g id="Node000002" class="node">
<title>Node2</title>
<g id="a_Node000002"><a xlink:href="classRequestParse.html#aaacc39eadbaa26e80ed2b6bfc495fbb4" target="_top" xlink:title="Handles Transfer&#45;Encoding: chunked body parsing.">
<polygon fill="white" stroke="#666666" points="1130,-56 975,-56 975,-37 1130,-37 1130,-56"/>
<text text-anchor="middle" x="1052.5" y="-44" font-family="Helvetica,sans-Serif" font-size="10.00">RequestParse::bodyChunked</text>
</a>
</g>
</g>
<!-- Node1&#45;&gt;Node2 -->
<g id="edge1_Node000001_Node000002" class="edge">
<title>Node1&#45;&gt;Node2</title>
<g id="a_edge1_Node000001_Node000002"><a xlink:title=" ">
<path fill="none" stroke="#63b8ff" d="M1155.81,-36.97C1147.17,-37.78 1138.52,-38.58 1130.12,-39.36"/>
<polygon fill="#63b8ff" stroke="#63b8ff" points="1156.31,-40.44 1165.94,-36.03 1155.66,-33.47 1156.31,-40.44"/>
</a>
</g>
</g>
<!-- Node9 -->
<g id="Node000009" class="node">
<title>Node9</title>
<g id="a_Node000009"><a xlink:href="classHttpRequest.html#a42b01e8d23e15e65ad9c712922a6a812" target="_top" xlink:title="Constructs a new HttpRequest with default initialized state.">
<polygon fill="white" stroke="#666666" points="1124.5,-19 980.5,-19 980.5,0 1124.5,0 1124.5,-19"/>
<text text-anchor="middle" x="1052.5" y="-7" font-family="Helvetica,sans-Serif" font-size="10.00">HttpRequest::HttpRequest</text>
</a>
</g>
</g>
<!-- Node1&#45;&gt;Node9 -->
<g id="edge8_Node000001_Node000009" class="edge">
<title>Node1&#45;&gt;Node9</title>
<g id="a_edge8_Node000001_Node000009"><a xlink:title=" ">
<path fill="none" stroke="#63b8ff" d="M1155.83,-18.53C1145.27,-17.6 1134.7,-16.66 1124.58,-15.77"/>
<polygon fill="#63b8ff" stroke="#63b8ff" points="1155.67,-22.03 1165.94,-19.42 1156.29,-15.06 1155.67,-22.03"/>
</a>
</g>
</g>
<!-- Node3 -->
<g id="Node000003" class="node">
<title>Node3</title>
<g id="a_Node000003"><a xlink:href="classRequestParse.html#ab81826a3c30d9a2a4f9d0f8ee6fa855c" target="_top" xlink:title="Processes the message body for both fixed&#45;length and chunked modes.">
<polygon fill="white" stroke="#666666" points="939,-56 826,-56 826,-37 939,-37 939,-56"/>
<text text-anchor="middle" x="882.5" y="-44" font-family="Helvetica,sans-Serif" font-size="10.00">RequestParse::body</text>
</a>
</g>
</g>
<!-- Node2&#45;&gt;Node3 -->
<g id="edge2_Node000002_Node000003" class="edge">
<title>Node2&#45;&gt;Node3</title>
<g id="a_edge2_Node000002_Node000003"><a xlink:title=" ">
<path fill="none" stroke="#63b8ff" d="M964.77,-46.5C956.16,-46.5 947.59,-46.5 939.42,-46.5"/>
<polygon fill="#63b8ff" stroke="#63b8ff" points="964.87,-50 974.87,-46.5 964.87,-43 964.87,-50"/>
</a>
</g>
</g>
<!-- Node4 -->
<g id="Node000004" class="node">
<title>Node4</title>
<g id="a_Node000004"><a xlink:href="classRequestParse.html#a5f2f35f5815fbb977cde05b19af41687" target="_top" xlink:title="Parses and processes raw HTTP request data incrementally.">
<polygon fill="white" stroke="#666666" points="790,-56 608,-56 608,-37 790,-37 790,-56"/>
<text text-anchor="middle" x="699" y="-44" font-family="Helvetica,sans-Serif" font-size="10.00">RequestParse::handleRawRequest</text>
</a>
</g>
</g>
<!-- Node3&#45;&gt;Node4 -->
<g id="edge3_Node000003_Node000004" class="edge">
<title>Node3&#45;&gt;Node4</title>
<g id="a_edge3_Node000003_Node000004"><a xlink:title=" ">
<path fill="none" stroke="#63b8ff" d="M815.34,-46.5C807.14,-46.5 798.64,-46.5 790.15,-46.5"/>
<polygon fill="#63b8ff" stroke="#63b8ff" points="815.56,-50 825.56,-46.5 815.56,-43 815.56,-50"/>
</a>
</g>
</g>
<!-- Node5 -->
<g id="Node000005" class="node">
<title>Node5</title>
<g id="a_Node000005"><a xlink:href="classClientConnection.html#a835586ce27b3c3598394bde3fff14211" target="_top" xlink:title="Receives incoming data from the client socket.">
<polygon fill="white" stroke="#666666" points="572,-56 422,-56 422,-37 572,-37 572,-56"/>
<text text-anchor="middle" x="497" y="-44" font-family="Helvetica,sans-Serif" font-size="10.00">ClientConnection::recvData</text>
</a>
</g>
</g>
<!-- Node4&#45;&gt;Node5 -->
<g id="edge4_Node000004_Node000005" class="edge">
<title>Node4&#45;&gt;Node5</title>
<g id="a_edge4_Node000004_Node000005"><a xlink:title=" ">
<path fill="none" stroke="#63b8ff" d="M597.86,-46.5C589.25,-46.5 580.64,-46.5 572.29,-46.5"/>
<polygon fill="#63b8ff" stroke="#63b8ff" points="597.95,-50 607.95,-46.5 597.95,-43 597.95,-50"/>
</a>
</g>
</g>
<!-- Node6 -->
<g id="Node000006" class="node">
<title>Node6</title>
<g id="a_Node000006"><a xlink:href="classWebServer.html#a8cbf37c0a840305ce15e8648566c9ce4" target="_top" xlink:title="Handles incoming data from a connected client.">
<polygon fill="white" stroke="#666666" points="386,-56 235,-56 235,-37 386,-37 386,-56"/>
<text text-anchor="middle" x="310.5" y="-44" font-family="Helvetica,sans-Serif" font-size="10.00">WebServer::receiveRequest</text>
</a>
</g>
</g>
<!-- Node5&#45;&gt;Node6 -->
<g id="edge5_Node000005_Node000006" class="edge">
<title>Node5&#45;&gt;Node6</title>
<g id="a_edge5_Node000005_Node000006"><a xlink:title=" ">
<path fill="none" stroke="#63b8ff" d="M411.51,-46.5C403.07,-46.5 394.53,-46.5 386.19,-46.5"/>
<polygon fill="#63b8ff" stroke="#63b8ff" points="411.75,-50 421.75,-46.5 411.75,-43 411.75,-50"/>
</a>
</g>
</g>
<!-- Node7 -->
<g id="Node000007" class="node">
<title>Node7</title>
<g id="a_Node000007"><a xlink:href="classWebServer.html#af39709e3744077e019aa76555f03a42e" target="_top" xlink:title="Main event loop — monitors sockets, dispatches requests, and handles responses.">
<polygon fill="white" stroke="#666666" points="199,-56 77,-56 77,-37 199,-37 199,-56"/>
<text text-anchor="middle" x="138" y="-44" font-family="Helvetica,sans-Serif" font-size="10.00">WebServer::runServer</text>
</a>
</g>
</g>
<!-- Node6&#45;&gt;Node7 -->
<g id="edge6_Node000006_Node000007" class="edge">
<title>Node6&#45;&gt;Node7</title>
<g id="a_edge6_Node000006_Node000007"><a xlink:title=" ">
<path fill="none" stroke="#63b8ff" d="M224.63,-46.5C216.02,-46.5 207.4,-46.5 199.13,-46.5"/>
<polygon fill="#63b8ff" stroke="#63b8ff" points="224.72,-50 234.72,-46.5 224.72,-43 224.72,-50"/>
</a>
</g>
</g>
<!-- Node8 -->
<g id="Node000008" class="node">
<title>Node8</title>
<g id="a_Node000008"><a xlink:href="main_8cpp.html#a3c04138a5bfe5d72780bb7e82a18e627" target="_top" xlink:title="Entry point of the Webservinho web server.">
<polygon fill="white" stroke="#666666" points="41,-56 0,-56 0,-37 41,-37 41,-56"/>
<text text-anchor="middle" x="20.5" y="-44" font-family="Helvetica,sans-Serif" font-size="10.00">main</text>
</a>
</g>
</g>
<!-- Node7&#45;&gt;Node8 -->
<g id="edge7_Node000007_Node000008" class="edge">
<title>Node7&#45;&gt;Node8</title>
<g id="a_edge7_Node000007_Node000008"><a xlink:title=" ">
<path fill="none" stroke="#63b8ff" d="M66.66,-46.5C57.35,-46.5 48.51,-46.5 41.15,-46.5"/>
<polygon fill="#63b8ff" stroke="#63b8ff" points="66.88,-50 76.88,-46.5 66.88,-43 66.88,-50"/>
</a>
</g>
</g>
</g>
</svg>
