<?xml version="1.0" encoding="UTF-8" standalone="no"?>
<!DOCTYPE svg PUBLIC "-//W3C//DTD SVG 1.1//EN"
 "http://www.w3.org/Graphics/SVG/1.1/DTD/svg11.dtd">
<!-- Generated by graphviz version 2.43.0 (0)
 -->
<!-- Title: Router::isCgi Pages: 1 -->
<svg width="681pt" height="218pt"
 viewBox="0.00 0.00 681.00 217.50" xmlns="http://www.w3.org/2000/svg" xmlns:xlink="http://www.w3.org/1999/xlink">
<g id="graph0" class="graph" transform="scale(1 1) rotate(0) translate(4 213.5)">
<title>Router::isCgi</title>
<!-- Node1 -->
<g id="Node000001" class="node">
<title>Node1</title>
<g id="a_Node000001"><a xlink:title="Determines if the request targets a valid CGI script.">
<polygon fill="#999999" stroke="#666666" points="79,-116.5 0,-116.5 0,-97.5 79,-97.5 79,-116.5"/>
<text text-anchor="middle" x="39.5" y="-104.5" font-family="Helvetica,sans-Serif" font-size="10.00">Router::isCgi</text>
</a>
</g>
</g>
<!-- Node2 -->
<g id="Node000002" class="node">
<title>Node2</title>
<g id="a_Node000002"><a xlink:href="classLocationConfig.html#abd29007a675ad2835d85354d8a9778c4" target="_top" xlink:title=" ">
<polygon fill="white" stroke="#666666" points="271,-209.5 124,-209.5 124,-190.5 271,-190.5 271,-209.5"/>
<text text-anchor="middle" x="197.5" y="-197.5" font-family="Helvetica,sans-Serif" font-size="10.00">LocationConfig::getCgiPath</text>
</a>
</g>
</g>
<!-- Node1&#45;&gt;Node2 -->
<g id="edge1_Node000001_Node000002" class="edge">
<title>Node1&#45;&gt;Node2</title>
<g id="a_edge1_Node000001_Node000002"><a xlink:title=" ">
<path fill="none" stroke="#63b8ff" d="M47.08,-116.54C58.76,-132.72 84.77,-165.37 115,-182 118.3,-183.82 121.78,-185.45 125.36,-186.92"/>
<polygon fill="#63b8ff" stroke="#63b8ff" points="124.42,-190.31 135.02,-190.44 126.82,-183.73 124.42,-190.31"/>
</a>
</g>
</g>
<!-- Node3 -->
<g id="Node000003" class="node">
<title>Node3</title>
<g id="a_Node000003"><a xlink:href="classHttpRequest.html#a9cd740d746bcd7fa6e4fcb8c537879ad" target="_top" xlink:title="Returns the resolved filesystem path corresponding to the URI.">
<polygon fill="white" stroke="#666666" points="280,-172.5 115,-172.5 115,-153.5 280,-153.5 280,-172.5"/>
<text text-anchor="middle" x="197.5" y="-160.5" font-family="Helvetica,sans-Serif" font-size="10.00">HttpRequest::getResolvedPath</text>
</a>
</g>
</g>
<!-- Node1&#45;&gt;Node3 -->
<g id="edge2_Node000001_Node000003" class="edge">
<title>Node1&#45;&gt;Node3</title>
<g id="a_edge2_Node000001_Node000003"><a xlink:title=" ">
<path fill="none" stroke="#63b8ff" d="M56.25,-116.53C70.97,-125.07 93.82,-137.4 115,-145 121,-147.15 127.34,-149.1 133.73,-150.84"/>
<polygon fill="#63b8ff" stroke="#63b8ff" points="133.21,-154.32 143.77,-153.42 134.95,-147.54 133.21,-154.32"/>
</a>
</g>
</g>
<!-- Node4 -->
<g id="Node000004" class="node">
<title>Node4</title>
<g id="a_Node000004"><a xlink:href="classRouter.html#ab22a05b1459f0c92a77aab7d70fadfaa" target="_top" xlink:title="Checks whether a file extension matches a configured CGI mapping.">
<polygon fill="white" stroke="#666666" points="265.5,-135.5 129.5,-135.5 129.5,-116.5 265.5,-116.5 265.5,-135.5"/>
<text text-anchor="middle" x="197.5" y="-123.5" font-family="Helvetica,sans-Serif" font-size="10.00">Router::hasCgiExtension</text>
</a>
</g>
</g>
<!-- Node1&#45;&gt;Node4 -->
<g id="edge3_Node000001_Node000004" class="edge">
<title>Node1&#45;&gt;Node4</title>
<g id="a_edge3_Node000001_Node000004"><a xlink:title=" ">
<path fill="none" stroke="#63b8ff" d="M79.06,-111.7C91.26,-113.18 105.2,-114.88 119.12,-116.58"/>
<polygon fill="#63b8ff" stroke="#63b8ff" points="118.87,-120.07 129.22,-117.81 119.72,-113.12 118.87,-120.07"/>
</a>
</g>
</g>
<!-- Node7 -->
<g id="Node000007" class="node">
<title>Node7</title>
<g id="a_Node000007"><a xlink:href="classLogger.html#a4aa4d7c3b98f6e12e7ea8253da5ea0cd" target="_top" xlink:title="Returns the singleton instance of the Logger.">
<polygon fill="white" stroke="#666666" points="246,-98.5 149,-98.5 149,-79.5 246,-79.5 246,-98.5"/>
<text text-anchor="middle" x="197.5" y="-86.5" font-family="Helvetica,sans-Serif" font-size="10.00">Logger::instance</text>
</a>
</g>
</g>
<!-- Node1&#45;&gt;Node7 -->
<g id="edge6_Node000001_Node000007" class="edge">
<title>Node1&#45;&gt;Node7</title>
<g id="a_edge6_Node000001_Node000007"><a xlink:title=" ">
<path fill="none" stroke="#63b8ff" d="M79.06,-102.55C97.04,-100.48 118.81,-97.96 138.7,-95.67"/>
<polygon fill="#63b8ff" stroke="#63b8ff" points="139.37,-99.12 148.9,-94.49 138.57,-92.16 139.37,-99.12"/>
</a>
</g>
</g>
<!-- Node8 -->
<g id="Node000008" class="node">
<title>Node8</title>
<g id="a_Node000008"><a xlink:href="classLogger.html#a3d3f0801eeaf39b33a906ea8569c19b2" target="_top" xlink:title="Writes a log entry with timestamp, level, and message.">
<polygon fill="white" stroke="#666666" points="233,-61.5 162,-61.5 162,-42.5 233,-42.5 233,-61.5"/>
<text text-anchor="middle" x="197.5" y="-49.5" font-family="Helvetica,sans-Serif" font-size="10.00">Logger::log</text>
</a>
</g>
</g>
<!-- Node1&#45;&gt;Node8 -->
<g id="edge7_Node000001_Node000008" class="edge">
<title>Node1&#45;&gt;Node8</title>
<g id="a_edge7_Node000001_Node000008"><a xlink:title=" ">
<path fill="none" stroke="#63b8ff" d="M57.5,-97.45C72.3,-89.45 94.55,-78.23 115,-71 126.77,-66.84 139.83,-63.33 151.97,-60.51"/>
<polygon fill="#63b8ff" stroke="#63b8ff" points="152.91,-63.88 161.91,-58.3 151.39,-57.05 152.91,-63.88"/>
</a>
</g>
</g>
<!-- Node10 -->
<g id="Node000010" class="node">
<title>Node10</title>
<g id="a_Node000010"><a xlink:href="classHttpResponse.html#af02b3b82a638bfbf23226b9f3bf06843" target="_top" xlink:title="Sets the HTTP status code and updates the corresponding reason phrase.">
<polygon fill="white" stroke="#666666" points="278,-24.5 117,-24.5 117,-5.5 278,-5.5 278,-24.5"/>
<text text-anchor="middle" x="197.5" y="-12.5" font-family="Helvetica,sans-Serif" font-size="10.00">HttpResponse::setStatusCode</text>
</a>
</g>
</g>
<!-- Node1&#45;&gt;Node10 -->
<g id="edge9_Node000001_Node000010" class="edge">
<title>Node1&#45;&gt;Node10</title>
<g id="a_edge9_Node000001_Node000010"><a xlink:title=" ">
<path fill="none" stroke="#63b8ff" d="M47.54,-97.25C59.53,-81.4 85.48,-50.21 115,-34 119.23,-31.67 123.74,-29.63 128.39,-27.84"/>
<polygon fill="#63b8ff" stroke="#63b8ff" points="129.74,-31.07 138.05,-24.5 127.46,-24.46 129.74,-31.07"/>
</a>
</g>
</g>
<!-- Node5 -->
<g id="Node000005" class="node">
<title>Node5</title>
<g id="a_Node000005"><a xlink:href="classLocationConfig.html#acdf2981a9b52e572d98e785aa4881f68" target="_top" xlink:title=" ">
<polygon fill="white" stroke="#666666" points="490.5,-153.5 316.5,-153.5 316.5,-134.5 490.5,-134.5 490.5,-153.5"/>
<text text-anchor="middle" x="403.5" y="-141.5" font-family="Helvetica,sans-Serif" font-size="10.00">LocationConfig::getCgiExtension</text>
</a>
</g>
</g>
<!-- Node4&#45;&gt;Node5 -->
<g id="edge4_Node000004_Node000005" class="edge">
<title>Node4&#45;&gt;Node5</title>
<g id="a_edge4_Node000004_Node000005"><a xlink:title=" ">
<path fill="none" stroke="#63b8ff" d="M265.58,-131.92C278.66,-133.07 292.62,-134.3 306.43,-135.52"/>
<polygon fill="#63b8ff" stroke="#63b8ff" points="306.17,-139.01 316.44,-136.41 306.79,-132.04 306.17,-139.01"/>
</a>
</g>
</g>
<!-- Node6 -->
<g id="Node000006" class="node">
<title>Node6</title>
<g id="a_Node000006"><a xlink:href="string__utils_8hpp.html#afbeab407a81774ee771701ff3a07f113" target="_top" xlink:title="Extracts the file extension from a path, including the dot.">
<polygon fill="white" stroke="#666666" points="452.5,-116.5 354.5,-116.5 354.5,-97.5 452.5,-97.5 452.5,-116.5"/>
<text text-anchor="middle" x="403.5" y="-104.5" font-family="Helvetica,sans-Serif" font-size="10.00">getFileExtension</text>
</a>
</g>
</g>
<!-- Node4&#45;&gt;Node6 -->
<g id="edge5_Node000004_Node000006" class="edge">
<title>Node4&#45;&gt;Node6</title>
<g id="a_edge5_Node000004_Node000006"><a xlink:title=" ">
<path fill="none" stroke="#63b8ff" d="M265.58,-119.75C290.98,-117.39 319.67,-114.71 344.2,-112.43"/>
<polygon fill="#63b8ff" stroke="#63b8ff" points="344.81,-115.89 354.44,-111.48 344.16,-108.92 344.81,-115.89"/>
</a>
</g>
</g>
<!-- Node9 -->
<g id="Node000009" class="node">
<title>Node9</title>
<g id="a_Node000009"><a xlink:href="classLogger.html#a19f9ef22095a67c9fe420c9d6e761fc2" target="_top" xlink:title="Converts a LogLevel enum value to its string label.">
<polygon fill="white" stroke="#666666" points="463,-61.5 344,-61.5 344,-42.5 463,-42.5 463,-61.5"/>
<text text-anchor="middle" x="403.5" y="-49.5" font-family="Helvetica,sans-Serif" font-size="10.00">Logger::levelToString</text>
</a>
</g>
</g>
<!-- Node8&#45;&gt;Node9 -->
<g id="edge8_Node000008_Node000009" class="edge">
<title>Node8&#45;&gt;Node9</title>
<g id="a_edge8_Node000008_Node000009"><a xlink:title=" ">
<path fill="none" stroke="#63b8ff" d="M233.11,-52C260.51,-52 299.66,-52 333.42,-52"/>
<polygon fill="#63b8ff" stroke="#63b8ff" points="333.7,-55.5 343.7,-52 333.7,-48.5 333.7,-55.5"/>
</a>
</g>
</g>
<!-- Node11 -->
<g id="Node000011" class="node">
<title>Node11</title>
<g id="a_Node000011"><a xlink:href="classHttpResponse.html#a98bb39b2757912eae4f667db80e3e6a4" target="_top" xlink:title="Sets the textual reason phrase for a given status code.">
<polygon fill="white" stroke="#666666" points="491,-24.5 316,-24.5 316,-5.5 491,-5.5 491,-24.5"/>
<text text-anchor="middle" x="403.5" y="-12.5" font-family="Helvetica,sans-Serif" font-size="10.00">HttpResponse::setReasonPhrase</text>
</a>
</g>
</g>
<!-- Node10&#45;&gt;Node11 -->
<g id="edge10_Node000010_Node000011" class="edge">
<title>Node10&#45;&gt;Node11</title>
<g id="a_edge10_Node000010_Node000011"><a xlink:title=" ">
<path fill="none" stroke="#63b8ff" d="M278.25,-15C287.18,-15 296.35,-15 305.47,-15"/>
<polygon fill="#63b8ff" stroke="#63b8ff" points="305.72,-18.5 315.72,-15 305.72,-11.5 305.72,-18.5"/>
</a>
</g>
</g>
<!-- Node12 -->
<g id="Node000012" class="node">
<title>Node12</title>
<g id="a_Node000012"><a xlink:href="classHttpResponse.html#ae09f25f31d917b068fae8bbf07b29c19" target="_top" xlink:title="Converts an HTTP status code to its standard reason phrase string.">
<polygon fill="white" stroke="#666666" points="673,-30 527,-30 527,0 673,0 673,-30"/>
<text text-anchor="start" x="535" y="-18" font-family="Helvetica,sans-Serif" font-size="10.00">HttpResponse::statusCode</text>
<text text-anchor="middle" x="600" y="-7" font-family="Helvetica,sans-Serif" font-size="10.00">ToString</text>
</a>
</g>
</g>
<!-- Node11&#45;&gt;Node12 -->
<g id="edge11_Node000011_Node000012" class="edge">
<title>Node11&#45;&gt;Node12</title>
<g id="a_edge11_Node000011_Node000012"><a xlink:title=" ">
<path fill="none" stroke="#63b8ff" d="M491.23,-15C499.72,-15 508.33,-15 516.78,-15"/>
<polygon fill="#63b8ff" stroke="#63b8ff" points="517,-18.5 527,-15 517,-11.5 517,-18.5"/>
</a>
</g>
</g>
</g>
</svg>
