<?xml version="1.0" encoding="UTF-8" standalone="no"?>
<!DOCTYPE svg PUBLIC "-//W3C//DTD SVG 1.1//EN"
 "http://www.w3.org/Graphics/SVG/1.1/DTD/svg11.dtd">
<!-- Generated by graphviz version 2.43.0 (0)
 -->
<!-- Title: ClientConnection Pages: 1 -->
<svg width="302pt" height="159pt"
 viewBox="0.00 0.00 301.50 159.00" xmlns="http://www.w3.org/2000/svg" xmlns:xlink="http://www.w3.org/1999/xlink">
<g id="graph0" class="graph" transform="scale(1 1) rotate(0) translate(4 155)">
<title>ClientConnection</title>
<!-- Node1 -->
<g id="Node000001" class="node">
<title>Node1</title>
<g id="a_Node000001"><a xlink:title=" ">
<polygon fill="#999999" stroke="#666666" points="185.5,-19 85.5,-19 85.5,0 185.5,0 185.5,-19"/>
<text text-anchor="middle" x="135.5" y="-7" font-family="Helvetica,sans-Serif" font-size="10.00">ClientConnection</text>
</a>
</g>
</g>
<!-- Node2 -->
<g id="Node000002" class="node">
<title>Node2</title>
<g id="a_Node000002"><a xlink:href="classServerConfig.html" target="_top" xlink:title=" ">
<polygon fill="white" stroke="#666666" points="79,-85 0,-85 0,-66 79,-66 79,-85"/>
<text text-anchor="middle" x="39.5" y="-73" font-family="Helvetica,sans-Serif" font-size="10.00">ServerConfig</text>
</a>
</g>
</g>
<!-- Node2&#45;&gt;Node1 -->
<g id="edge1_Node000001_Node000002" class="edge">
<title>Node2&#45;&gt;Node1</title>
<g id="a_edge1_Node000001_Node000002"><a xlink:title=" ">
<path fill="none" stroke="#9a32cd" stroke-dasharray="5,2" d="M46.81,-56.51C50.37,-49.62 55.25,-42.18 61.5,-37 71.38,-28.81 83.98,-23.07 95.97,-19.07"/>
<polygon fill="#9a32cd" stroke="#9a32cd" points="43.5,-55.34 42.54,-65.89 49.87,-58.24 43.5,-55.34"/>
</a>
</g>
<text text-anchor="middle" x="96.5" y="-40" font-family="Helvetica,sans-Serif" font-size="10.00" fill="grey"> _serverConfig</text>
</g>
<!-- Node3 -->
<g id="Node000003" class="node">
<title>Node3</title>
<g id="a_Node000003"><a xlink:href="classHttpRequest.html" target="_top" xlink:title=" ">
<polygon fill="white" stroke="#666666" points="174,-85 97,-85 97,-66 174,-66 174,-85"/>
<text text-anchor="middle" x="135.5" y="-73" font-family="Helvetica,sans-Serif" font-size="10.00">HttpRequest</text>
</a>
</g>
</g>
<!-- Node3&#45;&gt;Node1 -->
<g id="edge2_Node000001_Node000003" class="edge">
<title>Node3&#45;&gt;Node1</title>
<g id="a_edge2_Node000001_Node000003"><a xlink:title=" ">
<path fill="none" stroke="#9a32cd" stroke-dasharray="5,2" d="M135.5,-55.58C135.5,-43.63 135.5,-28.72 135.5,-19.41"/>
<polygon fill="#9a32cd" stroke="#9a32cd" points="132,-55.87 135.5,-65.87 139,-55.87 132,-55.87"/>
</a>
</g>
<text text-anchor="middle" x="169.5" y="-40" font-family="Helvetica,sans-Serif" font-size="10.00" fill="grey"> _httpRequest</text>
</g>
<!-- Node4 -->
<g id="Node000004" class="node">
<title>Node4</title>
<g id="a_Node000004"><a xlink:href="classRequestMeta.html" target="_top" xlink:title=" ">
<polygon fill="white" stroke="#666666" points="176,-151 95,-151 95,-132 176,-132 176,-151"/>
<text text-anchor="middle" x="135.5" y="-139" font-family="Helvetica,sans-Serif" font-size="10.00">RequestMeta</text>
</a>
</g>
</g>
<!-- Node4&#45;&gt;Node3 -->
<g id="edge3_Node000003_Node000004" class="edge">
<title>Node4&#45;&gt;Node3</title>
<g id="a_edge3_Node000003_Node000004"><a xlink:title=" ">
<path fill="none" stroke="#9a32cd" stroke-dasharray="5,2" d="M135.5,-121.58C135.5,-109.63 135.5,-94.72 135.5,-85.41"/>
<polygon fill="#9a32cd" stroke="#9a32cd" points="132,-121.87 135.5,-131.87 139,-121.87 132,-121.87"/>
</a>
</g>
<text text-anchor="middle" x="152.5" y="-106" font-family="Helvetica,sans-Serif" font-size="10.00" fill="grey"> _meta</text>
</g>
<!-- Node5 -->
<g id="Node000005" class="node">
<title>Node5</title>
<g id="a_Node000005"><a xlink:href="classHttpResponse.html" target="_top" xlink:title=" ">
<polygon fill="white" stroke="#666666" points="277,-85 192,-85 192,-66 277,-66 277,-85"/>
<text text-anchor="middle" x="234.5" y="-73" font-family="Helvetica,sans-Serif" font-size="10.00">HttpResponse</text>
</a>
</g>
</g>
<!-- Node5&#45;&gt;Node1 -->
<g id="edge4_Node000001_Node000005" class="edge">
<title>Node5&#45;&gt;Node1</title>
<g id="a_edge4_Node000001_Node000005"><a xlink:title=" ">
<path fill="none" stroke="#9a32cd" stroke-dasharray="5,2" d="M225.03,-57.03C220.5,-50.01 214.53,-42.34 207.5,-37 196.89,-28.94 183.59,-23.14 171.31,-19.05"/>
<polygon fill="#9a32cd" stroke="#9a32cd" points="222.17,-59.08 230.27,-65.91 228.2,-55.52 222.17,-59.08"/>
</a>
</g>
<text text-anchor="middle" x="255.5" y="-40" font-family="Helvetica,sans-Serif" font-size="10.00" fill="grey"> _httpResponse</text>
</g>
</g>
</svg>
