<?xml version="1.0" encoding="UTF-8" standalone="no"?>
<!DOCTYPE svg PUBLIC "-//W3C//DTD SVG 1.1//EN"
 "http://www.w3.org/Graphics/SVG/1.1/DTD/svg11.dtd">
<!-- Generated by graphviz version 2.43.0 (0)
 -->
<!-- Title: includes/init/ClientConnection.hpp Pages: 1 -->
<svg width="1656pt" height="214pt"
 viewBox="0.00 0.00 1655.65 214.00" xmlns="http://www.w3.org/2000/svg" xmlns:xlink="http://www.w3.org/1999/xlink">
<g id="graph0" class="graph" transform="scale(1 1) rotate(0) translate(4 210)">
<title>includes/init/ClientConnection.hpp</title>
<!-- Node1 -->
<g id="Node000001" class="node">
<title>Node1</title>
<g id="a_Node000001"><a xlink:title=" ">
<polygon fill="#999999" stroke="#666666" points="637.15,-206 454.15,-206 454.15,-187 637.15,-187 637.15,-206"/>
<text text-anchor="middle" x="545.65" y="-194" font-family="Helvetica,sans-Serif" font-size="10.00">includes/init/ClientConnection.hpp</text>
</a>
</g>
</g>
<!-- Node2 -->
<g id="Node000002" class="node">
<title>Node2</title>
<g id="a_Node000002"><a xlink:href="CgiHandler_8hpp.html" target="_top" xlink:title=" ">
<polygon fill="white" stroke="#666666" points="515.15,-151 404.15,-151 404.15,-121 515.15,-121 515.15,-151"/>
<text text-anchor="start" x="412.15" y="-139" font-family="Helvetica,sans-Serif" font-size="10.00">includes/dispatcher</text>
<text text-anchor="middle" x="459.65" y="-128" font-family="Helvetica,sans-Serif" font-size="10.00">/CgiHandler.hpp</text>
</a>
</g>
</g>
<!-- Node1&#45;&gt;Node2 -->
<g id="edge1_Node000001_Node000002" class="edge">
<title>Node1&#45;&gt;Node2</title>
<g id="a_edge1_Node000001_Node000002"><a xlink:title=" ">
<path fill="none" stroke="#63b8ff" d="M524.38,-181.03C510.96,-171.9 493.71,-160.17 480.4,-151.11"/>
<polygon fill="#63b8ff" stroke="#63b8ff" points="522.72,-184.14 532.96,-186.87 526.66,-178.35 522.72,-184.14"/>
</a>
</g>
</g>
<!-- Node8 -->
<g id="Node000008" class="node">
<title>Node8</title>
<g id="a_Node000008"><a xlink:href="Dispatcher_8hpp.html" target="_top" xlink:title=" ">
<polygon fill="white" stroke="#666666" points="230.15,-151 119.15,-151 119.15,-121 230.15,-121 230.15,-151"/>
<text text-anchor="start" x="127.15" y="-139" font-family="Helvetica,sans-Serif" font-size="10.00">includes/dispatcher</text>
<text text-anchor="middle" x="174.65" y="-128" font-family="Helvetica,sans-Serif" font-size="10.00">/Dispatcher.hpp</text>
</a>
</g>
</g>
<!-- Node1&#45;&gt;Node8 -->
<g id="edge7_Node000001_Node000008" class="edge">
<title>Node1&#45;&gt;Node8</title>
<g id="a_edge7_Node000001_Node000008"><a xlink:title=" ">
<path fill="none" stroke="#63b8ff" d="M467.01,-185.67C404.84,-177.53 315.95,-165.04 238.65,-151 235.96,-150.51 233.22,-149.99 230.45,-149.45"/>
<polygon fill="#63b8ff" stroke="#63b8ff" points="466.77,-189.17 477.14,-186.99 467.67,-182.23 466.77,-189.17"/>
</a>
</g>
</g>
<!-- Node9 -->
<g id="Node000009" class="node">
<title>Node9</title>
<g id="a_Node000009"><a xlink:href="Router_8hpp.html" target="_top" xlink:title=" ">
<polygon fill="white" stroke="#666666" points="359.15,-151 248.15,-151 248.15,-121 359.15,-121 359.15,-151"/>
<text text-anchor="start" x="256.15" y="-139" font-family="Helvetica,sans-Serif" font-size="10.00">includes/dispatcher</text>
<text text-anchor="middle" x="303.65" y="-128" font-family="Helvetica,sans-Serif" font-size="10.00">/Router.hpp</text>
</a>
</g>
</g>
<!-- Node1&#45;&gt;Node9 -->
<g id="edge10_Node000001_Node000009" class="edge">
<title>Node1&#45;&gt;Node9</title>
<g id="a_edge10_Node000001_Node000009"><a xlink:title=" ">
<path fill="none" stroke="#63b8ff" d="M500.74,-184.64C460.85,-175 402.39,-160.87 359.5,-150.5"/>
<polygon fill="#63b8ff" stroke="#63b8ff" points="499.92,-188.05 510.46,-186.99 501.56,-181.24 499.92,-188.05"/>
</a>
</g>
</g>
<!-- Node11 -->
<g id="Node000011" class="node">
<title>Node11</title>
<g id="a_Node000011"><a xlink:href="ServerSocket_8hpp.html" target="_top" xlink:title=" ">
<polygon fill="white" stroke="#666666" points="1417.65,-145.5 1253.65,-145.5 1253.65,-126.5 1417.65,-126.5 1417.65,-145.5"/>
<text text-anchor="middle" x="1335.65" y="-133.5" font-family="Helvetica,sans-Serif" font-size="10.00">includes/init/ServerSocket.hpp</text>
</a>
</g>
</g>
<!-- Node1&#45;&gt;Node11 -->
<g id="edge13_Node000001_Node000011" class="edge">
<title>Node1&#45;&gt;Node11</title>
<g id="a_edge13_Node000001_Node000011"><a xlink:title=" ">
<path fill="none" stroke="#63b8ff" d="M647.65,-187.95C806.09,-176.21 1108.16,-153.85 1253.51,-143.08"/>
<polygon fill="#63b8ff" stroke="#63b8ff" points="647.14,-184.47 637.43,-188.7 647.66,-191.46 647.14,-184.47"/>
</a>
</g>
</g>
<!-- Node13 -->
<g id="Node000013" class="node">
<title>Node13</title>
<g id="a_Node000013"><a xlink:href="ResponseBuilder_8hpp.html" target="_top" xlink:title=" ">
<polygon fill="white" stroke="#666666" points="780.15,-151 625.15,-151 625.15,-121 780.15,-121 780.15,-151"/>
<text text-anchor="start" x="633.15" y="-139" font-family="Helvetica,sans-Serif" font-size="10.00">includes/response/Response</text>
<text text-anchor="middle" x="702.65" y="-128" font-family="Helvetica,sans-Serif" font-size="10.00">Builder.hpp</text>
</a>
</g>
</g>
<!-- Node1&#45;&gt;Node13 -->
<g id="edge17_Node000001_Node000013" class="edge">
<title>Node1&#45;&gt;Node13</title>
<g id="a_edge17_Node000001_Node000013"><a xlink:title=" ">
<path fill="none" stroke="#63b8ff" d="M577.97,-183.46C603.22,-174.05 638.36,-160.95 664.9,-151.06"/>
<polygon fill="#63b8ff" stroke="#63b8ff" points="576.62,-180.22 568.48,-186.99 579.07,-186.78 576.62,-180.22"/>
</a>
</g>
</g>
<!-- Node16 -->
<g id="Node000016" class="node">
<title>Node16</title>
<g id="a_Node000016"><a xlink:href="ClientConnection_8cpp.html" target="_top" xlink:title=" ">
<polygon fill="white" stroke="#666666" points="1449.15,-79.5 1288.15,-79.5 1288.15,-60.5 1449.15,-60.5 1449.15,-79.5"/>
<text text-anchor="middle" x="1368.65" y="-67.5" font-family="Helvetica,sans-Serif" font-size="10.00">srcs/init/ClientConnection.cpp</text>
</a>
</g>
</g>
<!-- Node1&#45;&gt;Node16 -->
<g id="edge25_Node000001_Node000016" class="edge">
<title>Node1&#45;&gt;Node16</title>
<g id="a_edge25_Node000001_Node000016"><a xlink:title=" ">
<path fill="none" stroke="#63b8ff" d="M612.81,-185.48C741.86,-166.21 1033.41,-122.56 1278.65,-85 1290.06,-83.25 1302.28,-81.36 1313.92,-79.56"/>
<polygon fill="#63b8ff" stroke="#63b8ff" points="612.06,-182.06 602.69,-186.99 613.09,-188.98 612.06,-182.06"/>
</a>
</g>
</g>
<!-- Node3 -->
<g id="Node000003" class="node">
<title>Node3</title>
<g id="a_Node000003"><a xlink:href="WebServer_8hpp.html" target="_top" xlink:title=" ">
<polygon fill="white" stroke="#666666" points="1269.65,-79.5 1117.65,-79.5 1117.65,-60.5 1269.65,-60.5 1269.65,-79.5"/>
<text text-anchor="middle" x="1193.65" y="-67.5" font-family="Helvetica,sans-Serif" font-size="10.00">includes/init/WebServer.hpp</text>
</a>
</g>
</g>
<!-- Node2&#45;&gt;Node3 -->
<g id="edge2_Node000002_Node000003" class="edge">
<title>Node2&#45;&gt;Node3</title>
<g id="a_edge2_Node000002_Node000003"><a xlink:title=" ">
<path fill="none" stroke="#63b8ff" d="M525.25,-128.96C553.12,-126.43 585.96,-123.51 615.65,-121 817.78,-103.93 868.73,-104.47 1070.65,-85 1087.44,-83.38 1105.5,-81.44 1122.47,-79.52"/>
<polygon fill="#63b8ff" stroke="#63b8ff" points="524.87,-125.48 515.23,-129.87 525.5,-132.45 524.87,-125.48"/>
</a>
</g>
</g>
<!-- Node6 -->
<g id="Node000006" class="node">
<title>Node6</title>
<g id="a_Node000006"><a xlink:href="CgiHandler_8cpp.html" target="_top" xlink:title=" ">
<polygon fill="white" stroke="#666666" points="532.15,-79.5 365.15,-79.5 365.15,-60.5 532.15,-60.5 532.15,-79.5"/>
<text text-anchor="middle" x="448.65" y="-67.5" font-family="Helvetica,sans-Serif" font-size="10.00">srcs/dispatcher/CgiHandler.cpp</text>
</a>
</g>
</g>
<!-- Node2&#45;&gt;Node6 -->
<g id="edge5_Node000002_Node000006" class="edge">
<title>Node2&#45;&gt;Node6</title>
<g id="a_edge5_Node000002_Node000006"><a xlink:title=" ">
<path fill="none" stroke="#63b8ff" d="M455.51,-110.94C453.64,-100.06 451.55,-87.86 450.17,-79.84"/>
<polygon fill="#63b8ff" stroke="#63b8ff" points="452.06,-111.53 457.21,-120.8 458.96,-110.35 452.06,-111.53"/>
</a>
</g>
</g>
<!-- Node7 -->
<g id="Node000007" class="node">
<title>Node7</title>
<g id="a_Node000007"><a xlink:href="Dispatcher_8cpp.html" target="_top" xlink:title=" ">
<polygon fill="white" stroke="#666666" points="347.15,-79.5 182.15,-79.5 182.15,-60.5 347.15,-60.5 347.15,-79.5"/>
<text text-anchor="middle" x="264.65" y="-67.5" font-family="Helvetica,sans-Serif" font-size="10.00">srcs/dispatcher/Dispatcher.cpp</text>
</a>
</g>
</g>
<!-- Node2&#45;&gt;Node7 -->
<g id="edge6_Node000002_Node000007" class="edge">
<title>Node2&#45;&gt;Node7</title>
<g id="a_edge6_Node000002_Node000007"><a xlink:title=" ">
<path fill="none" stroke="#63b8ff" d="M407.04,-117.74C369.35,-105.36 320.19,-89.23 290.6,-79.52"/>
<polygon fill="#63b8ff" stroke="#63b8ff" points="406.26,-121.16 416.85,-120.95 408.44,-114.51 406.26,-121.16"/>
</a>
</g>
</g>
<!-- Node4 -->
<g id="Node000004" class="node">
<title>Node4</title>
<g id="a_Node000004"><a xlink:href="WebServer_8cpp.html" target="_top" xlink:title=" ">
<polygon fill="white" stroke="#666666" points="1154.65,-19 1024.65,-19 1024.65,0 1154.65,0 1154.65,-19"/>
<text text-anchor="middle" x="1089.65" y="-7" font-family="Helvetica,sans-Serif" font-size="10.00">srcs/init/WebServer.cpp</text>
</a>
</g>
</g>
<!-- Node3&#45;&gt;Node4 -->
<g id="edge3_Node000003_Node000004" class="edge">
<title>Node3&#45;&gt;Node4</title>
<g id="a_edge3_Node000003_Node000004"><a xlink:title=" ">
<path fill="none" stroke="#63b8ff" d="M1169.51,-55.42C1149.64,-44.24 1122.06,-28.73 1105.06,-19.17"/>
<polygon fill="#63b8ff" stroke="#63b8ff" points="1167.87,-58.52 1178.3,-60.37 1171.3,-52.41 1167.87,-58.52"/>
</a>
</g>
</g>
<!-- Node5 -->
<g id="Node000005" class="node">
<title>Node5</title>
<g id="a_Node000005"><a xlink:href="main_8cpp.html" target="_top" xlink:title=" ">
<polygon fill="white" stroke="#666666" points="1387.65,-19 1303.65,-19 1303.65,0 1387.65,0 1387.65,-19"/>
<text text-anchor="middle" x="1345.65" y="-7" font-family="Helvetica,sans-Serif" font-size="10.00">srcs/main.cpp</text>
</a>
</g>
</g>
<!-- Node3&#45;&gt;Node5 -->
<g id="edge4_Node000003_Node000005" class="edge">
<title>Node3&#45;&gt;Node5</title>
<g id="a_edge4_Node000003_Node000005"><a xlink:title=" ">
<path fill="none" stroke="#63b8ff" d="M1225.14,-56.88C1254.53,-45.57 1297.62,-28.99 1323.52,-19.02"/>
<polygon fill="#63b8ff" stroke="#63b8ff" points="1223.82,-53.64 1215.75,-60.49 1226.34,-60.17 1223.82,-53.64"/>
</a>
</g>
</g>
<!-- Node8&#45;&gt;Node4 -->
<g id="edge9_Node000008_Node000004" class="edge">
<title>Node8&#45;&gt;Node4</title>
<g id="a_edge9_Node000008_Node000004"><a xlink:title=" ">
<path fill="none" stroke="#63b8ff" d="M108.99,-125.46C48.82,-114.16 -25.9,-92.04 9.65,-55 44.89,-18.27 796.39,-11.84 1024.54,-10.73"/>
<polygon fill="#63b8ff" stroke="#63b8ff" points="108.42,-128.91 118.88,-127.25 109.66,-122.03 108.42,-128.91"/>
</a>
</g>
</g>
<!-- Node8&#45;&gt;Node7 -->
<g id="edge8_Node000008_Node000007" class="edge">
<title>Node8&#45;&gt;Node7</title>
<g id="a_edge8_Node000008_Node000007"><a xlink:title=" ">
<path fill="none" stroke="#63b8ff" d="M202.95,-114.87C219.61,-103.03 239.83,-88.65 252.47,-79.66"/>
<polygon fill="#63b8ff" stroke="#63b8ff" points="200.74,-112.15 194.62,-120.8 204.8,-117.85 200.74,-112.15"/>
</a>
</g>
</g>
<!-- Node9&#45;&gt;Node7 -->
<g id="edge11_Node000009_Node000007" class="edge">
<title>Node9&#45;&gt;Node7</title>
<g id="a_edge11_Node000009_Node000007"><a xlink:title=" ">
<path fill="none" stroke="#63b8ff" d="M289.6,-111.95C282.81,-100.81 275.07,-88.11 270.04,-79.84"/>
<polygon fill="#63b8ff" stroke="#63b8ff" points="286.8,-114.08 294.99,-120.8 292.78,-110.44 286.8,-114.08"/>
</a>
</g>
</g>
<!-- Node10 -->
<g id="Node000010" class="node">
<title>Node10</title>
<g id="a_Node000010"><a xlink:href="Router_8cpp.html" target="_top" xlink:title=" ">
<polygon fill="white" stroke="#666666" points="164.15,-79.5 19.15,-79.5 19.15,-60.5 164.15,-60.5 164.15,-79.5"/>
<text text-anchor="middle" x="91.65" y="-67.5" font-family="Helvetica,sans-Serif" font-size="10.00">srcs/dispatcher/Router.cpp</text>
</a>
</g>
</g>
<!-- Node9&#45;&gt;Node10 -->
<g id="edge12_Node000009_Node000010" class="edge">
<title>Node9&#45;&gt;Node10</title>
<g id="a_edge12_Node000009_Node000010"><a xlink:title=" ">
<path fill="none" stroke="#63b8ff" d="M247.5,-118.05C206.38,-105.64 152.31,-89.31 119.86,-79.52"/>
<polygon fill="#63b8ff" stroke="#63b8ff" points="246.54,-121.42 257.12,-120.95 248.56,-114.71 246.54,-121.42"/>
</a>
</g>
</g>
<!-- Node11&#45;&gt;Node3 -->
<g id="edge14_Node000011_Node000003" class="edge">
<title>Node11&#45;&gt;Node3</title>
<g id="a_edge14_Node000011_Node000003"><a xlink:title=" ">
<path fill="none" stroke="#63b8ff" d="M1307.23,-122.19C1279.25,-109.58 1237.26,-90.66 1212.95,-79.7"/>
<polygon fill="#63b8ff" stroke="#63b8ff" points="1305.94,-125.45 1316.5,-126.37 1308.82,-119.07 1305.94,-125.45"/>
</a>
</g>
</g>
<!-- Node11&#45;&gt;Node5 -->
<g id="edge16_Node000011_Node000005" class="edge">
<title>Node11&#45;&gt;Node5</title>
<g id="a_edge16_Node000011_Node000005"><a xlink:title=" ">
<path fill="none" stroke="#63b8ff" d="M1401.71,-123.55C1423.55,-116.29 1445.59,-104.41 1458.65,-85 1466.09,-73.94 1466.15,-66.02 1458.65,-55 1442.86,-31.82 1412.98,-20.72 1387.91,-15.39"/>
<polygon fill="#63b8ff" stroke="#63b8ff" points="1400.61,-120.23 1392.06,-126.49 1402.64,-126.93 1400.61,-120.23"/>
</a>
</g>
</g>
<!-- Node12 -->
<g id="Node000012" class="node">
<title>Node12</title>
<g id="a_Node000012"><a xlink:href="ServerSocket_8cpp.html" target="_top" xlink:title=" ">
<polygon fill="white" stroke="#666666" points="1647.65,-79.5 1505.65,-79.5 1505.65,-60.5 1647.65,-60.5 1647.65,-79.5"/>
<text text-anchor="middle" x="1576.65" y="-67.5" font-family="Helvetica,sans-Serif" font-size="10.00">srcs/init/ServerSocket.cpp</text>
</a>
</g>
</g>
<!-- Node11&#45;&gt;Node12 -->
<g id="edge15_Node000011_Node000012" class="edge">
<title>Node11&#45;&gt;Node12</title>
<g id="a_edge15_Node000011_Node000012"><a xlink:title=" ">
<path fill="none" stroke="#63b8ff" d="M1377.82,-123.8C1425.26,-111.2 1501.28,-91.01 1544.28,-79.6"/>
<polygon fill="#63b8ff" stroke="#63b8ff" points="1376.92,-120.42 1368.15,-126.37 1378.71,-127.18 1376.92,-120.42"/>
</a>
</g>
</g>
<!-- Node13&#45;&gt;Node4 -->
<g id="edge23_Node000013_Node000004" class="edge">
<title>Node13&#45;&gt;Node4</title>
<g id="a_edge23_Node000013_Node000004"><a xlink:title=" ">
<path fill="none" stroke="#63b8ff" d="M790.72,-134.06C886.24,-131.18 1030.48,-120.81 1070.65,-85 1089.68,-68.04 1090.89,-34.91 1090.28,-19.19"/>
<polygon fill="#63b8ff" stroke="#63b8ff" points="790.38,-130.57 780.48,-134.34 790.58,-137.56 790.38,-130.57"/>
</a>
</g>
</g>
<!-- Node13&#45;&gt;Node6 -->
<g id="edge19_Node000013_Node000006" class="edge">
<title>Node13&#45;&gt;Node6</title>
<g id="a_edge19_Node000013_Node000006"><a xlink:title=" ">
<path fill="none" stroke="#63b8ff" d="M636.93,-118.44C587.49,-105.98 521.74,-89.42 482.45,-79.52"/>
<polygon fill="#63b8ff" stroke="#63b8ff" points="636.35,-121.91 646.91,-120.95 638.06,-115.12 636.35,-121.91"/>
</a>
</g>
</g>
<!-- Node13&#45;&gt;Node7 -->
<g id="edge20_Node000013_Node000007" class="edge">
<title>Node13&#45;&gt;Node7</title>
<g id="a_edge20_Node000013_Node000007"><a xlink:title=" ">
<path fill="none" stroke="#63b8ff" d="M614.97,-122.6C544.79,-112.62 443.87,-98.14 355.65,-85 343.95,-83.26 331.41,-81.35 319.49,-79.52"/>
<polygon fill="#63b8ff" stroke="#63b8ff" points="614.7,-126.1 625.09,-124.04 615.69,-119.17 614.7,-126.1"/>
</a>
</g>
</g>
<!-- Node14 -->
<g id="Node000014" class="node">
<title>Node14</title>
<g id="a_Node000014"><a xlink:href="AutoIndexHandler_8cpp.html" target="_top" xlink:title=" ">
<polygon fill="white" stroke="#666666" points="693.15,-85 550.15,-85 550.15,-55 693.15,-55 693.15,-85"/>
<text text-anchor="start" x="558.15" y="-73" font-family="Helvetica,sans-Serif" font-size="10.00">srcs/dispatcher/AutoIndex</text>
<text text-anchor="middle" x="621.65" y="-62" font-family="Helvetica,sans-Serif" font-size="10.00">Handler.cpp</text>
</a>
</g>
</g>
<!-- Node13&#45;&gt;Node14 -->
<g id="edge18_Node000013_Node000014" class="edge">
<title>Node13&#45;&gt;Node14</title>
<g id="a_edge18_Node000013_Node000014"><a xlink:title=" ">
<path fill="none" stroke="#63b8ff" d="M676.67,-114.48C664.57,-104.91 650.47,-93.77 639.57,-85.16"/>
<polygon fill="#63b8ff" stroke="#63b8ff" points="674.65,-117.34 684.67,-120.8 678.99,-111.85 674.65,-117.34"/>
</a>
</g>
</g>
<!-- Node15 -->
<g id="Node000015" class="node">
<title>Node15</title>
<g id="a_Node000015"><a xlink:href="StaticPageHandler_8cpp.html" target="_top" xlink:title=" ">
<polygon fill="white" stroke="#666666" points="855.65,-85 711.65,-85 711.65,-55 855.65,-55 855.65,-85"/>
<text text-anchor="start" x="719.65" y="-73" font-family="Helvetica,sans-Serif" font-size="10.00">srcs/dispatcher/StaticPage</text>
<text text-anchor="middle" x="783.65" y="-62" font-family="Helvetica,sans-Serif" font-size="10.00">Handler.cpp</text>
</a>
</g>
</g>
<!-- Node13&#45;&gt;Node15 -->
<g id="edge21_Node000013_Node000015" class="edge">
<title>Node13&#45;&gt;Node15</title>
<g id="a_edge21_Node000013_Node000015"><a xlink:title=" ">
<path fill="none" stroke="#63b8ff" d="M728.62,-114.48C740.72,-104.91 754.82,-93.77 765.72,-85.16"/>
<polygon fill="#63b8ff" stroke="#63b8ff" points="726.3,-111.85 720.62,-120.8 730.64,-117.34 726.3,-111.85"/>
</a>
</g>
</g>
<!-- Node13&#45;&gt;Node16 -->
<g id="edge22_Node000013_Node000016" class="edge">
<title>Node13&#45;&gt;Node16</title>
<g id="a_edge22_Node000013_Node000016"><a xlink:title=" ">
<path fill="none" stroke="#63b8ff" d="M790.13,-129.26C903.18,-121.41 1105.99,-105.9 1278.65,-85 1291.36,-83.46 1305.04,-81.49 1317.8,-79.52"/>
<polygon fill="#63b8ff" stroke="#63b8ff" points="789.88,-125.77 780.15,-129.95 790.36,-132.75 789.88,-125.77"/>
</a>
</g>
</g>
<!-- Node17 -->
<g id="Node000017" class="node">
<title>Node17</title>
<g id="a_Node000017"><a xlink:href="ResponseBuilder_8cpp.html" target="_top" xlink:title=" ">
<polygon fill="white" stroke="#666666" points="1061.65,-79.5 873.65,-79.5 873.65,-60.5 1061.65,-60.5 1061.65,-79.5"/>
<text text-anchor="middle" x="967.65" y="-67.5" font-family="Helvetica,sans-Serif" font-size="10.00">srcs/response/ResponseBuilder.cpp</text>
</a>
</g>
</g>
<!-- Node13&#45;&gt;Node17 -->
<g id="edge24_Node000013_Node000017" class="edge">
<title>Node13&#45;&gt;Node17</title>
<g id="a_edge24_Node000013_Node000017"><a xlink:title=" ">
<path fill="none" stroke="#63b8ff" d="M770.56,-118.6C822.22,-106.12 891.22,-89.46 932.38,-79.52"/>
<polygon fill="#63b8ff" stroke="#63b8ff" points="769.7,-115.21 760.8,-120.95 771.34,-122.01 769.7,-115.21"/>
</a>
</g>
</g>
</g>
</svg>
