<?xml version="1.0" encoding="UTF-8" standalone="no"?>
<!DOCTYPE svg PUBLIC "-//W3C//DTD SVG 1.1//EN"
 "http://www.w3.org/Graphics/SVG/1.1/DTD/svg11.dtd">
<!-- Generated by graphviz version 2.43.0 (0)
 -->
<!-- Title: ClientConnection.hpp Pages: 1 -->
<svg width="1172pt" height="192pt"
 viewBox="0.00 0.00 1171.76 192.00" xmlns="http://www.w3.org/2000/svg" xmlns:xlink="http://www.w3.org/1999/xlink">
<g id="graph0" class="graph" transform="scale(1 1) rotate(0) translate(4 188)">
<title>ClientConnection.hpp</title>
<!-- Node1 -->
<g id="Node000001" class="node">
<title>Node1</title>
<g id="a_Node000001"><a xlink:title=" ">
<polygon fill="#999999" stroke="#666666" points="656.76,-184 535.76,-184 535.76,-165 656.76,-165 656.76,-184"/>
<text text-anchor="middle" x="596.26" y="-172" font-family="Helvetica,sans-Serif" font-size="10.00">ClientConnection.hpp</text>
</a>
</g>
</g>
<!-- Node2 -->
<g id="Node000002" class="node">
<title>Node2</title>
<g id="a_Node000002"><a xlink:href="CgiHandler_8hpp.html" target="_top" xlink:title=" ">
<polygon fill="white" stroke="#666666" points="872.76,-129 781.76,-129 781.76,-110 872.76,-110 872.76,-129"/>
<text text-anchor="middle" x="827.26" y="-117" font-family="Helvetica,sans-Serif" font-size="10.00">CgiHandler.hpp</text>
</a>
</g>
</g>
<!-- Node1&#45;&gt;Node2 -->
<g id="edge1_Node000001_Node000002" class="edge">
<title>Node1&#45;&gt;Node2</title>
<g id="a_edge1_Node000001_Node000002"><a xlink:title=" ">
<path fill="none" stroke="#63b8ff" d="M643.37,-162.69C686.65,-152.76 749.95,-138.24 789.85,-129.08"/>
<polygon fill="#63b8ff" stroke="#63b8ff" points="642.34,-159.34 633.37,-164.98 643.9,-166.16 642.34,-159.34"/>
</a>
</g>
</g>
<!-- Node8 -->
<g id="Node000008" class="node">
<title>Node8</title>
<g id="a_Node000008"><a xlink:href="ClientConnection_8cpp.html" target="_top" xlink:title=" ">
<polygon fill="white" stroke="#666666" points="137.26,-74 17.26,-74 17.26,-55 137.26,-55 137.26,-74"/>
<text text-anchor="middle" x="77.26" y="-62" font-family="Helvetica,sans-Serif" font-size="10.00">ClientConnection.cpp</text>
</a>
</g>
</g>
<!-- Node1&#45;&gt;Node8 -->
<g id="edge7_Node000001_Node000008" class="edge">
<title>Node1&#45;&gt;Node8</title>
<g id="a_edge7_Node000001_Node000008"><a xlink:title=" ">
<path fill="none" stroke="#63b8ff" d="M558.44,-161.92C532.25,-153.57 496.76,-141.59 466.26,-129 448.44,-121.64 445.73,-115.51 427.26,-110 400.18,-101.92 230.34,-82.37 137.58,-72.08"/>
<polygon fill="#63b8ff" stroke="#63b8ff" points="557.4,-165.26 567.99,-164.94 559.51,-158.59 557.4,-165.26"/>
</a>
</g>
</g>
<!-- Node9 -->
<g id="Node000009" class="node">
<title>Node9</title>
<g id="a_Node000009"><a xlink:href="Dispatcher_8hpp.html" target="_top" xlink:title=" ">
<polygon fill="white" stroke="#666666" points="417.76,-129 328.76,-129 328.76,-110 417.76,-110 417.76,-129"/>
<text text-anchor="middle" x="373.26" y="-117" font-family="Helvetica,sans-Serif" font-size="10.00">Dispatcher.hpp</text>
</a>
</g>
</g>
<!-- Node1&#45;&gt;Node9 -->
<g id="edge8_Node000001_Node000009" class="edge">
<title>Node1&#45;&gt;Node9</title>
<g id="a_edge8_Node000001_Node000009"><a xlink:title=" ">
<path fill="none" stroke="#63b8ff" d="M550.51,-162.63C508.74,-152.7 447.81,-138.22 409.37,-129.08"/>
<polygon fill="#63b8ff" stroke="#63b8ff" points="549.89,-166.08 560.43,-164.98 551.51,-159.27 549.89,-166.08"/>
</a>
</g>
</g>
<!-- Node10 -->
<g id="Node000010" class="node">
<title>Node10</title>
<g id="a_Node000010"><a xlink:href="ResponseBuilder_8hpp.html" target="_top" xlink:title=" ">
<polygon fill="white" stroke="#666666" points="593.76,-129 474.76,-129 474.76,-110 593.76,-110 593.76,-129"/>
<text text-anchor="middle" x="534.26" y="-117" font-family="Helvetica,sans-Serif" font-size="10.00">ResponseBuilder.hpp</text>
</a>
</g>
</g>
<!-- Node1&#45;&gt;Node10 -->
<g id="edge11_Node000001_Node000010" class="edge">
<title>Node1&#45;&gt;Node10</title>
<g id="a_edge11_Node000001_Node000010"><a xlink:title=" ">
<path fill="none" stroke="#63b8ff" d="M578.5,-158.32C567.45,-148.87 553.63,-137.06 544.4,-129.17"/>
<polygon fill="#63b8ff" stroke="#63b8ff" points="576.42,-161.15 586.3,-164.98 580.97,-155.83 576.42,-161.15"/>
</a>
</g>
</g>
<!-- Node14 -->
<g id="Node000014" class="node">
<title>Node14</title>
<g id="a_Node000014"><a xlink:href="Router_8hpp.html" target="_top" xlink:title=" ">
<polygon fill="white" stroke="#666666" points="693.76,-129 624.76,-129 624.76,-110 693.76,-110 693.76,-129"/>
<text text-anchor="middle" x="659.26" y="-117" font-family="Helvetica,sans-Serif" font-size="10.00">Router.hpp</text>
</a>
</g>
</g>
<!-- Node1&#45;&gt;Node14 -->
<g id="edge19_Node000001_Node000014" class="edge">
<title>Node1&#45;&gt;Node14</title>
<g id="a_edge19_Node000001_Node000014"><a xlink:title=" ">
<path fill="none" stroke="#63b8ff" d="M614.3,-158.32C625.53,-148.87 639.58,-137.06 648.95,-129.17"/>
<polygon fill="#63b8ff" stroke="#63b8ff" points="611.78,-155.87 606.38,-164.98 616.28,-161.23 611.78,-155.87"/>
</a>
</g>
</g>
<!-- Node16 -->
<g id="Node000016" class="node">
<title>Node16</title>
<g id="a_Node000016"><a xlink:href="ServerSocket_8hpp.html" target="_top" xlink:title=" ">
<polygon fill="white" stroke="#666666" points="1036.76,-129 935.76,-129 935.76,-110 1036.76,-110 1036.76,-129"/>
<text text-anchor="middle" x="986.26" y="-117" font-family="Helvetica,sans-Serif" font-size="10.00">ServerSocket.hpp</text>
</a>
</g>
</g>
<!-- Node1&#45;&gt;Node16 -->
<g id="edge22_Node000001_Node000016" class="edge">
<title>Node1&#45;&gt;Node16</title>
<g id="a_edge22_Node000001_Node000016"><a xlink:title=" ">
<path fill="none" stroke="#63b8ff" d="M666.93,-163.9C744.47,-153.36 867.01,-136.71 935.55,-127.39"/>
<polygon fill="#63b8ff" stroke="#63b8ff" points="666.2,-160.46 656.77,-165.28 667.15,-167.4 666.2,-160.46"/>
</a>
</g>
</g>
<!-- Node3 -->
<g id="Node000003" class="node">
<title>Node3</title>
<g id="a_Node000003"><a xlink:href="CgiHandler_8cpp.html" target="_top" xlink:title=" ">
<polygon fill="white" stroke="#666666" points="898.26,-74 808.26,-74 808.26,-55 898.26,-55 898.26,-74"/>
<text text-anchor="middle" x="853.26" y="-62" font-family="Helvetica,sans-Serif" font-size="10.00">CgiHandler.cpp</text>
</a>
</g>
</g>
<!-- Node2&#45;&gt;Node3 -->
<g id="edge2_Node000002_Node000003" class="edge">
<title>Node2&#45;&gt;Node3</title>
<g id="a_edge2_Node000002_Node000003"><a xlink:title=" ">
<path fill="none" stroke="#63b8ff" d="M836.07,-100.53C840.46,-91.6 845.55,-81.22 849.04,-74.09"/>
<polygon fill="#63b8ff" stroke="#63b8ff" points="832.81,-99.23 831.55,-109.75 839.1,-102.31 832.81,-99.23"/>
</a>
</g>
</g>
<!-- Node4 -->
<g id="Node000004" class="node">
<title>Node4</title>
<g id="a_Node000004"><a xlink:href="Dispatcher_8cpp.html" target="_top" xlink:title=" ">
<polygon fill="white" stroke="#666666" points="703.76,-74 614.76,-74 614.76,-55 703.76,-55 703.76,-74"/>
<text text-anchor="middle" x="659.26" y="-62" font-family="Helvetica,sans-Serif" font-size="10.00">Dispatcher.cpp</text>
</a>
</g>
</g>
<!-- Node2&#45;&gt;Node4 -->
<g id="edge3_Node000002_Node000004" class="edge">
<title>Node2&#45;&gt;Node4</title>
<g id="a_edge3_Node000002_Node000004"><a xlink:title=" ">
<path fill="none" stroke="#63b8ff" d="M790.57,-106.93C759.2,-97.03 714.75,-83.01 686.46,-74.08"/>
<polygon fill="#63b8ff" stroke="#63b8ff" points="789.68,-110.31 800.27,-109.98 791.78,-103.64 789.68,-110.31"/>
</a>
</g>
</g>
<!-- Node5 -->
<g id="Node000005" class="node">
<title>Node5</title>
<g id="a_Node000005"><a xlink:href="WebServer_8hpp.html" target="_top" xlink:title=" ">
<polygon fill="white" stroke="#666666" points="1005.76,-74 916.76,-74 916.76,-55 1005.76,-55 1005.76,-74"/>
<text text-anchor="middle" x="961.26" y="-62" font-family="Helvetica,sans-Serif" font-size="10.00">WebServer.hpp</text>
</a>
</g>
</g>
<!-- Node2&#45;&gt;Node5 -->
<g id="edge4_Node000002_Node000005" class="edge">
<title>Node2&#45;&gt;Node5</title>
<g id="a_edge4_Node000002_Node000005"><a xlink:title=" ">
<path fill="none" stroke="#63b8ff" d="M858.13,-106.29C882.96,-96.47 917.25,-82.91 939.34,-74.17"/>
<polygon fill="#63b8ff" stroke="#63b8ff" points="856.8,-103.05 848.79,-109.98 859.37,-109.56 856.8,-103.05"/>
</a>
</g>
</g>
<!-- Node6 -->
<g id="Node000006" class="node">
<title>Node6</title>
<g id="a_Node000006"><a xlink:href="WebServer_8cpp.html" target="_top" xlink:title=" ">
<polygon fill="white" stroke="#666666" points="209.76,-19 120.76,-19 120.76,0 209.76,0 209.76,-19"/>
<text text-anchor="middle" x="165.26" y="-7" font-family="Helvetica,sans-Serif" font-size="10.00">WebServer.cpp</text>
</a>
</g>
</g>
<!-- Node5&#45;&gt;Node6 -->
<g id="edge5_Node000005_Node000006" class="edge">
<title>Node5&#45;&gt;Node6</title>
<g id="a_edge5_Node000005_Node000006"><a xlink:title=" ">
<path fill="none" stroke="#63b8ff" d="M906.51,-55.04C636.19,-26.17 324.47,-15.03 210.13,-11.69"/>
<polygon fill="#63b8ff" stroke="#63b8ff" points="906.19,-58.52 916.51,-56.12 906.95,-51.57 906.19,-58.52"/>
</a>
</g>
</g>
<!-- Node7 -->
<g id="Node000007" class="node">
<title>Node7</title>
<g id="a_Node000007"><a xlink:href="main_8cpp.html" target="_top" xlink:title=" ">
<polygon fill="white" stroke="#666666" points="1028.26,-19 966.26,-19 966.26,0 1028.26,0 1028.26,-19"/>
<text text-anchor="middle" x="997.26" y="-7" font-family="Helvetica,sans-Serif" font-size="10.00">main.cpp</text>
</a>
</g>
</g>
<!-- Node5&#45;&gt;Node7 -->
<g id="edge6_Node000005_Node000007" class="edge">
<title>Node5&#45;&gt;Node7</title>
<g id="a_edge6_Node000005_Node000007"><a xlink:title=" ">
<path fill="none" stroke="#63b8ff" d="M972.88,-46.39C979.07,-37.27 986.42,-26.45 991.42,-19.09"/>
<polygon fill="#63b8ff" stroke="#63b8ff" points="969.93,-44.51 967.2,-54.75 975.72,-48.44 969.93,-44.51"/>
</a>
</g>
</g>
<!-- Node9&#45;&gt;Node4 -->
<g id="edge9_Node000009_Node000004" class="edge">
<title>Node9&#45;&gt;Node4</title>
<g id="a_edge9_Node000009_Node000004"><a xlink:title=" ">
<path fill="none" stroke="#63b8ff" d="M428.05,-108.35C482.19,-98.31 564.02,-83.15 614.41,-73.81"/>
<polygon fill="#63b8ff" stroke="#63b8ff" points="427.14,-104.96 417.94,-110.22 428.42,-111.84 427.14,-104.96"/>
</a>
</g>
</g>
<!-- Node9&#45;&gt;Node6 -->
<g id="edge10_Node000009_Node000006" class="edge">
<title>Node9&#45;&gt;Node6</title>
<g id="a_edge10_Node000009_Node000006"><a xlink:title=" ">
<path fill="none" stroke="#63b8ff" d="M318.21,-115.75C221.29,-110.33 28.44,-96.8 8.26,-74 -26.44,-34.82 63.02,-19.42 120.75,-13.68"/>
<polygon fill="#63b8ff" stroke="#63b8ff" points="318.24,-119.25 328.41,-116.31 318.62,-112.26 318.24,-119.25"/>
</a>
</g>
</g>
<!-- Node10&#45;&gt;Node3 -->
<g id="edge13_Node000010_Node000003" class="edge">
<title>Node10&#45;&gt;Node3</title>
<g id="a_edge13_Node000010_Node000003"><a xlink:title=" ">
<path fill="none" stroke="#63b8ff" d="M595.58,-108.31C657.73,-97.99 752.44,-82.25 808.07,-73.01"/>
<polygon fill="#63b8ff" stroke="#63b8ff" points="594.8,-104.89 585.51,-109.98 595.95,-111.8 594.8,-104.89"/>
</a>
</g>
</g>
<!-- Node10&#45;&gt;Node4 -->
<g id="edge15_Node000010_Node000004" class="edge">
<title>Node10&#45;&gt;Node4</title>
<g id="a_edge15_Node000010_Node000004"><a xlink:title=" ">
<path fill="none" stroke="#63b8ff" d="M563.67,-106.03C586.79,-96.23 618.38,-82.83 638.81,-74.17"/>
<polygon fill="#63b8ff" stroke="#63b8ff" points="562.18,-102.86 554.34,-109.98 564.91,-109.3 562.18,-102.86"/>
</a>
</g>
</g>
<!-- Node10&#45;&gt;Node6 -->
<g id="edge18_Node000010_Node000006" class="edge">
<title>Node10&#45;&gt;Node6</title>
<g id="a_edge18_Node000010_Node000006"><a xlink:title=" ">
<path fill="none" stroke="#63b8ff" d="M464.5,-110.11C363.16,-97.85 186.92,-76.26 184.26,-74 167.93,-60.16 165.3,-32.91 165.08,-19.04"/>
<polygon fill="#63b8ff" stroke="#63b8ff" points="464.32,-113.61 474.66,-111.34 465.16,-106.66 464.32,-113.61"/>
</a>
</g>
</g>
<!-- Node10&#45;&gt;Node8 -->
<g id="edge14_Node000010_Node000008" class="edge">
<title>Node10&#45;&gt;Node8</title>
<g id="a_edge14_Node000010_Node000008"><a xlink:title=" ">
<path fill="none" stroke="#63b8ff" d="M464.48,-110.41C375.13,-100.05 221.8,-82.26 137.38,-72.47"/>
<polygon fill="#63b8ff" stroke="#63b8ff" points="464.18,-113.9 474.51,-111.57 464.98,-106.94 464.18,-113.9"/>
</a>
</g>
</g>
<!-- Node11 -->
<g id="Node000011" class="node">
<title>Node11</title>
<g id="a_Node000011"><a xlink:href="AutoIndexHandler_8cpp.html" target="_top" xlink:title=" ">
<polygon fill="white" stroke="#666666" points="317.26,-74 193.26,-74 193.26,-55 317.26,-55 317.26,-74"/>
<text text-anchor="middle" x="255.26" y="-62" font-family="Helvetica,sans-Serif" font-size="10.00">AutoIndexHandler.cpp</text>
</a>
</g>
</g>
<!-- Node10&#45;&gt;Node11 -->
<g id="edge12_Node000010_Node000011" class="edge">
<title>Node10&#45;&gt;Node11</title>
<g id="a_edge12_Node000010_Node000011"><a xlink:title=" ">
<path fill="none" stroke="#63b8ff" d="M479.33,-108.07C427.02,-98.13 349.24,-83.35 300.43,-74.08"/>
<polygon fill="#63b8ff" stroke="#63b8ff" points="478.95,-111.56 489.43,-109.98 480.26,-104.68 478.95,-111.56"/>
</a>
</g>
</g>
<!-- Node12 -->
<g id="Node000012" class="node">
<title>Node12</title>
<g id="a_Node000012"><a xlink:href="ResponseBuilder_8cpp.html" target="_top" xlink:title=" ">
<polygon fill="white" stroke="#666666" points="453.26,-74 335.26,-74 335.26,-55 453.26,-55 453.26,-74"/>
<text text-anchor="middle" x="394.26" y="-62" font-family="Helvetica,sans-Serif" font-size="10.00">ResponseBuilder.cpp</text>
</a>
</g>
</g>
<!-- Node10&#45;&gt;Node12 -->
<g id="edge16_Node000010_Node000012" class="edge">
<title>Node10&#45;&gt;Node12</title>
<g id="a_edge16_Node000010_Node000012"><a xlink:title=" ">
<path fill="none" stroke="#63b8ff" d="M502.35,-106.42C476.38,-96.59 440.34,-82.95 417.16,-74.17"/>
<polygon fill="#63b8ff" stroke="#63b8ff" points="501.17,-109.72 511.76,-109.98 503.65,-103.17 501.17,-109.72"/>
</a>
</g>
</g>
<!-- Node13 -->
<g id="Node000013" class="node">
<title>Node13</title>
<g id="a_Node000013"><a xlink:href="StaticPageHandler_8cpp.html" target="_top" xlink:title=" ">
<polygon fill="white" stroke="#666666" points="596.76,-74 471.76,-74 471.76,-55 596.76,-55 596.76,-74"/>
<text text-anchor="middle" x="534.26" y="-62" font-family="Helvetica,sans-Serif" font-size="10.00">StaticPageHandler.cpp</text>
</a>
</g>
</g>
<!-- Node10&#45;&gt;Node13 -->
<g id="edge17_Node000010_Node000013" class="edge">
<title>Node10&#45;&gt;Node13</title>
<g id="a_edge17_Node000010_Node000013"><a xlink:title=" ">
<path fill="none" stroke="#63b8ff" d="M534.26,-99.66C534.26,-90.93 534.26,-80.99 534.26,-74.09"/>
<polygon fill="#63b8ff" stroke="#63b8ff" points="530.76,-99.75 534.26,-109.75 537.76,-99.75 530.76,-99.75"/>
</a>
</g>
</g>
<!-- Node14&#45;&gt;Node4 -->
<g id="edge20_Node000014_Node000004" class="edge">
<title>Node14&#45;&gt;Node4</title>
<g id="a_edge20_Node000014_Node000004"><a xlink:title=" ">
<path fill="none" stroke="#63b8ff" d="M659.26,-99.66C659.26,-90.93 659.26,-80.99 659.26,-74.09"/>
<polygon fill="#63b8ff" stroke="#63b8ff" points="655.76,-99.75 659.26,-109.75 662.76,-99.75 655.76,-99.75"/>
</a>
</g>
</g>
<!-- Node15 -->
<g id="Node000015" class="node">
<title>Node15</title>
<g id="a_Node000015"><a xlink:href="Router_8cpp.html" target="_top" xlink:title=" ">
<polygon fill="white" stroke="#666666" points="790.26,-74 722.26,-74 722.26,-55 790.26,-55 790.26,-74"/>
<text text-anchor="middle" x="756.26" y="-62" font-family="Helvetica,sans-Serif" font-size="10.00">Router.cpp</text>
</a>
</g>
</g>
<!-- Node14&#45;&gt;Node15 -->
<g id="edge21_Node000014_Node000015" class="edge">
<title>Node14&#45;&gt;Node15</title>
<g id="a_edge21_Node000014_Node000015"><a xlink:title=" ">
<path fill="none" stroke="#63b8ff" d="M684.03,-104.97C701.76,-95.28 725.11,-82.52 740.39,-74.17"/>
<polygon fill="#63b8ff" stroke="#63b8ff" points="681.94,-102.12 674.84,-109.98 685.3,-108.26 681.94,-102.12"/>
</a>
</g>
</g>
<!-- Node16&#45;&gt;Node5 -->
<g id="edge24_Node000016_Node000005" class="edge">
<title>Node16&#45;&gt;Node5</title>
<g id="a_edge24_Node000016_Node000005"><a xlink:title=" ">
<path fill="none" stroke="#63b8ff" d="M977.78,-100.53C973.57,-91.6 968.67,-81.22 965.31,-74.09"/>
<polygon fill="#63b8ff" stroke="#63b8ff" points="974.7,-102.2 982.13,-109.75 981.03,-99.21 974.7,-102.2"/>
</a>
</g>
</g>
<!-- Node16&#45;&gt;Node7 -->
<g id="edge25_Node000016_Node000007" class="edge">
<title>Node16&#45;&gt;Node7</title>
<g id="a_edge25_Node000016_Node000007"><a xlink:title=" ">
<path fill="none" stroke="#63b8ff" d="M1000.46,-101.78C1006.26,-93.89 1012.28,-84.02 1015.26,-74 1021.07,-54.45 1010.09,-31.39 1002.87,-19.15"/>
<polygon fill="#63b8ff" stroke="#63b8ff" points="997.63,-99.72 994.2,-109.75 1003.13,-104.05 997.63,-99.72"/>
</a>
</g>
</g>
<!-- Node17 -->
<g id="Node000017" class="node">
<title>Node17</title>
<g id="a_Node000017"><a xlink:href="ServerSocket_8cpp.html" target="_top" xlink:title=" ">
<polygon fill="white" stroke="#666666" points="1163.76,-74 1062.76,-74 1062.76,-55 1163.76,-55 1163.76,-74"/>
<text text-anchor="middle" x="1113.26" y="-62" font-family="Helvetica,sans-Serif" font-size="10.00">ServerSocket.cpp</text>
</a>
</g>
</g>
<!-- Node16&#45;&gt;Node17 -->
<g id="edge23_Node000016_Node000017" class="edge">
<title>Node16&#45;&gt;Node17</title>
<g id="a_edge23_Node000016_Node000017"><a xlink:title=" ">
<path fill="none" stroke="#63b8ff" d="M1016.14,-106.03C1039.63,-96.23 1071.73,-82.83 1092.48,-74.17"/>
<polygon fill="#63b8ff" stroke="#63b8ff" points="1014.54,-102.9 1006.66,-109.98 1017.24,-109.36 1014.54,-102.9"/>
</a>
</g>
</g>
</g>
</svg>
