<?xml version="1.0" encoding="UTF-8" standalone="no"?>
<!DOCTYPE svg PUBLIC "-//W3C//DTD SVG 1.1//EN"
 "http://www.w3.org/Graphics/SVG/1.1/DTD/svg11.dtd">
<!-- Generated by graphviz version 2.43.0 (0)
 -->
<!-- Title: includes/config/Config.hpp Pages: 1 -->
<svg width="416pt" height="192pt"
 viewBox="0.00 0.00 416.00 192.00" xmlns="http://www.w3.org/2000/svg" xmlns:xlink="http://www.w3.org/1999/xlink">
<g id="graph0" class="graph" transform="scale(1 1) rotate(0) translate(4 188)">
<title>includes/config/Config.hpp</title>
<!-- Node1 -->
<g id="Node000001" class="node">
<title>Node1</title>
<g id="a_Node000001"><a xlink:title=" ">
<polygon fill="#999999" stroke="#666666" points="144,-184 0,-184 0,-165 144,-165 144,-184"/>
<text text-anchor="middle" x="72" y="-172" font-family="Helvetica,sans-Serif" font-size="10.00">includes/config/Config.hpp</text>
</a>
</g>
</g>
<!-- Node2 -->
<g id="Node000002" class="node">
<title>Node2</title>
<g id="a_Node000002"><a xlink:title=" ">
<polygon fill="#e0e0e0" stroke="#999999" points="86.5,-19 39.5,-19 39.5,0 86.5,0 86.5,-19"/>
<text text-anchor="middle" x="63" y="-7" font-family="Helvetica,sans-Serif" font-size="10.00">vector</text>
</a>
</g>
</g>
<!-- Node1&#45;&gt;Node2 -->
<g id="edge1_Node000001_Node000002" class="edge">
<title>Node1&#45;&gt;Node2</title>
<g id="a_edge1_Node000001_Node000002"><a xlink:title=" ">
<path fill="none" stroke="#63b8ff" d="M71.52,-164.74C70.11,-139.31 66.01,-65.08 64.06,-29.69"/>
<polygon fill="#63b8ff" stroke="#63b8ff" points="67.53,-29.1 63.49,-19.31 60.54,-29.48 67.53,-29.1"/>
</a>
</g>
</g>
<!-- Node3 -->
<g id="Node000003" class="node">
<title>Node3</title>
<g id="a_Node000003"><a xlink:href="ServerConfig_8hpp.html" target="_top" xlink:title=" ">
<polygon fill="white" stroke="#666666" points="225,-129 93,-129 93,-110 225,-110 225,-129"/>
<text text-anchor="middle" x="159" y="-117" font-family="Helvetica,sans-Serif" font-size="10.00">config/ServerConfig.hpp</text>
</a>
</g>
</g>
<!-- Node1&#45;&gt;Node3 -->
<g id="edge2_Node000001_Node000003" class="edge">
<title>Node1&#45;&gt;Node3</title>
<g id="a_edge2_Node000001_Node000003"><a xlink:title=" ">
<path fill="none" stroke="#63b8ff" d="M85.98,-164.98C99.47,-156.77 120.13,-144.18 136.04,-134.49"/>
<polygon fill="#63b8ff" stroke="#63b8ff" points="138.05,-137.36 144.77,-129.17 134.41,-131.38 138.05,-137.36"/>
</a>
</g>
</g>
<!-- Node3&#45;&gt;Node2 -->
<g id="edge4_Node000003_Node000002" class="edge">
<title>Node3&#45;&gt;Node2</title>
<g id="a_edge4_Node000003_Node000002"><a xlink:title=" ">
<path fill="none" stroke="#63b8ff" d="M149.73,-109.93C140.41,-101.17 125.77,-87.06 114,-74 100.3,-58.81 85.81,-40.52 75.78,-27.48"/>
<polygon fill="#63b8ff" stroke="#63b8ff" points="78.47,-25.22 69.62,-19.39 72.9,-29.46 78.47,-25.22"/>
</a>
</g>
</g>
<!-- Node4 -->
<g id="Node000004" class="node">
<title>Node4</title>
<g id="a_Node000004"><a xlink:title=" ">
<polygon fill="#e0e0e0" stroke="#999999" points="162,-19 118,-19 118,0 162,0 162,-19"/>
<text text-anchor="middle" x="140" y="-7" font-family="Helvetica,sans-Serif" font-size="10.00">string</text>
</a>
</g>
</g>
<!-- Node3&#45;&gt;Node4 -->
<g id="edge3_Node000003_Node000004" class="edge">
<title>Node3&#45;&gt;Node4</title>
<g id="a_edge3_Node000003_Node000004"><a xlink:title=" ">
<path fill="none" stroke="#63b8ff" d="M148.01,-109.99C138.55,-101.9 125.57,-88.81 120,-74 114.23,-58.66 120.99,-40.82 128.17,-27.97"/>
<polygon fill="#63b8ff" stroke="#63b8ff" points="131.29,-29.58 133.54,-19.23 125.32,-25.92 131.29,-29.58"/>
</a>
</g>
</g>
<!-- Node5 -->
<g id="Node000005" class="node">
<title>Node5</title>
<g id="a_Node000005"><a xlink:title=" ">
<polygon fill="#e0e0e0" stroke="#999999" points="225,-19 187,-19 187,0 225,0 225,-19"/>
<text text-anchor="middle" x="206" y="-7" font-family="Helvetica,sans-Serif" font-size="10.00">map</text>
</a>
</g>
</g>
<!-- Node3&#45;&gt;Node5 -->
<g id="edge5_Node000003_Node000005" class="edge">
<title>Node3&#45;&gt;Node5</title>
<g id="a_edge5_Node000003_Node000005"><a xlink:title=" ">
<path fill="none" stroke="#63b8ff" d="M223.18,-109.98C244.86,-103.7 266.87,-92.82 280,-74 295.7,-51.5 261.85,-32.03 234.91,-20.78"/>
<polygon fill="#63b8ff" stroke="#63b8ff" points="235.98,-17.44 225.39,-17.02 233.4,-23.95 235.98,-17.44"/>
</a>
</g>
</g>
<!-- Node6 -->
<g id="Node000006" class="node">
<title>Node6</title>
<g id="a_Node000006"><a xlink:href="LocationConfig_8hpp.html" target="_top" xlink:title=" ">
<polygon fill="white" stroke="#666666" points="271,-74 129,-74 129,-55 271,-55 271,-74"/>
<text text-anchor="middle" x="200" y="-62" font-family="Helvetica,sans-Serif" font-size="10.00">config/LocationConfig.hpp</text>
</a>
</g>
</g>
<!-- Node3&#45;&gt;Node6 -->
<g id="edge6_Node000003_Node000006" class="edge">
<title>Node3&#45;&gt;Node6</title>
<g id="a_edge6_Node000003_Node000006"><a xlink:title=" ">
<path fill="none" stroke="#63b8ff" d="M165.77,-109.75C171.56,-102.26 180.06,-91.28 187.14,-82.13"/>
<polygon fill="#63b8ff" stroke="#63b8ff" points="190.01,-84.14 193.36,-74.09 184.47,-79.86 190.01,-84.14"/>
</a>
</g>
</g>
<!-- Node7 -->
<g id="Node000007" class="node">
<title>Node7</title>
<g id="a_Node000007"><a xlink:href="RequestMethod_8hpp.html" target="_top" xlink:title=" ">
<polygon fill="white" stroke="#666666" points="408,-19 254,-19 254,0 408,0 408,-19"/>
<text text-anchor="middle" x="331" y="-7" font-family="Helvetica,sans-Serif" font-size="10.00">request/RequestMethod.hpp</text>
</a>
</g>
</g>
<!-- Node3&#45;&gt;Node7 -->
<g id="edge11_Node000003_Node000007" class="edge">
<title>Node3&#45;&gt;Node7</title>
<g id="a_edge11_Node000003_Node000007"><a xlink:title=" ">
<path fill="none" stroke="#63b8ff" d="M214.5,-109.99C241.12,-103.65 272.12,-92.72 295,-74 309.38,-62.23 319.1,-43.12 324.78,-28.93"/>
<polygon fill="#63b8ff" stroke="#63b8ff" points="328.17,-29.83 328.34,-19.24 321.6,-27.42 328.17,-29.83"/>
</a>
</g>
</g>
<!-- Node6&#45;&gt;Node2 -->
<g id="edge7_Node000006_Node000002" class="edge">
<title>Node6&#45;&gt;Node2</title>
<g id="a_edge7_Node000006_Node000002"><a xlink:title=" ">
<path fill="none" stroke="#63b8ff" d="M177.99,-54.98C155.55,-46.3 120.52,-32.75 95.01,-22.88"/>
<polygon fill="#63b8ff" stroke="#63b8ff" points="96,-19.51 85.41,-19.17 93.48,-26.04 96,-19.51"/>
</a>
</g>
</g>
<!-- Node6&#45;&gt;Node4 -->
<g id="edge8_Node000006_Node000004" class="edge">
<title>Node6&#45;&gt;Node4</title>
<g id="a_edge8_Node000006_Node000004"><a xlink:title=" ">
<path fill="none" stroke="#63b8ff" d="M190.36,-54.98C181.49,-47.15 168.13,-35.34 157.39,-25.86"/>
<polygon fill="#63b8ff" stroke="#63b8ff" points="159.63,-23.17 149.82,-19.17 154.99,-28.41 159.63,-23.17"/>
</a>
</g>
</g>
<!-- Node6&#45;&gt;Node5 -->
<g id="edge9_Node000006_Node000005" class="edge">
<title>Node6&#45;&gt;Node5</title>
<g id="a_edge9_Node000006_Node000005"><a xlink:title=" ">
<path fill="none" stroke="#63b8ff" d="M200.99,-54.75C201.78,-47.8 202.9,-37.85 203.89,-29.13"/>
<polygon fill="#63b8ff" stroke="#63b8ff" points="207.38,-29.42 205.03,-19.09 200.42,-28.63 207.38,-29.42"/>
</a>
</g>
</g>
<!-- Node6&#45;&gt;Node7 -->
<g id="edge10_Node000006_Node000007" class="edge">
<title>Node6&#45;&gt;Node7</title>
<g id="a_edge10_Node000006_Node000007"><a xlink:title=" ">
<path fill="none" stroke="#63b8ff" d="M221.05,-54.98C242.41,-46.34 275.7,-32.87 300.06,-23.02"/>
<polygon fill="#63b8ff" stroke="#63b8ff" points="301.61,-26.17 309.57,-19.17 298.99,-19.68 301.61,-26.17"/>
</a>
</g>
</g>
</g>
</svg>
