<?xml version="1.0" encoding="UTF-8" standalone="no"?>
<!DOCTYPE svg PUBLIC "-//W3C//DTD SVG 1.1//EN"
 "http://www.w3.org/Graphics/SVG/1.1/DTD/svg11.dtd">
<!-- Generated by graphviz version 2.43.0 (0)
 -->
<!-- Title: config/ConfigParser.cpp Pages: 1 -->
<svg width="815pt" height="302pt"
 viewBox="0.00 0.00 814.50 302.00" xmlns="http://www.w3.org/2000/svg" xmlns:xlink="http://www.w3.org/1999/xlink">
<g id="graph0" class="graph" transform="scale(1 1) rotate(0) translate(4 298)">
<title>config/ConfigParser.cpp</title>
<!-- Node1 -->
<g id="Node000001" class="node">
<title>Node1</title>
<g id="a_Node000001"><a xlink:title=" ">
<polygon fill="#999999" stroke="#666666" points="298,-294 169,-294 169,-275 298,-275 298,-294"/>
<text text-anchor="middle" x="233.5" y="-282" font-family="Helvetica,sans-Serif" font-size="10.00">config/ConfigParser.cpp</text>
</a>
</g>
</g>
<!-- Node2 -->
<g id="Node000002" class="node">
<title>Node2</title>
<g id="a_Node000002"><a xlink:title=" ">
<polygon fill="#e0e0e0" stroke="#999999" points="55,-239 0,-239 0,-220 55,-220 55,-239"/>
<text text-anchor="middle" x="27.5" y="-227" font-family="Helvetica,sans-Serif" font-size="10.00">fstream</text>
</a>
</g>
</g>
<!-- Node1&#45;&gt;Node2 -->
<g id="edge1_Node000001_Node000002" class="edge">
<title>Node1&#45;&gt;Node2</title>
<g id="a_edge1_Node000001_Node000002"><a xlink:title=" ">
<path fill="none" stroke="#63b8ff" d="M200.4,-274.98C163.44,-265.48 103.75,-250.12 65.07,-240.17"/>
<polygon fill="#63b8ff" stroke="#63b8ff" points="65.79,-236.74 55.23,-237.63 64.04,-243.52 65.79,-236.74"/>
</a>
</g>
</g>
<!-- Node3 -->
<g id="Node000003" class="node">
<title>Node3</title>
<g id="a_Node000003"><a xlink:title=" ">
<polygon fill="#e0e0e0" stroke="#999999" points="129.5,-239 73.5,-239 73.5,-220 129.5,-220 129.5,-239"/>
<text text-anchor="middle" x="101.5" y="-227" font-family="Helvetica,sans-Serif" font-size="10.00">sstream</text>
</a>
</g>
</g>
<!-- Node1&#45;&gt;Node3 -->
<g id="edge2_Node000001_Node000003" class="edge">
<title>Node1&#45;&gt;Node3</title>
<g id="a_edge2_Node000001_Node000003"><a xlink:title=" ">
<path fill="none" stroke="#63b8ff" d="M212.29,-274.98C190.77,-266.34 157.22,-252.87 132.67,-243.02"/>
<polygon fill="#63b8ff" stroke="#63b8ff" points="133.68,-239.65 123.09,-239.17 131.07,-246.14 133.68,-239.65"/>
</a>
</g>
</g>
<!-- Node4 -->
<g id="Node000004" class="node">
<title>Node4</title>
<g id="a_Node000004"><a xlink:title=" ">
<polygon fill="#e0e0e0" stroke="#999999" points="193.5,-239 147.5,-239 147.5,-220 193.5,-220 193.5,-239"/>
<text text-anchor="middle" x="170.5" y="-227" font-family="Helvetica,sans-Serif" font-size="10.00">locale</text>
</a>
</g>
</g>
<!-- Node1&#45;&gt;Node4 -->
<g id="edge3_Node000001_Node000004" class="edge">
<title>Node1&#45;&gt;Node4</title>
<g id="a_edge3_Node000001_Node000004"><a xlink:title=" ">
<path fill="none" stroke="#63b8ff" d="M223.38,-274.98C214.06,-267.15 200.03,-255.34 188.76,-245.86"/>
<polygon fill="#63b8ff" stroke="#63b8ff" points="190.71,-242.93 180.81,-239.17 186.21,-248.29 190.71,-242.93"/>
</a>
</g>
</g>
<!-- Node5 -->
<g id="Node000005" class="node">
<title>Node5</title>
<g id="a_Node000005"><a xlink:title=" ">
<polygon fill="#e0e0e0" stroke="#999999" points="255.5,-239 211.5,-239 211.5,-220 255.5,-220 255.5,-239"/>
<text text-anchor="middle" x="233.5" y="-227" font-family="Helvetica,sans-Serif" font-size="10.00">limits</text>
</a>
</g>
</g>
<!-- Node1&#45;&gt;Node5 -->
<g id="edge4_Node000001_Node000005" class="edge">
<title>Node1&#45;&gt;Node5</title>
<g id="a_edge4_Node000001_Node000005"><a xlink:title=" ">
<path fill="none" stroke="#63b8ff" d="M233.5,-274.75C233.5,-267.8 233.5,-257.85 233.5,-249.13"/>
<polygon fill="#63b8ff" stroke="#63b8ff" points="237,-249.09 233.5,-239.09 230,-249.09 237,-249.09"/>
</a>
</g>
</g>
<!-- Node6 -->
<g id="Node000006" class="node">
<title>Node6</title>
<g id="a_Node000006"><a xlink:title=" ">
<polygon fill="#e0e0e0" stroke="#999999" points="321,-239 274,-239 274,-220 321,-220 321,-239"/>
<text text-anchor="middle" x="297.5" y="-227" font-family="Helvetica,sans-Serif" font-size="10.00">cmath</text>
</a>
</g>
</g>
<!-- Node1&#45;&gt;Node6 -->
<g id="edge5_Node000001_Node000006" class="edge">
<title>Node1&#45;&gt;Node6</title>
<g id="a_edge5_Node000001_Node000006"><a xlink:title=" ">
<path fill="none" stroke="#63b8ff" d="M243.78,-274.98C253.34,-267.07 267.78,-255.11 279.28,-245.58"/>
<polygon fill="#63b8ff" stroke="#63b8ff" points="281.56,-248.24 287.03,-239.17 277.1,-242.85 281.56,-248.24"/>
</a>
</g>
</g>
<!-- Node7 -->
<g id="Node000007" class="node">
<title>Node7</title>
<g id="a_Node000007"><a xlink:href="ConfigParser_8hpp.html" target="_top" xlink:title=" ">
<polygon fill="white" stroke="#666666" points="576.5,-239 446.5,-239 446.5,-220 576.5,-220 576.5,-239"/>
<text text-anchor="middle" x="511.5" y="-227" font-family="Helvetica,sans-Serif" font-size="10.00">config/ConfigParser.hpp</text>
</a>
</g>
</g>
<!-- Node1&#45;&gt;Node7 -->
<g id="edge6_Node000001_Node000007" class="edge">
<title>Node1&#45;&gt;Node7</title>
<g id="a_edge6_Node000001_Node000007"><a xlink:title=" ">
<path fill="none" stroke="#63b8ff" d="M278.17,-274.98C326.66,-265.74 404.15,-250.97 456.39,-241.01"/>
<polygon fill="#63b8ff" stroke="#63b8ff" points="457.32,-244.39 466.48,-239.08 456.01,-237.52 457.32,-244.39"/>
</a>
</g>
</g>
<!-- Node12 -->
<g id="Node000012" class="node">
<title>Node12</title>
<g id="a_Node000012"><a xlink:href="ServerConfig_8hpp.html" target="_top" xlink:title=" ">
<polygon fill="white" stroke="#666666" points="576.5,-129 444.5,-129 444.5,-110 576.5,-110 576.5,-129"/>
<text text-anchor="middle" x="510.5" y="-117" font-family="Helvetica,sans-Serif" font-size="10.00">config/ServerConfig.hpp</text>
</a>
</g>
</g>
<!-- Node1&#45;&gt;Node12 -->
<g id="edge23_Node000001_Node000012" class="edge">
<title>Node1&#45;&gt;Node12</title>
<g id="a_edge23_Node000001_Node000012"><a xlink:title=" ">
<path fill="none" stroke="#63b8ff" d="M254.15,-274.96C273.89,-266.57 304.28,-253 329.5,-239 390.13,-205.34 457.46,-158.59 490.28,-135.14"/>
<polygon fill="#63b8ff" stroke="#63b8ff" points="492.51,-137.85 498.59,-129.18 488.43,-132.17 492.51,-137.85"/>
</a>
</g>
</g>
<!-- Node8 -->
<g id="Node000008" class="node">
<title>Node8</title>
<g id="a_Node000008"><a xlink:title=" ">
<polygon fill="#e0e0e0" stroke="#999999" points="447.5,-19 403.5,-19 403.5,0 447.5,0 447.5,-19"/>
<text text-anchor="middle" x="425.5" y="-7" font-family="Helvetica,sans-Serif" font-size="10.00">string</text>
</a>
</g>
</g>
<!-- Node7&#45;&gt;Node8 -->
<g id="edge7_Node000007_Node000008" class="edge">
<title>Node7&#45;&gt;Node8</title>
<g id="a_edge7_Node000007_Node000008"><a xlink:title=" ">
<path fill="none" stroke="#63b8ff" d="M501.91,-219.75C485.03,-203.68 450.37,-167.53 435.5,-129 422.66,-95.73 422.6,-53.41 423.91,-29.39"/>
<polygon fill="#63b8ff" stroke="#63b8ff" points="427.42,-29.42 424.62,-19.2 420.43,-28.93 427.42,-29.42"/>
</a>
</g>
</g>
<!-- Node9 -->
<g id="Node000009" class="node">
<title>Node9</title>
<g id="a_Node000009"><a xlink:title=" ">
<polygon fill="#e0e0e0" stroke="#999999" points="679.5,-184 619.5,-184 619.5,-165 679.5,-165 679.5,-184"/>
<text text-anchor="middle" x="649.5" y="-172" font-family="Helvetica,sans-Serif" font-size="10.00">iostream</text>
</a>
</g>
</g>
<!-- Node7&#45;&gt;Node9 -->
<g id="edge8_Node000007_Node000009" class="edge">
<title>Node7&#45;&gt;Node9</title>
<g id="a_edge8_Node000007_Node000009"><a xlink:title=" ">
<path fill="none" stroke="#63b8ff" d="M533.67,-219.98C556.27,-211.3 591.56,-197.75 617.25,-187.88"/>
<polygon fill="#63b8ff" stroke="#63b8ff" points="618.84,-191.02 626.92,-184.17 616.33,-184.49 618.84,-191.02"/>
</a>
</g>
</g>
<!-- Node10 -->
<g id="Node000010" class="node">
<title>Node10</title>
<g id="a_Node000010"><a xlink:href="Config_8hpp.html" target="_top" xlink:title=" ">
<polygon fill="white" stroke="#666666" points="601,-184 500,-184 500,-165 601,-165 601,-184"/>
<text text-anchor="middle" x="550.5" y="-172" font-family="Helvetica,sans-Serif" font-size="10.00">config/Config.hpp</text>
</a>
</g>
</g>
<!-- Node7&#45;&gt;Node10 -->
<g id="edge9_Node000007_Node000010" class="edge">
<title>Node7&#45;&gt;Node10</title>
<g id="a_edge9_Node000007_Node000010"><a xlink:title=" ">
<path fill="none" stroke="#63b8ff" d="M517.94,-219.75C523.39,-212.34 531.36,-201.5 538.06,-192.41"/>
<polygon fill="#63b8ff" stroke="#63b8ff" points="541.07,-194.22 544.18,-184.09 535.43,-190.07 541.07,-194.22"/>
</a>
</g>
</g>
<!-- Node7&#45;&gt;Node12 -->
<g id="edge21_Node000007_Node000012" class="edge">
<title>Node7&#45;&gt;Node12</title>
<g id="a_edge21_Node000007_Node000012"><a xlink:title=" ">
<path fill="none" stroke="#63b8ff" d="M506.18,-219.68C501.27,-210.97 494.31,-197.09 491.5,-184 488.11,-168.2 494.16,-150.62 500.31,-137.97"/>
<polygon fill="#63b8ff" stroke="#63b8ff" points="503.47,-139.49 505.09,-129.01 497.29,-136.19 503.47,-139.49"/>
</a>
</g>
</g>
<!-- Node15 -->
<g id="Node000015" class="node">
<title>Node15</title>
<g id="a_Node000015"><a xlink:href="RequestMethod_8hpp.html" target="_top" xlink:title=" ">
<polygon fill="white" stroke="#666666" points="806.5,-19 652.5,-19 652.5,0 806.5,0 806.5,-19"/>
<text text-anchor="middle" x="729.5" y="-7" font-family="Helvetica,sans-Serif" font-size="10.00">request/RequestMethod.hpp</text>
</a>
</g>
</g>
<!-- Node7&#45;&gt;Node15 -->
<g id="edge22_Node000007_Node000015" class="edge">
<title>Node7&#45;&gt;Node15</title>
<g id="a_edge22_Node000007_Node000015"><a xlink:title=" ">
<path fill="none" stroke="#63b8ff" d="M572.92,-219.96C617.35,-212.55 672.32,-200.42 688.5,-184 730.28,-141.62 732.43,-65.04 730.91,-29.53"/>
<polygon fill="#63b8ff" stroke="#63b8ff" points="734.38,-28.95 730.31,-19.17 727.39,-29.36 734.38,-28.95"/>
</a>
</g>
</g>
<!-- Node11 -->
<g id="Node000011" class="node">
<title>Node11</title>
<g id="a_Node000011"><a xlink:title=" ">
<polygon fill="#e0e0e0" stroke="#999999" points="634,-19 587,-19 587,0 634,0 634,-19"/>
<text text-anchor="middle" x="610.5" y="-7" font-family="Helvetica,sans-Serif" font-size="10.00">vector</text>
</a>
</g>
</g>
<!-- Node10&#45;&gt;Node11 -->
<g id="edge10_Node000010_Node000011" class="edge">
<title>Node10&#45;&gt;Node11</title>
<g id="a_edge10_Node000010_Node000011"><a xlink:title=" ">
<path fill="none" stroke="#63b8ff" d="M566.04,-164.99C591.08,-150.28 639.46,-117.43 658.5,-74 666.65,-55.42 649.66,-37.27 633.69,-25.16"/>
<polygon fill="#63b8ff" stroke="#63b8ff" points="635.28,-22 625.09,-19.09 631.25,-27.72 635.28,-22"/>
</a>
</g>
</g>
<!-- Node10&#45;&gt;Node12 -->
<g id="edge11_Node000010_Node000012" class="edge">
<title>Node10&#45;&gt;Node12</title>
<g id="a_edge11_Node000010_Node000012"><a xlink:title=" ">
<path fill="none" stroke="#63b8ff" d="M543.89,-164.75C538.24,-157.26 529.96,-146.28 523.05,-137.13"/>
<polygon fill="#63b8ff" stroke="#63b8ff" points="525.8,-134.96 516.98,-129.09 520.21,-139.18 525.8,-134.96"/>
</a>
</g>
</g>
<!-- Node12&#45;&gt;Node8 -->
<g id="edge12_Node000012_Node000008" class="edge">
<title>Node12&#45;&gt;Node8</title>
<g id="a_edge12_Node000012_Node000008"><a xlink:title=" ">
<path fill="none" stroke="#63b8ff" d="M503.54,-109.66C489.34,-91.61 456.81,-50.28 438.55,-27.08"/>
<polygon fill="#63b8ff" stroke="#63b8ff" points="441.25,-24.85 432.31,-19.16 435.75,-29.18 441.25,-24.85"/>
</a>
</g>
</g>
<!-- Node12&#45;&gt;Node11 -->
<g id="edge13_Node000012_Node000011" class="edge">
<title>Node12&#45;&gt;Node11</title>
<g id="a_edge13_Node000012_Node000011"><a xlink:title=" ">
<path fill="none" stroke="#63b8ff" d="M576.57,-112.35C601.39,-106.45 627.26,-95.21 642.5,-74 653.34,-58.91 640.38,-39.62 627.85,-26.28"/>
<polygon fill="#63b8ff" stroke="#63b8ff" points="630.28,-23.76 620.71,-19.19 625.34,-28.72 630.28,-23.76"/>
</a>
</g>
</g>
<!-- Node13 -->
<g id="Node000013" class="node">
<title>Node13</title>
<g id="a_Node000013"><a xlink:title=" ">
<polygon fill="#e0e0e0" stroke="#999999" points="551.5,-19 513.5,-19 513.5,0 551.5,0 551.5,-19"/>
<text text-anchor="middle" x="532.5" y="-7" font-family="Helvetica,sans-Serif" font-size="10.00">map</text>
</a>
</g>
</g>
<!-- Node12&#45;&gt;Node13 -->
<g id="edge14_Node000012_Node000013" class="edge">
<title>Node12&#45;&gt;Node13</title>
<g id="a_edge14_Node000012_Node000013"><a xlink:title=" ">
<path fill="none" stroke="#63b8ff" d="M501.84,-109.86C490.69,-97.62 473.72,-74.57 482.5,-55 488,-42.74 498.73,-32.48 508.85,-24.91"/>
<polygon fill="#63b8ff" stroke="#63b8ff" points="510.85,-27.78 517.07,-19.2 506.86,-22.03 510.85,-27.78"/>
</a>
</g>
</g>
<!-- Node14 -->
<g id="Node000014" class="node">
<title>Node14</title>
<g id="a_Node000014"><a xlink:href="LocationConfig_8hpp.html" target="_top" xlink:title=" ">
<polygon fill="white" stroke="#666666" points="633.5,-74 491.5,-74 491.5,-55 633.5,-55 633.5,-74"/>
<text text-anchor="middle" x="562.5" y="-62" font-family="Helvetica,sans-Serif" font-size="10.00">config/LocationConfig.hpp</text>
</a>
</g>
</g>
<!-- Node12&#45;&gt;Node14 -->
<g id="edge15_Node000012_Node000014" class="edge">
<title>Node12&#45;&gt;Node14</title>
<g id="a_edge15_Node000012_Node000014"><a xlink:title=" ">
<path fill="none" stroke="#63b8ff" d="M519.09,-109.75C526.66,-102.03 537.88,-90.6 547.01,-81.28"/>
<polygon fill="#63b8ff" stroke="#63b8ff" points="549.57,-83.68 554.07,-74.09 544.57,-78.78 549.57,-83.68"/>
</a>
</g>
</g>
<!-- Node12&#45;&gt;Node15 -->
<g id="edge20_Node000012_Node000015" class="edge">
<title>Node12&#45;&gt;Node15</title>
<g id="a_edge20_Node000012_Node000015"><a xlink:title=" ">
<path fill="none" stroke="#63b8ff" d="M557.26,-109.94C587.47,-103.12 626.9,-91.71 658.5,-74 680.69,-61.56 701.84,-41.15 715.2,-26.83"/>
<polygon fill="#63b8ff" stroke="#63b8ff" points="717.98,-28.97 722.11,-19.21 712.8,-24.27 717.98,-28.97"/>
</a>
</g>
</g>
<!-- Node14&#45;&gt;Node8 -->
<g id="edge17_Node000014_Node000008" class="edge">
<title>Node14&#45;&gt;Node8</title>
<g id="a_edge17_Node000014_Node000008"><a xlink:title=" ">
<path fill="none" stroke="#63b8ff" d="M540.49,-54.98C518.05,-46.3 483.02,-32.75 457.51,-22.88"/>
<polygon fill="#63b8ff" stroke="#63b8ff" points="458.5,-19.51 447.91,-19.17 455.98,-26.04 458.5,-19.51"/>
</a>
</g>
</g>
<!-- Node14&#45;&gt;Node11 -->
<g id="edge16_Node000014_Node000011" class="edge">
<title>Node14&#45;&gt;Node11</title>
<g id="a_edge16_Node000014_Node000011"><a xlink:title=" ">
<path fill="none" stroke="#63b8ff" d="M570.43,-54.75C577.35,-47.11 587.57,-35.82 595.95,-26.56"/>
<polygon fill="#63b8ff" stroke="#63b8ff" points="598.6,-28.85 602.72,-19.09 593.41,-24.15 598.6,-28.85"/>
</a>
</g>
</g>
<!-- Node14&#45;&gt;Node13 -->
<g id="edge18_Node000014_Node000013" class="edge">
<title>Node14&#45;&gt;Node13</title>
<g id="a_edge18_Node000014_Node000013"><a xlink:title=" ">
<path fill="none" stroke="#63b8ff" d="M557.55,-54.75C553.44,-47.49 547.47,-36.95 542.4,-27.98"/>
<polygon fill="#63b8ff" stroke="#63b8ff" points="545.33,-26.07 537.36,-19.09 539.24,-29.52 545.33,-26.07"/>
</a>
</g>
</g>
<!-- Node14&#45;&gt;Node15 -->
<g id="edge19_Node000014_Node000015" class="edge">
<title>Node14&#45;&gt;Node15</title>
<g id="a_edge19_Node000014_Node000015"><a xlink:title=" ">
<path fill="none" stroke="#63b8ff" d="M589.33,-54.98C617.37,-46.09 661.55,-32.07 692.8,-22.15"/>
<polygon fill="#63b8ff" stroke="#63b8ff" points="693.99,-25.44 702.46,-19.08 691.87,-18.77 693.99,-25.44"/>
</a>
</g>
</g>
</g>
</svg>
