<?xml version="1.0" encoding="UTF-8" standalone="no"?>
<!DOCTYPE svg PUBLIC "-//W3C//DTD SVG 1.1//EN"
 "http://www.w3.org/Graphics/SVG/1.1/DTD/svg11.dtd">
<!-- Generated by graphviz version 2.43.0 (0)
 -->
<!-- Title: Config.hpp Pages: 1 -->
<svg width="378pt" height="192pt"
 viewBox="0.00 0.00 378.00 192.00" xmlns="http://www.w3.org/2000/svg" xmlns:xlink="http://www.w3.org/1999/xlink">
<g id="graph0" class="graph" transform="scale(1 1) rotate(0) translate(4 188)">
<title>Config.hpp</title>
<!-- Node1 -->
<g id="Node000001" class="node">
<title>Node1</title>
<g id="a_Node000001"><a xlink:title=" ">
<polygon fill="#999999" stroke="#666666" points="68,-184 0,-184 0,-165 68,-165 68,-184"/>
<text text-anchor="middle" x="34" y="-172" font-family="Helvetica,sans-Serif" font-size="10.00">Config.hpp</text>
</a>
</g>
</g>
<!-- Node2 -->
<g id="Node000002" class="node">
<title>Node2</title>
<g id="a_Node000002"><a xlink:title=" ">
<polygon fill="#e0e0e0" stroke="#999999" points="48.5,-19 1.5,-19 1.5,0 48.5,0 48.5,-19"/>
<text text-anchor="middle" x="25" y="-7" font-family="Helvetica,sans-Serif" font-size="10.00">vector</text>
</a>
</g>
</g>
<!-- Node1&#45;&gt;Node2 -->
<g id="edge1_Node000001_Node000002" class="edge">
<title>Node1&#45;&gt;Node2</title>
<g id="a_edge1_Node000001_Node000002"><a xlink:title=" ">
<path fill="none" stroke="#63b8ff" d="M33.52,-164.74C32.11,-139.31 28.01,-65.08 26.06,-29.69"/>
<polygon fill="#63b8ff" stroke="#63b8ff" points="29.53,-29.1 25.49,-19.31 22.54,-29.48 29.53,-29.1"/>
</a>
</g>
</g>
<!-- Node3 -->
<g id="Node000003" class="node">
<title>Node3</title>
<g id="a_Node000003"><a xlink:href="ServerConfig_8hpp.html" target="_top" xlink:title=" ">
<polygon fill="white" stroke="#666666" points="187,-129 55,-129 55,-110 187,-110 187,-129"/>
<text text-anchor="middle" x="121" y="-117" font-family="Helvetica,sans-Serif" font-size="10.00">config/ServerConfig.hpp</text>
</a>
</g>
</g>
<!-- Node1&#45;&gt;Node3 -->
<g id="edge2_Node000001_Node000003" class="edge">
<title>Node1&#45;&gt;Node3</title>
<g id="a_edge2_Node000001_Node000003"><a xlink:title=" ">
<path fill="none" stroke="#63b8ff" d="M47.98,-164.98C61.47,-156.77 82.13,-144.18 98.04,-134.49"/>
<polygon fill="#63b8ff" stroke="#63b8ff" points="100.05,-137.36 106.77,-129.17 96.41,-131.38 100.05,-137.36"/>
</a>
</g>
</g>
<!-- Node3&#45;&gt;Node2 -->
<g id="edge4_Node000003_Node000002" class="edge">
<title>Node3&#45;&gt;Node2</title>
<g id="a_edge4_Node000003_Node000002"><a xlink:title=" ">
<path fill="none" stroke="#63b8ff" d="M111.73,-109.93C102.41,-101.17 87.77,-87.06 76,-74 62.3,-58.81 47.81,-40.52 37.78,-27.48"/>
<polygon fill="#63b8ff" stroke="#63b8ff" points="40.47,-25.22 31.62,-19.39 34.9,-29.46 40.47,-25.22"/>
</a>
</g>
</g>
<!-- Node4 -->
<g id="Node000004" class="node">
<title>Node4</title>
<g id="a_Node000004"><a xlink:title=" ">
<polygon fill="#e0e0e0" stroke="#999999" points="124,-19 80,-19 80,0 124,0 124,-19"/>
<text text-anchor="middle" x="102" y="-7" font-family="Helvetica,sans-Serif" font-size="10.00">string</text>
</a>
</g>
</g>
<!-- Node3&#45;&gt;Node4 -->
<g id="edge3_Node000003_Node000004" class="edge">
<title>Node3&#45;&gt;Node4</title>
<g id="a_edge3_Node000003_Node000004"><a xlink:title=" ">
<path fill="none" stroke="#63b8ff" d="M110.01,-109.99C100.55,-101.9 87.57,-88.81 82,-74 76.23,-58.66 82.99,-40.82 90.17,-27.97"/>
<polygon fill="#63b8ff" stroke="#63b8ff" points="93.29,-29.58 95.54,-19.23 87.32,-25.92 93.29,-29.58"/>
</a>
</g>
</g>
<!-- Node5 -->
<g id="Node000005" class="node">
<title>Node5</title>
<g id="a_Node000005"><a xlink:title=" ">
<polygon fill="#e0e0e0" stroke="#999999" points="187,-19 149,-19 149,0 187,0 187,-19"/>
<text text-anchor="middle" x="168" y="-7" font-family="Helvetica,sans-Serif" font-size="10.00">map</text>
</a>
</g>
</g>
<!-- Node3&#45;&gt;Node5 -->
<g id="edge5_Node000003_Node000005" class="edge">
<title>Node3&#45;&gt;Node5</title>
<g id="a_edge5_Node000003_Node000005"><a xlink:title=" ">
<path fill="none" stroke="#63b8ff" d="M185.18,-109.98C206.86,-103.7 228.87,-92.82 242,-74 257.7,-51.5 223.85,-32.03 196.91,-20.78"/>
<polygon fill="#63b8ff" stroke="#63b8ff" points="197.98,-17.44 187.39,-17.02 195.4,-23.95 197.98,-17.44"/>
</a>
</g>
</g>
<!-- Node6 -->
<g id="Node000006" class="node">
<title>Node6</title>
<g id="a_Node000006"><a xlink:href="LocationConfig_8hpp.html" target="_top" xlink:title=" ">
<polygon fill="white" stroke="#666666" points="233,-74 91,-74 91,-55 233,-55 233,-74"/>
<text text-anchor="middle" x="162" y="-62" font-family="Helvetica,sans-Serif" font-size="10.00">config/LocationConfig.hpp</text>
</a>
</g>
</g>
<!-- Node3&#45;&gt;Node6 -->
<g id="edge6_Node000003_Node000006" class="edge">
<title>Node3&#45;&gt;Node6</title>
<g id="a_edge6_Node000003_Node000006"><a xlink:title=" ">
<path fill="none" stroke="#63b8ff" d="M127.77,-109.75C133.56,-102.26 142.06,-91.28 149.14,-82.13"/>
<polygon fill="#63b8ff" stroke="#63b8ff" points="152.01,-84.14 155.36,-74.09 146.47,-79.86 152.01,-84.14"/>
</a>
</g>
</g>
<!-- Node7 -->
<g id="Node000007" class="node">
<title>Node7</title>
<g id="a_Node000007"><a xlink:href="RequestMethod_8hpp.html" target="_top" xlink:title=" ">
<polygon fill="white" stroke="#666666" points="370,-19 216,-19 216,0 370,0 370,-19"/>
<text text-anchor="middle" x="293" y="-7" font-family="Helvetica,sans-Serif" font-size="10.00">request/RequestMethod.hpp</text>
</a>
</g>
</g>
<!-- Node3&#45;&gt;Node7 -->
<g id="edge11_Node000003_Node000007" class="edge">
<title>Node3&#45;&gt;Node7</title>
<g id="a_edge11_Node000003_Node000007"><a xlink:title=" ">
<path fill="none" stroke="#63b8ff" d="M176.5,-109.99C203.12,-103.65 234.12,-92.72 257,-74 271.38,-62.23 281.1,-43.12 286.78,-28.93"/>
<polygon fill="#63b8ff" stroke="#63b8ff" points="290.17,-29.83 290.34,-19.24 283.6,-27.42 290.17,-29.83"/>
</a>
</g>
</g>
<!-- Node6&#45;&gt;Node2 -->
<g id="edge7_Node000006_Node000002" class="edge">
<title>Node6&#45;&gt;Node2</title>
<g id="a_edge7_Node000006_Node000002"><a xlink:title=" ">
<path fill="none" stroke="#63b8ff" d="M139.99,-54.98C117.55,-46.3 82.52,-32.75 57.01,-22.88"/>
<polygon fill="#63b8ff" stroke="#63b8ff" points="58,-19.51 47.41,-19.17 55.48,-26.04 58,-19.51"/>
</a>
</g>
</g>
<!-- Node6&#45;&gt;Node4 -->
<g id="edge8_Node000006_Node000004" class="edge">
<title>Node6&#45;&gt;Node4</title>
<g id="a_edge8_Node000006_Node000004"><a xlink:title=" ">
<path fill="none" stroke="#63b8ff" d="M152.36,-54.98C143.49,-47.15 130.13,-35.34 119.39,-25.86"/>
<polygon fill="#63b8ff" stroke="#63b8ff" points="121.63,-23.17 111.82,-19.17 116.99,-28.41 121.63,-23.17"/>
</a>
</g>
</g>
<!-- Node6&#45;&gt;Node5 -->
<g id="edge9_Node000006_Node000005" class="edge">
<title>Node6&#45;&gt;Node5</title>
<g id="a_edge9_Node000006_Node000005"><a xlink:title=" ">
<path fill="none" stroke="#63b8ff" d="M162.99,-54.75C163.78,-47.8 164.9,-37.85 165.89,-29.13"/>
<polygon fill="#63b8ff" stroke="#63b8ff" points="169.38,-29.42 167.03,-19.09 162.42,-28.63 169.38,-29.42"/>
</a>
</g>
</g>
<!-- Node6&#45;&gt;Node7 -->
<g id="edge10_Node000006_Node000007" class="edge">
<title>Node6&#45;&gt;Node7</title>
<g id="a_edge10_Node000006_Node000007"><a xlink:title=" ">
<path fill="none" stroke="#63b8ff" d="M183.05,-54.98C204.41,-46.34 237.7,-32.87 262.06,-23.02"/>
<polygon fill="#63b8ff" stroke="#63b8ff" points="263.61,-26.17 271.57,-19.17 260.99,-19.68 263.61,-26.17"/>
</a>
</g>
</g>
</g>
</svg>
