<?xml version="1.0" encoding="UTF-8" standalone="no"?>
<!DOCTYPE svg PUBLIC "-//W3C//DTD SVG 1.1//EN"
 "http://www.w3.org/Graphics/SVG/1.1/DTD/svg11.dtd">
<!-- Generated by graphviz version 2.43.0 (0)
 -->
<!-- Title: Config.hpp Pages: 1 -->
<svg width="359pt" height="137pt"
 viewBox="0.00 0.00 358.50 137.00" xmlns="http://www.w3.org/2000/svg" xmlns:xlink="http://www.w3.org/1999/xlink">
<g id="graph0" class="graph" transform="scale(1 1) rotate(0) translate(4 133)">
<title>Config.hpp</title>
<!-- Node1 -->
<g id="Node000001" class="node">
<title>Node1</title>
<g id="a_Node000001"><a xlink:title=" ">
<polygon fill="#999999" stroke="#666666" points="207,-129 139,-129 139,-110 207,-110 207,-129"/>
<text text-anchor="middle" x="173" y="-117" font-family="Helvetica,sans-Serif" font-size="10.00">Config.hpp</text>
</a>
</g>
</g>
<!-- Node2 -->
<g id="Node000002" class="node">
<title>Node2</title>
<g id="a_Node000002"><a xlink:href="Config_8cpp.html" target="_top" xlink:title=" ">
<polygon fill="white" stroke="#666666" points="68,-74 0,-74 0,-55 68,-55 68,-74"/>
<text text-anchor="middle" x="34" y="-62" font-family="Helvetica,sans-Serif" font-size="10.00">Config.cpp</text>
</a>
</g>
</g>
<!-- Node1&#45;&gt;Node2 -->
<g id="edge1_Node000001_Node000002" class="edge">
<title>Node1&#45;&gt;Node2</title>
<g id="a_edge1_Node000001_Node000002"><a xlink:title=" ">
<path fill="none" stroke="#63b8ff" d="M141.32,-106.42C115.53,-96.59 79.76,-82.95 56.74,-74.17"/>
<polygon fill="#63b8ff" stroke="#63b8ff" points="140.08,-109.69 150.67,-109.98 142.57,-103.15 140.08,-109.69"/>
</a>
</g>
</g>
<!-- Node3 -->
<g id="Node000003" class="node">
<title>Node3</title>
<g id="a_Node000003"><a xlink:href="ConfigParser_8hpp.html" target="_top" xlink:title=" ">
<polygon fill="white" stroke="#666666" points="184,-74 86,-74 86,-55 184,-55 184,-74"/>
<text text-anchor="middle" x="135" y="-62" font-family="Helvetica,sans-Serif" font-size="10.00">ConfigParser.hpp</text>
</a>
</g>
</g>
<!-- Node1&#45;&gt;Node3 -->
<g id="edge2_Node000001_Node000003" class="edge">
<title>Node1&#45;&gt;Node3</title>
<g id="a_edge2_Node000001_Node000003"><a xlink:title=" ">
<path fill="none" stroke="#63b8ff" d="M160.73,-101.39C154.19,-92.27 146.43,-81.45 141.16,-74.09"/>
<polygon fill="#63b8ff" stroke="#63b8ff" points="158.05,-103.66 166.73,-109.75 163.74,-99.58 158.05,-103.66"/>
</a>
</g>
</g>
<!-- Node5 -->
<g id="Node000005" class="node">
<title>Node5</title>
<g id="a_Node000005"><a xlink:href="main_8cpp.html" target="_top" xlink:title=" ">
<polygon fill="white" stroke="#666666" points="243,-19 181,-19 181,0 243,0 243,-19"/>
<text text-anchor="middle" x="212" y="-7" font-family="Helvetica,sans-Serif" font-size="10.00">main.cpp</text>
</a>
</g>
</g>
<!-- Node1&#45;&gt;Node5 -->
<g id="edge8_Node000001_Node000005" class="edge">
<title>Node1&#45;&gt;Node5</title>
<g id="a_edge8_Node000001_Node000005"><a xlink:title=" ">
<path fill="none" stroke="#63b8ff" d="M181.67,-100.65C185.41,-92.6 189.67,-82.93 193,-74 200.15,-54.81 206.54,-31.6 209.77,-19.25"/>
<polygon fill="#63b8ff" stroke="#63b8ff" points="178.46,-99.24 177.33,-109.78 184.79,-102.25 178.46,-99.24"/>
</a>
</g>
</g>
<!-- Node6 -->
<g id="Node000006" class="node">
<title>Node6</title>
<g id="a_Node000006"><a xlink:href="WebServer_8hpp.html" target="_top" xlink:title=" ">
<polygon fill="white" stroke="#666666" points="329.5,-74 240.5,-74 240.5,-55 329.5,-55 329.5,-74"/>
<text text-anchor="middle" x="285" y="-62" font-family="Helvetica,sans-Serif" font-size="10.00">WebServer.hpp</text>
</a>
</g>
</g>
<!-- Node1&#45;&gt;Node6 -->
<g id="edge5_Node000001_Node000006" class="edge">
<title>Node1&#45;&gt;Node6</title>
<g id="a_edge5_Node000001_Node000006"><a xlink:title=" ">
<path fill="none" stroke="#63b8ff" d="M200.19,-105.63C220.82,-95.87 248.62,-82.71 266.68,-74.17"/>
<polygon fill="#63b8ff" stroke="#63b8ff" points="198.54,-102.54 190.99,-109.98 201.53,-108.87 198.54,-102.54"/>
</a>
</g>
</g>
<!-- Node4 -->
<g id="Node000004" class="node">
<title>Node4</title>
<g id="a_Node000004"><a xlink:href="ConfigParser_8cpp.html" target="_top" xlink:title=" ">
<polygon fill="white" stroke="#666666" points="162.5,-19 65.5,-19 65.5,0 162.5,0 162.5,-19"/>
<text text-anchor="middle" x="114" y="-7" font-family="Helvetica,sans-Serif" font-size="10.00">ConfigParser.cpp</text>
</a>
</g>
</g>
<!-- Node3&#45;&gt;Node4 -->
<g id="edge3_Node000003_Node000004" class="edge">
<title>Node3&#45;&gt;Node4</title>
<g id="a_edge3_Node000003_Node000004"><a xlink:title=" ">
<path fill="none" stroke="#63b8ff" d="M127.76,-45.24C124.25,-36.37 120.2,-26.14 117.4,-19.09"/>
<polygon fill="#63b8ff" stroke="#63b8ff" points="124.59,-46.74 131.53,-54.75 131.1,-44.16 124.59,-46.74"/>
</a>
</g>
</g>
<!-- Node3&#45;&gt;Node5 -->
<g id="edge4_Node000003_Node000005" class="edge">
<title>Node3&#45;&gt;Node5</title>
<g id="a_edge4_Node000003_Node000005"><a xlink:title=" ">
<path fill="none" stroke="#63b8ff" d="M155.85,-49.15C169.76,-39.57 187.61,-27.29 199.4,-19.17"/>
<polygon fill="#63b8ff" stroke="#63b8ff" points="153.62,-46.43 147.37,-54.98 157.59,-52.2 153.62,-46.43"/>
</a>
</g>
</g>
<!-- Node6&#45;&gt;Node5 -->
<g id="edge7_Node000006_Node000005" class="edge">
<title>Node6&#45;&gt;Node5</title>
<g id="a_edge7_Node000006_Node000005"><a xlink:title=" ">
<path fill="none" stroke="#63b8ff" d="M264.86,-48.88C251.72,-39.34 235.02,-27.21 223.94,-19.17"/>
<polygon fill="#63b8ff" stroke="#63b8ff" points="263.12,-51.94 273.27,-54.98 267.24,-46.28 263.12,-51.94"/>
</a>
</g>
</g>
<!-- Node7 -->
<g id="Node000007" class="node">
<title>Node7</title>
<g id="a_Node000007"><a xlink:href="WebServer_8cpp.html" target="_top" xlink:title=" ">
<polygon fill="white" stroke="#666666" points="350.5,-19 261.5,-19 261.5,0 350.5,0 350.5,-19"/>
<text text-anchor="middle" x="306" y="-7" font-family="Helvetica,sans-Serif" font-size="10.00">WebServer.cpp</text>
</a>
</g>
</g>
<!-- Node6&#45;&gt;Node7 -->
<g id="edge6_Node000006_Node000007" class="edge">
<title>Node6&#45;&gt;Node7</title>
<g id="a_edge6_Node000006_Node000007"><a xlink:title=" ">
<path fill="none" stroke="#63b8ff" d="M292.24,-45.24C295.75,-36.37 299.8,-26.14 302.6,-19.09"/>
<polygon fill="#63b8ff" stroke="#63b8ff" points="288.9,-44.16 288.47,-54.75 295.41,-46.74 288.9,-44.16"/>
</a>
</g>
</g>
</g>
</svg>
