<?xml version="1.0" encoding="UTF-8" standalone="no"?>
<!DOCTYPE svg PUBLIC "-//W3C//DTD SVG 1.1//EN"
 "http://www.w3.org/Graphics/SVG/1.1/DTD/svg11.dtd">
<!-- Generated by graphviz version 2.43.0 (0)
 -->
<!-- Title: srcs/config/Config.cpp Pages: 1 -->
<svg width="405pt" height="247pt"
 viewBox="0.00 0.00 405.00 247.00" xmlns="http://www.w3.org/2000/svg" xmlns:xlink="http://www.w3.org/1999/xlink">
<g id="graph0" class="graph" transform="scale(1 1) rotate(0) translate(4 243)">
<title>srcs/config/Config.cpp</title>
<!-- Node1 -->
<g id="Node000001" class="node">
<title>Node1</title>
<g id="a_Node000001"><a xlink:title=" ">
<polygon fill="#999999" stroke="#666666" points="122,-239 0,-239 0,-220 122,-220 122,-239"/>
<text text-anchor="middle" x="61" y="-227" font-family="Helvetica,sans-Serif" font-size="10.00">srcs/config/Config.cpp</text>
</a>
</g>
</g>
<!-- Node2 -->
<g id="Node000002" class="node">
<title>Node2</title>
<g id="a_Node000002"><a xlink:href="Config_8hpp.html" target="_top" xlink:title=" ">
<polygon fill="white" stroke="#666666" points="111.5,-184 10.5,-184 10.5,-165 111.5,-165 111.5,-184"/>
<text text-anchor="middle" x="61" y="-172" font-family="Helvetica,sans-Serif" font-size="10.00">config/Config.hpp</text>
</a>
</g>
</g>
<!-- Node1&#45;&gt;Node2 -->
<g id="edge1_Node000001_Node000002" class="edge">
<title>Node1&#45;&gt;Node2</title>
<g id="a_edge1_Node000001_Node000002"><a xlink:title=" ">
<path fill="none" stroke="#63b8ff" d="M61,-219.75C61,-212.8 61,-202.85 61,-194.13"/>
<polygon fill="#63b8ff" stroke="#63b8ff" points="64.5,-194.09 61,-184.09 57.5,-194.09 64.5,-194.09"/>
</a>
</g>
</g>
<!-- Node3 -->
<g id="Node000003" class="node">
<title>Node3</title>
<g id="a_Node000003"><a xlink:title=" ">
<polygon fill="#e0e0e0" stroke="#999999" points="75.5,-19 28.5,-19 28.5,0 75.5,0 75.5,-19"/>
<text text-anchor="middle" x="52" y="-7" font-family="Helvetica,sans-Serif" font-size="10.00">vector</text>
</a>
</g>
</g>
<!-- Node2&#45;&gt;Node3 -->
<g id="edge2_Node000002_Node000003" class="edge">
<title>Node2&#45;&gt;Node3</title>
<g id="a_edge2_Node000002_Node000003"><a xlink:title=" ">
<path fill="none" stroke="#63b8ff" d="M60.52,-164.74C59.11,-139.31 55.01,-65.08 53.06,-29.69"/>
<polygon fill="#63b8ff" stroke="#63b8ff" points="56.53,-29.1 52.49,-19.31 49.54,-29.48 56.53,-29.1"/>
</a>
</g>
</g>
<!-- Node4 -->
<g id="Node000004" class="node">
<title>Node4</title>
<g id="a_Node000004"><a xlink:href="ServerConfig_8hpp.html" target="_top" xlink:title=" ">
<polygon fill="white" stroke="#666666" points="214,-129 82,-129 82,-110 214,-110 214,-129"/>
<text text-anchor="middle" x="148" y="-117" font-family="Helvetica,sans-Serif" font-size="10.00">config/ServerConfig.hpp</text>
</a>
</g>
</g>
<!-- Node2&#45;&gt;Node4 -->
<g id="edge3_Node000002_Node000004" class="edge">
<title>Node2&#45;&gt;Node4</title>
<g id="a_edge3_Node000002_Node000004"><a xlink:title=" ">
<path fill="none" stroke="#63b8ff" d="M74.98,-164.98C88.47,-156.77 109.13,-144.18 125.04,-134.49"/>
<polygon fill="#63b8ff" stroke="#63b8ff" points="127.05,-137.36 133.77,-129.17 123.41,-131.38 127.05,-137.36"/>
</a>
</g>
</g>
<!-- Node4&#45;&gt;Node3 -->
<g id="edge5_Node000004_Node000003" class="edge">
<title>Node4&#45;&gt;Node3</title>
<g id="a_edge5_Node000004_Node000003"><a xlink:title=" ">
<path fill="none" stroke="#63b8ff" d="M138.73,-109.93C129.41,-101.17 114.77,-87.06 103,-74 89.3,-58.81 74.81,-40.52 64.78,-27.48"/>
<polygon fill="#63b8ff" stroke="#63b8ff" points="67.47,-25.22 58.62,-19.39 61.9,-29.46 67.47,-25.22"/>
</a>
</g>
</g>
<!-- Node5 -->
<g id="Node000005" class="node">
<title>Node5</title>
<g id="a_Node000005"><a xlink:title=" ">
<polygon fill="#e0e0e0" stroke="#999999" points="151,-19 107,-19 107,0 151,0 151,-19"/>
<text text-anchor="middle" x="129" y="-7" font-family="Helvetica,sans-Serif" font-size="10.00">string</text>
</a>
</g>
</g>
<!-- Node4&#45;&gt;Node5 -->
<g id="edge4_Node000004_Node000005" class="edge">
<title>Node4&#45;&gt;Node5</title>
<g id="a_edge4_Node000004_Node000005"><a xlink:title=" ">
<path fill="none" stroke="#63b8ff" d="M137.01,-109.99C127.55,-101.9 114.57,-88.81 109,-74 103.23,-58.66 109.99,-40.82 117.17,-27.97"/>
<polygon fill="#63b8ff" stroke="#63b8ff" points="120.29,-29.58 122.54,-19.23 114.32,-25.92 120.29,-29.58"/>
</a>
</g>
</g>
<!-- Node6 -->
<g id="Node000006" class="node">
<title>Node6</title>
<g id="a_Node000006"><a xlink:title=" ">
<polygon fill="#e0e0e0" stroke="#999999" points="214,-19 176,-19 176,0 214,0 214,-19"/>
<text text-anchor="middle" x="195" y="-7" font-family="Helvetica,sans-Serif" font-size="10.00">map</text>
</a>
</g>
</g>
<!-- Node4&#45;&gt;Node6 -->
<g id="edge6_Node000004_Node000006" class="edge">
<title>Node4&#45;&gt;Node6</title>
<g id="a_edge6_Node000004_Node000006"><a xlink:title=" ">
<path fill="none" stroke="#63b8ff" d="M212.18,-109.98C233.86,-103.7 255.87,-92.82 269,-74 284.7,-51.5 250.85,-32.03 223.91,-20.78"/>
<polygon fill="#63b8ff" stroke="#63b8ff" points="224.98,-17.44 214.39,-17.02 222.4,-23.95 224.98,-17.44"/>
</a>
</g>
</g>
<!-- Node7 -->
<g id="Node000007" class="node">
<title>Node7</title>
<g id="a_Node000007"><a xlink:href="LocationConfig_8hpp.html" target="_top" xlink:title=" ">
<polygon fill="white" stroke="#666666" points="260,-74 118,-74 118,-55 260,-55 260,-74"/>
<text text-anchor="middle" x="189" y="-62" font-family="Helvetica,sans-Serif" font-size="10.00">config/LocationConfig.hpp</text>
</a>
</g>
</g>
<!-- Node4&#45;&gt;Node7 -->
<g id="edge7_Node000004_Node000007" class="edge">
<title>Node4&#45;&gt;Node7</title>
<g id="a_edge7_Node000004_Node000007"><a xlink:title=" ">
<path fill="none" stroke="#63b8ff" d="M154.77,-109.75C160.56,-102.26 169.06,-91.28 176.14,-82.13"/>
<polygon fill="#63b8ff" stroke="#63b8ff" points="179.01,-84.14 182.36,-74.09 173.47,-79.86 179.01,-84.14"/>
</a>
</g>
</g>
<!-- Node8 -->
<g id="Node000008" class="node">
<title>Node8</title>
<g id="a_Node000008"><a xlink:href="RequestMethod_8hpp.html" target="_top" xlink:title=" ">
<polygon fill="white" stroke="#666666" points="397,-19 243,-19 243,0 397,0 397,-19"/>
<text text-anchor="middle" x="320" y="-7" font-family="Helvetica,sans-Serif" font-size="10.00">request/RequestMethod.hpp</text>
</a>
</g>
</g>
<!-- Node4&#45;&gt;Node8 -->
<g id="edge12_Node000004_Node000008" class="edge">
<title>Node4&#45;&gt;Node8</title>
<g id="a_edge12_Node000004_Node000008"><a xlink:title=" ">
<path fill="none" stroke="#63b8ff" d="M203.5,-109.99C230.12,-103.65 261.12,-92.72 284,-74 298.38,-62.23 308.1,-43.12 313.78,-28.93"/>
<polygon fill="#63b8ff" stroke="#63b8ff" points="317.17,-29.83 317.34,-19.24 310.6,-27.42 317.17,-29.83"/>
</a>
</g>
</g>
<!-- Node7&#45;&gt;Node3 -->
<g id="edge8_Node000007_Node000003" class="edge">
<title>Node7&#45;&gt;Node3</title>
<g id="a_edge8_Node000007_Node000003"><a xlink:title=" ">
<path fill="none" stroke="#63b8ff" d="M166.99,-54.98C144.55,-46.3 109.52,-32.75 84.01,-22.88"/>
<polygon fill="#63b8ff" stroke="#63b8ff" points="85,-19.51 74.41,-19.17 82.48,-26.04 85,-19.51"/>
</a>
</g>
</g>
<!-- Node7&#45;&gt;Node5 -->
<g id="edge9_Node000007_Node000005" class="edge">
<title>Node7&#45;&gt;Node5</title>
<g id="a_edge9_Node000007_Node000005"><a xlink:title=" ">
<path fill="none" stroke="#63b8ff" d="M179.36,-54.98C170.49,-47.15 157.13,-35.34 146.39,-25.86"/>
<polygon fill="#63b8ff" stroke="#63b8ff" points="148.63,-23.17 138.82,-19.17 143.99,-28.41 148.63,-23.17"/>
</a>
</g>
</g>
<!-- Node7&#45;&gt;Node6 -->
<g id="edge10_Node000007_Node000006" class="edge">
<title>Node7&#45;&gt;Node6</title>
<g id="a_edge10_Node000007_Node000006"><a xlink:title=" ">
<path fill="none" stroke="#63b8ff" d="M189.99,-54.75C190.78,-47.8 191.9,-37.85 192.89,-29.13"/>
<polygon fill="#63b8ff" stroke="#63b8ff" points="196.38,-29.42 194.03,-19.09 189.42,-28.63 196.38,-29.42"/>
</a>
</g>
</g>
<!-- Node7&#45;&gt;Node8 -->
<g id="edge11_Node000007_Node000008" class="edge">
<title>Node7&#45;&gt;Node8</title>
<g id="a_edge11_Node000007_Node000008"><a xlink:title=" ">
<path fill="none" stroke="#63b8ff" d="M210.05,-54.98C231.41,-46.34 264.7,-32.87 289.06,-23.02"/>
<polygon fill="#63b8ff" stroke="#63b8ff" points="290.61,-26.17 298.57,-19.17 287.99,-19.68 290.61,-26.17"/>
</a>
</g>
</g>
</g>
</svg>
