<?xml version="1.0" encoding="UTF-8" standalone="no"?>
<!DOCTYPE svg PUBLIC "-//W3C//DTD SVG 1.1//EN"
 "http://www.w3.org/Graphics/SVG/1.1/DTD/svg11.dtd">
<!-- Generated by graphviz version 2.43.0 (0)
 -->
<!-- Title: srcs Pages: 1 -->
<svg width="483pt" height="98pt"
 viewBox="0.00 0.00 483.00 98.00" xmlns="http://www.w3.org/2000/svg" xmlns:xlink="http://www.w3.org/1999/xlink">
<g id="graph0" class="graph" transform="scale(1 1) rotate(0) translate(4 94)">
<title>srcs</title>
<g id="clust1" class="cluster">
<title>clusterdir_b73b02d482d1c4a3db20c3d9ad52d395</title>
<g id="a_clust1"><a xlink:href="dir_b73b02d482d1c4a3db20c3d9ad52d395.html" target="_top">
<polygon fill="#e3effa" stroke="#404040" stroke-width="2" points="8,-47 8,-82 467,-82 467,-47 8,-47"/>
</a>
</g>
</g>
<!-- dir_b73b02d482d1c4a3db20c3d9ad52d395 -->
<g id="node1" class="node">
<title>dir_b73b02d482d1c4a3db20c3d9ad52d395</title>
<text text-anchor="middle" x="441" y="-62" font-family="Helvetica,sans-Serif" font-size="10.00">srcs</text>
</g>
<!-- dir_09e761304027c904456130627fd4dcf5 -->
<g id="node8" class="node">
<title>dir_09e761304027c904456130627fd4dcf5</title>
<g id="a_node8"><a xlink:href="dir_09e761304027c904456130627fd4dcf5.html" target="_top" xlink:title="includes">
<polygon fill="#e3effa" stroke="red" points="267.5,-19 210.5,-19 210.5,0 267.5,0 267.5,-19"/>
<text text-anchor="middle" x="239" y="-7" font-family="Helvetica,sans-Serif" font-size="10.00">includes</text>
</a>
</g>
</g>
<!-- dir_b73b02d482d1c4a3db20c3d9ad52d395&#45;&gt;dir_09e761304027c904456130627fd4dcf5 -->
<g id="edge1" class="edge">
<title>dir_b73b02d482d1c4a3db20c3d9ad52d395&#45;&gt;dir_09e761304027c904456130627fd4dcf5</title>
<g id="a_edge1"><a xlink:href="dir_000011_000004.html" target="_top">
<path fill="none" stroke="#63b8ff" d="M428.83,-54.84C424.34,-51.98 419.11,-49.02 414,-47 369.09,-29.21 314.11,-19.56 277.89,-14.73"/>
<polygon fill="#63b8ff" stroke="#63b8ff" points="278.11,-11.23 267.75,-13.44 277.22,-18.17 278.11,-11.23"/>
</a>
</g>
<g id="a_edge1&#45;headlabel"><a xlink:href="dir_000011_000004.html" target="_top" xlink:title="89">
<text text-anchor="middle" x="282.03" y="-6.37" font-family="Helvetica,sans-Serif" font-size="10.00" fill="#63b8ff">89</text>
</a>
</g>
</g>
<!-- dir_75f89b9acdab752b2bbef02cc947a412 -->
<g id="node2" class="node">
<title>dir_75f89b9acdab752b2bbef02cc947a412</title>
<g id="a_node2"><a xlink:href="dir_75f89b9acdab752b2bbef02cc947a412.html" target="_top" xlink:title="config">
<polygon fill="#76afe7" stroke="#404040" points="405,-74 359,-74 359,-55 405,-55 405,-74"/>
<text text-anchor="middle" x="382" y="-62" font-family="Helvetica,sans-Serif" font-size="10.00">config</text>
</a>
</g>
</g>
<!-- dir_75f89b9acdab752b2bbef02cc947a412&#45;&gt;dir_09e761304027c904456130627fd4dcf5 -->
<g id="edge2" class="edge">
<title>dir_75f89b9acdab752b2bbef02cc947a412&#45;&gt;dir_09e761304027c904456130627fd4dcf5</title>
<g id="a_edge2"><a xlink:href="dir_000001_000004.html" target="_top">
<path fill="none" stroke="#63b8ff" d="M366.61,-54.94C361.42,-52.22 355.53,-49.32 350,-47 326.42,-37.12 299.15,-28.12 277.54,-21.53"/>
<polygon fill="#63b8ff" stroke="#63b8ff" points="278.32,-18.11 267.74,-18.58 276.31,-24.81 278.32,-18.11"/>
</a>
</g>
<g id="a_edge2&#45;headlabel"><a xlink:href="dir_000001_000004.html" target="_top" xlink:title="10">
<text text-anchor="middle" x="282.58" y="-13.92" font-family="Helvetica,sans-Serif" font-size="10.00" fill="#63b8ff">10</text>
</a>
</g>
</g>
<!-- dir_b51e9ffa637a334d6710d1827ea04a79 -->
<g id="node3" class="node">
<title>dir_b51e9ffa637a334d6710d1827ea04a79</title>
<g id="a_node3"><a xlink:href="dir_b51e9ffa637a334d6710d1827ea04a79.html" target="_top" xlink:title="dispatcher">
<polygon fill="#76afe7" stroke="#404040" points="341,-74 273,-74 273,-55 341,-55 341,-74"/>
<text text-anchor="middle" x="307" y="-62" font-family="Helvetica,sans-Serif" font-size="10.00">dispatcher</text>
</a>
</g>
</g>
<!-- dir_b51e9ffa637a334d6710d1827ea04a79&#45;&gt;dir_09e761304027c904456130627fd4dcf5 -->
<g id="edge3" class="edge">
<title>dir_b51e9ffa637a334d6710d1827ea04a79&#45;&gt;dir_09e761304027c904456130627fd4dcf5</title>
<g id="a_edge3"><a xlink:href="dir_000003_000004.html" target="_top">
<path fill="none" stroke="#63b8ff" d="M296.07,-54.98C285.92,-47.07 270.58,-35.11 258.35,-25.58"/>
<polygon fill="#63b8ff" stroke="#63b8ff" points="260.16,-22.56 250.12,-19.17 255.86,-28.08 260.16,-22.56"/>
</a>
</g>
<g id="a_edge3&#45;headlabel"><a xlink:href="dir_000003_000004.html" target="_top" xlink:title="38">
<text text-anchor="middle" x="264.74" y="-20.03" font-family="Helvetica,sans-Serif" font-size="10.00" fill="#63b8ff">38</text>
</a>
</g>
</g>
<!-- dir_04e46695c5c328c29dddcc07aa8e8f57 -->
<g id="node4" class="node">
<title>dir_04e46695c5c328c29dddcc07aa8e8f57</title>
<g id="a_node4"><a xlink:href="dir_04e46695c5c328c29dddcc07aa8e8f57.html" target="_top" xlink:title="init">
<polygon fill="#76afe7" stroke="#404040" points="255,-74 223,-74 223,-55 255,-55 255,-74"/>
<text text-anchor="middle" x="239" y="-62" font-family="Helvetica,sans-Serif" font-size="10.00">init</text>
</a>
</g>
</g>
<!-- dir_04e46695c5c328c29dddcc07aa8e8f57&#45;&gt;dir_09e761304027c904456130627fd4dcf5 -->
<g id="edge4" class="edge">
<title>dir_04e46695c5c328c29dddcc07aa8e8f57&#45;&gt;dir_09e761304027c904456130627fd4dcf5</title>
<g id="a_edge4"><a xlink:href="dir_000006_000004.html" target="_top">
<path fill="none" stroke="#63b8ff" d="M239,-54.75C239,-47.8 239,-37.85 239,-29.13"/>
<polygon fill="#63b8ff" stroke="#63b8ff" points="242.5,-29.09 239,-19.09 235.5,-29.09 242.5,-29.09"/>
</a>
</g>
<g id="a_edge4&#45;headlabel"><a xlink:href="dir_000006_000004.html" target="_top" xlink:title="14">
<text text-anchor="middle" x="245.34" y="-30.18" font-family="Helvetica,sans-Serif" font-size="10.00" fill="#63b8ff">14</text>
</a>
</g>
</g>
<!-- dir_ca5187079aba66aea53c15e27e2ae4be -->
<g id="node5" class="node">
<title>dir_ca5187079aba66aea53c15e27e2ae4be</title>
<g id="a_node5"><a xlink:href="dir_ca5187079aba66aea53c15e27e2ae4be.html" target="_top" xlink:title="request">
<polygon fill="#76afe7" stroke="#404040" points="204.5,-74 151.5,-74 151.5,-55 204.5,-55 204.5,-74"/>
<text text-anchor="middle" x="178" y="-62" font-family="Helvetica,sans-Serif" font-size="10.00">request</text>
</a>
</g>
</g>
<!-- dir_ca5187079aba66aea53c15e27e2ae4be&#45;&gt;dir_09e761304027c904456130627fd4dcf5 -->
<g id="edge5" class="edge">
<title>dir_ca5187079aba66aea53c15e27e2ae4be&#45;&gt;dir_09e761304027c904456130627fd4dcf5</title>
<g id="a_edge5"><a xlink:href="dir_000008_000004.html" target="_top">
<path fill="none" stroke="#63b8ff" d="M187.8,-54.98C196.82,-47.15 210.41,-35.34 221.32,-25.86"/>
<polygon fill="#63b8ff" stroke="#63b8ff" points="223.77,-28.37 229.02,-19.17 219.18,-23.09 223.77,-28.37"/>
</a>
</g>
<g id="a_edge5&#45;headlabel"><a xlink:href="dir_000008_000004.html" target="_top" xlink:title="11">
<text text-anchor="middle" x="222.92" y="-30.37" font-family="Helvetica,sans-Serif" font-size="10.00" fill="#63b8ff">11</text>
</a>
</g>
</g>
<!-- dir_f264121d85064b12b8321febf813f119 -->
<g id="node6" class="node">
<title>dir_f264121d85064b12b8321febf813f119</title>
<g id="a_node6"><a xlink:href="dir_f264121d85064b12b8321febf813f119.html" target="_top" xlink:title="response">
<polygon fill="#76afe7" stroke="#404040" points="133.5,-74 72.5,-74 72.5,-55 133.5,-55 133.5,-74"/>
<text text-anchor="middle" x="103" y="-62" font-family="Helvetica,sans-Serif" font-size="10.00">response</text>
</a>
</g>
</g>
<!-- dir_f264121d85064b12b8321febf813f119&#45;&gt;dir_09e761304027c904456130627fd4dcf5 -->
<g id="edge6" class="edge">
<title>dir_f264121d85064b12b8321febf813f119&#45;&gt;dir_09e761304027c904456130627fd4dcf5</title>
<g id="a_edge6"><a xlink:href="dir_000010_000004.html" target="_top">
<path fill="none" stroke="#63b8ff" d="M123.3,-55C129.6,-52.39 136.57,-49.55 143,-47 164.08,-38.65 187.9,-29.59 206.54,-22.58"/>
<polygon fill="#63b8ff" stroke="#63b8ff" points="207.91,-25.81 216.04,-19.02 205.45,-19.26 207.91,-25.81"/>
</a>
</g>
<g id="a_edge6&#45;headlabel"><a xlink:href="dir_000010_000004.html" target="_top" xlink:title="6">
<text text-anchor="middle" x="205.54" y="-27.23" font-family="Helvetica,sans-Serif" font-size="10.00" fill="#63b8ff">6</text>
</a>
</g>
</g>
<!-- dir_4c2c822079918c41ce3bb491ea33c722 -->
<g id="node7" class="node">
<title>dir_4c2c822079918c41ce3bb491ea33c722</title>
<g id="a_node7"><a xlink:href="dir_4c2c822079918c41ce3bb491ea33c722.html" target="_top" xlink:title="utils">
<polygon fill="#76afe7" stroke="#404040" points="54,-74 16,-74 16,-55 54,-55 54,-74"/>
<text text-anchor="middle" x="35" y="-62" font-family="Helvetica,sans-Serif" font-size="10.00">utils</text>
</a>
</g>
</g>
<!-- dir_4c2c822079918c41ce3bb491ea33c722&#45;&gt;dir_09e761304027c904456130627fd4dcf5 -->
<g id="edge7" class="edge">
<title>dir_4c2c822079918c41ce3bb491ea33c722&#45;&gt;dir_09e761304027c904456130627fd4dcf5</title>
<g id="a_edge7"><a xlink:href="dir_000013_000004.html" target="_top">
<path fill="none" stroke="#63b8ff" d="M48.15,-54.87C52.97,-52.01 58.58,-49.05 64,-47 109.18,-29.92 164.11,-20.12 200.23,-15.05"/>
<polygon fill="#63b8ff" stroke="#63b8ff" points="200.91,-18.5 210.35,-13.69 199.97,-11.56 200.91,-18.5"/>
</a>
</g>
<g id="a_edge7&#45;headlabel"><a xlink:href="dir_000013_000004.html" target="_top" xlink:title="4">
<text text-anchor="middle" x="197.72" y="-19.29" font-family="Helvetica,sans-Serif" font-size="10.00" fill="#63b8ff">4</text>
</a>
</g>
</g>
</g>
</svg>
