<?xml version="1.0" encoding="UTF-8" standalone="no"?>
<!DOCTYPE svg PUBLIC "-//W3C//DTD SVG 1.1//EN"
 "http://www.w3.org/Graphics/SVG/1.1/DTD/svg11.dtd">
<!-- Generated by graphviz version 2.43.0 (0)
 -->
<!-- Title: includes Pages: 1 -->
<svg width="182pt" height="334pt"
 viewBox="0.00 0.00 182.00 334.00" xmlns="http://www.w3.org/2000/svg" xmlns:xlink="http://www.w3.org/1999/xlink">
<g id="graph0" class="graph" transform="scale(1 1) rotate(0) translate(4 330)">
<title>includes</title>
<g id="clust1" class="cluster">
<title>clusterdir_09e761304027c904456130627fd4dcf5</title>
<g id="a_clust1"><a xlink:href="dir_09e761304027c904456130627fd4dcf5.html" target="_top">
<polygon fill="#edf2f7" stroke="#404040" stroke-width="2" points="8,-8 8,-318 166,-318 166,-8 8,-8"/>
</a>
</g>
</g>
<!-- dir_09e761304027c904456130627fd4dcf5 -->
<g id="node1" class="node">
<title>dir_09e761304027c904456130627fd4dcf5</title>
<text text-anchor="middle" x="129" y="-298" font-family="Helvetica,sans-Serif" font-size="10.00">includes</text>
</g>
<!-- dir_73874bc7c4514872b370a71d1c538bc0 -->
<g id="node2" class="node">
<title>dir_73874bc7c4514872b370a71d1c538bc0</title>
<g id="a_node2"><a xlink:href="dir_73874bc7c4514872b370a71d1c538bc0.html" target="_top" xlink:title="config">
<polygon fill="#a2bcd6" stroke="#404040" points="82,-310 36,-310 36,-291 82,-291 82,-310"/>
<text text-anchor="middle" x="59" y="-298" font-family="Helvetica,sans-Serif" font-size="10.00">config</text>
</a>
</g>
</g>
<!-- dir_7eaa3bc4b08a6eab2f3ef69918bb2923 -->
<g id="node5" class="node">
<title>dir_7eaa3bc4b08a6eab2f3ef69918bb2923</title>
<g id="a_node5"><a xlink:href="dir_7eaa3bc4b08a6eab2f3ef69918bb2923.html" target="_top" xlink:title="request">
<polygon fill="#a2bcd6" stroke="#404040" points="89.5,-255 36.5,-255 36.5,-236 89.5,-236 89.5,-255"/>
<text text-anchor="middle" x="63" y="-243" font-family="Helvetica,sans-Serif" font-size="10.00">request</text>
</a>
</g>
</g>
<!-- dir_73874bc7c4514872b370a71d1c538bc0&#45;&gt;dir_7eaa3bc4b08a6eab2f3ef69918bb2923 -->
<g id="edge1" class="edge">
<title>dir_73874bc7c4514872b370a71d1c538bc0&#45;&gt;dir_7eaa3bc4b08a6eab2f3ef69918bb2923</title>
<g id="a_edge1"><a xlink:href="dir_000000_000007.html" target="_top">
<path fill="none" stroke="#63b8ff" d="M54.49,-290.75C53.53,-283.8 53.84,-273.85 55.12,-265.13"/>
<polygon fill="#63b8ff" stroke="#63b8ff" points="58.59,-265.59 57.22,-255.09 51.74,-264.16 58.59,-265.59"/>
</a>
</g>
<g id="a_edge1&#45;headlabel"><a xlink:href="dir_000000_000007.html" target="_top" xlink:title="3">
<text text-anchor="middle" x="60.64" y="-267.19" font-family="Helvetica,sans-Serif" font-size="10.00" fill="#63b8ff">3</text>
</a>
</g>
</g>
<!-- dir_7b2244b00b13341312ee0ba9d873a6ab -->
<g id="node3" class="node">
<title>dir_7b2244b00b13341312ee0ba9d873a6ab</title>
<g id="a_node3"><a xlink:href="dir_7b2244b00b13341312ee0ba9d873a6ab.html" target="_top" xlink:title="dispatcher">
<polygon fill="#a2bcd6" stroke="#404040" points="86,-90 18,-90 18,-71 86,-71 86,-90"/>
<text text-anchor="middle" x="52" y="-78" font-family="Helvetica,sans-Serif" font-size="10.00">dispatcher</text>
</a>
</g>
</g>
<!-- dir_7b2244b00b13341312ee0ba9d873a6ab&#45;&gt;dir_73874bc7c4514872b370a71d1c538bc0 -->
<g id="edge5" class="edge">
<title>dir_7b2244b00b13341312ee0ba9d873a6ab&#45;&gt;dir_73874bc7c4514872b370a71d1c538bc0</title>
<g id="a_edge5"><a xlink:href="dir_000002_000000.html" target="_top">
<path fill="none" stroke="#63b8ff" d="M48.25,-90.02C37.55,-115.61 8.78,-193.78 28,-255 31.23,-265.29 37.78,-275.28 44.03,-283.18"/>
<polygon fill="#63b8ff" stroke="#63b8ff" points="41.39,-285.48 50.52,-290.85 46.73,-280.96 41.39,-285.48"/>
</a>
</g>
<g id="a_edge5&#45;headlabel"><a xlink:href="dir_000002_000000.html" target="_top" xlink:title="2">
<text text-anchor="middle" x="36.9" y="-282.07" font-family="Helvetica,sans-Serif" font-size="10.00" fill="#63b8ff">2</text>
</a>
</g>
</g>
<!-- dir_0836ea539757d2a7ff8088b06fd0dd74 -->
<g id="node4" class="node">
<title>dir_0836ea539757d2a7ff8088b06fd0dd74</title>
<g id="a_node4"><a xlink:href="dir_0836ea539757d2a7ff8088b06fd0dd74.html" target="_top" xlink:title="init">
<polygon fill="#a2bcd6" stroke="#404040" points="121,-145 89,-145 89,-126 121,-126 121,-145"/>
<text text-anchor="middle" x="105" y="-133" font-family="Helvetica,sans-Serif" font-size="10.00">init</text>
</a>
</g>
</g>
<!-- dir_7b2244b00b13341312ee0ba9d873a6ab&#45;&gt;dir_0836ea539757d2a7ff8088b06fd0dd74 -->
<g id="edge2" class="edge">
<title>dir_7b2244b00b13341312ee0ba9d873a6ab&#45;&gt;dir_0836ea539757d2a7ff8088b06fd0dd74</title>
<g id="a_edge2"><a xlink:href="dir_000002_000005.html" target="_top">
<path fill="none" stroke="#63b8ff" d="M65.72,-90.09C74.88,-97.6 86.39,-108.72 94.76,-117.96"/>
<polygon fill="#63b8ff" stroke="#63b8ff" points="92.26,-120.41 101.41,-125.75 97.58,-115.87 92.26,-120.41"/>
</a>
</g>
<g id="a_edge2&#45;headlabel"><a xlink:href="dir_000002_000005.html" target="_top" xlink:title="3">
<text text-anchor="middle" x="87.77" y="-117.02" font-family="Helvetica,sans-Serif" font-size="10.00" fill="#63b8ff">3</text>
</a>
</g>
</g>
<!-- dir_7b2244b00b13341312ee0ba9d873a6ab&#45;&gt;dir_7eaa3bc4b08a6eab2f3ef69918bb2923 -->
<g id="edge6" class="edge">
<title>dir_7b2244b00b13341312ee0ba9d873a6ab&#45;&gt;dir_7eaa3bc4b08a6eab2f3ef69918bb2923</title>
<g id="a_edge6"><a xlink:href="dir_000002_000007.html" target="_top">
<path fill="none" stroke="#63b8ff" d="M57.13,-90.13C62.39,-109.69 64.94,-158.9 68,-200 68.63,-208.52 69.46,-217.94 69.49,-225.91"/>
<polygon fill="#63b8ff" stroke="#63b8ff" points="65.99,-225.78 68.87,-235.98 72.97,-226.21 65.99,-225.78"/>
</a>
</g>
<g id="a_edge6&#45;headlabel"><a xlink:href="dir_000002_000007.html" target="_top" xlink:title="5">
<text text-anchor="middle" x="63.37" y="-219.52" font-family="Helvetica,sans-Serif" font-size="10.00" fill="#63b8ff">5</text>
</a>
</g>
</g>
<!-- dir_58f405cbeb8be40860eddc1ca79da41d -->
<g id="node6" class="node">
<title>dir_58f405cbeb8be40860eddc1ca79da41d</title>
<g id="a_node6"><a xlink:href="dir_58f405cbeb8be40860eddc1ca79da41d.html" target="_top" xlink:title="response">
<polygon fill="#a2bcd6" stroke="#404040" points="137.5,-200 76.5,-200 76.5,-181 137.5,-181 137.5,-200"/>
<text text-anchor="middle" x="107" y="-188" font-family="Helvetica,sans-Serif" font-size="10.00">response</text>
</a>
</g>
</g>
<!-- dir_7b2244b00b13341312ee0ba9d873a6ab&#45;&gt;dir_58f405cbeb8be40860eddc1ca79da41d -->
<g id="edge4" class="edge">
<title>dir_7b2244b00b13341312ee0ba9d873a6ab&#45;&gt;dir_58f405cbeb8be40860eddc1ca79da41d</title>
<g id="a_edge4"><a xlink:href="dir_000002_000009.html" target="_top">
<path fill="none" stroke="#63b8ff" d="M55.45,-90.3C60.42,-102.71 70.09,-125.98 80,-145 84.8,-154.22 90.74,-164.13 95.82,-172.26"/>
<polygon fill="#63b8ff" stroke="#63b8ff" points="92.95,-174.27 101.28,-180.83 98.86,-170.51 92.95,-174.27"/>
</a>
</g>
<g id="a_edge4&#45;headlabel"><a xlink:href="dir_000002_000009.html" target="_top" xlink:title="6">
<text text-anchor="middle" x="88.63" y="-170.26" font-family="Helvetica,sans-Serif" font-size="10.00" fill="#63b8ff">6</text>
</a>
</g>
</g>
<!-- dir_3f8feeb2fa3bd0d1b751b257ed9f12a2 -->
<g id="node7" class="node">
<title>dir_3f8feeb2fa3bd0d1b751b257ed9f12a2</title>
<g id="a_node7"><a xlink:href="dir_3f8feeb2fa3bd0d1b751b257ed9f12a2.html" target="_top" xlink:title="utils">
<polygon fill="#a2bcd6" stroke="#404040" points="97,-35 59,-35 59,-16 97,-16 97,-35"/>
<text text-anchor="middle" x="78" y="-23" font-family="Helvetica,sans-Serif" font-size="10.00">utils</text>
</a>
</g>
</g>
<!-- dir_7b2244b00b13341312ee0ba9d873a6ab&#45;&gt;dir_3f8feeb2fa3bd0d1b751b257ed9f12a2 -->
<g id="edge3" class="edge">
<title>dir_7b2244b00b13341312ee0ba9d873a6ab&#45;&gt;dir_3f8feeb2fa3bd0d1b751b257ed9f12a2</title>
<g id="a_edge3"><a xlink:href="dir_000002_000012.html" target="_top">
<path fill="none" stroke="#63b8ff" d="M56.29,-70.75C59.81,-63.57 64.91,-53.18 69.28,-44.27"/>
<polygon fill="#63b8ff" stroke="#63b8ff" points="72.52,-45.61 73.79,-35.09 66.24,-42.53 72.52,-45.61"/>
</a>
</g>
<g id="a_edge3&#45;headlabel"><a xlink:href="dir_000002_000012.html" target="_top" xlink:title="1">
<text text-anchor="middle" x="73.49" y="-47.59" font-family="Helvetica,sans-Serif" font-size="10.00" fill="#63b8ff">1</text>
</a>
</g>
</g>
<!-- dir_0836ea539757d2a7ff8088b06fd0dd74&#45;&gt;dir_73874bc7c4514872b370a71d1c538bc0 -->
<g id="edge9" class="edge">
<title>dir_0836ea539757d2a7ff8088b06fd0dd74&#45;&gt;dir_73874bc7c4514872b370a71d1c538bc0</title>
<g id="a_edge9"><a xlink:href="dir_000005_000000.html" target="_top">
<path fill="none" stroke="#63b8ff" d="M117.21,-145.14C127.35,-153.12 141.04,-165.99 147,-181 150.12,-188.85 149.66,-191.99 147,-200 134.95,-236.33 101.54,-267.37 79.53,-284.72"/>
<polygon fill="#63b8ff" stroke="#63b8ff" points="77.27,-282.03 71.44,-290.88 81.51,-287.6 77.27,-282.03"/>
</a>
</g>
<g id="a_edge9&#45;headlabel"><a xlink:href="dir_000005_000000.html" target="_top" xlink:title="2">
<text text-anchor="middle" x="78.41" y="-275.1" font-family="Helvetica,sans-Serif" font-size="10.00" fill="#63b8ff">2</text>
</a>
</g>
</g>
<!-- dir_0836ea539757d2a7ff8088b06fd0dd74&#45;&gt;dir_7b2244b00b13341312ee0ba9d873a6ab -->
<g id="edge10" class="edge">
<title>dir_0836ea539757d2a7ff8088b06fd0dd74&#45;&gt;dir_7b2244b00b13341312ee0ba9d873a6ab</title>
<g id="a_edge10"><a xlink:href="dir_000005_000002.html" target="_top">
<path fill="none" stroke="#63b8ff" d="M91.37,-125.98C82.18,-118.46 70.59,-107.26 62.19,-97.99"/>
<polygon fill="#63b8ff" stroke="#63b8ff" points="64.67,-95.51 55.52,-90.17 59.35,-100.05 64.67,-95.51"/>
</a>
</g>
<g id="a_edge10&#45;headlabel"><a xlink:href="dir_000005_000002.html" target="_top" xlink:title="1">
<text text-anchor="middle" x="69.17" y="-93.9" font-family="Helvetica,sans-Serif" font-size="10.00" fill="#63b8ff">1</text>
</a>
</g>
</g>
<!-- dir_0836ea539757d2a7ff8088b06fd0dd74&#45;&gt;dir_7eaa3bc4b08a6eab2f3ef69918bb2923 -->
<g id="edge11" class="edge">
<title>dir_0836ea539757d2a7ff8088b06fd0dd74&#45;&gt;dir_7eaa3bc4b08a6eab2f3ef69918bb2923</title>
<g id="a_edge11"><a xlink:href="dir_000005_000007.html" target="_top">
<path fill="none" stroke="#63b8ff" d="M94.83,-145.24C86.03,-153.47 73.83,-166.67 68,-181 62.2,-195.26 61.23,-212.79 61.55,-225.82"/>
<polygon fill="#63b8ff" stroke="#63b8ff" points="58.06,-226.1 62.08,-235.91 65.05,-225.74 58.06,-226.1"/>
</a>
</g>
<g id="a_edge11&#45;headlabel"><a xlink:href="dir_000005_000007.html" target="_top" xlink:title="1">
<text text-anchor="middle" x="55.04" y="-220.16" font-family="Helvetica,sans-Serif" font-size="10.00" fill="#63b8ff">1</text>
</a>
</g>
</g>
<!-- dir_0836ea539757d2a7ff8088b06fd0dd74&#45;&gt;dir_58f405cbeb8be40860eddc1ca79da41d -->
<g id="edge8" class="edge">
<title>dir_0836ea539757d2a7ff8088b06fd0dd74&#45;&gt;dir_58f405cbeb8be40860eddc1ca79da41d</title>
<g id="a_edge8"><a xlink:href="dir_000005_000009.html" target="_top">
<path fill="none" stroke="#63b8ff" d="M110.46,-145.09C112.22,-151.99 113.05,-161.93 112.78,-170.66"/>
<polygon fill="#63b8ff" stroke="#63b8ff" points="109.28,-170.47 111.84,-180.75 116.25,-171.12 109.28,-170.47"/>
</a>
</g>
<g id="a_edge8&#45;headlabel"><a xlink:href="dir_000005_000009.html" target="_top" xlink:title="1">
<text text-anchor="middle" x="106.79" y="-164.12" font-family="Helvetica,sans-Serif" font-size="10.00" fill="#63b8ff">1</text>
</a>
</g>
</g>
<!-- dir_0836ea539757d2a7ff8088b06fd0dd74&#45;&gt;dir_3f8feeb2fa3bd0d1b751b257ed9f12a2 -->
<g id="edge7" class="edge">
<title>dir_0836ea539757d2a7ff8088b06fd0dd74&#45;&gt;dir_3f8feeb2fa3bd0d1b751b257ed9f12a2</title>
<g id="a_edge7"><a xlink:href="dir_000005_000012.html" target="_top">
<path fill="none" stroke="#63b8ff" d="M104.21,-125.75C102.95,-113.4 100.12,-90.19 95,-71 92.63,-62.11 89.11,-52.54 85.89,-44.57"/>
<polygon fill="#63b8ff" stroke="#63b8ff" points="89.04,-43.05 81.94,-35.19 82.59,-45.76 89.04,-43.05"/>
</a>
</g>
<g id="a_edge7&#45;headlabel"><a xlink:href="dir_000005_000012.html" target="_top" xlink:title="1">
<text text-anchor="middle" x="93.05" y="-42.76" font-family="Helvetica,sans-Serif" font-size="10.00" fill="#63b8ff">1</text>
</a>
</g>
</g>
<!-- dir_7eaa3bc4b08a6eab2f3ef69918bb2923&#45;&gt;dir_73874bc7c4514872b370a71d1c538bc0 -->
<g id="edge13" class="edge">
<title>dir_7eaa3bc4b08a6eab2f3ef69918bb2923&#45;&gt;dir_73874bc7c4514872b370a71d1c538bc0</title>
<g id="a_edge13"><a xlink:href="dir_000007_000000.html" target="_top">
<path fill="none" stroke="#63b8ff" d="M67.48,-255.09C68.48,-262.06 68.17,-272.15 66.87,-280.95"/>
<polygon fill="#63b8ff" stroke="#63b8ff" points="63.44,-280.24 64.83,-290.75 70.3,-281.67 63.44,-280.24"/>
</a>
</g>
<g id="a_edge13&#45;headlabel"><a xlink:href="dir_000007_000000.html" target="_top" xlink:title="1">
<text text-anchor="middle" x="61.4" y="-273.64" font-family="Helvetica,sans-Serif" font-size="10.00" fill="#63b8ff">1</text>
</a>
</g>
</g>
<!-- dir_7eaa3bc4b08a6eab2f3ef69918bb2923&#45;&gt;dir_7b2244b00b13341312ee0ba9d873a6ab -->
<g id="edge14" class="edge">
<title>dir_7eaa3bc4b08a6eab2f3ef69918bb2923&#45;&gt;dir_7b2244b00b13341312ee0ba9d873a6ab</title>
<g id="a_edge14"><a xlink:href="dir_000007_000002.html" target="_top">
<path fill="none" stroke="#63b8ff" d="M55.44,-235.98C52.29,-227.02 50.93,-212.53 50,-200 47.38,-164.84 45.14,-123.74 46.62,-100.35"/>
<polygon fill="#63b8ff" stroke="#63b8ff" points="50.13,-100.44 47.71,-90.13 43.17,-99.7 50.13,-100.44"/>
</a>
</g>
<g id="a_edge14&#45;headlabel"><a xlink:href="dir_000007_000002.html" target="_top" xlink:title="1">
<text text-anchor="middle" x="52.58" y="-101.82" font-family="Helvetica,sans-Serif" font-size="10.00" fill="#63b8ff">1</text>
</a>
</g>
</g>
<!-- dir_7eaa3bc4b08a6eab2f3ef69918bb2923&#45;&gt;dir_58f405cbeb8be40860eddc1ca79da41d -->
<g id="edge12" class="edge">
<title>dir_7eaa3bc4b08a6eab2f3ef69918bb2923&#45;&gt;dir_58f405cbeb8be40860eddc1ca79da41d</title>
<g id="a_edge12"><a xlink:href="dir_000007_000009.html" target="_top">
<path fill="none" stroke="#63b8ff" d="M70.27,-235.75C76.54,-228.18 85.79,-217.05 93.43,-207.84"/>
<polygon fill="#63b8ff" stroke="#63b8ff" points="96.17,-210.02 99.87,-200.09 90.79,-205.55 96.17,-210.02"/>
</a>
</g>
<g id="a_edge12&#45;headlabel"><a xlink:href="dir_000007_000009.html" target="_top" xlink:title="1">
<text text-anchor="middle" x="96.06" y="-212.1" font-family="Helvetica,sans-Serif" font-size="10.00" fill="#63b8ff">1</text>
</a>
</g>
</g>
<!-- dir_58f405cbeb8be40860eddc1ca79da41d&#45;&gt;dir_73874bc7c4514872b370a71d1c538bc0 -->
<g id="edge16" class="edge">
<title>dir_58f405cbeb8be40860eddc1ca79da41d&#45;&gt;dir_73874bc7c4514872b370a71d1c538bc0</title>
<g id="a_edge16"><a xlink:href="dir_000009_000000.html" target="_top">
<path fill="none" stroke="#63b8ff" d="M107.5,-200.16C107.89,-212.81 107.32,-236.81 99,-255 94.01,-265.91 85.38,-276.04 77.41,-283.86"/>
<polygon fill="#63b8ff" stroke="#63b8ff" points="74.8,-281.51 69.82,-290.87 79.55,-286.66 74.8,-281.51"/>
</a>
</g>
<g id="a_edge16&#45;headlabel"><a xlink:href="dir_000009_000000.html" target="_top" xlink:title="2">
<text text-anchor="middle" x="75.51" y="-274.49" font-family="Helvetica,sans-Serif" font-size="10.00" fill="#63b8ff">2</text>
</a>
</g>
</g>
<!-- dir_58f405cbeb8be40860eddc1ca79da41d&#45;&gt;dir_0836ea539757d2a7ff8088b06fd0dd74 -->
<g id="edge15" class="edge">
<title>dir_58f405cbeb8be40860eddc1ca79da41d&#45;&gt;dir_0836ea539757d2a7ff8088b06fd0dd74</title>
<g id="a_edge15"><a xlink:href="dir_000009_000005.html" target="_top">
<path fill="none" stroke="#63b8ff" d="M101.5,-180.75C99.75,-173.8 98.94,-163.85 99.22,-155.13"/>
<polygon fill="#63b8ff" stroke="#63b8ff" points="102.72,-155.38 100.19,-145.09 95.75,-154.71 102.72,-155.38"/>
</a>
</g>
<g id="a_edge15&#45;headlabel"><a xlink:href="dir_000009_000005.html" target="_top" xlink:title="1">
<text text-anchor="middle" x="105.2" y="-156.73" font-family="Helvetica,sans-Serif" font-size="10.00" fill="#63b8ff">1</text>
</a>
</g>
</g>
</g>
</svg>
