<?xml version="1.0" encoding="UTF-8" standalone="no"?>
<!DOCTYPE svg PUBLIC "-//W3C//DTD SVG 1.1//EN"
 "http://www.w3.org/Graphics/SVG/1.1/DTD/svg11.dtd">
<!-- Generated by graphviz version 2.43.0 (0)
 -->
<!-- Title: includes/response/HttpResponse.hpp Pages: 1 -->
<svg width="1991pt" height="280pt"
 viewBox="0.00 0.00 1991.34 280.00" xmlns="http://www.w3.org/2000/svg" xmlns:xlink="http://www.w3.org/1999/xlink">
<g id="graph0" class="graph" transform="scale(1 1) rotate(0) translate(4 276)">
<title>includes/response/HttpResponse.hpp</title>
<!-- Node1 -->
<g id="Node000001" class="node">
<title>Node1</title>
<g id="a_Node000001"><a xlink:title=" ">
<polygon fill="#999999" stroke="#666666" points="1222.34,-272 1025.34,-272 1025.34,-253 1222.34,-253 1222.34,-272"/>
<text text-anchor="middle" x="1123.84" y="-260" font-family="Helvetica,sans-Serif" font-size="10.00">includes/response/HttpResponse.hpp</text>
</a>
</g>
</g>
<!-- Node2 -->
<g id="Node000002" class="node">
<title>Node2</title>
<g id="a_Node000002"><a xlink:href="AutoIndexHandler_8hpp.html" target="_top" xlink:title=" ">
<polygon fill="white" stroke="#666666" points="1096.84,-151 968.84,-151 968.84,-121 1096.84,-121 1096.84,-151"/>
<text text-anchor="start" x="976.84" y="-139" font-family="Helvetica,sans-Serif" font-size="10.00">includes/dispatcher</text>
<text text-anchor="middle" x="1032.84" y="-128" font-family="Helvetica,sans-Serif" font-size="10.00">/AutoIndexHandler.hpp</text>
</a>
</g>
</g>
<!-- Node1&#45;&gt;Node2 -->
<g id="edge1_Node000001_Node000002" class="edge">
<title>Node1&#45;&gt;Node2</title>
<g id="a_edge1_Node000001_Node000002"><a xlink:title=" ">
<path fill="none" stroke="#63b8ff" d="M1111.47,-244.57C1093.38,-219.83 1060.05,-174.23 1043.19,-151.16"/>
<polygon fill="#63b8ff" stroke="#63b8ff" points="1108.86,-246.93 1117.58,-252.94 1114.51,-242.8 1108.86,-246.93"/>
</a>
</g>
</g>
<!-- Node5 -->
<g id="Node000005" class="node">
<title>Node5</title>
<g id="a_Node000005"><a xlink:href="CgiHandler_8hpp.html" target="_top" xlink:title=" ">
<polygon fill="white" stroke="#666666" points="738.34,-151 627.34,-151 627.34,-121 738.34,-121 738.34,-151"/>
<text text-anchor="start" x="635.34" y="-139" font-family="Helvetica,sans-Serif" font-size="10.00">includes/dispatcher</text>
<text text-anchor="middle" x="682.84" y="-128" font-family="Helvetica,sans-Serif" font-size="10.00">/CgiHandler.hpp</text>
</a>
</g>
</g>
<!-- Node1&#45;&gt;Node5 -->
<g id="edge4_Node000001_Node000005" class="edge">
<title>Node1&#45;&gt;Node5</title>
<g id="a_edge4_Node000001_Node000005"><a xlink:title=" ">
<path fill="none" stroke="#63b8ff" d="M1014.9,-254.85C927.93,-248.24 813.94,-236.25 771.84,-217 738.59,-201.79 708.99,-169.68 693.74,-151.1"/>
<polygon fill="#63b8ff" stroke="#63b8ff" points="1014.86,-258.36 1025.09,-255.61 1015.38,-251.38 1014.86,-258.36"/>
</a>
</g>
</g>
<!-- Node10 -->
<g id="Node000010" class="node">
<title>Node10</title>
<g id="a_Node000010"><a xlink:href="DeleteHandler_8hpp.html" target="_top" xlink:title=" ">
<polygon fill="white" stroke="#666666" points="1586.34,-217 1475.34,-217 1475.34,-187 1586.34,-187 1586.34,-217"/>
<text text-anchor="start" x="1483.34" y="-205" font-family="Helvetica,sans-Serif" font-size="10.00">includes/dispatcher</text>
<text text-anchor="middle" x="1530.84" y="-194" font-family="Helvetica,sans-Serif" font-size="10.00">/DeleteHandler.hpp</text>
</a>
</g>
</g>
<!-- Node1&#45;&gt;Node10 -->
<g id="edge10_Node000001_Node000010" class="edge">
<title>Node1&#45;&gt;Node10</title>
<g id="a_edge10_Node000001_Node000010"><a xlink:title=" ">
<path fill="none" stroke="#63b8ff" d="M1192.95,-251.57C1272.55,-240.12 1401.76,-221.55 1475.18,-211"/>
<polygon fill="#63b8ff" stroke="#63b8ff" points="1192.42,-248.11 1183.02,-252.99 1193.42,-255.04 1192.42,-248.11"/>
</a>
</g>
</g>
<!-- Node12 -->
<g id="Node000012" class="node">
<title>Node12</title>
<g id="a_Node000012"><a xlink:href="StaticPageHandler_8hpp.html" target="_top" xlink:title=" ">
<polygon fill="white" stroke="#666666" points="1244.34,-151 1115.34,-151 1115.34,-121 1244.34,-121 1244.34,-151"/>
<text text-anchor="start" x="1123.34" y="-139" font-family="Helvetica,sans-Serif" font-size="10.00">includes/dispatcher</text>
<text text-anchor="middle" x="1179.84" y="-128" font-family="Helvetica,sans-Serif" font-size="10.00">/StaticPageHandler.hpp</text>
</a>
</g>
</g>
<!-- Node1&#45;&gt;Node12 -->
<g id="edge13_Node000001_Node000012" class="edge">
<title>Node1&#45;&gt;Node12</title>
<g id="a_edge13_Node000001_Node000012"><a xlink:title=" ">
<path fill="none" stroke="#63b8ff" d="M1131.9,-243.58C1143.12,-218.63 1163.23,-173.92 1173.47,-151.16"/>
<polygon fill="#63b8ff" stroke="#63b8ff" points="1128.6,-242.39 1127.69,-252.94 1134.98,-245.26 1128.6,-242.39"/>
</a>
</g>
</g>
<!-- Node14 -->
<g id="Node000014" class="node">
<title>Node14</title>
<g id="a_Node000014"><a xlink:href="UploadHandler_8hpp.html" target="_top" xlink:title=" ">
<polygon fill="white" stroke="#666666" points="1772.34,-217 1659.34,-217 1659.34,-187 1772.34,-187 1772.34,-217"/>
<text text-anchor="start" x="1667.34" y="-205" font-family="Helvetica,sans-Serif" font-size="10.00">includes/dispatcher</text>
<text text-anchor="middle" x="1715.84" y="-194" font-family="Helvetica,sans-Serif" font-size="10.00">/UploadHandler.hpp</text>
</a>
</g>
</g>
<!-- Node1&#45;&gt;Node14 -->
<g id="edge16_Node000001_Node000014" class="edge">
<title>Node1&#45;&gt;Node14</title>
<g id="a_edge16_Node000001_Node000014"><a xlink:title=" ">
<path fill="none" stroke="#63b8ff" d="M1231.06,-252.07C1326.77,-243.5 1470.73,-230.19 1595.84,-217 1616.49,-214.82 1639.11,-212.24 1659.1,-209.88"/>
<polygon fill="#63b8ff" stroke="#63b8ff" points="1230.73,-248.59 1221.08,-252.97 1231.35,-255.56 1230.73,-248.59"/>
</a>
</g>
</g>
<!-- Node16 -->
<g id="Node000016" class="node">
<title>Node16</title>
<g id="a_Node000016"><a xlink:href="ClientConnection_8hpp.html" target="_top" xlink:title=" ">
<polygon fill="white" stroke="#666666" points="964.34,-211.5 781.34,-211.5 781.34,-192.5 964.34,-192.5 964.34,-211.5"/>
<text text-anchor="middle" x="872.84" y="-199.5" font-family="Helvetica,sans-Serif" font-size="10.00">includes/init/ClientConnection.hpp</text>
</a>
</g>
</g>
<!-- Node1&#45;&gt;Node16 -->
<g id="edge19_Node000001_Node000016" class="edge">
<title>Node1&#45;&gt;Node16</title>
<g id="a_edge19_Node000001_Node000016"><a xlink:title=" ">
<path fill="none" stroke="#63b8ff" d="M1077.42,-250.68C1028.92,-239.38 953.83,-221.88 909.38,-211.52"/>
<polygon fill="#63b8ff" stroke="#63b8ff" points="1076.81,-254.13 1087.34,-252.99 1078.4,-247.32 1076.81,-254.13"/>
</a>
</g>
</g>
<!-- Node22 -->
<g id="Node000022" class="node">
<title>Node22</title>
<g id="a_Node000022"><a xlink:href="ResponseBuilder_8hpp.html" target="_top" xlink:title=" ">
<polygon fill="white" stroke="#666666" points="950.34,-151 795.34,-151 795.34,-121 950.34,-121 950.34,-151"/>
<text text-anchor="start" x="803.34" y="-139" font-family="Helvetica,sans-Serif" font-size="10.00">includes/response/Response</text>
<text text-anchor="middle" x="872.84" y="-128" font-family="Helvetica,sans-Serif" font-size="10.00">Builder.hpp</text>
</a>
</g>
</g>
<!-- Node1&#45;&gt;Node22 -->
<g id="edge40_Node000001_Node000022" class="edge">
<title>Node1&#45;&gt;Node22</title>
<g id="a_edge40_Node000001_Node000022"><a xlink:title=" ">
<path fill="none" stroke="#63b8ff" d="M1097.55,-248.46C1050.09,-224.92 950.46,-175.5 901.39,-151.16"/>
<polygon fill="#63b8ff" stroke="#63b8ff" points="1096.07,-251.63 1106.59,-252.94 1099.18,-245.36 1096.07,-251.63"/>
</a>
</g>
</g>
<!-- Node25 -->
<g id="Node000025" class="node">
<title>Node25</title>
<g id="a_Node000025"><a xlink:href="HttpResponse_8cpp.html" target="_top" xlink:title=" ">
<polygon fill="white" stroke="#666666" points="1965.34,-211.5 1790.34,-211.5 1790.34,-192.5 1965.34,-192.5 1965.34,-211.5"/>
<text text-anchor="middle" x="1877.84" y="-199.5" font-family="Helvetica,sans-Serif" font-size="10.00">srcs/response/HttpResponse.cpp</text>
</a>
</g>
</g>
<!-- Node1&#45;&gt;Node25 -->
<g id="edge41_Node000001_Node000025" class="edge">
<title>Node1&#45;&gt;Node25</title>
<g id="a_edge41_Node000001_Node000025"><a xlink:title=" ">
<path fill="none" stroke="#63b8ff" d="M1232.44,-256.73C1363.07,-250.4 1588.9,-237.56 1781.84,-217 1795.74,-215.52 1810.72,-213.53 1824.61,-211.51"/>
<polygon fill="#63b8ff" stroke="#63b8ff" points="1232.24,-253.24 1222.42,-257.21 1232.58,-260.23 1232.24,-253.24"/>
</a>
</g>
</g>
<!-- Node3 -->
<g id="Node000003" class="node">
<title>Node3</title>
<g id="a_Node000003"><a xlink:href="AutoIndexHandler_8cpp.html" target="_top" xlink:title=" ">
<polygon fill="white" stroke="#666666" points="1097.34,-85 954.34,-85 954.34,-55 1097.34,-55 1097.34,-85"/>
<text text-anchor="start" x="962.34" y="-73" font-family="Helvetica,sans-Serif" font-size="10.00">srcs/dispatcher/AutoIndex</text>
<text text-anchor="middle" x="1025.84" y="-62" font-family="Helvetica,sans-Serif" font-size="10.00">Handler.cpp</text>
</a>
</g>
</g>
<!-- Node2&#45;&gt;Node3 -->
<g id="edge2_Node000002_Node000003" class="edge">
<title>Node2&#45;&gt;Node3</title>
<g id="a_edge2_Node000002_Node000003"><a xlink:title=" ">
<path fill="none" stroke="#63b8ff" d="M1030.2,-110.83C1029.25,-102.17 1028.21,-92.7 1027.39,-85.16"/>
<polygon fill="#63b8ff" stroke="#63b8ff" points="1026.72,-111.24 1031.29,-120.8 1033.68,-110.48 1026.72,-111.24"/>
</a>
</g>
</g>
<!-- Node4 -->
<g id="Node000004" class="node">
<title>Node4</title>
<g id="a_Node000004"><a xlink:href="Dispatcher_8cpp.html" target="_top" xlink:title=" ">
<polygon fill="white" stroke="#666666" points="1443.34,-79.5 1278.34,-79.5 1278.34,-60.5 1443.34,-60.5 1443.34,-79.5"/>
<text text-anchor="middle" x="1360.84" y="-67.5" font-family="Helvetica,sans-Serif" font-size="10.00">srcs/dispatcher/Dispatcher.cpp</text>
</a>
</g>
</g>
<!-- Node2&#45;&gt;Node4 -->
<g id="edge3_Node000002_Node000004" class="edge">
<title>Node2&#45;&gt;Node4</title>
<g id="a_edge3_Node000002_Node000004"><a xlink:title=" ">
<path fill="none" stroke="#63b8ff" d="M1106.99,-120.53C1171.65,-107.92 1263.25,-90.04 1316.91,-79.57"/>
<polygon fill="#63b8ff" stroke="#63b8ff" points="1106,-117.16 1096.86,-122.51 1107.34,-124.03 1106,-117.16"/>
</a>
</g>
</g>
<!-- Node5&#45;&gt;Node4 -->
<g id="edge9_Node000005_Node000004" class="edge">
<title>Node5&#45;&gt;Node4</title>
<g id="a_edge9_Node000005_Node000004"><a xlink:title=" ">
<path fill="none" stroke="#63b8ff" d="M748.6,-125.46C760.96,-123.83 773.78,-122.27 785.84,-121 999.92,-98.49 1054.94,-109.21 1268.84,-85 1282,-83.51 1296.17,-81.54 1309.35,-79.55"/>
<polygon fill="#63b8ff" stroke="#63b8ff" points="747.81,-122.03 738.36,-126.83 748.73,-128.97 747.81,-122.03"/>
</a>
</g>
</g>
<!-- Node6 -->
<g id="Node000006" class="node">
<title>Node6</title>
<g id="a_Node000006"><a xlink:href="WebServer_8hpp.html" target="_top" xlink:title=" ">
<polygon fill="white" stroke="#666666" points="326.84,-79.5 174.84,-79.5 174.84,-60.5 326.84,-60.5 326.84,-79.5"/>
<text text-anchor="middle" x="250.84" y="-67.5" font-family="Helvetica,sans-Serif" font-size="10.00">includes/init/WebServer.hpp</text>
</a>
</g>
</g>
<!-- Node5&#45;&gt;Node6 -->
<g id="edge5_Node000005_Node000006" class="edge">
<title>Node5&#45;&gt;Node6</title>
<g id="a_edge5_Node000005_Node000006"><a xlink:title=" ">
<path fill="none" stroke="#63b8ff" d="M617.22,-125.95C547.4,-116.22 433.74,-100.11 335.84,-85 324.75,-83.29 312.87,-81.38 301.6,-79.53"/>
<polygon fill="#63b8ff" stroke="#63b8ff" points="616.81,-129.42 627.2,-127.33 617.77,-122.49 616.81,-129.42"/>
</a>
</g>
</g>
<!-- Node9 -->
<g id="Node000009" class="node">
<title>Node9</title>
<g id="a_Node000009"><a xlink:href="CgiHandler_8cpp.html" target="_top" xlink:title=" ">
<polygon fill="white" stroke="#666666" points="512.34,-79.5 345.34,-79.5 345.34,-60.5 512.34,-60.5 512.34,-79.5"/>
<text text-anchor="middle" x="428.84" y="-67.5" font-family="Helvetica,sans-Serif" font-size="10.00">srcs/dispatcher/CgiHandler.cpp</text>
</a>
</g>
</g>
<!-- Node5&#45;&gt;Node9 -->
<g id="edge8_Node000005_Node000009" class="edge">
<title>Node5&#45;&gt;Node9</title>
<g id="a_edge8_Node000005_Node000009"><a xlink:title=" ">
<path fill="none" stroke="#63b8ff" d="M617.12,-118.44C567.68,-105.98 501.93,-89.42 462.64,-79.52"/>
<polygon fill="#63b8ff" stroke="#63b8ff" points="616.55,-121.91 627.1,-120.95 618.26,-115.12 616.55,-121.91"/>
</a>
</g>
</g>
<!-- Node7 -->
<g id="Node000007" class="node">
<title>Node7</title>
<g id="a_Node000007"><a xlink:href="WebServer_8cpp.html" target="_top" xlink:title=" ">
<polygon fill="white" stroke="#666666" points="990.84,-19 860.84,-19 860.84,0 990.84,0 990.84,-19"/>
<text text-anchor="middle" x="925.84" y="-7" font-family="Helvetica,sans-Serif" font-size="10.00">srcs/init/WebServer.cpp</text>
</a>
</g>
</g>
<!-- Node6&#45;&gt;Node7 -->
<g id="edge6_Node000006_Node000007" class="edge">
<title>Node6&#45;&gt;Node7</title>
<g id="a_edge6_Node000006_Node000007"><a xlink:title=" ">
<path fill="none" stroke="#63b8ff" d="M307.92,-58.89C317.23,-57.45 326.79,-56.08 335.84,-55 525.8,-32.24 751.65,-19.04 860.62,-13.54"/>
<polygon fill="#63b8ff" stroke="#63b8ff" points="307.27,-55.45 297.94,-60.48 308.37,-62.36 307.27,-55.45"/>
</a>
</g>
</g>
<!-- Node8 -->
<g id="Node000008" class="node">
<title>Node8</title>
<g id="a_Node000008"><a xlink:href="main_8cpp.html" target="_top" xlink:title=" ">
<polygon fill="white" stroke="#666666" points="160.84,-19 76.84,-19 76.84,0 160.84,0 160.84,-19"/>
<text text-anchor="middle" x="118.84" y="-7" font-family="Helvetica,sans-Serif" font-size="10.00">srcs/main.cpp</text>
</a>
</g>
</g>
<!-- Node6&#45;&gt;Node8 -->
<g id="edge7_Node000006_Node000008" class="edge">
<title>Node6&#45;&gt;Node8</title>
<g id="a_edge7_Node000006_Node000008"><a xlink:title=" ">
<path fill="none" stroke="#63b8ff" d="M222.48,-56.43C197,-45.14 160.26,-28.86 138.06,-19.02"/>
<polygon fill="#63b8ff" stroke="#63b8ff" points="221.08,-59.64 231.65,-60.49 223.92,-53.24 221.08,-59.64"/>
</a>
</g>
</g>
<!-- Node10&#45;&gt;Node4 -->
<g id="edge12_Node000010_Node000004" class="edge">
<title>Node10&#45;&gt;Node4</title>
<g id="a_edge12_Node000010_Node000004"><a xlink:title=" ">
<path fill="none" stroke="#63b8ff" d="M1531.07,-176.89C1529.96,-159.33 1525.66,-136.07 1511.84,-121 1491.5,-98.81 1461.1,-86.46 1432.9,-79.58"/>
<polygon fill="#63b8ff" stroke="#63b8ff" points="1527.58,-177.09 1531.41,-186.96 1534.57,-176.85 1527.58,-177.09"/>
</a>
</g>
</g>
<!-- Node11 -->
<g id="Node000011" class="node">
<title>Node11</title>
<g id="a_Node000011"><a xlink:href="DeleteHandler_8cpp.html" target="_top" xlink:title=" ">
<polygon fill="white" stroke="#666666" points="1742.34,-145.5 1559.34,-145.5 1559.34,-126.5 1742.34,-126.5 1742.34,-145.5"/>
<text text-anchor="middle" x="1650.84" y="-133.5" font-family="Helvetica,sans-Serif" font-size="10.00">srcs/dispatcher/DeleteHandler.cpp</text>
</a>
</g>
</g>
<!-- Node10&#45;&gt;Node11 -->
<g id="edge11_Node000010_Node000011" class="edge">
<title>Node10&#45;&gt;Node11</title>
<g id="a_edge11_Node000010_Node000011"><a xlink:title=" ">
<path fill="none" stroke="#63b8ff" d="M1566.21,-182.14C1588.96,-170 1617.43,-154.82 1634.87,-145.52"/>
<polygon fill="#63b8ff" stroke="#63b8ff" points="1564.35,-179.16 1557.17,-186.95 1567.64,-185.34 1564.35,-179.16"/>
</a>
</g>
</g>
<!-- Node12&#45;&gt;Node4 -->
<g id="edge14_Node000012_Node000004" class="edge">
<title>Node12&#45;&gt;Node4</title>
<g id="a_edge14_Node000012_Node000004"><a xlink:title=" ">
<path fill="none" stroke="#63b8ff" d="M1229.11,-117.58C1264.05,-105.23 1309.4,-89.19 1336.75,-79.52"/>
<polygon fill="#63b8ff" stroke="#63b8ff" points="1227.82,-114.32 1219.56,-120.95 1230.16,-120.92 1227.82,-114.32"/>
</a>
</g>
</g>
<!-- Node13 -->
<g id="Node000013" class="node">
<title>Node13</title>
<g id="a_Node000013"><a xlink:href="StaticPageHandler_8cpp.html" target="_top" xlink:title=" ">
<polygon fill="white" stroke="#666666" points="1259.84,-85 1115.84,-85 1115.84,-55 1259.84,-55 1259.84,-85"/>
<text text-anchor="start" x="1123.84" y="-73" font-family="Helvetica,sans-Serif" font-size="10.00">srcs/dispatcher/StaticPage</text>
<text text-anchor="middle" x="1187.84" y="-62" font-family="Helvetica,sans-Serif" font-size="10.00">Handler.cpp</text>
</a>
</g>
</g>
<!-- Node12&#45;&gt;Node13 -->
<g id="edge15_Node000012_Node000013" class="edge">
<title>Node12&#45;&gt;Node13</title>
<g id="a_edge15_Node000012_Node000013"><a xlink:title=" ">
<path fill="none" stroke="#63b8ff" d="M1182.86,-110.83C1183.94,-102.17 1185.13,-92.7 1186.07,-85.16"/>
<polygon fill="#63b8ff" stroke="#63b8ff" points="1179.38,-110.44 1181.61,-120.8 1186.33,-111.31 1179.38,-110.44"/>
</a>
</g>
</g>
<!-- Node14&#45;&gt;Node4 -->
<g id="edge17_Node000014_Node000004" class="edge">
<title>Node14&#45;&gt;Node4</title>
<g id="a_edge17_Node000014_Node000004"><a xlink:title=" ">
<path fill="none" stroke="#63b8ff" d="M1737.55,-179.4C1752.37,-162.06 1766.82,-137.9 1751.84,-121 1707.43,-70.93 1519.15,-94.04 1452.84,-85 1440.67,-83.34 1427.62,-81.43 1415.28,-79.57"/>
<polygon fill="#63b8ff" stroke="#63b8ff" points="1734.94,-177.08 1730.83,-186.84 1740.13,-181.77 1734.94,-177.08"/>
</a>
</g>
</g>
<!-- Node15 -->
<g id="Node000015" class="node">
<title>Node15</title>
<g id="a_Node000015"><a xlink:href="UploadHandler_8cpp.html" target="_top" xlink:title=" ">
<polygon fill="white" stroke="#666666" points="1983.34,-145.5 1798.34,-145.5 1798.34,-126.5 1983.34,-126.5 1983.34,-145.5"/>
<text text-anchor="middle" x="1890.84" y="-133.5" font-family="Helvetica,sans-Serif" font-size="10.00">srcs/dispatcher/UploadHandler.cpp</text>
</a>
</g>
</g>
<!-- Node14&#45;&gt;Node15 -->
<g id="edge18_Node000014_Node000015" class="edge">
<title>Node14&#45;&gt;Node15</title>
<g id="a_edge18_Node000014_Node000015"><a xlink:title=" ">
<path fill="none" stroke="#63b8ff" d="M1763.91,-183.42C1797.63,-171.09 1841.22,-155.15 1867.55,-145.52"/>
<polygon fill="#63b8ff" stroke="#63b8ff" points="1762.43,-180.23 1754.24,-186.95 1764.84,-186.81 1762.43,-180.23"/>
</a>
</g>
</g>
<!-- Node16&#45;&gt;Node5 -->
<g id="edge20_Node000016_Node000005" class="edge">
<title>Node16&#45;&gt;Node5</title>
<g id="a_edge20_Node000016_Node000005"><a xlink:title=" ">
<path fill="none" stroke="#63b8ff" d="M837.42,-189.07C805.49,-178.31 758.52,-162.49 724.74,-151.12"/>
<polygon fill="#63b8ff" stroke="#63b8ff" points="836.62,-192.49 847.21,-192.37 838.86,-185.86 836.62,-192.49"/>
</a>
</g>
</g>
<!-- Node17 -->
<g id="Node000017" class="node">
<title>Node17</title>
<g id="a_Node000017"><a xlink:href="Dispatcher_8hpp.html" target="_top" xlink:title=" ">
<polygon fill="white" stroke="#666666" points="1502.34,-151 1391.34,-151 1391.34,-121 1502.34,-121 1502.34,-151"/>
<text text-anchor="start" x="1399.34" y="-139" font-family="Helvetica,sans-Serif" font-size="10.00">includes/dispatcher</text>
<text text-anchor="middle" x="1446.84" y="-128" font-family="Helvetica,sans-Serif" font-size="10.00">/Dispatcher.hpp</text>
</a>
</g>
</g>
<!-- Node16&#45;&gt;Node17 -->
<g id="edge21_Node000016_Node000017" class="edge">
<title>Node16&#45;&gt;Node17</title>
<g id="a_edge21_Node000016_Node000017"><a xlink:title=" ">
<path fill="none" stroke="#63b8ff" d="M974.57,-194.57C1077.82,-187.2 1242.09,-173.22 1382.84,-151 1385.54,-150.57 1388.29,-150.11 1391.06,-149.61"/>
<polygon fill="#63b8ff" stroke="#63b8ff" points="974.19,-191.08 964.46,-195.28 974.68,-198.07 974.19,-191.08"/>
</a>
</g>
</g>
<!-- Node18 -->
<g id="Node000018" class="node">
<title>Node18</title>
<g id="a_Node000018"><a xlink:href="Router_8hpp.html" target="_top" xlink:title=" ">
<polygon fill="white" stroke="#666666" points="1373.34,-151 1262.34,-151 1262.34,-121 1373.34,-121 1373.34,-151"/>
<text text-anchor="start" x="1270.34" y="-139" font-family="Helvetica,sans-Serif" font-size="10.00">includes/dispatcher</text>
<text text-anchor="middle" x="1317.84" y="-128" font-family="Helvetica,sans-Serif" font-size="10.00">/Router.hpp</text>
</a>
</g>
</g>
<!-- Node16&#45;&gt;Node18 -->
<g id="edge24_Node000016_Node000018" class="edge">
<title>Node16&#45;&gt;Node18</title>
<g id="a_edge24_Node000016_Node000018"><a xlink:title=" ">
<path fill="none" stroke="#63b8ff" d="M963.24,-191.32C1040.65,-182.52 1154.94,-168.27 1253.84,-151 1256.53,-150.53 1259.28,-150.03 1262.05,-149.5"/>
<polygon fill="#63b8ff" stroke="#63b8ff" points="962.59,-187.88 953.05,-192.48 963.38,-194.83 962.59,-187.88"/>
</a>
</g>
</g>
<!-- Node20 -->
<g id="Node000020" class="node">
<title>Node20</title>
<g id="a_Node000020"><a xlink:href="ServerSocket_8hpp.html" target="_top" xlink:title=" ">
<polygon fill="white" stroke="#666666" points="250.84,-145.5 86.84,-145.5 86.84,-126.5 250.84,-126.5 250.84,-145.5"/>
<text text-anchor="middle" x="168.84" y="-133.5" font-family="Helvetica,sans-Serif" font-size="10.00">includes/init/ServerSocket.hpp</text>
</a>
</g>
</g>
<!-- Node16&#45;&gt;Node20 -->
<g id="edge27_Node000016_Node000020" class="edge">
<title>Node16&#45;&gt;Node20</title>
<g id="a_edge27_Node000016_Node000020"><a xlink:title=" ">
<path fill="none" stroke="#63b8ff" d="M770.83,-191.73C630.31,-178.95 379.99,-156.2 250.88,-144.46"/>
<polygon fill="#63b8ff" stroke="#63b8ff" points="770.89,-195.25 781.16,-192.67 771.52,-188.27 770.89,-195.25"/>
</a>
</g>
</g>
<!-- Node16&#45;&gt;Node22 -->
<g id="edge31_Node000016_Node000022" class="edge">
<title>Node16&#45;&gt;Node22</title>
<g id="a_edge31_Node000016_Node000022"><a xlink:title=" ">
<path fill="none" stroke="#63b8ff" d="M872.84,-182.35C872.84,-172.47 872.84,-160.51 872.84,-151.36"/>
<polygon fill="#63b8ff" stroke="#63b8ff" points="869.34,-182.37 872.84,-192.37 876.34,-182.37 869.34,-182.37"/>
</a>
</g>
</g>
<!-- Node23 -->
<g id="Node000023" class="node">
<title>Node23</title>
<g id="a_Node000023"><a xlink:href="ClientConnection_8cpp.html" target="_top" xlink:title=" ">
<polygon fill="white" stroke="#666666" points="691.34,-79.5 530.34,-79.5 530.34,-60.5 691.34,-60.5 691.34,-79.5"/>
<text text-anchor="middle" x="610.84" y="-67.5" font-family="Helvetica,sans-Serif" font-size="10.00">srcs/init/ClientConnection.cpp</text>
</a>
</g>
</g>
<!-- Node16&#45;&gt;Node23 -->
<g id="edge39_Node000016_Node000023" class="edge">
<title>Node16&#45;&gt;Node23</title>
<g id="a_edge39_Node000016_Node000023"><a xlink:title=" ">
<path fill="none" stroke="#63b8ff" d="M847.31,-187.51C829.68,-177.91 805.89,-164.38 785.84,-151 767.65,-138.86 765.99,-131.56 746.84,-121 712.92,-102.29 670.59,-88 642.25,-79.58"/>
<polygon fill="#63b8ff" stroke="#63b8ff" points="845.95,-190.75 856.41,-192.42 849.27,-184.59 845.95,-190.75"/>
</a>
</g>
</g>
<!-- Node17&#45;&gt;Node4 -->
<g id="edge22_Node000017_Node000004" class="edge">
<title>Node17&#45;&gt;Node4</title>
<g id="a_edge22_Node000017_Node000004"><a xlink:title=" ">
<path fill="none" stroke="#63b8ff" d="M1419.41,-114.58C1403.67,-102.87 1384.72,-88.77 1372.72,-79.84"/>
<polygon fill="#63b8ff" stroke="#63b8ff" points="1417.64,-117.63 1427.75,-120.8 1421.82,-112.02 1417.64,-117.63"/>
</a>
</g>
</g>
<!-- Node17&#45;&gt;Node7 -->
<g id="edge23_Node000017_Node000007" class="edge">
<title>Node17&#45;&gt;Node7</title>
<g id="a_edge23_Node000017_Node000007"><a xlink:title=" ">
<path fill="none" stroke="#63b8ff" d="M1512.49,-126.17C1574.14,-115.33 1651.91,-93.47 1615.84,-55 1573.66,-10.01 1154.57,-8.58 990.87,-9.76"/>
<polygon fill="#63b8ff" stroke="#63b8ff" points="1511.65,-122.76 1502.37,-127.88 1512.81,-129.67 1511.65,-122.76"/>
</a>
</g>
</g>
<!-- Node18&#45;&gt;Node4 -->
<g id="edge25_Node000018_Node000004" class="edge">
<title>Node18&#45;&gt;Node4</title>
<g id="a_edge25_Node000018_Node000004"><a xlink:title=" ">
<path fill="none" stroke="#63b8ff" d="M1333.1,-112.28C1340.64,-101.07 1349.29,-88.19 1354.9,-79.84"/>
<polygon fill="#63b8ff" stroke="#63b8ff" points="1330.05,-110.54 1327.38,-120.8 1335.86,-114.45 1330.05,-110.54"/>
</a>
</g>
</g>
<!-- Node19 -->
<g id="Node000019" class="node">
<title>Node19</title>
<g id="a_Node000019"><a xlink:href="Router_8cpp.html" target="_top" xlink:title=" ">
<polygon fill="white" stroke="#666666" points="1606.34,-79.5 1461.34,-79.5 1461.34,-60.5 1606.34,-60.5 1606.34,-79.5"/>
<text text-anchor="middle" x="1533.84" y="-67.5" font-family="Helvetica,sans-Serif" font-size="10.00">srcs/dispatcher/Router.cpp</text>
</a>
</g>
</g>
<!-- Node18&#45;&gt;Node19 -->
<g id="edge26_Node000018_Node000019" class="edge">
<title>Node18&#45;&gt;Node19</title>
<g id="a_edge26_Node000018_Node000019"><a xlink:title=" ">
<path fill="none" stroke="#63b8ff" d="M1375.04,-118.05C1416.94,-105.64 1472.03,-89.31 1505.09,-79.52"/>
<polygon fill="#63b8ff" stroke="#63b8ff" points="1373.83,-114.76 1365.24,-120.95 1375.82,-121.47 1373.83,-114.76"/>
</a>
</g>
</g>
<!-- Node20&#45;&gt;Node6 -->
<g id="edge28_Node000020_Node000006" class="edge">
<title>Node20&#45;&gt;Node6</title>
<g id="a_edge28_Node000020_Node000006"><a xlink:title=" ">
<path fill="none" stroke="#63b8ff" d="M188.07,-119.99C204.13,-107.46 226.45,-90.04 239.69,-79.7"/>
<polygon fill="#63b8ff" stroke="#63b8ff" points="185.63,-117.46 179.9,-126.37 189.93,-122.98 185.63,-117.46"/>
</a>
</g>
</g>
<!-- Node20&#45;&gt;Node8 -->
<g id="edge30_Node000020_Node000008" class="edge">
<title>Node20&#45;&gt;Node8</title>
<g id="a_edge30_Node000020_Node000008"><a xlink:title=" ">
<path fill="none" stroke="#63b8ff" d="M76.61,-127.44C49.48,-120.41 22.61,-107.68 5.84,-85 -2.09,-74.28 -1.67,-66.02 5.84,-55 21.62,-31.82 51.51,-20.72 76.58,-15.39"/>
<polygon fill="#63b8ff" stroke="#63b8ff" points="76.06,-130.91 86.6,-129.79 77.66,-124.09 76.06,-130.91"/>
</a>
</g>
</g>
<!-- Node21 -->
<g id="Node000021" class="node">
<title>Node21</title>
<g id="a_Node000021"><a xlink:href="ServerSocket_8cpp.html" target="_top" xlink:title=" ">
<polygon fill="white" stroke="#666666" points="156.84,-79.5 14.84,-79.5 14.84,-60.5 156.84,-60.5 156.84,-79.5"/>
<text text-anchor="middle" x="85.84" y="-67.5" font-family="Helvetica,sans-Serif" font-size="10.00">srcs/init/ServerSocket.cpp</text>
</a>
</g>
</g>
<!-- Node20&#45;&gt;Node21 -->
<g id="edge29_Node000020_Node000021" class="edge">
<title>Node20&#45;&gt;Node21</title>
<g id="a_edge29_Node000020_Node000021"><a xlink:title=" ">
<path fill="none" stroke="#63b8ff" d="M149.37,-119.99C133.12,-107.46 110.53,-90.04 97.12,-79.7"/>
<polygon fill="#63b8ff" stroke="#63b8ff" points="147.59,-123.03 157.65,-126.37 151.86,-117.49 147.59,-123.03"/>
</a>
</g>
</g>
<!-- Node22&#45;&gt;Node3 -->
<g id="edge32_Node000022_Node000003" class="edge">
<title>Node22&#45;&gt;Node3</title>
<g id="a_edge32_Node000022_Node000003"><a xlink:title=" ">
<path fill="none" stroke="#63b8ff" d="M915.74,-117.05C939.98,-106.91 969.84,-94.43 992.34,-85.01"/>
<polygon fill="#63b8ff" stroke="#63b8ff" points="914.29,-113.87 906.42,-120.95 916.99,-120.32 914.29,-113.87"/>
</a>
</g>
</g>
<!-- Node22&#45;&gt;Node4 -->
<g id="edge34_Node000022_Node000004" class="edge">
<title>Node22&#45;&gt;Node4</title>
<g id="a_edge34_Node000022_Node000004"><a xlink:title=" ">
<path fill="none" stroke="#63b8ff" d="M960.7,-120.92C1098.49,-102.07 1135.02,-102.97 1268.84,-85 1281.17,-83.34 1294.4,-81.42 1306.89,-79.53"/>
<polygon fill="#63b8ff" stroke="#63b8ff" points="960.03,-117.48 950.6,-122.31 960.99,-124.42 960.03,-117.48"/>
</a>
</g>
</g>
<!-- Node22&#45;&gt;Node7 -->
<g id="edge37_Node000022_Node000007" class="edge">
<title>Node22&#45;&gt;Node7</title>
<g id="a_edge37_Node000022_Node000007"><a xlink:title=" ">
<path fill="none" stroke="#63b8ff" d="M890.36,-112.82C896.28,-104.48 902.49,-94.66 906.84,-85 917.04,-62.37 922.45,-33.29 924.64,-19.09"/>
<polygon fill="#63b8ff" stroke="#63b8ff" points="887.5,-110.8 884.38,-120.92 893.14,-114.95 887.5,-110.8"/>
</a>
</g>
</g>
<!-- Node22&#45;&gt;Node9 -->
<g id="edge33_Node000022_Node000009" class="edge">
<title>Node22&#45;&gt;Node9</title>
<g id="a_edge33_Node000022_Node000009"><a xlink:title=" ">
<path fill="none" stroke="#63b8ff" d="M784.94,-122.76C713.71,-112.78 610.77,-98.23 520.84,-85 509.01,-83.26 496.33,-81.36 484.29,-79.53"/>
<polygon fill="#63b8ff" stroke="#63b8ff" points="784.82,-126.28 795.21,-124.2 785.79,-119.35 784.82,-126.28"/>
</a>
</g>
</g>
<!-- Node22&#45;&gt;Node13 -->
<g id="edge35_Node000022_Node000013" class="edge">
<title>Node22&#45;&gt;Node13</title>
<g id="a_edge35_Node000022_Node000013"><a xlink:title=" ">
<path fill="none" stroke="#63b8ff" d="M952.03,-118.91C1003.4,-108.47 1069.67,-95.01 1118.87,-85.01"/>
<polygon fill="#63b8ff" stroke="#63b8ff" points="951.07,-115.53 941.97,-120.95 952.46,-122.39 951.07,-115.53"/>
</a>
</g>
</g>
<!-- Node22&#45;&gt;Node23 -->
<g id="edge36_Node000022_Node000023" class="edge">
<title>Node22&#45;&gt;Node23</title>
<g id="a_edge36_Node000022_Node000023"><a xlink:title=" ">
<path fill="none" stroke="#63b8ff" d="M805.37,-118.52C754.33,-106.05 686.31,-89.44 645.71,-79.52"/>
<polygon fill="#63b8ff" stroke="#63b8ff" points="804.8,-121.98 815.34,-120.95 806.46,-115.18 804.8,-121.98"/>
</a>
</g>
</g>
<!-- Node24 -->
<g id="Node000024" class="node">
<title>Node24</title>
<g id="a_Node000024"><a xlink:href="ResponseBuilder_8cpp.html" target="_top" xlink:title=" ">
<polygon fill="white" stroke="#666666" points="897.84,-79.5 709.84,-79.5 709.84,-60.5 897.84,-60.5 897.84,-79.5"/>
<text text-anchor="middle" x="803.84" y="-67.5" font-family="Helvetica,sans-Serif" font-size="10.00">srcs/response/ResponseBuilder.cpp</text>
</a>
</g>
</g>
<!-- Node22&#45;&gt;Node24 -->
<g id="edge38_Node000022_Node000024" class="edge">
<title>Node22&#45;&gt;Node24</title>
<g id="a_edge38_Node000022_Node000024"><a xlink:title=" ">
<path fill="none" stroke="#63b8ff" d="M850.13,-113.93C837.64,-102.35 822.82,-88.61 813.37,-79.84"/>
<polygon fill="#63b8ff" stroke="#63b8ff" points="847.81,-116.56 857.53,-120.8 852.57,-111.43 847.81,-116.56"/>
</a>
</g>
</g>
</g>
</svg>
