<?xml version="1.0" encoding="UTF-8" standalone="no"?>
<!DOCTYPE svg PUBLIC "-//W3C//DTD SVG 1.1//EN"
 "http://www.w3.org/Graphics/SVG/1.1/DTD/svg11.dtd">
<!-- Generated by graphviz version 2.43.0 (0)
 -->
<!-- Title: HttpResponse.hpp Pages: 1 -->
<svg width="1438pt" height="247pt"
 viewBox="0.00 0.00 1437.50 247.00" xmlns="http://www.w3.org/2000/svg" xmlns:xlink="http://www.w3.org/1999/xlink">
<g id="graph0" class="graph" transform="scale(1 1) rotate(0) translate(4 243)">
<title>HttpResponse.hpp</title>
<!-- Node1 -->
<g id="Node000001" class="node">
<title>Node1</title>
<g id="a_Node000001"><a xlink:title=" ">
<polygon fill="#999999" stroke="#666666" points="992.5,-239 886.5,-239 886.5,-220 992.5,-220 992.5,-239"/>
<text text-anchor="middle" x="939.5" y="-227" font-family="Helvetica,sans-Serif" font-size="10.00">HttpResponse.hpp</text>
</a>
</g>
</g>
<!-- Node2 -->
<g id="Node000002" class="node">
<title>Node2</title>
<g id="a_Node000002"><a xlink:href="AutoIndexHandler_8hpp.html" target="_top" xlink:title=" ">
<polygon fill="white" stroke="#666666" points="762,-129 637,-129 637,-110 762,-110 762,-129"/>
<text text-anchor="middle" x="699.5" y="-117" font-family="Helvetica,sans-Serif" font-size="10.00">AutoIndexHandler.hpp</text>
</a>
</g>
</g>
<!-- Node1&#45;&gt;Node2 -->
<g id="edge1_Node000001_Node000002" class="edge">
<title>Node1&#45;&gt;Node2</title>
<g id="a_edge1_Node000001_Node000002"><a xlink:title=" ">
<path fill="none" stroke="#63b8ff" d="M911.07,-215.71C861.49,-193.4 760.5,-147.95 718.49,-129.05"/>
<polygon fill="#63b8ff" stroke="#63b8ff" points="909.71,-218.93 920.27,-219.84 912.58,-212.55 909.71,-218.93"/>
</a>
</g>
</g>
<!-- Node5 -->
<g id="Node000005" class="node">
<title>Node5</title>
<g id="a_Node000005"><a xlink:href="CgiHandler_8hpp.html" target="_top" xlink:title=" ">
<polygon fill="white" stroke="#666666" points="443,-129 352,-129 352,-110 443,-110 443,-129"/>
<text text-anchor="middle" x="397.5" y="-117" font-family="Helvetica,sans-Serif" font-size="10.00">CgiHandler.hpp</text>
</a>
</g>
</g>
<!-- Node1&#45;&gt;Node5 -->
<g id="edge4_Node000001_Node000005" class="edge">
<title>Node1&#45;&gt;Node5</title>
<g id="a_edge4_Node000001_Node000005"><a xlink:title=" ">
<path fill="none" stroke="#63b8ff" d="M876.18,-226.14C769.52,-221.52 558.87,-209.43 489.5,-184 455.61,-171.58 422.4,-143.68 406.77,-129.36"/>
<polygon fill="#63b8ff" stroke="#63b8ff" points="876.34,-229.65 886.48,-226.58 876.63,-222.66 876.34,-229.65"/>
</a>
</g>
</g>
<!-- Node10 -->
<g id="Node000010" class="node">
<title>Node10</title>
<g id="a_Node000010"><a xlink:href="ClientConnection_8hpp.html" target="_top" xlink:title=" ">
<polygon fill="white" stroke="#666666" points="620,-184 499,-184 499,-165 620,-165 620,-184"/>
<text text-anchor="middle" x="559.5" y="-172" font-family="Helvetica,sans-Serif" font-size="10.00">ClientConnection.hpp</text>
</a>
</g>
</g>
<!-- Node1&#45;&gt;Node10 -->
<g id="edge10_Node000001_Node000010" class="edge">
<title>Node1&#45;&gt;Node10</title>
<g id="a_edge10_Node000001_Node000010"><a xlink:title=" ">
<path fill="none" stroke="#63b8ff" d="M876.09,-219.66C804.92,-209.73 690.27,-193.74 620.22,-183.97"/>
<polygon fill="#63b8ff" stroke="#63b8ff" points="875.87,-223.16 886.26,-221.07 876.84,-216.23 875.87,-223.16"/>
</a>
</g>
</g>
<!-- Node13 -->
<g id="Node000013" class="node">
<title>Node13</title>
<g id="a_Node000013"><a xlink:href="ResponseBuilder_8hpp.html" target="_top" xlink:title=" ">
<polygon fill="white" stroke="#666666" points="619,-129 500,-129 500,-110 619,-110 619,-129"/>
<text text-anchor="middle" x="559.5" y="-117" font-family="Helvetica,sans-Serif" font-size="10.00">ResponseBuilder.hpp</text>
</a>
</g>
</g>
<!-- Node1&#45;&gt;Node13 -->
<g id="edge35_Node000001_Node000013" class="edge">
<title>Node1&#45;&gt;Node13</title>
<g id="a_edge35_Node000001_Node000013"><a xlink:title=" ">
<path fill="none" stroke="#63b8ff" d="M899.63,-217.17C823.21,-195.45 657.68,-148.4 589.64,-129.07"/>
<polygon fill="#63b8ff" stroke="#63b8ff" points="898.79,-220.57 909.36,-219.94 900.7,-213.83 898.79,-220.57"/>
</a>
</g>
</g>
<!-- Node20 -->
<g id="Node000020" class="node">
<title>Node20</title>
<g id="a_Node000020"><a xlink:href="DeleteHandler_8hpp.html" target="_top" xlink:title=" ">
<polygon fill="white" stroke="#666666" points="1074,-184 967,-184 967,-165 1074,-165 1074,-184"/>
<text text-anchor="middle" x="1020.5" y="-172" font-family="Helvetica,sans-Serif" font-size="10.00">DeleteHandler.hpp</text>
</a>
</g>
</g>
<!-- Node1&#45;&gt;Node20 -->
<g id="edge31_Node000001_Node000020" class="edge">
<title>Node1&#45;&gt;Node20</title>
<g id="a_edge31_Node000001_Node000020"><a xlink:title=" ">
<path fill="none" stroke="#63b8ff" d="M961.01,-214.42C975.71,-204.81 994.72,-192.37 1007.25,-184.17"/>
<polygon fill="#63b8ff" stroke="#63b8ff" points="958.97,-211.58 952.51,-219.98 962.8,-217.44 958.97,-211.58"/>
</a>
</g>
</g>
<!-- Node22 -->
<g id="Node000022" class="node">
<title>Node22</title>
<g id="a_Node000022"><a xlink:href="HttpResponse_8cpp.html" target="_top" xlink:title=" ">
<polygon fill="white" stroke="#666666" points="1364,-184 1259,-184 1259,-165 1364,-165 1364,-184"/>
<text text-anchor="middle" x="1311.5" y="-172" font-family="Helvetica,sans-Serif" font-size="10.00">HttpResponse.cpp</text>
</a>
</g>
</g>
<!-- Node1&#45;&gt;Node22 -->
<g id="edge34_Node000001_Node000022" class="edge">
<title>Node1&#45;&gt;Node22</title>
<g id="a_edge34_Node000001_Node000022"><a xlink:title=" ">
<path fill="none" stroke="#63b8ff" d="M1003.11,-219.44C1075.28,-209.15 1191.65,-192.58 1258.9,-182.99"/>
<polygon fill="#63b8ff" stroke="#63b8ff" points="1002.2,-216.03 992.8,-220.91 1003.19,-222.96 1002.2,-216.03"/>
</a>
</g>
</g>
<!-- Node23 -->
<g id="Node000023" class="node">
<title>Node23</title>
<g id="a_Node000023"><a xlink:href="StaticPageHandler_8hpp.html" target="_top" xlink:title=" ">
<polygon fill="white" stroke="#666666" points="1429.5,-129 1303.5,-129 1303.5,-110 1429.5,-110 1429.5,-129"/>
<text text-anchor="middle" x="1366.5" y="-117" font-family="Helvetica,sans-Serif" font-size="10.00">StaticPageHandler.hpp</text>
</a>
</g>
</g>
<!-- Node1&#45;&gt;Node23 -->
<g id="edge36_Node000001_Node000023" class="edge">
<title>Node1&#45;&gt;Node23</title>
<g id="a_edge36_Node000001_Node000023"><a xlink:title=" ">
<path fill="none" stroke="#63b8ff" d="M1002.82,-223.4C1058.74,-217.67 1141.95,-206.11 1211.5,-184 1229.88,-178.16 1232.82,-172.68 1250.5,-165 1281.76,-151.42 1318.62,-137.65 1342.26,-129.1"/>
<polygon fill="#63b8ff" stroke="#63b8ff" points="1002.31,-219.93 992.71,-224.4 1003,-226.9 1002.31,-219.93"/>
</a>
</g>
</g>
<!-- Node24 -->
<g id="Node000024" class="node">
<title>Node24</title>
<g id="a_Node000024"><a xlink:href="UploadHandler_8hpp.html" target="_top" xlink:title=" ">
<polygon fill="white" stroke="#666666" points="1202.5,-184 1092.5,-184 1092.5,-165 1202.5,-165 1202.5,-184"/>
<text text-anchor="middle" x="1147.5" y="-172" font-family="Helvetica,sans-Serif" font-size="10.00">UploadHandler.hpp</text>
</a>
</g>
</g>
<!-- Node1&#45;&gt;Node24 -->
<g id="edge39_Node000001_Node000024" class="edge">
<title>Node1&#45;&gt;Node24</title>
<g id="a_edge39_Node000001_Node000024"><a xlink:title=" ">
<path fill="none" stroke="#63b8ff" d="M982.91,-217.44C1021.85,-207.52 1078.19,-193.16 1113.82,-184.08"/>
<polygon fill="#63b8ff" stroke="#63b8ff" points="981.74,-214.12 972.92,-219.98 983.47,-220.91 981.74,-214.12"/>
</a>
</g>
</g>
<!-- Node3 -->
<g id="Node000003" class="node">
<title>Node3</title>
<g id="a_Node000003"><a xlink:href="AutoIndexHandler_8cpp.html" target="_top" xlink:title=" ">
<polygon fill="white" stroke="#666666" points="809.5,-74 685.5,-74 685.5,-55 809.5,-55 809.5,-74"/>
<text text-anchor="middle" x="747.5" y="-62" font-family="Helvetica,sans-Serif" font-size="10.00">AutoIndexHandler.cpp</text>
</a>
</g>
</g>
<!-- Node2&#45;&gt;Node3 -->
<g id="edge2_Node000002_Node000003" class="edge">
<title>Node2&#45;&gt;Node3</title>
<g id="a_edge2_Node000002_Node000003"><a xlink:title=" ">
<path fill="none" stroke="#63b8ff" d="M714.23,-102.24C722.64,-92.95 732.85,-81.68 739.72,-74.09"/>
<polygon fill="#63b8ff" stroke="#63b8ff" points="711.54,-99.99 707.43,-109.75 716.73,-104.69 711.54,-99.99"/>
</a>
</g>
</g>
<!-- Node4 -->
<g id="Node000004" class="node">
<title>Node4</title>
<g id="a_Node000004"><a xlink:href="Dispatcher_8cpp.html" target="_top" xlink:title=" ">
<polygon fill="white" stroke="#666666" points="955,-74 866,-74 866,-55 955,-55 955,-74"/>
<text text-anchor="middle" x="910.5" y="-62" font-family="Helvetica,sans-Serif" font-size="10.00">Dispatcher.cpp</text>
</a>
</g>
</g>
<!-- Node2&#45;&gt;Node4 -->
<g id="edge3_Node000002_Node000004" class="edge">
<title>Node2&#45;&gt;Node4</title>
<g id="a_edge3_Node000002_Node000004"><a xlink:title=" ">
<path fill="none" stroke="#63b8ff" d="M743.29,-107.5C782.8,-97.58 840.12,-83.18 876.33,-74.08"/>
<polygon fill="#63b8ff" stroke="#63b8ff" points="742.25,-104.15 733.4,-109.98 743.95,-110.94 742.25,-104.15"/>
</a>
</g>
</g>
<!-- Node5&#45;&gt;Node4 -->
<g id="edge6_Node000005_Node000004" class="edge">
<title>Node5&#45;&gt;Node4</title>
<g id="a_edge6_Node000005_Node000004"><a xlink:title=" ">
<path fill="none" stroke="#63b8ff" d="M453.17,-112.75C555.64,-102.16 772.18,-79.79 865.81,-70.12"/>
<polygon fill="#63b8ff" stroke="#63b8ff" points="452.61,-109.29 443.03,-113.8 453.33,-116.25 452.61,-109.29"/>
</a>
</g>
</g>
<!-- Node6 -->
<g id="Node000006" class="node">
<title>Node6</title>
<g id="a_Node000006"><a xlink:href="CgiHandler_8cpp.html" target="_top" xlink:title=" ">
<polygon fill="white" stroke="#666666" points="355.5,-74 265.5,-74 265.5,-55 355.5,-55 355.5,-74"/>
<text text-anchor="middle" x="310.5" y="-62" font-family="Helvetica,sans-Serif" font-size="10.00">CgiHandler.cpp</text>
</a>
</g>
</g>
<!-- Node5&#45;&gt;Node6 -->
<g id="edge5_Node000005_Node000006" class="edge">
<title>Node5&#45;&gt;Node6</title>
<g id="a_edge5_Node000005_Node000006"><a xlink:title=" ">
<path fill="none" stroke="#63b8ff" d="M374.84,-104.7C358.99,-95.04 338.31,-82.44 324.73,-74.17"/>
<polygon fill="#63b8ff" stroke="#63b8ff" points="373.16,-107.77 383.52,-109.98 376.8,-101.79 373.16,-107.77"/>
</a>
</g>
</g>
<!-- Node7 -->
<g id="Node000007" class="node">
<title>Node7</title>
<g id="a_Node000007"><a xlink:href="WebServer_8hpp.html" target="_top" xlink:title=" ">
<polygon fill="white" stroke="#666666" points="247,-74 158,-74 158,-55 247,-55 247,-74"/>
<text text-anchor="middle" x="202.5" y="-62" font-family="Helvetica,sans-Serif" font-size="10.00">WebServer.hpp</text>
</a>
</g>
</g>
<!-- Node5&#45;&gt;Node7 -->
<g id="edge7_Node000005_Node000007" class="edge">
<title>Node5&#45;&gt;Node7</title>
<g id="a_edge7_Node000005_Node000007"><a xlink:title=" ">
<path fill="none" stroke="#63b8ff" d="M356.33,-107.31C319.84,-97.39 267.33,-83.12 234.08,-74.08"/>
<polygon fill="#63b8ff" stroke="#63b8ff" points="355.6,-110.74 366.17,-109.98 357.44,-103.98 355.6,-110.74"/>
</a>
</g>
</g>
<!-- Node8 -->
<g id="Node000008" class="node">
<title>Node8</title>
<g id="a_Node000008"><a xlink:href="WebServer_8cpp.html" target="_top" xlink:title=" ">
<polygon fill="white" stroke="#666666" points="702,-19 613,-19 613,0 702,0 702,-19"/>
<text text-anchor="middle" x="657.5" y="-7" font-family="Helvetica,sans-Serif" font-size="10.00">WebServer.cpp</text>
</a>
</g>
</g>
<!-- Node7&#45;&gt;Node8 -->
<g id="edge8_Node000007_Node000008" class="edge">
<title>Node7&#45;&gt;Node8</title>
<g id="a_edge8_Node000007_Node000008"><a xlink:title=" ">
<path fill="none" stroke="#63b8ff" d="M257.43,-54.93C393.06,-36.92 540.61,-21.86 612.91,-14.78"/>
<polygon fill="#63b8ff" stroke="#63b8ff" points="256.71,-51.5 247.27,-56.29 257.64,-58.44 256.71,-51.5"/>
</a>
</g>
</g>
<!-- Node9 -->
<g id="Node000009" class="node">
<title>Node9</title>
<g id="a_Node000009"><a xlink:href="main_8cpp.html" target="_top" xlink:title=" ">
<polygon fill="white" stroke="#666666" points="197.5,-19 135.5,-19 135.5,0 197.5,0 197.5,-19"/>
<text text-anchor="middle" x="166.5" y="-7" font-family="Helvetica,sans-Serif" font-size="10.00">main.cpp</text>
</a>
</g>
</g>
<!-- Node7&#45;&gt;Node9 -->
<g id="edge9_Node000007_Node000009" class="edge">
<title>Node7&#45;&gt;Node9</title>
<g id="a_edge9_Node000007_Node000009"><a xlink:title=" ">
<path fill="none" stroke="#63b8ff" d="M190.88,-46.39C184.68,-37.27 177.33,-26.45 172.33,-19.09"/>
<polygon fill="#63b8ff" stroke="#63b8ff" points="188.04,-48.44 196.56,-54.75 193.83,-44.51 188.04,-48.44"/>
</a>
</g>
</g>
<!-- Node10&#45;&gt;Node5 -->
<g id="edge11_Node000010_Node000005" class="edge">
<title>Node10&#45;&gt;Node5</title>
<g id="a_edge11_Node000010_Node000005"><a xlink:title=" ">
<path fill="none" stroke="#63b8ff" d="M523.73,-161.8C493.5,-151.91 450.89,-137.97 423.73,-129.08"/>
<polygon fill="#63b8ff" stroke="#63b8ff" points="522.88,-165.2 533.47,-164.98 525.06,-158.55 522.88,-165.2"/>
</a>
</g>
</g>
<!-- Node11 -->
<g id="Node000011" class="node">
<title>Node11</title>
<g id="a_Node000011"><a xlink:href="ClientConnection_8cpp.html" target="_top" xlink:title=" ">
<polygon fill="white" stroke="#666666" points="493.5,-74 373.5,-74 373.5,-55 493.5,-55 493.5,-74"/>
<text text-anchor="middle" x="433.5" y="-62" font-family="Helvetica,sans-Serif" font-size="10.00">ClientConnection.cpp</text>
</a>
</g>
</g>
<!-- Node10&#45;&gt;Node11 -->
<g id="edge12_Node000010_Node000011" class="edge">
<title>Node10&#45;&gt;Node11</title>
<g id="a_edge12_Node000010_Node000011"><a xlink:title=" ">
<path fill="none" stroke="#63b8ff" d="M534.74,-159.73C521.08,-151.6 504.16,-140.65 490.5,-129 470.21,-111.7 450.27,-87.33 440.22,-74.39"/>
<polygon fill="#63b8ff" stroke="#63b8ff" points="533.2,-162.88 543.6,-164.88 536.72,-156.83 533.2,-162.88"/>
</a>
</g>
</g>
<!-- Node12 -->
<g id="Node000012" class="node">
<title>Node12</title>
<g id="a_Node000012"><a xlink:href="Dispatcher_8hpp.html" target="_top" xlink:title=" ">
<polygon fill="white" stroke="#666666" points="869,-129 780,-129 780,-110 869,-110 869,-129"/>
<text text-anchor="middle" x="824.5" y="-117" font-family="Helvetica,sans-Serif" font-size="10.00">Dispatcher.hpp</text>
</a>
</g>
</g>
<!-- Node10&#45;&gt;Node12 -->
<g id="edge13_Node000010_Node000012" class="edge">
<title>Node10&#45;&gt;Node12</title>
<g id="a_edge13_Node000010_Node000012"><a xlink:title=" ">
<path fill="none" stroke="#63b8ff" d="M611.99,-163C661.66,-153.07 735.33,-138.33 781.59,-129.08"/>
<polygon fill="#63b8ff" stroke="#63b8ff" points="611.2,-159.59 602.08,-164.98 612.57,-166.46 611.2,-159.59"/>
</a>
</g>
</g>
<!-- Node10&#45;&gt;Node13 -->
<g id="edge16_Node000010_Node000013" class="edge">
<title>Node10&#45;&gt;Node13</title>
<g id="a_edge16_Node000010_Node000013"><a xlink:title=" ">
<path fill="none" stroke="#63b8ff" d="M559.5,-154.66C559.5,-145.93 559.5,-135.99 559.5,-129.09"/>
<polygon fill="#63b8ff" stroke="#63b8ff" points="556,-154.75 559.5,-164.75 563,-154.75 556,-154.75"/>
</a>
</g>
</g>
<!-- Node16 -->
<g id="Node000016" class="node">
<title>Node16</title>
<g id="a_Node000016"><a xlink:href="Router_8hpp.html" target="_top" xlink:title=" ">
<polygon fill="white" stroke="#666666" points="956,-129 887,-129 887,-110 956,-110 956,-129"/>
<text text-anchor="middle" x="921.5" y="-117" font-family="Helvetica,sans-Serif" font-size="10.00">Router.hpp</text>
</a>
</g>
</g>
<!-- Node10&#45;&gt;Node16 -->
<g id="edge24_Node000010_Node000016" class="edge">
<title>Node10&#45;&gt;Node16</title>
<g id="a_edge24_Node000010_Node000016"><a xlink:title=" ">
<path fill="none" stroke="#63b8ff" d="M630.32,-164.79C695.08,-156.54 793.45,-143.33 878.5,-129 881.2,-128.54 883.99,-128.05 886.8,-127.53"/>
<polygon fill="#63b8ff" stroke="#63b8ff" points="629.7,-161.34 620.22,-166.07 630.58,-168.28 629.7,-161.34"/>
</a>
</g>
</g>
<!-- Node18 -->
<g id="Node000018" class="node">
<title>Node18</title>
<g id="a_Node000018"><a xlink:href="ServerSocket_8hpp.html" target="_top" xlink:title=" ">
<polygon fill="white" stroke="#666666" points="217,-129 116,-129 116,-110 217,-110 217,-129"/>
<text text-anchor="middle" x="166.5" y="-117" font-family="Helvetica,sans-Serif" font-size="10.00">ServerSocket.hpp</text>
</a>
</g>
</g>
<!-- Node10&#45;&gt;Node18 -->
<g id="edge27_Node000010_Node000018" class="edge">
<title>Node10&#45;&gt;Node18</title>
<g id="a_edge27_Node000010_Node000018"><a xlink:title=" ">
<path fill="none" stroke="#63b8ff" d="M488.7,-163.95C410.4,-153.39 286.21,-136.64 217.11,-127.33"/>
<polygon fill="#63b8ff" stroke="#63b8ff" points="488.58,-167.47 498.96,-165.33 489.51,-160.53 488.58,-167.47"/>
</a>
</g>
</g>
<!-- Node12&#45;&gt;Node4 -->
<g id="edge14_Node000012_Node000004" class="edge">
<title>Node12&#45;&gt;Node4</title>
<g id="a_edge14_Node000012_Node000004"><a xlink:title=" ">
<path fill="none" stroke="#63b8ff" d="M846.9,-104.7C862.57,-95.04 883.01,-82.44 896.43,-74.17"/>
<polygon fill="#63b8ff" stroke="#63b8ff" points="844.99,-101.76 838.32,-109.98 848.67,-107.72 844.99,-101.76"/>
</a>
</g>
</g>
<!-- Node12&#45;&gt;Node8 -->
<g id="edge15_Node000012_Node000008" class="edge">
<title>Node12&#45;&gt;Node8</title>
<g id="a_edge15_Node000012_Node000008"><a xlink:title=" ">
<path fill="none" stroke="#63b8ff" d="M827.91,-100.03C829.37,-86.09 828.83,-67.32 818.5,-55 803.6,-37.22 744.43,-24.28 702.15,-17.08"/>
<polygon fill="#63b8ff" stroke="#63b8ff" points="824.44,-99.56 826.45,-109.96 831.36,-100.58 824.44,-99.56"/>
</a>
</g>
</g>
<!-- Node13&#45;&gt;Node3 -->
<g id="edge17_Node000013_Node000003" class="edge">
<title>Node13&#45;&gt;Node3</title>
<g id="a_edge17_Node000013_Node000003"><a xlink:title=" ">
<path fill="none" stroke="#63b8ff" d="M599.64,-107.18C634.8,-97.27 685.13,-83.08 717.06,-74.08"/>
<polygon fill="#63b8ff" stroke="#63b8ff" points="598.38,-103.9 589.71,-109.98 600.28,-110.64 598.38,-103.9"/>
</a>
</g>
</g>
<!-- Node13&#45;&gt;Node4 -->
<g id="edge20_Node000013_Node000004" class="edge">
<title>Node13&#45;&gt;Node4</title>
<g id="a_edge20_Node000013_Node000004"><a xlink:title=" ">
<path fill="none" stroke="#63b8ff" d="M625.98,-108.46C696.3,-97.84 805.3,-81.39 865.94,-72.23"/>
<polygon fill="#63b8ff" stroke="#63b8ff" points="625.26,-105.03 615.89,-109.98 626.3,-111.95 625.26,-105.03"/>
</a>
</g>
</g>
<!-- Node13&#45;&gt;Node6 -->
<g id="edge18_Node000013_Node000006" class="edge">
<title>Node13&#45;&gt;Node6</title>
<g id="a_edge18_Node000013_Node000006"><a xlink:title=" ">
<path fill="none" stroke="#63b8ff" d="M509.6,-107.88C462.93,-97.94 394.11,-83.3 350.82,-74.08"/>
<polygon fill="#63b8ff" stroke="#63b8ff" points="508.98,-111.33 519.49,-109.98 510.44,-104.48 508.98,-111.33"/>
</a>
</g>
</g>
<!-- Node13&#45;&gt;Node8 -->
<g id="edge23_Node000013_Node000008" class="edge">
<title>Node13&#45;&gt;Node8</title>
<g id="a_edge23_Node000013_Node000008"><a xlink:title=" ">
<path fill="none" stroke="#63b8ff" d="M594.33,-105.92C609.83,-98.73 627.11,-88.26 638.5,-74 651.58,-57.64 655.66,-32.45 656.93,-19.25"/>
<polygon fill="#63b8ff" stroke="#63b8ff" points="592.77,-102.78 584.99,-109.97 595.55,-109.2 592.77,-102.78"/>
</a>
</g>
</g>
<!-- Node13&#45;&gt;Node11 -->
<g id="edge19_Node000013_Node000011" class="edge">
<title>Node13&#45;&gt;Node11</title>
<g id="a_edge19_Node000013_Node000011"><a xlink:title=" ">
<path fill="none" stroke="#63b8ff" d="M529.85,-106.03C506.55,-96.23 474.7,-82.83 454.11,-74.17"/>
<polygon fill="#63b8ff" stroke="#63b8ff" points="528.68,-109.33 539.26,-109.98 531.4,-102.88 528.68,-109.33"/>
</a>
</g>
</g>
<!-- Node14 -->
<g id="Node000014" class="node">
<title>Node14</title>
<g id="a_Node000014"><a xlink:href="ResponseBuilder_8cpp.html" target="_top" xlink:title=" ">
<polygon fill="white" stroke="#666666" points="629.5,-74 511.5,-74 511.5,-55 629.5,-55 629.5,-74"/>
<text text-anchor="middle" x="570.5" y="-62" font-family="Helvetica,sans-Serif" font-size="10.00">ResponseBuilder.cpp</text>
</a>
</g>
</g>
<!-- Node13&#45;&gt;Node14 -->
<g id="edge21_Node000013_Node000014" class="edge">
<title>Node13&#45;&gt;Node14</title>
<g id="a_edge21_Node000013_Node000014"><a xlink:title=" ">
<path fill="none" stroke="#63b8ff" d="M563.35,-99.95C565.18,-91.15 567.27,-81.06 568.72,-74.09"/>
<polygon fill="#63b8ff" stroke="#63b8ff" points="559.92,-99.25 561.32,-109.75 566.78,-100.67 559.92,-99.25"/>
</a>
</g>
</g>
<!-- Node15 -->
<g id="Node000015" class="node">
<title>Node15</title>
<g id="a_Node000015"><a xlink:href="StaticPageHandler_8cpp.html" target="_top" xlink:title=" ">
<polygon fill="white" stroke="#666666" points="1098,-74 973,-74 973,-55 1098,-55 1098,-74"/>
<text text-anchor="middle" x="1035.5" y="-62" font-family="Helvetica,sans-Serif" font-size="10.00">StaticPageHandler.cpp</text>
</a>
</g>
</g>
<!-- Node13&#45;&gt;Node15 -->
<g id="edge22_Node000013_Node000015" class="edge">
<title>Node13&#45;&gt;Node15</title>
<g id="a_edge22_Node000013_Node000015"><a xlink:title=" ">
<path fill="none" stroke="#63b8ff" d="M629.21,-109.82C778.8,-92.58 818.04,-90.59 964.5,-74 967.21,-73.69 969.99,-73.38 972.79,-73.05"/>
<polygon fill="#63b8ff" stroke="#63b8ff" points="628.73,-106.35 619.2,-110.98 629.53,-113.3 628.73,-106.35"/>
</a>
</g>
</g>
<!-- Node16&#45;&gt;Node4 -->
<g id="edge25_Node000016_Node000004" class="edge">
<title>Node16&#45;&gt;Node4</title>
<g id="a_edge25_Node000016_Node000004"><a xlink:title=" ">
<path fill="none" stroke="#63b8ff" d="M917.65,-99.95C915.82,-91.15 913.73,-81.06 912.28,-74.09"/>
<polygon fill="#63b8ff" stroke="#63b8ff" points="914.22,-100.67 919.68,-109.75 921.08,-99.25 914.22,-100.67"/>
</a>
</g>
</g>
<!-- Node17 -->
<g id="Node000017" class="node">
<title>Node17</title>
<g id="a_Node000017"><a xlink:href="Router_8cpp.html" target="_top" xlink:title=" ">
<polygon fill="white" stroke="#666666" points="1184.5,-74 1116.5,-74 1116.5,-55 1184.5,-55 1184.5,-74"/>
<text text-anchor="middle" x="1150.5" y="-62" font-family="Helvetica,sans-Serif" font-size="10.00">Router.cpp</text>
</a>
</g>
</g>
<!-- Node16&#45;&gt;Node17 -->
<g id="edge26_Node000016_Node000017" class="edge">
<title>Node16&#45;&gt;Node17</title>
<g id="a_edge26_Node000016_Node000017"><a xlink:title=" ">
<path fill="none" stroke="#63b8ff" d="M966.12,-108.17C1010.03,-98.01 1076.16,-82.7 1116.14,-73.45"/>
<polygon fill="#63b8ff" stroke="#63b8ff" points="965.23,-104.79 956.28,-110.45 966.81,-111.61 965.23,-104.79"/>
</a>
</g>
</g>
<!-- Node18&#45;&gt;Node7 -->
<g id="edge29_Node000018_Node000007" class="edge">
<title>Node18&#45;&gt;Node7</title>
<g id="a_edge29_Node000018_Node000007"><a xlink:title=" ">
<path fill="none" stroke="#63b8ff" d="M178.12,-101.39C184.32,-92.27 191.67,-81.45 196.67,-74.09"/>
<polygon fill="#63b8ff" stroke="#63b8ff" points="175.17,-99.51 172.44,-109.75 180.96,-103.44 175.17,-99.51"/>
</a>
</g>
</g>
<!-- Node18&#45;&gt;Node9 -->
<g id="edge30_Node000018_Node000009" class="edge">
<title>Node18&#45;&gt;Node9</title>
<g id="a_edge30_Node000018_Node000009"><a xlink:title=" ">
<path fill="none" stroke="#63b8ff" d="M157.56,-100.9C153.98,-92.91 150.29,-83.2 148.5,-74 144.6,-53.98 154.83,-31.1 161.42,-19.02"/>
<polygon fill="#63b8ff" stroke="#63b8ff" points="154.41,-102.43 161.88,-109.94 160.73,-99.41 154.41,-102.43"/>
</a>
</g>
</g>
<!-- Node19 -->
<g id="Node000019" class="node">
<title>Node19</title>
<g id="a_Node000019"><a xlink:href="ServerSocket_8cpp.html" target="_top" xlink:title=" ">
<polygon fill="white" stroke="#666666" points="101,-74 0,-74 0,-55 101,-55 101,-74"/>
<text text-anchor="middle" x="50.5" y="-62" font-family="Helvetica,sans-Serif" font-size="10.00">ServerSocket.cpp</text>
</a>
</g>
</g>
<!-- Node18&#45;&gt;Node19 -->
<g id="edge28_Node000018_Node000019" class="edge">
<title>Node18&#45;&gt;Node19</title>
<g id="a_edge28_Node000018_Node000019"><a xlink:title=" ">
<path fill="none" stroke="#63b8ff" d="M138.63,-105.77C117.23,-95.99 88.26,-82.75 69.48,-74.17"/>
<polygon fill="#63b8ff" stroke="#63b8ff" points="137.31,-109.01 147.86,-109.98 140.22,-102.65 137.31,-109.01"/>
</a>
</g>
</g>
<!-- Node20&#45;&gt;Node4 -->
<g id="edge33_Node000020_Node000004" class="edge">
<title>Node20&#45;&gt;Node4</title>
<g id="a_edge33_Node000020_Node000004"><a xlink:title=" ">
<path fill="none" stroke="#63b8ff" d="M1052.69,-160.63C1077.8,-148.69 1106.02,-129.82 1090.5,-110 1082.09,-99.26 1005.91,-83.23 955.38,-73.63"/>
<polygon fill="#63b8ff" stroke="#63b8ff" points="1051,-157.55 1043.32,-164.85 1053.88,-163.93 1051,-157.55"/>
</a>
</g>
</g>
<!-- Node21 -->
<g id="Node000021" class="node">
<title>Node21</title>
<g id="a_Node000021"><a xlink:href="DeleteHandler_8cpp.html" target="_top" xlink:title=" ">
<polygon fill="white" stroke="#666666" points="1081,-129 974,-129 974,-110 1081,-110 1081,-129"/>
<text text-anchor="middle" x="1027.5" y="-117" font-family="Helvetica,sans-Serif" font-size="10.00">DeleteHandler.cpp</text>
</a>
</g>
</g>
<!-- Node20&#45;&gt;Node21 -->
<g id="edge32_Node000020_Node000021" class="edge">
<title>Node20&#45;&gt;Node21</title>
<g id="a_edge32_Node000020_Node000021"><a xlink:title=" ">
<path fill="none" stroke="#63b8ff" d="M1022.99,-154.66C1024.14,-145.93 1025.45,-135.99 1026.37,-129.09"/>
<polygon fill="#63b8ff" stroke="#63b8ff" points="1019.5,-154.38 1021.66,-164.75 1026.44,-155.29 1019.5,-154.38"/>
</a>
</g>
</g>
<!-- Node23&#45;&gt;Node4 -->
<g id="edge37_Node000023_Node000004" class="edge">
<title>Node23&#45;&gt;Node4</title>
<g id="a_edge37_Node000023_Node000004"><a xlink:title=" ">
<path fill="none" stroke="#63b8ff" d="M1292.99,-109.84C1146.18,-93.35 1107.46,-93.04 964.5,-74 961.49,-73.6 958.39,-73.17 955.27,-72.71"/>
<polygon fill="#63b8ff" stroke="#63b8ff" points="1292.96,-113.36 1303.29,-111.01 1293.74,-106.4 1292.96,-113.36"/>
</a>
</g>
</g>
<!-- Node23&#45;&gt;Node15 -->
<g id="edge38_Node000023_Node000015" class="edge">
<title>Node23&#45;&gt;Node15</title>
<g id="a_edge38_Node000023_Node000015"><a xlink:title=" ">
<path fill="none" stroke="#63b8ff" d="M1303.24,-108.37C1241.09,-98.42 1147.3,-83.4 1088.82,-74.04"/>
<polygon fill="#63b8ff" stroke="#63b8ff" points="1302.89,-111.86 1313.32,-109.98 1304,-104.95 1302.89,-111.86"/>
</a>
</g>
</g>
<!-- Node24&#45;&gt;Node4 -->
<g id="edge40_Node000024_Node000004" class="edge">
<title>Node24&#45;&gt;Node4</title>
<g id="a_edge40_Node000024_Node000004"><a xlink:title=" ">
<path fill="none" stroke="#63b8ff" d="M1140.49,-155.56C1133.88,-141.06 1122.59,-121.26 1106.5,-110 1094.13,-101.35 1008.97,-84.07 955.05,-73.77"/>
<polygon fill="#63b8ff" stroke="#63b8ff" points="1137.35,-157.14 1144.47,-164.99 1143.8,-154.42 1137.35,-157.14"/>
</a>
</g>
</g>
<!-- Node25 -->
<g id="Node000025" class="node">
<title>Node25</title>
<g id="a_Node000025"><a xlink:href="UploadHandler_8cpp.html" target="_top" xlink:title=" ">
<polygon fill="white" stroke="#666666" points="1285,-129 1176,-129 1176,-110 1285,-110 1285,-129"/>
<text text-anchor="middle" x="1230.5" y="-117" font-family="Helvetica,sans-Serif" font-size="10.00">UploadHandler.cpp</text>
</a>
</g>
</g>
<!-- Node24&#45;&gt;Node25 -->
<g id="edge41_Node000024_Node000025" class="edge">
<title>Node24&#45;&gt;Node25</title>
<g id="a_edge41_Node000024_Node000025"><a xlink:title=" ">
<path fill="none" stroke="#63b8ff" d="M1169.54,-159.42C1184.61,-149.81 1204.09,-137.37 1216.92,-129.17"/>
<polygon fill="#63b8ff" stroke="#63b8ff" points="1167.38,-156.65 1160.84,-164.98 1171.15,-162.55 1167.38,-156.65"/>
</a>
</g>
</g>
</g>
</svg>
