<?xml version="1.0" encoding="UTF-8" standalone="no"?>
<!DOCTYPE svg PUBLIC "-//W3C//DTD SVG 1.1//EN"
 "http://www.w3.org/Graphics/SVG/1.1/DTD/svg11.dtd">
<!-- Generated by graphviz version 2.43.0 (0)
 -->
<!-- Title: HttpRequest.hpp Pages: 1 -->
<svg width="1496pt" height="247pt"
 viewBox="0.00 0.00 1496.23 247.00" xmlns="http://www.w3.org/2000/svg" xmlns:xlink="http://www.w3.org/1999/xlink">
<g id="graph0" class="graph" transform="scale(1 1) rotate(0) translate(4 243)">
<title>HttpRequest.hpp</title>
<!-- Node1 -->
<g id="Node000001" class="node">
<title>Node1</title>
<g id="a_Node000001"><a xlink:title=" ">
<polygon fill="#999999" stroke="#666666" points="824.23,-239 726.23,-239 726.23,-220 824.23,-220 824.23,-239"/>
<text text-anchor="middle" x="775.23" y="-227" font-family="Helvetica,sans-Serif" font-size="10.00">HttpRequest.hpp</text>
</a>
</g>
</g>
<!-- Node2 -->
<g id="Node000002" class="node">
<title>Node2</title>
<g id="a_Node000002"><a xlink:href="AutoIndexHandler_8hpp.html" target="_top" xlink:title=" ">
<polygon fill="white" stroke="#666666" points="698.73,-129 573.73,-129 573.73,-110 698.73,-110 698.73,-129"/>
<text text-anchor="middle" x="636.23" y="-117" font-family="Helvetica,sans-Serif" font-size="10.00">AutoIndexHandler.hpp</text>
</a>
</g>
</g>
<!-- Node1&#45;&gt;Node2 -->
<g id="edge1_Node000001_Node000002" class="edge">
<title>Node1&#45;&gt;Node2</title>
<g id="a_edge1_Node000001_Node000002"><a xlink:title=" ">
<path fill="none" stroke="#63b8ff" d="M716.12,-218.15C694.41,-211.64 671.25,-201.08 655.23,-184 640.75,-168.55 637.27,-142.51 636.46,-129.08"/>
<polygon fill="#63b8ff" stroke="#63b8ff" points="715.39,-221.58 725.96,-220.87 717.25,-214.83 715.39,-221.58"/>
</a>
</g>
</g>
<!-- Node5 -->
<g id="Node000005" class="node">
<title>Node5</title>
<g id="a_Node000005"><a xlink:href="CgiHandler_8hpp.html" target="_top" xlink:title=" ">
<polygon fill="white" stroke="#666666" points="341.73,-129 250.73,-129 250.73,-110 341.73,-110 341.73,-129"/>
<text text-anchor="middle" x="296.23" y="-117" font-family="Helvetica,sans-Serif" font-size="10.00">CgiHandler.hpp</text>
</a>
</g>
</g>
<!-- Node1&#45;&gt;Node5 -->
<g id="edge4_Node000001_Node000005" class="edge">
<title>Node1&#45;&gt;Node5</title>
<g id="a_edge4_Node000001_Node000005"><a xlink:title=" ">
<path fill="none" stroke="#63b8ff" d="M716.2,-226.83C645.81,-223.52 525.24,-213.61 426.23,-184 381.47,-170.61 333.13,-143.16 310.04,-129.14"/>
<polygon fill="#63b8ff" stroke="#63b8ff" points="716.07,-230.33 726.21,-227.28 716.38,-223.34 716.07,-230.33"/>
</a>
</g>
</g>
<!-- Node10 -->
<g id="Node000010" class="node">
<title>Node10</title>
<g id="a_Node000010"><a xlink:href="ClientConnection_8hpp.html" target="_top" xlink:title=" ">
<polygon fill="white" stroke="#666666" points="556.73,-184 435.73,-184 435.73,-165 556.73,-165 556.73,-184"/>
<text text-anchor="middle" x="496.23" y="-172" font-family="Helvetica,sans-Serif" font-size="10.00">ClientConnection.hpp</text>
</a>
</g>
</g>
<!-- Node1&#45;&gt;Node10 -->
<g id="edge10_Node000001_Node000010" class="edge">
<title>Node1&#45;&gt;Node10</title>
<g id="a_edge10_Node000001_Node000010"><a xlink:title=" ">
<path fill="none" stroke="#63b8ff" d="M720.3,-218.07C668,-208.13 590.22,-193.35 541.41,-184.08"/>
<polygon fill="#63b8ff" stroke="#63b8ff" points="719.93,-221.56 730.41,-219.98 721.24,-214.68 719.93,-221.56"/>
</a>
</g>
</g>
<!-- Node20 -->
<g id="Node000020" class="node">
<title>Node20</title>
<g id="a_Node000020"><a xlink:href="DeleteHandler_8hpp.html" target="_top" xlink:title=" ">
<polygon fill="white" stroke="#666666" points="1009.73,-184 902.73,-184 902.73,-165 1009.73,-165 1009.73,-184"/>
<text text-anchor="middle" x="956.23" y="-172" font-family="Helvetica,sans-Serif" font-size="10.00">DeleteHandler.hpp</text>
</a>
</g>
</g>
<!-- Node1&#45;&gt;Node20 -->
<g id="edge31_Node000001_Node000020" class="edge">
<title>Node1&#45;&gt;Node20</title>
<g id="a_edge31_Node000001_Node000020"><a xlink:title=" ">
<path fill="none" stroke="#63b8ff" d="M814.32,-217.06C848.15,-207.15 896.32,-193.04 926.93,-184.08"/>
<polygon fill="#63b8ff" stroke="#63b8ff" points="812.93,-213.82 804.32,-219.98 814.9,-220.53 812.93,-213.82"/>
</a>
</g>
</g>
<!-- Node22 -->
<g id="Node000022" class="node">
<title>Node22</title>
<g id="a_Node000022"><a xlink:href="HttpRequest_8cpp.html" target="_top" xlink:title=" ">
<polygon fill="white" stroke="#666666" points="884.23,-184 786.23,-184 786.23,-165 884.23,-165 884.23,-184"/>
<text text-anchor="middle" x="835.23" y="-172" font-family="Helvetica,sans-Serif" font-size="10.00">HttpRequest.cpp</text>
</a>
</g>
</g>
<!-- Node1&#45;&gt;Node22 -->
<g id="edge34_Node000001_Node000022" class="edge">
<title>Node1&#45;&gt;Node22</title>
<g id="a_edge34_Node000001_Node000022"><a xlink:title=" ">
<path fill="none" stroke="#63b8ff" d="M792.42,-213.32C803.11,-203.87 816.49,-192.06 825.42,-184.17"/>
<polygon fill="#63b8ff" stroke="#63b8ff" points="790.05,-210.74 784.87,-219.98 794.69,-215.99 790.05,-210.74"/>
</a>
</g>
</g>
<!-- Node23 -->
<g id="Node000023" class="node">
<title>Node23</title>
<g id="a_Node000023"><a xlink:href="RequestParse_8hpp.html" target="_top" xlink:title=" ">
<polygon fill="white" stroke="#666666" points="768.23,-184 664.23,-184 664.23,-165 768.23,-165 768.23,-184"/>
<text text-anchor="middle" x="716.23" y="-172" font-family="Helvetica,sans-Serif" font-size="10.00">RequestParse.hpp</text>
</a>
</g>
</g>
<!-- Node1&#45;&gt;Node23 -->
<g id="edge35_Node000001_Node000023" class="edge">
<title>Node1&#45;&gt;Node23</title>
<g id="a_edge35_Node000001_Node000023"><a xlink:title=" ">
<path fill="none" stroke="#63b8ff" d="M758.03,-213.04C747.56,-203.64 734.58,-191.98 725.89,-184.17"/>
<polygon fill="#63b8ff" stroke="#63b8ff" points="755.98,-215.91 765.76,-219.98 760.65,-210.7 755.98,-215.91"/>
</a>
</g>
</g>
<!-- Node25 -->
<g id="Node000025" class="node">
<title>Node25</title>
<g id="a_Node000025"><a xlink:href="StaticPageHandler_8hpp.html" target="_top" xlink:title=" ">
<polygon fill="white" stroke="#666666" points="1488.23,-129 1362.23,-129 1362.23,-110 1488.23,-110 1488.23,-129"/>
<text text-anchor="middle" x="1425.23" y="-117" font-family="Helvetica,sans-Serif" font-size="10.00">StaticPageHandler.hpp</text>
</a>
</g>
</g>
<!-- Node1&#45;&gt;Node25 -->
<g id="edge38_Node000001_Node000025" class="edge">
<title>Node1&#45;&gt;Node25</title>
<g id="a_edge38_Node000001_Node000025"><a xlink:title=" ">
<path fill="none" stroke="#63b8ff" d="M834.58,-224.79C914.35,-219.18 1060.35,-206.69 1183.23,-184 1262.26,-169.41 1353.45,-142.74 1397.95,-129.08"/>
<polygon fill="#63b8ff" stroke="#63b8ff" points="833.98,-221.32 824.25,-225.51 834.46,-228.31 833.98,-221.32"/>
</a>
</g>
</g>
<!-- Node26 -->
<g id="Node000026" class="node">
<title>Node26</title>
<g id="a_Node000026"><a xlink:href="UploadHandler_8hpp.html" target="_top" xlink:title=" ">
<polygon fill="white" stroke="#666666" points="1174.23,-184 1064.23,-184 1064.23,-165 1174.23,-165 1174.23,-184"/>
<text text-anchor="middle" x="1119.23" y="-172" font-family="Helvetica,sans-Serif" font-size="10.00">UploadHandler.hpp</text>
</a>
</g>
</g>
<!-- Node1&#45;&gt;Node26 -->
<g id="edge41_Node000001_Node000026" class="edge">
<title>Node1&#45;&gt;Node26</title>
<g id="a_edge41_Node000001_Node000026"><a xlink:title=" ">
<path fill="none" stroke="#63b8ff" d="M834.53,-219.36C899.02,-209.43 1001.25,-193.68 1064.06,-184"/>
<polygon fill="#63b8ff" stroke="#63b8ff" points="833.87,-215.92 824.52,-220.91 834.94,-222.84 833.87,-215.92"/>
</a>
</g>
</g>
<!-- Node3 -->
<g id="Node000003" class="node">
<title>Node3</title>
<g id="a_Node000003"><a xlink:href="AutoIndexHandler_8cpp.html" target="_top" xlink:title=" ">
<polygon fill="white" stroke="#666666" points="784.23,-74 660.23,-74 660.23,-55 784.23,-55 784.23,-74"/>
<text text-anchor="middle" x="722.23" y="-62" font-family="Helvetica,sans-Serif" font-size="10.00">AutoIndexHandler.cpp</text>
</a>
</g>
</g>
<!-- Node2&#45;&gt;Node3 -->
<g id="edge2_Node000002_Node000003" class="edge">
<title>Node2&#45;&gt;Node3</title>
<g id="a_edge2_Node000002_Node000003"><a xlink:title=" ">
<path fill="none" stroke="#63b8ff" d="M658.63,-104.7C674.3,-95.04 694.74,-82.44 708.17,-74.17"/>
<polygon fill="#63b8ff" stroke="#63b8ff" points="656.73,-101.76 650.05,-109.98 660.4,-107.72 656.73,-101.76"/>
</a>
</g>
</g>
<!-- Node4 -->
<g id="Node000004" class="node">
<title>Node4</title>
<g id="a_Node000004"><a xlink:href="Dispatcher_8cpp.html" target="_top" xlink:title=" ">
<polygon fill="white" stroke="#666666" points="964.73,-74 875.73,-74 875.73,-55 964.73,-55 964.73,-74"/>
<text text-anchor="middle" x="920.23" y="-62" font-family="Helvetica,sans-Serif" font-size="10.00">Dispatcher.cpp</text>
</a>
</g>
</g>
<!-- Node2&#45;&gt;Node4 -->
<g id="edge3_Node000002_Node000004" class="edge">
<title>Node2&#45;&gt;Node4</title>
<g id="a_edge3_Node000002_Node000004"><a xlink:title=" ">
<path fill="none" stroke="#63b8ff" d="M691.91,-108.11C745.66,-98.08 826,-83.09 875.65,-73.82"/>
<polygon fill="#63b8ff" stroke="#63b8ff" points="691.05,-104.71 681.86,-109.98 692.34,-111.59 691.05,-104.71"/>
</a>
</g>
</g>
<!-- Node5&#45;&gt;Node4 -->
<g id="edge6_Node000005_Node000004" class="edge">
<title>Node5&#45;&gt;Node4</title>
<g id="a_edge6_Node000005_Node000004"><a xlink:title=" ">
<path fill="none" stroke="#63b8ff" d="M352.13,-113.75C474.51,-103.36 764.1,-78.76 875.49,-69.3"/>
<polygon fill="#63b8ff" stroke="#63b8ff" points="351.53,-110.29 341.87,-114.62 352.13,-117.27 351.53,-110.29"/>
</a>
</g>
</g>
<!-- Node6 -->
<g id="Node000006" class="node">
<title>Node6</title>
<g id="a_Node000006"><a xlink:href="CgiHandler_8cpp.html" target="_top" xlink:title=" ">
<polygon fill="white" stroke="#666666" points="330.23,-74 240.23,-74 240.23,-55 330.23,-55 330.23,-74"/>
<text text-anchor="middle" x="285.23" y="-62" font-family="Helvetica,sans-Serif" font-size="10.00">CgiHandler.cpp</text>
</a>
</g>
</g>
<!-- Node5&#45;&gt;Node6 -->
<g id="edge5_Node000005_Node000006" class="edge">
<title>Node5&#45;&gt;Node6</title>
<g id="a_edge5_Node000005_Node000006"><a xlink:title=" ">
<path fill="none" stroke="#63b8ff" d="M292.38,-99.95C290.56,-91.15 288.46,-81.06 287.02,-74.09"/>
<polygon fill="#63b8ff" stroke="#63b8ff" points="288.96,-100.67 294.42,-109.75 295.81,-99.25 288.96,-100.67"/>
</a>
</g>
</g>
<!-- Node7 -->
<g id="Node000007" class="node">
<title>Node7</title>
<g id="a_Node000007"><a xlink:href="WebServer_8hpp.html" target="_top" xlink:title=" ">
<polygon fill="white" stroke="#666666" points="221.73,-74 132.73,-74 132.73,-55 221.73,-55 221.73,-74"/>
<text text-anchor="middle" x="177.23" y="-62" font-family="Helvetica,sans-Serif" font-size="10.00">WebServer.hpp</text>
</a>
</g>
</g>
<!-- Node5&#45;&gt;Node7 -->
<g id="edge7_Node000005_Node000007" class="edge">
<title>Node5&#45;&gt;Node7</title>
<g id="a_edge7_Node000005_Node000007"><a xlink:title=" ">
<path fill="none" stroke="#63b8ff" d="M267.94,-105.9C245.96,-96.11 216.06,-82.79 196.7,-74.17"/>
<polygon fill="#63b8ff" stroke="#63b8ff" points="266.56,-109.11 277.12,-109.98 269.4,-102.72 266.56,-109.11"/>
</a>
</g>
</g>
<!-- Node8 -->
<g id="Node000008" class="node">
<title>Node8</title>
<g id="a_Node000008"><a xlink:href="WebServer_8cpp.html" target="_top" xlink:title=" ">
<polygon fill="white" stroke="#666666" points="540.73,-19 451.73,-19 451.73,0 540.73,0 540.73,-19"/>
<text text-anchor="middle" x="496.23" y="-7" font-family="Helvetica,sans-Serif" font-size="10.00">WebServer.cpp</text>
</a>
</g>
</g>
<!-- Node7&#45;&gt;Node8 -->
<g id="edge8_Node000007_Node000008" class="edge">
<title>Node7&#45;&gt;Node8</title>
<g id="a_edge8_Node000007_Node000008"><a xlink:title=" ">
<path fill="none" stroke="#63b8ff" d="M231.92,-54.41C293.98,-44.1 394.03,-27.48 451.59,-17.92"/>
<polygon fill="#63b8ff" stroke="#63b8ff" points="231.22,-50.98 221.93,-56.07 232.36,-57.89 231.22,-50.98"/>
</a>
</g>
</g>
<!-- Node9 -->
<g id="Node000009" class="node">
<title>Node9</title>
<g id="a_Node000009"><a xlink:href="main_8cpp.html" target="_top" xlink:title=" ">
<polygon fill="white" stroke="#666666" points="112.23,-19 50.23,-19 50.23,0 112.23,0 112.23,-19"/>
<text text-anchor="middle" x="81.23" y="-7" font-family="Helvetica,sans-Serif" font-size="10.00">main.cpp</text>
</a>
</g>
</g>
<!-- Node7&#45;&gt;Node9 -->
<g id="edge9_Node000007_Node000009" class="edge">
<title>Node7&#45;&gt;Node9</title>
<g id="a_edge9_Node000007_Node000009"><a xlink:title=" ">
<path fill="none" stroke="#63b8ff" d="M152.72,-49.97C135.17,-40.28 112.06,-27.52 96.94,-19.17"/>
<polygon fill="#63b8ff" stroke="#63b8ff" points="151.36,-53.22 161.81,-54.98 154.75,-47.09 151.36,-53.22"/>
</a>
</g>
</g>
<!-- Node10&#45;&gt;Node5 -->
<g id="edge11_Node000010_Node000005" class="edge">
<title>Node10&#45;&gt;Node5</title>
<g id="a_edge11_Node000010_Node000005"><a xlink:title=" ">
<path fill="none" stroke="#63b8ff" d="M454.01,-162.31C416.59,-152.39 362.73,-138.12 328.62,-129.08"/>
<polygon fill="#63b8ff" stroke="#63b8ff" points="453.54,-165.81 464.1,-164.98 455.33,-159.04 453.54,-165.81"/>
</a>
</g>
</g>
<!-- Node11 -->
<g id="Node000011" class="node">
<title>Node11</title>
<g id="a_Node000011"><a xlink:href="ClientConnection_8cpp.html" target="_top" xlink:title=" ">
<polygon fill="white" stroke="#666666" points="468.23,-74 348.23,-74 348.23,-55 468.23,-55 468.23,-74"/>
<text text-anchor="middle" x="408.23" y="-62" font-family="Helvetica,sans-Serif" font-size="10.00">ClientConnection.cpp</text>
</a>
</g>
</g>
<!-- Node10&#45;&gt;Node11 -->
<g id="edge12_Node000010_Node000011" class="edge">
<title>Node10&#45;&gt;Node11</title>
<g id="a_edge12_Node000010_Node000011"><a xlink:title=" ">
<path fill="none" stroke="#63b8ff" d="M439.42,-161.65C421.94,-155.05 404.59,-144.82 394.23,-129 382.98,-111.81 394.8,-86.97 402.58,-74.04"/>
<polygon fill="#63b8ff" stroke="#63b8ff" points="438.5,-165.03 449.1,-164.95 440.77,-158.41 438.5,-165.03"/>
</a>
</g>
</g>
<!-- Node12 -->
<g id="Node000012" class="node">
<title>Node12</title>
<g id="a_Node000012"><a xlink:href="Dispatcher_8hpp.html" target="_top" xlink:title=" ">
<polygon fill="white" stroke="#666666" points="805.73,-129 716.73,-129 716.73,-110 805.73,-110 805.73,-129"/>
<text text-anchor="middle" x="761.23" y="-117" font-family="Helvetica,sans-Serif" font-size="10.00">Dispatcher.hpp</text>
</a>
</g>
</g>
<!-- Node10&#45;&gt;Node12 -->
<g id="edge13_Node000010_Node000012" class="edge">
<title>Node10&#45;&gt;Node12</title>
<g id="a_edge13_Node000010_Node000012"><a xlink:title=" ">
<path fill="none" stroke="#63b8ff" d="M548.72,-163C598.4,-153.07 672.06,-138.33 718.32,-129.08"/>
<polygon fill="#63b8ff" stroke="#63b8ff" points="547.93,-159.59 538.81,-164.98 549.3,-166.46 547.93,-159.59"/>
</a>
</g>
</g>
<!-- Node13 -->
<g id="Node000013" class="node">
<title>Node13</title>
<g id="a_Node000013"><a xlink:href="ResponseBuilder_8hpp.html" target="_top" xlink:title=" ">
<polygon fill="white" stroke="#666666" points="555.73,-129 436.73,-129 436.73,-110 555.73,-110 555.73,-129"/>
<text text-anchor="middle" x="496.23" y="-117" font-family="Helvetica,sans-Serif" font-size="10.00">ResponseBuilder.hpp</text>
</a>
</g>
</g>
<!-- Node10&#45;&gt;Node13 -->
<g id="edge16_Node000010_Node000013" class="edge">
<title>Node10&#45;&gt;Node13</title>
<g id="a_edge16_Node000010_Node000013"><a xlink:title=" ">
<path fill="none" stroke="#63b8ff" d="M496.23,-154.66C496.23,-145.93 496.23,-135.99 496.23,-129.09"/>
<polygon fill="#63b8ff" stroke="#63b8ff" points="492.73,-154.75 496.23,-164.75 499.73,-154.75 492.73,-154.75"/>
</a>
</g>
</g>
<!-- Node16 -->
<g id="Node000016" class="node">
<title>Node16</title>
<g id="a_Node000016"><a xlink:href="Router_8hpp.html" target="_top" xlink:title=" ">
<polygon fill="white" stroke="#666666" points="1216.73,-129 1147.73,-129 1147.73,-110 1216.73,-110 1216.73,-129"/>
<text text-anchor="middle" x="1182.23" y="-117" font-family="Helvetica,sans-Serif" font-size="10.00">Router.hpp</text>
</a>
</g>
</g>
<!-- Node10&#45;&gt;Node16 -->
<g id="edge24_Node000010_Node000016" class="edge">
<title>Node10&#45;&gt;Node16</title>
<g id="a_edge24_Node000010_Node000016"><a xlink:title=" ">
<path fill="none" stroke="#63b8ff" d="M567.28,-168.91C680.08,-161.48 907.08,-145.93 1099.23,-129 1115.11,-127.6 1132.66,-125.84 1147.53,-124.28"/>
<polygon fill="#63b8ff" stroke="#63b8ff" points="566.8,-165.44 557.05,-169.59 567.26,-172.42 566.8,-165.44"/>
</a>
</g>
</g>
<!-- Node18 -->
<g id="Node000018" class="node">
<title>Node18</title>
<g id="a_Node000018"><a xlink:href="ServerSocket_8hpp.html" target="_top" xlink:title=" ">
<polygon fill="white" stroke="#666666" points="171.73,-129 70.73,-129 70.73,-110 171.73,-110 171.73,-129"/>
<text text-anchor="middle" x="121.23" y="-117" font-family="Helvetica,sans-Serif" font-size="10.00">ServerSocket.hpp</text>
</a>
</g>
</g>
<!-- Node10&#45;&gt;Node18 -->
<g id="edge27_Node000010_Node000018" class="edge">
<title>Node10&#45;&gt;Node18</title>
<g id="a_edge27_Node000010_Node000018"><a xlink:title=" ">
<path fill="none" stroke="#63b8ff" d="M425.83,-163.55C351.93,-153.1 237.55,-136.94 172.01,-127.68"/>
<polygon fill="#63b8ff" stroke="#63b8ff" points="425.59,-167.05 435.98,-164.98 426.57,-160.12 425.59,-167.05"/>
</a>
</g>
</g>
<!-- Node12&#45;&gt;Node4 -->
<g id="edge14_Node000012_Node000004" class="edge">
<title>Node12&#45;&gt;Node4</title>
<g id="a_edge14_Node000012_Node000004"><a xlink:title=" ">
<path fill="none" stroke="#63b8ff" d="M796.34,-106.8C826.01,-96.91 867.83,-82.97 894.49,-74.08"/>
<polygon fill="#63b8ff" stroke="#63b8ff" points="795.16,-103.5 786.78,-109.98 797.37,-110.14 795.16,-103.5"/>
</a>
</g>
</g>
<!-- Node12&#45;&gt;Node8 -->
<g id="edge15_Node000012_Node000008" class="edge">
<title>Node12&#45;&gt;Node8</title>
<g id="a_edge15_Node000012_Node000008"><a xlink:title=" ">
<path fill="none" stroke="#63b8ff" d="M778.81,-102.65C791.88,-88.97 805.49,-69.23 793.23,-55 761.21,-17.82 615.68,-11.26 540.9,-10.39"/>
<polygon fill="#63b8ff" stroke="#63b8ff" points="776.09,-100.42 771.39,-109.92 780.98,-105.43 776.09,-100.42"/>
</a>
</g>
</g>
<!-- Node13&#45;&gt;Node3 -->
<g id="edge17_Node000013_Node000003" class="edge">
<title>Node13&#45;&gt;Node3</title>
<g id="a_edge17_Node000013_Node000003"><a xlink:title=" ">
<path fill="none" stroke="#63b8ff" d="M542.33,-107.69C584.67,-97.76 646.6,-83.24 685.64,-74.08"/>
<polygon fill="#63b8ff" stroke="#63b8ff" points="541.48,-104.29 532.55,-109.98 543.08,-111.11 541.48,-104.29"/>
</a>
</g>
</g>
<!-- Node13&#45;&gt;Node4 -->
<g id="edge20_Node000013_Node000004" class="edge">
<title>Node13&#45;&gt;Node4</title>
<g id="a_edge20_Node000013_Node000004"><a xlink:title=" ">
<path fill="none" stroke="#63b8ff" d="M566.22,-109.75C653.97,-98.78 801.82,-80.3 875.58,-71.08"/>
<polygon fill="#63b8ff" stroke="#63b8ff" points="565.57,-106.31 556.08,-111.02 566.44,-113.25 565.57,-106.31"/>
</a>
</g>
</g>
<!-- Node13&#45;&gt;Node6 -->
<g id="edge18_Node000013_Node000006" class="edge">
<title>Node13&#45;&gt;Node6</title>
<g id="a_edge18_Node000013_Node000006"><a xlink:title=" ">
<path fill="none" stroke="#63b8ff" d="M452.45,-107.5C412.94,-97.58 355.62,-83.18 319.4,-74.08"/>
<polygon fill="#63b8ff" stroke="#63b8ff" points="451.78,-110.94 462.33,-109.98 453.49,-104.15 451.78,-110.94"/>
</a>
</g>
</g>
<!-- Node13&#45;&gt;Node8 -->
<g id="edge23_Node000013_Node000008" class="edge">
<title>Node13&#45;&gt;Node8</title>
<g id="a_edge23_Node000013_Node000008"><a xlink:title=" ">
<path fill="none" stroke="#63b8ff" d="M496.23,-99.48C496.23,-75.84 496.23,-36.5 496.23,-19.16"/>
<polygon fill="#63b8ff" stroke="#63b8ff" points="492.73,-99.66 496.23,-109.66 499.73,-99.66 492.73,-99.66"/>
</a>
</g>
</g>
<!-- Node13&#45;&gt;Node11 -->
<g id="edge19_Node000013_Node000011" class="edge">
<title>Node13&#45;&gt;Node11</title>
<g id="a_edge19_Node000013_Node000011"><a xlink:title=" ">
<path fill="none" stroke="#63b8ff" d="M473.31,-104.7C457.28,-95.04 436.37,-82.44 422.63,-74.17"/>
<polygon fill="#63b8ff" stroke="#63b8ff" points="471.72,-107.82 482.1,-109.98 475.34,-101.83 471.72,-107.82"/>
</a>
</g>
</g>
<!-- Node14 -->
<g id="Node000014" class="node">
<title>Node14</title>
<g id="a_Node000014"><a xlink:href="ResponseBuilder_8cpp.html" target="_top" xlink:title=" ">
<polygon fill="white" stroke="#666666" points="642.23,-74 524.23,-74 524.23,-55 642.23,-55 642.23,-74"/>
<text text-anchor="middle" x="583.23" y="-62" font-family="Helvetica,sans-Serif" font-size="10.00">ResponseBuilder.cpp</text>
</a>
</g>
</g>
<!-- Node13&#45;&gt;Node14 -->
<g id="edge21_Node000013_Node000014" class="edge">
<title>Node13&#45;&gt;Node14</title>
<g id="a_edge21_Node000013_Node000014"><a xlink:title=" ">
<path fill="none" stroke="#63b8ff" d="M518.89,-104.7C534.74,-95.04 555.42,-82.44 569,-74.17"/>
<polygon fill="#63b8ff" stroke="#63b8ff" points="516.93,-101.79 510.21,-109.98 520.57,-107.77 516.93,-101.79"/>
</a>
</g>
</g>
<!-- Node15 -->
<g id="Node000015" class="node">
<title>Node15</title>
<g id="a_Node000015"><a xlink:href="StaticPageHandler_8cpp.html" target="_top" xlink:title=" ">
<polygon fill="white" stroke="#666666" points="1423.73,-74 1298.73,-74 1298.73,-55 1423.73,-55 1423.73,-74"/>
<text text-anchor="middle" x="1361.23" y="-62" font-family="Helvetica,sans-Serif" font-size="10.00">StaticPageHandler.cpp</text>
</a>
</g>
</g>
<!-- Node13&#45;&gt;Node15 -->
<g id="edge22_Node000013_Node000015" class="edge">
<title>Node13&#45;&gt;Node15</title>
<g id="a_edge22_Node000013_Node000015"><a xlink:title=" ">
<path fill="none" stroke="#63b8ff" d="M565.98,-109.9C858.97,-83.9 934.82,-90.98 1225.23,-74 1249.21,-72.6 1275.55,-70.97 1298.61,-69.52"/>
<polygon fill="#63b8ff" stroke="#63b8ff" points="565.56,-106.43 555.91,-110.8 566.18,-113.4 565.56,-106.43"/>
</a>
</g>
</g>
<!-- Node16&#45;&gt;Node4 -->
<g id="edge25_Node000016_Node000004" class="edge">
<title>Node16&#45;&gt;Node4</title>
<g id="a_edge25_Node000016_Node000004"><a xlink:title=" ">
<path fill="none" stroke="#63b8ff" d="M1137.73,-109.5C1088.8,-99.6 1010.74,-83.81 962.65,-74.08"/>
<polygon fill="#63b8ff" stroke="#63b8ff" points="1137.22,-112.96 1147.71,-111.52 1138.61,-106.1 1137.22,-112.96"/>
</a>
</g>
</g>
<!-- Node17 -->
<g id="Node000017" class="node">
<title>Node17</title>
<g id="a_Node000017"><a xlink:href="Router_8cpp.html" target="_top" xlink:title=" ">
<polygon fill="white" stroke="#666666" points="1216.23,-74 1148.23,-74 1148.23,-55 1216.23,-55 1216.23,-74"/>
<text text-anchor="middle" x="1182.23" y="-62" font-family="Helvetica,sans-Serif" font-size="10.00">Router.cpp</text>
</a>
</g>
</g>
<!-- Node16&#45;&gt;Node17 -->
<g id="edge26_Node000016_Node000017" class="edge">
<title>Node16&#45;&gt;Node17</title>
<g id="a_edge26_Node000016_Node000017"><a xlink:title=" ">
<path fill="none" stroke="#63b8ff" d="M1182.23,-99.66C1182.23,-90.93 1182.23,-80.99 1182.23,-74.09"/>
<polygon fill="#63b8ff" stroke="#63b8ff" points="1178.73,-99.75 1182.23,-109.75 1185.73,-99.75 1178.73,-99.75"/>
</a>
</g>
</g>
<!-- Node18&#45;&gt;Node7 -->
<g id="edge29_Node000018_Node000007" class="edge">
<title>Node18&#45;&gt;Node7</title>
<g id="a_edge29_Node000018_Node000007"><a xlink:title=" ">
<path fill="none" stroke="#63b8ff" d="M137.56,-103.04C147.5,-93.64 159.82,-81.98 168.07,-74.17"/>
<polygon fill="#63b8ff" stroke="#63b8ff" points="135.09,-100.57 130.23,-109.98 139.9,-105.65 135.09,-100.57"/>
</a>
</g>
</g>
<!-- Node18&#45;&gt;Node9 -->
<g id="edge30_Node000018_Node000009" class="edge">
<title>Node18&#45;&gt;Node9</title>
<g id="a_edge30_Node000018_Node000009"><a xlink:title=" ">
<path fill="none" stroke="#63b8ff" d="M60.88,-109.99C39.35,-103.72 17.23,-92.85 4.23,-74 -12.44,-49.82 26.72,-29.82 55.09,-19.07"/>
<polygon fill="#63b8ff" stroke="#63b8ff" points="60.13,-113.41 70.69,-112.56 61.91,-106.64 60.13,-113.41"/>
</a>
</g>
</g>
<!-- Node19 -->
<g id="Node000019" class="node">
<title>Node19</title>
<g id="a_Node000019"><a xlink:href="ServerSocket_8cpp.html" target="_top" xlink:title=" ">
<polygon fill="white" stroke="#666666" points="114.73,-74 13.73,-74 13.73,-55 114.73,-55 114.73,-74"/>
<text text-anchor="middle" x="64.23" y="-62" font-family="Helvetica,sans-Serif" font-size="10.00">ServerSocket.cpp</text>
</a>
</g>
</g>
<!-- Node18&#45;&gt;Node19 -->
<g id="edge28_Node000018_Node000019" class="edge">
<title>Node18&#45;&gt;Node19</title>
<g id="a_edge28_Node000018_Node000019"><a xlink:title=" ">
<path fill="none" stroke="#63b8ff" d="M104.61,-103.04C94.5,-93.64 81.96,-81.98 73.56,-74.17"/>
<polygon fill="#63b8ff" stroke="#63b8ff" points="102.37,-105.74 112.08,-109.98 107.14,-100.61 102.37,-105.74"/>
</a>
</g>
</g>
<!-- Node20&#45;&gt;Node4 -->
<g id="edge33_Node000020_Node000004" class="edge">
<title>Node20&#45;&gt;Node4</title>
<g id="a_edge33_Node000020_Node000004"><a xlink:title=" ">
<path fill="none" stroke="#63b8ff" d="M950.17,-155.06C945.99,-142.38 940.3,-125.16 935.23,-110 931.05,-97.47 926.16,-82.98 923.12,-74.03"/>
<polygon fill="#63b8ff" stroke="#63b8ff" points="946.94,-156.46 953.4,-164.87 953.59,-154.27 946.94,-156.46"/>
</a>
</g>
</g>
<!-- Node21 -->
<g id="Node000021" class="node">
<title>Node21</title>
<g id="a_Node000021"><a xlink:href="DeleteHandler_8cpp.html" target="_top" xlink:title=" ">
<polygon fill="white" stroke="#666666" points="1090.73,-129 983.73,-129 983.73,-110 1090.73,-110 1090.73,-129"/>
<text text-anchor="middle" x="1037.23" y="-117" font-family="Helvetica,sans-Serif" font-size="10.00">DeleteHandler.cpp</text>
</a>
</g>
</g>
<!-- Node20&#45;&gt;Node21 -->
<g id="edge32_Node000020_Node000021" class="edge">
<title>Node20&#45;&gt;Node21</title>
<g id="a_edge32_Node000020_Node000021"><a xlink:title=" ">
<path fill="none" stroke="#63b8ff" d="M977.75,-159.42C992.45,-149.81 1011.46,-137.37 1023.98,-129.17"/>
<polygon fill="#63b8ff" stroke="#63b8ff" points="975.7,-156.58 969.25,-164.98 979.53,-162.44 975.7,-156.58"/>
</a>
</g>
</g>
<!-- Node23&#45;&gt;Node11 -->
<g id="edge36_Node000023_Node000011" class="edge">
<title>Node23&#45;&gt;Node11</title>
<g id="a_edge36_Node000023_Node000011"><a xlink:title=" ">
<path fill="none" stroke="#63b8ff" d="M653.83,-171.53C579.18,-167.89 460.14,-157.66 427.23,-129 411.27,-115.1 408.44,-88.37 408.11,-74.44"/>
<polygon fill="#63b8ff" stroke="#63b8ff" points="653.91,-175.03 664.06,-172 654.23,-168.04 653.91,-175.03"/>
</a>
</g>
</g>
<!-- Node24 -->
<g id="Node000024" class="node">
<title>Node24</title>
<g id="a_Node000024"><a xlink:href="RequestParse_8cpp.html" target="_top" xlink:title=" ">
<polygon fill="white" stroke="#666666" points="926.73,-129 823.73,-129 823.73,-110 926.73,-110 926.73,-129"/>
<text text-anchor="middle" x="875.23" y="-117" font-family="Helvetica,sans-Serif" font-size="10.00">RequestParse.cpp</text>
</a>
</g>
</g>
<!-- Node23&#45;&gt;Node24 -->
<g id="edge37_Node000023_Node000024" class="edge">
<title>Node23&#45;&gt;Node24</title>
<g id="a_edge37_Node000023_Node000024"><a xlink:title=" ">
<path fill="none" stroke="#63b8ff" d="M751.34,-161.8C781.01,-151.91 822.83,-137.97 849.49,-129.08"/>
<polygon fill="#63b8ff" stroke="#63b8ff" points="750.16,-158.5 741.78,-164.98 752.37,-165.14 750.16,-158.5"/>
</a>
</g>
</g>
<!-- Node25&#45;&gt;Node4 -->
<g id="edge39_Node000025_Node000004" class="edge">
<title>Node25&#45;&gt;Node4</title>
<g id="a_edge39_Node000025_Node000004"><a xlink:title=" ">
<path fill="none" stroke="#63b8ff" d="M1351.85,-109.86C1203.95,-93.6 1041.6,-77.41 964.83,-69.86"/>
<polygon fill="#63b8ff" stroke="#63b8ff" points="1351.7,-113.37 1362.02,-110.98 1352.47,-106.41 1351.7,-113.37"/>
</a>
</g>
</g>
<!-- Node25&#45;&gt;Node15 -->
<g id="edge40_Node000025_Node000015" class="edge">
<title>Node25&#45;&gt;Node15</title>
<g id="a_edge40_Node000025_Node000015"><a xlink:title=" ">
<path fill="none" stroke="#63b8ff" d="M1407.24,-103.6C1395.78,-94.11 1381.32,-82.13 1371.7,-74.17"/>
<polygon fill="#63b8ff" stroke="#63b8ff" points="1405.02,-106.3 1414.95,-109.98 1409.48,-100.91 1405.02,-106.3"/>
</a>
</g>
</g>
<!-- Node26&#45;&gt;Node4 -->
<g id="edge42_Node000026_Node000004" class="edge">
<title>Node26&#45;&gt;Node4</title>
<g id="a_edge42_Node000026_Node000004"><a xlink:title=" ">
<path fill="none" stroke="#63b8ff" d="M1118.11,-154.57C1116.25,-140.38 1111.46,-121.5 1099.23,-110 1080.05,-91.96 1011.61,-78.73 965.14,-71.58"/>
<polygon fill="#63b8ff" stroke="#63b8ff" points="1114.64,-155.08 1119.05,-164.71 1121.61,-154.43 1114.64,-155.08"/>
</a>
</g>
</g>
<!-- Node27 -->
<g id="Node000027" class="node">
<title>Node27</title>
<g id="a_Node000027"><a xlink:href="UploadHandler_8cpp.html" target="_top" xlink:title=" ">
<polygon fill="white" stroke="#666666" points="1343.73,-129 1234.73,-129 1234.73,-110 1343.73,-110 1343.73,-129"/>
<text text-anchor="middle" x="1289.23" y="-117" font-family="Helvetica,sans-Serif" font-size="10.00">UploadHandler.cpp</text>
</a>
</g>
</g>
<!-- Node26&#45;&gt;Node27 -->
<g id="edge43_Node000026_Node000027" class="edge">
<title>Node26&#45;&gt;Node27</title>
<g id="a_edge43_Node000026_Node000027"><a xlink:title=" ">
<path fill="none" stroke="#63b8ff" d="M1156.35,-161.93C1188.11,-152.03 1233.08,-138.01 1261.71,-129.08"/>
<polygon fill="#63b8ff" stroke="#63b8ff" points="1155.05,-158.67 1146.55,-164.98 1157.14,-165.35 1155.05,-158.67"/>
</a>
</g>
</g>
</g>
</svg>
