<?xml version="1.0" encoding="UTF-8" standalone="no"?>
<!DOCTYPE svg PUBLIC "-//W3C//DTD SVG 1.1//EN"
 "http://www.w3.org/Graphics/SVG/1.1/DTD/svg11.dtd">
<!-- Generated by graphviz version 2.43.0 (0)
 -->
<!-- Title: includes/config/LocationConfig.hpp Pages: 1 -->
<svg width="1930pt" height="291pt"
 viewBox="0.00 0.00 1930.00 291.00" xmlns="http://www.w3.org/2000/svg" xmlns:xlink="http://www.w3.org/1999/xlink">
<g id="graph0" class="graph" transform="scale(1 1) rotate(0) translate(4 287)">
<title>includes/config/LocationConfig.hpp</title>
<!-- Node1 -->
<g id="Node000001" class="node">
<title>Node1</title>
<g id="a_Node000001"><a xlink:title=" ">
<polygon fill="#999999" stroke="#666666" points="1578,-283 1444,-283 1444,-253 1578,-253 1578,-283"/>
<text text-anchor="start" x="1452" y="-271" font-family="Helvetica,sans-Serif" font-size="10.00">includes/config/Location</text>
<text text-anchor="middle" x="1511" y="-260" font-family="Helvetica,sans-Serif" font-size="10.00">Config.hpp</text>
</a>
</g>
</g>
<!-- Node2 -->
<g id="Node000002" class="node">
<title>Node2</title>
<g id="a_Node000002"><a xlink:href="ServerConfig_8hpp.html" target="_top" xlink:title=" ">
<polygon fill="white" stroke="#666666" points="983,-211.5 807,-211.5 807,-192.5 983,-192.5 983,-211.5"/>
<text text-anchor="middle" x="895" y="-199.5" font-family="Helvetica,sans-Serif" font-size="10.00">includes/config/ServerConfig.hpp</text>
</a>
</g>
</g>
<!-- Node1&#45;&gt;Node2 -->
<g id="edge1_Node000001_Node000002" class="edge">
<title>Node1&#45;&gt;Node2</title>
<g id="a_edge1_Node000001_Node000002"><a xlink:title=" ">
<path fill="none" stroke="#63b8ff" d="M1433.61,-258.96C1316.77,-246.82 1096.3,-223.91 976.87,-211.51"/>
<polygon fill="#63b8ff" stroke="#63b8ff" points="1433.6,-262.48 1443.9,-260.03 1434.32,-255.51 1433.6,-262.48"/>
</a>
</g>
</g>
<!-- Node12 -->
<g id="Node000012" class="node">
<title>Node12</title>
<g id="a_Node000012"><a xlink:href="RequestParse_8cpp.html" target="_top" xlink:title=" ">
<polygon fill="white" stroke="#666666" points="751.5,-79.5 586.5,-79.5 586.5,-60.5 751.5,-60.5 751.5,-79.5"/>
<text text-anchor="middle" x="669" y="-67.5" font-family="Helvetica,sans-Serif" font-size="10.00">srcs/request/RequestParse.cpp</text>
</a>
</g>
</g>
<!-- Node1&#45;&gt;Node12 -->
<g id="edge40_Node000001_Node000012" class="edge">
<title>Node1&#45;&gt;Node12</title>
<g id="a_edge40_Node000001_Node000012"><a xlink:title=" ">
<path fill="none" stroke="#63b8ff" d="M1433.74,-266.39C1274.33,-264.34 914.13,-255.47 798,-217 746.39,-199.9 728.23,-194.03 695,-151 677.95,-128.92 671.87,-95.26 669.88,-79.58"/>
<polygon fill="#63b8ff" stroke="#63b8ff" points="1433.91,-269.89 1443.95,-266.51 1433.99,-262.89 1433.91,-269.89"/>
</a>
</g>
</g>
<!-- Node13 -->
<g id="Node000013" class="node">
<title>Node13</title>
<g id="a_Node000013"><a xlink:href="ResponseBuilder_8hpp.html" target="_top" xlink:title=" ">
<polygon fill="white" stroke="#666666" points="1251.5,-151 1096.5,-151 1096.5,-121 1251.5,-121 1251.5,-151"/>
<text text-anchor="start" x="1104.5" y="-139" font-family="Helvetica,sans-Serif" font-size="10.00">includes/response/Response</text>
<text text-anchor="middle" x="1174" y="-128" font-family="Helvetica,sans-Serif" font-size="10.00">Builder.hpp</text>
</a>
</g>
</g>
<!-- Node1&#45;&gt;Node13 -->
<g id="edge36_Node000001_Node000013" class="edge">
<title>Node1&#45;&gt;Node13</title>
<g id="a_edge36_Node000001_Node000013"><a xlink:title=" ">
<path fill="none" stroke="#63b8ff" d="M1465.06,-249.28C1397.4,-223.18 1272.28,-174.91 1210.49,-151.08"/>
<polygon fill="#63b8ff" stroke="#63b8ff" points="1464.03,-252.63 1474.61,-252.96 1466.54,-246.1 1464.03,-252.63"/>
</a>
</g>
</g>
<!-- Node16 -->
<g id="Node000016" class="node">
<title>Node16</title>
<g id="a_Node000016"><a xlink:href="Dispatcher_8cpp.html" target="_top" xlink:title=" ">
<polygon fill="white" stroke="#666666" points="1867.5,-79.5 1702.5,-79.5 1702.5,-60.5 1867.5,-60.5 1867.5,-79.5"/>
<text text-anchor="middle" x="1785" y="-67.5" font-family="Helvetica,sans-Serif" font-size="10.00">srcs/dispatcher/Dispatcher.cpp</text>
</a>
</g>
</g>
<!-- Node1&#45;&gt;Node16 -->
<g id="edge39_Node000001_Node000016" class="edge">
<title>Node1&#45;&gt;Node16</title>
<g id="a_edge39_Node000001_Node000016"><a xlink:title=" ">
<path fill="none" stroke="#63b8ff" d="M1557.7,-248.97C1577.09,-240.54 1599.38,-229.57 1618,-217 1669.87,-181.99 1673.41,-161.63 1721,-121 1738.8,-105.8 1760.43,-89.29 1773.43,-79.56"/>
<polygon fill="#63b8ff" stroke="#63b8ff" points="1556.27,-245.78 1548.43,-252.91 1559.01,-252.22 1556.27,-245.78"/>
</a>
</g>
</g>
<!-- Node19 -->
<g id="Node000019" class="node">
<title>Node19</title>
<g id="a_Node000019"><a xlink:href="ServerConfig_8cpp.html" target="_top" xlink:title=" ">
<polygon fill="white" stroke="#666666" points="1462,-145.5 1308,-145.5 1308,-126.5 1462,-126.5 1462,-145.5"/>
<text text-anchor="middle" x="1385" y="-133.5" font-family="Helvetica,sans-Serif" font-size="10.00">srcs/config/ServerConfig.cpp</text>
</a>
</g>
</g>
<!-- Node1&#45;&gt;Node19 -->
<g id="edge38_Node000001_Node000019" class="edge">
<title>Node1&#45;&gt;Node19</title>
<g id="a_edge38_Node000001_Node000019"><a xlink:title=" ">
<path fill="none" stroke="#63b8ff" d="M1490.27,-245.61C1462.13,-216.58 1413.11,-166 1393.48,-145.75"/>
<polygon fill="#63b8ff" stroke="#63b8ff" points="1487.8,-248.1 1497.28,-252.84 1492.83,-243.22 1487.8,-248.1"/>
</a>
</g>
</g>
<!-- Node22 -->
<g id="Node000022" class="node">
<title>Node22</title>
<g id="a_Node000022"><a xlink:href="Dispatcher_8hpp.html" target="_top" xlink:title=" ">
<polygon fill="white" stroke="#666666" points="1840.5,-151 1729.5,-151 1729.5,-121 1840.5,-121 1840.5,-151"/>
<text text-anchor="start" x="1737.5" y="-139" font-family="Helvetica,sans-Serif" font-size="10.00">includes/dispatcher</text>
<text text-anchor="middle" x="1785" y="-128" font-family="Helvetica,sans-Serif" font-size="10.00">/Dispatcher.hpp</text>
</a>
</g>
</g>
<!-- Node1&#45;&gt;Node22 -->
<g id="edge30_Node000001_Node000022" class="edge">
<title>Node1&#45;&gt;Node22</title>
<g id="a_edge30_Node000001_Node000022"><a xlink:title=" ">
<path fill="none" stroke="#63b8ff" d="M1587.9,-257.14C1625.36,-249.95 1669.97,-237.69 1706,-217 1735.45,-200.08 1761.36,-169.21 1774.94,-151.16"/>
<polygon fill="#63b8ff" stroke="#63b8ff" points="1587.24,-253.7 1578.04,-258.95 1588.5,-260.59 1587.24,-253.7"/>
</a>
</g>
</g>
<!-- Node23 -->
<g id="Node000023" class="node">
<title>Node23</title>
<g id="a_Node000023"><a xlink:href="Router_8hpp.html" target="_top" xlink:title=" ">
<polygon fill="white" stroke="#666666" points="1608.5,-217 1497.5,-217 1497.5,-187 1608.5,-187 1608.5,-217"/>
<text text-anchor="start" x="1505.5" y="-205" font-family="Helvetica,sans-Serif" font-size="10.00">includes/dispatcher</text>
<text text-anchor="middle" x="1553" y="-194" font-family="Helvetica,sans-Serif" font-size="10.00">/Router.hpp</text>
</a>
</g>
</g>
<!-- Node1&#45;&gt;Node23 -->
<g id="edge33_Node000001_Node000023" class="edge">
<title>Node1&#45;&gt;Node23</title>
<g id="a_edge33_Node000001_Node000023"><a xlink:title=" ">
<path fill="none" stroke="#63b8ff" d="M1525.93,-244.24C1531.86,-235.21 1538.49,-225.11 1543.7,-217.16"/>
<polygon fill="#63b8ff" stroke="#63b8ff" points="1522.88,-242.52 1520.32,-252.8 1528.73,-246.36 1522.88,-242.52"/>
</a>
</g>
</g>
<!-- Node24 -->
<g id="Node000024" class="node">
<title>Node24</title>
<g id="a_Node000024"><a xlink:href="LocationConfig_8cpp.html" target="_top" xlink:title=" ">
<polygon fill="white" stroke="#666666" points="1922,-211.5 1758,-211.5 1758,-192.5 1922,-192.5 1922,-211.5"/>
<text text-anchor="middle" x="1840" y="-199.5" font-family="Helvetica,sans-Serif" font-size="10.00">srcs/config/LocationConfig.cpp</text>
</a>
</g>
</g>
<!-- Node1&#45;&gt;Node24 -->
<g id="edge37_Node000001_Node000024" class="edge">
<title>Node1&#45;&gt;Node24</title>
<g id="a_edge37_Node000001_Node000024"><a xlink:title=" ">
<path fill="none" stroke="#63b8ff" d="M1588.52,-251.92C1653.13,-239.35 1742.86,-221.9 1795.84,-211.59"/>
<polygon fill="#63b8ff" stroke="#63b8ff" points="1587.52,-248.55 1578.37,-253.89 1588.86,-255.42 1587.52,-248.55"/>
</a>
</g>
</g>
<!-- Node3 -->
<g id="Node000003" class="node">
<title>Node3</title>
<g id="a_Node000003"><a xlink:href="Config_8hpp.html" target="_top" xlink:title=" ">
<polygon fill="white" stroke="#666666" points="460,-145.5 316,-145.5 316,-126.5 460,-126.5 460,-145.5"/>
<text text-anchor="middle" x="388" y="-133.5" font-family="Helvetica,sans-Serif" font-size="10.00">includes/config/Config.hpp</text>
</a>
</g>
</g>
<!-- Node2&#45;&gt;Node3 -->
<g id="edge2_Node000002_Node000003" class="edge">
<title>Node2&#45;&gt;Node3</title>
<g id="a_edge2_Node000002_Node000003"><a xlink:title=" ">
<path fill="none" stroke="#63b8ff" d="M817.48,-191.21C718.64,-178.74 549.33,-157.36 455.53,-145.52"/>
<polygon fill="#63b8ff" stroke="#63b8ff" points="817.05,-194.69 827.41,-192.47 817.93,-187.74 817.05,-194.69"/>
</a>
</g>
</g>
<!-- Node4 -->
<g id="Node000004" class="node">
<title>Node4</title>
<g id="a_Node000004"><a xlink:href="ConfigParser_8hpp.html" target="_top" xlink:title=" ">
<polygon fill="white" stroke="#666666" points="219.5,-79.5 46.5,-79.5 46.5,-60.5 219.5,-60.5 219.5,-79.5"/>
<text text-anchor="middle" x="133" y="-67.5" font-family="Helvetica,sans-Serif" font-size="10.00">includes/config/ConfigParser.hpp</text>
</a>
</g>
</g>
<!-- Node2&#45;&gt;Node4 -->
<g id="edge11_Node000002_Node000004" class="edge">
<title>Node2&#45;&gt;Node4</title>
<g id="a_edge11_Node000002_Node000004"><a xlink:title=" ">
<path fill="none" stroke="#63b8ff" d="M796.9,-196.76C654.25,-189.9 396.79,-174.68 307,-151 244.31,-134.46 176.17,-96.7 147.25,-79.65"/>
<polygon fill="#63b8ff" stroke="#63b8ff" points="796.81,-200.26 806.97,-197.24 797.15,-193.27 796.81,-200.26"/>
</a>
</g>
</g>
<!-- Node5 -->
<g id="Node000005" class="node">
<title>Node5</title>
<g id="a_Node000005"><a xlink:href="ConfigParser_8cpp.html" target="_top" xlink:title=" ">
<polygon fill="white" stroke="#666666" points="152,-19 0,-19 0,0 152,0 152,-19"/>
<text text-anchor="middle" x="76" y="-7" font-family="Helvetica,sans-Serif" font-size="10.00">srcs/config/ConfigParser.cpp</text>
</a>
</g>
</g>
<!-- Node2&#45;&gt;Node5 -->
<g id="edge24_Node000002_Node000005" class="edge">
<title>Node2&#45;&gt;Node5</title>
<g id="a_edge24_Node000002_Node000005"><a xlink:title=" ">
<path fill="none" stroke="#63b8ff" d="M796.92,-201.7C665.38,-200.82 425.16,-192.84 225,-151 138.32,-132.88 88.21,-157.25 37,-85 21.3,-62.85 49,-33.56 65.32,-19.2"/>
<polygon fill="#63b8ff" stroke="#63b8ff" points="796.96,-205.2 806.98,-201.75 797,-198.2 796.96,-205.2"/>
</a>
</g>
</g>
<!-- Node7 -->
<g id="Node000007" class="node">
<title>Node7</title>
<g id="a_Node000007"><a xlink:href="WebServer_8hpp.html" target="_top" xlink:title=" ">
<polygon fill="white" stroke="#666666" points="568,-79.5 416,-79.5 416,-60.5 568,-60.5 568,-79.5"/>
<text text-anchor="middle" x="492" y="-67.5" font-family="Helvetica,sans-Serif" font-size="10.00">includes/init/WebServer.hpp</text>
</a>
</g>
</g>
<!-- Node2&#45;&gt;Node7 -->
<g id="edge12_Node000002_Node000007" class="edge">
<title>Node2&#45;&gt;Node7</title>
<g id="a_edge12_Node000002_Node000007"><a xlink:title=" ">
<path fill="none" stroke="#63b8ff" d="M844.38,-190.27C803.64,-181.17 745.11,-167.06 695,-151 626.1,-128.92 547.01,-95.25 511.29,-79.58"/>
<polygon fill="#63b8ff" stroke="#63b8ff" points="843.82,-193.73 854.34,-192.47 845.33,-186.89 843.82,-193.73"/>
</a>
</g>
</g>
<!-- Node10 -->
<g id="Node000010" class="node">
<title>Node10</title>
<g id="a_Node000010"><a xlink:href="RequestParse_8hpp.html" target="_top" xlink:title=" ">
<polygon fill="white" stroke="#666666" points="875,-151 735,-151 735,-121 875,-121 875,-151"/>
<text text-anchor="start" x="743" y="-139" font-family="Helvetica,sans-Serif" font-size="10.00">includes/request/Request</text>
<text text-anchor="middle" x="805" y="-128" font-family="Helvetica,sans-Serif" font-size="10.00">Parse.hpp</text>
</a>
</g>
</g>
<!-- Node2&#45;&gt;Node10 -->
<g id="edge13_Node000002_Node000010" class="edge">
<title>Node2&#45;&gt;Node10</title>
<g id="a_edge13_Node000002_Node000010"><a xlink:title=" ">
<path fill="none" stroke="#63b8ff" d="M874.35,-186.32C859.48,-175.74 839.53,-161.56 824.85,-151.12"/>
<polygon fill="#63b8ff" stroke="#63b8ff" points="872.68,-189.43 882.86,-192.37 876.74,-183.72 872.68,-189.43"/>
</a>
</g>
</g>
<!-- Node2&#45;&gt;Node12 -->
<g id="edge29_Node000002_Node000012" class="edge">
<title>Node2&#45;&gt;Node12</title>
<g id="a_edge29_Node000002_Node000012"><a xlink:title=" ">
<path fill="none" stroke="#63b8ff" d="M821.51,-190.3C789.95,-183.03 753.98,-170.96 726,-151 699.35,-131.98 680.61,-96.49 672.91,-79.93"/>
<polygon fill="#63b8ff" stroke="#63b8ff" points="821.07,-193.78 831.58,-192.49 822.56,-186.94 821.07,-193.78"/>
</a>
</g>
</g>
<!-- Node2&#45;&gt;Node13 -->
<g id="edge16_Node000002_Node000013" class="edge">
<title>Node2&#45;&gt;Node13</title>
<g id="a_edge16_Node000002_Node000013"><a xlink:title=" ">
<path fill="none" stroke="#63b8ff" d="M942.25,-190.16C989.24,-179.38 1061.53,-162.8 1112.86,-151.02"/>
<polygon fill="#63b8ff" stroke="#63b8ff" points="941.3,-186.79 932.34,-192.44 942.87,-193.61 941.3,-186.79"/>
</a>
</g>
</g>
<!-- Node2&#45;&gt;Node16 -->
<g id="edge26_Node000002_Node000016" class="edge">
<title>Node2&#45;&gt;Node16</title>
<g id="a_edge26_Node000002_Node000016"><a xlink:title=" ">
<path fill="none" stroke="#63b8ff" d="M993.38,-193.43C1084.98,-185.33 1214.21,-170.89 1261,-151 1280.8,-142.58 1279.01,-128.98 1299,-121 1462.32,-55.83 1518.45,-106.24 1693,-85 1705.83,-83.44 1719.63,-81.49 1732.53,-79.54"/>
<polygon fill="#63b8ff" stroke="#63b8ff" points="992.9,-189.96 983.24,-194.31 993.51,-196.93 992.9,-189.96"/>
</a>
</g>
</g>
<!-- Node2&#45;&gt;Node19 -->
<g id="edge25_Node000002_Node000019" class="edge">
<title>Node2&#45;&gt;Node19</title>
<g id="a_edge25_Node000002_Node000019"><a xlink:title=" ">
<path fill="none" stroke="#63b8ff" d="M978,-191.29C1058.77,-181.67 1184.93,-166.22 1294,-151 1306.03,-149.32 1318.94,-147.4 1331.14,-145.54"/>
<polygon fill="#63b8ff" stroke="#63b8ff" points="977.41,-187.83 967.89,-192.49 978.23,-194.78 977.41,-187.83"/>
</a>
</g>
</g>
<!-- Node20 -->
<g id="Node000020" class="node">
<title>Node20</title>
<g id="a_Node000020"><a xlink:href="Router_8cpp.html" target="_top" xlink:title=" ">
<polygon fill="white" stroke="#666666" points="1625.5,-145.5 1480.5,-145.5 1480.5,-126.5 1625.5,-126.5 1625.5,-145.5"/>
<text text-anchor="middle" x="1553" y="-133.5" font-family="Helvetica,sans-Serif" font-size="10.00">srcs/dispatcher/Router.cpp</text>
</a>
</g>
</g>
<!-- Node2&#45;&gt;Node20 -->
<g id="edge27_Node000002_Node000020" class="edge">
<title>Node2&#45;&gt;Node20</title>
<g id="a_edge27_Node000002_Node000020"><a xlink:title=" ">
<path fill="none" stroke="#63b8ff" d="M993.24,-194.95C1108.11,-187.3 1303.81,-172.49 1471,-151 1482.75,-149.49 1495.38,-147.51 1507.13,-145.52"/>
<polygon fill="#63b8ff" stroke="#63b8ff" points="992.81,-191.47 983.07,-195.62 993.28,-198.45 992.81,-191.47"/>
</a>
</g>
</g>
<!-- Node21 -->
<g id="Node000021" class="node">
<title>Node21</title>
<g id="a_Node000021"><a xlink:href="UploadHandler_8cpp.html" target="_top" xlink:title=" ">
<polygon fill="white" stroke="#666666" points="1078.5,-145.5 893.5,-145.5 893.5,-126.5 1078.5,-126.5 1078.5,-145.5"/>
<text text-anchor="middle" x="986" y="-133.5" font-family="Helvetica,sans-Serif" font-size="10.00">srcs/dispatcher/UploadHandler.cpp</text>
</a>
</g>
</g>
<!-- Node2&#45;&gt;Node21 -->
<g id="edge28_Node000002_Node000021" class="edge">
<title>Node2&#45;&gt;Node21</title>
<g id="a_edge28_Node000002_Node000021"><a xlink:title=" ">
<path fill="none" stroke="#63b8ff" d="M915.85,-186.33C933.7,-173.78 958.8,-156.13 973.63,-145.7"/>
<polygon fill="#63b8ff" stroke="#63b8ff" points="913.44,-183.75 907.27,-192.37 917.47,-189.48 913.44,-183.75"/>
</a>
</g>
</g>
<!-- Node3&#45;&gt;Node4 -->
<g id="edge3_Node000003_Node000004" class="edge">
<title>Node3&#45;&gt;Node4</title>
<g id="a_edge3_Node000003_Node000004"><a xlink:title=" ">
<path fill="none" stroke="#63b8ff" d="M343.94,-123.94C293.67,-111.32 212.53,-90.96 166.92,-79.51"/>
<polygon fill="#63b8ff" stroke="#63b8ff" points="343.32,-127.4 353.87,-126.44 345.03,-120.61 343.32,-127.4"/>
</a>
</g>
</g>
<!-- Node6 -->
<g id="Node000006" class="node">
<title>Node6</title>
<g id="a_Node000006"><a xlink:href="main_8cpp.html" target="_top" xlink:title=" ">
<polygon fill="white" stroke="#666666" points="430,-19 346,-19 346,0 430,0 430,-19"/>
<text text-anchor="middle" x="388" y="-7" font-family="Helvetica,sans-Serif" font-size="10.00">srcs/main.cpp</text>
</a>
</g>
</g>
<!-- Node3&#45;&gt;Node6 -->
<g id="edge10_Node000003_Node000006" class="edge">
<title>Node3&#45;&gt;Node6</title>
<g id="a_edge10_Node000003_Node000006"><a xlink:title=" ">
<path fill="none" stroke="#63b8ff" d="M388,-116.24C388,-88.86 388,-39.08 388,-19.12"/>
<polygon fill="#63b8ff" stroke="#63b8ff" points="384.5,-116.44 388,-126.44 391.5,-116.44 384.5,-116.44"/>
</a>
</g>
</g>
<!-- Node3&#45;&gt;Node7 -->
<g id="edge6_Node000003_Node000007" class="edge">
<title>Node3&#45;&gt;Node7</title>
<g id="a_edge6_Node000003_Node000007"><a xlink:title=" ">
<path fill="none" stroke="#63b8ff" d="M410.72,-121.02C431.17,-108.43 460.6,-90.32 477.86,-79.7"/>
<polygon fill="#63b8ff" stroke="#63b8ff" points="408.71,-118.15 402.03,-126.37 412.38,-124.11 408.71,-118.15"/>
</a>
</g>
</g>
<!-- Node9 -->
<g id="Node000009" class="node">
<title>Node9</title>
<g id="a_Node000009"><a xlink:href="Config_8cpp.html" target="_top" xlink:title=" ">
<polygon fill="white" stroke="#666666" points="360,-79.5 238,-79.5 238,-60.5 360,-60.5 360,-79.5"/>
<text text-anchor="middle" x="299" y="-67.5" font-family="Helvetica,sans-Serif" font-size="10.00">srcs/config/Config.cpp</text>
</a>
</g>
</g>
<!-- Node3&#45;&gt;Node9 -->
<g id="edge9_Node000003_Node000009" class="edge">
<title>Node3&#45;&gt;Node9</title>
<g id="a_edge9_Node000003_Node000009"><a xlink:title=" ">
<path fill="none" stroke="#63b8ff" d="M367.61,-120.33C350.15,-107.78 325.61,-90.13 311.1,-79.7"/>
<polygon fill="#63b8ff" stroke="#63b8ff" points="365.83,-123.37 376,-126.37 369.92,-117.69 365.83,-123.37"/>
</a>
</g>
</g>
<!-- Node4&#45;&gt;Node5 -->
<g id="edge4_Node000004_Node000005" class="edge">
<title>Node4&#45;&gt;Node5</title>
<g id="a_edge4_Node000004_Node000005"><a xlink:title=" ">
<path fill="none" stroke="#63b8ff" d="M117.5,-53.09C106.85,-42.17 93.13,-28.08 84.45,-19.17"/>
<polygon fill="#63b8ff" stroke="#63b8ff" points="115.1,-55.65 124.59,-60.37 120.12,-50.76 115.1,-55.65"/>
</a>
</g>
</g>
<!-- Node4&#45;&gt;Node6 -->
<g id="edge5_Node000004_Node000006" class="edge">
<title>Node4&#45;&gt;Node6</title>
<g id="a_edge5_Node000004_Node000006"><a xlink:title=" ">
<path fill="none" stroke="#63b8ff" d="M179.85,-58.25C229.12,-46.95 305.63,-29.4 350.88,-19.02"/>
<polygon fill="#63b8ff" stroke="#63b8ff" points="179.04,-54.85 170.08,-60.49 180.61,-61.67 179.04,-54.85"/>
</a>
</g>
</g>
<!-- Node7&#45;&gt;Node6 -->
<g id="edge8_Node000007_Node000006" class="edge">
<title>Node7&#45;&gt;Node6</title>
<g id="a_edge8_Node000007_Node000006"><a xlink:title=" ">
<path fill="none" stroke="#63b8ff" d="M467.86,-55.42C447.99,-44.24 420.41,-28.73 403.41,-19.17"/>
<polygon fill="#63b8ff" stroke="#63b8ff" points="466.22,-58.52 476.65,-60.37 469.65,-52.41 466.22,-58.52"/>
</a>
</g>
</g>
<!-- Node8 -->
<g id="Node000008" class="node">
<title>Node8</title>
<g id="a_Node000008"><a xlink:href="WebServer_8cpp.html" target="_top" xlink:title=" ">
<polygon fill="white" stroke="#666666" points="1230,-19 1100,-19 1100,0 1230,0 1230,-19"/>
<text text-anchor="middle" x="1165" y="-7" font-family="Helvetica,sans-Serif" font-size="10.00">srcs/init/WebServer.cpp</text>
</a>
</g>
</g>
<!-- Node7&#45;&gt;Node8 -->
<g id="edge7_Node000007_Node000008" class="edge">
<title>Node7&#45;&gt;Node8</title>
<g id="a_edge7_Node000007_Node000008"><a xlink:title=" ">
<path fill="none" stroke="#63b8ff" d="M549.08,-58.89C558.39,-57.45 567.95,-56.09 577,-55 766.32,-32.29 991.4,-19.07 1100,-13.55"/>
<polygon fill="#63b8ff" stroke="#63b8ff" points="548.43,-55.45 539.1,-60.49 549.53,-62.37 548.43,-55.45"/>
</a>
</g>
</g>
<!-- Node11 -->
<g id="Node000011" class="node">
<title>Node11</title>
<g id="a_Node000011"><a xlink:href="ClientConnection_8cpp.html" target="_top" xlink:title=" ">
<polygon fill="white" stroke="#666666" points="930.5,-79.5 769.5,-79.5 769.5,-60.5 930.5,-60.5 930.5,-79.5"/>
<text text-anchor="middle" x="850" y="-67.5" font-family="Helvetica,sans-Serif" font-size="10.00">srcs/init/ClientConnection.cpp</text>
</a>
</g>
</g>
<!-- Node10&#45;&gt;Node11 -->
<g id="edge14_Node000010_Node000011" class="edge">
<title>Node10&#45;&gt;Node11</title>
<g id="a_edge14_Node000010_Node000011"><a xlink:title=" ">
<path fill="none" stroke="#63b8ff" d="M820.74,-112.61C828.68,-101.32 837.85,-88.28 843.78,-79.84"/>
<polygon fill="#63b8ff" stroke="#63b8ff" points="817.88,-110.6 814.99,-120.8 823.6,-114.63 817.88,-110.6"/>
</a>
</g>
</g>
<!-- Node10&#45;&gt;Node12 -->
<g id="edge15_Node000010_Node000012" class="edge">
<title>Node10&#45;&gt;Node12</title>
<g id="a_edge15_Node000010_Node000012"><a xlink:title=" ">
<path fill="none" stroke="#63b8ff" d="M765.94,-116.62C739.99,-104.41 707.12,-88.94 687.1,-79.52"/>
<polygon fill="#63b8ff" stroke="#63b8ff" points="764.62,-119.86 775.15,-120.95 767.6,-113.53 764.62,-119.86"/>
</a>
</g>
</g>
<!-- Node13&#45;&gt;Node8 -->
<g id="edge22_Node000013_Node000008" class="edge">
<title>Node13&#45;&gt;Node8</title>
<g id="a_edge22_Node000013_Node000008"><a xlink:title=" ">
<path fill="none" stroke="#63b8ff" d="M1172.23,-110.48C1170.19,-82.34 1166.96,-37.67 1165.62,-19.07"/>
<polygon fill="#63b8ff" stroke="#63b8ff" points="1168.76,-111 1172.97,-120.72 1175.74,-110.49 1168.76,-111"/>
</a>
</g>
</g>
<!-- Node13&#45;&gt;Node11 -->
<g id="edge21_Node000013_Node000011" class="edge">
<title>Node13&#45;&gt;Node11</title>
<g id="a_edge21_Node000013_Node000011"><a xlink:title=" ">
<path fill="none" stroke="#63b8ff" d="M1092.93,-118.99C1029.56,-106.47 943.96,-89.56 893.12,-79.52"/>
<polygon fill="#63b8ff" stroke="#63b8ff" points="1092.41,-122.45 1102.9,-120.95 1093.76,-115.58 1092.41,-122.45"/>
</a>
</g>
</g>
<!-- Node14 -->
<g id="Node000014" class="node">
<title>Node14</title>
<g id="a_Node000014"><a xlink:href="AutoIndexHandler_8cpp.html" target="_top" xlink:title=" ">
<polygon fill="white" stroke="#666666" points="1336.5,-85 1193.5,-85 1193.5,-55 1336.5,-55 1336.5,-85"/>
<text text-anchor="start" x="1201.5" y="-73" font-family="Helvetica,sans-Serif" font-size="10.00">srcs/dispatcher/AutoIndex</text>
<text text-anchor="middle" x="1265" y="-62" font-family="Helvetica,sans-Serif" font-size="10.00">Handler.cpp</text>
</a>
</g>
</g>
<!-- Node13&#45;&gt;Node14 -->
<g id="edge17_Node000013_Node000014" class="edge">
<title>Node13&#45;&gt;Node14</title>
<g id="a_edge17_Node000013_Node000014"><a xlink:title=" ">
<path fill="none" stroke="#63b8ff" d="M1202.4,-115.03C1216.17,-105.34 1232.38,-93.94 1244.86,-85.16"/>
<polygon fill="#63b8ff" stroke="#63b8ff" points="1200.36,-112.18 1194.2,-120.8 1204.39,-117.91 1200.36,-112.18"/>
</a>
</g>
</g>
<!-- Node15 -->
<g id="Node000015" class="node">
<title>Node15</title>
<g id="a_Node000015"><a xlink:href="CgiHandler_8cpp.html" target="_top" xlink:title=" ">
<polygon fill="white" stroke="#666666" points="1521.5,-79.5 1354.5,-79.5 1354.5,-60.5 1521.5,-60.5 1521.5,-79.5"/>
<text text-anchor="middle" x="1438" y="-67.5" font-family="Helvetica,sans-Serif" font-size="10.00">srcs/dispatcher/CgiHandler.cpp</text>
</a>
</g>
</g>
<!-- Node13&#45;&gt;Node15 -->
<g id="edge18_Node000013_Node000015" class="edge">
<title>Node13&#45;&gt;Node15</title>
<g id="a_edge18_Node000013_Node000015"><a xlink:title=" ">
<path fill="none" stroke="#63b8ff" d="M1241.66,-118.6C1293.12,-106.12 1361.86,-89.46 1402.87,-79.52"/>
<polygon fill="#63b8ff" stroke="#63b8ff" points="1240.83,-115.2 1231.94,-120.95 1242.48,-122 1240.83,-115.2"/>
</a>
</g>
</g>
<!-- Node13&#45;&gt;Node16 -->
<g id="edge19_Node000013_Node000016" class="edge">
<title>Node13&#45;&gt;Node16</title>
<g id="a_edge19_Node000013_Node000016"><a xlink:title=" ">
<path fill="none" stroke="#63b8ff" d="M1262.05,-121.48C1263.37,-121.31 1264.69,-121.15 1266,-121 1455.14,-98.66 1503.86,-107.34 1693,-85 1706,-83.47 1719.98,-81.5 1733.02,-79.53"/>
<polygon fill="#63b8ff" stroke="#63b8ff" points="1261.22,-118.05 1251.75,-122.79 1262.11,-125 1261.22,-118.05"/>
</a>
</g>
</g>
<!-- Node17 -->
<g id="Node000017" class="node">
<title>Node17</title>
<g id="a_Node000017"><a xlink:href="StaticPageHandler_8cpp.html" target="_top" xlink:title=" ">
<polygon fill="white" stroke="#666666" points="1684,-85 1540,-85 1540,-55 1684,-55 1684,-85"/>
<text text-anchor="start" x="1548" y="-73" font-family="Helvetica,sans-Serif" font-size="10.00">srcs/dispatcher/StaticPage</text>
<text text-anchor="middle" x="1612" y="-62" font-family="Helvetica,sans-Serif" font-size="10.00">Handler.cpp</text>
</a>
</g>
</g>
<!-- Node13&#45;&gt;Node17 -->
<g id="edge20_Node000013_Node000017" class="edge">
<title>Node13&#45;&gt;Node17</title>
<g id="a_edge20_Node000013_Node000017"><a xlink:title=" ">
<path fill="none" stroke="#63b8ff" d="M1262.06,-121.57C1263.38,-121.38 1264.7,-121.19 1266,-121 1383.65,-104.06 1413.53,-103.12 1531,-85 1533.82,-84.56 1536.7,-84.11 1539.6,-83.65"/>
<polygon fill="#63b8ff" stroke="#63b8ff" points="1261.17,-118.16 1251.79,-123.07 1262.19,-125.09 1261.17,-118.16"/>
</a>
</g>
</g>
<!-- Node18 -->
<g id="Node000018" class="node">
<title>Node18</title>
<g id="a_Node000018"><a xlink:href="ResponseBuilder_8cpp.html" target="_top" xlink:title=" ">
<polygon fill="white" stroke="#666666" points="1137,-79.5 949,-79.5 949,-60.5 1137,-60.5 1137,-79.5"/>
<text text-anchor="middle" x="1043" y="-67.5" font-family="Helvetica,sans-Serif" font-size="10.00">srcs/response/ResponseBuilder.cpp</text>
</a>
</g>
</g>
<!-- Node13&#45;&gt;Node18 -->
<g id="edge23_Node000013_Node000018" class="edge">
<title>Node13&#45;&gt;Node18</title>
<g id="a_edge23_Node000013_Node000018"><a xlink:title=" ">
<path fill="none" stroke="#63b8ff" d="M1136.05,-116.46C1111.1,-104.27 1079.64,-88.9 1060.43,-79.52"/>
<polygon fill="#63b8ff" stroke="#63b8ff" points="1134.73,-119.71 1145.25,-120.95 1137.8,-113.42 1134.73,-119.71"/>
</a>
</g>
</g>
<!-- Node22&#45;&gt;Node8 -->
<g id="edge32_Node000022_Node000008" class="edge">
<title>Node22&#45;&gt;Node8</title>
<g id="a_edge32_Node000022_Node000008"><a xlink:title=" ">
<path fill="none" stroke="#63b8ff" d="M1831.1,-116.8C1863.89,-101.31 1898.59,-77.98 1877,-55 1855.03,-31.62 1401.99,-16.93 1230.24,-12.18"/>
<polygon fill="#63b8ff" stroke="#63b8ff" points="1829.61,-113.63 1821.96,-120.95 1832.51,-120.01 1829.61,-113.63"/>
</a>
</g>
</g>
<!-- Node22&#45;&gt;Node16 -->
<g id="edge31_Node000022_Node000016" class="edge">
<title>Node22&#45;&gt;Node16</title>
<g id="a_edge31_Node000022_Node000016"><a xlink:title=" ">
<path fill="none" stroke="#63b8ff" d="M1785,-110.6C1785,-99.8 1785,-87.78 1785,-79.84"/>
<polygon fill="#63b8ff" stroke="#63b8ff" points="1781.5,-110.8 1785,-120.8 1788.5,-110.8 1781.5,-110.8"/>
</a>
</g>
</g>
<!-- Node23&#45;&gt;Node16 -->
<g id="edge34_Node000023_Node000016" class="edge">
<title>Node23&#45;&gt;Node16</title>
<g id="a_edge34_Node000023_Node000016"><a xlink:title=" ">
<path fill="none" stroke="#63b8ff" d="M1585.9,-181.57C1600.99,-172.5 1619.04,-161.42 1635,-151 1654.51,-138.26 1657.81,-132.64 1678,-121 1706.77,-104.4 1741.98,-88.79 1763.95,-79.56"/>
<polygon fill="#63b8ff" stroke="#63b8ff" points="1583.71,-178.8 1576.92,-186.94 1587.3,-184.81 1583.71,-178.8"/>
</a>
</g>
</g>
<!-- Node23&#45;&gt;Node20 -->
<g id="edge35_Node000023_Node000020" class="edge">
<title>Node23&#45;&gt;Node20</title>
<g id="a_edge35_Node000023_Node000020"><a xlink:title=" ">
<path fill="none" stroke="#63b8ff" d="M1553,-176.6C1553,-165.8 1553,-153.78 1553,-145.84"/>
<polygon fill="#63b8ff" stroke="#63b8ff" points="1549.5,-176.8 1553,-186.8 1556.5,-176.8 1549.5,-176.8"/>
</a>
</g>
</g>
</g>
</svg>
