<?xml version="1.0" encoding="UTF-8" standalone="no"?>
<!DOCTYPE svg PUBLIC "-//W3C//DTD SVG 1.1//EN"
 "http://www.w3.org/Graphics/SVG/1.1/DTD/svg11.dtd">
<!-- Generated by graphviz version 2.43.0 (0)
 -->
<!-- Title: LocationConfig.hpp Pages: 1 -->
<svg width="1442pt" height="247pt"
 viewBox="0.00 0.00 1442.44 247.00" xmlns="http://www.w3.org/2000/svg" xmlns:xlink="http://www.w3.org/1999/xlink">
<g id="graph0" class="graph" transform="scale(1 1) rotate(0) translate(4 243)">
<title>LocationConfig.hpp</title>
<!-- Node1 -->
<g id="Node000001" class="node">
<title>Node1</title>
<g id="a_Node000001"><a xlink:title=" ">
<polygon fill="#999999" stroke="#666666" points="768.94,-239 658.94,-239 658.94,-220 768.94,-220 768.94,-239"/>
<text text-anchor="middle" x="713.94" y="-227" font-family="Helvetica,sans-Serif" font-size="10.00">LocationConfig.hpp</text>
</a>
</g>
</g>
<!-- Node2 -->
<g id="Node000002" class="node">
<title>Node2</title>
<g id="a_Node000002"><a xlink:href="Dispatcher_8cpp.html" target="_top" xlink:title=" ">
<polygon fill="white" stroke="#666666" points="103.44,-74 14.44,-74 14.44,-55 103.44,-55 103.44,-74"/>
<text text-anchor="middle" x="58.94" y="-62" font-family="Helvetica,sans-Serif" font-size="10.00">Dispatcher.cpp</text>
</a>
</g>
</g>
<!-- Node1&#45;&gt;Node2 -->
<g id="edge1_Node000001_Node000002" class="edge">
<title>Node1&#45;&gt;Node2</title>
<g id="a_edge1_Node000001_Node000002"><a xlink:title=" ">
<path fill="none" stroke="#63b8ff" d="M648.73,-227.96C567.62,-225.79 425.6,-217.05 308.94,-184 213.51,-156.97 109.37,-96.44 72.66,-74.05"/>
<polygon fill="#63b8ff" stroke="#63b8ff" points="648.71,-231.46 658.79,-228.2 648.88,-224.46 648.71,-231.46"/>
</a>
</g>
</g>
<!-- Node3 -->
<g id="Node000003" class="node">
<title>Node3</title>
<g id="a_Node000003"><a xlink:href="Dispatcher_8hpp.html" target="_top" xlink:title=" ">
<polygon fill="white" stroke="#666666" points="103.44,-129 14.44,-129 14.44,-110 103.44,-110 103.44,-129"/>
<text text-anchor="middle" x="58.94" y="-117" font-family="Helvetica,sans-Serif" font-size="10.00">Dispatcher.hpp</text>
</a>
</g>
</g>
<!-- Node1&#45;&gt;Node3 -->
<g id="edge2_Node000001_Node000003" class="edge">
<title>Node1&#45;&gt;Node3</title>
<g id="a_edge2_Node000001_Node000003"><a xlink:title=" ">
<path fill="none" stroke="#63b8ff" d="M648.63,-226.3C526.07,-221.65 266.17,-209.1 179.94,-184 137.34,-171.6 92.41,-143.43 71.29,-129.15"/>
<polygon fill="#63b8ff" stroke="#63b8ff" points="648.51,-229.8 658.64,-226.68 648.78,-222.81 648.51,-229.8"/>
</a>
</g>
</g>
<!-- Node5 -->
<g id="Node000005" class="node">
<title>Node5</title>
<g id="a_Node000005"><a xlink:href="LocationConfig_8cpp.html" target="_top" xlink:title=" ">
<polygon fill="white" stroke="#666666" points="1090.44,-184 981.44,-184 981.44,-165 1090.44,-165 1090.44,-184"/>
<text text-anchor="middle" x="1035.94" y="-172" font-family="Helvetica,sans-Serif" font-size="10.00">LocationConfig.cpp</text>
</a>
</g>
</g>
<!-- Node1&#45;&gt;Node5 -->
<g id="edge5_Node000001_Node000005" class="edge">
<title>Node1&#45;&gt;Node5</title>
<g id="a_edge5_Node000001_Node000005"><a xlink:title=" ">
<path fill="none" stroke="#63b8ff" d="M775.85,-218.31C836.31,-208.36 927.29,-193.38 984.07,-184.04"/>
<polygon fill="#63b8ff" stroke="#63b8ff" points="774.97,-214.91 765.67,-219.98 776.11,-221.81 774.97,-214.91"/>
</a>
</g>
</g>
<!-- Node6 -->
<g id="Node000006" class="node">
<title>Node6</title>
<g id="a_Node000006"><a xlink:href="RequestParse_8cpp.html" target="_top" xlink:title=" ">
<polygon fill="white" stroke="#666666" points="931.44,-74 828.44,-74 828.44,-55 931.44,-55 931.44,-74"/>
<text text-anchor="middle" x="879.94" y="-62" font-family="Helvetica,sans-Serif" font-size="10.00">RequestParse.cpp</text>
</a>
</g>
</g>
<!-- Node1&#45;&gt;Node6 -->
<g id="edge6_Node000001_Node000006" class="edge">
<title>Node1&#45;&gt;Node6</title>
<g id="a_edge6_Node000001_Node000006"><a xlink:title=" ">
<path fill="none" stroke="#63b8ff" d="M779.19,-222.93C806.88,-217.23 837.24,-205.99 856.94,-184 885.46,-152.15 883.13,-95.81 881.01,-74.24"/>
<polygon fill="#63b8ff" stroke="#63b8ff" points="778.34,-219.53 769.14,-224.79 779.61,-226.41 778.34,-219.53"/>
</a>
</g>
</g>
<!-- Node7 -->
<g id="Node000007" class="node">
<title>Node7</title>
<g id="a_Node000007"><a xlink:href="ResponseBuilder_8hpp.html" target="_top" xlink:title=" ">
<polygon fill="white" stroke="#666666" points="561.44,-129 442.44,-129 442.44,-110 561.44,-110 561.44,-129"/>
<text text-anchor="middle" x="501.94" y="-117" font-family="Helvetica,sans-Serif" font-size="10.00">ResponseBuilder.hpp</text>
</a>
</g>
</g>
<!-- Node1&#45;&gt;Node7 -->
<g id="edge7_Node000001_Node000007" class="edge">
<title>Node1&#45;&gt;Node7</title>
<g id="a_edge7_Node000001_Node000007"><a xlink:title=" ">
<path fill="none" stroke="#63b8ff" d="M688,-215.28C643.92,-192.83 555.59,-147.83 518.72,-129.05"/>
<polygon fill="#63b8ff" stroke="#63b8ff" points="686.45,-218.42 696.95,-219.84 689.63,-212.19 686.45,-218.42"/>
</a>
</g>
</g>
<!-- Node13 -->
<g id="Node000013" class="node">
<title>Node13</title>
<g id="a_Node000013"><a xlink:href="Router_8hpp.html" target="_top" xlink:title=" ">
<polygon fill="white" stroke="#666666" points="386.44,-184 317.44,-184 317.44,-165 386.44,-165 386.44,-184"/>
<text text-anchor="middle" x="351.94" y="-172" font-family="Helvetica,sans-Serif" font-size="10.00">Router.hpp</text>
</a>
</g>
</g>
<!-- Node1&#45;&gt;Node13 -->
<g id="edge15_Node000001_Node000013" class="edge">
<title>Node1&#45;&gt;Node13</title>
<g id="a_edge15_Node000001_Node000013"><a xlink:title=" ">
<path fill="none" stroke="#63b8ff" d="M648.5,-218.92C571.57,-207.66 446.76,-189.38 386.57,-180.57"/>
<polygon fill="#63b8ff" stroke="#63b8ff" points="648.16,-222.41 658.56,-220.39 649.18,-215.48 648.16,-222.41"/>
</a>
</g>
</g>
<!-- Node15 -->
<g id="Node000015" class="node">
<title>Node15</title>
<g id="a_Node000015"><a xlink:href="ServerConfig_8cpp.html" target="_top" xlink:title=" ">
<polygon fill="white" stroke="#666666" points="1434.44,-129 1335.44,-129 1335.44,-110 1434.44,-110 1434.44,-129"/>
<text text-anchor="middle" x="1384.94" y="-117" font-family="Helvetica,sans-Serif" font-size="10.00">ServerConfig.cpp</text>
</a>
</g>
</g>
<!-- Node1&#45;&gt;Node15 -->
<g id="edge18_Node000001_Node000015" class="edge">
<title>Node1&#45;&gt;Node15</title>
<g id="a_edge18_Node000001_Node000015"><a xlink:title=" ">
<path fill="none" stroke="#63b8ff" d="M779.14,-218.56C822.23,-211.13 879.64,-199.57 928.94,-184 949.25,-177.59 952.33,-170.38 972.94,-165 1123.39,-125.72 1166.52,-147.24 1320.94,-129 1325.61,-128.45 1330.48,-127.85 1335.34,-127.23"/>
<polygon fill="#63b8ff" stroke="#63b8ff" points="778.34,-215.15 769.07,-220.27 779.51,-222.05 778.34,-215.15"/>
</a>
</g>
</g>
<!-- Node16 -->
<g id="Node000016" class="node">
<title>Node16</title>
<g id="a_Node000016"><a xlink:href="ServerConfig_8hpp.html" target="_top" xlink:title=" ">
<polygon fill="white" stroke="#666666" points="847.94,-184 747.94,-184 747.94,-165 847.94,-165 847.94,-184"/>
<text text-anchor="middle" x="797.94" y="-172" font-family="Helvetica,sans-Serif" font-size="10.00">ServerConfig.hpp</text>
</a>
</g>
</g>
<!-- Node1&#45;&gt;Node16 -->
<g id="edge19_Node000001_Node000016" class="edge">
<title>Node1&#45;&gt;Node16</title>
<g id="a_edge19_Node000001_Node000016"><a xlink:title=" ">
<path fill="none" stroke="#63b8ff" d="M736.25,-214.42C751.49,-204.81 771.21,-192.37 784.2,-184.17"/>
<polygon fill="#63b8ff" stroke="#63b8ff" points="734.02,-211.69 727.43,-219.98 737.76,-217.61 734.02,-211.69"/>
</a>
</g>
</g>
<!-- Node3&#45;&gt;Node2 -->
<g id="edge3_Node000003_Node000002" class="edge">
<title>Node3&#45;&gt;Node2</title>
<g id="a_edge3_Node000003_Node000002"><a xlink:title=" ">
<path fill="none" stroke="#63b8ff" d="M58.94,-99.66C58.94,-90.93 58.94,-80.99 58.94,-74.09"/>
<polygon fill="#63b8ff" stroke="#63b8ff" points="55.44,-99.75 58.94,-109.75 62.44,-99.75 55.44,-99.75"/>
</a>
</g>
</g>
<!-- Node4 -->
<g id="Node000004" class="node">
<title>Node4</title>
<g id="a_Node000004"><a xlink:href="WebServer_8cpp.html" target="_top" xlink:title=" ">
<polygon fill="white" stroke="#666666" points="456.44,-19 367.44,-19 367.44,0 456.44,0 456.44,-19"/>
<text text-anchor="middle" x="411.94" y="-7" font-family="Helvetica,sans-Serif" font-size="10.00">WebServer.cpp</text>
</a>
</g>
</g>
<!-- Node3&#45;&gt;Node4 -->
<g id="edge4_Node000003_Node000004" class="edge">
<title>Node3&#45;&gt;Node4</title>
<g id="a_edge4_Node000003_Node000004"><a xlink:title=" ">
<path fill="none" stroke="#63b8ff" d="M33.73,-104.68C13.19,-91.69 -10.13,-71.8 4.94,-55 28.81,-28.37 266.68,-16.11 367.33,-12.08"/>
<polygon fill="#63b8ff" stroke="#63b8ff" points="32.15,-107.81 42.53,-109.96 35.75,-101.81 32.15,-107.81"/>
</a>
</g>
</g>
<!-- Node7&#45;&gt;Node2 -->
<g id="edge11_Node000007_Node000002" class="edge">
<title>Node7&#45;&gt;Node2</title>
<g id="a_edge11_Node000007_Node000002"><a xlink:title=" ">
<path fill="none" stroke="#63b8ff" d="M431.88,-110.45C430.55,-110.3 429.24,-110.15 427.94,-110 287.94,-93.96 252.57,-92.96 112.94,-74 109.93,-73.59 106.83,-73.15 103.71,-72.7"/>
<polygon fill="#63b8ff" stroke="#63b8ff" points="431.83,-113.97 442.16,-111.63 432.63,-107.01 431.83,-113.97"/>
</a>
</g>
</g>
<!-- Node7&#45;&gt;Node4 -->
<g id="edge14_Node000007_Node000004" class="edge">
<title>Node7&#45;&gt;Node4</title>
<g id="a_edge14_Node000007_Node000004"><a xlink:title=" ">
<path fill="none" stroke="#63b8ff" d="M470.99,-105.37C456.97,-98 441.25,-87.54 430.94,-74 418.25,-57.34 414,-32.27 412.6,-19.17"/>
<polygon fill="#63b8ff" stroke="#63b8ff" points="469.83,-108.69 480.35,-109.97 472.92,-102.41 469.83,-108.69"/>
</a>
</g>
</g>
<!-- Node8 -->
<g id="Node000008" class="node">
<title>Node8</title>
<g id="a_Node000008"><a xlink:href="AutoIndexHandler_8cpp.html" target="_top" xlink:title=" ">
<polygon fill="white" stroke="#666666" points="563.94,-74 439.94,-74 439.94,-55 563.94,-55 563.94,-74"/>
<text text-anchor="middle" x="501.94" y="-62" font-family="Helvetica,sans-Serif" font-size="10.00">AutoIndexHandler.cpp</text>
</a>
</g>
</g>
<!-- Node7&#45;&gt;Node8 -->
<g id="edge8_Node000007_Node000008" class="edge">
<title>Node7&#45;&gt;Node8</title>
<g id="a_edge8_Node000007_Node000008"><a xlink:title=" ">
<path fill="none" stroke="#63b8ff" d="M501.94,-99.66C501.94,-90.93 501.94,-80.99 501.94,-74.09"/>
<polygon fill="#63b8ff" stroke="#63b8ff" points="498.44,-99.75 501.94,-109.75 505.44,-99.75 498.44,-99.75"/>
</a>
</g>
</g>
<!-- Node9 -->
<g id="Node000009" class="node">
<title>Node9</title>
<g id="a_Node000009"><a xlink:href="CgiHandler_8cpp.html" target="_top" xlink:title=" ">
<polygon fill="white" stroke="#666666" points="671.94,-74 581.94,-74 581.94,-55 671.94,-55 671.94,-74"/>
<text text-anchor="middle" x="626.94" y="-62" font-family="Helvetica,sans-Serif" font-size="10.00">CgiHandler.cpp</text>
</a>
</g>
</g>
<!-- Node7&#45;&gt;Node9 -->
<g id="edge9_Node000007_Node000009" class="edge">
<title>Node7&#45;&gt;Node9</title>
<g id="a_edge9_Node000007_Node000009"><a xlink:title=" ">
<path fill="none" stroke="#63b8ff" d="M531.35,-106.03C554.47,-96.23 586.07,-82.83 606.49,-74.17"/>
<polygon fill="#63b8ff" stroke="#63b8ff" points="529.86,-102.86 522.02,-109.98 532.59,-109.3 529.86,-102.86"/>
</a>
</g>
</g>
<!-- Node10 -->
<g id="Node000010" class="node">
<title>Node10</title>
<g id="a_Node000010"><a xlink:href="ClientConnection_8cpp.html" target="_top" xlink:title=" ">
<polygon fill="white" stroke="#666666" points="809.94,-74 689.94,-74 689.94,-55 809.94,-55 809.94,-74"/>
<text text-anchor="middle" x="749.94" y="-62" font-family="Helvetica,sans-Serif" font-size="10.00">ClientConnection.cpp</text>
</a>
</g>
</g>
<!-- Node7&#45;&gt;Node10 -->
<g id="edge10_Node000007_Node000010" class="edge">
<title>Node7&#45;&gt;Node10</title>
<g id="a_edge10_Node000007_Node000010"><a xlink:title=" ">
<path fill="none" stroke="#63b8ff" d="M551.64,-107.88C598.12,-97.94 666.67,-83.3 709.78,-74.08"/>
<polygon fill="#63b8ff" stroke="#63b8ff" points="550.83,-104.47 541.78,-109.98 552.29,-111.32 550.83,-104.47"/>
</a>
</g>
</g>
<!-- Node11 -->
<g id="Node000011" class="node">
<title>Node11</title>
<g id="a_Node000011"><a xlink:href="ResponseBuilder_8cpp.html" target="_top" xlink:title=" ">
<polygon fill="white" stroke="#666666" points="239.94,-74 121.94,-74 121.94,-55 239.94,-55 239.94,-74"/>
<text text-anchor="middle" x="180.94" y="-62" font-family="Helvetica,sans-Serif" font-size="10.00">ResponseBuilder.cpp</text>
</a>
</g>
</g>
<!-- Node7&#45;&gt;Node11 -->
<g id="edge12_Node000007_Node000011" class="edge">
<title>Node7&#45;&gt;Node11</title>
<g id="a_edge12_Node000007_Node000011"><a xlink:title=" ">
<path fill="none" stroke="#63b8ff" d="M440.22,-108.31C379.94,-98.36 289.25,-83.38 232.65,-74.04"/>
<polygon fill="#63b8ff" stroke="#63b8ff" points="439.93,-111.81 450.36,-109.98 441.07,-104.9 439.93,-111.81"/>
</a>
</g>
</g>
<!-- Node12 -->
<g id="Node000012" class="node">
<title>Node12</title>
<g id="a_Node000012"><a xlink:href="StaticPageHandler_8cpp.html" target="_top" xlink:title=" ">
<polygon fill="white" stroke="#666666" points="383.44,-74 258.44,-74 258.44,-55 383.44,-55 383.44,-74"/>
<text text-anchor="middle" x="320.94" y="-62" font-family="Helvetica,sans-Serif" font-size="10.00">StaticPageHandler.cpp</text>
</a>
</g>
</g>
<!-- Node7&#45;&gt;Node12 -->
<g id="edge13_Node000007_Node000012" class="edge">
<title>Node7&#45;&gt;Node12</title>
<g id="a_edge13_Node000007_Node000012"><a xlink:title=" ">
<path fill="none" stroke="#63b8ff" d="M462.86,-107.06C429.03,-97.15 380.85,-83.04 350.25,-74.08"/>
<polygon fill="#63b8ff" stroke="#63b8ff" points="462.28,-110.53 472.86,-109.98 464.24,-103.82 462.28,-110.53"/>
</a>
</g>
</g>
<!-- Node13&#45;&gt;Node2 -->
<g id="edge16_Node000013_Node000002" class="edge">
<title>Node13&#45;&gt;Node2</title>
<g id="a_edge16_Node000013_Node000002"><a xlink:title=" ">
<path fill="none" stroke="#63b8ff" d="M325.18,-160.49C296.57,-146.87 249.68,-125.37 207.94,-110 168.67,-95.54 122.33,-82.28 91.88,-74.06"/>
<polygon fill="#63b8ff" stroke="#63b8ff" points="323.97,-163.79 334.5,-164.96 326.99,-157.48 323.97,-163.79"/>
</a>
</g>
</g>
<!-- Node14 -->
<g id="Node000014" class="node">
<title>Node14</title>
<g id="a_Node000014"><a xlink:href="Router_8cpp.html" target="_top" xlink:title=" ">
<polygon fill="white" stroke="#666666" points="385.94,-129 317.94,-129 317.94,-110 385.94,-110 385.94,-129"/>
<text text-anchor="middle" x="351.94" y="-117" font-family="Helvetica,sans-Serif" font-size="10.00">Router.cpp</text>
</a>
</g>
</g>
<!-- Node13&#45;&gt;Node14 -->
<g id="edge17_Node000013_Node000014" class="edge">
<title>Node13&#45;&gt;Node14</title>
<g id="a_edge17_Node000013_Node000014"><a xlink:title=" ">
<path fill="none" stroke="#63b8ff" d="M351.94,-154.66C351.94,-145.93 351.94,-135.99 351.94,-129.09"/>
<polygon fill="#63b8ff" stroke="#63b8ff" points="348.44,-154.75 351.94,-164.75 355.44,-154.75 348.44,-154.75"/>
</a>
</g>
</g>
<!-- Node16&#45;&gt;Node2 -->
<g id="edge31_Node000016_Node000002" class="edge">
<title>Node16&#45;&gt;Node2</title>
<g id="a_edge31_Node000016_Node000002"><a xlink:title=" ">
<path fill="none" stroke="#63b8ff" d="M737.3,-172.19C664.03,-169.23 537.66,-159.67 433.94,-129 415.45,-123.53 413.41,-115.52 394.94,-110 273.87,-73.85 238.03,-91.83 112.94,-74 109.93,-73.57 106.83,-73.12 103.71,-72.65"/>
<polygon fill="#63b8ff" stroke="#63b8ff" points="737.6,-175.71 747.72,-172.58 737.86,-168.71 737.6,-175.71"/>
</a>
</g>
</g>
<!-- Node16&#45;&gt;Node6 -->
<g id="edge32_Node000016_Node000006" class="edge">
<title>Node16&#45;&gt;Node6</title>
<g id="a_edge32_Node000016_Node000006"><a xlink:title=" ">
<path fill="none" stroke="#63b8ff" d="M810.7,-156.69C828.41,-133.37 859.78,-92.05 873.36,-74.16"/>
<polygon fill="#63b8ff" stroke="#63b8ff" points="807.91,-154.58 804.65,-164.66 813.48,-158.81 807.91,-154.58"/>
</a>
</g>
</g>
<!-- Node16&#45;&gt;Node7 -->
<g id="edge36_Node000016_Node000007" class="edge">
<title>Node16&#45;&gt;Node7</title>
<g id="a_edge36_Node000016_Node000007"><a xlink:title=" ">
<path fill="none" stroke="#63b8ff" d="M740.35,-163.19C684.86,-153.25 601.86,-138.39 549.87,-129.08"/>
<polygon fill="#63b8ff" stroke="#63b8ff" points="739.92,-166.67 750.38,-164.98 741.15,-159.78 739.92,-166.67"/>
</a>
</g>
</g>
<!-- Node16&#45;&gt;Node14 -->
<g id="edge37_Node000016_Node000014" class="edge">
<title>Node16&#45;&gt;Node14</title>
<g id="a_edge37_Node000016_Node000014"><a xlink:title=" ">
<path fill="none" stroke="#63b8ff" d="M737.72,-167.98C659.64,-160.54 519.31,-146.22 399.94,-129 395.42,-128.35 390.66,-127.59 385.98,-126.81"/>
<polygon fill="#63b8ff" stroke="#63b8ff" points="737.57,-171.48 747.86,-168.94 738.23,-164.51 737.57,-171.48"/>
</a>
</g>
</g>
<!-- Node16&#45;&gt;Node15 -->
<g id="edge38_Node000016_Node000015" class="edge">
<title>Node16&#45;&gt;Node15</title>
<g id="a_edge38_Node000016_Node000015"><a xlink:title=" ">
<path fill="none" stroke="#63b8ff" d="M858.39,-169.29C955.87,-162.28 1153.77,-147.2 1320.94,-129 1325.62,-128.49 1330.49,-127.92 1335.35,-127.32"/>
<polygon fill="#63b8ff" stroke="#63b8ff" points="857.86,-165.82 848.14,-170.02 858.36,-172.8 857.86,-165.82"/>
</a>
</g>
</g>
<!-- Node17 -->
<g id="Node000017" class="node">
<title>Node17</title>
<g id="a_Node000017"><a xlink:href="Config_8hpp.html" target="_top" xlink:title=" ">
<polygon fill="white" stroke="#666666" points="1124.94,-129 1056.94,-129 1056.94,-110 1124.94,-110 1124.94,-129"/>
<text text-anchor="middle" x="1090.94" y="-117" font-family="Helvetica,sans-Serif" font-size="10.00">Config.hpp</text>
</a>
</g>
</g>
<!-- Node16&#45;&gt;Node17 -->
<g id="edge20_Node000016_Node000017" class="edge">
<title>Node16&#45;&gt;Node17</title>
<g id="a_edge20_Node000016_Node000017"><a xlink:title=" ">
<path fill="none" stroke="#63b8ff" d="M855.08,-163.16C915.04,-152.32 1007.31,-135.63 1056.79,-126.68"/>
<polygon fill="#63b8ff" stroke="#63b8ff" points="854.23,-159.76 845.01,-164.98 855.48,-166.65 854.23,-159.76"/>
</a>
</g>
</g>
<!-- Node19 -->
<g id="Node000019" class="node">
<title>Node19</title>
<g id="a_Node000019"><a xlink:href="ConfigParser_8hpp.html" target="_top" xlink:title=" ">
<polygon fill="white" stroke="#666666" points="1278.94,-74 1180.94,-74 1180.94,-55 1278.94,-55 1278.94,-74"/>
<text text-anchor="middle" x="1229.94" y="-62" font-family="Helvetica,sans-Serif" font-size="10.00">ConfigParser.hpp</text>
</a>
</g>
</g>
<!-- Node16&#45;&gt;Node19 -->
<g id="edge30_Node000016_Node000019" class="edge">
<title>Node16&#45;&gt;Node19</title>
<g id="a_edge30_Node000016_Node000019"><a xlink:title=" ">
<path fill="none" stroke="#63b8ff" d="M858.08,-168.8C940.72,-161.79 1084.74,-147.41 1133.94,-129 1168.75,-115.98 1203.65,-88.36 1220.14,-74.23"/>
<polygon fill="#63b8ff" stroke="#63b8ff" points="857.74,-165.32 848.07,-169.64 858.33,-172.29 857.74,-165.32"/>
</a>
</g>
</g>
<!-- Node20 -->
<g id="Node000020" class="node">
<title>Node20</title>
<g id="a_Node000020"><a xlink:href="ConfigParser_8cpp.html" target="_top" xlink:title=" ">
<polygon fill="white" stroke="#666666" points="1327.44,-19 1230.44,-19 1230.44,0 1327.44,0 1327.44,-19"/>
<text text-anchor="middle" x="1278.94" y="-7" font-family="Helvetica,sans-Serif" font-size="10.00">ConfigParser.cpp</text>
</a>
</g>
</g>
<!-- Node16&#45;&gt;Node20 -->
<g id="edge29_Node000016_Node000020" class="edge">
<title>Node16&#45;&gt;Node20</title>
<g id="a_edge29_Node000016_Node000020"><a xlink:title=" ">
<path fill="none" stroke="#63b8ff" d="M858.21,-168.44C947.25,-160.59 1109.52,-144.73 1165.94,-129 1223.23,-113.02 1255.66,-123.96 1287.94,-74 1298.94,-56.98 1289.75,-32.06 1283.52,-19.08"/>
<polygon fill="#63b8ff" stroke="#63b8ff" points="857.64,-164.98 847.98,-169.34 858.25,-171.95 857.64,-164.98"/>
</a>
</g>
</g>
<!-- Node22 -->
<g id="Node000022" class="node">
<title>Node22</title>
<g id="a_Node000022"><a xlink:href="WebServer_8hpp.html" target="_top" xlink:title=" ">
<polygon fill="white" stroke="#666666" points="1038.44,-74 949.44,-74 949.44,-55 1038.44,-55 1038.44,-74"/>
<text text-anchor="middle" x="993.94" y="-62" font-family="Helvetica,sans-Serif" font-size="10.00">WebServer.hpp</text>
</a>
</g>
</g>
<!-- Node16&#45;&gt;Node22 -->
<g id="edge40_Node000016_Node000022" class="edge">
<title>Node16&#45;&gt;Node22</title>
<g id="a_edge40_Node000016_Node000022"><a xlink:title=" ">
<path fill="none" stroke="#63b8ff" d="M822.44,-160C863.36,-137.45 944.48,-92.75 978.43,-74.05"/>
<polygon fill="#63b8ff" stroke="#63b8ff" points="820.72,-156.95 813.65,-164.84 824.09,-163.08 820.72,-156.95"/>
</a>
</g>
</g>
<!-- Node23 -->
<g id="Node000023" class="node">
<title>Node23</title>
<g id="a_Node000023"><a xlink:href="RequestParse_8hpp.html" target="_top" xlink:title=" ">
<polygon fill="white" stroke="#666666" points="810.94,-129 706.94,-129 706.94,-110 810.94,-110 810.94,-129"/>
<text text-anchor="middle" x="758.94" y="-117" font-family="Helvetica,sans-Serif" font-size="10.00">RequestParse.hpp</text>
</a>
</g>
</g>
<!-- Node16&#45;&gt;Node23 -->
<g id="edge33_Node000016_Node000023" class="edge">
<title>Node16&#45;&gt;Node23</title>
<g id="a_edge33_Node000016_Node000023"><a xlink:title=" ">
<path fill="none" stroke="#63b8ff" d="M785.56,-156.67C778.8,-147.5 770.73,-136.52 765.26,-129.09"/>
<polygon fill="#63b8ff" stroke="#63b8ff" points="782.75,-158.77 791.5,-164.75 788.39,-154.62 782.75,-158.77"/>
</a>
</g>
</g>
<!-- Node24 -->
<g id="Node000024" class="node">
<title>Node24</title>
<g id="a_Node000024"><a xlink:href="UploadHandler_8cpp.html" target="_top" xlink:title=" ">
<polygon fill="white" stroke="#666666" points="688.44,-129 579.44,-129 579.44,-110 688.44,-110 688.44,-129"/>
<text text-anchor="middle" x="633.94" y="-117" font-family="Helvetica,sans-Serif" font-size="10.00">UploadHandler.cpp</text>
</a>
</g>
</g>
<!-- Node16&#45;&gt;Node24 -->
<g id="edge39_Node000016_Node000024" class="edge">
<title>Node16&#45;&gt;Node24</title>
<g id="a_edge39_Node000016_Node000024"><a xlink:title=" ">
<path fill="none" stroke="#63b8ff" d="M761.73,-161.8C731.12,-151.91 687.99,-137.97 660.49,-129.08"/>
<polygon fill="#63b8ff" stroke="#63b8ff" points="761,-165.24 771.59,-164.98 763.15,-158.58 761,-165.24"/>
</a>
</g>
</g>
<!-- Node18 -->
<g id="Node000018" class="node">
<title>Node18</title>
<g id="a_Node000018"><a xlink:href="Config_8cpp.html" target="_top" xlink:title=" ">
<polygon fill="white" stroke="#666666" points="1124.94,-74 1056.94,-74 1056.94,-55 1124.94,-55 1124.94,-74"/>
<text text-anchor="middle" x="1090.94" y="-62" font-family="Helvetica,sans-Serif" font-size="10.00">Config.cpp</text>
</a>
</g>
</g>
<!-- Node17&#45;&gt;Node18 -->
<g id="edge21_Node000017_Node000018" class="edge">
<title>Node17&#45;&gt;Node18</title>
<g id="a_edge21_Node000017_Node000018"><a xlink:title=" ">
<path fill="none" stroke="#63b8ff" d="M1090.94,-99.66C1090.94,-90.93 1090.94,-80.99 1090.94,-74.09"/>
<polygon fill="#63b8ff" stroke="#63b8ff" points="1087.44,-99.75 1090.94,-109.75 1094.44,-99.75 1087.44,-99.75"/>
</a>
</g>
</g>
<!-- Node17&#45;&gt;Node19 -->
<g id="edge22_Node000017_Node000019" class="edge">
<title>Node17&#45;&gt;Node19</title>
<g id="a_edge22_Node000017_Node000019"><a xlink:title=" ">
<path fill="none" stroke="#63b8ff" d="M1122.62,-106.42C1148.41,-96.59 1184.18,-82.95 1207.2,-74.17"/>
<polygon fill="#63b8ff" stroke="#63b8ff" points="1121.37,-103.15 1113.27,-109.98 1123.86,-109.69 1121.37,-103.15"/>
</a>
</g>
</g>
<!-- Node21 -->
<g id="Node000021" class="node">
<title>Node21</title>
<g id="a_Node000021"><a xlink:href="main_8cpp.html" target="_top" xlink:title=" ">
<polygon fill="white" stroke="#666666" points="1183.94,-19 1121.94,-19 1121.94,0 1183.94,0 1183.94,-19"/>
<text text-anchor="middle" x="1152.94" y="-7" font-family="Helvetica,sans-Serif" font-size="10.00">main.cpp</text>
</a>
</g>
</g>
<!-- Node17&#45;&gt;Node21 -->
<g id="edge28_Node000017_Node000021" class="edge">
<title>Node17&#45;&gt;Node21</title>
<g id="a_edge28_Node000017_Node000021"><a xlink:title=" ">
<path fill="none" stroke="#63b8ff" d="M1109.65,-102.92C1118.11,-95.02 1127.61,-84.82 1133.94,-74 1144.4,-56.12 1149.54,-31.99 1151.68,-19.24"/>
<polygon fill="#63b8ff" stroke="#63b8ff" points="1107.14,-100.47 1102,-109.74 1111.79,-105.7 1107.14,-100.47"/>
</a>
</g>
</g>
<!-- Node17&#45;&gt;Node22 -->
<g id="edge25_Node000017_Node000022" class="edge">
<title>Node17&#45;&gt;Node22</title>
<g id="a_edge25_Node000017_Node000022"><a xlink:title=" ">
<path fill="none" stroke="#63b8ff" d="M1066.17,-104.97C1048.44,-95.28 1025.09,-82.52 1009.81,-74.17"/>
<polygon fill="#63b8ff" stroke="#63b8ff" points="1064.9,-108.26 1075.35,-109.98 1068.26,-102.12 1064.9,-108.26"/>
</a>
</g>
</g>
<!-- Node19&#45;&gt;Node20 -->
<g id="edge23_Node000019_Node000020" class="edge">
<title>Node19&#45;&gt;Node20</title>
<g id="a_edge23_Node000019_Node000020"><a xlink:title=" ">
<path fill="none" stroke="#63b8ff" d="M1244.97,-47.24C1253.56,-37.95 1263.98,-26.68 1271,-19.09"/>
<polygon fill="#63b8ff" stroke="#63b8ff" points="1242.25,-45.03 1238.03,-54.75 1247.39,-49.78 1242.25,-45.03"/>
</a>
</g>
</g>
<!-- Node19&#45;&gt;Node21 -->
<g id="edge24_Node000019_Node000021" class="edge">
<title>Node19&#45;&gt;Node21</title>
<g id="a_edge24_Node000019_Node000021"><a xlink:title=" ">
<path fill="none" stroke="#63b8ff" d="M1209.09,-49.15C1195.18,-39.57 1177.33,-27.29 1165.54,-19.17"/>
<polygon fill="#63b8ff" stroke="#63b8ff" points="1207.35,-52.2 1217.57,-54.98 1211.31,-46.43 1207.35,-52.2"/>
</a>
</g>
</g>
<!-- Node22&#45;&gt;Node4 -->
<g id="edge26_Node000022_Node000004" class="edge">
<title>Node22&#45;&gt;Node4</title>
<g id="a_edge26_Node000022_Node000004"><a xlink:title=" ">
<path fill="none" stroke="#63b8ff" d="M938.99,-54.84C754.39,-32.65 546.24,-18.63 456.64,-13.12"/>
<polygon fill="#63b8ff" stroke="#63b8ff" points="938.8,-58.34 949.15,-56.07 939.65,-51.4 938.8,-58.34"/>
</a>
</g>
</g>
<!-- Node22&#45;&gt;Node21 -->
<g id="edge27_Node000022_Node000021" class="edge">
<title>Node22&#45;&gt;Node21</title>
<g id="a_edge27_Node000022_Node000021"><a xlink:title=" ">
<path fill="none" stroke="#63b8ff" d="M1029.04,-51.8C1058.72,-41.91 1100.54,-27.97 1127.19,-19.08"/>
<polygon fill="#63b8ff" stroke="#63b8ff" points="1027.86,-48.5 1019.48,-54.98 1030.08,-55.14 1027.86,-48.5"/>
</a>
</g>
</g>
<!-- Node23&#45;&gt;Node6 -->
<g id="edge35_Node000023_Node000006" class="edge">
<title>Node23&#45;&gt;Node6</title>
<g id="a_edge35_Node000023_Node000006"><a xlink:title=" ">
<path fill="none" stroke="#63b8ff" d="M787.71,-105.9C810.06,-96.11 840.46,-82.79 860.14,-74.17"/>
<polygon fill="#63b8ff" stroke="#63b8ff" points="786.13,-102.77 778.38,-109.98 788.94,-109.18 786.13,-102.77"/>
</a>
</g>
</g>
<!-- Node23&#45;&gt;Node10 -->
<g id="edge34_Node000023_Node000010" class="edge">
<title>Node23&#45;&gt;Node10</title>
<g id="a_edge34_Node000023_Node000010"><a xlink:title=" ">
<path fill="none" stroke="#63b8ff" d="M755.74,-99.66C754.26,-90.93 752.57,-80.99 751.4,-74.09"/>
<polygon fill="#63b8ff" stroke="#63b8ff" points="752.33,-100.48 757.45,-109.75 759.23,-99.3 752.33,-100.48"/>
</a>
</g>
</g>
</g>
</svg>
