<?xml version="1.0" encoding="UTF-8" standalone="no"?>
<!DOCTYPE svg PUBLIC "-//W3C//DTD SVG 1.1//EN"
 "http://www.w3.org/Graphics/SVG/1.1/DTD/svg11.dtd">
<!-- Generated by graphviz version 2.43.0 (0)
 -->
<!-- Title: Logger.hpp Pages: 1 -->
<svg width="2034pt" height="137pt"
 viewBox="0.00 0.00 2034.00 137.00" xmlns="http://www.w3.org/2000/svg" xmlns:xlink="http://www.w3.org/1999/xlink">
<g id="graph0" class="graph" transform="scale(1 1) rotate(0) translate(4 133)">
<title>Logger.hpp</title>
<!-- Node1 -->
<g id="Node000001" class="node">
<title>Node1</title>
<g id="a_Node000001"><a xlink:title=" ">
<polygon fill="#999999" stroke="#666666" points="1003,-129 933,-129 933,-110 1003,-110 1003,-129"/>
<text text-anchor="middle" x="968" y="-117" font-family="Helvetica,sans-Serif" font-size="10.00">Logger.hpp</text>
</a>
</g>
</g>
<!-- Node2 -->
<g id="Node000002" class="node">
<title>Node2</title>
<g id="a_Node000002"><a xlink:href="AutoIndexHandler_8cpp.html" target="_top" xlink:title=" ">
<polygon fill="white" stroke="#666666" points="124,-74 0,-74 0,-55 124,-55 124,-74"/>
<text text-anchor="middle" x="62" y="-62" font-family="Helvetica,sans-Serif" font-size="10.00">AutoIndexHandler.cpp</text>
</a>
</g>
</g>
<!-- Node1&#45;&gt;Node2 -->
<g id="edge1_Node000001_Node000002" class="edge">
<title>Node1&#45;&gt;Node2</title>
<g id="a_edge1_Node000001_Node000002"><a xlink:title=" ">
<path fill="none" stroke="#63b8ff" d="M922.94,-117.14C797.56,-113.14 434.05,-100.01 133,-74 130.16,-73.75 127.25,-73.48 124.31,-73.2"/>
<polygon fill="#63b8ff" stroke="#63b8ff" points="922.84,-120.64 932.94,-117.46 923.06,-113.65 922.84,-120.64"/>
</a>
</g>
</g>
<!-- Node3 -->
<g id="Node000003" class="node">
<title>Node3</title>
<g id="a_Node000003"><a xlink:href="CgiHandler_8cpp.html" target="_top" xlink:title=" ">
<polygon fill="white" stroke="#666666" points="232,-74 142,-74 142,-55 232,-55 232,-74"/>
<text text-anchor="middle" x="187" y="-62" font-family="Helvetica,sans-Serif" font-size="10.00">CgiHandler.cpp</text>
</a>
</g>
</g>
<!-- Node1&#45;&gt;Node3 -->
<g id="edge2_Node000001_Node000003" class="edge">
<title>Node1&#45;&gt;Node3</title>
<g id="a_edge2_Node000001_Node000003"><a xlink:title=" ">
<path fill="none" stroke="#63b8ff" d="M922.56,-117.22C807.95,-113.66 497.91,-102.02 241,-74 238.08,-73.68 235.07,-73.31 232.04,-72.92"/>
<polygon fill="#63b8ff" stroke="#63b8ff" points="922.62,-120.72 932.72,-117.53 922.83,-113.73 922.62,-120.72"/>
</a>
</g>
</g>
<!-- Node4 -->
<g id="Node000004" class="node">
<title>Node4</title>
<g id="a_Node000004"><a xlink:href="ClientConnection_8cpp.html" target="_top" xlink:title=" ">
<polygon fill="white" stroke="#666666" points="370,-74 250,-74 250,-55 370,-55 370,-74"/>
<text text-anchor="middle" x="310" y="-62" font-family="Helvetica,sans-Serif" font-size="10.00">ClientConnection.cpp</text>
</a>
</g>
</g>
<!-- Node1&#45;&gt;Node4 -->
<g id="edge3_Node000001_Node000004" class="edge">
<title>Node1&#45;&gt;Node4</title>
<g id="a_edge3_Node000001_Node000004"><a xlink:title=" ">
<path fill="none" stroke="#63b8ff" d="M922.57,-115.63C824.25,-109.3 584.45,-93.14 384,-74 379.49,-73.57 374.84,-73.1 370.16,-72.6"/>
<polygon fill="#63b8ff" stroke="#63b8ff" points="922.54,-119.14 932.74,-116.29 922.99,-112.15 922.54,-119.14"/>
</a>
</g>
</g>
<!-- Node5 -->
<g id="Node000005" class="node">
<title>Node5</title>
<g id="a_Node000005"><a xlink:href="DeleteHandler_8cpp.html" target="_top" xlink:title=" ">
<polygon fill="white" stroke="#666666" points="475.5,-19 368.5,-19 368.5,0 475.5,0 475.5,-19"/>
<text text-anchor="middle" x="422" y="-7" font-family="Helvetica,sans-Serif" font-size="10.00">DeleteHandler.cpp</text>
</a>
</g>
</g>
<!-- Node1&#45;&gt;Node5 -->
<g id="edge4_Node000001_Node000005" class="edge">
<title>Node1&#45;&gt;Node5</title>
<g id="a_edge4_Node000001_Node000005"><a xlink:title=" ">
<path fill="none" stroke="#63b8ff" d="M922.76,-118.28C797.14,-117.2 451.02,-110.88 417,-74 403.2,-59.04 411.82,-32.78 417.76,-19.19"/>
<polygon fill="#63b8ff" stroke="#63b8ff" points="922.79,-121.78 932.82,-118.36 922.85,-114.78 922.79,-121.78"/>
</a>
</g>
</g>
<!-- Node6 -->
<g id="Node000006" class="node">
<title>Node6</title>
<g id="a_Node000006"><a xlink:href="DeleteHandler_8hpp.html" target="_top" xlink:title=" ">
<polygon fill="white" stroke="#666666" points="533.5,-74 426.5,-74 426.5,-55 533.5,-55 533.5,-74"/>
<text text-anchor="middle" x="480" y="-62" font-family="Helvetica,sans-Serif" font-size="10.00">DeleteHandler.hpp</text>
</a>
</g>
</g>
<!-- Node1&#45;&gt;Node6 -->
<g id="edge5_Node000001_Node000006" class="edge">
<title>Node1&#45;&gt;Node6</title>
<g id="a_edge5_Node000001_Node000006"><a xlink:title=" ">
<path fill="none" stroke="#63b8ff" d="M922.54,-113.97C845.46,-106.22 684.18,-89.72 548,-74 543.39,-73.47 538.61,-72.9 533.81,-72.32"/>
<polygon fill="#63b8ff" stroke="#63b8ff" points="922.55,-117.48 932.85,-115 923.25,-110.52 922.55,-117.48"/>
</a>
</g>
</g>
<!-- Node7 -->
<g id="Node000007" class="node">
<title>Node7</title>
<g id="a_Node000007"><a xlink:href="Dispatcher_8cpp.html" target="_top" xlink:title=" ">
<polygon fill="white" stroke="#666666" points="594.5,-19 505.5,-19 505.5,0 594.5,0 594.5,-19"/>
<text text-anchor="middle" x="550" y="-7" font-family="Helvetica,sans-Serif" font-size="10.00">Dispatcher.cpp</text>
</a>
</g>
</g>
<!-- Node1&#45;&gt;Node7 -->
<g id="edge8_Node000001_Node000007" class="edge">
<title>Node1&#45;&gt;Node7</title>
<g id="a_edge8_Node000001_Node000007"><a xlink:title=" ">
<path fill="none" stroke="#63b8ff" d="M922.76,-118.62C832.71,-118.01 635.04,-112.22 581,-74 562.37,-60.82 554.45,-33.27 551.51,-19.19"/>
<polygon fill="#63b8ff" stroke="#63b8ff" points="922.92,-122.12 932.94,-118.67 922.95,-115.12 922.92,-122.12"/>
</a>
</g>
</g>
<!-- Node8 -->
<g id="Node000008" class="node">
<title>Node8</title>
<g id="a_Node000008"><a xlink:href="HttpRequest_8cpp.html" target="_top" xlink:title=" ">
<polygon fill="white" stroke="#666666" points="688,-74 590,-74 590,-55 688,-55 688,-74"/>
<text text-anchor="middle" x="639" y="-62" font-family="Helvetica,sans-Serif" font-size="10.00">HttpRequest.cpp</text>
</a>
</g>
</g>
<!-- Node1&#45;&gt;Node8 -->
<g id="edge9_Node000001_Node000008" class="edge">
<title>Node1&#45;&gt;Node8</title>
<g id="a_edge9_Node000001_Node000008"><a xlink:title=" ">
<path fill="none" stroke="#63b8ff" d="M922.6,-111.19C861.03,-101.27 751.46,-83.62 688.05,-73.4"/>
<polygon fill="#63b8ff" stroke="#63b8ff" points="922.36,-114.69 932.79,-112.83 923.48,-107.78 922.36,-114.69"/>
</a>
</g>
</g>
<!-- Node9 -->
<g id="Node000009" class="node">
<title>Node9</title>
<g id="a_Node000009"><a xlink:href="HttpResponse_8cpp.html" target="_top" xlink:title=" ">
<polygon fill="white" stroke="#666666" points="811.5,-74 706.5,-74 706.5,-55 811.5,-55 811.5,-74"/>
<text text-anchor="middle" x="759" y="-62" font-family="Helvetica,sans-Serif" font-size="10.00">HttpResponse.cpp</text>
</a>
</g>
</g>
<!-- Node1&#45;&gt;Node9 -->
<g id="edge10_Node000001_Node000009" class="edge">
<title>Node1&#45;&gt;Node9</title>
<g id="a_edge10_Node000001_Node000009"><a xlink:title=" ">
<path fill="none" stroke="#63b8ff" d="M924.63,-107.5C885.49,-97.58 828.72,-83.18 792.84,-74.08"/>
<polygon fill="#63b8ff" stroke="#63b8ff" points="923.87,-110.92 934.42,-109.98 925.59,-104.13 923.87,-110.92"/>
</a>
</g>
</g>
<!-- Node10 -->
<g id="Node000010" class="node">
<title>Node10</title>
<g id="a_Node000010"><a xlink:href="Logger_8cpp.html" target="_top" xlink:title=" ">
<polygon fill="white" stroke="#666666" points="898.5,-74 829.5,-74 829.5,-55 898.5,-55 898.5,-74"/>
<text text-anchor="middle" x="864" y="-62" font-family="Helvetica,sans-Serif" font-size="10.00">Logger.cpp</text>
</a>
</g>
</g>
<!-- Node1&#45;&gt;Node10 -->
<g id="edge11_Node000001_Node000010" class="edge">
<title>Node1&#45;&gt;Node10</title>
<g id="a_edge11_Node000001_Node000010"><a xlink:title=" ">
<path fill="none" stroke="#63b8ff" d="M942.23,-105.37C923.13,-95.63 897.63,-82.64 881.01,-74.17"/>
<polygon fill="#63b8ff" stroke="#63b8ff" points="940.79,-108.56 951.29,-109.98 943.97,-102.33 940.79,-108.56"/>
</a>
</g>
</g>
<!-- Node11 -->
<g id="Node000011" class="node">
<title>Node11</title>
<g id="a_Node000011"><a xlink:href="RequestParse_8cpp.html" target="_top" xlink:title=" ">
<polygon fill="white" stroke="#666666" points="1019.5,-74 916.5,-74 916.5,-55 1019.5,-55 1019.5,-74"/>
<text text-anchor="middle" x="968" y="-62" font-family="Helvetica,sans-Serif" font-size="10.00">RequestParse.cpp</text>
</a>
</g>
</g>
<!-- Node1&#45;&gt;Node11 -->
<g id="edge12_Node000001_Node000011" class="edge">
<title>Node1&#45;&gt;Node11</title>
<g id="a_edge12_Node000001_Node000011"><a xlink:title=" ">
<path fill="none" stroke="#63b8ff" d="M968,-99.66C968,-90.93 968,-80.99 968,-74.09"/>
<polygon fill="#63b8ff" stroke="#63b8ff" points="964.5,-99.75 968,-109.75 971.5,-99.75 964.5,-99.75"/>
</a>
</g>
</g>
<!-- Node12 -->
<g id="Node000012" class="node">
<title>Node12</title>
<g id="a_Node000012"><a xlink:href="ResponseBuilder_8cpp.html" target="_top" xlink:title=" ">
<polygon fill="white" stroke="#666666" points="1156,-74 1038,-74 1038,-55 1156,-55 1156,-74"/>
<text text-anchor="middle" x="1097" y="-62" font-family="Helvetica,sans-Serif" font-size="10.00">ResponseBuilder.cpp</text>
</a>
</g>
</g>
<!-- Node1&#45;&gt;Node12 -->
<g id="edge13_Node000001_Node000012" class="edge">
<title>Node1&#45;&gt;Node12</title>
<g id="a_edge13_Node000001_Node000012"><a xlink:title=" ">
<path fill="none" stroke="#63b8ff" d="M998.04,-106.16C1021.92,-96.35 1054.72,-82.87 1075.9,-74.17"/>
<polygon fill="#63b8ff" stroke="#63b8ff" points="996.65,-102.95 988.73,-109.98 999.31,-109.42 996.65,-102.95"/>
</a>
</g>
</g>
<!-- Node13 -->
<g id="Node000013" class="node">
<title>Node13</title>
<g id="a_Node000013"><a xlink:href="Router_8cpp.html" target="_top" xlink:title=" ">
<polygon fill="white" stroke="#666666" points="1242,-74 1174,-74 1174,-55 1242,-55 1242,-74"/>
<text text-anchor="middle" x="1208" y="-62" font-family="Helvetica,sans-Serif" font-size="10.00">Router.cpp</text>
</a>
</g>
</g>
<!-- Node1&#45;&gt;Node13 -->
<g id="edge14_Node000001_Node000013" class="edge">
<title>Node1&#45;&gt;Node13</title>
<g id="a_edge14_Node000001_Node000013"><a xlink:title=" ">
<path fill="none" stroke="#63b8ff" d="M1013.01,-108.56C1059.71,-98.25 1131.72,-82.35 1173.92,-73.03"/>
<polygon fill="#63b8ff" stroke="#63b8ff" points="1012.17,-105.16 1003.16,-110.74 1013.67,-112 1012.17,-105.16"/>
</a>
</g>
</g>
<!-- Node14 -->
<g id="Node000014" class="node">
<title>Node14</title>
<g id="a_Node000014"><a xlink:href="ServerConfig_8cpp.html" target="_top" xlink:title=" ">
<polygon fill="white" stroke="#666666" points="1359.5,-74 1260.5,-74 1260.5,-55 1359.5,-55 1359.5,-74"/>
<text text-anchor="middle" x="1310" y="-62" font-family="Helvetica,sans-Serif" font-size="10.00">ServerConfig.cpp</text>
</a>
</g>
</g>
<!-- Node1&#45;&gt;Node14 -->
<g id="edge15_Node000001_Node000014" class="edge">
<title>Node1&#45;&gt;Node14</title>
<g id="a_edge15_Node000001_Node000014"><a xlink:title=" ">
<path fill="none" stroke="#63b8ff" d="M1013.51,-111.45C1077.61,-101.51 1194.05,-83.47 1260.33,-73.2"/>
<polygon fill="#63b8ff" stroke="#63b8ff" points="1012.66,-108.04 1003.31,-113.03 1013.73,-114.95 1012.66,-108.04"/>
</a>
</g>
</g>
<!-- Node15 -->
<g id="Node000015" class="node">
<title>Node15</title>
<g id="a_Node000015"><a xlink:href="ServerSocket_8cpp.html" target="_top" xlink:title=" ">
<polygon fill="white" stroke="#666666" points="1478.5,-74 1377.5,-74 1377.5,-55 1478.5,-55 1478.5,-74"/>
<text text-anchor="middle" x="1428" y="-62" font-family="Helvetica,sans-Serif" font-size="10.00">ServerSocket.cpp</text>
</a>
</g>
</g>
<!-- Node1&#45;&gt;Node15 -->
<g id="edge16_Node000001_Node000015" class="edge">
<title>Node1&#45;&gt;Node15</title>
<g id="a_edge16_Node000001_Node000015"><a xlink:title=" ">
<path fill="none" stroke="#63b8ff" d="M1013.13,-113.98C1087.42,-106.42 1240.09,-90.43 1369,-74 1371.77,-73.65 1374.62,-73.27 1377.48,-72.89"/>
<polygon fill="#63b8ff" stroke="#63b8ff" points="1012.78,-110.49 1003.18,-114.99 1013.48,-117.46 1012.78,-110.49"/>
</a>
</g>
</g>
<!-- Node16 -->
<g id="Node000016" class="node">
<title>Node16</title>
<g id="a_Node000016"><a xlink:href="Signals_8cpp.html" target="_top" xlink:title=" ">
<polygon fill="white" stroke="#666666" points="1569,-74 1497,-74 1497,-55 1569,-55 1569,-74"/>
<text text-anchor="middle" x="1533" y="-62" font-family="Helvetica,sans-Serif" font-size="10.00">Signals.cpp</text>
</a>
</g>
</g>
<!-- Node1&#45;&gt;Node16 -->
<g id="edge17_Node000001_Node000016" class="edge">
<title>Node1&#45;&gt;Node16</title>
<g id="a_edge17_Node000001_Node000016"><a xlink:title=" ">
<path fill="none" stroke="#63b8ff" d="M1013.32,-116.17C1103.84,-111.18 1313.35,-97.9 1488,-74 1490.84,-73.61 1493.76,-73.16 1496.7,-72.68"/>
<polygon fill="#63b8ff" stroke="#63b8ff" points="1012.93,-112.69 1003.13,-116.73 1013.31,-119.68 1012.93,-112.69"/>
</a>
</g>
</g>
<!-- Node17 -->
<g id="Node000017" class="node">
<title>Node17</title>
<g id="a_Node000017"><a xlink:href="StaticPageHandler_8cpp.html" target="_top" xlink:title=" ">
<polygon fill="white" stroke="#666666" points="1712.5,-74 1587.5,-74 1587.5,-55 1712.5,-55 1712.5,-74"/>
<text text-anchor="middle" x="1650" y="-62" font-family="Helvetica,sans-Serif" font-size="10.00">StaticPageHandler.cpp</text>
</a>
</g>
</g>
<!-- Node1&#45;&gt;Node17 -->
<g id="edge18_Node000001_Node000017" class="edge">
<title>Node1&#45;&gt;Node17</title>
<g id="a_edge18_Node000001_Node000017"><a xlink:title=" ">
<path fill="none" stroke="#63b8ff" d="M1013.3,-115.89C1114.61,-109.9 1367.18,-94.12 1578,-74 1581.01,-73.71 1584.08,-73.41 1587.19,-73.08"/>
<polygon fill="#63b8ff" stroke="#63b8ff" points="1012.89,-112.41 1003.12,-116.49 1013.31,-119.4 1012.89,-112.41"/>
</a>
</g>
</g>
<!-- Node18 -->
<g id="Node000018" class="node">
<title>Node18</title>
<g id="a_Node000018"><a xlink:href="UploadHandler_8cpp.html" target="_top" xlink:title=" ">
<polygon fill="white" stroke="#666666" points="1839.5,-74 1730.5,-74 1730.5,-55 1839.5,-55 1839.5,-74"/>
<text text-anchor="middle" x="1785" y="-62" font-family="Helvetica,sans-Serif" font-size="10.00">UploadHandler.cpp</text>
</a>
</g>
</g>
<!-- Node1&#45;&gt;Node18 -->
<g id="edge19_Node000001_Node000018" class="edge">
<title>Node1&#45;&gt;Node18</title>
<g id="a_edge19_Node000001_Node000018"><a xlink:title=" ">
<path fill="none" stroke="#63b8ff" d="M1013.06,-117.02C1130.17,-112.93 1453.72,-99.98 1722,-74 1724.75,-73.73 1727.56,-73.44 1730.39,-73.12"/>
<polygon fill="#63b8ff" stroke="#63b8ff" points="1012.9,-113.53 1003.02,-117.37 1013.14,-120.52 1012.9,-113.53"/>
</a>
</g>
</g>
<!-- Node19 -->
<g id="Node000019" class="node">
<title>Node19</title>
<g id="a_Node000019"><a xlink:href="WebServer_8cpp.html" target="_top" xlink:title=" ">
<polygon fill="white" stroke="#666666" points="1946.5,-74 1857.5,-74 1857.5,-55 1946.5,-55 1946.5,-74"/>
<text text-anchor="middle" x="1902" y="-62" font-family="Helvetica,sans-Serif" font-size="10.00">WebServer.cpp</text>
</a>
</g>
</g>
<!-- Node1&#45;&gt;Node19 -->
<g id="edge20_Node000001_Node000019" class="edge">
<title>Node1&#45;&gt;Node19</title>
<g id="a_edge20_Node000001_Node000019"><a xlink:title=" ">
<path fill="none" stroke="#63b8ff" d="M1013.37,-117.94C1143.69,-115.97 1530.17,-107.52 1849,-74 1851.69,-73.72 1854.45,-73.39 1857.23,-73.03"/>
<polygon fill="#63b8ff" stroke="#63b8ff" points="1013.3,-114.44 1003.36,-118.09 1013.41,-121.44 1013.3,-114.44"/>
</a>
</g>
</g>
<!-- Node20 -->
<g id="Node000020" class="node">
<title>Node20</title>
<g id="a_Node000020"><a xlink:href="main_8cpp.html" target="_top" xlink:title=" ">
<polygon fill="white" stroke="#666666" points="2026,-74 1964,-74 1964,-55 2026,-55 2026,-74"/>
<text text-anchor="middle" x="1995" y="-62" font-family="Helvetica,sans-Serif" font-size="10.00">main.cpp</text>
</a>
</g>
</g>
<!-- Node1&#45;&gt;Node20 -->
<g id="edge21_Node000001_Node000020" class="edge">
<title>Node1&#45;&gt;Node20</title>
<g id="a_edge21_Node000001_Node000020"><a xlink:title=" ">
<path fill="none" stroke="#63b8ff" d="M1013.27,-117.48C1181.42,-113.54 1769.94,-98.29 1956,-74 1958.47,-73.68 1961.02,-73.28 1963.58,-72.83"/>
<polygon fill="#63b8ff" stroke="#63b8ff" points="1012.96,-113.99 1003.04,-117.72 1013.12,-120.99 1012.96,-113.99"/>
</a>
</g>
</g>
<!-- Node6&#45;&gt;Node5 -->
<g id="edge6_Node000006_Node000005" class="edge">
<title>Node6&#45;&gt;Node5</title>
<g id="a_edge6_Node000006_Node000005"><a xlink:title=" ">
<path fill="none" stroke="#63b8ff" d="M463.09,-48.04C452.8,-38.64 440.03,-26.98 431.49,-19.17"/>
<polygon fill="#63b8ff" stroke="#63b8ff" points="460.94,-50.82 470.68,-54.98 465.66,-45.66 460.94,-50.82"/>
</a>
</g>
</g>
<!-- Node6&#45;&gt;Node7 -->
<g id="edge7_Node000006_Node000007" class="edge">
<title>Node6&#45;&gt;Node7</title>
<g id="a_edge7_Node000006_Node000007"><a xlink:title=" ">
<path fill="none" stroke="#63b8ff" d="M499.31,-48.88C511.91,-39.34 527.93,-27.21 538.55,-19.17"/>
<polygon fill="#63b8ff" stroke="#63b8ff" points="497.11,-46.16 491.25,-54.98 501.33,-51.74 497.11,-46.16"/>
</a>
</g>
</g>
</g>
</svg>
