<?xml version="1.0" encoding="UTF-8" standalone="no"?>
<!DOCTYPE svg PUBLIC "-//W3C//DTD SVG 1.1//EN"
 "http://www.w3.org/Graphics/SVG/1.1/DTD/svg11.dtd">
<!-- Generated by graphviz version 2.43.0 (0)
 -->
<!-- Title: includes/utils/Logger.hpp Pages: 1 -->
<svg width="2965pt" height="148pt"
 viewBox="0.00 0.00 2965.00 148.00" xmlns="http://www.w3.org/2000/svg" xmlns:xlink="http://www.w3.org/1999/xlink">
<g id="graph0" class="graph" transform="scale(1 1) rotate(0) translate(4 144)">
<title>includes/utils/Logger.hpp</title>
<!-- Node1 -->
<g id="Node000001" class="node">
<title>Node1</title>
<g id="a_Node000001"><a xlink:title=" ">
<polygon fill="#999999" stroke="#666666" points="1502,-140 1365,-140 1365,-121 1502,-121 1502,-140"/>
<text text-anchor="middle" x="1433.5" y="-128" font-family="Helvetica,sans-Serif" font-size="10.00">includes/utils/Logger.hpp</text>
</a>
</g>
</g>
<!-- Node2 -->
<g id="Node000002" class="node">
<title>Node2</title>
<g id="a_Node000002"><a xlink:href="DeleteHandler_8hpp.html" target="_top" xlink:title=" ">
<polygon fill="white" stroke="#666666" points="249,-85 138,-85 138,-55 249,-55 249,-85"/>
<text text-anchor="start" x="146" y="-73" font-family="Helvetica,sans-Serif" font-size="10.00">includes/dispatcher</text>
<text text-anchor="middle" x="193.5" y="-62" font-family="Helvetica,sans-Serif" font-size="10.00">/DeleteHandler.hpp</text>
</a>
</g>
</g>
<!-- Node1&#45;&gt;Node2 -->
<g id="edge1_Node000001_Node000002" class="edge">
<title>Node1&#45;&gt;Node2</title>
<g id="a_edge1_Node000001_Node000002"><a xlink:title=" ">
<path fill="none" stroke="#63b8ff" d="M1354.75,-128.14C1127.88,-123.97 475.61,-110.08 263.5,-85 258.82,-84.45 253.99,-83.75 249.16,-82.96"/>
<polygon fill="#63b8ff" stroke="#63b8ff" points="1354.84,-131.64 1364.9,-128.33 1354.97,-124.65 1354.84,-131.64"/>
</a>
</g>
</g>
<!-- Node3 -->
<g id="Node000003" class="node">
<title>Node3</title>
<g id="a_Node000003"><a xlink:href="DeleteHandler_8cpp.html" target="_top" xlink:title=" ">
<polygon fill="white" stroke="#666666" points="183,-19 0,-19 0,0 183,0 183,-19"/>
<text text-anchor="middle" x="91.5" y="-7" font-family="Helvetica,sans-Serif" font-size="10.00">srcs/dispatcher/DeleteHandler.cpp</text>
</a>
</g>
</g>
<!-- Node1&#45;&gt;Node3 -->
<g id="edge7_Node000001_Node000003" class="edge">
<title>Node1&#45;&gt;Node3</title>
<g id="a_edge7_Node000001_Node000003"><a xlink:title=" ">
<path fill="none" stroke="#63b8ff" d="M1354.45,-129C1079.87,-127 181.27,-117.94 129.5,-85 105.98,-70.04 96.36,-35.61 93.03,-19.33"/>
<polygon fill="#63b8ff" stroke="#63b8ff" points="1354.71,-132.51 1364.73,-129.08 1354.76,-125.51 1354.71,-132.51"/>
</a>
</g>
</g>
<!-- Node4 -->
<g id="Node000004" class="node">
<title>Node4</title>
<g id="a_Node000004"><a xlink:href="Dispatcher_8cpp.html" target="_top" xlink:title=" ">
<polygon fill="white" stroke="#666666" points="366,-19 201,-19 201,0 366,0 366,-19"/>
<text text-anchor="middle" x="283.5" y="-7" font-family="Helvetica,sans-Serif" font-size="10.00">srcs/dispatcher/Dispatcher.cpp</text>
</a>
</g>
</g>
<!-- Node1&#45;&gt;Node4 -->
<g id="edge8_Node000001_Node000004" class="edge">
<title>Node1&#45;&gt;Node4</title>
<g id="a_edge8_Node000001_Node000004"><a xlink:title=" ">
<path fill="none" stroke="#63b8ff" d="M1354.62,-129.11C1103.43,-127.5 336.26,-119.77 296.5,-85 277.52,-68.4 279.7,-34.8 281.97,-19.03"/>
<polygon fill="#63b8ff" stroke="#63b8ff" points="1354.75,-132.61 1364.77,-129.17 1354.79,-125.61 1354.75,-132.61"/>
</a>
</g>
</g>
<!-- Node5 -->
<g id="Node000005" class="node">
<title>Node5</title>
<g id="a_Node000005"><a xlink:href="ServerConfig_8cpp.html" target="_top" xlink:title=" ">
<polygon fill="white" stroke="#666666" points="459.5,-79.5 305.5,-79.5 305.5,-60.5 459.5,-60.5 459.5,-79.5"/>
<text text-anchor="middle" x="382.5" y="-67.5" font-family="Helvetica,sans-Serif" font-size="10.00">srcs/config/ServerConfig.cpp</text>
</a>
</g>
</g>
<!-- Node1&#45;&gt;Node5 -->
<g id="edge4_Node000001_Node000005" class="edge">
<title>Node1&#45;&gt;Node5</title>
<g id="a_edge4_Node000001_Node000005"><a xlink:title=" ">
<path fill="none" stroke="#63b8ff" d="M1354.89,-128.89C1190.22,-126.94 797.2,-118.82 469.5,-85 456.41,-83.65 442.3,-81.63 429.33,-79.53"/>
<polygon fill="#63b8ff" stroke="#63b8ff" points="1354.89,-132.39 1364.93,-129 1354.97,-125.39 1354.89,-132.39"/>
</a>
</g>
</g>
<!-- Node6 -->
<g id="Node000006" class="node">
<title>Node6</title>
<g id="a_Node000006"><a xlink:href="AutoIndexHandler_8cpp.html" target="_top" xlink:title=" ">
<polygon fill="white" stroke="#666666" points="621,-85 478,-85 478,-55 621,-55 621,-85"/>
<text text-anchor="start" x="486" y="-73" font-family="Helvetica,sans-Serif" font-size="10.00">srcs/dispatcher/AutoIndex</text>
<text text-anchor="middle" x="549.5" y="-62" font-family="Helvetica,sans-Serif" font-size="10.00">Handler.cpp</text>
</a>
</g>
</g>
<!-- Node1&#45;&gt;Node6 -->
<g id="edge5_Node000001_Node000006" class="edge">
<title>Node1&#45;&gt;Node6</title>
<g id="a_edge5_Node000001_Node000006"><a xlink:title=" ">
<path fill="none" stroke="#63b8ff" d="M1354.72,-128.16C1210.57,-125.03 894.85,-115.07 630.5,-85 627.52,-84.66 624.49,-84.28 621.43,-83.88"/>
<polygon fill="#63b8ff" stroke="#63b8ff" points="1354.72,-131.66 1364.8,-128.37 1354.87,-124.66 1354.72,-131.66"/>
</a>
</g>
</g>
<!-- Node7 -->
<g id="Node000007" class="node">
<title>Node7</title>
<g id="a_Node000007"><a xlink:href="CgiHandler_8cpp.html" target="_top" xlink:title=" ">
<polygon fill="white" stroke="#666666" points="806,-79.5 639,-79.5 639,-60.5 806,-60.5 806,-79.5"/>
<text text-anchor="middle" x="722.5" y="-67.5" font-family="Helvetica,sans-Serif" font-size="10.00">srcs/dispatcher/CgiHandler.cpp</text>
</a>
</g>
</g>
<!-- Node1&#45;&gt;Node7 -->
<g id="edge6_Node000001_Node000007" class="edge">
<title>Node1&#45;&gt;Node7</title>
<g id="a_edge6_Node000001_Node000007"><a xlink:title=" ">
<path fill="none" stroke="#63b8ff" d="M1354.76,-125.79C1237.14,-119.8 1008.72,-106.47 815.5,-85 802.19,-83.52 787.87,-81.55 774.54,-79.56"/>
<polygon fill="#63b8ff" stroke="#63b8ff" points="1354.59,-129.28 1364.75,-126.29 1354.94,-122.29 1354.59,-129.28"/>
</a>
</g>
</g>
<!-- Node8 -->
<g id="Node000008" class="node">
<title>Node8</title>
<g id="a_Node000008"><a xlink:href="Router_8cpp.html" target="_top" xlink:title=" ">
<polygon fill="white" stroke="#666666" points="969,-79.5 824,-79.5 824,-60.5 969,-60.5 969,-79.5"/>
<text text-anchor="middle" x="896.5" y="-67.5" font-family="Helvetica,sans-Serif" font-size="10.00">srcs/dispatcher/Router.cpp</text>
</a>
</g>
</g>
<!-- Node1&#45;&gt;Node8 -->
<g id="edge9_Node000001_Node000008" class="edge">
<title>Node1&#45;&gt;Node8</title>
<g id="a_edge9_Node000001_Node000008"><a xlink:title=" ">
<path fill="none" stroke="#63b8ff" d="M1354.49,-123.5C1263.58,-116.2 1109.92,-102.62 978.5,-85 966.91,-83.45 954.44,-81.47 942.81,-79.5"/>
<polygon fill="#63b8ff" stroke="#63b8ff" points="1354.47,-127.01 1364.72,-124.32 1355.03,-120.03 1354.47,-127.01"/>
</a>
</g>
</g>
<!-- Node9 -->
<g id="Node000009" class="node">
<title>Node9</title>
<g id="a_Node000009"><a xlink:href="StaticPageHandler_8cpp.html" target="_top" xlink:title=" ">
<polygon fill="white" stroke="#666666" points="1131.5,-85 987.5,-85 987.5,-55 1131.5,-55 1131.5,-85"/>
<text text-anchor="start" x="995.5" y="-73" font-family="Helvetica,sans-Serif" font-size="10.00">srcs/dispatcher/StaticPage</text>
<text text-anchor="middle" x="1059.5" y="-62" font-family="Helvetica,sans-Serif" font-size="10.00">Handler.cpp</text>
</a>
</g>
</g>
<!-- Node1&#45;&gt;Node9 -->
<g id="edge10_Node000001_Node000009" class="edge">
<title>Node1&#45;&gt;Node9</title>
<g id="a_edge10_Node000001_Node000009"><a xlink:title=" ">
<path fill="none" stroke="#63b8ff" d="M1365.58,-119.5C1306.36,-110.7 1218.19,-97.39 1141.5,-85 1138.36,-84.49 1135.16,-83.97 1131.93,-83.44"/>
<polygon fill="#63b8ff" stroke="#63b8ff" points="1365.15,-122.97 1375.56,-120.98 1366.18,-116.05 1365.15,-122.97"/>
</a>
</g>
</g>
<!-- Node10 -->
<g id="Node000010" class="node">
<title>Node10</title>
<g id="a_Node000010"><a xlink:href="UploadHandler_8cpp.html" target="_top" xlink:title=" ">
<polygon fill="white" stroke="#666666" points="1335,-79.5 1150,-79.5 1150,-60.5 1335,-60.5 1335,-79.5"/>
<text text-anchor="middle" x="1242.5" y="-67.5" font-family="Helvetica,sans-Serif" font-size="10.00">srcs/dispatcher/UploadHandler.cpp</text>
</a>
</g>
</g>
<!-- Node1&#45;&gt;Node10 -->
<g id="edge11_Node000001_Node000010" class="edge">
<title>Node1&#45;&gt;Node10</title>
<g id="a_edge11_Node000001_Node000010"><a xlink:title=" ">
<path fill="none" stroke="#63b8ff" d="M1395.83,-117.96C1358.89,-106.65 1303.42,-89.66 1270.31,-79.52"/>
<polygon fill="#63b8ff" stroke="#63b8ff" points="1395.14,-121.41 1405.73,-120.99 1397.19,-114.72 1395.14,-121.41"/>
</a>
</g>
</g>
<!-- Node11 -->
<g id="Node000011" class="node">
<title>Node11</title>
<g id="a_Node000011"><a xlink:href="ClientConnection_8cpp.html" target="_top" xlink:title=" ">
<polygon fill="white" stroke="#666666" points="1514,-79.5 1353,-79.5 1353,-60.5 1514,-60.5 1514,-79.5"/>
<text text-anchor="middle" x="1433.5" y="-67.5" font-family="Helvetica,sans-Serif" font-size="10.00">srcs/init/ClientConnection.cpp</text>
</a>
</g>
</g>
<!-- Node1&#45;&gt;Node11 -->
<g id="edge12_Node000001_Node000011" class="edge">
<title>Node1&#45;&gt;Node11</title>
<g id="a_edge12_Node000001_Node000011"><a xlink:title=" ">
<path fill="none" stroke="#63b8ff" d="M1433.5,-110.66C1433.5,-100.24 1433.5,-87.8 1433.5,-79.67"/>
<polygon fill="#63b8ff" stroke="#63b8ff" points="1430,-110.87 1433.5,-120.87 1437,-110.87 1430,-110.87"/>
</a>
</g>
</g>
<!-- Node12 -->
<g id="Node000012" class="node">
<title>Node12</title>
<g id="a_Node000012"><a xlink:href="ServerSocket_8cpp.html" target="_top" xlink:title=" ">
<polygon fill="white" stroke="#666666" points="1674.5,-79.5 1532.5,-79.5 1532.5,-60.5 1674.5,-60.5 1674.5,-79.5"/>
<text text-anchor="middle" x="1603.5" y="-67.5" font-family="Helvetica,sans-Serif" font-size="10.00">srcs/init/ServerSocket.cpp</text>
</a>
</g>
</g>
<!-- Node1&#45;&gt;Node12 -->
<g id="edge13_Node000001_Node000012" class="edge">
<title>Node1&#45;&gt;Node12</title>
<g id="a_edge13_Node000001_Node000012"><a xlink:title=" ">
<path fill="none" stroke="#63b8ff" d="M1467.87,-117.67C1500.75,-106.36 1549.53,-89.57 1578.75,-79.52"/>
<polygon fill="#63b8ff" stroke="#63b8ff" points="1466.54,-114.43 1458.22,-120.99 1468.81,-121.05 1466.54,-114.43"/>
</a>
</g>
</g>
<!-- Node13 -->
<g id="Node000013" class="node">
<title>Node13</title>
<g id="a_Node000013"><a xlink:href="WebServer_8cpp.html" target="_top" xlink:title=" ">
<polygon fill="white" stroke="#666666" points="1822.5,-79.5 1692.5,-79.5 1692.5,-60.5 1822.5,-60.5 1822.5,-79.5"/>
<text text-anchor="middle" x="1757.5" y="-67.5" font-family="Helvetica,sans-Serif" font-size="10.00">srcs/init/WebServer.cpp</text>
</a>
</g>
</g>
<!-- Node1&#45;&gt;Node13 -->
<g id="edge14_Node000001_Node000013" class="edge">
<title>Node1&#45;&gt;Node13</title>
<g id="a_edge14_Node000001_Node000013"><a xlink:title=" ">
<path fill="none" stroke="#63b8ff" d="M1492.51,-119.18C1543.19,-110.28 1618.19,-96.99 1683.5,-85 1693.02,-83.25 1703.21,-81.35 1712.9,-79.52"/>
<polygon fill="#63b8ff" stroke="#63b8ff" points="1491.63,-115.78 1482.39,-120.96 1492.85,-122.68 1491.63,-115.78"/>
</a>
</g>
</g>
<!-- Node14 -->
<g id="Node000014" class="node">
<title>Node14</title>
<g id="a_Node000014"><a xlink:href="main_8cpp.html" target="_top" xlink:title=" ">
<polygon fill="white" stroke="#666666" points="1924.5,-79.5 1840.5,-79.5 1840.5,-60.5 1924.5,-60.5 1924.5,-79.5"/>
<text text-anchor="middle" x="1882.5" y="-67.5" font-family="Helvetica,sans-Serif" font-size="10.00">srcs/main.cpp</text>
</a>
</g>
</g>
<!-- Node1&#45;&gt;Node14 -->
<g id="edge15_Node000001_Node000014" class="edge">
<title>Node1&#45;&gt;Node14</title>
<g id="a_edge15_Node000001_Node000014"><a xlink:title=" ">
<path fill="none" stroke="#63b8ff" d="M1512.39,-124.34C1593.08,-118.2 1721.82,-106.05 1831.5,-85 1838.98,-83.56 1846.98,-81.59 1854.36,-79.57"/>
<polygon fill="#63b8ff" stroke="#63b8ff" points="1512.01,-120.86 1502.3,-125.09 1512.54,-127.84 1512.01,-120.86"/>
</a>
</g>
</g>
<!-- Node15 -->
<g id="Node000015" class="node">
<title>Node15</title>
<g id="a_Node000015"><a xlink:href="HttpRequest_8cpp.html" target="_top" xlink:title=" ">
<polygon fill="white" stroke="#666666" points="2102.5,-79.5 1942.5,-79.5 1942.5,-60.5 2102.5,-60.5 2102.5,-79.5"/>
<text text-anchor="middle" x="2022.5" y="-67.5" font-family="Helvetica,sans-Serif" font-size="10.00">srcs/request/HttpRequest.cpp</text>
</a>
</g>
</g>
<!-- Node1&#45;&gt;Node15 -->
<g id="edge16_Node000001_Node000015" class="edge">
<title>Node1&#45;&gt;Node15</title>
<g id="a_edge16_Node000001_Node000015"><a xlink:title=" ">
<path fill="none" stroke="#63b8ff" d="M1512.59,-124.11C1611.31,-117.01 1785.22,-103.24 1933.5,-85 1946.07,-83.45 1959.6,-81.48 1972.22,-79.51"/>
<polygon fill="#63b8ff" stroke="#63b8ff" points="1512.13,-120.64 1502.4,-124.84 1512.62,-127.62 1512.13,-120.64"/>
</a>
</g>
</g>
<!-- Node16 -->
<g id="Node000016" class="node">
<title>Node16</title>
<g id="a_Node000016"><a xlink:href="RequestParse_8cpp.html" target="_top" xlink:title=" ">
<polygon fill="white" stroke="#666666" points="2286,-79.5 2121,-79.5 2121,-60.5 2286,-60.5 2286,-79.5"/>
<text text-anchor="middle" x="2203.5" y="-67.5" font-family="Helvetica,sans-Serif" font-size="10.00">srcs/request/RequestParse.cpp</text>
</a>
</g>
</g>
<!-- Node1&#45;&gt;Node16 -->
<g id="edge17_Node000001_Node000016" class="edge">
<title>Node1&#45;&gt;Node16</title>
<g id="a_edge17_Node000001_Node000016"><a xlink:title=" ">
<path fill="none" stroke="#63b8ff" d="M1512.48,-126.51C1639.15,-121.22 1895.42,-108.49 2111.5,-85 2124.83,-83.55 2139.19,-81.57 2152.51,-79.55"/>
<polygon fill="#63b8ff" stroke="#63b8ff" points="1512.33,-123.01 1502.48,-126.92 1512.62,-130.01 1512.33,-123.01"/>
</a>
</g>
</g>
<!-- Node17 -->
<g id="Node000017" class="node">
<title>Node17</title>
<g id="a_Node000017"><a xlink:href="HttpResponse_8cpp.html" target="_top" xlink:title=" ">
<polygon fill="white" stroke="#666666" points="2479,-79.5 2304,-79.5 2304,-60.5 2479,-60.5 2479,-79.5"/>
<text text-anchor="middle" x="2391.5" y="-67.5" font-family="Helvetica,sans-Serif" font-size="10.00">srcs/response/HttpResponse.cpp</text>
</a>
</g>
</g>
<!-- Node1&#45;&gt;Node17 -->
<g id="edge18_Node000001_Node000017" class="edge">
<title>Node1&#45;&gt;Node17</title>
<g id="a_edge18_Node000001_Node000017"><a xlink:title=" ">
<path fill="none" stroke="#63b8ff" d="M1512.26,-127.89C1664.11,-124.24 2007.77,-113.35 2295.5,-85 2309.75,-83.6 2325.12,-81.58 2339.29,-79.52"/>
<polygon fill="#63b8ff" stroke="#63b8ff" points="1512.02,-124.39 1502.1,-128.13 1512.18,-131.39 1512.02,-124.39"/>
</a>
</g>
</g>
<!-- Node18 -->
<g id="Node000018" class="node">
<title>Node18</title>
<g id="a_Node000018"><a xlink:href="ResponseBuilder_8cpp.html" target="_top" xlink:title=" ">
<polygon fill="white" stroke="#666666" points="2685.5,-79.5 2497.5,-79.5 2497.5,-60.5 2685.5,-60.5 2685.5,-79.5"/>
<text text-anchor="middle" x="2591.5" y="-67.5" font-family="Helvetica,sans-Serif" font-size="10.00">srcs/response/ResponseBuilder.cpp</text>
</a>
</g>
</g>
<!-- Node1&#45;&gt;Node18 -->
<g id="edge19_Node000001_Node000018" class="edge">
<title>Node1&#45;&gt;Node18</title>
<g id="a_edge19_Node000001_Node000018"><a xlink:title=" ">
<path fill="none" stroke="#63b8ff" d="M1512.33,-128.68C1687.96,-126.29 2124.61,-117.33 2488.5,-85 2503.96,-83.63 2520.66,-81.6 2536.01,-79.5"/>
<polygon fill="#63b8ff" stroke="#63b8ff" points="1512.1,-125.18 1502.15,-128.81 1512.19,-132.18 1512.1,-125.18"/>
</a>
</g>
</g>
<!-- Node19 -->
<g id="Node000019" class="node">
<title>Node19</title>
<g id="a_Node000019"><a xlink:href="Logger_8cpp.html" target="_top" xlink:title=" ">
<polygon fill="white" stroke="#666666" points="2819.5,-79.5 2703.5,-79.5 2703.5,-60.5 2819.5,-60.5 2819.5,-79.5"/>
<text text-anchor="middle" x="2761.5" y="-67.5" font-family="Helvetica,sans-Serif" font-size="10.00">srcs/utils/Logger.cpp</text>
</a>
</g>
</g>
<!-- Node1&#45;&gt;Node19 -->
<g id="edge20_Node000001_Node000019" class="edge">
<title>Node1&#45;&gt;Node19</title>
<g id="a_edge20_Node000001_Node000019"><a xlink:title=" ">
<path fill="none" stroke="#63b8ff" d="M1512.52,-128.48C1751.48,-125.11 2464.15,-112.92 2694.5,-85 2704.88,-83.74 2716.04,-81.69 2726.22,-79.55"/>
<polygon fill="#63b8ff" stroke="#63b8ff" points="1512.13,-124.98 1502.18,-128.62 1512.23,-131.98 1512.13,-124.98"/>
</a>
</g>
</g>
<!-- Node20 -->
<g id="Node000020" class="node">
<title>Node20</title>
<g id="a_Node000020"><a xlink:href="Signals_8cpp.html" target="_top" xlink:title=" ">
<polygon fill="white" stroke="#666666" points="2957,-79.5 2838,-79.5 2838,-60.5 2957,-60.5 2957,-79.5"/>
<text text-anchor="middle" x="2897.5" y="-67.5" font-family="Helvetica,sans-Serif" font-size="10.00">srcs/utils/Signals.cpp</text>
</a>
</g>
</g>
<!-- Node1&#45;&gt;Node20 -->
<g id="edge21_Node000001_Node000020" class="edge">
<title>Node1&#45;&gt;Node20</title>
<g id="a_edge21_Node000001_Node000020"><a xlink:title=" ">
<path fill="none" stroke="#63b8ff" d="M1512.47,-128.73C1768.01,-125.96 2570.78,-115.04 2828.5,-85 2839.18,-83.75 2850.68,-81.71 2861.16,-79.57"/>
<polygon fill="#63b8ff" stroke="#63b8ff" points="1512.12,-125.23 1502.16,-128.84 1512.2,-132.23 1512.12,-125.23"/>
</a>
</g>
</g>
<!-- Node2&#45;&gt;Node3 -->
<g id="edge2_Node000002_Node000003" class="edge">
<title>Node2&#45;&gt;Node3</title>
<g id="a_edge2_Node000002_Node000003"><a xlink:title=" ">
<path fill="none" stroke="#63b8ff" d="M159.99,-49.78C141.95,-39.43 120.58,-27.18 106.56,-19.14"/>
<polygon fill="#63b8ff" stroke="#63b8ff" points="158.65,-53.05 169.07,-54.99 162.14,-46.98 158.65,-53.05"/>
</a>
</g>
</g>
<!-- Node2&#45;&gt;Node4 -->
<g id="edge3_Node000002_Node000004" class="edge">
<title>Node2&#45;&gt;Node4</title>
<g id="a_edge3_Node000002_Node000004"><a xlink:title=" ">
<path fill="none" stroke="#63b8ff" d="M223.73,-49.35C239.54,-39.07 258.09,-27.02 270.28,-19.09"/>
<polygon fill="#63b8ff" stroke="#63b8ff" points="221.76,-46.45 215.29,-54.84 225.58,-52.32 221.76,-46.45"/>
</a>
</g>
</g>
</g>
</svg>
