<?xml version="1.0" encoding="UTF-8" standalone="no"?>
<!DOCTYPE svg PUBLIC "-//W3C//DTD SVG 1.1//EN"
 "http://www.w3.org/Graphics/SVG/1.1/DTD/svg11.dtd">
<!-- Generated by graphviz version 2.43.0 (0)
 -->
<!-- Title: utils/Logger.hpp Pages: 1 -->
<svg width="2668pt" height="137pt"
 viewBox="0.00 0.00 2667.50 137.00" xmlns="http://www.w3.org/2000/svg" xmlns:xlink="http://www.w3.org/1999/xlink">
<g id="graph0" class="graph" transform="scale(1 1) rotate(0) translate(4 133)">
<title>utils/Logger.hpp</title>
<!-- Node1 -->
<g id="Node000001" class="node">
<title>Node1</title>
<g id="a_Node000001"><a xlink:title=" ">
<polygon fill="#999999" stroke="#666666" points="1398.5,-129 1304.5,-129 1304.5,-110 1398.5,-110 1398.5,-129"/>
<text text-anchor="middle" x="1351.5" y="-117" font-family="Helvetica,sans-Serif" font-size="10.00">utils/Logger.hpp</text>
</a>
</g>
</g>
<!-- Node2 -->
<g id="Node000002" class="node">
<title>Node2</title>
<g id="a_Node000002"><a xlink:href="ServerConfig_8cpp.html" target="_top" xlink:title=" ">
<polygon fill="white" stroke="#666666" points="131,-74 0,-74 0,-55 131,-55 131,-74"/>
<text text-anchor="middle" x="65.5" y="-62" font-family="Helvetica,sans-Serif" font-size="10.00">config/ServerConfig.cpp</text>
</a>
</g>
</g>
<!-- Node1&#45;&gt;Node2 -->
<g id="edge1_Node000001_Node000002" class="edge">
<title>Node1&#45;&gt;Node2</title>
<g id="a_edge1_Node000001_Node000002"><a xlink:title=" ">
<path fill="none" stroke="#63b8ff" d="M1294.2,-117.94C1120.37,-115.92 583.82,-107.22 140.5,-74 137.49,-73.77 134.42,-73.52 131.32,-73.25"/>
<polygon fill="#63b8ff" stroke="#63b8ff" points="1294.35,-121.44 1304.39,-118.06 1294.43,-114.44 1294.35,-121.44"/>
</a>
</g>
</g>
<!-- Node3 -->
<g id="Node000003" class="node">
<title>Node3</title>
<g id="a_Node000003"><a xlink:href="AutoIndexHandler_8cpp.html" target="_top" xlink:title=" ">
<polygon fill="white" stroke="#666666" points="327.5,-74 149.5,-74 149.5,-55 327.5,-55 327.5,-74"/>
<text text-anchor="middle" x="238.5" y="-62" font-family="Helvetica,sans-Serif" font-size="10.00">dispatcher/AutoIndexHandler.cpp</text>
</a>
</g>
</g>
<!-- Node1&#45;&gt;Node3 -->
<g id="edge2_Node000001_Node000003" class="edge">
<title>Node1&#45;&gt;Node3</title>
<g id="a_edge2_Node000001_Node000003"><a xlink:title=" ">
<path fill="none" stroke="#63b8ff" d="M1294.21,-116.85C1139.58,-112.2 700.83,-97.78 336.5,-74 333.6,-73.81 330.66,-73.61 327.69,-73.4"/>
<polygon fill="#63b8ff" stroke="#63b8ff" points="1294.31,-120.35 1304.41,-117.15 1294.52,-113.35 1294.31,-120.35"/>
</a>
</g>
</g>
<!-- Node4 -->
<g id="Node000004" class="node">
<title>Node4</title>
<g id="a_Node000004"><a xlink:href="CgiHandler_8cpp.html" target="_top" xlink:title=" ">
<polygon fill="white" stroke="#666666" points="489.5,-74 345.5,-74 345.5,-55 489.5,-55 489.5,-74"/>
<text text-anchor="middle" x="417.5" y="-62" font-family="Helvetica,sans-Serif" font-size="10.00">dispatcher/CgiHandler.cpp</text>
</a>
</g>
</g>
<!-- Node1&#45;&gt;Node4 -->
<g id="edge3_Node000001_Node000004" class="edge">
<title>Node1&#45;&gt;Node4</title>
<g id="a_edge3_Node000001_Node000004"><a xlink:title=" ">
<path fill="none" stroke="#63b8ff" d="M1293.84,-116.39C1156.71,-111.18 800.43,-96.45 503.5,-74 499.01,-73.66 494.39,-73.28 489.74,-72.88"/>
<polygon fill="#63b8ff" stroke="#63b8ff" points="1293.98,-119.9 1304.1,-116.78 1294.24,-112.9 1293.98,-119.9"/>
</a>
</g>
</g>
<!-- Node5 -->
<g id="Node000005" class="node">
<title>Node5</title>
<g id="a_Node000005"><a xlink:href="DeleteHandler_8cpp.html" target="_top" xlink:title=" ">
<polygon fill="white" stroke="#666666" points="622,-19 461,-19 461,0 622,0 622,-19"/>
<text text-anchor="middle" x="541.5" y="-7" font-family="Helvetica,sans-Serif" font-size="10.00">dispatcher/DeleteHandler.cpp</text>
</a>
</g>
</g>
<!-- Node1&#45;&gt;Node5 -->
<g id="edge4_Node000001_Node000005" class="edge">
<title>Node1&#45;&gt;Node5</title>
<g id="a_edge4_Node000001_Node000005"><a xlink:title=" ">
<path fill="none" stroke="#63b8ff" d="M1294.3,-117.51C1113.15,-114.1 562.53,-101.49 536.5,-74 522.51,-59.23 531.21,-32.88 537.22,-19.24"/>
<polygon fill="#63b8ff" stroke="#63b8ff" points="1294.36,-121.01 1304.42,-117.7 1294.49,-114.01 1294.36,-121.01"/>
</a>
</g>
</g>
<!-- Node6 -->
<g id="Node000006" class="node">
<title>Node6</title>
<g id="a_Node000006"><a xlink:href="DeleteHandler_8hpp.html" target="_top" xlink:title=" ">
<polygon fill="white" stroke="#666666" points="707,-74 546,-74 546,-55 707,-55 707,-74"/>
<text text-anchor="middle" x="626.5" y="-62" font-family="Helvetica,sans-Serif" font-size="10.00">dispatcher/DeleteHandler.hpp</text>
</a>
</g>
</g>
<!-- Node1&#45;&gt;Node6 -->
<g id="edge5_Node000001_Node000006" class="edge">
<title>Node1&#45;&gt;Node6</title>
<g id="a_edge5_Node000001_Node000006"><a xlink:title=" ">
<path fill="none" stroke="#63b8ff" d="M1294.18,-114.81C1183.46,-107.61 932.47,-90.89 721.5,-74 716.8,-73.62 711.96,-73.23 707.08,-72.82"/>
<polygon fill="#63b8ff" stroke="#63b8ff" points="1294.25,-118.32 1304.45,-115.48 1294.7,-111.34 1294.25,-118.32"/>
</a>
</g>
</g>
<!-- Node7 -->
<g id="Node000007" class="node">
<title>Node7</title>
<g id="a_Node000007"><a xlink:href="Dispatcher_8cpp.html" target="_top" xlink:title=" ">
<polygon fill="white" stroke="#666666" points="795,-19 652,-19 652,0 795,0 795,-19"/>
<text text-anchor="middle" x="723.5" y="-7" font-family="Helvetica,sans-Serif" font-size="10.00">dispatcher/Dispatcher.cpp</text>
</a>
</g>
</g>
<!-- Node1&#45;&gt;Node7 -->
<g id="edge8_Node000001_Node000007" class="edge">
<title>Node1&#45;&gt;Node7</title>
<g id="a_edge8_Node000001_Node000007"><a xlink:title=" ">
<path fill="none" stroke="#63b8ff" d="M1293.84,-117.44C1152.76,-114.38 798.46,-103.79 754.5,-74 735.61,-61.2 727.8,-33.48 724.95,-19.28"/>
<polygon fill="#63b8ff" stroke="#63b8ff" points="1293.95,-120.94 1304.02,-117.65 1294.1,-113.94 1293.95,-120.94"/>
</a>
</g>
</g>
<!-- Node8 -->
<g id="Node000008" class="node">
<title>Node8</title>
<g id="a_Node000008"><a xlink:href="Router_8cpp.html" target="_top" xlink:title=" ">
<polygon fill="white" stroke="#666666" points="885.5,-74 763.5,-74 763.5,-55 885.5,-55 885.5,-74"/>
<text text-anchor="middle" x="824.5" y="-62" font-family="Helvetica,sans-Serif" font-size="10.00">dispatcher/Router.cpp</text>
</a>
</g>
</g>
<!-- Node1&#45;&gt;Node8 -->
<g id="edge9_Node000001_Node000008" class="edge">
<title>Node1&#45;&gt;Node8</title>
<g id="a_edge9_Node000001_Node000008"><a xlink:title=" ">
<path fill="none" stroke="#63b8ff" d="M1294.07,-113.3C1207.57,-105.38 1038.74,-89.56 895.5,-74 892.29,-73.65 889,-73.29 885.68,-72.91"/>
<polygon fill="#63b8ff" stroke="#63b8ff" points="1293.92,-116.8 1304.2,-114.23 1294.56,-109.83 1293.92,-116.8"/>
</a>
</g>
</g>
<!-- Node9 -->
<g id="Node000009" class="node">
<title>Node9</title>
<g id="a_Node000009"><a xlink:href="StaticPageHandler_8cpp.html" target="_top" xlink:title=" ">
<polygon fill="white" stroke="#666666" points="1083,-74 904,-74 904,-55 1083,-55 1083,-74"/>
<text text-anchor="middle" x="993.5" y="-62" font-family="Helvetica,sans-Serif" font-size="10.00">dispatcher/StaticPageHandler.cpp</text>
</a>
</g>
</g>
<!-- Node1&#45;&gt;Node9 -->
<g id="edge10_Node000001_Node000009" class="edge">
<title>Node1&#45;&gt;Node9</title>
<g id="a_edge10_Node000001_Node000009"><a xlink:title=" ">
<path fill="none" stroke="#63b8ff" d="M1294.41,-110.05C1227.74,-100.18 1118.06,-83.94 1051.15,-74.03"/>
<polygon fill="#63b8ff" stroke="#63b8ff" points="1293.92,-113.51 1304.33,-111.52 1294.95,-106.59 1293.92,-113.51"/>
</a>
</g>
</g>
<!-- Node10 -->
<g id="Node000010" class="node">
<title>Node10</title>
<g id="a_Node000010"><a xlink:href="UploadHandler_8cpp.html" target="_top" xlink:title=" ">
<polygon fill="white" stroke="#666666" points="1264,-74 1101,-74 1101,-55 1264,-55 1264,-74"/>
<text text-anchor="middle" x="1182.5" y="-62" font-family="Helvetica,sans-Serif" font-size="10.00">dispatcher/UploadHandler.cpp</text>
</a>
</g>
</g>
<!-- Node1&#45;&gt;Node10 -->
<g id="edge11_Node000001_Node000010" class="edge">
<title>Node1&#45;&gt;Node10</title>
<g id="a_edge11_Node000001_Node000010"><a xlink:title=" ">
<path fill="none" stroke="#63b8ff" d="M1314.6,-106.93C1283.03,-97.03 1238.32,-83.01 1209.87,-74.08"/>
<polygon fill="#63b8ff" stroke="#63b8ff" points="1313.76,-110.33 1324.35,-109.98 1315.85,-103.65 1313.76,-110.33"/>
</a>
</g>
</g>
<!-- Node11 -->
<g id="Node000011" class="node">
<title>Node11</title>
<g id="a_Node000011"><a xlink:href="ClientConnection_8cpp.html" target="_top" xlink:title=" ">
<polygon fill="white" stroke="#666666" points="1421,-74 1282,-74 1282,-55 1421,-55 1421,-74"/>
<text text-anchor="middle" x="1351.5" y="-62" font-family="Helvetica,sans-Serif" font-size="10.00">init/ClientConnection.cpp</text>
</a>
</g>
</g>
<!-- Node1&#45;&gt;Node11 -->
<g id="edge12_Node000001_Node000011" class="edge">
<title>Node1&#45;&gt;Node11</title>
<g id="a_edge12_Node000001_Node000011"><a xlink:title=" ">
<path fill="none" stroke="#63b8ff" d="M1351.5,-99.66C1351.5,-90.93 1351.5,-80.99 1351.5,-74.09"/>
<polygon fill="#63b8ff" stroke="#63b8ff" points="1348,-99.75 1351.5,-109.75 1355,-99.75 1348,-99.75"/>
</a>
</g>
</g>
<!-- Node12 -->
<g id="Node000012" class="node">
<title>Node12</title>
<g id="a_Node000012"><a xlink:href="ServerSocket_8cpp.html" target="_top" xlink:title=" ">
<polygon fill="white" stroke="#666666" points="1558,-74 1439,-74 1439,-55 1558,-55 1558,-74"/>
<text text-anchor="middle" x="1498.5" y="-62" font-family="Helvetica,sans-Serif" font-size="10.00">init/ServerSocket.cpp</text>
</a>
</g>
</g>
<!-- Node1&#45;&gt;Node12 -->
<g id="edge13_Node000001_Node000012" class="edge">
<title>Node1&#45;&gt;Node12</title>
<g id="a_edge13_Node000001_Node000012"><a xlink:title=" ">
<path fill="none" stroke="#63b8ff" d="M1384.64,-106.55C1411.94,-96.71 1450,-82.98 1474.45,-74.17"/>
<polygon fill="#63b8ff" stroke="#63b8ff" points="1383.34,-103.3 1375.12,-109.98 1385.71,-109.89 1383.34,-103.3"/>
</a>
</g>
</g>
<!-- Node13 -->
<g id="Node000013" class="node">
<title>Node13</title>
<g id="a_Node000013"><a xlink:href="WebServer_8cpp.html" target="_top" xlink:title=" ">
<polygon fill="white" stroke="#666666" points="1683,-74 1576,-74 1576,-55 1683,-55 1683,-74"/>
<text text-anchor="middle" x="1629.5" y="-62" font-family="Helvetica,sans-Serif" font-size="10.00">init/WebServer.cpp</text>
</a>
</g>
</g>
<!-- Node1&#45;&gt;Node13 -->
<g id="edge14_Node000001_Node000013" class="edge">
<title>Node1&#45;&gt;Node13</title>
<g id="a_edge14_Node000001_Node000013"><a xlink:title=" ">
<path fill="none" stroke="#63b8ff" d="M1406.23,-108.07C1458.35,-98.13 1535.85,-83.35 1584.48,-74.08"/>
<polygon fill="#63b8ff" stroke="#63b8ff" points="1405.33,-104.67 1396.17,-109.98 1406.64,-111.55 1405.33,-104.67"/>
</a>
</g>
</g>
<!-- Node14 -->
<g id="Node000014" class="node">
<title>Node14</title>
<g id="a_Node000014"><a xlink:href="main_8cpp.html" target="_top" xlink:title=" ">
<polygon fill="white" stroke="#666666" points="1763.5,-74 1701.5,-74 1701.5,-55 1763.5,-55 1763.5,-74"/>
<text text-anchor="middle" x="1732.5" y="-62" font-family="Helvetica,sans-Serif" font-size="10.00">main.cpp</text>
</a>
</g>
</g>
<!-- Node1&#45;&gt;Node14 -->
<g id="edge15_Node000001_Node000014" class="edge">
<title>Node1&#45;&gt;Node14</title>
<g id="a_edge15_Node000001_Node000014"><a xlink:title=" ">
<path fill="none" stroke="#63b8ff" d="M1408.63,-112.45C1476.52,-104.94 1593.15,-91.01 1692.5,-74 1695.3,-73.52 1698.2,-72.98 1701.1,-72.42"/>
<polygon fill="#63b8ff" stroke="#63b8ff" points="1408.12,-108.99 1398.56,-113.56 1408.88,-115.94 1408.12,-108.99"/>
</a>
</g>
</g>
<!-- Node15 -->
<g id="Node000015" class="node">
<title>Node15</title>
<g id="a_Node000015"><a xlink:href="HttpRequest_8cpp.html" target="_top" xlink:title=" ">
<polygon fill="white" stroke="#666666" points="1919,-74 1782,-74 1782,-55 1919,-55 1919,-74"/>
<text text-anchor="middle" x="1850.5" y="-62" font-family="Helvetica,sans-Serif" font-size="10.00">request/HttpRequest.cpp</text>
</a>
</g>
</g>
<!-- Node1&#45;&gt;Node15 -->
<g id="edge16_Node000001_Node000015" class="edge">
<title>Node1&#45;&gt;Node15</title>
<g id="a_edge16_Node000001_Node000015"><a xlink:title=" ">
<path fill="none" stroke="#63b8ff" d="M1408.53,-112.53C1489.47,-104.05 1642.33,-87.97 1772.5,-74 1775.48,-73.68 1778.52,-73.35 1781.6,-73.02"/>
<polygon fill="#63b8ff" stroke="#63b8ff" points="1408.12,-109.05 1398.54,-113.58 1408.85,-116.02 1408.12,-109.05"/>
</a>
</g>
</g>
<!-- Node16 -->
<g id="Node000016" class="node">
<title>Node16</title>
<g id="a_Node000016"><a xlink:href="RequestParse_8cpp.html" target="_top" xlink:title=" ">
<polygon fill="white" stroke="#666666" points="2080,-74 1937,-74 1937,-55 2080,-55 2080,-74"/>
<text text-anchor="middle" x="2008.5" y="-62" font-family="Helvetica,sans-Serif" font-size="10.00">request/RequestParse.cpp</text>
</a>
</g>
</g>
<!-- Node1&#45;&gt;Node16 -->
<g id="edge17_Node000001_Node000016" class="edge">
<title>Node1&#45;&gt;Node16</title>
<g id="a_edge17_Node000001_Node000016"><a xlink:title=" ">
<path fill="none" stroke="#63b8ff" d="M1408.91,-114.62C1512.7,-107.49 1738.43,-91.42 1928.5,-74 1931.28,-73.75 1934.12,-73.48 1936.98,-73.2"/>
<polygon fill="#63b8ff" stroke="#63b8ff" points="1408.4,-111.15 1398.66,-115.33 1408.87,-118.13 1408.4,-111.15"/>
</a>
</g>
</g>
<!-- Node17 -->
<g id="Node000017" class="node">
<title>Node17</title>
<g id="a_Node000017"><a xlink:href="HttpResponse_8cpp.html" target="_top" xlink:title=" ">
<polygon fill="white" stroke="#666666" points="2250.5,-74 2098.5,-74 2098.5,-55 2250.5,-55 2250.5,-74"/>
<text text-anchor="middle" x="2174.5" y="-62" font-family="Helvetica,sans-Serif" font-size="10.00">response/HttpResponse.cpp</text>
</a>
</g>
</g>
<!-- Node1&#45;&gt;Node17 -->
<g id="edge18_Node000001_Node000017" class="edge">
<title>Node1&#45;&gt;Node17</title>
<g id="a_edge18_Node000001_Node000017"><a xlink:title=" ">
<path fill="none" stroke="#63b8ff" d="M1408.63,-115.82C1532.68,-109.85 1835.93,-94.32 2089.5,-74 2092.31,-73.77 2095.17,-73.54 2098.06,-73.29"/>
<polygon fill="#63b8ff" stroke="#63b8ff" points="1408.42,-112.33 1398.6,-116.31 1408.76,-119.32 1408.42,-112.33"/>
</a>
</g>
</g>
<!-- Node18 -->
<g id="Node000018" class="node">
<title>Node18</title>
<g id="a_Node000018"><a xlink:href="ResponseBuilder_8cpp.html" target="_top" xlink:title=" ">
<polygon fill="white" stroke="#666666" points="2434,-74 2269,-74 2269,-55 2434,-55 2434,-74"/>
<text text-anchor="middle" x="2351.5" y="-62" font-family="Helvetica,sans-Serif" font-size="10.00">response/ResponseBuilder.cpp</text>
</a>
</g>
</g>
<!-- Node1&#45;&gt;Node18 -->
<g id="edge19_Node000001_Node000018" class="edge">
<title>Node1&#45;&gt;Node18</title>
<g id="a_edge19_Node000001_Node000018"><a xlink:title=" ">
<path fill="none" stroke="#63b8ff" d="M1409.13,-116.54C1552.82,-111.46 1938.49,-96.68 2259.5,-74 2262.54,-73.79 2265.64,-73.56 2268.76,-73.31"/>
<polygon fill="#63b8ff" stroke="#63b8ff" points="1408.68,-113.05 1398.81,-116.9 1408.92,-120.05 1408.68,-113.05"/>
</a>
</g>
</g>
<!-- Node19 -->
<g id="Node000019" class="node">
<title>Node19</title>
<g id="a_Node000019"><a xlink:href="Logger_8cpp.html" target="_top" xlink:title=" ">
<polygon fill="white" stroke="#666666" points="2545,-74 2452,-74 2452,-55 2545,-55 2545,-74"/>
<text text-anchor="middle" x="2498.5" y="-62" font-family="Helvetica,sans-Serif" font-size="10.00">utils/Logger.cpp</text>
</a>
</g>
</g>
<!-- Node1&#45;&gt;Node19 -->
<g id="edge20_Node000001_Node000019" class="edge">
<title>Node1&#45;&gt;Node19</title>
<g id="a_edge20_Node000001_Node000019"><a xlink:title=" ">
<path fill="none" stroke="#63b8ff" d="M1408.98,-118.43C1571.69,-117.76 2049.2,-112.38 2443.5,-74 2446.19,-73.74 2448.95,-73.43 2451.74,-73.09"/>
<polygon fill="#63b8ff" stroke="#63b8ff" points="1408.71,-114.93 1398.73,-118.47 1408.74,-121.93 1408.71,-114.93"/>
</a>
</g>
</g>
<!-- Node20 -->
<g id="Node000020" class="node">
<title>Node20</title>
<g id="a_Node000020"><a xlink:href="Signals_8cpp.html" target="_top" xlink:title=" ">
<polygon fill="white" stroke="#666666" points="2659.5,-74 2563.5,-74 2563.5,-55 2659.5,-55 2659.5,-74"/>
<text text-anchor="middle" x="2611.5" y="-62" font-family="Helvetica,sans-Serif" font-size="10.00">utils/Signals.cpp</text>
</a>
</g>
</g>
<!-- Node1&#45;&gt;Node20 -->
<g id="edge21_Node000001_Node000020" class="edge">
<title>Node1&#45;&gt;Node20</title>
<g id="a_edge21_Node000001_Node000020"><a xlink:title=" ">
<path fill="none" stroke="#63b8ff" d="M1408.79,-118.63C1581.95,-118.56 2115.02,-114.77 2554.5,-74 2557.39,-73.73 2560.36,-73.42 2563.34,-73.07"/>
<polygon fill="#63b8ff" stroke="#63b8ff" points="1408.63,-115.13 1398.63,-118.63 1408.63,-122.13 1408.63,-115.13"/>
</a>
</g>
</g>
<!-- Node6&#45;&gt;Node5 -->
<g id="edge6_Node000006_Node000005" class="edge">
<title>Node6&#45;&gt;Node5</title>
<g id="a_edge6_Node000006_Node000005"><a xlink:title=" ">
<path fill="none" stroke="#63b8ff" d="M603.93,-49.42C588.5,-39.81 568.55,-27.37 555.41,-19.17"/>
<polygon fill="#63b8ff" stroke="#63b8ff" points="602.51,-52.66 612.84,-54.98 606.21,-46.72 602.51,-52.66"/>
</a>
</g>
</g>
<!-- Node6&#45;&gt;Node7 -->
<g id="edge7_Node000006_Node000007" class="edge">
<title>Node6&#45;&gt;Node7</title>
<g id="a_edge7_Node000006_Node000007"><a xlink:title=" ">
<path fill="none" stroke="#63b8ff" d="M651.27,-49.97C669,-40.28 692.35,-27.52 707.63,-19.17"/>
<polygon fill="#63b8ff" stroke="#63b8ff" points="649.18,-47.12 642.08,-54.98 652.54,-53.26 649.18,-47.12"/>
</a>
</g>
</g>
</g>
</svg>
