<?xml version="1.0" encoding="UTF-8" standalone="no"?>
<!DOCTYPE svg PUBLIC "-//W3C//DTD SVG 1.1//EN"
 "http://www.w3.org/Graphics/SVG/1.1/DTD/svg11.dtd">
<!-- Generated by graphviz version 2.43.0 (0)
 -->
<!-- Title: includes/request/RequestMeta.hpp Pages: 1 -->
<svg width="1990pt" height="346pt"
 viewBox="0.00 0.00 1989.50 346.00" xmlns="http://www.w3.org/2000/svg" xmlns:xlink="http://www.w3.org/1999/xlink">
<g id="graph0" class="graph" transform="scale(1 1) rotate(0) translate(4 342)">
<title>includes/request/RequestMeta.hpp</title>
<!-- Node1 -->
<g id="Node000001" class="node">
<title>Node1</title>
<g id="a_Node000001"><a xlink:title=" ">
<polygon fill="#999999" stroke="#666666" points="1215.5,-338 1075.5,-338 1075.5,-308 1215.5,-308 1215.5,-338"/>
<text text-anchor="start" x="1083.5" y="-326" font-family="Helvetica,sans-Serif" font-size="10.00">includes/request/Request</text>
<text text-anchor="middle" x="1145.5" y="-315" font-family="Helvetica,sans-Serif" font-size="10.00">Meta.hpp</text>
</a>
</g>
</g>
<!-- Node2 -->
<g id="Node000002" class="node">
<title>Node2</title>
<g id="a_Node000002"><a xlink:href="HttpRequest_8hpp.html" target="_top" xlink:title=" ">
<polygon fill="white" stroke="#666666" points="1141.5,-272 959.5,-272 959.5,-253 1141.5,-253 1141.5,-272"/>
<text text-anchor="middle" x="1050.5" y="-260" font-family="Helvetica,sans-Serif" font-size="10.00">includes/request/HttpRequest.hpp</text>
</a>
</g>
</g>
<!-- Node1&#45;&gt;Node2 -->
<g id="edge1_Node000001_Node000002" class="edge">
<title>Node1&#45;&gt;Node2</title>
<g id="a_edge1_Node000001_Node000002"><a xlink:title=" ">
<path fill="none" stroke="#63b8ff" d="M1113.59,-302.35C1096.9,-292.07 1077.33,-280.02 1064.46,-272.09"/>
<polygon fill="#63b8ff" stroke="#63b8ff" points="1112.15,-305.58 1122.5,-307.84 1115.82,-299.61 1112.15,-305.58"/>
</a>
</g>
</g>
<!-- Node29 -->
<g id="Node000029" class="node">
<title>Node29</title>
<g id="a_Node000029"><a xlink:href="RequestMeta_8cpp.html" target="_top" xlink:title=" ">
<polygon fill="white" stroke="#666666" points="1323.5,-272 1159.5,-272 1159.5,-253 1323.5,-253 1323.5,-272"/>
<text text-anchor="middle" x="1241.5" y="-260" font-family="Helvetica,sans-Serif" font-size="10.00">srcs/request/RequestMeta.cpp</text>
</a>
</g>
</g>
<!-- Node1&#45;&gt;Node29 -->
<g id="edge45_Node000001_Node000029" class="edge">
<title>Node1&#45;&gt;Node29</title>
<g id="a_edge45_Node000001_Node000029"><a xlink:title=" ">
<path fill="none" stroke="#63b8ff" d="M1177.28,-302.64C1194.24,-292.3 1214.27,-280.09 1227.4,-272.09"/>
<polygon fill="#63b8ff" stroke="#63b8ff" points="1175.46,-299.65 1168.74,-307.84 1179.1,-305.62 1175.46,-299.65"/>
</a>
</g>
</g>
<!-- Node3 -->
<g id="Node000003" class="node">
<title>Node3</title>
<g id="a_Node000003"><a xlink:href="AutoIndexHandler_8hpp.html" target="_top" xlink:title=" ">
<polygon fill="white" stroke="#666666" points="867.5,-151 739.5,-151 739.5,-121 867.5,-121 867.5,-151"/>
<text text-anchor="start" x="747.5" y="-139" font-family="Helvetica,sans-Serif" font-size="10.00">includes/dispatcher</text>
<text text-anchor="middle" x="803.5" y="-128" font-family="Helvetica,sans-Serif" font-size="10.00">/AutoIndexHandler.hpp</text>
</a>
</g>
</g>
<!-- Node2&#45;&gt;Node3 -->
<g id="edge2_Node000002_Node000003" class="edge">
<title>Node2&#45;&gt;Node3</title>
<g id="a_edge2_Node000002_Node000003"><a xlink:title=" ">
<path fill="none" stroke="#63b8ff" d="M1024.34,-248.31C977.52,-224.71 879.78,-175.45 831.59,-151.16"/>
<polygon fill="#63b8ff" stroke="#63b8ff" points="1023.02,-251.57 1033.52,-252.94 1026.17,-245.32 1023.02,-251.57"/>
</a>
</g>
</g>
<!-- Node6 -->
<g id="Node000006" class="node">
<title>Node6</title>
<g id="a_Node000006"><a xlink:href="CgiHandler_8hpp.html" target="_top" xlink:title=" ">
<polygon fill="white" stroke="#666666" points="1317,-151 1206,-151 1206,-121 1317,-121 1317,-151"/>
<text text-anchor="start" x="1214" y="-139" font-family="Helvetica,sans-Serif" font-size="10.00">includes/dispatcher</text>
<text text-anchor="middle" x="1261.5" y="-128" font-family="Helvetica,sans-Serif" font-size="10.00">/CgiHandler.hpp</text>
</a>
</g>
</g>
<!-- Node2&#45;&gt;Node6 -->
<g id="edge5_Node000002_Node000006" class="edge">
<title>Node2&#45;&gt;Node6</title>
<g id="a_edge5_Node000002_Node000006"><a xlink:title=" ">
<path fill="none" stroke="#63b8ff" d="M1134.24,-250.63C1160.84,-244.11 1189.14,-233.68 1211.5,-217 1234.34,-199.96 1249.23,-169.13 1256.43,-151.12"/>
<polygon fill="#63b8ff" stroke="#63b8ff" points="1133.1,-247.3 1124.14,-252.94 1134.66,-254.12 1133.1,-247.3"/>
</a>
</g>
</g>
<!-- Node11 -->
<g id="Node000011" class="node">
<title>Node11</title>
<g id="a_Node000011"><a xlink:href="DeleteHandler_8hpp.html" target="_top" xlink:title=" ">
<polygon fill="white" stroke="#666666" points="267,-217 156,-217 156,-187 267,-187 267,-217"/>
<text text-anchor="start" x="164" y="-205" font-family="Helvetica,sans-Serif" font-size="10.00">includes/dispatcher</text>
<text text-anchor="middle" x="211.5" y="-194" font-family="Helvetica,sans-Serif" font-size="10.00">/DeleteHandler.hpp</text>
</a>
</g>
</g>
<!-- Node2&#45;&gt;Node11 -->
<g id="edge11_Node000002_Node000011" class="edge">
<title>Node2&#45;&gt;Node11</title>
<g id="a_edge11_Node000002_Node000011"><a xlink:title=" ">
<path fill="none" stroke="#63b8ff" d="M948.93,-254.42C770.44,-241.97 406.26,-216.58 267.18,-206.88"/>
<polygon fill="#63b8ff" stroke="#63b8ff" points="948.9,-257.92 959.12,-255.13 949.38,-250.94 948.9,-257.92"/>
</a>
</g>
</g>
<!-- Node13 -->
<g id="Node000013" class="node">
<title>Node13</title>
<g id="a_Node000013"><a xlink:href="StaticPageHandler_8hpp.html" target="_top" xlink:title=" ">
<polygon fill="white" stroke="#666666" points="1015,-151 886,-151 886,-121 1015,-121 1015,-151"/>
<text text-anchor="start" x="894" y="-139" font-family="Helvetica,sans-Serif" font-size="10.00">includes/dispatcher</text>
<text text-anchor="middle" x="950.5" y="-128" font-family="Helvetica,sans-Serif" font-size="10.00">/StaticPageHandler.hpp</text>
</a>
</g>
</g>
<!-- Node2&#45;&gt;Node13 -->
<g id="edge14_Node000002_Node000013" class="edge">
<title>Node2&#45;&gt;Node13</title>
<g id="a_edge14_Node000002_Node000013"><a xlink:title=" ">
<path fill="none" stroke="#63b8ff" d="M1035.33,-245.32C1027.7,-237.01 1018.41,-226.63 1010.5,-217 992.09,-194.6 972.17,-167.38 960.54,-151.16"/>
<polygon fill="#63b8ff" stroke="#63b8ff" points="1032.93,-247.88 1042.3,-252.84 1038.06,-243.12 1032.93,-247.88"/>
</a>
</g>
</g>
<!-- Node15 -->
<g id="Node000015" class="node">
<title>Node15</title>
<g id="a_Node000015"><a xlink:href="UploadHandler_8hpp.html" target="_top" xlink:title=" ">
<polygon fill="white" stroke="#666666" points="638,-217 525,-217 525,-187 638,-187 638,-217"/>
<text text-anchor="start" x="533" y="-205" font-family="Helvetica,sans-Serif" font-size="10.00">includes/dispatcher</text>
<text text-anchor="middle" x="581.5" y="-194" font-family="Helvetica,sans-Serif" font-size="10.00">/UploadHandler.hpp</text>
</a>
</g>
</g>
<!-- Node2&#45;&gt;Node15 -->
<g id="edge17_Node000002_Node000015" class="edge">
<title>Node2&#45;&gt;Node15</title>
<g id="a_edge17_Node000002_Node000015"><a xlink:title=" ">
<path fill="none" stroke="#63b8ff" d="M972.24,-251.74C877.82,-239.96 721.42,-220.45 638,-210.05"/>
<polygon fill="#63b8ff" stroke="#63b8ff" points="971.95,-255.23 982.3,-252.99 972.81,-248.28 971.95,-255.23"/>
</a>
</g>
</g>
<!-- Node17 -->
<g id="Node000017" class="node">
<title>Node17</title>
<g id="a_Node000017"><a xlink:href="ClientConnection_8hpp.html" target="_top" xlink:title=" ">
<polygon fill="white" stroke="#666666" points="1202,-211.5 1019,-211.5 1019,-192.5 1202,-192.5 1202,-211.5"/>
<text text-anchor="middle" x="1110.5" y="-199.5" font-family="Helvetica,sans-Serif" font-size="10.00">includes/init/ClientConnection.hpp</text>
</a>
</g>
</g>
<!-- Node2&#45;&gt;Node17 -->
<g id="edge20_Node000002_Node000017" class="edge">
<title>Node2&#45;&gt;Node17</title>
<g id="a_edge20_Node000002_Node000017"><a xlink:title=" ">
<path fill="none" stroke="#63b8ff" d="M1066.82,-245.59C1078.02,-234.67 1092.47,-220.58 1101.61,-211.67"/>
<polygon fill="#63b8ff" stroke="#63b8ff" points="1064.07,-243.38 1059.35,-252.87 1068.96,-248.39 1064.07,-243.38"/>
</a>
</g>
</g>
<!-- Node26 -->
<g id="Node000026" class="node">
<title>Node26</title>
<g id="a_Node000026"><a xlink:href="RequestParse_8hpp.html" target="_top" xlink:title=" ">
<polygon fill="white" stroke="#666666" points="1499.5,-217 1359.5,-217 1359.5,-187 1499.5,-187 1499.5,-217"/>
<text text-anchor="start" x="1367.5" y="-205" font-family="Helvetica,sans-Serif" font-size="10.00">includes/request/Request</text>
<text text-anchor="middle" x="1429.5" y="-194" font-family="Helvetica,sans-Serif" font-size="10.00">Parse.hpp</text>
</a>
</g>
</g>
<!-- Node2&#45;&gt;Node26 -->
<g id="edge41_Node000002_Node000026" class="edge">
<title>Node2&#45;&gt;Node26</title>
<g id="a_edge41_Node000002_Node000026"><a xlink:title=" ">
<path fill="none" stroke="#63b8ff" d="M1115.77,-251.43C1183.73,-240.94 1289.82,-224.56 1359.49,-213.81"/>
<polygon fill="#63b8ff" stroke="#63b8ff" points="1114.96,-248.01 1105.61,-252.99 1116.03,-254.93 1114.96,-248.01"/>
</a>
</g>
</g>
<!-- Node28 -->
<g id="Node000028" class="node">
<title>Node28</title>
<g id="a_Node000028"><a xlink:href="HttpRequest_8cpp.html" target="_top" xlink:title=" ">
<polygon fill="white" stroke="#666666" points="1677.5,-211.5 1517.5,-211.5 1517.5,-192.5 1677.5,-192.5 1677.5,-211.5"/>
<text text-anchor="middle" x="1597.5" y="-199.5" font-family="Helvetica,sans-Serif" font-size="10.00">srcs/request/HttpRequest.cpp</text>
</a>
</g>
</g>
<!-- Node2&#45;&gt;Node28 -->
<g id="edge44_Node000002_Node000028" class="edge">
<title>Node2&#45;&gt;Node28</title>
<g id="a_edge44_Node000002_Node000028"><a xlink:title=" ">
<path fill="none" stroke="#63b8ff" d="M1151.7,-252.37C1265.12,-242.02 1441.86,-225.47 1508.5,-217 1520.91,-215.42 1534.26,-213.46 1546.74,-211.52"/>
<polygon fill="#63b8ff" stroke="#63b8ff" points="1151.25,-248.9 1141.61,-253.29 1151.88,-255.87 1151.25,-248.9"/>
</a>
</g>
</g>
<!-- Node4 -->
<g id="Node000004" class="node">
<title>Node4</title>
<g id="a_Node000004"><a xlink:href="AutoIndexHandler_8cpp.html" target="_top" xlink:title=" ">
<polygon fill="white" stroke="#666666" points="842,-85 699,-85 699,-55 842,-55 842,-85"/>
<text text-anchor="start" x="707" y="-73" font-family="Helvetica,sans-Serif" font-size="10.00">srcs/dispatcher/AutoIndex</text>
<text text-anchor="middle" x="770.5" y="-62" font-family="Helvetica,sans-Serif" font-size="10.00">Handler.cpp</text>
</a>
</g>
</g>
<!-- Node3&#45;&gt;Node4 -->
<g id="edge3_Node000003_Node000004" class="edge">
<title>Node3&#45;&gt;Node4</title>
<g id="a_edge3_Node000003_Node000004"><a xlink:title=" ">
<path fill="none" stroke="#63b8ff" d="M791.48,-111.68C786.89,-102.79 781.82,-92.95 777.8,-85.16"/>
<polygon fill="#63b8ff" stroke="#63b8ff" points="788.48,-113.51 796.18,-120.8 794.7,-110.3 788.48,-113.51"/>
</a>
</g>
</g>
<!-- Node5 -->
<g id="Node000005" class="node">
<title>Node5</title>
<g id="a_Node000005"><a xlink:href="Dispatcher_8cpp.html" target="_top" xlink:title=" ">
<polygon fill="white" stroke="#666666" points="681,-79.5 516,-79.5 516,-60.5 681,-60.5 681,-79.5"/>
<text text-anchor="middle" x="598.5" y="-67.5" font-family="Helvetica,sans-Serif" font-size="10.00">srcs/dispatcher/Dispatcher.cpp</text>
</a>
</g>
</g>
<!-- Node3&#45;&gt;Node5 -->
<g id="edge4_Node000003_Node000005" class="edge">
<title>Node3&#45;&gt;Node5</title>
<g id="a_edge4_Node000003_Node000005"><a xlink:title=" ">
<path fill="none" stroke="#63b8ff" d="M748.96,-117.97C709.23,-105.57 657.09,-89.29 625.78,-79.52"/>
<polygon fill="#63b8ff" stroke="#63b8ff" points="747.92,-121.32 758.51,-120.95 750.01,-114.63 747.92,-121.32"/>
</a>
</g>
</g>
<!-- Node6&#45;&gt;Node5 -->
<g id="edge10_Node000006_Node000005" class="edge">
<title>Node6&#45;&gt;Node5</title>
<g id="a_edge10_Node000006_Node000005"><a xlink:title=" ">
<path fill="none" stroke="#63b8ff" d="M1195.66,-120.87C972.15,-89.39 911.72,-109.65 690.5,-85 677.17,-83.52 662.82,-81.52 649.5,-79.51"/>
<polygon fill="#63b8ff" stroke="#63b8ff" points="1195.34,-124.36 1205.74,-122.31 1196.33,-117.43 1195.34,-124.36"/>
</a>
</g>
</g>
<!-- Node7 -->
<g id="Node000007" class="node">
<title>Node7</title>
<g id="a_Node000007"><a xlink:href="WebServer_8hpp.html" target="_top" xlink:title=" ">
<polygon fill="white" stroke="#666666" points="1783.5,-79.5 1631.5,-79.5 1631.5,-60.5 1783.5,-60.5 1783.5,-79.5"/>
<text text-anchor="middle" x="1707.5" y="-67.5" font-family="Helvetica,sans-Serif" font-size="10.00">includes/init/WebServer.hpp</text>
</a>
</g>
</g>
<!-- Node6&#45;&gt;Node7 -->
<g id="edge6_Node000006_Node000007" class="edge">
<title>Node6&#45;&gt;Node7</title>
<g id="a_edge6_Node000006_Node000007"><a xlink:title=" ">
<path fill="none" stroke="#63b8ff" d="M1327.56,-126.37C1400,-116.78 1519.65,-100.59 1622.5,-85 1633.74,-83.3 1645.79,-81.37 1657.19,-79.5"/>
<polygon fill="#63b8ff" stroke="#63b8ff" points="1326.68,-122.95 1317.22,-127.73 1327.6,-129.89 1326.68,-122.95"/>
</a>
</g>
</g>
<!-- Node10 -->
<g id="Node000010" class="node">
<title>Node10</title>
<g id="a_Node000010"><a xlink:href="CgiHandler_8cpp.html" target="_top" xlink:title=" ">
<polygon fill="white" stroke="#666666" points="1434,-79.5 1267,-79.5 1267,-60.5 1434,-60.5 1434,-79.5"/>
<text text-anchor="middle" x="1350.5" y="-67.5" font-family="Helvetica,sans-Serif" font-size="10.00">srcs/dispatcher/CgiHandler.cpp</text>
</a>
</g>
</g>
<!-- Node6&#45;&gt;Node10 -->
<g id="edge9_Node000006_Node000010" class="edge">
<title>Node6&#45;&gt;Node10</title>
<g id="a_edge9_Node000006_Node000010"><a xlink:title=" ">
<path fill="none" stroke="#63b8ff" d="M1289.49,-114.87C1305.96,-103.03 1325.96,-88.65 1338.46,-79.66"/>
<polygon fill="#63b8ff" stroke="#63b8ff" points="1287.33,-112.12 1281.25,-120.8 1291.41,-117.8 1287.33,-112.12"/>
</a>
</g>
</g>
<!-- Node8 -->
<g id="Node000008" class="node">
<title>Node8</title>
<g id="a_Node000008"><a xlink:href="WebServer_8cpp.html" target="_top" xlink:title=" ">
<polygon fill="white" stroke="#666666" points="1097.5,-19 967.5,-19 967.5,0 1097.5,0 1097.5,-19"/>
<text text-anchor="middle" x="1032.5" y="-7" font-family="Helvetica,sans-Serif" font-size="10.00">srcs/init/WebServer.cpp</text>
</a>
</g>
</g>
<!-- Node7&#45;&gt;Node8 -->
<g id="edge7_Node000007_Node000008" class="edge">
<title>Node7&#45;&gt;Node8</title>
<g id="a_edge7_Node000007_Node000008"><a xlink:title=" ">
<path fill="none" stroke="#63b8ff" d="M1650.42,-58.89C1641.11,-57.45 1631.55,-56.08 1622.5,-55 1432.54,-32.24 1206.69,-19.04 1097.72,-13.54"/>
<polygon fill="#63b8ff" stroke="#63b8ff" points="1649.97,-62.36 1660.4,-60.48 1651.07,-55.45 1649.97,-62.36"/>
</a>
</g>
</g>
<!-- Node9 -->
<g id="Node000009" class="node">
<title>Node9</title>
<g id="a_Node000009"><a xlink:href="main_8cpp.html" target="_top" xlink:title=" ">
<polygon fill="white" stroke="#666666" points="1801.5,-19 1717.5,-19 1717.5,0 1801.5,0 1801.5,-19"/>
<text text-anchor="middle" x="1759.5" y="-7" font-family="Helvetica,sans-Serif" font-size="10.00">srcs/main.cpp</text>
</a>
</g>
</g>
<!-- Node7&#45;&gt;Node9 -->
<g id="edge8_Node000007_Node000009" class="edge">
<title>Node7&#45;&gt;Node9</title>
<g id="a_edge8_Node000007_Node000009"><a xlink:title=" ">
<path fill="none" stroke="#63b8ff" d="M1721.93,-52.77C1731.6,-41.89 1743.95,-27.99 1751.8,-19.17"/>
<polygon fill="#63b8ff" stroke="#63b8ff" points="1719.2,-50.57 1715.17,-60.37 1724.43,-55.22 1719.2,-50.57"/>
</a>
</g>
</g>
<!-- Node11&#45;&gt;Node5 -->
<g id="edge13_Node000011_Node000005" class="edge">
<title>Node11&#45;&gt;Node5</title>
<g id="a_edge13_Node000011_Node000005"><a xlink:title=" ">
<path fill="none" stroke="#63b8ff" d="M210.47,-176.68C211.12,-158.65 215.19,-134.88 230.5,-121 241.1,-111.39 413.92,-91.07 518.9,-79.51"/>
<polygon fill="#63b8ff" stroke="#63b8ff" points="206.97,-176.76 210.43,-186.77 213.97,-176.78 206.97,-176.76"/>
</a>
</g>
</g>
<!-- Node12 -->
<g id="Node000012" class="node">
<title>Node12</title>
<g id="a_Node000012"><a xlink:href="DeleteHandler_8cpp.html" target="_top" xlink:title=" ">
<polygon fill="white" stroke="#666666" points="183,-145.5 0,-145.5 0,-126.5 183,-126.5 183,-145.5"/>
<text text-anchor="middle" x="91.5" y="-133.5" font-family="Helvetica,sans-Serif" font-size="10.00">srcs/dispatcher/DeleteHandler.cpp</text>
</a>
</g>
</g>
<!-- Node11&#45;&gt;Node12 -->
<g id="edge12_Node000011_Node000012" class="edge">
<title>Node11&#45;&gt;Node12</title>
<g id="a_edge12_Node000011_Node000012"><a xlink:title=" ">
<path fill="none" stroke="#63b8ff" d="M176.13,-182.14C153.38,-170 124.91,-154.82 107.47,-145.52"/>
<polygon fill="#63b8ff" stroke="#63b8ff" points="174.69,-185.34 185.17,-186.95 177.99,-179.16 174.69,-185.34"/>
</a>
</g>
</g>
<!-- Node13&#45;&gt;Node5 -->
<g id="edge15_Node000013_Node000005" class="edge">
<title>Node13&#45;&gt;Node5</title>
<g id="a_edge15_Node000013_Node000005"><a xlink:title=" ">
<path fill="none" stroke="#63b8ff" d="M875.9,-120.9C789.06,-104.91 700.14,-89.02 646.74,-79.54"/>
<polygon fill="#63b8ff" stroke="#63b8ff" points="875.46,-124.38 885.93,-122.75 876.73,-117.49 875.46,-124.38"/>
</a>
</g>
</g>
<!-- Node14 -->
<g id="Node000014" class="node">
<title>Node14</title>
<g id="a_Node000014"><a xlink:href="StaticPageHandler_8cpp.html" target="_top" xlink:title=" ">
<polygon fill="white" stroke="#666666" points="1004.5,-85 860.5,-85 860.5,-55 1004.5,-55 1004.5,-85"/>
<text text-anchor="start" x="868.5" y="-73" font-family="Helvetica,sans-Serif" font-size="10.00">srcs/dispatcher/StaticPage</text>
<text text-anchor="middle" x="932.5" y="-62" font-family="Helvetica,sans-Serif" font-size="10.00">Handler.cpp</text>
</a>
</g>
</g>
<!-- Node13&#45;&gt;Node14 -->
<g id="edge16_Node000013_Node000014" class="edge">
<title>Node13&#45;&gt;Node14</title>
<g id="a_edge16_Node000013_Node000014"><a xlink:title=" ">
<path fill="none" stroke="#63b8ff" d="M943.78,-111.11C941.32,-102.38 938.63,-92.78 936.48,-85.16"/>
<polygon fill="#63b8ff" stroke="#63b8ff" points="940.43,-112.12 946.51,-120.8 947.17,-110.22 940.43,-112.12"/>
</a>
</g>
</g>
<!-- Node15&#45;&gt;Node5 -->
<g id="edge18_Node000015_Node000005" class="edge">
<title>Node15&#45;&gt;Node5</title>
<g id="a_edge18_Node000015_Node000005"><a xlink:title=" ">
<path fill="none" stroke="#63b8ff" d="M584.69,-176.57C588.54,-147.17 594.8,-99.31 597.36,-79.75"/>
<polygon fill="#63b8ff" stroke="#63b8ff" points="581.18,-176.47 583.35,-186.84 588.12,-177.38 581.18,-176.47"/>
</a>
</g>
</g>
<!-- Node16 -->
<g id="Node000016" class="node">
<title>Node16</title>
<g id="a_Node000016"><a xlink:href="UploadHandler_8cpp.html" target="_top" xlink:title=" ">
<polygon fill="white" stroke="#666666" points="424,-145.5 239,-145.5 239,-126.5 424,-126.5 424,-145.5"/>
<text text-anchor="middle" x="331.5" y="-133.5" font-family="Helvetica,sans-Serif" font-size="10.00">srcs/dispatcher/UploadHandler.cpp</text>
</a>
</g>
</g>
<!-- Node15&#45;&gt;Node16 -->
<g id="edge19_Node000015_Node000016" class="edge">
<title>Node15&#45;&gt;Node16</title>
<g id="a_edge19_Node000015_Node000016"><a xlink:title=" ">
<path fill="none" stroke="#63b8ff" d="M516.82,-184.44C468.15,-171.98 403.44,-155.42 364.77,-145.52"/>
<polygon fill="#63b8ff" stroke="#63b8ff" points="516.08,-187.87 526.64,-186.95 517.82,-181.08 516.08,-187.87"/>
</a>
</g>
</g>
<!-- Node17&#45;&gt;Node6 -->
<g id="edge21_Node000017_Node000006" class="edge">
<title>Node17&#45;&gt;Node6</title>
<g id="a_edge21_Node000017_Node000006"><a xlink:title=" ">
<path fill="none" stroke="#63b8ff" d="M1140.32,-188.36C1165.63,-177.63 1201.93,-162.25 1228.2,-151.12"/>
<polygon fill="#63b8ff" stroke="#63b8ff" points="1138.71,-185.24 1130.86,-192.37 1141.44,-191.69 1138.71,-185.24"/>
</a>
</g>
</g>
<!-- Node18 -->
<g id="Node000018" class="node">
<title>Node18</title>
<g id="a_Node000018"><a xlink:href="Dispatcher_8hpp.html" target="_top" xlink:title=" ">
<polygon fill="white" stroke="#666666" points="721,-151 610,-151 610,-121 721,-121 721,-151"/>
<text text-anchor="start" x="618" y="-139" font-family="Helvetica,sans-Serif" font-size="10.00">includes/dispatcher</text>
<text text-anchor="middle" x="665.5" y="-128" font-family="Helvetica,sans-Serif" font-size="10.00">/Dispatcher.hpp</text>
</a>
</g>
</g>
<!-- Node17&#45;&gt;Node18 -->
<g id="edge22_Node000017_Node000018" class="edge">
<title>Node17&#45;&gt;Node18</title>
<g id="a_edge22_Node000017_Node000018"><a xlink:title=" ">
<path fill="none" stroke="#63b8ff" d="M1021.08,-191.31C943.88,-182.46 829.48,-168.14 730.5,-151 727.43,-150.47 724.28,-149.89 721.11,-149.29"/>
<polygon fill="#63b8ff" stroke="#63b8ff" points="1020.92,-194.82 1031.25,-192.47 1021.71,-187.86 1020.92,-194.82"/>
</a>
</g>
</g>
<!-- Node19 -->
<g id="Node000019" class="node">
<title>Node19</title>
<g id="a_Node000019"><a xlink:href="Router_8hpp.html" target="_top" xlink:title=" ">
<polygon fill="white" stroke="#666666" points="553,-151 442,-151 442,-121 553,-121 553,-151"/>
<text text-anchor="start" x="450" y="-139" font-family="Helvetica,sans-Serif" font-size="10.00">includes/dispatcher</text>
<text text-anchor="middle" x="497.5" y="-128" font-family="Helvetica,sans-Serif" font-size="10.00">/Router.hpp</text>
</a>
</g>
</g>
<!-- Node17&#45;&gt;Node19 -->
<g id="edge25_Node000017_Node000019" class="edge">
<title>Node17&#45;&gt;Node19</title>
<g id="a_edge25_Node000017_Node000019"><a xlink:title=" ">
<path fill="none" stroke="#63b8ff" d="M1008.84,-192.1C906.01,-182.83 742.55,-167.42 601.5,-151 585.76,-149.17 568.7,-146.96 553.05,-144.85"/>
<polygon fill="#63b8ff" stroke="#63b8ff" points="1008.63,-195.59 1018.9,-193 1009.26,-188.62 1008.63,-195.59"/>
</a>
</g>
</g>
<!-- Node21 -->
<g id="Node000021" class="node">
<title>Node21</title>
<g id="a_Node000021"><a xlink:href="ServerSocket_8hpp.html" target="_top" xlink:title=" ">
<polygon fill="white" stroke="#666666" points="1789.5,-145.5 1625.5,-145.5 1625.5,-126.5 1789.5,-126.5 1789.5,-145.5"/>
<text text-anchor="middle" x="1707.5" y="-133.5" font-family="Helvetica,sans-Serif" font-size="10.00">includes/init/ServerSocket.hpp</text>
</a>
</g>
</g>
<!-- Node17&#45;&gt;Node21 -->
<g id="edge28_Node000017_Node000021" class="edge">
<title>Node17&#45;&gt;Node21</title>
<g id="a_edge28_Node000017_Node000021"><a xlink:title=" ">
<path fill="none" stroke="#63b8ff" d="M1200.37,-191.37C1316.56,-178.91 1517.09,-157.41 1627.99,-145.52"/>
<polygon fill="#63b8ff" stroke="#63b8ff" points="1199.66,-187.92 1190.09,-192.47 1200.4,-194.88 1199.66,-187.92"/>
</a>
</g>
</g>
<!-- Node23 -->
<g id="Node000023" class="node">
<title>Node23</title>
<g id="a_Node000023"><a xlink:href="ResponseBuilder_8hpp.html" target="_top" xlink:title=" ">
<polygon fill="white" stroke="#666666" points="1188,-151 1033,-151 1033,-121 1188,-121 1188,-151"/>
<text text-anchor="start" x="1041" y="-139" font-family="Helvetica,sans-Serif" font-size="10.00">includes/response/Response</text>
<text text-anchor="middle" x="1110.5" y="-128" font-family="Helvetica,sans-Serif" font-size="10.00">Builder.hpp</text>
</a>
</g>
</g>
<!-- Node17&#45;&gt;Node23 -->
<g id="edge32_Node000017_Node000023" class="edge">
<title>Node17&#45;&gt;Node23</title>
<g id="a_edge32_Node000017_Node000023"><a xlink:title=" ">
<path fill="none" stroke="#63b8ff" d="M1110.5,-182.35C1110.5,-172.47 1110.5,-160.51 1110.5,-151.36"/>
<polygon fill="#63b8ff" stroke="#63b8ff" points="1107,-182.37 1110.5,-192.37 1114,-182.37 1107,-182.37"/>
</a>
</g>
</g>
<!-- Node24 -->
<g id="Node000024" class="node">
<title>Node24</title>
<g id="a_Node000024"><a xlink:href="ClientConnection_8cpp.html" target="_top" xlink:title=" ">
<polygon fill="white" stroke="#666666" points="1613,-79.5 1452,-79.5 1452,-60.5 1613,-60.5 1613,-79.5"/>
<text text-anchor="middle" x="1532.5" y="-67.5" font-family="Helvetica,sans-Serif" font-size="10.00">srcs/init/ClientConnection.cpp</text>
</a>
</g>
</g>
<!-- Node17&#45;&gt;Node24 -->
<g id="edge40_Node000017_Node000024" class="edge">
<title>Node17&#45;&gt;Node24</title>
<g id="a_edge40_Node000017_Node000024"><a xlink:title=" ">
<path fill="none" stroke="#63b8ff" d="M1166.02,-190.43C1209.99,-181.51 1272.75,-167.56 1326.5,-151 1396.71,-129.36 1477.15,-95.33 1513.23,-79.56"/>
<polygon fill="#63b8ff" stroke="#63b8ff" points="1165.21,-187.02 1156.09,-192.42 1166.59,-193.88 1165.21,-187.02"/>
</a>
</g>
</g>
<!-- Node18&#45;&gt;Node5 -->
<g id="edge23_Node000018_Node000005" class="edge">
<title>Node18&#45;&gt;Node5</title>
<g id="a_edge23_Node000018_Node000005"><a xlink:title=" ">
<path fill="none" stroke="#63b8ff" d="M643.1,-113.6C631.05,-102.1 616.84,-88.52 607.76,-79.84"/>
<polygon fill="#63b8ff" stroke="#63b8ff" points="640.98,-116.42 650.63,-120.8 645.82,-111.36 640.98,-116.42"/>
</a>
</g>
</g>
<!-- Node18&#45;&gt;Node8 -->
<g id="edge24_Node000018_Node000008" class="edge">
<title>Node18&#45;&gt;Node8</title>
<g id="a_edge24_Node000018_Node000008"><a xlink:title=" ">
<path fill="none" stroke="#63b8ff" d="M599.84,-124.64C542.94,-113 474.53,-90.88 507.5,-55 538.04,-21.76 833.57,-13.33 967.32,-11.2"/>
<polygon fill="#63b8ff" stroke="#63b8ff" points="599.45,-128.13 609.94,-126.62 600.8,-121.26 599.45,-128.13"/>
</a>
</g>
</g>
<!-- Node19&#45;&gt;Node5 -->
<g id="edge26_Node000019_Node000005" class="edge">
<title>Node19&#45;&gt;Node5</title>
<g id="a_edge26_Node000019_Node000005"><a xlink:title=" ">
<path fill="none" stroke="#63b8ff" d="M528.49,-115.36C547.33,-103.42 570.45,-88.77 584.84,-79.66"/>
<polygon fill="#63b8ff" stroke="#63b8ff" points="526.49,-112.49 519.92,-120.8 530.24,-118.4 526.49,-112.49"/>
</a>
</g>
</g>
<!-- Node20 -->
<g id="Node000020" class="node">
<title>Node20</title>
<g id="a_Node000020"><a xlink:href="Router_8cpp.html" target="_top" xlink:title=" ">
<polygon fill="white" stroke="#666666" points="459,-79.5 314,-79.5 314,-60.5 459,-60.5 459,-79.5"/>
<text text-anchor="middle" x="386.5" y="-67.5" font-family="Helvetica,sans-Serif" font-size="10.00">srcs/dispatcher/Router.cpp</text>
</a>
</g>
</g>
<!-- Node19&#45;&gt;Node20 -->
<g id="edge27_Node000019_Node000020" class="edge">
<title>Node19&#45;&gt;Node20</title>
<g id="a_edge27_Node000019_Node000020"><a xlink:title=" ">
<path fill="none" stroke="#63b8ff" d="M464.22,-115.81C443.27,-103.73 417.26,-88.73 401.27,-79.52"/>
<polygon fill="#63b8ff" stroke="#63b8ff" points="462.73,-118.99 473.14,-120.95 466.23,-112.93 462.73,-118.99"/>
</a>
</g>
</g>
<!-- Node21&#45;&gt;Node7 -->
<g id="edge29_Node000021_Node000007" class="edge">
<title>Node21&#45;&gt;Node7</title>
<g id="a_edge29_Node000021_Node000007"><a xlink:title=" ">
<path fill="none" stroke="#63b8ff" d="M1707.5,-116.08C1707.5,-104.13 1707.5,-89.22 1707.5,-79.91"/>
<polygon fill="#63b8ff" stroke="#63b8ff" points="1704,-116.37 1707.5,-126.37 1711,-116.37 1704,-116.37"/>
</a>
</g>
</g>
<!-- Node21&#45;&gt;Node9 -->
<g id="edge31_Node000021_Node000009" class="edge">
<title>Node21&#45;&gt;Node9</title>
<g id="a_edge31_Node000021_Node000009"><a xlink:title=" ">
<path fill="none" stroke="#63b8ff" d="M1745.8,-122.56C1763.32,-114.73 1782.39,-102.68 1792.5,-85 1805.56,-62.16 1782.22,-33.18 1768.48,-19.04"/>
<polygon fill="#63b8ff" stroke="#63b8ff" points="1744.2,-119.43 1736.29,-126.48 1746.87,-125.9 1744.2,-119.43"/>
</a>
</g>
</g>
<!-- Node22 -->
<g id="Node000022" class="node">
<title>Node22</title>
<g id="a_Node000022"><a xlink:href="ServerSocket_8cpp.html" target="_top" xlink:title=" ">
<polygon fill="white" stroke="#666666" points="1981.5,-79.5 1839.5,-79.5 1839.5,-60.5 1981.5,-60.5 1981.5,-79.5"/>
<text text-anchor="middle" x="1910.5" y="-67.5" font-family="Helvetica,sans-Serif" font-size="10.00">srcs/init/ServerSocket.cpp</text>
</a>
</g>
</g>
<!-- Node21&#45;&gt;Node22 -->
<g id="edge30_Node000021_Node000022" class="edge">
<title>Node21&#45;&gt;Node22</title>
<g id="a_edge30_Node000021_Node000022"><a xlink:title=" ">
<path fill="none" stroke="#63b8ff" d="M1744.54,-123.32C1784.58,-110.7 1847.47,-90.87 1883.23,-79.6"/>
<polygon fill="#63b8ff" stroke="#63b8ff" points="1743.36,-120.02 1734.88,-126.37 1745.47,-126.7 1743.36,-120.02"/>
</a>
</g>
</g>
<!-- Node23&#45;&gt;Node4 -->
<g id="edge33_Node000023_Node000004" class="edge">
<title>Node23&#45;&gt;Node4</title>
<g id="a_edge33_Node000023_Node000004"><a xlink:title=" ">
<path fill="none" stroke="#63b8ff" d="M1025.89,-119.07C969.31,-108.42 895.68,-94.56 842.03,-84.46"/>
<polygon fill="#63b8ff" stroke="#63b8ff" points="1025.41,-122.54 1035.89,-120.95 1026.71,-115.67 1025.41,-122.54"/>
</a>
</g>
</g>
<!-- Node23&#45;&gt;Node5 -->
<g id="edge35_Node000023_Node000005" class="edge">
<title>Node23&#45;&gt;Node5</title>
<g id="a_edge35_Node000023_Node000005"><a xlink:title=" ">
<path fill="none" stroke="#63b8ff" d="M1022.37,-120.76C874.78,-101.13 835.23,-103.8 690.5,-85 678,-83.38 664.58,-81.44 651.96,-79.54"/>
<polygon fill="#63b8ff" stroke="#63b8ff" points="1022.34,-124.28 1032.71,-122.14 1023.27,-117.34 1022.34,-124.28"/>
</a>
</g>
</g>
<!-- Node23&#45;&gt;Node8 -->
<g id="edge38_Node000023_Node000008" class="edge">
<title>Node23&#45;&gt;Node8</title>
<g id="a_edge38_Node000023_Node000008"><a xlink:title=" ">
<path fill="none" stroke="#63b8ff" d="M1079.71,-114.85C1069.39,-106.71 1058.69,-96.5 1051.5,-85 1038.34,-63.95 1034.27,-34.16 1033.03,-19.44"/>
<polygon fill="#63b8ff" stroke="#63b8ff" points="1077.73,-117.74 1087.83,-120.93 1081.92,-112.14 1077.73,-117.74"/>
</a>
</g>
</g>
<!-- Node23&#45;&gt;Node10 -->
<g id="edge34_Node000023_Node000010" class="edge">
<title>Node23&#45;&gt;Node10</title>
<g id="a_edge34_Node000023_Node000010"><a xlink:title=" ">
<path fill="none" stroke="#63b8ff" d="M1172.89,-118.36C1219.57,-105.91 1281.52,-89.4 1318.56,-79.52"/>
<polygon fill="#63b8ff" stroke="#63b8ff" points="1171.93,-115 1163.17,-120.95 1173.73,-121.76 1171.93,-115"/>
</a>
</g>
</g>
<!-- Node23&#45;&gt;Node14 -->
<g id="edge36_Node000023_Node000014" class="edge">
<title>Node23&#45;&gt;Node14</title>
<g id="a_edge36_Node000023_Node000014"><a xlink:title=" ">
<path fill="none" stroke="#63b8ff" d="M1061.71,-117.46C1033.31,-107.25 998,-94.55 971.47,-85.01"/>
<polygon fill="#63b8ff" stroke="#63b8ff" points="1060.84,-120.86 1071.44,-120.95 1063.21,-114.28 1060.84,-120.86"/>
</a>
</g>
</g>
<!-- Node23&#45;&gt;Node24 -->
<g id="edge37_Node000023_Node000024" class="edge">
<title>Node23&#45;&gt;Node24</title>
<g id="a_edge37_Node000023_Node000024"><a xlink:title=" ">
<path fill="none" stroke="#63b8ff" d="M1198.46,-120.87C1308.4,-104.06 1337.45,-101.1 1443.5,-85 1454.94,-83.26 1467.21,-81.36 1478.86,-79.53"/>
<polygon fill="#63b8ff" stroke="#63b8ff" points="1197.63,-117.45 1188.28,-122.43 1198.69,-124.37 1197.63,-117.45"/>
</a>
</g>
</g>
<!-- Node25 -->
<g id="Node000025" class="node">
<title>Node25</title>
<g id="a_Node000025"><a xlink:href="ResponseBuilder_8cpp.html" target="_top" xlink:title=" ">
<polygon fill="white" stroke="#666666" points="1248.5,-79.5 1060.5,-79.5 1060.5,-60.5 1248.5,-60.5 1248.5,-79.5"/>
<text text-anchor="middle" x="1154.5" y="-67.5" font-family="Helvetica,sans-Serif" font-size="10.00">srcs/response/ResponseBuilder.cpp</text>
</a>
</g>
</g>
<!-- Node23&#45;&gt;Node25 -->
<g id="edge39_Node000023_Node000025" class="edge">
<title>Node23&#45;&gt;Node25</title>
<g id="a_edge39_Node000023_Node000025"><a xlink:title=" ">
<path fill="none" stroke="#63b8ff" d="M1126.12,-112.28C1133.83,-101.07 1142.68,-88.19 1148.42,-79.84"/>
<polygon fill="#63b8ff" stroke="#63b8ff" points="1123.05,-110.57 1120.27,-120.8 1128.81,-114.54 1123.05,-110.57"/>
</a>
</g>
</g>
<!-- Node26&#45;&gt;Node24 -->
<g id="edge42_Node000026_Node000024" class="edge">
<title>Node26&#45;&gt;Node24</title>
<g id="a_edge42_Node000026_Node000024"><a xlink:title=" ">
<path fill="none" stroke="#63b8ff" d="M1447.04,-178.86C1470.13,-149.72 1509.66,-99.83 1525.57,-79.75"/>
<polygon fill="#63b8ff" stroke="#63b8ff" points="1444.19,-176.83 1440.72,-186.84 1449.67,-181.18 1444.19,-176.83"/>
</a>
</g>
</g>
<!-- Node27 -->
<g id="Node000027" class="node">
<title>Node27</title>
<g id="a_Node000027"><a xlink:href="RequestParse_8cpp.html" target="_top" xlink:title=" ">
<polygon fill="white" stroke="#666666" points="1973,-145.5 1808,-145.5 1808,-126.5 1973,-126.5 1973,-145.5"/>
<text text-anchor="middle" x="1890.5" y="-133.5" font-family="Helvetica,sans-Serif" font-size="10.00">srcs/request/RequestParse.cpp</text>
</a>
</g>
</g>
<!-- Node26&#45;&gt;Node27 -->
<g id="edge43_Node000026_Node000027" class="edge">
<title>Node26&#45;&gt;Node27</title>
<g id="a_edge43_Node000026_Node000027"><a xlink:title=" ">
<path fill="none" stroke="#63b8ff" d="M1509.94,-186.83C1638.66,-167.71 1673.11,-168.32 1798.5,-151 1810.66,-149.32 1823.71,-147.4 1836.05,-145.54"/>
<polygon fill="#63b8ff" stroke="#63b8ff" points="1509.05,-183.43 1499.68,-188.37 1510.09,-190.35 1509.05,-183.43"/>
</a>
</g>
</g>
</g>
</svg>
