<?xml version="1.0" encoding="UTF-8" standalone="no"?>
<!DOCTYPE svg PUBLIC "-//W3C//DTD SVG 1.1//EN"
 "http://www.w3.org/Graphics/SVG/1.1/DTD/svg11.dtd">
<!-- Generated by graphviz version 2.43.0 (0)
 -->
<!-- Title: RequestMethod.hpp Pages: 1 -->
<svg width="1856pt" height="302pt"
 viewBox="0.00 0.00 1855.50 302.00" xmlns="http://www.w3.org/2000/svg" xmlns:xlink="http://www.w3.org/1999/xlink">
<g id="graph0" class="graph" transform="scale(1 1) rotate(0) translate(4 298)">
<title>RequestMethod.hpp</title>
<!-- Node1 -->
<g id="Node000001" class="node">
<title>Node1</title>
<g id="a_Node000001"><a xlink:title=" ">
<polygon fill="#999999" stroke="#666666" points="1759,-294 1645,-294 1645,-275 1759,-275 1759,-294"/>
<text text-anchor="middle" x="1702" y="-282" font-family="Helvetica,sans-Serif" font-size="10.00">RequestMethod.hpp</text>
</a>
</g>
</g>
<!-- Node2 -->
<g id="Node000002" class="node">
<title>Node2</title>
<g id="a_Node000002"><a xlink:href="ConfigParser_8hpp.html" target="_top" xlink:title=" ">
<polygon fill="white" stroke="#666666" points="1628,-74 1530,-74 1530,-55 1628,-55 1628,-74"/>
<text text-anchor="middle" x="1579" y="-62" font-family="Helvetica,sans-Serif" font-size="10.00">ConfigParser.hpp</text>
</a>
</g>
</g>
<!-- Node1&#45;&gt;Node2 -->
<g id="edge1_Node000001_Node000002" class="edge">
<title>Node1&#45;&gt;Node2</title>
<g id="a_edge1_Node000001_Node000002"><a xlink:title=" ">
<path fill="none" stroke="#63b8ff" d="M1721.88,-268.53C1761.32,-237.07 1842.06,-162.65 1799,-110 1777.84,-84.14 1686.3,-72.95 1628.17,-68.39"/>
<polygon fill="#63b8ff" stroke="#63b8ff" points="1719.45,-265.99 1713.72,-274.9 1723.75,-271.51 1719.45,-265.99"/>
</a>
</g>
</g>
<!-- Node5 -->
<g id="Node000005" class="node">
<title>Node5</title>
<g id="a_Node000005"><a xlink:href="HttpRequest_8hpp.html" target="_top" xlink:title=" ">
<polygon fill="white" stroke="#666666" points="532,-239 434,-239 434,-220 532,-220 532,-239"/>
<text text-anchor="middle" x="483" y="-227" font-family="Helvetica,sans-Serif" font-size="10.00">HttpRequest.hpp</text>
</a>
</g>
</g>
<!-- Node1&#45;&gt;Node5 -->
<g id="edge4_Node000001_Node000005" class="edge">
<title>Node1&#45;&gt;Node5</title>
<g id="a_edge4_Node000001_Node000005"><a xlink:title=" ">
<path fill="none" stroke="#63b8ff" d="M1634.75,-280.58C1415.28,-271.03 723.09,-240.94 532.18,-232.64"/>
<polygon fill="#63b8ff" stroke="#63b8ff" points="1634.7,-284.08 1644.84,-281.01 1635,-277.08 1634.7,-284.08"/>
</a>
</g>
</g>
<!-- Node26 -->
<g id="Node000026" class="node">
<title>Node26</title>
<g id="a_Node000026"><a xlink:href="RequestParse_8hpp.html" target="_top" xlink:title=" ">
<polygon fill="white" stroke="#666666" points="1673,-129 1569,-129 1569,-110 1673,-110 1673,-129"/>
<text text-anchor="middle" x="1621" y="-117" font-family="Helvetica,sans-Serif" font-size="10.00">RequestParse.hpp</text>
</a>
</g>
</g>
<!-- Node1&#45;&gt;Node26 -->
<g id="edge74_Node000001_Node000026" class="edge">
<title>Node1&#45;&gt;Node26</title>
<g id="a_edge74_Node000001_Node000026"><a xlink:title=" ">
<path fill="none" stroke="#63b8ff" d="M1707.65,-265.15C1714.1,-240.48 1721.52,-196.12 1703,-165 1692.23,-146.91 1671.25,-135.71 1653.21,-129.08"/>
<polygon fill="#63b8ff" stroke="#63b8ff" points="1704.23,-264.4 1704.86,-274.98 1710.96,-266.32 1704.23,-264.4"/>
</a>
</g>
</g>
<!-- Node27 -->
<g id="Node000027" class="node">
<title>Node27</title>
<g id="a_Node000027"><a xlink:href="RequestParse_8cpp.html" target="_top" xlink:title=" ">
<polygon fill="white" stroke="#666666" points="1847.5,-74 1744.5,-74 1744.5,-55 1847.5,-55 1847.5,-74"/>
<text text-anchor="middle" x="1796" y="-62" font-family="Helvetica,sans-Serif" font-size="10.00">RequestParse.cpp</text>
</a>
</g>
</g>
<!-- Node1&#45;&gt;Node27 -->
<g id="edge73_Node000001_Node000027" class="edge">
<title>Node1&#45;&gt;Node27</title>
<g id="a_edge73_Node000001_Node000027"><a xlink:title=" ">
<path fill="none" stroke="#63b8ff" d="M1769.01,-276.87C1793.21,-270.86 1818.18,-259.68 1833,-239 1871.21,-185.67 1820.22,-100.98 1802.01,-74.03"/>
<polygon fill="#63b8ff" stroke="#63b8ff" points="1768.09,-273.49 1759.08,-279.07 1769.6,-280.33 1768.09,-273.49"/>
</a>
</g>
</g>
<!-- Node31 -->
<g id="Node000031" class="node">
<title>Node31</title>
<g id="a_Node000031"><a xlink:href="LocationConfig_8cpp.html" target="_top" xlink:title=" ">
<polygon fill="white" stroke="#666666" points="1694.5,-184 1585.5,-184 1585.5,-165 1694.5,-165 1694.5,-184"/>
<text text-anchor="middle" x="1640" y="-172" font-family="Helvetica,sans-Serif" font-size="10.00">LocationConfig.cpp</text>
</a>
</g>
</g>
<!-- Node1&#45;&gt;Node31 -->
<g id="edge48_Node000001_Node000031" class="edge">
<title>Node1&#45;&gt;Node31</title>
<g id="a_edge48_Node000001_Node000031"><a xlink:title=" ">
<path fill="none" stroke="#63b8ff" d="M1691.81,-265.76C1678.34,-242.28 1655.11,-201.81 1644.97,-184.16"/>
<polygon fill="#63b8ff" stroke="#63b8ff" points="1688.91,-267.73 1696.93,-274.66 1694.98,-264.25 1688.91,-267.73"/>
</a>
</g>
</g>
<!-- Node32 -->
<g id="Node000032" class="node">
<title>Node32</title>
<g id="a_Node000032"><a xlink:href="LocationConfig_8hpp.html" target="_top" xlink:title=" ">
<polygon fill="white" stroke="#666666" points="1458,-239 1348,-239 1348,-220 1458,-220 1458,-239"/>
<text text-anchor="middle" x="1403" y="-227" font-family="Helvetica,sans-Serif" font-size="10.00">LocationConfig.hpp</text>
</a>
</g>
</g>
<!-- Node1&#45;&gt;Node32 -->
<g id="edge49_Node000001_Node000032" class="edge">
<title>Node1&#45;&gt;Node32</title>
<g id="a_edge49_Node000001_Node000032"><a xlink:title=" ">
<path fill="none" stroke="#63b8ff" d="M1643.83,-273.19C1587.77,-263.25 1503.94,-248.39 1451.42,-239.08"/>
<polygon fill="#63b8ff" stroke="#63b8ff" points="1643.5,-276.69 1653.96,-274.98 1644.72,-269.79 1643.5,-276.69"/>
</a>
</g>
</g>
<!-- Node33 -->
<g id="Node000033" class="node">
<title>Node33</title>
<g id="a_Node000033"><a xlink:href="ServerConfig_8cpp.html" target="_top" xlink:title=" ">
<polygon fill="white" stroke="#666666" points="1790.5,-129 1691.5,-129 1691.5,-110 1790.5,-110 1790.5,-129"/>
<text text-anchor="middle" x="1741" y="-117" font-family="Helvetica,sans-Serif" font-size="10.00">ServerConfig.cpp</text>
</a>
</g>
</g>
<!-- Node1&#45;&gt;Node33 -->
<g id="edge75_Node000001_Node000033" class="edge">
<title>Node1&#45;&gt;Node33</title>
<g id="a_edge75_Node000001_Node000033"><a xlink:title=" ">
<path fill="none" stroke="#63b8ff" d="M1718.76,-267.39C1725.76,-259.55 1733.15,-249.55 1737,-239 1751.19,-200.13 1745.56,-149.25 1742.49,-129.18"/>
<polygon fill="#63b8ff" stroke="#63b8ff" points="1716.14,-265.06 1711.77,-274.71 1721.21,-269.89 1716.14,-265.06"/>
</a>
</g>
</g>
<!-- Node34 -->
<g id="Node000034" class="node">
<title>Node34</title>
<g id="a_Node000034"><a xlink:href="ServerConfig_8hpp.html" target="_top" xlink:title=" ">
<polygon fill="white" stroke="#666666" points="1453,-184 1353,-184 1353,-165 1453,-165 1453,-184"/>
<text text-anchor="middle" x="1403" y="-172" font-family="Helvetica,sans-Serif" font-size="10.00">ServerConfig.hpp</text>
</a>
</g>
</g>
<!-- Node1&#45;&gt;Node34 -->
<g id="edge76_Node000001_Node000034" class="edge">
<title>Node1&#45;&gt;Node34</title>
<g id="a_edge76_Node000001_Node000034"><a xlink:title=" ">
<path fill="none" stroke="#63b8ff" d="M1668.76,-271.5C1607.85,-249.49 1479.71,-203.21 1426.71,-184.07"/>
<polygon fill="#63b8ff" stroke="#63b8ff" points="1667.69,-274.83 1678.29,-274.94 1670.07,-268.25 1667.69,-274.83"/>
</a>
</g>
</g>
<!-- Node3 -->
<g id="Node000003" class="node">
<title>Node3</title>
<g id="a_Node000003"><a xlink:href="ConfigParser_8cpp.html" target="_top" xlink:title=" ">
<polygon fill="white" stroke="#666666" points="1665.5,-19 1568.5,-19 1568.5,0 1665.5,0 1665.5,-19"/>
<text text-anchor="middle" x="1617" y="-7" font-family="Helvetica,sans-Serif" font-size="10.00">ConfigParser.cpp</text>
</a>
</g>
</g>
<!-- Node2&#45;&gt;Node3 -->
<g id="edge2_Node000002_Node000003" class="edge">
<title>Node2&#45;&gt;Node3</title>
<g id="a_edge2_Node000002_Node000003"><a xlink:title=" ">
<path fill="none" stroke="#63b8ff" d="M1591.27,-46.39C1597.81,-37.27 1605.57,-26.45 1610.84,-19.09"/>
<polygon fill="#63b8ff" stroke="#63b8ff" points="1588.26,-44.58 1585.27,-54.75 1593.95,-48.66 1588.26,-44.58"/>
</a>
</g>
</g>
<!-- Node4 -->
<g id="Node000004" class="node">
<title>Node4</title>
<g id="a_Node000004"><a xlink:href="main_8cpp.html" target="_top" xlink:title=" ">
<polygon fill="white" stroke="#666666" points="1299,-19 1237,-19 1237,0 1299,0 1299,-19"/>
<text text-anchor="middle" x="1268" y="-7" font-family="Helvetica,sans-Serif" font-size="10.00">main.cpp</text>
</a>
</g>
</g>
<!-- Node2&#45;&gt;Node4 -->
<g id="edge3_Node000002_Node000004" class="edge">
<title>Node2&#45;&gt;Node4</title>
<g id="a_edge3_Node000002_Node000004"><a xlink:title=" ">
<path fill="none" stroke="#63b8ff" d="M1519.51,-53.36C1453.77,-42.16 1350.43,-24.55 1299.09,-15.8"/>
<polygon fill="#63b8ff" stroke="#63b8ff" points="1519.28,-56.87 1529.72,-55.1 1520.45,-49.97 1519.28,-56.87"/>
</a>
</g>
</g>
<!-- Node6 -->
<g id="Node000006" class="node">
<title>Node6</title>
<g id="a_Node000006"><a xlink:href="AutoIndexHandler_8hpp.html" target="_top" xlink:title=" ">
<polygon fill="white" stroke="#666666" points="617.5,-129 492.5,-129 492.5,-110 617.5,-110 617.5,-129"/>
<text text-anchor="middle" x="555" y="-117" font-family="Helvetica,sans-Serif" font-size="10.00">AutoIndexHandler.hpp</text>
</a>
</g>
</g>
<!-- Node5&#45;&gt;Node6 -->
<g id="edge5_Node000005_Node000006" class="edge">
<title>Node5&#45;&gt;Node6</title>
<g id="a_edge5_Node000005_Node000006"><a xlink:title=" ">
<path fill="none" stroke="#63b8ff" d="M453.4,-215.33C430.53,-203.27 404.95,-184.38 419,-165 435.84,-141.77 465.17,-130.44 492.29,-125.01"/>
<polygon fill="#63b8ff" stroke="#63b8ff" points="452.08,-218.58 462.59,-219.92 455.2,-212.32 452.08,-218.58"/>
</a>
</g>
</g>
<!-- Node9 -->
<g id="Node000009" class="node">
<title>Node9</title>
<g id="a_Node000009"><a xlink:href="CgiHandler_8hpp.html" target="_top" xlink:title=" ">
<polygon fill="white" stroke="#666666" points="1029.5,-129 938.5,-129 938.5,-110 1029.5,-110 1029.5,-129"/>
<text text-anchor="middle" x="984" y="-117" font-family="Helvetica,sans-Serif" font-size="10.00">CgiHandler.hpp</text>
</a>
</g>
</g>
<!-- Node5&#45;&gt;Node9 -->
<g id="edge8_Node000005_Node000009" class="edge">
<title>Node5&#45;&gt;Node9</title>
<g id="a_edge8_Node000005_Node000009"><a xlink:title=" ">
<path fill="none" stroke="#63b8ff" d="M532.52,-217.82C631.85,-196.41 853.64,-148.6 944.26,-129.07"/>
<polygon fill="#63b8ff" stroke="#63b8ff" points="531.77,-214.41 522.73,-219.94 533.24,-221.25 531.77,-214.41"/>
</a>
</g>
</g>
<!-- Node13 -->
<g id="Node000013" class="node">
<title>Node13</title>
<g id="a_Node000013"><a xlink:href="ClientConnection_8hpp.html" target="_top" xlink:title=" ">
<polygon fill="white" stroke="#666666" points="1044.5,-184 923.5,-184 923.5,-165 1044.5,-165 1044.5,-184"/>
<text text-anchor="middle" x="984" y="-172" font-family="Helvetica,sans-Serif" font-size="10.00">ClientConnection.hpp</text>
</a>
</g>
</g>
<!-- Node5&#45;&gt;Node13 -->
<g id="edge14_Node000005_Node000013" class="edge">
<title>Node5&#45;&gt;Node13</title>
<g id="a_edge14_Node000005_Node000013"><a xlink:title=" ">
<path fill="none" stroke="#63b8ff" d="M542.53,-222.2C638.57,-212.04 826.67,-192.14 923.39,-181.91"/>
<polygon fill="#63b8ff" stroke="#63b8ff" points="541.99,-218.74 532.41,-223.27 542.72,-225.7 541.99,-218.74"/>
</a>
</g>
</g>
<!-- Node23 -->
<g id="Node000023" class="node">
<title>Node23</title>
<g id="a_Node000023"><a xlink:href="DeleteHandler_8hpp.html" target="_top" xlink:title=" ">
<polygon fill="white" stroke="#666666" points="333.5,-184 226.5,-184 226.5,-165 333.5,-165 333.5,-184"/>
<text text-anchor="middle" x="280" y="-172" font-family="Helvetica,sans-Serif" font-size="10.00">DeleteHandler.hpp</text>
</a>
</g>
</g>
<!-- Node5&#45;&gt;Node23 -->
<g id="edge35_Node000005_Node000023" class="edge">
<title>Node5&#45;&gt;Node23</title>
<g id="a_edge35_Node000005_Node000023"><a xlink:title=" ">
<path fill="none" stroke="#63b8ff" d="M440.63,-217.44C402.63,-207.52 347.64,-193.16 312.87,-184.08"/>
<polygon fill="#63b8ff" stroke="#63b8ff" points="439.82,-220.84 450.38,-219.98 441.59,-214.07 439.82,-220.84"/>
</a>
</g>
</g>
<!-- Node25 -->
<g id="Node000025" class="node">
<title>Node25</title>
<g id="a_Node000025"><a xlink:href="HttpRequest_8cpp.html" target="_top" xlink:title=" ">
<polygon fill="white" stroke="#666666" points="170,-184 72,-184 72,-165 170,-165 170,-184"/>
<text text-anchor="middle" x="121" y="-172" font-family="Helvetica,sans-Serif" font-size="10.00">HttpRequest.cpp</text>
</a>
</g>
</g>
<!-- Node5&#45;&gt;Node25 -->
<g id="edge38_Node000005_Node000025" class="edge">
<title>Node5&#45;&gt;Node25</title>
<g id="a_edge38_Node000005_Node000025"><a xlink:title=" ">
<path fill="none" stroke="#63b8ff" d="M423.71,-219.82C352.97,-209.46 236,-192.34 170.09,-182.69"/>
<polygon fill="#63b8ff" stroke="#63b8ff" points="423.4,-223.31 433.8,-221.3 424.41,-216.39 423.4,-223.31"/>
</a>
</g>
</g>
<!-- Node5&#45;&gt;Node26 -->
<g id="edge39_Node000005_Node000026" class="edge">
<title>Node5&#45;&gt;Node26</title>
<g id="a_edge39_Node000005_Node000026"><a xlink:title=" ">
<path fill="none" stroke="#63b8ff" d="M542.44,-227.43C741.03,-223.64 1374.05,-209.66 1462,-184 1478.25,-179.26 1479.62,-172.07 1495,-165 1527.35,-150.12 1566.21,-137.09 1592.14,-129.03"/>
<polygon fill="#63b8ff" stroke="#63b8ff" points="542.13,-223.94 532.2,-227.63 542.26,-230.94 542.13,-223.94"/>
</a>
</g>
</g>
<!-- Node28 -->
<g id="Node000028" class="node">
<title>Node28</title>
<g id="a_Node000028"><a xlink:href="StaticPageHandler_8hpp.html" target="_top" xlink:title=" ">
<polygon fill="white" stroke="#666666" points="126,-129 0,-129 0,-110 126,-110 126,-129"/>
<text text-anchor="middle" x="63" y="-117" font-family="Helvetica,sans-Serif" font-size="10.00">StaticPageHandler.hpp</text>
</a>
</g>
</g>
<!-- Node5&#45;&gt;Node28 -->
<g id="edge42_Node000005_Node000028" class="edge">
<title>Node5&#45;&gt;Node28</title>
<g id="a_edge42_Node000005_Node000028"><a xlink:title=" ">
<path fill="none" stroke="#63b8ff" d="M423.69,-223.68C368.98,-218.04 286.01,-206.47 217,-184 199.04,-178.16 196.28,-172.61 179,-165 147.81,-151.26 110.93,-137.53 87.27,-129.03"/>
<polygon fill="#63b8ff" stroke="#63b8ff" points="423.61,-227.19 433.91,-224.69 424.31,-220.22 423.61,-227.19"/>
</a>
</g>
</g>
<!-- Node29 -->
<g id="Node000029" class="node">
<title>Node29</title>
<g id="a_Node000029"><a xlink:href="UploadHandler_8hpp.html" target="_top" xlink:title=" ">
<polygon fill="white" stroke="#666666" points="538,-184 428,-184 428,-165 538,-165 538,-184"/>
<text text-anchor="middle" x="483" y="-172" font-family="Helvetica,sans-Serif" font-size="10.00">UploadHandler.hpp</text>
</a>
</g>
</g>
<!-- Node5&#45;&gt;Node29 -->
<g id="edge45_Node000005_Node000029" class="edge">
<title>Node5&#45;&gt;Node29</title>
<g id="a_edge45_Node000005_Node000029"><a xlink:title=" ">
<path fill="none" stroke="#63b8ff" d="M483,-209.66C483,-200.93 483,-190.99 483,-184.09"/>
<polygon fill="#63b8ff" stroke="#63b8ff" points="479.5,-209.75 483,-219.75 486.5,-209.75 479.5,-209.75"/>
</a>
</g>
</g>
<!-- Node7 -->
<g id="Node000007" class="node">
<title>Node7</title>
<g id="a_Node000007"><a xlink:href="AutoIndexHandler_8cpp.html" target="_top" xlink:title=" ">
<polygon fill="white" stroke="#666666" points="617,-74 493,-74 493,-55 617,-55 617,-74"/>
<text text-anchor="middle" x="555" y="-62" font-family="Helvetica,sans-Serif" font-size="10.00">AutoIndexHandler.cpp</text>
</a>
</g>
</g>
<!-- Node6&#45;&gt;Node7 -->
<g id="edge6_Node000006_Node000007" class="edge">
<title>Node6&#45;&gt;Node7</title>
<g id="a_edge6_Node000006_Node000007"><a xlink:title=" ">
<path fill="none" stroke="#63b8ff" d="M555,-99.66C555,-90.93 555,-80.99 555,-74.09"/>
<polygon fill="#63b8ff" stroke="#63b8ff" points="551.5,-99.75 555,-109.75 558.5,-99.75 551.5,-99.75"/>
</a>
</g>
</g>
<!-- Node8 -->
<g id="Node000008" class="node">
<title>Node8</title>
<g id="a_Node000008"><a xlink:href="Dispatcher_8cpp.html" target="_top" xlink:title=" ">
<polygon fill="white" stroke="#666666" points="475.5,-74 386.5,-74 386.5,-55 475.5,-55 475.5,-74"/>
<text text-anchor="middle" x="431" y="-62" font-family="Helvetica,sans-Serif" font-size="10.00">Dispatcher.cpp</text>
</a>
</g>
</g>
<!-- Node6&#45;&gt;Node8 -->
<g id="edge7_Node000006_Node000008" class="edge">
<title>Node6&#45;&gt;Node8</title>
<g id="a_edge7_Node000006_Node000008"><a xlink:title=" ">
<path fill="none" stroke="#63b8ff" d="M525.82,-106.03C502.89,-96.23 471.55,-82.83 451.29,-74.17"/>
<polygon fill="#63b8ff" stroke="#63b8ff" points="524.51,-109.27 535.08,-109.98 527.26,-102.84 524.51,-109.27"/>
</a>
</g>
</g>
<!-- Node9&#45;&gt;Node8 -->
<g id="edge10_Node000009_Node000008" class="edge">
<title>Node9&#45;&gt;Node8</title>
<g id="a_edge10_Node000009_Node000008"><a xlink:title=" ">
<path fill="none" stroke="#63b8ff" d="M928.26,-110.01C730.2,-87.18 677.73,-97.33 484,-74 481.32,-73.68 478.56,-73.32 475.78,-72.94"/>
<polygon fill="#63b8ff" stroke="#63b8ff" points="928.08,-113.51 938.42,-111.19 928.89,-106.56 928.08,-113.51"/>
</a>
</g>
</g>
<!-- Node10 -->
<g id="Node000010" class="node">
<title>Node10</title>
<g id="a_Node000010"><a xlink:href="CgiHandler_8cpp.html" target="_top" xlink:title=" ">
<polygon fill="white" stroke="#666666" points="899,-74 809,-74 809,-55 899,-55 899,-74"/>
<text text-anchor="middle" x="854" y="-62" font-family="Helvetica,sans-Serif" font-size="10.00">CgiHandler.cpp</text>
</a>
</g>
</g>
<!-- Node9&#45;&gt;Node10 -->
<g id="edge9_Node000009_Node000010" class="edge">
<title>Node9&#45;&gt;Node10</title>
<g id="a_edge9_Node000009_Node000010"><a xlink:title=" ">
<path fill="none" stroke="#63b8ff" d="M953.73,-106.16C929.66,-96.35 896.6,-82.87 875.27,-74.17"/>
<polygon fill="#63b8ff" stroke="#63b8ff" points="952.53,-109.45 963.11,-109.98 955.17,-102.97 952.53,-109.45"/>
</a>
</g>
</g>
<!-- Node11 -->
<g id="Node000011" class="node">
<title>Node11</title>
<g id="a_Node000011"><a xlink:href="WebServer_8hpp.html" target="_top" xlink:title=" ">
<polygon fill="white" stroke="#666666" points="1164.5,-74 1075.5,-74 1075.5,-55 1164.5,-55 1164.5,-74"/>
<text text-anchor="middle" x="1120" y="-62" font-family="Helvetica,sans-Serif" font-size="10.00">WebServer.hpp</text>
</a>
</g>
</g>
<!-- Node9&#45;&gt;Node11 -->
<g id="edge11_Node000009_Node000011" class="edge">
<title>Node9&#45;&gt;Node11</title>
<g id="a_edge11_Node000009_Node000011"><a xlink:title=" ">
<path fill="none" stroke="#63b8ff" d="M1015.33,-106.29C1040.54,-96.47 1075.33,-82.91 1097.75,-74.17"/>
<polygon fill="#63b8ff" stroke="#63b8ff" points="1013.9,-103.09 1005.85,-109.98 1016.44,-109.61 1013.9,-103.09"/>
</a>
</g>
</g>
<!-- Node11&#45;&gt;Node4 -->
<g id="edge13_Node000011_Node000004" class="edge">
<title>Node11&#45;&gt;Node4</title>
<g id="a_edge13_Node000011_Node000004"><a xlink:title=" ">
<path fill="none" stroke="#63b8ff" d="M1153.37,-51.55C1180.85,-41.71 1219.17,-27.98 1243.79,-19.17"/>
<polygon fill="#63b8ff" stroke="#63b8ff" points="1152.01,-48.32 1143.78,-54.98 1154.37,-54.91 1152.01,-48.32"/>
</a>
</g>
</g>
<!-- Node12 -->
<g id="Node000012" class="node">
<title>Node12</title>
<g id="a_Node000012"><a xlink:href="WebServer_8cpp.html" target="_top" xlink:title=" ">
<polygon fill="white" stroke="#666666" points="689.5,-19 600.5,-19 600.5,0 689.5,0 689.5,-19"/>
<text text-anchor="middle" x="645" y="-7" font-family="Helvetica,sans-Serif" font-size="10.00">WebServer.cpp</text>
</a>
</g>
</g>
<!-- Node11&#45;&gt;Node12 -->
<g id="edge12_Node000011_Node000012" class="edge">
<title>Node11&#45;&gt;Node12</title>
<g id="a_edge12_Node000011_Node000012"><a xlink:title=" ">
<path fill="none" stroke="#63b8ff" d="M1065.34,-57.4C970.42,-46.81 776.93,-25.22 689.57,-15.47"/>
<polygon fill="#63b8ff" stroke="#63b8ff" points="1064.99,-60.88 1075.31,-58.51 1065.76,-53.93 1064.99,-60.88"/>
</a>
</g>
</g>
<!-- Node13&#45;&gt;Node9 -->
<g id="edge15_Node000013_Node000009" class="edge">
<title>Node13&#45;&gt;Node9</title>
<g id="a_edge15_Node000013_Node000009"><a xlink:title=" ">
<path fill="none" stroke="#63b8ff" d="M984,-154.66C984,-145.93 984,-135.99 984,-129.09"/>
<polygon fill="#63b8ff" stroke="#63b8ff" points="980.5,-154.75 984,-164.75 987.5,-154.75 980.5,-154.75"/>
</a>
</g>
</g>
<!-- Node14 -->
<g id="Node000014" class="node">
<title>Node14</title>
<g id="a_Node000014"><a xlink:href="ClientConnection_8cpp.html" target="_top" xlink:title=" ">
<polygon fill="white" stroke="#666666" points="1302,-74 1182,-74 1182,-55 1302,-55 1302,-74"/>
<text text-anchor="middle" x="1242" y="-62" font-family="Helvetica,sans-Serif" font-size="10.00">ClientConnection.cpp</text>
</a>
</g>
</g>
<!-- Node13&#45;&gt;Node14 -->
<g id="edge16_Node000013_Node000014" class="edge">
<title>Node13&#45;&gt;Node14</title>
<g id="a_edge16_Node000013_Node000014"><a xlink:title=" ">
<path fill="none" stroke="#63b8ff" d="M1049.37,-162.95C1082.67,-156.04 1123.16,-145.21 1157,-129 1187.57,-114.36 1218.11,-87.96 1232.86,-74.27"/>
<polygon fill="#63b8ff" stroke="#63b8ff" points="1048.4,-159.57 1039.28,-164.97 1049.77,-166.44 1048.4,-159.57"/>
</a>
</g>
</g>
<!-- Node15 -->
<g id="Node000015" class="node">
<title>Node15</title>
<g id="a_Node000015"><a xlink:href="Dispatcher_8hpp.html" target="_top" xlink:title=" ">
<polygon fill="white" stroke="#666666" points="397.5,-129 308.5,-129 308.5,-110 397.5,-110 397.5,-129"/>
<text text-anchor="middle" x="353" y="-117" font-family="Helvetica,sans-Serif" font-size="10.00">Dispatcher.hpp</text>
</a>
</g>
</g>
<!-- Node13&#45;&gt;Node15 -->
<g id="edge17_Node000013_Node000015" class="edge">
<title>Node13&#45;&gt;Node15</title>
<g id="a_edge17_Node000013_Node000015"><a xlink:title=" ">
<path fill="none" stroke="#63b8ff" d="M913.18,-167.55C782.24,-156.55 505.76,-133.33 397.66,-124.25"/>
<polygon fill="#63b8ff" stroke="#63b8ff" points="913.24,-171.07 923.5,-168.42 913.83,-164.09 913.24,-171.07"/>
</a>
</g>
</g>
<!-- Node16 -->
<g id="Node000016" class="node">
<title>Node16</title>
<g id="a_Node000016"><a xlink:href="ResponseBuilder_8hpp.html" target="_top" xlink:title=" ">
<polygon fill="white" stroke="#666666" points="920.5,-129 801.5,-129 801.5,-110 920.5,-110 920.5,-129"/>
<text text-anchor="middle" x="861" y="-117" font-family="Helvetica,sans-Serif" font-size="10.00">ResponseBuilder.hpp</text>
</a>
</g>
</g>
<!-- Node13&#45;&gt;Node16 -->
<g id="edge20_Node000013_Node000016" class="edge">
<title>Node13&#45;&gt;Node16</title>
<g id="a_edge20_Node000013_Node000016"><a xlink:title=" ">
<path fill="none" stroke="#63b8ff" d="M954.75,-160.9C932.03,-151.11 901.13,-137.79 881.12,-129.17"/>
<polygon fill="#63b8ff" stroke="#63b8ff" points="953.67,-164.24 964.24,-164.98 956.44,-157.81 953.67,-164.24"/>
</a>
</g>
</g>
<!-- Node19 -->
<g id="Node000019" class="node">
<title>Node19</title>
<g id="a_Node000019"><a xlink:href="Router_8hpp.html" target="_top" xlink:title=" ">
<polygon fill="white" stroke="#666666" points="1274.5,-129 1205.5,-129 1205.5,-110 1274.5,-110 1274.5,-129"/>
<text text-anchor="middle" x="1240" y="-117" font-family="Helvetica,sans-Serif" font-size="10.00">Router.hpp</text>
</a>
</g>
</g>
<!-- Node13&#45;&gt;Node19 -->
<g id="edge28_Node000013_Node000019" class="edge">
<title>Node13&#45;&gt;Node19</title>
<g id="a_edge28_Node000013_Node000019"><a xlink:title=" ">
<path fill="none" stroke="#63b8ff" d="M1035.17,-162.91C1085.6,-152.47 1161.28,-136.8 1205.14,-127.72"/>
<polygon fill="#63b8ff" stroke="#63b8ff" points="1034.21,-159.53 1025.13,-164.98 1035.63,-166.38 1034.21,-159.53"/>
</a>
</g>
</g>
<!-- Node21 -->
<g id="Node000021" class="node">
<title>Node21</title>
<g id="a_Node000021"><a xlink:href="ServerSocket_8hpp.html" target="_top" xlink:title=" ">
<polygon fill="white" stroke="#666666" points="1148.5,-129 1047.5,-129 1047.5,-110 1148.5,-110 1148.5,-129"/>
<text text-anchor="middle" x="1098" y="-117" font-family="Helvetica,sans-Serif" font-size="10.00">ServerSocket.hpp</text>
</a>
</g>
</g>
<!-- Node13&#45;&gt;Node21 -->
<g id="edge31_Node000013_Node000021" class="edge">
<title>Node13&#45;&gt;Node21</title>
<g id="a_edge31_Node000013_Node000021"><a xlink:title=" ">
<path fill="none" stroke="#63b8ff" d="M1011.39,-160.77C1032.42,-150.99 1060.89,-137.75 1079.35,-129.17"/>
<polygon fill="#63b8ff" stroke="#63b8ff" points="1009.91,-157.6 1002.32,-164.98 1012.86,-163.94 1009.91,-157.6"/>
</a>
</g>
</g>
<!-- Node15&#45;&gt;Node8 -->
<g id="edge18_Node000015_Node000008" class="edge">
<title>Node15&#45;&gt;Node8</title>
<g id="a_edge18_Node000015_Node000008"><a xlink:title=" ">
<path fill="none" stroke="#63b8ff" d="M374.12,-104.15C388.21,-94.57 406.29,-82.29 418.24,-74.17"/>
<polygon fill="#63b8ff" stroke="#63b8ff" points="371.84,-101.47 365.53,-109.98 375.77,-107.26 371.84,-101.47"/>
</a>
</g>
</g>
<!-- Node15&#45;&gt;Node12 -->
<g id="edge19_Node000015_Node000012" class="edge">
<title>Node15&#45;&gt;Node12</title>
<g id="a_edge19_Node000015_Node000012"><a xlink:title=" ">
<path fill="none" stroke="#63b8ff" d="M298.51,-108.75C256.81,-98.97 210.18,-81.54 234,-55 258.15,-28.09 498.91,-15.97 600.33,-12.03"/>
<polygon fill="#63b8ff" stroke="#63b8ff" points="297.88,-112.19 308.4,-110.95 299.4,-105.36 297.88,-112.19"/>
</a>
</g>
</g>
<!-- Node16&#45;&gt;Node7 -->
<g id="edge21_Node000016_Node000007" class="edge">
<title>Node16&#45;&gt;Node7</title>
<g id="a_edge21_Node000016_Node000007"><a xlink:title=" ">
<path fill="none" stroke="#63b8ff" d="M801.81,-108.25C744.35,-98.3 658.14,-83.36 604.3,-74.04"/>
<polygon fill="#63b8ff" stroke="#63b8ff" points="801.39,-111.73 811.84,-109.98 802.58,-104.83 801.39,-111.73"/>
</a>
</g>
</g>
<!-- Node16&#45;&gt;Node8 -->
<g id="edge24_Node000016_Node000008" class="edge">
<title>Node16&#45;&gt;Node8</title>
<g id="a_edge24_Node000016_Node000008"><a xlink:title=" ">
<path fill="none" stroke="#63b8ff" d="M791.35,-110.44C690.77,-98.77 513.62,-78.12 484,-74 481.23,-73.61 478.38,-73.2 475.51,-72.78"/>
<polygon fill="#63b8ff" stroke="#63b8ff" points="791.1,-113.93 801.43,-111.61 791.9,-106.98 791.1,-113.93"/>
</a>
</g>
</g>
<!-- Node16&#45;&gt;Node10 -->
<g id="edge22_Node000016_Node000010" class="edge">
<title>Node16&#45;&gt;Node10</title>
<g id="a_edge22_Node000016_Node000010"><a xlink:title=" ">
<path fill="none" stroke="#63b8ff" d="M858.51,-99.66C857.36,-90.93 856.05,-80.99 855.13,-74.09"/>
<polygon fill="#63b8ff" stroke="#63b8ff" points="855.06,-100.29 859.84,-109.75 862,-99.38 855.06,-100.29"/>
</a>
</g>
</g>
<!-- Node16&#45;&gt;Node12 -->
<g id="edge27_Node000016_Node000012" class="edge">
<title>Node16&#45;&gt;Node12</title>
<g id="a_edge27_Node000016_Node000012"><a xlink:title=" ">
<path fill="none" stroke="#63b8ff" d="M791.54,-110.3C742.54,-103.17 682.46,-91.24 664,-74 648.52,-59.55 645.48,-33.07 644.99,-19.31"/>
<polygon fill="#63b8ff" stroke="#63b8ff" points="791.11,-113.78 801.5,-111.71 792.09,-106.85 791.11,-113.78"/>
</a>
</g>
</g>
<!-- Node16&#45;&gt;Node14 -->
<g id="edge23_Node000016_Node000014" class="edge">
<title>Node16&#45;&gt;Node14</title>
<g id="a_edge23_Node000016_Node000014"><a xlink:title=" ">
<path fill="none" stroke="#63b8ff" d="M930.86,-108.78C1002.81,-98.77 1113.8,-83.33 1181.94,-73.85"/>
<polygon fill="#63b8ff" stroke="#63b8ff" points="929.95,-105.37 920.53,-110.22 930.92,-112.31 929.95,-105.37"/>
</a>
</g>
</g>
<!-- Node17 -->
<g id="Node000017" class="node">
<title>Node17</title>
<g id="a_Node000017"><a xlink:href="ResponseBuilder_8cpp.html" target="_top" xlink:title=" ">
<polygon fill="white" stroke="#666666" points="791,-74 673,-74 673,-55 791,-55 791,-74"/>
<text text-anchor="middle" x="732" y="-62" font-family="Helvetica,sans-Serif" font-size="10.00">ResponseBuilder.cpp</text>
</a>
</g>
</g>
<!-- Node16&#45;&gt;Node17 -->
<g id="edge25_Node000016_Node000017" class="edge">
<title>Node16&#45;&gt;Node17</title>
<g id="a_edge25_Node000016_Node000017"><a xlink:title=" ">
<path fill="none" stroke="#63b8ff" d="M830.96,-106.16C807.08,-96.35 774.28,-82.87 753.1,-74.17"/>
<polygon fill="#63b8ff" stroke="#63b8ff" points="829.69,-109.42 840.27,-109.98 832.35,-102.95 829.69,-109.42"/>
</a>
</g>
</g>
<!-- Node18 -->
<g id="Node000018" class="node">
<title>Node18</title>
<g id="a_Node000018"><a xlink:href="StaticPageHandler_8cpp.html" target="_top" xlink:title=" ">
<polygon fill="white" stroke="#666666" points="368.5,-74 243.5,-74 243.5,-55 368.5,-55 368.5,-74"/>
<text text-anchor="middle" x="306" y="-62" font-family="Helvetica,sans-Serif" font-size="10.00">StaticPageHandler.cpp</text>
</a>
</g>
</g>
<!-- Node16&#45;&gt;Node18 -->
<g id="edge26_Node000016_Node000018" class="edge">
<title>Node16&#45;&gt;Node18</title>
<g id="a_edge26_Node000016_Node000018"><a xlink:title=" ">
<path fill="none" stroke="#63b8ff" d="M791.37,-112.7C697.29,-104.73 524.35,-89.59 377,-74 374.28,-73.71 371.51,-73.41 368.71,-73.1"/>
<polygon fill="#63b8ff" stroke="#63b8ff" points="791.08,-116.19 801.34,-113.55 791.67,-109.22 791.08,-116.19"/>
</a>
</g>
</g>
<!-- Node19&#45;&gt;Node8 -->
<g id="edge29_Node000019_Node000008" class="edge">
<title>Node19&#45;&gt;Node8</title>
<g id="a_edge29_Node000019_Node000008"><a xlink:title=" ">
<path fill="none" stroke="#63b8ff" d="M1195.21,-113.51C1182.84,-112.24 1169.41,-110.97 1157,-110 858.37,-86.74 781.85,-105.76 484,-74 481.31,-73.71 478.55,-73.38 475.77,-73.02"/>
<polygon fill="#63b8ff" stroke="#63b8ff" points="1194.99,-117.01 1205.3,-114.57 1195.72,-110.04 1194.99,-117.01"/>
</a>
</g>
</g>
<!-- Node20 -->
<g id="Node000020" class="node">
<title>Node20</title>
<g id="a_Node000020"><a xlink:href="Router_8cpp.html" target="_top" xlink:title=" ">
<polygon fill="white" stroke="#666666" points="1388,-74 1320,-74 1320,-55 1388,-55 1388,-74"/>
<text text-anchor="middle" x="1354" y="-62" font-family="Helvetica,sans-Serif" font-size="10.00">Router.cpp</text>
</a>
</g>
</g>
<!-- Node19&#45;&gt;Node20 -->
<g id="edge30_Node000019_Node000020" class="edge">
<title>Node19&#45;&gt;Node20</title>
<g id="a_edge30_Node000019_Node000020"><a xlink:title=" ">
<path fill="none" stroke="#63b8ff" d="M1267.39,-105.77C1288.42,-95.99 1316.89,-82.75 1335.35,-74.17"/>
<polygon fill="#63b8ff" stroke="#63b8ff" points="1265.91,-102.6 1258.32,-109.98 1268.86,-108.94 1265.91,-102.6"/>
</a>
</g>
</g>
<!-- Node21&#45;&gt;Node4 -->
<g id="edge34_Node000021_Node000004" class="edge">
<title>Node21&#45;&gt;Node4</title>
<g id="a_edge34_Node000021_Node000004"><a xlink:title=" ">
<path fill="none" stroke="#63b8ff" d="M1080.24,-102.41C1067.46,-88.87 1054.36,-69.48 1066,-55 1087.09,-28.76 1185.65,-17.09 1236.88,-12.72"/>
<polygon fill="#63b8ff" stroke="#63b8ff" points="1077.96,-105.07 1087.53,-109.61 1082.88,-100.1 1077.96,-105.07"/>
</a>
</g>
</g>
<!-- Node21&#45;&gt;Node11 -->
<g id="edge33_Node000021_Node000011" class="edge">
<title>Node21&#45;&gt;Node11</title>
<g id="a_edge33_Node000021_Node000011"><a xlink:title=" ">
<path fill="none" stroke="#63b8ff" d="M1105.58,-100.24C1109.26,-91.37 1113.51,-81.14 1116.43,-74.09"/>
<polygon fill="#63b8ff" stroke="#63b8ff" points="1102.23,-99.17 1101.63,-109.75 1108.7,-101.85 1102.23,-99.17"/>
</a>
</g>
</g>
<!-- Node22 -->
<g id="Node000022" class="node">
<title>Node22</title>
<g id="a_Node000022"><a xlink:href="ServerSocket_8cpp.html" target="_top" xlink:title=" ">
<polygon fill="white" stroke="#666666" points="1018.5,-74 917.5,-74 917.5,-55 1018.5,-55 1018.5,-74"/>
<text text-anchor="middle" x="968" y="-62" font-family="Helvetica,sans-Serif" font-size="10.00">ServerSocket.cpp</text>
</a>
</g>
</g>
<!-- Node21&#45;&gt;Node22 -->
<g id="edge32_Node000021_Node000022" class="edge">
<title>Node21&#45;&gt;Node22</title>
<g id="a_edge32_Node000021_Node000022"><a xlink:title=" ">
<path fill="none" stroke="#63b8ff" d="M1067.73,-106.16C1043.66,-96.35 1010.6,-82.87 989.27,-74.17"/>
<polygon fill="#63b8ff" stroke="#63b8ff" points="1066.53,-109.45 1077.11,-109.98 1069.17,-102.97 1066.53,-109.45"/>
</a>
</g>
</g>
<!-- Node23&#45;&gt;Node8 -->
<g id="edge37_Node000023_Node000008" class="edge">
<title>Node23&#45;&gt;Node8</title>
<g id="a_edge37_Node000023_Node000008"><a xlink:title=" ">
<path fill="none" stroke="#63b8ff" d="M281.07,-154.86C282.84,-140.83 287.39,-122.02 299,-110 312.27,-96.26 359.45,-82.53 393.61,-74.03"/>
<polygon fill="#63b8ff" stroke="#63b8ff" points="277.58,-154.6 280.17,-164.87 284.55,-155.22 277.58,-154.6"/>
</a>
</g>
</g>
<!-- Node24 -->
<g id="Node000024" class="node">
<title>Node24</title>
<g id="a_Node000024"><a xlink:href="DeleteHandler_8cpp.html" target="_top" xlink:title=" ">
<polygon fill="white" stroke="#666666" points="251.5,-129 144.5,-129 144.5,-110 251.5,-110 251.5,-129"/>
<text text-anchor="middle" x="198" y="-117" font-family="Helvetica,sans-Serif" font-size="10.00">DeleteHandler.cpp</text>
</a>
</g>
</g>
<!-- Node23&#45;&gt;Node24 -->
<g id="edge36_Node000023_Node000024" class="edge">
<title>Node23&#45;&gt;Node24</title>
<g id="a_edge36_Node000023_Node000024"><a xlink:title=" ">
<path fill="none" stroke="#63b8ff" d="M258.22,-159.42C243.34,-149.81 224.09,-137.37 211.41,-129.17"/>
<polygon fill="#63b8ff" stroke="#63b8ff" points="256.53,-162.5 266.83,-164.98 260.33,-156.62 256.53,-162.5"/>
</a>
</g>
</g>
<!-- Node26&#45;&gt;Node14 -->
<g id="edge40_Node000026_Node000014" class="edge">
<title>Node26&#45;&gt;Node14</title>
<g id="a_edge40_Node000026_Node000014"><a xlink:title=" ">
<path fill="none" stroke="#63b8ff" d="M1558.55,-109.77C1487.5,-99.83 1372.29,-83.72 1302.2,-73.92"/>
<polygon fill="#63b8ff" stroke="#63b8ff" points="1558.31,-113.27 1568.7,-111.19 1559.28,-106.33 1558.31,-113.27"/>
</a>
</g>
</g>
<!-- Node26&#45;&gt;Node27 -->
<g id="edge41_Node000026_Node000027" class="edge">
<title>Node26&#45;&gt;Node27</title>
<g id="a_edge41_Node000026_Node000027"><a xlink:title=" ">
<path fill="none" stroke="#63b8ff" d="M1658.79,-107.06C1691.5,-97.15 1738.07,-83.04 1767.66,-74.08"/>
<polygon fill="#63b8ff" stroke="#63b8ff" points="1657.67,-103.74 1649.12,-109.98 1659.7,-110.44 1657.67,-103.74"/>
</a>
</g>
</g>
<!-- Node28&#45;&gt;Node8 -->
<g id="edge43_Node000028_Node000008" class="edge">
<title>Node28&#45;&gt;Node8</title>
<g id="a_edge43_Node000028_Node000008"><a xlink:title=" ">
<path fill="none" stroke="#63b8ff" d="M134.94,-108.62C198.62,-99.81 294.04,-86.41 377,-74 380,-73.55 383.1,-73.08 386.22,-72.6"/>
<polygon fill="#63b8ff" stroke="#63b8ff" points="134.43,-105.16 125,-110 135.39,-112.1 134.43,-105.16"/>
</a>
</g>
</g>
<!-- Node28&#45;&gt;Node18 -->
<g id="edge44_Node000028_Node000018" class="edge">
<title>Node28&#45;&gt;Node18</title>
<g id="a_edge44_Node000028_Node000018"><a xlink:title=" ">
<path fill="none" stroke="#63b8ff" d="M111.99,-107.82C157.53,-97.88 224.5,-83.28 266.65,-74.08"/>
<polygon fill="#63b8ff" stroke="#63b8ff" points="111.07,-104.43 102.04,-109.98 112.56,-111.27 111.07,-104.43"/>
</a>
</g>
</g>
<!-- Node29&#45;&gt;Node8 -->
<g id="edge46_Node000029_Node000008" class="edge">
<title>Node29&#45;&gt;Node8</title>
<g id="a_edge46_Node000029_Node000008"><a xlink:title=" ">
<path fill="none" stroke="#63b8ff" d="M468.68,-157.09C462.25,-149.05 455,-138.98 450,-129 440.72,-110.48 435.1,-86.61 432.58,-74.07"/>
<polygon fill="#63b8ff" stroke="#63b8ff" points="466.1,-159.46 475.19,-164.9 471.47,-154.98 466.1,-159.46"/>
</a>
</g>
</g>
<!-- Node30 -->
<g id="Node000030" class="node">
<title>Node30</title>
<g id="a_Node000030"><a xlink:href="UploadHandler_8cpp.html" target="_top" xlink:title=" ">
<polygon fill="white" stroke="#666666" points="744.5,-129 635.5,-129 635.5,-110 744.5,-110 744.5,-129"/>
<text text-anchor="middle" x="690" y="-117" font-family="Helvetica,sans-Serif" font-size="10.00">UploadHandler.cpp</text>
</a>
</g>
</g>
<!-- Node29&#45;&gt;Node30 -->
<g id="edge47_Node000029_Node000030" class="edge">
<title>Node29&#45;&gt;Node30</title>
<g id="a_edge47_Node000029_Node000030"><a xlink:title=" ">
<path fill="none" stroke="#63b8ff" d="M526.21,-162.44C564.96,-152.52 621.03,-138.16 656.48,-129.08"/>
<polygon fill="#63b8ff" stroke="#63b8ff" points="525.08,-159.11 516.26,-164.98 526.81,-165.89 525.08,-159.11"/>
</a>
</g>
</g>
<!-- Node32&#45;&gt;Node8 -->
<g id="edge50_Node000032_Node000008" class="edge">
<title>Node32&#45;&gt;Node8</title>
<g id="a_edge50_Node000032_Node000008"><a xlink:title=" ">
<path fill="none" stroke="#63b8ff" d="M1337.61,-227.97C1152.69,-225.48 629.91,-211.14 483,-129 459.87,-116.07 442.9,-88.41 435.35,-74.25"/>
<polygon fill="#63b8ff" stroke="#63b8ff" points="1337.68,-231.48 1347.73,-228.1 1337.77,-224.48 1337.68,-231.48"/>
</a>
</g>
</g>
<!-- Node32&#45;&gt;Node15 -->
<g id="edge51_Node000032_Node000015" class="edge">
<title>Node32&#45;&gt;Node15</title>
<g id="a_edge51_Node000032_Node000015"><a xlink:title=" ">
<path fill="none" stroke="#63b8ff" d="M1337.64,-228.21C1131.37,-226.91 502.88,-220.02 419,-184 391.53,-172.2 368.81,-143.49 358.68,-129.06"/>
<polygon fill="#63b8ff" stroke="#63b8ff" points="1337.7,-231.71 1347.72,-228.27 1337.74,-224.71 1337.7,-231.71"/>
</a>
</g>
</g>
<!-- Node32&#45;&gt;Node16 -->
<g id="edge54_Node000032_Node000016" class="edge">
<title>Node32&#45;&gt;Node16</title>
<g id="a_edge54_Node000032_Node000016"><a xlink:title=" ">
<path fill="none" stroke="#63b8ff" d="M1337.47,-228.66C1221.58,-227.94 985.91,-221.71 914,-184 890.35,-171.59 873.09,-143.69 865.42,-129.36"/>
<polygon fill="#63b8ff" stroke="#63b8ff" points="1337.61,-232.16 1347.63,-228.71 1337.64,-225.16 1337.61,-232.16"/>
</a>
</g>
</g>
<!-- Node32&#45;&gt;Node19 -->
<g id="edge55_Node000032_Node000019" class="edge">
<title>Node32&#45;&gt;Node19</title>
<g id="a_edge55_Node000032_Node000019"><a xlink:title=" ">
<path fill="none" stroke="#63b8ff" d="M1381.56,-214.3C1347.3,-191.59 1281.2,-147.8 1253.13,-129.2"/>
<polygon fill="#63b8ff" stroke="#63b8ff" points="1379.67,-217.24 1389.94,-219.84 1383.53,-211.4 1379.67,-217.24"/>
</a>
</g>
</g>
<!-- Node32&#45;&gt;Node27 -->
<g id="edge53_Node000032_Node000027" class="edge">
<title>Node32&#45;&gt;Node27</title>
<g id="a_edge53_Node000032_Node000027"><a xlink:title=" ">
<path fill="none" stroke="#63b8ff" d="M1440.82,-216.95C1467.43,-208.54 1503.73,-196.47 1535,-184 1553.65,-176.56 1556.8,-170.88 1576,-165 1624,-150.31 1766.46,-167.22 1799,-129 1812.17,-113.54 1804.86,-87.5 1799.7,-74.07"/>
<polygon fill="#63b8ff" stroke="#63b8ff" points="1439.63,-213.66 1431.13,-219.99 1441.72,-220.34 1439.63,-213.66"/>
</a>
</g>
</g>
<!-- Node32&#45;&gt;Node31 -->
<g id="edge52_Node000032_Node000031" class="edge">
<title>Node32&#45;&gt;Node31</title>
<g id="a_edge52_Node000032_Node000031"><a xlink:title=" ">
<path fill="none" stroke="#63b8ff" d="M1451.06,-217.75C1495.47,-207.82 1560.6,-193.26 1601.62,-184.08"/>
<polygon fill="#63b8ff" stroke="#63b8ff" points="1450.07,-214.39 1441.08,-219.98 1451.6,-221.22 1450.07,-214.39"/>
</a>
</g>
</g>
<!-- Node32&#45;&gt;Node33 -->
<g id="edge56_Node000032_Node000033" class="edge">
<title>Node32&#45;&gt;Node33</title>
<g id="a_edge56_Node000032_Node000033"><a xlink:title=" ">
<path fill="none" stroke="#63b8ff" d="M1429.94,-215.48C1464.03,-199.15 1520.95,-172.39 1543,-165 1592.44,-148.43 1650.89,-136.14 1691.41,-128.73"/>
<polygon fill="#63b8ff" stroke="#63b8ff" points="1428.07,-212.5 1420.57,-219.99 1431.1,-218.81 1428.07,-212.5"/>
</a>
</g>
</g>
<!-- Node32&#45;&gt;Node34 -->
<g id="edge57_Node000032_Node000034" class="edge">
<title>Node32&#45;&gt;Node34</title>
<g id="a_edge57_Node000032_Node000034"><a xlink:title=" ">
<path fill="none" stroke="#63b8ff" d="M1403,-209.66C1403,-200.93 1403,-190.99 1403,-184.09"/>
<polygon fill="#63b8ff" stroke="#63b8ff" points="1399.5,-209.75 1403,-219.75 1406.5,-209.75 1399.5,-209.75"/>
</a>
</g>
</g>
<!-- Node34&#45;&gt;Node2 -->
<g id="edge64_Node000034_Node000002" class="edge">
<title>Node34&#45;&gt;Node2</title>
<g id="a_edge64_Node000034_Node000002"><a xlink:title=" ">
<path fill="none" stroke="#63b8ff" d="M1421.41,-158.41C1438.39,-144.87 1464.58,-124.89 1489,-110 1512.22,-95.84 1540.56,-82.42 1559.16,-74.08"/>
<polygon fill="#63b8ff" stroke="#63b8ff" points="1419.02,-155.84 1413.43,-164.85 1423.42,-161.29 1419.02,-155.84"/>
</a>
</g>
</g>
<!-- Node34&#45;&gt;Node3 -->
<g id="edge63_Node000034_Node000003" class="edge">
<title>Node34&#45;&gt;Node3</title>
<g id="a_edge63_Node000034_Node000003"><a xlink:title=" ">
<path fill="none" stroke="#63b8ff" d="M1430.53,-160.3C1447.64,-151.84 1469.92,-140.36 1489,-129 1501.92,-121.31 1503.42,-116.46 1517,-110 1567.29,-86.09 1603.76,-118.67 1637,-74 1649.56,-57.12 1634.15,-32.15 1624.19,-19.12"/>
<polygon fill="#63b8ff" stroke="#63b8ff" points="1428.57,-157.36 1421.13,-164.9 1431.65,-163.65 1428.57,-157.36"/>
</a>
</g>
</g>
<!-- Node34&#45;&gt;Node8 -->
<g id="edge65_Node000034_Node000008" class="edge">
<title>Node34&#45;&gt;Node8</title>
<g id="a_edge65_Node000034_Node000008"><a xlink:title=" ">
<path fill="none" stroke="#63b8ff" d="M1342.9,-172.02C1209.98,-168.26 894.72,-156.66 792,-129 773.38,-123.99 771.46,-115.57 753,-110 637.53,-75.14 603.34,-91.55 484,-74 481.23,-73.59 478.39,-73.17 475.52,-72.73"/>
<polygon fill="#63b8ff" stroke="#63b8ff" points="1342.82,-175.51 1352.91,-172.29 1343.01,-168.52 1342.82,-175.51"/>
</a>
</g>
</g>
<!-- Node34&#45;&gt;Node11 -->
<g id="edge72_Node000034_Node000011" class="edge">
<title>Node34&#45;&gt;Node11</title>
<g id="a_edge72_Node000034_Node000011"><a xlink:title=" ">
<path fill="none" stroke="#63b8ff" d="M1380.2,-159.48C1356.58,-145.43 1318.25,-123.94 1283,-110 1242.63,-94.03 1194.46,-81.66 1161,-74.05"/>
<polygon fill="#63b8ff" stroke="#63b8ff" points="1378.7,-162.67 1389.08,-164.82 1382.31,-156.67 1378.7,-162.67"/>
</a>
</g>
</g>
<!-- Node34&#45;&gt;Node16 -->
<g id="edge68_Node000034_Node000016" class="edge">
<title>Node34&#45;&gt;Node16</title>
<g id="a_edge68_Node000034_Node000016"><a xlink:title=" ">
<path fill="none" stroke="#63b8ff" d="M1342.76,-168.44C1252.67,-160.74 1077.54,-145.25 929,-129 926.28,-128.7 923.5,-128.39 920.69,-128.07"/>
<polygon fill="#63b8ff" stroke="#63b8ff" points="1342.52,-171.93 1352.79,-169.3 1343.12,-164.96 1342.52,-171.93"/>
</a>
</g>
</g>
<!-- Node34&#45;&gt;Node20 -->
<g id="edge69_Node000034_Node000020" class="edge">
<title>Node34&#45;&gt;Node20</title>
<g id="a_edge69_Node000034_Node000020"><a xlink:title=" ">
<path fill="none" stroke="#63b8ff" d="M1382.98,-158.12C1374.4,-150.38 1365.17,-140.24 1360,-129 1351.67,-110.89 1352.09,-86.86 1353.07,-74.18"/>
<polygon fill="#63b8ff" stroke="#63b8ff" points="1380.96,-161 1390.86,-164.78 1385.48,-155.65 1380.96,-161"/>
</a>
</g>
</g>
<!-- Node34&#45;&gt;Node26 -->
<g id="edge67_Node000034_Node000026" class="edge">
<title>Node34&#45;&gt;Node26</title>
<g id="a_edge67_Node000034_Node000026"><a xlink:title=" ">
<path fill="none" stroke="#63b8ff" d="M1447.98,-162.56C1488.81,-152.64 1548.2,-138.2 1585.7,-129.08"/>
<polygon fill="#63b8ff" stroke="#63b8ff" points="1446.92,-159.22 1438.03,-164.98 1448.57,-166.02 1446.92,-159.22"/>
</a>
</g>
</g>
<!-- Node34&#45;&gt;Node27 -->
<g id="edge66_Node000034_Node000027" class="edge">
<title>Node34&#45;&gt;Node27</title>
<g id="a_edge66_Node000034_Node000027"><a xlink:title=" ">
<path fill="none" stroke="#63b8ff" d="M1435.4,-161.29C1458.3,-152.55 1489.66,-140.37 1517,-129 1536.29,-120.98 1540.05,-116.2 1560,-110 1621.92,-90.76 1695.69,-78.48 1744.07,-71.8"/>
<polygon fill="#63b8ff" stroke="#63b8ff" points="1433.93,-158.1 1425.83,-164.93 1436.42,-164.64 1433.93,-158.1"/>
</a>
</g>
</g>
<!-- Node34&#45;&gt;Node30 -->
<g id="edge71_Node000034_Node000030" class="edge">
<title>Node34&#45;&gt;Node30</title>
<g id="a_edge71_Node000034_Node000030"><a xlink:title=" ">
<path fill="none" stroke="#63b8ff" d="M1342.55,-170.41C1228.36,-164.32 973.2,-149.58 759,-129 754.31,-128.55 749.46,-128.04 744.58,-127.5"/>
<polygon fill="#63b8ff" stroke="#63b8ff" points="1342.65,-173.92 1352.82,-170.95 1343.02,-166.93 1342.65,-173.92"/>
</a>
</g>
</g>
<!-- Node34&#45;&gt;Node33 -->
<g id="edge70_Node000034_Node000033" class="edge">
<title>Node34&#45;&gt;Node33</title>
<g id="a_edge70_Node000034_Node000033"><a xlink:title=" ">
<path fill="none" stroke="#63b8ff" d="M1463.34,-164.04C1528.39,-153.84 1630.73,-137.79 1691.31,-128.29"/>
<polygon fill="#63b8ff" stroke="#63b8ff" points="1462.57,-160.62 1453.24,-165.62 1463.66,-167.53 1462.57,-160.62"/>
</a>
</g>
</g>
<!-- Node35 -->
<g id="Node000035" class="node">
<title>Node35</title>
<g id="a_Node000035"><a xlink:href="Config_8hpp.html" target="_top" xlink:title=" ">
<polygon fill="white" stroke="#666666" points="1437,-129 1369,-129 1369,-110 1437,-110 1437,-129"/>
<text text-anchor="middle" x="1403" y="-117" font-family="Helvetica,sans-Serif" font-size="10.00">Config.hpp</text>
</a>
</g>
</g>
<!-- Node34&#45;&gt;Node35 -->
<g id="edge58_Node000034_Node000035" class="edge">
<title>Node34&#45;&gt;Node35</title>
<g id="a_edge58_Node000034_Node000035"><a xlink:title=" ">
<path fill="none" stroke="#63b8ff" d="M1403,-154.66C1403,-145.93 1403,-135.99 1403,-129.09"/>
<polygon fill="#63b8ff" stroke="#63b8ff" points="1399.5,-154.75 1403,-164.75 1406.5,-154.75 1399.5,-154.75"/>
</a>
</g>
</g>
<!-- Node35&#45;&gt;Node2 -->
<g id="edge60_Node000035_Node000002" class="edge">
<title>Node35&#45;&gt;Node2</title>
<g id="a_edge60_Node000035_Node000002"><a xlink:title=" ">
<path fill="none" stroke="#63b8ff" d="M1441,-107.06C1473.9,-97.15 1520.74,-83.04 1550.5,-74.08"/>
<polygon fill="#63b8ff" stroke="#63b8ff" points="1439.84,-103.75 1431.28,-109.98 1441.86,-110.45 1439.84,-103.75"/>
</a>
</g>
</g>
<!-- Node35&#45;&gt;Node4 -->
<g id="edge62_Node000035_Node000004" class="edge">
<title>Node35&#45;&gt;Node4</title>
<g id="a_edge62_Node000035_Node000004"><a xlink:title=" ">
<path fill="none" stroke="#63b8ff" d="M1406.27,-99.35C1407.51,-85.59 1406.73,-67.38 1397,-55 1373.64,-25.3 1329.31,-15.33 1299.21,-12.04"/>
<polygon fill="#63b8ff" stroke="#63b8ff" points="1402.75,-99.25 1404.91,-109.62 1409.69,-100.17 1402.75,-99.25"/>
</a>
</g>
</g>
<!-- Node35&#45;&gt;Node11 -->
<g id="edge61_Node000035_Node000011" class="edge">
<title>Node35&#45;&gt;Node11</title>
<g id="a_edge61_Node000035_Node000011"><a xlink:title=" ">
<path fill="none" stroke="#63b8ff" d="M1358.79,-110.22C1305.98,-100.33 1218.13,-83.88 1164.99,-73.92"/>
<polygon fill="#63b8ff" stroke="#63b8ff" points="1358.39,-113.71 1368.86,-112.11 1359.68,-106.83 1358.39,-113.71"/>
</a>
</g>
</g>
<!-- Node36 -->
<g id="Node000036" class="node">
<title>Node36</title>
<g id="a_Node000036"><a xlink:href="Config_8cpp.html" target="_top" xlink:title=" ">
<polygon fill="white" stroke="#666666" points="1512,-74 1444,-74 1444,-55 1512,-55 1512,-74"/>
<text text-anchor="middle" x="1478" y="-62" font-family="Helvetica,sans-Serif" font-size="10.00">Config.cpp</text>
</a>
</g>
</g>
<!-- Node35&#45;&gt;Node36 -->
<g id="edge59_Node000035_Node000036" class="edge">
<title>Node35&#45;&gt;Node36</title>
<g id="a_edge59_Node000035_Node000036"><a xlink:title=" ">
<path fill="none" stroke="#63b8ff" d="M1423.31,-104.15C1436.86,-94.57 1454.24,-82.29 1465.73,-74.17"/>
<polygon fill="#63b8ff" stroke="#63b8ff" points="1421.2,-101.36 1415.05,-109.98 1425.24,-107.07 1421.2,-101.36"/>
</a>
</g>
</g>
</g>
</svg>
