<?xml version="1.0" encoding="UTF-8" standalone="no"?>
<!DOCTYPE svg PUBLIC "-//W3C//DTD SVG 1.1//EN"
 "http://www.w3.org/Graphics/SVG/1.1/DTD/svg11.dtd">
<!-- Generated by graphviz version 2.43.0 (0)
 -->
<!-- Title: ResponseStatus.hpp Pages: 1 -->
<svg width="1304pt" height="302pt"
 viewBox="0.00 0.00 1303.50 302.00" xmlns="http://www.w3.org/2000/svg" xmlns:xlink="http://www.w3.org/1999/xlink">
<g id="graph0" class="graph" transform="scale(1 1) rotate(0) translate(4 298)">
<title>ResponseStatus.hpp</title>
<!-- Node1 -->
<g id="Node000001" class="node">
<title>Node1</title>
<g id="a_Node000001"><a xlink:title=" ">
<polygon fill="#999999" stroke="#666666" points="1102.5,-294 986.5,-294 986.5,-275 1102.5,-275 1102.5,-294"/>
<text text-anchor="middle" x="1044.5" y="-282" font-family="Helvetica,sans-Serif" font-size="10.00">ResponseStatus.hpp</text>
</a>
</g>
</g>
<!-- Node2 -->
<g id="Node000002" class="node">
<title>Node2</title>
<g id="a_Node000002"><a xlink:href="DeleteHandler_8hpp.html" target="_top" xlink:title=" ">
<polygon fill="white" stroke="#666666" points="230,-184 123,-184 123,-165 230,-165 230,-184"/>
<text text-anchor="middle" x="176.5" y="-172" font-family="Helvetica,sans-Serif" font-size="10.00">DeleteHandler.hpp</text>
</a>
</g>
</g>
<!-- Node1&#45;&gt;Node2 -->
<g id="edge1_Node000001_Node000002" class="edge">
<title>Node1&#45;&gt;Node2</title>
<g id="a_edge1_Node000001_Node000002"><a xlink:title=" ">
<path fill="none" stroke="#63b8ff" d="M975.93,-282.35C862.14,-279.59 627.43,-270.27 431.5,-239 347.48,-225.59 250.54,-198.02 204.1,-184.03"/>
<polygon fill="#63b8ff" stroke="#63b8ff" points="976.15,-285.86 986.22,-282.59 976.31,-278.86 976.15,-285.86"/>
</a>
</g>
</g>
<!-- Node5 -->
<g id="Node000005" class="node">
<title>Node5</title>
<g id="a_Node000005"><a xlink:href="HttpRequest_8hpp.html" target="_top" xlink:title=" ">
<polygon fill="white" stroke="#666666" points="760.5,-239 662.5,-239 662.5,-220 760.5,-220 760.5,-239"/>
<text text-anchor="middle" x="711.5" y="-227" font-family="Helvetica,sans-Serif" font-size="10.00">HttpRequest.hpp</text>
</a>
</g>
</g>
<!-- Node1&#45;&gt;Node5 -->
<g id="edge4_Node000001_Node000005" class="edge">
<title>Node1&#45;&gt;Node5</title>
<g id="a_edge4_Node000001_Node000005"><a xlink:title=" ">
<path fill="none" stroke="#63b8ff" d="M981,-273.39C916.81,-263.18 818.98,-247.61 760.53,-238.3"/>
<polygon fill="#63b8ff" stroke="#63b8ff" points="980.57,-276.87 991,-274.98 981.67,-269.96 980.57,-276.87"/>
</a>
</g>
</g>
<!-- Node16 -->
<g id="Node000016" class="node">
<title>Node16</title>
<g id="a_Node000016"><a xlink:href="ResponseBuilder_8hpp.html" target="_top" xlink:title=" ">
<polygon fill="white" stroke="#666666" points="866,-129 747,-129 747,-110 866,-110 866,-129"/>
<text text-anchor="middle" x="806.5" y="-117" font-family="Helvetica,sans-Serif" font-size="10.00">ResponseBuilder.hpp</text>
</a>
</g>
</g>
<!-- Node1&#45;&gt;Node16 -->
<g id="edge56_Node000001_Node000016" class="edge">
<title>Node1&#45;&gt;Node16</title>
<g id="a_edge56_Node000001_Node000016"><a xlink:title=" ">
<path fill="none" stroke="#63b8ff" d="M1047.41,-264.91C1050.33,-238.9 1051.26,-191.85 1025.5,-165 1014.44,-153.47 926.91,-138.35 865.92,-129.04"/>
<polygon fill="#63b8ff" stroke="#63b8ff" points="1043.92,-264.56 1046.06,-274.93 1050.86,-265.49 1043.92,-264.56"/>
</a>
</g>
</g>
<!-- Node20 -->
<g id="Node000020" class="node">
<title>Node20</title>
<g id="a_Node000020"><a xlink:href="Router_8cpp.html" target="_top" xlink:title=" ">
<polygon fill="white" stroke="#666666" points="1295.5,-74 1227.5,-74 1227.5,-55 1295.5,-55 1295.5,-74"/>
<text text-anchor="middle" x="1261.5" y="-62" font-family="Helvetica,sans-Serif" font-size="10.00">Router.cpp</text>
</a>
</g>
</g>
<!-- Node1&#45;&gt;Node20 -->
<g id="edge57_Node000001_Node000020" class="edge">
<title>Node1&#45;&gt;Node20</title>
<g id="a_edge57_Node000001_Node000020"><a xlink:title=" ">
<path fill="none" stroke="#63b8ff" d="M1107.44,-272.63C1135.04,-265.9 1166.91,-255.31 1192.5,-239 1246.97,-204.27 1265.46,-189.72 1287.5,-129 1294.74,-109.07 1279.34,-86.15 1269.29,-74.04"/>
<polygon fill="#63b8ff" stroke="#63b8ff" points="1106.43,-269.27 1097.48,-274.94 1108.01,-276.09 1106.43,-269.27"/>
</a>
</g>
</g>
<!-- Node25 -->
<g id="Node000025" class="node">
<title>Node25</title>
<g id="a_Node000025"><a xlink:href="RequestParse_8cpp.html" target="_top" xlink:title=" ">
<polygon fill="white" stroke="#666666" points="1279,-129 1176,-129 1176,-110 1279,-110 1279,-129"/>
<text text-anchor="middle" x="1227.5" y="-117" font-family="Helvetica,sans-Serif" font-size="10.00">RequestParse.cpp</text>
</a>
</g>
</g>
<!-- Node1&#45;&gt;Node25 -->
<g id="edge55_Node000001_Node000025" class="edge">
<title>Node1&#45;&gt;Node25</title>
<g id="a_edge55_Node000001_Node000025"><a xlink:title=" ">
<path fill="none" stroke="#63b8ff" d="M1089.31,-272C1131.75,-258.53 1193.36,-231.73 1223.5,-184 1234.23,-167 1231.73,-142.08 1229.38,-129.09"/>
<polygon fill="#63b8ff" stroke="#63b8ff" points="1088.04,-268.73 1079.49,-274.99 1090.08,-275.42 1088.04,-268.73"/>
</a>
</g>
</g>
<!-- Node28 -->
<g id="Node000028" class="node">
<title>Node28</title>
<g id="a_Node000028"><a xlink:href="UploadHandler_8cpp.html" target="_top" xlink:title=" ">
<polygon fill="white" stroke="#666666" points="1119,-129 1010,-129 1010,-110 1119,-110 1119,-129"/>
<text text-anchor="middle" x="1064.5" y="-117" font-family="Helvetica,sans-Serif" font-size="10.00">UploadHandler.cpp</text>
</a>
</g>
</g>
<!-- Node1&#45;&gt;Node28 -->
<g id="edge58_Node000001_Node000028" class="edge">
<title>Node1&#45;&gt;Node28</title>
<g id="a_edge58_Node000001_Node000028"><a xlink:title=" ">
<path fill="none" stroke="#63b8ff" d="M1051.43,-265.14C1054.12,-257.22 1056.93,-247.77 1058.5,-239 1065.78,-198.45 1065.35,-148.93 1064.81,-129.21"/>
<polygon fill="#63b8ff" stroke="#63b8ff" points="1048.05,-264.21 1047.96,-274.8 1054.64,-266.57 1048.05,-264.21"/>
</a>
</g>
</g>
<!-- Node29 -->
<g id="Node000029" class="node">
<title>Node29</title>
<g id="a_Node000029"><a xlink:href="HttpResponse_8hpp.html" target="_top" xlink:title=" ">
<polygon fill="white" stroke="#666666" points="546.5,-239 440.5,-239 440.5,-220 546.5,-220 546.5,-239"/>
<text text-anchor="middle" x="493.5" y="-227" font-family="Helvetica,sans-Serif" font-size="10.00">HttpResponse.hpp</text>
</a>
</g>
</g>
<!-- Node1&#45;&gt;Node29 -->
<g id="edge46_Node000001_Node000029" class="edge">
<title>Node1&#45;&gt;Node29</title>
<g id="a_edge46_Node000001_Node000029"><a xlink:title=" ">
<path fill="none" stroke="#63b8ff" d="M976.22,-276.93C864.98,-266.23 647,-245.27 546.53,-235.6"/>
<polygon fill="#63b8ff" stroke="#63b8ff" points="976.03,-280.43 986.32,-277.9 976.7,-273.46 976.03,-280.43"/>
</a>
</g>
</g>
<!-- Node3 -->
<g id="Node000003" class="node">
<title>Node3</title>
<g id="a_Node000003"><a xlink:href="DeleteHandler_8cpp.html" target="_top" xlink:title=" ">
<polygon fill="white" stroke="#666666" points="164,-129 57,-129 57,-110 164,-110 164,-129"/>
<text text-anchor="middle" x="110.5" y="-117" font-family="Helvetica,sans-Serif" font-size="10.00">DeleteHandler.cpp</text>
</a>
</g>
</g>
<!-- Node2&#45;&gt;Node3 -->
<g id="edge2_Node000002_Node000003" class="edge">
<title>Node2&#45;&gt;Node3</title>
<g id="a_edge2_Node000002_Node000003"><a xlink:title=" ">
<path fill="none" stroke="#63b8ff" d="M157.95,-158.6C146.12,-149.11 131.21,-137.13 121.3,-129.17"/>
<polygon fill="#63b8ff" stroke="#63b8ff" points="155.91,-161.45 165.9,-164.98 160.29,-155.99 155.91,-161.45"/>
</a>
</g>
</g>
<!-- Node4 -->
<g id="Node000004" class="node">
<title>Node4</title>
<g id="a_Node000004"><a xlink:href="Dispatcher_8cpp.html" target="_top" xlink:title=" ">
<polygon fill="white" stroke="#666666" points="562,-74 473,-74 473,-55 562,-55 562,-74"/>
<text text-anchor="middle" x="517.5" y="-62" font-family="Helvetica,sans-Serif" font-size="10.00">Dispatcher.cpp</text>
</a>
</g>
</g>
<!-- Node2&#45;&gt;Node4 -->
<g id="edge3_Node000002_Node000004" class="edge">
<title>Node2&#45;&gt;Node4</title>
<g id="a_edge3_Node000002_Node000004"><a xlink:title=" ">
<path fill="none" stroke="#63b8ff" d="M213.12,-161.9C282.07,-140.07 429.64,-93.33 490.45,-74.07"/>
<polygon fill="#63b8ff" stroke="#63b8ff" points="212.02,-158.58 203.54,-164.94 214.13,-165.25 212.02,-158.58"/>
</a>
</g>
</g>
<!-- Node5&#45;&gt;Node2 -->
<g id="edge35_Node000005_Node000002" class="edge">
<title>Node5&#45;&gt;Node2</title>
<g id="a_edge35_Node000005_Node000002"><a xlink:title=" ">
<path fill="none" stroke="#63b8ff" d="M651.93,-223.66C562.33,-216.19 387.57,-200.96 239.5,-184 236.43,-183.65 233.28,-183.27 230.1,-182.88"/>
<polygon fill="#63b8ff" stroke="#63b8ff" points="651.91,-227.17 662.17,-224.5 652.49,-220.19 651.91,-227.17"/>
</a>
</g>
</g>
<!-- Node6 -->
<g id="Node000006" class="node">
<title>Node6</title>
<g id="a_Node000006"><a xlink:href="AutoIndexHandler_8hpp.html" target="_top" xlink:title=" ">
<polygon fill="white" stroke="#666666" points="556,-184 431,-184 431,-165 556,-165 556,-184"/>
<text text-anchor="middle" x="493.5" y="-172" font-family="Helvetica,sans-Serif" font-size="10.00">AutoIndexHandler.hpp</text>
</a>
</g>
</g>
<!-- Node5&#45;&gt;Node6 -->
<g id="edge5_Node000005_Node000006" class="edge">
<title>Node5&#45;&gt;Node6</title>
<g id="a_edge5_Node000005_Node000006"><a xlink:title=" ">
<path fill="none" stroke="#63b8ff" d="M666.52,-217.56C625.69,-207.64 566.3,-193.2 528.8,-184.08"/>
<polygon fill="#63b8ff" stroke="#63b8ff" points="665.93,-221.02 676.47,-219.98 667.58,-214.22 665.93,-221.02"/>
</a>
</g>
</g>
<!-- Node8 -->
<g id="Node000008" class="node">
<title>Node8</title>
<g id="a_Node000008"><a xlink:href="CgiHandler_8hpp.html" target="_top" xlink:title=" ">
<polygon fill="white" stroke="#666666" points="545,-129 454,-129 454,-110 545,-110 545,-129"/>
<text text-anchor="middle" x="499.5" y="-117" font-family="Helvetica,sans-Serif" font-size="10.00">CgiHandler.hpp</text>
</a>
</g>
</g>
<!-- Node5&#45;&gt;Node8 -->
<g id="edge8_Node000005_Node000008" class="edge">
<title>Node5&#45;&gt;Node8</title>
<g id="a_edge8_Node000005_Node000008"><a xlink:title=" ">
<path fill="none" stroke="#63b8ff" d="M685.56,-215.28C641.48,-192.83 553.15,-147.83 516.28,-129.05"/>
<polygon fill="#63b8ff" stroke="#63b8ff" points="684.01,-218.42 694.51,-219.84 687.19,-212.19 684.01,-218.42"/>
</a>
</g>
</g>
<!-- Node13 -->
<g id="Node000013" class="node">
<title>Node13</title>
<g id="a_Node000013"><a xlink:href="ClientConnection_8hpp.html" target="_top" xlink:title=" ">
<polygon fill="white" stroke="#666666" points="772,-184 651,-184 651,-165 772,-165 772,-184"/>
<text text-anchor="middle" x="711.5" y="-172" font-family="Helvetica,sans-Serif" font-size="10.00">ClientConnection.hpp</text>
</a>
</g>
</g>
<!-- Node5&#45;&gt;Node13 -->
<g id="edge14_Node000005_Node000013" class="edge">
<title>Node5&#45;&gt;Node13</title>
<g id="a_edge14_Node000005_Node000013"><a xlink:title=" ">
<path fill="none" stroke="#63b8ff" d="M711.5,-209.66C711.5,-200.93 711.5,-190.99 711.5,-184.09"/>
<polygon fill="#63b8ff" stroke="#63b8ff" points="708,-209.75 711.5,-219.75 715,-209.75 708,-209.75"/>
</a>
</g>
</g>
<!-- Node23 -->
<g id="Node000023" class="node">
<title>Node23</title>
<g id="a_Node000023"><a xlink:href="HttpRequest_8cpp.html" target="_top" xlink:title=" ">
<polygon fill="white" stroke="#666666" points="1016.5,-184 918.5,-184 918.5,-165 1016.5,-165 1016.5,-184"/>
<text text-anchor="middle" x="967.5" y="-172" font-family="Helvetica,sans-Serif" font-size="10.00">HttpRequest.cpp</text>
</a>
</g>
</g>
<!-- Node5&#45;&gt;Node23 -->
<g id="edge36_Node000005_Node000023" class="edge">
<title>Node5&#45;&gt;Node23</title>
<g id="a_edge36_Node000005_Node000023"><a xlink:title=" ">
<path fill="none" stroke="#63b8ff" d="M762.5,-217.94C810.49,-208.01 881.45,-193.31 926.05,-184.08"/>
<polygon fill="#63b8ff" stroke="#63b8ff" points="761.71,-214.53 752.63,-219.98 763.13,-221.38 761.71,-214.53"/>
</a>
</g>
</g>
<!-- Node24 -->
<g id="Node000024" class="node">
<title>Node24</title>
<g id="a_Node000024"><a xlink:href="RequestParse_8hpp.html" target="_top" xlink:title=" ">
<polygon fill="white" stroke="#666666" points="1214.5,-184 1110.5,-184 1110.5,-165 1214.5,-165 1214.5,-184"/>
<text text-anchor="middle" x="1162.5" y="-172" font-family="Helvetica,sans-Serif" font-size="10.00">RequestParse.hpp</text>
</a>
</g>
</g>
<!-- Node5&#45;&gt;Node24 -->
<g id="edge37_Node000005_Node000024" class="edge">
<title>Node5&#45;&gt;Node24</title>
<g id="a_edge37_Node000005_Node000024"><a xlink:title=" ">
<path fill="none" stroke="#63b8ff" d="M770.8,-221.53C859.64,-211.09 1025.84,-191.56 1110.32,-181.63"/>
<polygon fill="#63b8ff" stroke="#63b8ff" points="770.15,-218.08 760.62,-222.73 770.96,-225.04 770.15,-218.08"/>
</a>
</g>
</g>
<!-- Node26 -->
<g id="Node000026" class="node">
<title>Node26</title>
<g id="a_Node000026"><a xlink:href="StaticPageHandler_8hpp.html" target="_top" xlink:title=" ">
<polygon fill="white" stroke="#666666" points="374.5,-184 248.5,-184 248.5,-165 374.5,-165 374.5,-184"/>
<text text-anchor="middle" x="311.5" y="-172" font-family="Helvetica,sans-Serif" font-size="10.00">StaticPageHandler.hpp</text>
</a>
</g>
</g>
<!-- Node5&#45;&gt;Node26 -->
<g id="edge40_Node000005_Node000026" class="edge">
<title>Node5&#45;&gt;Node26</title>
<g id="a_edge40_Node000005_Node000026"><a xlink:title=" ">
<path fill="none" stroke="#63b8ff" d="M652.33,-220.66C578,-210.81 451.01,-193.98 374.8,-183.89"/>
<polygon fill="#63b8ff" stroke="#63b8ff" points="652.08,-224.16 662.45,-222 653,-217.22 652.08,-224.16"/>
</a>
</g>
</g>
<!-- Node27 -->
<g id="Node000027" class="node">
<title>Node27</title>
<g id="a_Node000027"><a xlink:href="UploadHandler_8hpp.html" target="_top" xlink:title=" ">
<polygon fill="white" stroke="#666666" points="900.5,-184 790.5,-184 790.5,-165 900.5,-165 900.5,-184"/>
<text text-anchor="middle" x="845.5" y="-172" font-family="Helvetica,sans-Serif" font-size="10.00">UploadHandler.hpp</text>
</a>
</g>
</g>
<!-- Node5&#45;&gt;Node27 -->
<g id="edge43_Node000005_Node000027" class="edge">
<title>Node5&#45;&gt;Node27</title>
<g id="a_edge43_Node000005_Node000027"><a xlink:title=" ">
<path fill="none" stroke="#63b8ff" d="M742.37,-216.29C767.2,-206.47 801.49,-192.91 823.58,-184.17"/>
<polygon fill="#63b8ff" stroke="#63b8ff" points="741.04,-213.05 733.03,-219.98 743.62,-219.56 741.04,-213.05"/>
</a>
</g>
</g>
<!-- Node6&#45;&gt;Node4 -->
<g id="edge7_Node000006_Node000004" class="edge">
<title>Node6&#45;&gt;Node4</title>
<g id="a_edge7_Node000006_Node000004"><a xlink:title=" ">
<path fill="none" stroke="#63b8ff" d="M469.66,-158.98C452.61,-146.64 434.34,-128.09 444.5,-110 454.38,-92.4 474.37,-80.94 490.93,-74.06"/>
<polygon fill="#63b8ff" stroke="#63b8ff" points="468.06,-162.13 478.3,-164.83 471.99,-156.33 468.06,-162.13"/>
</a>
</g>
</g>
<!-- Node7 -->
<g id="Node000007" class="node">
<title>Node7</title>
<g id="a_Node000007"><a xlink:href="AutoIndexHandler_8cpp.html" target="_top" xlink:title=" ">
<polygon fill="white" stroke="#666666" points="850.5,-74 726.5,-74 726.5,-55 850.5,-55 850.5,-74"/>
<text text-anchor="middle" x="788.5" y="-62" font-family="Helvetica,sans-Serif" font-size="10.00">AutoIndexHandler.cpp</text>
</a>
</g>
</g>
<!-- Node6&#45;&gt;Node7 -->
<g id="edge6_Node000006_Node000007" class="edge">
<title>Node6&#45;&gt;Node7</title>
<g id="a_edge6_Node000006_Node000007"><a xlink:title=" ">
<path fill="none" stroke="#63b8ff" d="M544.73,-162.65C578.21,-154.89 622.59,-143.29 660.5,-129 702.98,-112.99 750.13,-87.42 773.57,-74.14"/>
<polygon fill="#63b8ff" stroke="#63b8ff" points="543.68,-159.3 534.71,-164.94 545.24,-166.13 543.68,-159.3"/>
</a>
</g>
</g>
<!-- Node8&#45;&gt;Node4 -->
<g id="edge10_Node000008_Node000004" class="edge">
<title>Node8&#45;&gt;Node4</title>
<g id="a_edge10_Node000008_Node000004"><a xlink:title=" ">
<path fill="none" stroke="#63b8ff" d="M505.7,-100.24C508.71,-91.37 512.19,-81.14 514.58,-74.09"/>
<polygon fill="#63b8ff" stroke="#63b8ff" points="502.37,-99.15 502.47,-109.75 509,-101.4 502.37,-99.15"/>
</a>
</g>
</g>
<!-- Node9 -->
<g id="Node000009" class="node">
<title>Node9</title>
<g id="a_Node000009"><a xlink:href="CgiHandler_8cpp.html" target="_top" xlink:title=" ">
<polygon fill="white" stroke="#666666" points="708.5,-74 618.5,-74 618.5,-55 708.5,-55 708.5,-74"/>
<text text-anchor="middle" x="663.5" y="-62" font-family="Helvetica,sans-Serif" font-size="10.00">CgiHandler.cpp</text>
</a>
</g>
</g>
<!-- Node8&#45;&gt;Node9 -->
<g id="edge9_Node000008_Node000009" class="edge">
<title>Node8&#45;&gt;Node9</title>
<g id="a_edge9_Node000008_Node000009"><a xlink:title=" ">
<path fill="none" stroke="#63b8ff" d="M535.71,-106.8C566.32,-96.91 609.45,-82.97 636.94,-74.08"/>
<polygon fill="#63b8ff" stroke="#63b8ff" points="534.29,-103.58 525.85,-109.98 536.44,-110.24 534.29,-103.58"/>
</a>
</g>
</g>
<!-- Node10 -->
<g id="Node000010" class="node">
<title>Node10</title>
<g id="a_Node000010"><a xlink:href="WebServer_8hpp.html" target="_top" xlink:title=" ">
<polygon fill="white" stroke="#666666" points="312,-74 223,-74 223,-55 312,-55 312,-74"/>
<text text-anchor="middle" x="267.5" y="-62" font-family="Helvetica,sans-Serif" font-size="10.00">WebServer.hpp</text>
</a>
</g>
</g>
<!-- Node8&#45;&gt;Node10 -->
<g id="edge11_Node000008_Node000010" class="edge">
<title>Node8&#45;&gt;Node10</title>
<g id="a_edge11_Node000008_Node000010"><a xlink:title=" ">
<path fill="none" stroke="#63b8ff" d="M452.46,-107.75C408.98,-97.82 345.23,-83.26 305.07,-74.08"/>
<polygon fill="#63b8ff" stroke="#63b8ff" points="451.7,-111.17 462.23,-109.98 453.26,-104.35 451.7,-111.17"/>
</a>
</g>
</g>
<!-- Node11 -->
<g id="Node000011" class="node">
<title>Node11</title>
<g id="a_Node000011"><a xlink:href="WebServer_8cpp.html" target="_top" xlink:title=" ">
<polygon fill="white" stroke="#666666" points="635,-19 546,-19 546,0 635,0 635,-19"/>
<text text-anchor="middle" x="590.5" y="-7" font-family="Helvetica,sans-Serif" font-size="10.00">WebServer.cpp</text>
</a>
</g>
</g>
<!-- Node10&#45;&gt;Node11 -->
<g id="edge12_Node000010_Node000011" class="edge">
<title>Node10&#45;&gt;Node11</title>
<g id="a_edge12_Node000010_Node000011"><a xlink:title=" ">
<path fill="none" stroke="#63b8ff" d="M322.21,-54.52C385.21,-44.19 487.48,-27.41 545.87,-17.82"/>
<polygon fill="#63b8ff" stroke="#63b8ff" points="321.37,-51.11 312.07,-56.19 322.51,-58.02 321.37,-51.11"/>
</a>
</g>
</g>
<!-- Node12 -->
<g id="Node000012" class="node">
<title>Node12</title>
<g id="a_Node000012"><a xlink:href="main_8cpp.html" target="_top" xlink:title=" ">
<polygon fill="white" stroke="#666666" points="202.5,-19 140.5,-19 140.5,0 202.5,0 202.5,-19"/>
<text text-anchor="middle" x="171.5" y="-7" font-family="Helvetica,sans-Serif" font-size="10.00">main.cpp</text>
</a>
</g>
</g>
<!-- Node10&#45;&gt;Node12 -->
<g id="edge13_Node000010_Node000012" class="edge">
<title>Node10&#45;&gt;Node12</title>
<g id="a_edge13_Node000010_Node000012"><a xlink:title=" ">
<path fill="none" stroke="#63b8ff" d="M242.98,-49.97C225.44,-40.28 202.33,-27.52 187.2,-19.17"/>
<polygon fill="#63b8ff" stroke="#63b8ff" points="241.63,-53.22 252.08,-54.98 245.01,-47.09 241.63,-53.22"/>
</a>
</g>
</g>
<!-- Node13&#45;&gt;Node8 -->
<g id="edge15_Node000013_Node000008" class="edge">
<title>Node13&#45;&gt;Node8</title>
<g id="a_edge15_Node000013_Node000008"><a xlink:title=" ">
<path fill="none" stroke="#63b8ff" d="M667.5,-162.5C627.81,-152.58 570.22,-138.18 533.83,-129.08"/>
<polygon fill="#63b8ff" stroke="#63b8ff" points="666.89,-165.95 677.44,-164.98 668.59,-159.16 666.89,-165.95"/>
</a>
</g>
</g>
<!-- Node14 -->
<g id="Node000014" class="node">
<title>Node14</title>
<g id="a_Node000014"><a xlink:href="ClientConnection_8cpp.html" target="_top" xlink:title=" ">
<polygon fill="white" stroke="#666666" points="1162.5,-74 1042.5,-74 1042.5,-55 1162.5,-55 1162.5,-74"/>
<text text-anchor="middle" x="1102.5" y="-62" font-family="Helvetica,sans-Serif" font-size="10.00">ClientConnection.cpp</text>
</a>
</g>
</g>
<!-- Node13&#45;&gt;Node14 -->
<g id="edge16_Node000013_Node000014" class="edge">
<title>Node13&#45;&gt;Node14</title>
<g id="a_edge16_Node000013_Node000014"><a xlink:title=" ">
<path fill="none" stroke="#63b8ff" d="M780.25,-163.45C842.27,-153.98 928.64,-139.7 961.5,-129 979.83,-123.03 982.99,-118.08 1000.5,-110 1028.57,-97.05 1061.39,-82.9 1082.07,-74.12"/>
<polygon fill="#63b8ff" stroke="#63b8ff" points="779.5,-160.02 770.13,-164.98 780.55,-166.94 779.5,-160.02"/>
</a>
</g>
</g>
<!-- Node15 -->
<g id="Node000015" class="node">
<title>Node15</title>
<g id="a_Node000015"><a xlink:href="Dispatcher_8hpp.html" target="_top" xlink:title=" ">
<polygon fill="white" stroke="#666666" points="652,-129 563,-129 563,-110 652,-110 652,-129"/>
<text text-anchor="middle" x="607.5" y="-117" font-family="Helvetica,sans-Serif" font-size="10.00">Dispatcher.hpp</text>
</a>
</g>
</g>
<!-- Node13&#45;&gt;Node15 -->
<g id="edge17_Node000013_Node000015" class="edge">
<title>Node13&#45;&gt;Node15</title>
<g id="a_edge17_Node000013_Node000015"><a xlink:title=" ">
<path fill="none" stroke="#63b8ff" d="M685.73,-160.37C666.63,-150.63 641.13,-137.64 624.51,-129.17"/>
<polygon fill="#63b8ff" stroke="#63b8ff" points="684.29,-163.56 694.79,-164.98 687.47,-157.33 684.29,-163.56"/>
</a>
</g>
</g>
<!-- Node13&#45;&gt;Node16 -->
<g id="edge20_Node000013_Node000016" class="edge">
<title>Node13&#45;&gt;Node16</title>
<g id="a_edge20_Node000013_Node000016"><a xlink:title=" ">
<path fill="none" stroke="#63b8ff" d="M735.76,-159.97C753.13,-150.28 775.99,-137.52 790.96,-129.17"/>
<polygon fill="#63b8ff" stroke="#63b8ff" points="733.79,-157.06 726.76,-164.98 737.2,-163.17 733.79,-157.06"/>
</a>
</g>
</g>
<!-- Node19 -->
<g id="Node000019" class="node">
<title>Node19</title>
<g id="a_Node000019"><a xlink:href="Router_8hpp.html" target="_top" xlink:title=" ">
<polygon fill="white" stroke="#666666" points="953,-129 884,-129 884,-110 953,-110 953,-129"/>
<text text-anchor="middle" x="918.5" y="-117" font-family="Helvetica,sans-Serif" font-size="10.00">Router.hpp</text>
</a>
</g>
</g>
<!-- Node13&#45;&gt;Node19 -->
<g id="edge28_Node000013_Node000019" class="edge">
<title>Node13&#45;&gt;Node19</title>
<g id="a_edge28_Node000013_Node000019"><a xlink:title=" ">
<path fill="none" stroke="#63b8ff" d="M754.71,-162.44C793.46,-152.52 849.53,-138.16 884.98,-129.08"/>
<polygon fill="#63b8ff" stroke="#63b8ff" points="753.58,-159.11 744.76,-164.98 755.31,-165.89 753.58,-159.11"/>
</a>
</g>
</g>
<!-- Node21 -->
<g id="Node000021" class="node">
<title>Node21</title>
<g id="a_Node000021"><a xlink:href="ServerSocket_8hpp.html" target="_top" xlink:title=" ">
<polygon fill="white" stroke="#666666" points="283,-129 182,-129 182,-110 283,-110 283,-129"/>
<text text-anchor="middle" x="232.5" y="-117" font-family="Helvetica,sans-Serif" font-size="10.00">ServerSocket.hpp</text>
</a>
</g>
</g>
<!-- Node13&#45;&gt;Node21 -->
<g id="edge31_Node000013_Node000021" class="edge">
<title>Node13&#45;&gt;Node21</title>
<g id="a_edge31_Node000013_Node000021"><a xlink:title=" ">
<path fill="none" stroke="#63b8ff" d="M640.75,-165.67C543,-154.86 369,-135.6 283.21,-126.11"/>
<polygon fill="#63b8ff" stroke="#63b8ff" points="640.51,-169.17 650.83,-166.79 641.28,-162.21 640.51,-169.17"/>
</a>
</g>
</g>
<!-- Node15&#45;&gt;Node4 -->
<g id="edge18_Node000015_Node000004" class="edge">
<title>Node15&#45;&gt;Node4</title>
<g id="a_edge18_Node000015_Node000004"><a xlink:title=" ">
<path fill="none" stroke="#63b8ff" d="M584.06,-104.7C567.66,-95.04 546.27,-82.44 532.22,-74.17"/>
<polygon fill="#63b8ff" stroke="#63b8ff" points="582.65,-107.93 593.04,-109.98 586.2,-101.89 582.65,-107.93"/>
</a>
</g>
</g>
<!-- Node15&#45;&gt;Node11 -->
<g id="edge19_Node000015_Node000011" class="edge">
<title>Node15&#45;&gt;Node11</title>
<g id="a_edge19_Node000015_Node000011"><a xlink:title=" ">
<path fill="none" stroke="#63b8ff" d="M604.51,-99.48C600.79,-75.84 594.59,-36.5 591.86,-19.16"/>
<polygon fill="#63b8ff" stroke="#63b8ff" points="601.1,-100.33 606.11,-109.66 608.01,-99.24 601.1,-100.33"/>
</a>
</g>
</g>
<!-- Node16&#45;&gt;Node4 -->
<g id="edge24_Node000016_Node000004" class="edge">
<title>Node16&#45;&gt;Node4</title>
<g id="a_edge24_Node000016_Node000004"><a xlink:title=" ">
<path fill="none" stroke="#63b8ff" d="M750.16,-108.17C695.29,-98.1 612.98,-83.01 562.39,-73.73"/>
<polygon fill="#63b8ff" stroke="#63b8ff" points="749.6,-111.62 760.07,-109.98 750.86,-104.74 749.6,-111.62"/>
</a>
</g>
</g>
<!-- Node16&#45;&gt;Node7 -->
<g id="edge21_Node000016_Node000007" class="edge">
<title>Node16&#45;&gt;Node7</title>
<g id="a_edge21_Node000016_Node000007"><a xlink:title=" ">
<path fill="none" stroke="#63b8ff" d="M800.3,-100.24C797.29,-91.37 793.81,-81.14 791.42,-74.09"/>
<polygon fill="#63b8ff" stroke="#63b8ff" points="797,-101.4 803.53,-109.75 803.63,-99.15 797,-101.4"/>
</a>
</g>
</g>
<!-- Node16&#45;&gt;Node9 -->
<g id="edge22_Node000016_Node000009" class="edge">
<title>Node16&#45;&gt;Node9</title>
<g id="a_edge22_Node000016_Node000009"><a xlink:title=" ">
<path fill="none" stroke="#63b8ff" d="M773.91,-106.42C747.38,-96.59 710.57,-82.95 686.89,-74.17"/>
<polygon fill="#63b8ff" stroke="#63b8ff" points="772.93,-109.79 783.52,-109.98 775.36,-103.23 772.93,-109.79"/>
</a>
</g>
</g>
<!-- Node16&#45;&gt;Node11 -->
<g id="edge27_Node000016_Node000011" class="edge">
<title>Node16&#45;&gt;Node11</title>
<g id="a_edge27_Node000016_Node000011"><a xlink:title=" ">
<path fill="none" stroke="#63b8ff" d="M831.44,-104.59C851.41,-91.69 873.9,-71.98 859.5,-55 831.25,-21.7 704,-13.28 635.12,-11.18"/>
<polygon fill="#63b8ff" stroke="#63b8ff" points="829.57,-101.63 822.87,-109.84 833.22,-107.6 829.57,-101.63"/>
</a>
</g>
</g>
<!-- Node16&#45;&gt;Node14 -->
<g id="edge23_Node000016_Node000014" class="edge">
<title>Node16&#45;&gt;Node14</title>
<g id="a_edge23_Node000016_Node000014"><a xlink:title=" ">
<path fill="none" stroke="#63b8ff" d="M864.09,-108.19C919.58,-98.25 1002.57,-83.39 1054.57,-74.08"/>
<polygon fill="#63b8ff" stroke="#63b8ff" points="863.28,-104.78 854.06,-109.98 864.52,-111.67 863.28,-104.78"/>
</a>
</g>
</g>
<!-- Node17 -->
<g id="Node000017" class="node">
<title>Node17</title>
<g id="a_Node000017"><a xlink:href="ResponseBuilder_8cpp.html" target="_top" xlink:title=" ">
<polygon fill="white" stroke="#666666" points="1024.5,-74 906.5,-74 906.5,-55 1024.5,-55 1024.5,-74"/>
<text text-anchor="middle" x="965.5" y="-62" font-family="Helvetica,sans-Serif" font-size="10.00">ResponseBuilder.cpp</text>
</a>
</g>
</g>
<!-- Node16&#45;&gt;Node17 -->
<g id="edge25_Node000016_Node000017" class="edge">
<title>Node16&#45;&gt;Node17</title>
<g id="a_edge25_Node000016_Node000017"><a xlink:title=" ">
<path fill="none" stroke="#63b8ff" d="M841.6,-106.8C871.28,-96.91 913.1,-82.97 939.75,-74.08"/>
<polygon fill="#63b8ff" stroke="#63b8ff" points="840.43,-103.5 832.05,-109.98 842.64,-110.14 840.43,-103.5"/>
</a>
</g>
</g>
<!-- Node18 -->
<g id="Node000018" class="node">
<title>Node18</title>
<g id="a_Node000018"><a xlink:href="StaticPageHandler_8cpp.html" target="_top" xlink:title=" ">
<polygon fill="white" stroke="#666666" points="455,-74 330,-74 330,-55 455,-55 455,-74"/>
<text text-anchor="middle" x="392.5" y="-62" font-family="Helvetica,sans-Serif" font-size="10.00">StaticPageHandler.cpp</text>
</a>
</g>
</g>
<!-- Node16&#45;&gt;Node18 -->
<g id="edge26_Node000016_Node000018" class="edge">
<title>Node16&#45;&gt;Node18</title>
<g id="a_edge26_Node000016_Node000018"><a xlink:title=" ">
<path fill="none" stroke="#63b8ff" d="M736.43,-109.53C657.67,-99.45 530.94,-83.22 455.29,-73.54"/>
<polygon fill="#63b8ff" stroke="#63b8ff" points="736.38,-113.05 746.74,-110.85 737.27,-106.11 736.38,-113.05"/>
</a>
</g>
</g>
<!-- Node19&#45;&gt;Node4 -->
<g id="edge29_Node000019_Node000004" class="edge">
<title>Node19&#45;&gt;Node4</title>
<g id="a_edge29_Node000019_Node000004"><a xlink:title=" ">
<path fill="none" stroke="#63b8ff" d="M873.97,-110.02C755.33,-91.42 628.03,-77.09 562.16,-70.1"/>
<polygon fill="#63b8ff" stroke="#63b8ff" points="873.53,-113.49 883.95,-111.6 874.62,-106.58 873.53,-113.49"/>
</a>
</g>
</g>
<!-- Node19&#45;&gt;Node20 -->
<g id="edge30_Node000019_Node000020" class="edge">
<title>Node19&#45;&gt;Node20</title>
<g id="a_edge30_Node000019_Node000020"><a xlink:title=" ">
<path fill="none" stroke="#63b8ff" d="M963.47,-111.55C1033.02,-100.8 1165.12,-80.39 1227.4,-70.77"/>
<polygon fill="#63b8ff" stroke="#63b8ff" points="962.62,-108.14 953.28,-113.13 963.69,-115.06 962.62,-108.14"/>
</a>
</g>
</g>
<!-- Node21&#45;&gt;Node10 -->
<g id="edge33_Node000021_Node000010" class="edge">
<title>Node21&#45;&gt;Node10</title>
<g id="a_edge33_Node000021_Node000010"><a xlink:title=" ">
<path fill="none" stroke="#63b8ff" d="M243.8,-101.39C249.82,-92.27 256.97,-81.45 261.83,-74.09"/>
<polygon fill="#63b8ff" stroke="#63b8ff" points="240.87,-99.47 238.28,-109.75 246.71,-103.33 240.87,-99.47"/>
</a>
</g>
</g>
<!-- Node21&#45;&gt;Node12 -->
<g id="edge34_Node000021_Node000012" class="edge">
<title>Node21&#45;&gt;Node12</title>
<g id="a_edge34_Node000021_Node000012"><a xlink:title=" ">
<path fill="none" stroke="#63b8ff" d="M177.67,-107.7C143.71,-99.78 104.68,-87.98 94.5,-74 77.11,-50.12 117.04,-29.88 145.65,-19.03"/>
<polygon fill="#63b8ff" stroke="#63b8ff" points="177.02,-111.15 187.54,-109.94 178.56,-104.32 177.02,-111.15"/>
</a>
</g>
</g>
<!-- Node22 -->
<g id="Node000022" class="node">
<title>Node22</title>
<g id="a_Node000022"><a xlink:href="ServerSocket_8cpp.html" target="_top" xlink:title=" ">
<polygon fill="white" stroke="#666666" points="205,-74 104,-74 104,-55 205,-55 205,-74"/>
<text text-anchor="middle" x="154.5" y="-62" font-family="Helvetica,sans-Serif" font-size="10.00">ServerSocket.cpp</text>
</a>
</g>
</g>
<!-- Node21&#45;&gt;Node22 -->
<g id="edge32_Node000021_Node000022" class="edge">
<title>Node21&#45;&gt;Node22</title>
<g id="a_edge32_Node000021_Node000022"><a xlink:title=" ">
<path fill="none" stroke="#63b8ff" d="M211.38,-104.15C197.29,-94.57 179.21,-82.29 167.26,-74.17"/>
<polygon fill="#63b8ff" stroke="#63b8ff" points="209.73,-107.26 219.97,-109.98 213.66,-101.47 209.73,-107.26"/>
</a>
</g>
</g>
<!-- Node24&#45;&gt;Node14 -->
<g id="edge38_Node000024_Node000014" class="edge">
<title>Node24&#45;&gt;Node14</title>
<g id="a_edge38_Node000024_Node000014"><a xlink:title=" ">
<path fill="none" stroke="#63b8ff" d="M1152.8,-155.81C1145.8,-143.06 1136.1,-125.45 1127.5,-110 1120.52,-97.46 1112.36,-82.97 1107.31,-74.02"/>
<polygon fill="#63b8ff" stroke="#63b8ff" points="1149.89,-157.78 1157.77,-164.86 1156.02,-154.41 1149.89,-157.78"/>
</a>
</g>
</g>
<!-- Node24&#45;&gt;Node25 -->
<g id="edge39_Node000024_Node000025" class="edge">
<title>Node24&#45;&gt;Node25</title>
<g id="a_edge39_Node000024_Node000025"><a xlink:title=" ">
<path fill="none" stroke="#63b8ff" d="M1180.77,-158.6C1192.42,-149.11 1207.1,-137.13 1216.87,-129.17"/>
<polygon fill="#63b8ff" stroke="#63b8ff" points="1178.48,-155.95 1172.94,-164.98 1182.91,-161.38 1178.48,-155.95"/>
</a>
</g>
</g>
<!-- Node26&#45;&gt;Node4 -->
<g id="edge41_Node000026_Node000004" class="edge">
<title>Node26&#45;&gt;Node4</title>
<g id="a_edge41_Node000026_Node000004"><a xlink:title=" ">
<path fill="none" stroke="#63b8ff" d="M336.98,-160.14C379.9,-137.64 465.44,-92.79 501.2,-74.05"/>
<polygon fill="#63b8ff" stroke="#63b8ff" points="335.24,-157.1 328.01,-164.84 338.49,-163.3 335.24,-157.1"/>
</a>
</g>
</g>
<!-- Node26&#45;&gt;Node18 -->
<g id="edge42_Node000026_Node000018" class="edge">
<title>Node26&#45;&gt;Node18</title>
<g id="a_edge42_Node000026_Node000018"><a xlink:title=" ">
<path fill="none" stroke="#63b8ff" d="M324.34,-156.38C341.87,-133.01 372.65,-91.97 386.01,-74.16"/>
<polygon fill="#63b8ff" stroke="#63b8ff" points="321.33,-154.56 318.13,-164.66 326.93,-158.76 321.33,-154.56"/>
</a>
</g>
</g>
<!-- Node27&#45;&gt;Node4 -->
<g id="edge44_Node000027_Node000004" class="edge">
<title>Node27&#45;&gt;Node4</title>
<g id="a_edge44_Node000027_Node000004"><a xlink:title=" ">
<path fill="none" stroke="#63b8ff" d="M811.55,-161.52C774.52,-148.53 713.45,-127.32 660.5,-110 620.84,-97.02 574.7,-82.83 545.79,-74.04"/>
<polygon fill="#63b8ff" stroke="#63b8ff" points="810.74,-164.94 821.33,-164.95 813.06,-158.34 810.74,-164.94"/>
</a>
</g>
</g>
<!-- Node27&#45;&gt;Node28 -->
<g id="edge45_Node000027_Node000028" class="edge">
<title>Node27&#45;&gt;Node28</title>
<g id="a_edge45_Node000027_Node000028"><a xlink:title=" ">
<path fill="none" stroke="#63b8ff" d="M890.43,-162.63C931.45,-152.7 991.29,-138.22 1029.04,-129.08"/>
<polygon fill="#63b8ff" stroke="#63b8ff" points="889.58,-159.23 880.69,-164.98 891.23,-166.03 889.58,-159.23"/>
</a>
</g>
</g>
<!-- Node29&#45;&gt;Node2 -->
<g id="edge50_Node000029_Node000002" class="edge">
<title>Node29&#45;&gt;Node2</title>
<g id="a_edge50_Node000029_Node000002"><a xlink:title=" ">
<path fill="none" stroke="#63b8ff" d="M432.55,-218.31C373.02,-208.36 283.46,-193.38 227.57,-184.04"/>
<polygon fill="#63b8ff" stroke="#63b8ff" points="432.13,-221.79 442.57,-219.98 433.28,-214.88 432.13,-221.79"/>
</a>
</g>
</g>
<!-- Node29&#45;&gt;Node6 -->
<g id="edge47_Node000029_Node000006" class="edge">
<title>Node29&#45;&gt;Node6</title>
<g id="a_edge47_Node000029_Node000006"><a xlink:title=" ">
<path fill="none" stroke="#63b8ff" d="M493.5,-209.66C493.5,-200.93 493.5,-190.99 493.5,-184.09"/>
<polygon fill="#63b8ff" stroke="#63b8ff" points="490,-209.75 493.5,-219.75 497,-209.75 490,-209.75"/>
</a>
</g>
</g>
<!-- Node29&#45;&gt;Node8 -->
<g id="edge48_Node000029_Node000008" class="edge">
<title>Node29&#45;&gt;Node8</title>
<g id="a_edge48_Node000029_Node000008"><a xlink:title=" ">
<path fill="none" stroke="#63b8ff" d="M459.84,-215.79C435.53,-204.51 409.01,-186.5 421.5,-165 431.91,-147.07 452.56,-135.76 470,-129.03"/>
<polygon fill="#63b8ff" stroke="#63b8ff" points="458.74,-219.13 469.3,-219.92 461.54,-212.72 458.74,-219.13"/>
</a>
</g>
</g>
<!-- Node29&#45;&gt;Node13 -->
<g id="edge49_Node000029_Node000013" class="edge">
<title>Node29&#45;&gt;Node13</title>
<g id="a_edge49_Node000029_Node000013"><a xlink:title=" ">
<path fill="none" stroke="#63b8ff" d="M538.48,-217.56C579.31,-207.64 638.7,-193.2 676.2,-184.08"/>
<polygon fill="#63b8ff" stroke="#63b8ff" points="537.42,-214.22 528.53,-219.98 539.07,-221.02 537.42,-214.22"/>
</a>
</g>
</g>
<!-- Node29&#45;&gt;Node16 -->
<g id="edge52_Node000029_Node000016" class="edge">
<title>Node29&#45;&gt;Node16</title>
<g id="a_edge52_Node000029_Node000016"><a xlink:title=" ">
<path fill="none" stroke="#63b8ff" d="M520.58,-215.5C549.92,-201.75 598.31,-180 641.5,-165 684.52,-150.05 735.27,-137.03 769.02,-129"/>
<polygon fill="#63b8ff" stroke="#63b8ff" points="518.95,-212.4 511.4,-219.84 521.94,-218.73 518.95,-212.4"/>
</a>
</g>
</g>
<!-- Node29&#45;&gt;Node26 -->
<g id="edge53_Node000029_Node000026" class="edge">
<title>Node29&#45;&gt;Node26</title>
<g id="a_edge53_Node000029_Node000026"><a xlink:title=" ">
<path fill="none" stroke="#63b8ff" d="M454.64,-217.18C420.6,-207.27 371.88,-193.08 340.97,-184.08"/>
<polygon fill="#63b8ff" stroke="#63b8ff" points="453.68,-220.55 464.26,-219.98 455.64,-213.83 453.68,-220.55"/>
</a>
</g>
</g>
<!-- Node29&#45;&gt;Node27 -->
<g id="edge54_Node000029_Node000027" class="edge">
<title>Node29&#45;&gt;Node27</title>
<g id="a_edge54_Node000029_Node000027"><a xlink:title=" ">
<path fill="none" stroke="#63b8ff" d="M556.52,-219.01C623.03,-209 726.83,-193.37 790.24,-183.82"/>
<polygon fill="#63b8ff" stroke="#63b8ff" points="555.95,-215.56 546.58,-220.51 556.99,-222.48 555.95,-215.56"/>
</a>
</g>
</g>
<!-- Node30 -->
<g id="Node000030" class="node">
<title>Node30</title>
<g id="a_Node000030"><a xlink:href="HttpResponse_8cpp.html" target="_top" xlink:title=" ">
<polygon fill="white" stroke="#666666" points="105,-184 0,-184 0,-165 105,-165 105,-184"/>
<text text-anchor="middle" x="52.5" y="-172" font-family="Helvetica,sans-Serif" font-size="10.00">HttpResponse.cpp</text>
</a>
</g>
</g>
<!-- Node29&#45;&gt;Node30 -->
<g id="edge51_Node000029_Node000030" class="edge">
<title>Node29&#45;&gt;Node30</title>
<g id="a_edge51_Node000029_Node000030"><a xlink:title=" ">
<path fill="none" stroke="#63b8ff" d="M429.99,-221.49C354.49,-213.06 224.72,-198.26 113.5,-184 110.74,-183.65 107.92,-183.28 105.06,-182.9"/>
<polygon fill="#63b8ff" stroke="#63b8ff" points="429.95,-225.01 440.28,-222.64 430.73,-218.05 429.95,-225.01"/>
</a>
</g>
</g>
</g>
</svg>
