<?xml version="1.0" encoding="UTF-8" standalone="no"?>
<!DOCTYPE svg PUBLIC "-//W3C//DTD SVG 1.1//EN"
 "http://www.w3.org/Graphics/SVG/1.1/DTD/svg11.dtd">
<!-- Generated by graphviz version 2.43.0 (0)
 -->
<!-- Title: includes/response/ResponseBuilder.hpp Pages: 1 -->
<svg width="1216pt" height="104pt"
 viewBox="0.00 0.00 1215.50 104.00" xmlns="http://www.w3.org/2000/svg" xmlns:xlink="http://www.w3.org/1999/xlink">
<g id="graph0" class="graph" transform="scale(1 1) rotate(0) translate(4 100)">
<title>includes/response/ResponseBuilder.hpp</title>
<!-- Node1 -->
<g id="Node000001" class="node">
<title>Node1</title>
<g id="a_Node000001"><a xlink:title=" ">
<polygon fill="#999999" stroke="#666666" points="679,-96 524,-96 524,-66 679,-66 679,-96"/>
<text text-anchor="start" x="532" y="-84" font-family="Helvetica,sans-Serif" font-size="10.00">includes/response/Response</text>
<text text-anchor="middle" x="601.5" y="-73" font-family="Helvetica,sans-Serif" font-size="10.00">Builder.hpp</text>
</a>
</g>
</g>
<!-- Node2 -->
<g id="Node000002" class="node">
<title>Node2</title>
<g id="a_Node000002"><a xlink:href="AutoIndexHandler_8cpp.html" target="_top" xlink:title=" ">
<polygon fill="white" stroke="#666666" points="143,-30 0,-30 0,0 143,0 143,-30"/>
<text text-anchor="start" x="8" y="-18" font-family="Helvetica,sans-Serif" font-size="10.00">srcs/dispatcher/AutoIndex</text>
<text text-anchor="middle" x="71.5" y="-7" font-family="Helvetica,sans-Serif" font-size="10.00">Handler.cpp</text>
</a>
</g>
</g>
<!-- Node1&#45;&gt;Node2 -->
<g id="edge1_Node000001_Node000002" class="edge">
<title>Node1&#45;&gt;Node2</title>
<g id="a_edge1_Node000001_Node000002"><a xlink:title=" ">
<path fill="none" stroke="#63b8ff" d="M513.69,-71.88C422.84,-63.1 276.94,-47.93 151.5,-30 148.85,-29.62 146.15,-29.22 143.42,-28.81"/>
<polygon fill="#63b8ff" stroke="#63b8ff" points="513.38,-75.37 523.67,-72.84 514.05,-68.4 513.38,-75.37"/>
</a>
</g>
</g>
<!-- Node3 -->
<g id="Node000003" class="node">
<title>Node3</title>
<g id="a_Node000003"><a xlink:href="CgiHandler_8cpp.html" target="_top" xlink:title=" ">
<polygon fill="white" stroke="#666666" points="328,-24.5 161,-24.5 161,-5.5 328,-5.5 328,-24.5"/>
<text text-anchor="middle" x="244.5" y="-12.5" font-family="Helvetica,sans-Serif" font-size="10.00">srcs/dispatcher/CgiHandler.cpp</text>
</a>
</g>
</g>
<!-- Node1&#45;&gt;Node3 -->
<g id="edge2_Node000001_Node000003" class="edge">
<title>Node1&#45;&gt;Node3</title>
<g id="a_edge2_Node000001_Node000003"><a xlink:title=" ">
<path fill="none" stroke="#63b8ff" d="M513.47,-64.22C443.58,-51.69 348.52,-34.65 292.13,-24.54"/>
<polygon fill="#63b8ff" stroke="#63b8ff" points="513.14,-67.71 523.6,-66.03 514.37,-60.82 513.14,-67.71"/>
</a>
</g>
</g>
<!-- Node4 -->
<g id="Node000004" class="node">
<title>Node4</title>
<g id="a_Node000004"><a xlink:href="Dispatcher_8cpp.html" target="_top" xlink:title=" ">
<polygon fill="white" stroke="#666666" points="511,-24.5 346,-24.5 346,-5.5 511,-5.5 511,-24.5"/>
<text text-anchor="middle" x="428.5" y="-12.5" font-family="Helvetica,sans-Serif" font-size="10.00">srcs/dispatcher/Dispatcher.cpp</text>
</a>
</g>
</g>
<!-- Node1&#45;&gt;Node4 -->
<g id="edge3_Node000001_Node000004" class="edge">
<title>Node1&#45;&gt;Node4</title>
<g id="a_edge3_Node000001_Node000004"><a xlink:title=" ">
<path fill="none" stroke="#63b8ff" d="M553.98,-62.42C520.65,-50.09 477.55,-34.15 451.52,-24.52"/>
<polygon fill="#63b8ff" stroke="#63b8ff" points="552.94,-65.77 563.53,-65.95 555.37,-59.2 552.94,-65.77"/>
</a>
</g>
</g>
<!-- Node5 -->
<g id="Node000005" class="node">
<title>Node5</title>
<g id="a_Node000005"><a xlink:href="StaticPageHandler_8cpp.html" target="_top" xlink:title=" ">
<polygon fill="white" stroke="#666666" points="673.5,-30 529.5,-30 529.5,0 673.5,0 673.5,-30"/>
<text text-anchor="start" x="537.5" y="-18" font-family="Helvetica,sans-Serif" font-size="10.00">srcs/dispatcher/StaticPage</text>
<text text-anchor="middle" x="601.5" y="-7" font-family="Helvetica,sans-Serif" font-size="10.00">Handler.cpp</text>
</a>
</g>
</g>
<!-- Node1&#45;&gt;Node5 -->
<g id="edge4_Node000001_Node000005" class="edge">
<title>Node1&#45;&gt;Node5</title>
<g id="a_edge4_Node000001_Node000005"><a xlink:title=" ">
<path fill="none" stroke="#63b8ff" d="M601.5,-55.54C601.5,-46.96 601.5,-37.61 601.5,-30.16"/>
<polygon fill="#63b8ff" stroke="#63b8ff" points="598,-55.8 601.5,-65.8 605,-55.8 598,-55.8"/>
</a>
</g>
</g>
<!-- Node6 -->
<g id="Node000006" class="node">
<title>Node6</title>
<g id="a_Node000006"><a xlink:href="ClientConnection_8cpp.html" target="_top" xlink:title=" ">
<polygon fill="white" stroke="#666666" points="853,-24.5 692,-24.5 692,-5.5 853,-5.5 853,-24.5"/>
<text text-anchor="middle" x="772.5" y="-12.5" font-family="Helvetica,sans-Serif" font-size="10.00">srcs/init/ClientConnection.cpp</text>
</a>
</g>
</g>
<!-- Node1&#45;&gt;Node6 -->
<g id="edge5_Node000001_Node000006" class="edge">
<title>Node1&#45;&gt;Node6</title>
<g id="a_edge5_Node000001_Node000006"><a xlink:title=" ">
<path fill="none" stroke="#63b8ff" d="M648.48,-62.42C681.42,-50.09 724.01,-34.15 749.74,-24.52"/>
<polygon fill="#63b8ff" stroke="#63b8ff" points="647.17,-59.17 639.03,-65.95 649.62,-65.73 647.17,-59.17"/>
</a>
</g>
</g>
<!-- Node7 -->
<g id="Node000007" class="node">
<title>Node7</title>
<g id="a_Node000007"><a xlink:href="WebServer_8cpp.html" target="_top" xlink:title=" ">
<polygon fill="white" stroke="#666666" points="1001.5,-24.5 871.5,-24.5 871.5,-5.5 1001.5,-5.5 1001.5,-24.5"/>
<text text-anchor="middle" x="936.5" y="-12.5" font-family="Helvetica,sans-Serif" font-size="10.00">srcs/init/WebServer.cpp</text>
</a>
</g>
</g>
<!-- Node1&#45;&gt;Node7 -->
<g id="edge6_Node000001_Node000007" class="edge">
<title>Node1&#45;&gt;Node7</title>
<g id="a_edge6_Node000001_Node000007"><a xlink:title=" ">
<path fill="none" stroke="#63b8ff" d="M684.92,-64.06C750.48,-51.54 839.24,-34.58 891.92,-24.52"/>
<polygon fill="#63b8ff" stroke="#63b8ff" points="684.18,-60.64 675.02,-65.95 685.5,-67.52 684.18,-60.64"/>
</a>
</g>
</g>
<!-- Node8 -->
<g id="Node000008" class="node">
<title>Node8</title>
<g id="a_Node000008"><a xlink:href="ResponseBuilder_8cpp.html" target="_top" xlink:title=" ">
<polygon fill="white" stroke="#666666" points="1207.5,-24.5 1019.5,-24.5 1019.5,-5.5 1207.5,-5.5 1207.5,-24.5"/>
<text text-anchor="middle" x="1113.5" y="-12.5" font-family="Helvetica,sans-Serif" font-size="10.00">srcs/response/ResponseBuilder.cpp</text>
</a>
</g>
</g>
<!-- Node1&#45;&gt;Node8 -->
<g id="edge7_Node000001_Node000008" class="edge">
<title>Node1&#45;&gt;Node8</title>
<g id="a_edge7_Node000001_Node000008"><a xlink:title=" ">
<path fill="none" stroke="#63b8ff" d="M689.31,-69.61C772.17,-59.73 899.83,-44.29 1010.5,-30 1023.92,-28.27 1038.32,-26.35 1051.97,-24.5"/>
<polygon fill="#63b8ff" stroke="#63b8ff" points="688.7,-66.16 679.19,-70.82 689.53,-73.11 688.7,-66.16"/>
</a>
</g>
</g>
</g>
</svg>
