<?xml version="1.0" encoding="UTF-8" standalone="no"?>
<!DOCTYPE svg PUBLIC "-//W3C//DTD SVG 1.1//EN"
 "http://www.w3.org/Graphics/SVG/1.1/DTD/svg11.dtd">
<!-- Generated by graphviz version 2.43.0 (0)
 -->
<!-- Title: includes/response/ResponseStatus.hpp Pages: 1 -->
<svg width="1753pt" height="346pt"
 viewBox="0.00 0.00 1752.50 346.00" xmlns="http://www.w3.org/2000/svg" xmlns:xlink="http://www.w3.org/1999/xlink">
<g id="graph0" class="graph" transform="scale(1 1) rotate(0) translate(4 342)">
<title>includes/response/ResponseStatus.hpp</title>
<!-- Node1 -->
<g id="Node000001" class="node">
<title>Node1</title>
<g id="a_Node000001"><a xlink:title=" ">
<polygon fill="#999999" stroke="#666666" points="1028.5,-338 873.5,-338 873.5,-308 1028.5,-308 1028.5,-338"/>
<text text-anchor="start" x="881.5" y="-326" font-family="Helvetica,sans-Serif" font-size="10.00">includes/response/Response</text>
<text text-anchor="middle" x="951" y="-315" font-family="Helvetica,sans-Serif" font-size="10.00">Status.hpp</text>
</a>
</g>
</g>
<!-- Node2 -->
<g id="Node000002" class="node">
<title>Node2</title>
<g id="a_Node000002"><a xlink:href="DeleteHandler_8hpp.html" target="_top" xlink:title=" ">
<polygon fill="white" stroke="#666666" points="260.5,-217 149.5,-217 149.5,-187 260.5,-187 260.5,-217"/>
<text text-anchor="start" x="157.5" y="-205" font-family="Helvetica,sans-Serif" font-size="10.00">includes/dispatcher</text>
<text text-anchor="middle" x="205" y="-194" font-family="Helvetica,sans-Serif" font-size="10.00">/DeleteHandler.hpp</text>
</a>
</g>
</g>
<!-- Node1&#45;&gt;Node2 -->
<g id="edge1_Node000001_Node000002" class="edge">
<title>Node1&#45;&gt;Node2</title>
<g id="a_edge1_Node000001_Node000002"><a xlink:title=" ">
<path fill="none" stroke="#63b8ff" d="M863.57,-310.48C733.5,-292.9 481.53,-257.15 269,-217 266.32,-216.49 263.58,-215.96 260.81,-215.41"/>
<polygon fill="#63b8ff" stroke="#63b8ff" points="863.11,-313.95 873.49,-311.81 864.05,-307.01 863.11,-313.95"/>
</a>
</g>
</g>
<!-- Node5 -->
<g id="Node000005" class="node">
<title>Node5</title>
<g id="a_Node000005"><a xlink:href="HttpRequest_8hpp.html" target="_top" xlink:title=" ">
<polygon fill="white" stroke="#666666" points="1042,-272 860,-272 860,-253 1042,-253 1042,-272"/>
<text text-anchor="middle" x="951" y="-260" font-family="Helvetica,sans-Serif" font-size="10.00">includes/request/HttpRequest.hpp</text>
</a>
</g>
</g>
<!-- Node1&#45;&gt;Node5 -->
<g id="edge4_Node000001_Node000005" class="edge">
<title>Node1&#45;&gt;Node5</title>
<g id="a_edge4_Node000001_Node000005"><a xlink:title=" ">
<path fill="none" stroke="#63b8ff" d="M951,-297.75C951,-288.72 951,-279.03 951,-272.27"/>
<polygon fill="#63b8ff" stroke="#63b8ff" points="947.5,-297.84 951,-307.84 954.5,-297.84 947.5,-297.84"/>
</a>
</g>
</g>
<!-- Node16 -->
<g id="Node000016" class="node">
<title>Node16</title>
<g id="a_Node000016"><a xlink:href="UploadHandler_8cpp.html" target="_top" xlink:title=" ">
<polygon fill="white" stroke="#666666" points="1507.5,-145.5 1322.5,-145.5 1322.5,-126.5 1507.5,-126.5 1507.5,-145.5"/>
<text text-anchor="middle" x="1415" y="-133.5" font-family="Helvetica,sans-Serif" font-size="10.00">srcs/dispatcher/UploadHandler.cpp</text>
</a>
</g>
</g>
<!-- Node1&#45;&gt;Node16 -->
<g id="edge57_Node000001_Node000016" class="edge">
<title>Node1&#45;&gt;Node16</title>
<g id="a_edge57_Node000001_Node000016"><a xlink:title=" ">
<path fill="none" stroke="#63b8ff" d="M1039.1,-310.1C1149.68,-293.58 1331.07,-260.71 1382,-217 1404,-198.12 1411.59,-162.24 1413.99,-145.72"/>
<polygon fill="#63b8ff" stroke="#63b8ff" points="1038.33,-306.68 1028.95,-311.6 1039.36,-313.6 1038.33,-306.68"/>
</a>
</g>
</g>
<!-- Node20 -->
<g id="Node000020" class="node">
<title>Node20</title>
<g id="a_Node000020"><a xlink:href="Router_8cpp.html" target="_top" xlink:title=" ">
<polygon fill="white" stroke="#666666" points="1744.5,-79.5 1599.5,-79.5 1599.5,-60.5 1744.5,-60.5 1744.5,-79.5"/>
<text text-anchor="middle" x="1672" y="-67.5" font-family="Helvetica,sans-Serif" font-size="10.00">srcs/dispatcher/Router.cpp</text>
</a>
</g>
</g>
<!-- Node1&#45;&gt;Node20 -->
<g id="edge56_Node000001_Node000020" class="edge">
<title>Node1&#45;&gt;Node20</title>
<g id="a_edge56_Node000001_Node000020"><a xlink:title=" ">
<path fill="none" stroke="#63b8ff" d="M1039.01,-317.66C1174.02,-310.42 1425.8,-294.42 1513,-272 1622.97,-243.73 1684.19,-250.98 1738,-151 1744.32,-139.26 1743.93,-132.94 1738,-121 1728.34,-101.56 1707.11,-87.66 1691.33,-79.52"/>
<polygon fill="#63b8ff" stroke="#63b8ff" points="1038.5,-314.19 1028.7,-318.21 1038.87,-321.18 1038.5,-314.19"/>
</a>
</g>
</g>
<!-- Node23 -->
<g id="Node000023" class="node">
<title>Node23</title>
<g id="a_Node000023"><a xlink:href="ResponseBuilder_8hpp.html" target="_top" xlink:title=" ">
<polygon fill="white" stroke="#666666" points="542.5,-151 387.5,-151 387.5,-121 542.5,-121 542.5,-151"/>
<text text-anchor="start" x="395.5" y="-139" font-family="Helvetica,sans-Serif" font-size="10.00">includes/response/Response</text>
<text text-anchor="middle" x="465" y="-128" font-family="Helvetica,sans-Serif" font-size="10.00">Builder.hpp</text>
</a>
</g>
</g>
<!-- Node1&#45;&gt;Node23 -->
<g id="edge55_Node000001_Node000023" class="edge">
<title>Node1&#45;&gt;Node23</title>
<g id="a_edge55_Node000001_Node000023"><a xlink:title=" ">
<path fill="none" stroke="#63b8ff" d="M863.06,-317.16C662.8,-305.24 186.51,-271.39 140,-217 131.33,-206.87 131.32,-197.12 140,-187 155.94,-168.42 296.38,-152.3 387.36,-143.67"/>
<polygon fill="#63b8ff" stroke="#63b8ff" points="863.06,-320.67 873.25,-317.76 863.47,-313.68 863.06,-320.67"/>
</a>
</g>
</g>
<!-- Node27 -->
<g id="Node000027" class="node">
<title>Node27</title>
<g id="a_Node000027"><a xlink:href="RequestParse_8cpp.html" target="_top" xlink:title=" ">
<polygon fill="white" stroke="#666666" points="1728.5,-145.5 1563.5,-145.5 1563.5,-126.5 1728.5,-126.5 1728.5,-145.5"/>
<text text-anchor="middle" x="1646" y="-133.5" font-family="Helvetica,sans-Serif" font-size="10.00">srcs/request/RequestParse.cpp</text>
</a>
</g>
</g>
<!-- Node1&#45;&gt;Node27 -->
<g id="edge58_Node000001_Node000027" class="edge">
<title>Node1&#45;&gt;Node27</title>
<g id="a_edge58_Node000001_Node000027"><a xlink:title=" ">
<path fill="none" stroke="#63b8ff" d="M1038.79,-318.74C1198.24,-311.13 1527.01,-287.16 1614,-217 1636.59,-198.78 1643.32,-162.23 1645.25,-145.6"/>
<polygon fill="#63b8ff" stroke="#63b8ff" points="1038.36,-315.25 1028.54,-319.22 1038.69,-322.25 1038.36,-315.25"/>
</a>
</g>
</g>
<!-- Node29 -->
<g id="Node000029" class="node">
<title>Node29</title>
<g id="a_Node000029"><a xlink:href="HttpResponse_8hpp.html" target="_top" xlink:title=" ">
<polygon fill="white" stroke="#666666" points="820.5,-272 623.5,-272 623.5,-253 820.5,-253 820.5,-272"/>
<text text-anchor="middle" x="722" y="-260" font-family="Helvetica,sans-Serif" font-size="10.00">includes/response/HttpResponse.hpp</text>
</a>
</g>
</g>
<!-- Node1&#45;&gt;Node29 -->
<g id="edge46_Node000001_Node000029" class="edge">
<title>Node1&#45;&gt;Node29</title>
<g id="a_edge46_Node000001_Node000029"><a xlink:title=" ">
<path fill="none" stroke="#63b8ff" d="M886.42,-305.5C843.81,-294.62 789.73,-280.8 755.48,-272.05"/>
<polygon fill="#63b8ff" stroke="#63b8ff" points="885.59,-308.9 896.15,-307.99 887.33,-302.12 885.59,-308.9"/>
</a>
</g>
</g>
<!-- Node3 -->
<g id="Node000003" class="node">
<title>Node3</title>
<g id="a_Node000003"><a xlink:href="DeleteHandler_8cpp.html" target="_top" xlink:title=" ">
<polygon fill="white" stroke="#666666" points="292.5,-145.5 109.5,-145.5 109.5,-126.5 292.5,-126.5 292.5,-145.5"/>
<text text-anchor="middle" x="201" y="-133.5" font-family="Helvetica,sans-Serif" font-size="10.00">srcs/dispatcher/DeleteHandler.cpp</text>
</a>
</g>
</g>
<!-- Node2&#45;&gt;Node3 -->
<g id="edge2_Node000002_Node000003" class="edge">
<title>Node2&#45;&gt;Node3</title>
<g id="a_edge2_Node000002_Node000003"><a xlink:title=" ">
<path fill="none" stroke="#63b8ff" d="M203.48,-176.6C202.8,-165.8 202.05,-153.78 201.55,-145.84"/>
<polygon fill="#63b8ff" stroke="#63b8ff" points="200,-177.03 204.11,-186.8 206.98,-176.6 200,-177.03"/>
</a>
</g>
</g>
<!-- Node4 -->
<g id="Node000004" class="node">
<title>Node4</title>
<g id="a_Node000004"><a xlink:href="Dispatcher_8cpp.html" target="_top" xlink:title=" ">
<polygon fill="white" stroke="#666666" points="918.5,-79.5 753.5,-79.5 753.5,-60.5 918.5,-60.5 918.5,-79.5"/>
<text text-anchor="middle" x="836" y="-67.5" font-family="Helvetica,sans-Serif" font-size="10.00">srcs/dispatcher/Dispatcher.cpp</text>
</a>
</g>
</g>
<!-- Node2&#45;&gt;Node4 -->
<g id="edge3_Node000002_Node000004" class="edge">
<title>Node2&#45;&gt;Node4</title>
<g id="a_edge3_Node000002_Node000004"><a xlink:title=" ">
<path fill="none" stroke="#63b8ff" d="M270.72,-186.82C395.39,-166.46 432.55,-184.65 551,-151 581.99,-142.19 586.47,-131.31 617,-121 673.53,-101.92 740.72,-87.78 785.63,-79.5"/>
<polygon fill="#63b8ff" stroke="#63b8ff" points="270.07,-183.38 260.79,-188.49 271.23,-190.28 270.07,-183.38"/>
</a>
</g>
</g>
<!-- Node5&#45;&gt;Node2 -->
<g id="edge14_Node000005_Node000002" class="edge">
<title>Node5&#45;&gt;Node2</title>
<g id="a_edge14_Node000005_Node000002"><a xlink:title=" ">
<path fill="none" stroke="#63b8ff" d="M849.46,-254.32C842.87,-253.87 836.34,-253.43 830,-253 580.72,-236.25 516.41,-251.8 269,-217 266.3,-216.62 263.54,-216.19 260.76,-215.72"/>
<polygon fill="#63b8ff" stroke="#63b8ff" points="849.61,-257.84 859.83,-255.04 850.09,-250.86 849.61,-257.84"/>
</a>
</g>
</g>
<!-- Node6 -->
<g id="Node000006" class="node">
<title>Node6</title>
<g id="a_Node000006"><a xlink:href="AutoIndexHandler_8hpp.html" target="_top" xlink:title=" ">
<polygon fill="white" stroke="#666666" points="786,-217 658,-217 658,-187 786,-187 786,-217"/>
<text text-anchor="start" x="666" y="-205" font-family="Helvetica,sans-Serif" font-size="10.00">includes/dispatcher</text>
<text text-anchor="middle" x="722" y="-194" font-family="Helvetica,sans-Serif" font-size="10.00">/AutoIndexHandler.hpp</text>
</a>
</g>
</g>
<!-- Node5&#45;&gt;Node6 -->
<g id="edge5_Node000005_Node000006" class="edge">
<title>Node5&#45;&gt;Node6</title>
<g id="a_edge5_Node000005_Node000006"><a xlink:title=" ">
<path fill="none" stroke="#63b8ff" d="M907.72,-250.44C870.67,-240.98 817.14,-227.3 777.05,-217.06"/>
<polygon fill="#63b8ff" stroke="#63b8ff" points="907.15,-253.91 917.7,-252.99 908.88,-247.13 907.15,-253.91"/>
</a>
</g>
</g>
<!-- Node8 -->
<g id="Node000008" class="node">
<title>Node8</title>
<g id="a_Node000008"><a xlink:href="CgiHandler_8hpp.html" target="_top" xlink:title=" ">
<polygon fill="white" stroke="#666666" points="786.5,-151 675.5,-151 675.5,-121 786.5,-121 786.5,-151"/>
<text text-anchor="start" x="683.5" y="-139" font-family="Helvetica,sans-Serif" font-size="10.00">includes/dispatcher</text>
<text text-anchor="middle" x="731" y="-128" font-family="Helvetica,sans-Serif" font-size="10.00">/CgiHandler.hpp</text>
</a>
</g>
</g>
<!-- Node5&#45;&gt;Node8 -->
<g id="edge8_Node000005_Node000008" class="edge">
<title>Node5&#45;&gt;Node8</title>
<g id="a_edge8_Node000005_Node000008"><a xlink:title=" ">
<path fill="none" stroke="#63b8ff" d="M926.84,-247.92C911.2,-239.11 890.38,-227.39 872,-217 831.21,-193.94 783.83,-167.03 755.69,-151.04"/>
<polygon fill="#63b8ff" stroke="#63b8ff" points="925.42,-251.13 935.85,-252.98 928.85,-245.03 925.42,-251.13"/>
</a>
</g>
</g>
<!-- Node13 -->
<g id="Node000013" class="node">
<title>Node13</title>
<g id="a_Node000013"><a xlink:href="StaticPageHandler_8hpp.html" target="_top" xlink:title=" ">
<polygon fill="white" stroke="#666666" points="639.5,-217 510.5,-217 510.5,-187 639.5,-187 639.5,-217"/>
<text text-anchor="start" x="518.5" y="-205" font-family="Helvetica,sans-Serif" font-size="10.00">includes/dispatcher</text>
<text text-anchor="middle" x="575" y="-194" font-family="Helvetica,sans-Serif" font-size="10.00">/StaticPageHandler.hpp</text>
</a>
</g>
</g>
<!-- Node5&#45;&gt;Node13 -->
<g id="edge15_Node000005_Node000013" class="edge">
<title>Node5&#45;&gt;Node13</title>
<g id="a_edge15_Node000005_Node000013"><a xlink:title=" ">
<path fill="none" stroke="#63b8ff" d="M878.17,-251.61C816.92,-243.1 727.1,-230.14 649,-217 645.91,-216.48 642.74,-215.93 639.55,-215.37"/>
<polygon fill="#63b8ff" stroke="#63b8ff" points="877.74,-255.09 888.13,-252.99 878.7,-248.15 877.74,-255.09"/>
</a>
</g>
</g>
<!-- Node15 -->
<g id="Node000015" class="node">
<title>Node15</title>
<g id="a_Node000015"><a xlink:href="UploadHandler_8hpp.html" target="_top" xlink:title=" ">
<polygon fill="white" stroke="#666666" points="1194.5,-217 1081.5,-217 1081.5,-187 1194.5,-187 1194.5,-217"/>
<text text-anchor="start" x="1089.5" y="-205" font-family="Helvetica,sans-Serif" font-size="10.00">includes/dispatcher</text>
<text text-anchor="middle" x="1138" y="-194" font-family="Helvetica,sans-Serif" font-size="10.00">/UploadHandler.hpp</text>
</a>
</g>
</g>
<!-- Node5&#45;&gt;Node15 -->
<g id="edge18_Node000005_Node000015" class="edge">
<title>Node5&#45;&gt;Node15</title>
<g id="a_edge18_Node000005_Node000015"><a xlink:title=" ">
<path fill="none" stroke="#63b8ff" d="M987.91,-249.95C1018.09,-240.51 1060.87,-227.13 1093.04,-217.06"/>
<polygon fill="#63b8ff" stroke="#63b8ff" points="986.69,-246.67 978.19,-252.99 988.78,-253.35 986.69,-246.67"/>
</a>
</g>
</g>
<!-- Node17 -->
<g id="Node000017" class="node">
<title>Node17</title>
<g id="a_Node000017"><a xlink:href="ClientConnection_8hpp.html" target="_top" xlink:title=" ">
<polygon fill="white" stroke="#666666" points="1063.5,-211.5 880.5,-211.5 880.5,-192.5 1063.5,-192.5 1063.5,-211.5"/>
<text text-anchor="middle" x="972" y="-199.5" font-family="Helvetica,sans-Serif" font-size="10.00">includes/init/ClientConnection.hpp</text>
</a>
</g>
</g>
<!-- Node5&#45;&gt;Node17 -->
<g id="edge21_Node000005_Node000017" class="edge">
<title>Node5&#45;&gt;Node17</title>
<g id="a_edge21_Node000005_Node000017"><a xlink:title=" ">
<path fill="none" stroke="#63b8ff" d="M957.53,-243.32C961.31,-232.78 965.91,-219.98 968.89,-211.67"/>
<polygon fill="#63b8ff" stroke="#63b8ff" points="954.18,-242.27 954.1,-252.87 960.77,-244.64 954.18,-242.27"/>
</a>
</g>
</g>
<!-- Node26 -->
<g id="Node000026" class="node">
<title>Node26</title>
<g id="a_Node000026"><a xlink:href="RequestParse_8hpp.html" target="_top" xlink:title=" ">
<polygon fill="white" stroke="#666666" points="1605,-217 1465,-217 1465,-187 1605,-187 1605,-217"/>
<text text-anchor="start" x="1473" y="-205" font-family="Helvetica,sans-Serif" font-size="10.00">includes/request/Request</text>
<text text-anchor="middle" x="1535" y="-194" font-family="Helvetica,sans-Serif" font-size="10.00">Parse.hpp</text>
</a>
</g>
</g>
<!-- Node5&#45;&gt;Node26 -->
<g id="edge42_Node000005_Node000026" class="edge">
<title>Node5&#45;&gt;Node26</title>
<g id="a_edge42_Node000005_Node000026"><a xlink:title=" ">
<path fill="none" stroke="#63b8ff" d="M1045.97,-251.99C1163.25,-240.24 1360.03,-220.53 1464.64,-210.05"/>
<polygon fill="#63b8ff" stroke="#63b8ff" points="1045.52,-248.51 1035.92,-252.99 1046.22,-255.48 1045.52,-248.51"/>
</a>
</g>
</g>
<!-- Node28 -->
<g id="Node000028" class="node">
<title>Node28</title>
<g id="a_Node000028"><a xlink:href="HttpRequest_8cpp.html" target="_top" xlink:title=" ">
<polygon fill="white" stroke="#666666" points="1373,-211.5 1213,-211.5 1213,-192.5 1373,-192.5 1373,-211.5"/>
<text text-anchor="middle" x="1293" y="-199.5" font-family="Helvetica,sans-Serif" font-size="10.00">srcs/request/HttpRequest.cpp</text>
</a>
</g>
</g>
<!-- Node5&#45;&gt;Node28 -->
<g id="edge45_Node000005_Node000028" class="edge">
<title>Node5&#45;&gt;Node28</title>
<g id="a_edge45_Node000005_Node000028"><a xlink:title=" ">
<path fill="none" stroke="#63b8ff" d="M1010.97,-251.24C1076.9,-239.96 1181.63,-222.05 1243.21,-211.52"/>
<polygon fill="#63b8ff" stroke="#63b8ff" points="1010,-247.86 1000.73,-252.99 1011.18,-254.76 1010,-247.86"/>
</a>
</g>
</g>
<!-- Node6&#45;&gt;Node4 -->
<g id="edge7_Node000006_Node000004" class="edge">
<title>Node6&#45;&gt;Node4</title>
<g id="a_edge7_Node000006_Node000004"><a xlink:title=" ">
<path fill="none" stroke="#63b8ff" d="M692.42,-180.56C672.45,-164.21 652.19,-140.82 667,-121 681.05,-102.19 739.01,-87.96 783.18,-79.58"/>
<polygon fill="#63b8ff" stroke="#63b8ff" points="690.53,-183.52 700.57,-186.89 694.82,-177.99 690.53,-183.52"/>
</a>
</g>
</g>
<!-- Node7 -->
<g id="Node000007" class="node">
<title>Node7</title>
<g id="a_Node000007"><a xlink:href="AutoIndexHandler_8cpp.html" target="_top" xlink:title=" ">
<polygon fill="white" stroke="#666666" points="305.5,-85 162.5,-85 162.5,-55 305.5,-55 305.5,-85"/>
<text text-anchor="start" x="170.5" y="-73" font-family="Helvetica,sans-Serif" font-size="10.00">srcs/dispatcher/AutoIndex</text>
<text text-anchor="middle" x="234" y="-62" font-family="Helvetica,sans-Serif" font-size="10.00">Handler.cpp</text>
</a>
</g>
</g>
<!-- Node6&#45;&gt;Node7 -->
<g id="edge6_Node000006_Node000007" class="edge">
<title>Node6&#45;&gt;Node7</title>
<g id="a_edge6_Node000006_Node000007"><a xlink:title=" ">
<path fill="none" stroke="#63b8ff" d="M647.82,-187.09C526.44,-169.12 487.86,-193.72 378,-151 356.28,-142.55 355.05,-132.87 335,-121 312.44,-107.65 285.82,-94.57 265.58,-85.14"/>
<polygon fill="#63b8ff" stroke="#63b8ff" points="647.44,-190.57 657.86,-188.64 648.52,-183.66 647.44,-190.57"/>
</a>
</g>
</g>
<!-- Node8&#45;&gt;Node4 -->
<g id="edge13_Node000008_Node000004" class="edge">
<title>Node8&#45;&gt;Node4</title>
<g id="a_edge13_Node000008_Node000004"><a xlink:title=" ">
<path fill="none" stroke="#63b8ff" d="M762.75,-115.65C782.52,-103.6 806.97,-88.69 822.03,-79.52"/>
<polygon fill="#63b8ff" stroke="#63b8ff" points="760.76,-112.76 754.04,-120.95 764.4,-118.74 760.76,-112.76"/>
</a>
</g>
</g>
<!-- Node9 -->
<g id="Node000009" class="node">
<title>Node9</title>
<g id="a_Node000009"><a xlink:href="WebServer_8hpp.html" target="_top" xlink:title=" ">
<polygon fill="white" stroke="#666666" points="1307,-79.5 1155,-79.5 1155,-60.5 1307,-60.5 1307,-79.5"/>
<text text-anchor="middle" x="1231" y="-67.5" font-family="Helvetica,sans-Serif" font-size="10.00">includes/init/WebServer.hpp</text>
</a>
</g>
</g>
<!-- Node8&#45;&gt;Node9 -->
<g id="edge9_Node000008_Node000009" class="edge">
<title>Node8&#45;&gt;Node9</title>
<g id="a_edge9_Node000008_Node000009"><a xlink:title=" ">
<path fill="none" stroke="#63b8ff" d="M796.52,-121.04C952.16,-96.87 994.18,-105.29 1146,-85 1157.86,-83.41 1170.61,-81.45 1182.53,-79.51"/>
<polygon fill="#63b8ff" stroke="#63b8ff" points="795.93,-117.59 786.59,-122.61 797.02,-124.51 795.93,-117.59"/>
</a>
</g>
</g>
<!-- Node12 -->
<g id="Node000012" class="node">
<title>Node12</title>
<g id="a_Node000012"><a xlink:href="CgiHandler_8cpp.html" target="_top" xlink:title=" ">
<polygon fill="white" stroke="#666666" points="735.5,-79.5 568.5,-79.5 568.5,-60.5 735.5,-60.5 735.5,-79.5"/>
<text text-anchor="middle" x="652" y="-67.5" font-family="Helvetica,sans-Serif" font-size="10.00">srcs/dispatcher/CgiHandler.cpp</text>
</a>
</g>
</g>
<!-- Node8&#45;&gt;Node12 -->
<g id="edge12_Node000008_Node000012" class="edge">
<title>Node8&#45;&gt;Node12</title>
<g id="a_edge12_Node000008_Node000012"><a xlink:title=" ">
<path fill="none" stroke="#63b8ff" d="M705.4,-114.26C691.02,-102.61 673.83,-88.69 662.92,-79.84"/>
<polygon fill="#63b8ff" stroke="#63b8ff" points="703.49,-117.22 713.47,-120.8 707.9,-111.78 703.49,-117.22"/>
</a>
</g>
</g>
<!-- Node10 -->
<g id="Node000010" class="node">
<title>Node10</title>
<g id="a_Node000010"><a xlink:href="WebServer_8cpp.html" target="_top" xlink:title=" ">
<polygon fill="white" stroke="#666666" points="1012,-19 882,-19 882,0 1012,0 1012,-19"/>
<text text-anchor="middle" x="947" y="-7" font-family="Helvetica,sans-Serif" font-size="10.00">srcs/init/WebServer.cpp</text>
</a>
</g>
</g>
<!-- Node9&#45;&gt;Node10 -->
<g id="edge10_Node000009_Node000010" class="edge">
<title>Node9&#45;&gt;Node10</title>
<g id="a_edge10_Node000009_Node000010"><a xlink:title=" ">
<path fill="none" stroke="#63b8ff" d="M1179.85,-58.46C1125.02,-47.17 1039.06,-29.46 988.35,-19.02"/>
<polygon fill="#63b8ff" stroke="#63b8ff" points="1179.2,-61.9 1189.7,-60.49 1180.62,-55.05 1179.2,-61.9"/>
</a>
</g>
</g>
<!-- Node11 -->
<g id="Node000011" class="node">
<title>Node11</title>
<g id="a_Node000011"><a xlink:href="main_8cpp.html" target="_top" xlink:title=" ">
<polygon fill="white" stroke="#666666" points="1405,-19 1321,-19 1321,0 1405,0 1405,-19"/>
<text text-anchor="middle" x="1363" y="-7" font-family="Helvetica,sans-Serif" font-size="10.00">srcs/main.cpp</text>
</a>
</g>
</g>
<!-- Node9&#45;&gt;Node11 -->
<g id="edge11_Node000009_Node000011" class="edge">
<title>Node9&#45;&gt;Node11</title>
<g id="a_edge11_Node000009_Node000011"><a xlink:title=" ">
<path fill="none" stroke="#63b8ff" d="M1259.36,-56.43C1284.84,-45.14 1321.58,-28.86 1343.78,-19.02"/>
<polygon fill="#63b8ff" stroke="#63b8ff" points="1257.92,-53.24 1250.19,-60.49 1260.75,-59.64 1257.92,-53.24"/>
</a>
</g>
</g>
<!-- Node13&#45;&gt;Node4 -->
<g id="edge16_Node000013_Node000004" class="edge">
<title>Node13&#45;&gt;Node4</title>
<g id="a_edge16_Node000013_Node000004"><a xlink:title=" ">
<path fill="none" stroke="#63b8ff" d="M592.24,-179.21C607.65,-161.12 631.8,-136.02 658,-121 695.6,-99.45 743.04,-86.73 779.49,-79.51"/>
<polygon fill="#63b8ff" stroke="#63b8ff" points="589.49,-177.04 585.79,-186.96 594.88,-181.51 589.49,-177.04"/>
</a>
</g>
</g>
<!-- Node14 -->
<g id="Node000014" class="node">
<title>Node14</title>
<g id="a_Node000014"><a xlink:href="StaticPageHandler_8cpp.html" target="_top" xlink:title=" ">
<polygon fill="white" stroke="#666666" points="144,-85 0,-85 0,-55 144,-55 144,-85"/>
<text text-anchor="start" x="8" y="-73" font-family="Helvetica,sans-Serif" font-size="10.00">srcs/dispatcher/StaticPage</text>
<text text-anchor="middle" x="72" y="-62" font-family="Helvetica,sans-Serif" font-size="10.00">Handler.cpp</text>
</a>
</g>
</g>
<!-- Node13&#45;&gt;Node14 -->
<g id="edge17_Node000013_Node000014" class="edge">
<title>Node13&#45;&gt;Node14</title>
<g id="a_edge17_Node000013_Node000014"><a xlink:title=" ">
<path fill="none" stroke="#63b8ff" d="M500.39,-189.75C441.11,-180.01 363.56,-165.3 335,-151 316.98,-141.98 318.98,-130.11 301,-121 286.93,-113.87 205.95,-97.05 144.24,-84.88"/>
<polygon fill="#63b8ff" stroke="#63b8ff" points="500.06,-193.24 510.49,-191.38 501.18,-186.33 500.06,-193.24"/>
</a>
</g>
</g>
<!-- Node15&#45;&gt;Node4 -->
<g id="edge19_Node000015_Node000004" class="edge">
<title>Node15&#45;&gt;Node4</title>
<g id="a_edge19_Node000015_Node000004"><a xlink:title=" ">
<path fill="none" stroke="#63b8ff" d="M1071.54,-184.65C1030.85,-174.11 983.05,-160.62 964,-151 944.48,-141.14 943.25,-133.05 925,-121 900.75,-104.98 871.04,-88.97 852.83,-79.52"/>
<polygon fill="#63b8ff" stroke="#63b8ff" points="1070.89,-188.09 1081.44,-187.19 1072.63,-181.31 1070.89,-188.09"/>
</a>
</g>
</g>
<!-- Node15&#45;&gt;Node16 -->
<g id="edge20_Node000015_Node000016" class="edge">
<title>Node15&#45;&gt;Node16</title>
<g id="a_edge20_Node000015_Node000016"><a xlink:title=" ">
<path fill="none" stroke="#63b8ff" d="M1204.61,-185.61C1258.9,-173.07 1333.58,-155.81 1377.82,-145.59"/>
<polygon fill="#63b8ff" stroke="#63b8ff" points="1203.68,-182.23 1194.72,-187.89 1205.25,-189.05 1203.68,-182.23"/>
</a>
</g>
</g>
<!-- Node17&#45;&gt;Node8 -->
<g id="edge22_Node000017_Node000008" class="edge">
<title>Node17&#45;&gt;Node8</title>
<g id="a_edge22_Node000017_Node000008"><a xlink:title=" ">
<path fill="none" stroke="#63b8ff" d="M929.67,-189.76C889.16,-179 827.93,-162.74 784.15,-151.12"/>
<polygon fill="#63b8ff" stroke="#63b8ff" points="928.93,-193.18 939.5,-192.37 930.73,-186.42 928.93,-193.18"/>
</a>
</g>
</g>
<!-- Node18 -->
<g id="Node000018" class="node">
<title>Node18</title>
<g id="a_Node000018"><a xlink:href="Dispatcher_8hpp.html" target="_top" xlink:title=" ">
<polygon fill="white" stroke="#666666" points="915.5,-151 804.5,-151 804.5,-121 915.5,-121 915.5,-151"/>
<text text-anchor="start" x="812.5" y="-139" font-family="Helvetica,sans-Serif" font-size="10.00">includes/dispatcher</text>
<text text-anchor="middle" x="860" y="-128" font-family="Helvetica,sans-Serif" font-size="10.00">/Dispatcher.hpp</text>
</a>
</g>
</g>
<!-- Node17&#45;&gt;Node18 -->
<g id="edge23_Node000017_Node000018" class="edge">
<title>Node17&#45;&gt;Node18</title>
<g id="a_edge23_Node000017_Node000018"><a xlink:title=" ">
<path fill="none" stroke="#63b8ff" d="M948.12,-187.35C929.45,-176.68 903.58,-161.9 884.7,-151.12"/>
<polygon fill="#63b8ff" stroke="#63b8ff" points="946.48,-190.45 956.9,-192.37 949.95,-184.37 946.48,-190.45"/>
</a>
</g>
</g>
<!-- Node19 -->
<g id="Node000019" class="node">
<title>Node19</title>
<g id="a_Node000019"><a xlink:href="Router_8hpp.html" target="_top" xlink:title=" ">
<polygon fill="white" stroke="#666666" points="1083.5,-151 972.5,-151 972.5,-121 1083.5,-121 1083.5,-151"/>
<text text-anchor="start" x="980.5" y="-139" font-family="Helvetica,sans-Serif" font-size="10.00">includes/dispatcher</text>
<text text-anchor="middle" x="1028" y="-128" font-family="Helvetica,sans-Serif" font-size="10.00">/Router.hpp</text>
</a>
</g>
</g>
<!-- Node17&#45;&gt;Node19 -->
<g id="edge26_Node000017_Node000019" class="edge">
<title>Node17&#45;&gt;Node19</title>
<g id="a_edge26_Node000017_Node000019"><a xlink:title=" ">
<path fill="none" stroke="#63b8ff" d="M986.4,-184.54C995.38,-174.28 1006.82,-161.2 1015.43,-151.36"/>
<polygon fill="#63b8ff" stroke="#63b8ff" points="983.5,-182.54 979.55,-192.37 988.77,-187.15 983.5,-182.54"/>
</a>
</g>
</g>
<!-- Node21 -->
<g id="Node000021" class="node">
<title>Node21</title>
<g id="a_Node000021"><a xlink:href="ServerSocket_8hpp.html" target="_top" xlink:title=" ">
<polygon fill="white" stroke="#666666" points="1304,-145.5 1140,-145.5 1140,-126.5 1304,-126.5 1304,-145.5"/>
<text text-anchor="middle" x="1222" y="-133.5" font-family="Helvetica,sans-Serif" font-size="10.00">includes/init/ServerSocket.hpp</text>
</a>
</g>
</g>
<!-- Node17&#45;&gt;Node21 -->
<g id="edge29_Node000017_Node000021" class="edge">
<title>Node17&#45;&gt;Node21</title>
<g id="a_edge29_Node000017_Node000021"><a xlink:title=" ">
<path fill="none" stroke="#63b8ff" d="M1015.19,-189.94C1064.48,-177.32 1144.03,-156.96 1188.74,-145.51"/>
<polygon fill="#63b8ff" stroke="#63b8ff" points="1014.28,-186.56 1005.46,-192.44 1016.01,-193.35 1014.28,-186.56"/>
</a>
</g>
</g>
<!-- Node17&#45;&gt;Node23 -->
<g id="edge33_Node000017_Node000023" class="edge">
<title>Node17&#45;&gt;Node23</title>
<g id="a_edge33_Node000017_Node000023"><a xlink:title=" ">
<path fill="none" stroke="#63b8ff" d="M894.26,-191.19C798.94,-179.15 638.32,-158.88 542.92,-146.84"/>
<polygon fill="#63b8ff" stroke="#63b8ff" points="894.05,-194.69 904.41,-192.47 894.93,-187.74 894.05,-194.69"/>
</a>
</g>
</g>
<!-- Node24 -->
<g id="Node000024" class="node">
<title>Node24</title>
<g id="a_Node000024"><a xlink:href="ClientConnection_8cpp.html" target="_top" xlink:title=" ">
<polygon fill="white" stroke="#666666" points="1136.5,-79.5 975.5,-79.5 975.5,-60.5 1136.5,-60.5 1136.5,-79.5"/>
<text text-anchor="middle" x="1056" y="-67.5" font-family="Helvetica,sans-Serif" font-size="10.00">srcs/init/ClientConnection.cpp</text>
</a>
</g>
</g>
<!-- Node17&#45;&gt;Node24 -->
<g id="edge41_Node000017_Node000024" class="edge">
<title>Node17&#45;&gt;Node24</title>
<g id="a_edge41_Node000017_Node000024"><a xlink:title=" ">
<path fill="none" stroke="#63b8ff" d="M1036.46,-189.49C1058.13,-182.21 1080.07,-170.34 1093,-151 1108.99,-127.09 1081.54,-95.15 1065.83,-79.87"/>
<polygon fill="#63b8ff" stroke="#63b8ff" points="1035.42,-186.14 1026.89,-192.42 1037.48,-192.83 1035.42,-186.14"/>
</a>
</g>
</g>
<!-- Node18&#45;&gt;Node4 -->
<g id="edge24_Node000018_Node000004" class="edge">
<title>Node18&#45;&gt;Node4</title>
<g id="a_edge24_Node000018_Node000004"><a xlink:title=" ">
<path fill="none" stroke="#63b8ff" d="M851.1,-111.28C846.99,-100.31 842.35,-87.94 839.32,-79.84"/>
<polygon fill="#63b8ff" stroke="#63b8ff" points="847.89,-112.66 854.67,-120.8 854.44,-110.2 847.89,-112.66"/>
</a>
</g>
</g>
<!-- Node18&#45;&gt;Node10 -->
<g id="edge25_Node000018_Node000010" class="edge">
<title>Node18&#45;&gt;Node10</title>
<g id="a_edge25_Node000018_Node000010"><a xlink:title=" ">
<path fill="none" stroke="#63b8ff" d="M895.93,-115.41C907.69,-107.39 919.83,-97.12 928,-85 942.03,-64.19 945.7,-33.77 946.66,-19.07"/>
<polygon fill="#63b8ff" stroke="#63b8ff" points="894,-112.49 887.49,-120.84 897.79,-118.37 894,-112.49"/>
</a>
</g>
</g>
<!-- Node19&#45;&gt;Node4 -->
<g id="edge27_Node000019_Node000004" class="edge">
<title>Node19&#45;&gt;Node4</title>
<g id="a_edge27_Node000019_Node000004"><a xlink:title=" ">
<path fill="none" stroke="#63b8ff" d="M976.21,-117.74C939.09,-105.36 890.69,-89.23 861.55,-79.52"/>
<polygon fill="#63b8ff" stroke="#63b8ff" points="975.27,-121.11 985.86,-120.95 977.48,-114.47 975.27,-121.11"/>
</a>
</g>
</g>
<!-- Node19&#45;&gt;Node20 -->
<g id="edge28_Node000019_Node000020" class="edge">
<title>Node19&#45;&gt;Node20</title>
<g id="a_edge28_Node000019_Node000020"><a xlink:title=" ">
<path fill="none" stroke="#63b8ff" d="M1093.78,-125.63C1106.14,-123.99 1118.95,-122.37 1131,-121 1298.28,-101.91 1495.31,-85.13 1599.27,-76.72"/>
<polygon fill="#63b8ff" stroke="#63b8ff" points="1092.98,-122.21 1083.54,-127.01 1093.92,-129.14 1092.98,-122.21"/>
</a>
</g>
</g>
<!-- Node21&#45;&gt;Node9 -->
<g id="edge30_Node000021_Node000009" class="edge">
<title>Node21&#45;&gt;Node9</title>
<g id="a_edge30_Node000021_Node000009"><a xlink:title=" ">
<path fill="none" stroke="#63b8ff" d="M1224.61,-116.45C1226.3,-104.43 1228.42,-89.32 1229.75,-79.91"/>
<polygon fill="#63b8ff" stroke="#63b8ff" points="1221.14,-115.98 1223.21,-126.37 1228.07,-116.95 1221.14,-115.98"/>
</a>
</g>
</g>
<!-- Node21&#45;&gt;Node11 -->
<g id="edge32_Node000021_Node000011" class="edge">
<title>Node21&#45;&gt;Node11</title>
<g id="a_edge32_Node000021_Node000011"><a xlink:title=" ">
<path fill="none" stroke="#63b8ff" d="M1284.22,-124.78C1357.43,-112.45 1469.87,-92.46 1476,-85 1484.47,-74.7 1483.5,-66.02 1476,-55 1460.22,-31.82 1430.33,-20.72 1405.26,-15.39"/>
<polygon fill="#63b8ff" stroke="#63b8ff" points="1283.45,-121.36 1274.17,-126.46 1284.61,-128.26 1283.45,-121.36"/>
</a>
</g>
</g>
<!-- Node22 -->
<g id="Node000022" class="node">
<title>Node22</title>
<g id="a_Node000022"><a xlink:href="ServerSocket_8cpp.html" target="_top" xlink:title=" ">
<polygon fill="white" stroke="#666666" points="1467,-79.5 1325,-79.5 1325,-60.5 1467,-60.5 1467,-79.5"/>
<text text-anchor="middle" x="1396" y="-67.5" font-family="Helvetica,sans-Serif" font-size="10.00">srcs/init/ServerSocket.cpp</text>
</a>
</g>
</g>
<!-- Node21&#45;&gt;Node22 -->
<g id="edge31_Node000021_Node000022" class="edge">
<title>Node21&#45;&gt;Node22</title>
<g id="a_edge31_Node000021_Node000022"><a xlink:title=" ">
<path fill="none" stroke="#63b8ff" d="M1255.06,-122.84C1289.44,-110.2 1342.37,-90.73 1372.63,-79.6"/>
<polygon fill="#63b8ff" stroke="#63b8ff" points="1253.64,-119.63 1245.47,-126.37 1256.06,-126.2 1253.64,-119.63"/>
</a>
</g>
</g>
<!-- Node23&#45;&gt;Node4 -->
<g id="edge36_Node000023_Node000004" class="edge">
<title>Node23&#45;&gt;Node4</title>
<g id="a_edge36_Node000023_Node000004"><a xlink:title=" ">
<path fill="none" stroke="#63b8ff" d="M552.88,-119.84C625.91,-107.24 727.16,-89.78 786.7,-79.5"/>
<polygon fill="#63b8ff" stroke="#63b8ff" points="552.03,-116.43 542.77,-121.58 553.22,-123.33 552.03,-116.43"/>
</a>
</g>
</g>
<!-- Node23&#45;&gt;Node7 -->
<g id="edge34_Node000023_Node000007" class="edge">
<title>Node23&#45;&gt;Node7</title>
<g id="a_edge34_Node000023_Node000007"><a xlink:title=" ">
<path fill="none" stroke="#63b8ff" d="M404.56,-118.25C367.24,-107.91 319.9,-94.8 284.58,-85.01"/>
<polygon fill="#63b8ff" stroke="#63b8ff" points="403.73,-121.66 414.31,-120.95 405.6,-114.91 403.73,-121.66"/>
</a>
</g>
</g>
<!-- Node23&#45;&gt;Node10 -->
<g id="edge39_Node000023_Node000010" class="edge">
<title>Node23&#45;&gt;Node10</title>
<g id="a_edge39_Node000023_Node000010"><a xlink:title=" ">
<path fill="none" stroke="#63b8ff" d="M407.32,-117.44C368.85,-102.89 329.33,-80.51 353,-55 388.39,-16.86 735.23,-11.18 881.97,-10.5"/>
<polygon fill="#63b8ff" stroke="#63b8ff" points="406.44,-120.85 417.04,-120.97 408.83,-114.27 406.44,-120.85"/>
</a>
</g>
</g>
<!-- Node23&#45;&gt;Node12 -->
<g id="edge35_Node000023_Node000012" class="edge">
<title>Node23&#45;&gt;Node12</title>
<g id="a_edge35_Node000023_Node000012"><a xlink:title=" ">
<path fill="none" stroke="#63b8ff" d="M515.91,-117.58C552,-105.23 598.86,-89.19 627.11,-79.52"/>
<polygon fill="#63b8ff" stroke="#63b8ff" points="514.37,-114.41 506.04,-120.95 516.63,-121.03 514.37,-114.41"/>
</a>
</g>
</g>
<!-- Node23&#45;&gt;Node14 -->
<g id="edge37_Node000023_Node000014" class="edge">
<title>Node23&#45;&gt;Node14</title>
<g id="a_edge37_Node000023_Node000014"><a xlink:title=" ">
<path fill="none" stroke="#63b8ff" d="M377.16,-121.22C314.62,-111.33 228.61,-97.59 153,-85 150.18,-84.53 147.31,-84.05 144.42,-83.56"/>
<polygon fill="#63b8ff" stroke="#63b8ff" points="376.96,-124.73 387.38,-122.83 378.05,-117.81 376.96,-124.73"/>
</a>
</g>
</g>
<!-- Node23&#45;&gt;Node24 -->
<g id="edge38_Node000023_Node000024" class="edge">
<title>Node23&#45;&gt;Node24</title>
<g id="a_edge38_Node000023_Node000024"><a xlink:title=" ">
<path fill="none" stroke="#63b8ff" d="M552.77,-125.56C645.9,-115.53 797.33,-99.2 928,-85 944.22,-83.24 961.6,-81.34 978.16,-79.53"/>
<polygon fill="#63b8ff" stroke="#63b8ff" points="552.4,-122.08 542.83,-126.63 553.15,-129.04 552.4,-122.08"/>
</a>
</g>
</g>
<!-- Node25 -->
<g id="Node000025" class="node">
<title>Node25</title>
<g id="a_Node000025"><a xlink:href="ResponseBuilder_8cpp.html" target="_top" xlink:title=" ">
<polygon fill="white" stroke="#666666" points="550,-79.5 362,-79.5 362,-60.5 550,-60.5 550,-79.5"/>
<text text-anchor="middle" x="456" y="-67.5" font-family="Helvetica,sans-Serif" font-size="10.00">srcs/response/ResponseBuilder.cpp</text>
</a>
</g>
</g>
<!-- Node23&#45;&gt;Node25 -->
<g id="edge40_Node000023_Node000025" class="edge">
<title>Node23&#45;&gt;Node25</title>
<g id="a_edge40_Node000023_Node000025"><a xlink:title=" ">
<path fill="none" stroke="#63b8ff" d="M461.57,-110.6C460.05,-99.8 458.36,-87.78 457.24,-79.84"/>
<polygon fill="#63b8ff" stroke="#63b8ff" points="458.14,-111.38 463,-120.8 465.08,-110.41 458.14,-111.38"/>
</a>
</g>
</g>
<!-- Node26&#45;&gt;Node24 -->
<g id="edge43_Node000026_Node000024" class="edge">
<title>Node26&#45;&gt;Node24</title>
<g id="a_edge43_Node000026_Node000024"><a xlink:title=" ">
<path fill="none" stroke="#63b8ff" d="M1536.52,-176.85C1536.23,-158.71 1532.54,-134.72 1517,-121 1454.9,-66.19 1228.18,-95.37 1146,-85 1133.45,-83.42 1119.95,-81.46 1107.33,-79.51"/>
<polygon fill="#63b8ff" stroke="#63b8ff" points="1533.01,-176.93 1536.34,-186.99 1540.01,-177.05 1533.01,-176.93"/>
</a>
</g>
</g>
<!-- Node26&#45;&gt;Node27 -->
<g id="edge44_Node000026_Node000027" class="edge">
<title>Node26&#45;&gt;Node27</title>
<g id="a_edge44_Node000026_Node000027"><a xlink:title=" ">
<path fill="none" stroke="#63b8ff" d="M1568.28,-181.81C1589.23,-169.73 1615.24,-154.73 1631.23,-145.52"/>
<polygon fill="#63b8ff" stroke="#63b8ff" points="1566.27,-178.93 1559.36,-186.95 1569.77,-184.99 1566.27,-178.93"/>
</a>
</g>
</g>
<!-- Node29&#45;&gt;Node2 -->
<g id="edge49_Node000029_Node000002" class="edge">
<title>Node29&#45;&gt;Node2</title>
<g id="a_edge49_Node000029_Node000002"><a xlink:title=" ">
<path fill="none" stroke="#63b8ff" d="M613.32,-254.42C521.27,-247.57 385.99,-235.48 269,-217 266.3,-216.57 263.55,-216.11 260.77,-215.6"/>
<polygon fill="#63b8ff" stroke="#63b8ff" points="613.26,-257.93 623.49,-255.17 613.77,-250.95 613.26,-257.93"/>
</a>
</g>
</g>
<!-- Node29&#45;&gt;Node6 -->
<g id="edge47_Node000029_Node000006" class="edge">
<title>Node29&#45;&gt;Node6</title>
<g id="a_edge47_Node000029_Node000006"><a xlink:title=" ">
<path fill="none" stroke="#63b8ff" d="M722,-242.65C722,-234.36 722,-224.78 722,-217.11"/>
<polygon fill="#63b8ff" stroke="#63b8ff" points="718.5,-242.87 722,-252.87 725.5,-242.87 718.5,-242.87"/>
</a>
</g>
</g>
<!-- Node29&#45;&gt;Node8 -->
<g id="edge48_Node000029_Node000008" class="edge">
<title>Node29&#45;&gt;Node8</title>
<g id="a_edge48_Node000029_Node000008"><a xlink:title=" ">
<path fill="none" stroke="#63b8ff" d="M757.75,-248.78C771.99,-241.74 786.89,-231.44 795,-217 801.53,-205.37 800.85,-198.98 795,-187 787.46,-171.54 772.57,-159.46 759.05,-151.05"/>
<polygon fill="#63b8ff" stroke="#63b8ff" points="756.23,-245.62 748.57,-252.94 759.12,-252 756.23,-245.62"/>
</a>
</g>
</g>
<!-- Node29&#45;&gt;Node13 -->
<g id="edge50_Node000029_Node000013" class="edge">
<title>Node29&#45;&gt;Node13</title>
<g id="a_edge50_Node000029_Node000013"><a xlink:title=" ">
<path fill="none" stroke="#63b8ff" d="M691.11,-249.21C667.52,-239.82 634.97,-226.87 610.34,-217.06"/>
<polygon fill="#63b8ff" stroke="#63b8ff" points="690.04,-252.55 700.62,-252.99 692.63,-246.04 690.04,-252.55"/>
</a>
</g>
</g>
<!-- Node29&#45;&gt;Node15 -->
<g id="edge51_Node000029_Node000015" class="edge">
<title>Node29&#45;&gt;Node15</title>
<g id="a_edge51_Node000029_Node000015"><a xlink:title=" ">
<path fill="none" stroke="#63b8ff" d="M815.52,-251.86C886.42,-244.01 986.15,-231.83 1073,-217 1075.73,-216.53 1078.52,-216.03 1081.34,-215.5"/>
<polygon fill="#63b8ff" stroke="#63b8ff" points="814.83,-248.41 805.27,-252.98 815.6,-255.37 814.83,-248.41"/>
</a>
</g>
</g>
<!-- Node29&#45;&gt;Node17 -->
<g id="edge52_Node000029_Node000017" class="edge">
<title>Node29&#45;&gt;Node17</title>
<g id="a_edge52_Node000029_Node000017"><a xlink:title=" ">
<path fill="none" stroke="#63b8ff" d="M768.24,-250.68C816.54,-239.38 891.33,-221.88 935.6,-211.52"/>
<polygon fill="#63b8ff" stroke="#63b8ff" points="767.29,-247.31 758.35,-252.99 768.89,-254.12 767.29,-247.31"/>
</a>
</g>
</g>
<!-- Node29&#45;&gt;Node23 -->
<g id="edge53_Node000029_Node000023" class="edge">
<title>Node29&#45;&gt;Node23</title>
<g id="a_edge53_Node000029_Node000023"><a xlink:title=" ">
<path fill="none" stroke="#63b8ff" d="M630.56,-251.58C579.07,-244.39 521.15,-233.07 501,-217 480.28,-200.47 471.1,-169.46 467.34,-151.28"/>
<polygon fill="#63b8ff" stroke="#63b8ff" points="630.38,-255.09 640.76,-252.97 631.32,-248.16 630.38,-255.09"/>
</a>
</g>
</g>
<!-- Node30 -->
<g id="Node000030" class="node">
<title>Node30</title>
<g id="a_Node000030"><a xlink:href="HttpResponse_8cpp.html" target="_top" xlink:title=" ">
<polygon fill="white" stroke="#666666" points="453.5,-211.5 278.5,-211.5 278.5,-192.5 453.5,-192.5 453.5,-211.5"/>
<text text-anchor="middle" x="366" y="-199.5" font-family="Helvetica,sans-Serif" font-size="10.00">srcs/response/HttpResponse.cpp</text>
</a>
</g>
</g>
<!-- Node29&#45;&gt;Node30 -->
<g id="edge54_Node000029_Node000030" class="edge">
<title>Node29&#45;&gt;Node30</title>
<g id="a_edge54_Node000029_Node000030"><a xlink:title=" ">
<path fill="none" stroke="#63b8ff" d="M660,-251.31C591.39,-240.04 482.06,-222.07 417.83,-211.52"/>
<polygon fill="#63b8ff" stroke="#63b8ff" points="659.8,-254.83 670.23,-252.99 660.93,-247.92 659.8,-254.83"/>
</a>
</g>
</g>
</g>
</svg>
