<?xml version="1.0" encoding="UTF-8" standalone="no"?>
<!DOCTYPE svg PUBLIC "-//W3C//DTD SVG 1.1//EN"
 "http://www.w3.org/Graphics/SVG/1.1/DTD/svg11.dtd">
<!-- Generated by graphviz version 2.43.0 (0)
 -->
<!-- Title: includes/config/ServerConfig.hpp Pages: 1 -->
<svg width="1887pt" height="214pt"
 viewBox="0.00 0.00 1886.50 214.00" xmlns="http://www.w3.org/2000/svg" xmlns:xlink="http://www.w3.org/1999/xlink">
<g id="graph0" class="graph" transform="scale(1 1) rotate(0) translate(4 210)">
<title>includes/config/ServerConfig.hpp</title>
<!-- Node1 -->
<g id="Node000001" class="node">
<title>Node1</title>
<g id="a_Node000001"><a xlink:title=" ">
<polygon fill="#999999" stroke="#666666" points="879,-206 703,-206 703,-187 879,-187 879,-206"/>
<text text-anchor="middle" x="791" y="-194" font-family="Helvetica,sans-Serif" font-size="10.00">includes/config/ServerConfig.hpp</text>
</a>
</g>
</g>
<!-- Node2 -->
<g id="Node000002" class="node">
<title>Node2</title>
<g id="a_Node000002"><a xlink:href="Config_8hpp.html" target="_top" xlink:title=" ">
<polygon fill="white" stroke="#666666" points="420,-145.5 276,-145.5 276,-126.5 420,-126.5 420,-145.5"/>
<text text-anchor="middle" x="348" y="-133.5" font-family="Helvetica,sans-Serif" font-size="10.00">includes/config/Config.hpp</text>
</a>
</g>
</g>
<!-- Node1&#45;&gt;Node2 -->
<g id="edge1_Node000001_Node000002" class="edge">
<title>Node1&#45;&gt;Node2</title>
<g id="a_edge1_Node000001_Node000002"><a xlink:title=" ">
<path fill="none" stroke="#63b8ff" d="M716.46,-185.66C631.28,-174.41 493.24,-156.18 412.49,-145.52"/>
<polygon fill="#63b8ff" stroke="#63b8ff" points="716.21,-189.15 726.58,-186.99 717.13,-182.21 716.21,-189.15"/>
</a>
</g>
</g>
<!-- Node3 -->
<g id="Node000003" class="node">
<title>Node3</title>
<g id="a_Node000003"><a xlink:href="ConfigParser_8hpp.html" target="_top" xlink:title=" ">
<polygon fill="white" stroke="#666666" points="230.5,-79.5 57.5,-79.5 57.5,-60.5 230.5,-60.5 230.5,-79.5"/>
<text text-anchor="middle" x="144" y="-67.5" font-family="Helvetica,sans-Serif" font-size="10.00">includes/config/ConfigParser.hpp</text>
</a>
</g>
</g>
<!-- Node1&#45;&gt;Node3 -->
<g id="edge10_Node000001_Node000003" class="edge">
<title>Node1&#45;&gt;Node3</title>
<g id="a_edge10_Node000001_Node000003"><a xlink:title=" ">
<path fill="none" stroke="#63b8ff" d="M692.5,-192.85C563.04,-188.38 343.14,-177.14 267,-151 220.02,-134.87 173.24,-96.9 153.62,-79.71"/>
<polygon fill="#63b8ff" stroke="#63b8ff" points="692.7,-196.36 702.81,-193.2 692.94,-189.36 692.7,-196.36"/>
</a>
</g>
</g>
<!-- Node4 -->
<g id="Node000004" class="node">
<title>Node4</title>
<g id="a_Node000004"><a xlink:href="ConfigParser_8cpp.html" target="_top" xlink:title=" ">
<polygon fill="white" stroke="#666666" points="152,-19 0,-19 0,0 152,0 152,-19"/>
<text text-anchor="middle" x="76" y="-7" font-family="Helvetica,sans-Serif" font-size="10.00">srcs/config/ConfigParser.cpp</text>
</a>
</g>
</g>
<!-- Node1&#45;&gt;Node4 -->
<g id="edge23_Node000001_Node000004" class="edge">
<title>Node1&#45;&gt;Node4</title>
<g id="a_edge23_Node000001_Node000004"><a xlink:title=" ">
<path fill="none" stroke="#63b8ff" d="M692.94,-191.83C551.04,-185.87 295.64,-172.54 206,-151 132,-133.22 90.19,-148.34 48,-85 33.75,-63.61 54.99,-33.97 67.67,-19.37"/>
<polygon fill="#63b8ff" stroke="#63b8ff" points="692.82,-195.33 702.95,-192.24 693.11,-188.33 692.82,-195.33"/>
</a>
</g>
</g>
<!-- Node6 -->
<g id="Node000006" class="node">
<title>Node6</title>
<g id="a_Node000006"><a xlink:href="WebServer_8hpp.html" target="_top" xlink:title=" ">
<polygon fill="white" stroke="#666666" points="579,-79.5 427,-79.5 427,-60.5 579,-60.5 579,-79.5"/>
<text text-anchor="middle" x="503" y="-67.5" font-family="Helvetica,sans-Serif" font-size="10.00">includes/init/WebServer.hpp</text>
</a>
</g>
</g>
<!-- Node1&#45;&gt;Node6 -->
<g id="edge11_Node000001_Node000006" class="edge">
<title>Node1&#45;&gt;Node6</title>
<g id="a_edge11_Node000001_Node000006"><a xlink:title=" ">
<path fill="none" stroke="#63b8ff" d="M761.79,-182.87C703.23,-157.56 572.82,-101.18 522.93,-79.62"/>
<polygon fill="#63b8ff" stroke="#63b8ff" points="760.64,-186.19 771.2,-186.94 763.41,-179.76 760.64,-186.19"/>
</a>
</g>
</g>
<!-- Node9 -->
<g id="Node000009" class="node">
<title>Node9</title>
<g id="a_Node000009"><a xlink:href="RequestParse_8hpp.html" target="_top" xlink:title=" ">
<polygon fill="white" stroke="#666666" points="861,-151 721,-151 721,-121 861,-121 861,-151"/>
<text text-anchor="start" x="729" y="-139" font-family="Helvetica,sans-Serif" font-size="10.00">includes/request/Request</text>
<text text-anchor="middle" x="791" y="-128" font-family="Helvetica,sans-Serif" font-size="10.00">Parse.hpp</text>
</a>
</g>
</g>
<!-- Node1&#45;&gt;Node9 -->
<g id="edge12_Node000001_Node000009" class="edge">
<title>Node1&#45;&gt;Node9</title>
<g id="a_edge12_Node000001_Node000009"><a xlink:title=" ">
<path fill="none" stroke="#63b8ff" d="M791,-176.65C791,-168.36 791,-158.78 791,-151.11"/>
<polygon fill="#63b8ff" stroke="#63b8ff" points="787.5,-176.87 791,-186.87 794.5,-176.87 787.5,-176.87"/>
</a>
</g>
</g>
<!-- Node11 -->
<g id="Node000011" class="node">
<title>Node11</title>
<g id="a_Node000011"><a xlink:href="RequestParse_8cpp.html" target="_top" xlink:title=" ">
<polygon fill="white" stroke="#666666" points="762.5,-79.5 597.5,-79.5 597.5,-60.5 762.5,-60.5 762.5,-79.5"/>
<text text-anchor="middle" x="680" y="-67.5" font-family="Helvetica,sans-Serif" font-size="10.00">srcs/request/RequestParse.cpp</text>
</a>
</g>
</g>
<!-- Node1&#45;&gt;Node11 -->
<g id="edge28_Node000001_Node000011" class="edge">
<title>Node1&#45;&gt;Node11</title>
<g id="a_edge28_Node000001_Node000011"><a xlink:title=" ">
<path fill="none" stroke="#63b8ff" d="M757.39,-182.76C741.85,-175.45 724.19,-164.93 712,-151 693.18,-129.5 684.63,-95.55 681.5,-79.7"/>
<polygon fill="#63b8ff" stroke="#63b8ff" points="756.15,-186.04 766.71,-186.89 758.99,-179.64 756.15,-186.04"/>
</a>
</g>
</g>
<!-- Node12 -->
<g id="Node000012" class="node">
<title>Node12</title>
<g id="a_Node000012"><a xlink:href="ResponseBuilder_8hpp.html" target="_top" xlink:title=" ">
<polygon fill="white" stroke="#666666" points="1047.5,-151 892.5,-151 892.5,-121 1047.5,-121 1047.5,-151"/>
<text text-anchor="start" x="900.5" y="-139" font-family="Helvetica,sans-Serif" font-size="10.00">includes/response/Response</text>
<text text-anchor="middle" x="970" y="-128" font-family="Helvetica,sans-Serif" font-size="10.00">Builder.hpp</text>
</a>
</g>
</g>
<!-- Node1&#45;&gt;Node12 -->
<g id="edge15_Node000001_Node000012" class="edge">
<title>Node1&#45;&gt;Node12</title>
<g id="a_edge15_Node000001_Node000012"><a xlink:title=" ">
<path fill="none" stroke="#63b8ff" d="M826.71,-183.83C855.57,-174.4 896.3,-161.09 926.97,-151.06"/>
<polygon fill="#63b8ff" stroke="#63b8ff" points="825.45,-180.56 817.03,-186.99 827.62,-187.21 825.45,-180.56"/>
</a>
</g>
</g>
<!-- Node15 -->
<g id="Node000015" class="node">
<title>Node15</title>
<g id="a_Node000015"><a xlink:href="Dispatcher_8cpp.html" target="_top" xlink:title=" ">
<polygon fill="white" stroke="#666666" points="1878.5,-79.5 1713.5,-79.5 1713.5,-60.5 1878.5,-60.5 1878.5,-79.5"/>
<text text-anchor="middle" x="1796" y="-67.5" font-family="Helvetica,sans-Serif" font-size="10.00">srcs/dispatcher/Dispatcher.cpp</text>
</a>
</g>
</g>
<!-- Node1&#45;&gt;Node15 -->
<g id="edge25_Node000001_Node000015" class="edge">
<title>Node1&#45;&gt;Node15</title>
<g id="a_edge25_Node000001_Node000015"><a xlink:title=" ">
<path fill="none" stroke="#63b8ff" d="M889.39,-190.81C941.07,-185.48 1004.42,-174.29 1057,-151 1076.67,-142.28 1074.89,-128.65 1095,-121 1221.7,-72.78 1569.18,-99.21 1704,-85 1717.5,-83.58 1732.04,-81.58 1745.49,-79.54"/>
<polygon fill="#63b8ff" stroke="#63b8ff" points="888.83,-187.35 879.21,-191.8 889.51,-194.32 888.83,-187.35"/>
</a>
</g>
</g>
<!-- Node18 -->
<g id="Node000018" class="node">
<title>Node18</title>
<g id="a_Node000018"><a xlink:href="ServerConfig_8cpp.html" target="_top" xlink:title=" ">
<polygon fill="white" stroke="#666666" points="1258,-145.5 1104,-145.5 1104,-126.5 1258,-126.5 1258,-145.5"/>
<text text-anchor="middle" x="1181" y="-133.5" font-family="Helvetica,sans-Serif" font-size="10.00">srcs/config/ServerConfig.cpp</text>
</a>
</g>
</g>
<!-- Node1&#45;&gt;Node18 -->
<g id="edge24_Node000001_Node000018" class="edge">
<title>Node1&#45;&gt;Node18</title>
<g id="a_edge24_Node000001_Node000018"><a xlink:title=" ">
<path fill="none" stroke="#63b8ff" d="M859.1,-185.46C919.71,-176.5 1010.78,-162.99 1090,-151 1101.54,-149.25 1113.89,-147.37 1125.67,-145.56"/>
<polygon fill="#63b8ff" stroke="#63b8ff" points="858.27,-182.05 848.89,-186.97 859.3,-188.97 858.27,-182.05"/>
</a>
</g>
</g>
<!-- Node19 -->
<g id="Node000019" class="node">
<title>Node19</title>
<g id="a_Node000019"><a xlink:href="Router_8cpp.html" target="_top" xlink:title=" ">
<polygon fill="white" stroke="#666666" points="1421.5,-145.5 1276.5,-145.5 1276.5,-126.5 1421.5,-126.5 1421.5,-145.5"/>
<text text-anchor="middle" x="1349" y="-133.5" font-family="Helvetica,sans-Serif" font-size="10.00">srcs/dispatcher/Router.cpp</text>
</a>
</g>
</g>
<!-- Node1&#45;&gt;Node19 -->
<g id="edge26_Node000001_Node000019" class="edge">
<title>Node1&#45;&gt;Node19</title>
<g id="a_edge26_Node000001_Node000019"><a xlink:title=" ">
<path fill="none" stroke="#63b8ff" d="M889.42,-188.49C985.85,-181.11 1136.86,-168.17 1267,-151 1278.6,-149.47 1291.07,-147.51 1302.69,-145.54"/>
<polygon fill="#63b8ff" stroke="#63b8ff" points="889.1,-185 879.39,-189.25 889.63,-191.98 889.1,-185"/>
</a>
</g>
</g>
<!-- Node20 -->
<g id="Node000020" class="node">
<title>Node20</title>
<g id="a_Node000020"><a xlink:href="UploadHandler_8cpp.html" target="_top" xlink:title=" ">
<polygon fill="white" stroke="#666666" points="1624.5,-145.5 1439.5,-145.5 1439.5,-126.5 1624.5,-126.5 1624.5,-145.5"/>
<text text-anchor="middle" x="1532" y="-133.5" font-family="Helvetica,sans-Serif" font-size="10.00">srcs/dispatcher/UploadHandler.cpp</text>
</a>
</g>
</g>
<!-- Node1&#45;&gt;Node20 -->
<g id="edge27_Node000001_Node000020" class="edge">
<title>Node1&#45;&gt;Node20</title>
<g id="a_edge27_Node000001_Node000020"><a xlink:title=" ">
<path fill="none" stroke="#63b8ff" d="M889.16,-190.76C1014.92,-184.21 1239.55,-170.9 1431,-151 1445.44,-149.5 1460.99,-147.52 1475.46,-145.53"/>
<polygon fill="#63b8ff" stroke="#63b8ff" points="888.97,-187.27 879.16,-191.28 889.33,-194.26 888.97,-187.27"/>
</a>
</g>
</g>
<!-- Node2&#45;&gt;Node3 -->
<g id="edge2_Node000002_Node000003" class="edge">
<title>Node2&#45;&gt;Node3</title>
<g id="a_edge2_Node000002_Node000003"><a xlink:title=" ">
<path fill="none" stroke="#63b8ff" d="M310.78,-123.32C270.54,-110.7 207.34,-90.87 171.4,-79.6"/>
<polygon fill="#63b8ff" stroke="#63b8ff" points="309.9,-126.71 320.49,-126.37 311.99,-120.04 309.9,-126.71"/>
</a>
</g>
</g>
<!-- Node5 -->
<g id="Node000005" class="node">
<title>Node5</title>
<g id="a_Node000005"><a xlink:href="main_8cpp.html" target="_top" xlink:title=" ">
<polygon fill="white" stroke="#666666" points="301,-19 217,-19 217,0 301,0 301,-19"/>
<text text-anchor="middle" x="259" y="-7" font-family="Helvetica,sans-Serif" font-size="10.00">srcs/main.cpp</text>
</a>
</g>
</g>
<!-- Node2&#45;&gt;Node5 -->
<g id="edge9_Node000002_Node000005" class="edge">
<title>Node2&#45;&gt;Node5</title>
<g id="a_edge9_Node000002_Node000005"><a xlink:title=" ">
<path fill="none" stroke="#63b8ff" d="M320.23,-121.33C305.62,-112.79 288.59,-100.47 278,-85 263.83,-64.29 260.22,-33.82 259.31,-19.09"/>
<polygon fill="#63b8ff" stroke="#63b8ff" points="318.94,-124.62 329.39,-126.39 322.33,-118.49 318.94,-124.62"/>
</a>
</g>
</g>
<!-- Node2&#45;&gt;Node6 -->
<g id="edge5_Node000002_Node000006" class="edge">
<title>Node2&#45;&gt;Node6</title>
<g id="a_edge5_Node000002_Node000006"><a xlink:title=" ">
<path fill="none" stroke="#63b8ff" d="M378.22,-122.52C408.76,-109.91 455.16,-90.75 481.93,-79.7"/>
<polygon fill="#63b8ff" stroke="#63b8ff" points="376.81,-119.32 368.9,-126.37 379.48,-125.79 376.81,-119.32"/>
</a>
</g>
</g>
<!-- Node8 -->
<g id="Node000008" class="node">
<title>Node8</title>
<g id="a_Node000008"><a xlink:href="Config_8cpp.html" target="_top" xlink:title=" ">
<polygon fill="white" stroke="#666666" points="409,-79.5 287,-79.5 287,-60.5 409,-60.5 409,-79.5"/>
<text text-anchor="middle" x="348" y="-67.5" font-family="Helvetica,sans-Serif" font-size="10.00">srcs/config/Config.cpp</text>
</a>
</g>
</g>
<!-- Node2&#45;&gt;Node8 -->
<g id="edge8_Node000002_Node000008" class="edge">
<title>Node2&#45;&gt;Node8</title>
<g id="a_edge8_Node000002_Node000008"><a xlink:title=" ">
<path fill="none" stroke="#63b8ff" d="M348,-116.08C348,-104.13 348,-89.22 348,-79.91"/>
<polygon fill="#63b8ff" stroke="#63b8ff" points="344.5,-116.37 348,-126.37 351.5,-116.37 344.5,-116.37"/>
</a>
</g>
</g>
<!-- Node3&#45;&gt;Node4 -->
<g id="edge3_Node000003_Node000004" class="edge">
<title>Node3&#45;&gt;Node4</title>
<g id="a_edge3_Node000003_Node000004"><a xlink:title=" ">
<path fill="none" stroke="#63b8ff" d="M126.24,-53.72C113.45,-42.71 96.64,-28.25 86.07,-19.17"/>
<polygon fill="#63b8ff" stroke="#63b8ff" points="124.1,-56.5 133.97,-60.37 128.67,-51.19 124.1,-56.5"/>
</a>
</g>
</g>
<!-- Node3&#45;&gt;Node5 -->
<g id="edge4_Node000003_Node000005" class="edge">
<title>Node3&#45;&gt;Node5</title>
<g id="a_edge4_Node000003_Node000005"><a xlink:title=" ">
<path fill="none" stroke="#63b8ff" d="M170.09,-55.73C192.11,-44.53 222.99,-28.82 241.96,-19.17"/>
<polygon fill="#63b8ff" stroke="#63b8ff" points="168.29,-52.71 160.97,-60.37 171.47,-58.95 168.29,-52.71"/>
</a>
</g>
</g>
<!-- Node6&#45;&gt;Node5 -->
<g id="edge7_Node000006_Node000005" class="edge">
<title>Node6&#45;&gt;Node5</title>
<g id="a_edge7_Node000006_Node000005"><a xlink:title=" ">
<path fill="none" stroke="#63b8ff" d="M457.58,-58.11C410.42,-46.8 337.64,-29.35 294.52,-19.02"/>
<polygon fill="#63b8ff" stroke="#63b8ff" points="456.98,-61.57 467.52,-60.49 458.61,-54.76 456.98,-61.57"/>
</a>
</g>
</g>
<!-- Node7 -->
<g id="Node000007" class="node">
<title>Node7</title>
<g id="a_Node000007"><a xlink:href="WebServer_8cpp.html" target="_top" xlink:title=" ">
<polygon fill="white" stroke="#666666" points="801,-19 671,-19 671,0 801,0 801,-19"/>
<text text-anchor="middle" x="736" y="-7" font-family="Helvetica,sans-Serif" font-size="10.00">srcs/init/WebServer.cpp</text>
</a>
</g>
</g>
<!-- Node6&#45;&gt;Node7 -->
<g id="edge6_Node000006_Node000007" class="edge">
<title>Node6&#45;&gt;Node7</title>
<g id="a_edge6_Node000006_Node000007"><a xlink:title=" ">
<path fill="none" stroke="#63b8ff" d="M546.66,-58.04C591.7,-46.73 660.99,-29.33 702.08,-19.02"/>
<polygon fill="#63b8ff" stroke="#63b8ff" points="545.73,-54.66 536.88,-60.49 547.43,-61.45 545.73,-54.66"/>
</a>
</g>
</g>
<!-- Node10 -->
<g id="Node000010" class="node">
<title>Node10</title>
<g id="a_Node000010"><a xlink:href="ClientConnection_8cpp.html" target="_top" xlink:title=" ">
<polygon fill="white" stroke="#666666" points="941.5,-79.5 780.5,-79.5 780.5,-60.5 941.5,-60.5 941.5,-79.5"/>
<text text-anchor="middle" x="861" y="-67.5" font-family="Helvetica,sans-Serif" font-size="10.00">srcs/init/ClientConnection.cpp</text>
</a>
</g>
</g>
<!-- Node9&#45;&gt;Node10 -->
<g id="edge13_Node000009_Node000010" class="edge">
<title>Node9&#45;&gt;Node10</title>
<g id="a_edge13_Node000009_Node000010"><a xlink:title=" ">
<path fill="none" stroke="#63b8ff" d="M814.04,-113.93C826.71,-102.35 841.74,-88.61 851.33,-79.84"/>
<polygon fill="#63b8ff" stroke="#63b8ff" points="811.55,-111.47 806.54,-120.8 816.28,-116.63 811.55,-111.47"/>
</a>
</g>
</g>
<!-- Node9&#45;&gt;Node11 -->
<g id="edge14_Node000009_Node000011" class="edge">
<title>Node9&#45;&gt;Node11</title>
<g id="a_edge14_Node000009_Node000011"><a xlink:title=" ">
<path fill="none" stroke="#63b8ff" d="M757.72,-115.81C736.77,-103.73 710.76,-88.73 694.77,-79.52"/>
<polygon fill="#63b8ff" stroke="#63b8ff" points="756.23,-118.99 766.64,-120.95 759.73,-112.93 756.23,-118.99"/>
</a>
</g>
</g>
<!-- Node12&#45;&gt;Node7 -->
<g id="edge21_Node000012_Node000007" class="edge">
<title>Node12&#45;&gt;Node7</title>
<g id="a_edge21_Node000012_Node000007"><a xlink:title=" ">
<path fill="none" stroke="#63b8ff" d="M970.74,-110.72C969.92,-92.88 965.75,-69.33 951,-55 929.95,-34.55 856.42,-22.6 801.17,-16.32"/>
<polygon fill="#63b8ff" stroke="#63b8ff" points="967.24,-111.01 970.88,-120.96 974.24,-110.91 967.24,-111.01"/>
</a>
</g>
</g>
<!-- Node12&#45;&gt;Node10 -->
<g id="edge20_Node000012_Node000010" class="edge">
<title>Node12&#45;&gt;Node10</title>
<g id="a_edge20_Node000012_Node000010"><a xlink:title=" ">
<path fill="none" stroke="#63b8ff" d="M937.32,-115.81C916.75,-103.73 891.2,-88.73 875.51,-79.52"/>
<polygon fill="#63b8ff" stroke="#63b8ff" points="935.68,-118.91 946.08,-120.95 939.23,-112.87 935.68,-118.91"/>
</a>
</g>
</g>
<!-- Node13 -->
<g id="Node000013" class="node">
<title>Node13</title>
<g id="a_Node000013"><a xlink:href="AutoIndexHandler_8cpp.html" target="_top" xlink:title=" ">
<polygon fill="white" stroke="#666666" points="1141.5,-85 998.5,-85 998.5,-55 1141.5,-55 1141.5,-85"/>
<text text-anchor="start" x="1006.5" y="-73" font-family="Helvetica,sans-Serif" font-size="10.00">srcs/dispatcher/AutoIndex</text>
<text text-anchor="middle" x="1070" y="-62" font-family="Helvetica,sans-Serif" font-size="10.00">Handler.cpp</text>
</a>
</g>
</g>
<!-- Node12&#45;&gt;Node13 -->
<g id="edge16_Node000012_Node000013" class="edge">
<title>Node12&#45;&gt;Node13</title>
<g id="a_edge16_Node000012_Node000013"><a xlink:title=" ">
<path fill="none" stroke="#63b8ff" d="M1000.78,-115.3C1016,-105.56 1034.03,-94.02 1047.87,-85.16"/>
<polygon fill="#63b8ff" stroke="#63b8ff" points="998.73,-112.46 992.19,-120.8 1002.5,-118.35 998.73,-112.46"/>
</a>
</g>
</g>
<!-- Node14 -->
<g id="Node000014" class="node">
<title>Node14</title>
<g id="a_Node000014"><a xlink:href="CgiHandler_8cpp.html" target="_top" xlink:title=" ">
<polygon fill="white" stroke="#666666" points="1326.5,-79.5 1159.5,-79.5 1159.5,-60.5 1326.5,-60.5 1326.5,-79.5"/>
<text text-anchor="middle" x="1243" y="-67.5" font-family="Helvetica,sans-Serif" font-size="10.00">srcs/dispatcher/CgiHandler.cpp</text>
</a>
</g>
</g>
<!-- Node12&#45;&gt;Node14 -->
<g id="edge17_Node000012_Node000014" class="edge">
<title>Node12&#45;&gt;Node14</title>
<g id="a_edge17_Node000012_Node000014"><a xlink:title=" ">
<path fill="none" stroke="#63b8ff" d="M1039.97,-118.6C1093.19,-106.12 1164.27,-89.46 1206.67,-79.52"/>
<polygon fill="#63b8ff" stroke="#63b8ff" points="1038.85,-115.26 1029.91,-120.95 1040.45,-122.08 1038.85,-115.26"/>
</a>
</g>
</g>
<!-- Node12&#45;&gt;Node15 -->
<g id="edge18_Node000012_Node000015" class="edge">
<title>Node12&#45;&gt;Node15</title>
<g id="a_edge18_Node000012_Node000015"><a xlink:title=" ">
<path fill="none" stroke="#63b8ff" d="M1058.04,-121.42C1059.37,-121.28 1060.69,-121.14 1062,-121 1346.25,-91.47 1419.75,-114.53 1704,-85 1717.5,-83.6 1732.04,-81.61 1745.5,-79.57"/>
<polygon fill="#63b8ff" stroke="#63b8ff" points="1057.25,-117.99 1047.73,-122.64 1058.07,-124.94 1057.25,-117.99"/>
</a>
</g>
</g>
<!-- Node16 -->
<g id="Node000016" class="node">
<title>Node16</title>
<g id="a_Node000016"><a xlink:href="StaticPageHandler_8cpp.html" target="_top" xlink:title=" ">
<polygon fill="white" stroke="#666666" points="1489,-85 1345,-85 1345,-55 1489,-55 1489,-85"/>
<text text-anchor="start" x="1353" y="-73" font-family="Helvetica,sans-Serif" font-size="10.00">srcs/dispatcher/StaticPage</text>
<text text-anchor="middle" x="1417" y="-62" font-family="Helvetica,sans-Serif" font-size="10.00">Handler.cpp</text>
</a>
</g>
</g>
<!-- Node12&#45;&gt;Node16 -->
<g id="edge19_Node000012_Node000016" class="edge">
<title>Node12&#45;&gt;Node16</title>
<g id="a_edge19_Node000012_Node000016"><a xlink:title=" ">
<path fill="none" stroke="#63b8ff" d="M1058.06,-121.56C1059.38,-121.37 1060.7,-121.18 1062,-121 1183.61,-103.76 1214.57,-103.46 1336,-85 1338.82,-84.57 1341.7,-84.12 1344.6,-83.66"/>
<polygon fill="#63b8ff" stroke="#63b8ff" points="1057.18,-118.15 1047.78,-123.05 1058.18,-125.08 1057.18,-118.15"/>
</a>
</g>
</g>
<!-- Node17 -->
<g id="Node000017" class="node">
<title>Node17</title>
<g id="a_Node000017"><a xlink:href="ResponseBuilder_8cpp.html" target="_top" xlink:title=" ">
<polygon fill="white" stroke="#666666" points="1695,-79.5 1507,-79.5 1507,-60.5 1695,-60.5 1695,-79.5"/>
<text text-anchor="middle" x="1601" y="-67.5" font-family="Helvetica,sans-Serif" font-size="10.00">srcs/response/ResponseBuilder.cpp</text>
</a>
</g>
</g>
<!-- Node12&#45;&gt;Node17 -->
<g id="edge22_Node000012_Node000017" class="edge">
<title>Node12&#45;&gt;Node17</title>
<g id="a_edge22_Node000012_Node000017"><a xlink:title=" ">
<path fill="none" stroke="#63b8ff" d="M1058.05,-121.47C1059.37,-121.31 1060.69,-121.15 1062,-121 1255.11,-98.36 1304.71,-106.1 1498,-85 1512.35,-83.43 1527.79,-81.48 1542.24,-79.53"/>
<polygon fill="#63b8ff" stroke="#63b8ff" points="1057.23,-118.05 1047.75,-122.79 1058.11,-124.99 1057.23,-118.05"/>
</a>
</g>
</g>
</g>
</svg>
