<?xml version="1.0" encoding="UTF-8" standalone="no"?>
<!DOCTYPE svg PUBLIC "-//W3C//DTD SVG 1.1//EN"
 "http://www.w3.org/Graphics/SVG/1.1/DTD/svg11.dtd">
<!-- Generated by graphviz version 2.43.0 (0)
 -->
<!-- Title: ServerConfig.hpp Pages: 1 -->
<svg width="1321pt" height="192pt"
 viewBox="0.00 0.00 1320.50 192.00" xmlns="http://www.w3.org/2000/svg" xmlns:xlink="http://www.w3.org/1999/xlink">
<g id="graph0" class="graph" transform="scale(1 1) rotate(0) translate(4 188)">
<title>ServerConfig.hpp</title>
<!-- Node1 -->
<g id="Node000001" class="node">
<title>Node1</title>
<g id="a_Node000001"><a xlink:title=" ">
<polygon fill="#999999" stroke="#666666" points="579.5,-184 479.5,-184 479.5,-165 579.5,-165 579.5,-184"/>
<text text-anchor="middle" x="529.5" y="-172" font-family="Helvetica,sans-Serif" font-size="10.00">ServerConfig.hpp</text>
</a>
</g>
</g>
<!-- Node2 -->
<g id="Node000002" class="node">
<title>Node2</title>
<g id="a_Node000002"><a xlink:href="Config_8hpp.html" target="_top" xlink:title=" ">
<polygon fill="white" stroke="#666666" points="270.5,-129 202.5,-129 202.5,-110 270.5,-110 270.5,-129"/>
<text text-anchor="middle" x="236.5" y="-117" font-family="Helvetica,sans-Serif" font-size="10.00">Config.hpp</text>
</a>
</g>
</g>
<!-- Node1&#45;&gt;Node2 -->
<g id="edge1_Node000001_Node000002" class="edge">
<title>Node1&#45;&gt;Node2</title>
<g id="a_edge1_Node000001_Node000002"><a xlink:title=" ">
<path fill="none" stroke="#63b8ff" d="M472.36,-163.16C412.4,-152.32 320.13,-135.63 270.64,-126.68"/>
<polygon fill="#63b8ff" stroke="#63b8ff" points="471.96,-166.65 482.42,-164.98 473.21,-159.76 471.96,-166.65"/>
</a>
</g>
</g>
<!-- Node4 -->
<g id="Node000004" class="node">
<title>Node4</title>
<g id="a_Node000004"><a xlink:href="ConfigParser_8hpp.html" target="_top" xlink:title=" ">
<polygon fill="white" stroke="#666666" points="146.5,-74 48.5,-74 48.5,-55 146.5,-55 146.5,-74"/>
<text text-anchor="middle" x="97.5" y="-62" font-family="Helvetica,sans-Serif" font-size="10.00">ConfigParser.hpp</text>
</a>
</g>
</g>
<!-- Node1&#45;&gt;Node4 -->
<g id="edge11_Node000001_Node000004" class="edge">
<title>Node1&#45;&gt;Node4</title>
<g id="a_edge11_Node000001_Node000004"><a xlink:title=" ">
<path fill="none" stroke="#63b8ff" d="M469.19,-173.59C400.38,-171.87 285.5,-163.42 193.5,-129 158.69,-115.98 123.78,-88.36 107.3,-74.23"/>
<polygon fill="#63b8ff" stroke="#63b8ff" points="469.34,-177.09 479.41,-173.8 469.49,-170.09 469.34,-177.09"/>
</a>
</g>
</g>
<!-- Node5 -->
<g id="Node000005" class="node">
<title>Node5</title>
<g id="a_Node000005"><a xlink:href="ConfigParser_8cpp.html" target="_top" xlink:title=" ">
<polygon fill="white" stroke="#666666" points="97,-19 0,-19 0,0 97,0 97,-19"/>
<text text-anchor="middle" x="48.5" y="-7" font-family="Helvetica,sans-Serif" font-size="10.00">ConfigParser.cpp</text>
</a>
</g>
</g>
<!-- Node1&#45;&gt;Node5 -->
<g id="edge10_Node000001_Node000005" class="edge">
<title>Node1&#45;&gt;Node5</title>
<g id="a_edge10_Node000001_Node000005"><a xlink:title=" ">
<path fill="none" stroke="#63b8ff" d="M469.25,-172.48C393.96,-169.82 261.84,-160.58 153.5,-129 99.49,-113.26 69.41,-121.64 39.5,-74 28.72,-56.84 37.82,-31.98 43.98,-19.05"/>
<polygon fill="#63b8ff" stroke="#63b8ff" points="469.38,-175.98 479.49,-172.81 469.61,-168.99 469.38,-175.98"/>
</a>
</g>
</g>
<!-- Node7 -->
<g id="Node000007" class="node">
<title>Node7</title>
<g id="a_Node000007"><a xlink:href="WebServer_8hpp.html" target="_top" xlink:title=" ">
<polygon fill="white" stroke="#666666" points="378,-74 289,-74 289,-55 378,-55 378,-74"/>
<text text-anchor="middle" x="333.5" y="-62" font-family="Helvetica,sans-Serif" font-size="10.00">WebServer.hpp</text>
</a>
</g>
</g>
<!-- Node1&#45;&gt;Node7 -->
<g id="edge28_Node000001_Node000007" class="edge">
<title>Node1&#45;&gt;Node7</title>
<g id="a_edge28_Node000001_Node000007"><a xlink:title=" ">
<path fill="none" stroke="#63b8ff" d="M505,-160C464.08,-137.45 382.96,-92.75 349.01,-74.05"/>
<polygon fill="#63b8ff" stroke="#63b8ff" points="503.34,-163.08 513.79,-164.84 506.72,-156.95 503.34,-163.08"/>
</a>
</g>
</g>
<!-- Node9 -->
<g id="Node000009" class="node">
<title>Node9</title>
<g id="a_Node000009"><a xlink:href="Dispatcher_8cpp.html" target="_top" xlink:title=" ">
<polygon fill="white" stroke="#666666" points="745,-74 656,-74 656,-55 745,-55 745,-74"/>
<text text-anchor="middle" x="700.5" y="-62" font-family="Helvetica,sans-Serif" font-size="10.00">Dispatcher.cpp</text>
</a>
</g>
</g>
<!-- Node1&#45;&gt;Node9 -->
<g id="edge12_Node000001_Node000009" class="edge">
<title>Node1&#45;&gt;Node9</title>
<g id="a_edge12_Node000001_Node000009"><a xlink:title=" ">
<path fill="none" stroke="#63b8ff" d="M551.99,-159.3C587.93,-136.59 657.28,-92.8 686.73,-74.2"/>
<polygon fill="#63b8ff" stroke="#63b8ff" points="549.79,-156.55 543.2,-164.84 553.53,-162.46 549.79,-156.55"/>
</a>
</g>
</g>
<!-- Node10 -->
<g id="Node000010" class="node">
<title>Node10</title>
<g id="a_Node000010"><a xlink:href="RequestParse_8cpp.html" target="_top" xlink:title=" ">
<polygon fill="white" stroke="#666666" points="499,-74 396,-74 396,-55 499,-55 499,-74"/>
<text text-anchor="middle" x="447.5" y="-62" font-family="Helvetica,sans-Serif" font-size="10.00">RequestParse.cpp</text>
</a>
</g>
</g>
<!-- Node1&#45;&gt;Node10 -->
<g id="edge13_Node000001_Node000010" class="edge">
<title>Node1&#45;&gt;Node10</title>
<g id="a_edge13_Node000001_Node000010"><a xlink:title=" ">
<path fill="none" stroke="#63b8ff" d="M503.6,-159.69C491.46,-152.06 477.67,-141.58 468.5,-129 456.05,-111.92 450.69,-87.03 448.63,-74.07"/>
<polygon fill="#63b8ff" stroke="#63b8ff" points="502.08,-162.85 512.47,-164.95 505.66,-156.83 502.08,-162.85"/>
</a>
</g>
</g>
<!-- Node11 -->
<g id="Node000011" class="node">
<title>Node11</title>
<g id="a_Node000011"><a xlink:href="RequestParse_8hpp.html" target="_top" xlink:title=" ">
<polygon fill="white" stroke="#666666" points="581.5,-129 477.5,-129 477.5,-110 581.5,-110 581.5,-129"/>
<text text-anchor="middle" x="529.5" y="-117" font-family="Helvetica,sans-Serif" font-size="10.00">RequestParse.hpp</text>
</a>
</g>
</g>
<!-- Node1&#45;&gt;Node11 -->
<g id="edge14_Node000001_Node000011" class="edge">
<title>Node1&#45;&gt;Node11</title>
<g id="a_edge14_Node000001_Node000011"><a xlink:title=" ">
<path fill="none" stroke="#63b8ff" d="M529.5,-154.66C529.5,-145.93 529.5,-135.99 529.5,-129.09"/>
<polygon fill="#63b8ff" stroke="#63b8ff" points="526,-154.75 529.5,-164.75 533,-154.75 526,-154.75"/>
</a>
</g>
</g>
<!-- Node13 -->
<g id="Node000013" class="node">
<title>Node13</title>
<g id="a_Node000013"><a xlink:href="ResponseBuilder_8hpp.html" target="_top" xlink:title=" ">
<polygon fill="white" stroke="#666666" points="760,-129 641,-129 641,-110 760,-110 760,-129"/>
<text text-anchor="middle" x="700.5" y="-117" font-family="Helvetica,sans-Serif" font-size="10.00">ResponseBuilder.hpp</text>
</a>
</g>
</g>
<!-- Node1&#45;&gt;Node13 -->
<g id="edge17_Node000001_Node000013" class="edge">
<title>Node1&#45;&gt;Node13</title>
<g id="a_edge17_Node000001_Node000013"><a xlink:title=" ">
<path fill="none" stroke="#63b8ff" d="M566.84,-161.93C598.78,-152.03 644.02,-138.01 672.81,-129.08"/>
<polygon fill="#63b8ff" stroke="#63b8ff" points="565.49,-158.68 556.97,-164.98 567.56,-165.37 565.49,-158.68"/>
</a>
</g>
</g>
<!-- Node18 -->
<g id="Node000018" class="node">
<title>Node18</title>
<g id="a_Node000018"><a xlink:href="Router_8cpp.html" target="_top" xlink:title=" ">
<polygon fill="white" stroke="#666666" points="846.5,-129 778.5,-129 778.5,-110 846.5,-110 846.5,-129"/>
<text text-anchor="middle" x="812.5" y="-117" font-family="Helvetica,sans-Serif" font-size="10.00">Router.cpp</text>
</a>
</g>
</g>
<!-- Node1&#45;&gt;Node18 -->
<g id="edge25_Node000001_Node000018" class="edge">
<title>Node1&#45;&gt;Node18</title>
<g id="a_edge25_Node000001_Node000018"><a xlink:title=" ">
<path fill="none" stroke="#63b8ff" d="M586.46,-163.14C635.11,-154.23 706.94,-140.98 769.5,-129 772.34,-128.46 775.28,-127.89 778.24,-127.31"/>
<polygon fill="#63b8ff" stroke="#63b8ff" points="585.65,-159.73 576.44,-164.97 586.9,-166.61 585.65,-159.73"/>
</a>
</g>
</g>
<!-- Node19 -->
<g id="Node000019" class="node">
<title>Node19</title>
<g id="a_Node000019"><a xlink:href="ServerConfig_8cpp.html" target="_top" xlink:title=" ">
<polygon fill="white" stroke="#666666" points="964,-129 865,-129 865,-110 964,-110 964,-129"/>
<text text-anchor="middle" x="914.5" y="-117" font-family="Helvetica,sans-Serif" font-size="10.00">ServerConfig.cpp</text>
</a>
</g>
</g>
<!-- Node1&#45;&gt;Node19 -->
<g id="edge26_Node000001_Node000019" class="edge">
<title>Node1&#45;&gt;Node19</title>
<g id="a_edge26_Node000001_Node000019"><a xlink:title=" ">
<path fill="none" stroke="#63b8ff" d="M589.63,-165.43C655.06,-156.61 762.74,-142.01 855.5,-129 858.57,-128.57 861.74,-128.12 864.93,-127.67"/>
<polygon fill="#63b8ff" stroke="#63b8ff" points="588.94,-161.99 579.5,-166.79 589.88,-168.93 588.94,-161.99"/>
</a>
</g>
</g>
<!-- Node20 -->
<g id="Node000020" class="node">
<title>Node20</title>
<g id="a_Node000020"><a xlink:href="UploadHandler_8cpp.html" target="_top" xlink:title=" ">
<polygon fill="white" stroke="#666666" points="1091,-129 982,-129 982,-110 1091,-110 1091,-129"/>
<text text-anchor="middle" x="1036.5" y="-117" font-family="Helvetica,sans-Serif" font-size="10.00">UploadHandler.cpp</text>
</a>
</g>
</g>
<!-- Node1&#45;&gt;Node20 -->
<g id="edge27_Node000001_Node000020" class="edge">
<title>Node1&#45;&gt;Node20</title>
<g id="a_edge27_Node000001_Node000020"><a xlink:title=" ">
<path fill="none" stroke="#63b8ff" d="M589.88,-168.11C675.36,-160.33 836.54,-145.1 973.5,-129 976.24,-128.68 979.05,-128.34 981.88,-127.99"/>
<polygon fill="#63b8ff" stroke="#63b8ff" points="589.48,-164.63 579.83,-169.02 590.11,-171.6 589.48,-164.63"/>
</a>
</g>
</g>
<!-- Node3 -->
<g id="Node000003" class="node">
<title>Node3</title>
<g id="a_Node000003"><a xlink:href="Config_8cpp.html" target="_top" xlink:title=" ">
<polygon fill="white" stroke="#666666" points="270.5,-74 202.5,-74 202.5,-55 270.5,-55 270.5,-74"/>
<text text-anchor="middle" x="236.5" y="-62" font-family="Helvetica,sans-Serif" font-size="10.00">Config.cpp</text>
</a>
</g>
</g>
<!-- Node2&#45;&gt;Node3 -->
<g id="edge2_Node000002_Node000003" class="edge">
<title>Node2&#45;&gt;Node3</title>
<g id="a_edge2_Node000002_Node000003"><a xlink:title=" ">
<path fill="none" stroke="#63b8ff" d="M236.5,-99.66C236.5,-90.93 236.5,-80.99 236.5,-74.09"/>
<polygon fill="#63b8ff" stroke="#63b8ff" points="233,-99.75 236.5,-109.75 240,-99.75 233,-99.75"/>
</a>
</g>
</g>
<!-- Node2&#45;&gt;Node4 -->
<g id="edge3_Node000002_Node000004" class="edge">
<title>Node2&#45;&gt;Node4</title>
<g id="a_edge3_Node000002_Node000004"><a xlink:title=" ">
<path fill="none" stroke="#63b8ff" d="M204.82,-106.42C179.03,-96.59 143.26,-82.95 120.24,-74.17"/>
<polygon fill="#63b8ff" stroke="#63b8ff" points="203.58,-109.69 214.17,-109.98 206.07,-103.15 203.58,-109.69"/>
</a>
</g>
</g>
<!-- Node6 -->
<g id="Node000006" class="node">
<title>Node6</title>
<g id="a_Node000006"><a xlink:href="main_8cpp.html" target="_top" xlink:title=" ">
<polygon fill="white" stroke="#666666" points="205.5,-19 143.5,-19 143.5,0 205.5,0 205.5,-19"/>
<text text-anchor="middle" x="174.5" y="-7" font-family="Helvetica,sans-Serif" font-size="10.00">main.cpp</text>
</a>
</g>
</g>
<!-- Node2&#45;&gt;Node6 -->
<g id="edge9_Node000002_Node000006" class="edge">
<title>Node2&#45;&gt;Node6</title>
<g id="a_edge9_Node000002_Node000006"><a xlink:title=" ">
<path fill="none" stroke="#63b8ff" d="M217.79,-102.92C209.33,-95.02 199.83,-84.82 193.5,-74 183.04,-56.12 177.89,-31.99 175.76,-19.24"/>
<polygon fill="#63b8ff" stroke="#63b8ff" points="215.64,-105.7 225.44,-109.74 220.3,-100.47 215.64,-105.7"/>
</a>
</g>
</g>
<!-- Node2&#45;&gt;Node7 -->
<g id="edge6_Node000002_Node000007" class="edge">
<title>Node2&#45;&gt;Node7</title>
<g id="a_edge6_Node000002_Node000007"><a xlink:title=" ">
<path fill="none" stroke="#63b8ff" d="M261.27,-104.97C279,-95.28 302.35,-82.52 317.63,-74.17"/>
<polygon fill="#63b8ff" stroke="#63b8ff" points="259.18,-102.12 252.08,-109.98 262.54,-108.26 259.18,-102.12"/>
</a>
</g>
</g>
<!-- Node4&#45;&gt;Node5 -->
<g id="edge4_Node000004_Node000005" class="edge">
<title>Node4&#45;&gt;Node5</title>
<g id="a_edge4_Node000004_Node000005"><a xlink:title=" ">
<path fill="none" stroke="#63b8ff" d="M82.47,-47.24C73.88,-37.95 63.46,-26.68 56.44,-19.09"/>
<polygon fill="#63b8ff" stroke="#63b8ff" points="80.05,-49.78 89.41,-54.75 85.19,-45.03 80.05,-49.78"/>
</a>
</g>
</g>
<!-- Node4&#45;&gt;Node6 -->
<g id="edge5_Node000004_Node000006" class="edge">
<title>Node4&#45;&gt;Node6</title>
<g id="a_edge5_Node000004_Node000006"><a xlink:title=" ">
<path fill="none" stroke="#63b8ff" d="M118.35,-49.15C132.26,-39.57 150.11,-27.29 161.9,-19.17"/>
<polygon fill="#63b8ff" stroke="#63b8ff" points="116.12,-46.43 109.87,-54.98 120.09,-52.2 116.12,-46.43"/>
</a>
</g>
</g>
<!-- Node7&#45;&gt;Node6 -->
<g id="edge8_Node000007_Node000006" class="edge">
<title>Node7&#45;&gt;Node6</title>
<g id="a_edge8_Node000007_Node000006"><a xlink:title=" ">
<path fill="none" stroke="#63b8ff" d="M298.4,-51.8C268.72,-41.91 226.9,-27.97 200.25,-19.08"/>
<polygon fill="#63b8ff" stroke="#63b8ff" points="297.36,-55.14 307.95,-54.98 299.57,-48.5 297.36,-55.14"/>
</a>
</g>
</g>
<!-- Node8 -->
<g id="Node000008" class="node">
<title>Node8</title>
<g id="a_Node000008"><a xlink:href="WebServer_8cpp.html" target="_top" xlink:title=" ">
<polygon fill="white" stroke="#666666" points="669,-19 580,-19 580,0 669,0 669,-19"/>
<text text-anchor="middle" x="624.5" y="-7" font-family="Helvetica,sans-Serif" font-size="10.00">WebServer.cpp</text>
</a>
</g>
</g>
<!-- Node7&#45;&gt;Node8 -->
<g id="edge7_Node000007_Node000008" class="edge">
<title>Node7&#45;&gt;Node8</title>
<g id="a_edge7_Node000007_Node000008"><a xlink:title=" ">
<path fill="none" stroke="#63b8ff" d="M388.01,-53.57C443.49,-43.47 528.43,-28 579.99,-18.61"/>
<polygon fill="#63b8ff" stroke="#63b8ff" points="387.22,-50.16 378.01,-55.39 388.48,-57.04 387.22,-50.16"/>
</a>
</g>
</g>
<!-- Node11&#45;&gt;Node10 -->
<g id="edge16_Node000011_Node000010" class="edge">
<title>Node11&#45;&gt;Node10</title>
<g id="a_edge16_Node000011_Node000010"><a xlink:title=" ">
<path fill="none" stroke="#63b8ff" d="M507.72,-104.42C492.84,-94.81 473.59,-82.37 460.91,-74.17"/>
<polygon fill="#63b8ff" stroke="#63b8ff" points="506.03,-107.5 516.33,-109.98 509.83,-101.62 506.03,-107.5"/>
</a>
</g>
</g>
<!-- Node12 -->
<g id="Node000012" class="node">
<title>Node12</title>
<g id="a_Node000012"><a xlink:href="ClientConnection_8cpp.html" target="_top" xlink:title=" ">
<polygon fill="white" stroke="#666666" points="637.5,-74 517.5,-74 517.5,-55 637.5,-55 637.5,-74"/>
<text text-anchor="middle" x="577.5" y="-62" font-family="Helvetica,sans-Serif" font-size="10.00">ClientConnection.cpp</text>
</a>
</g>
</g>
<!-- Node11&#45;&gt;Node12 -->
<g id="edge15_Node000011_Node000012" class="edge">
<title>Node11&#45;&gt;Node12</title>
<g id="a_edge15_Node000011_Node000012"><a xlink:title=" ">
<path fill="none" stroke="#63b8ff" d="M544.23,-102.24C552.64,-92.95 562.85,-81.68 569.72,-74.09"/>
<polygon fill="#63b8ff" stroke="#63b8ff" points="541.54,-99.99 537.43,-109.75 546.73,-104.69 541.54,-99.99"/>
</a>
</g>
</g>
<!-- Node13&#45;&gt;Node8 -->
<g id="edge24_Node000013_Node000008" class="edge">
<title>Node13&#45;&gt;Node8</title>
<g id="a_edge24_Node000013_Node000008"><a xlink:title=" ">
<path fill="none" stroke="#63b8ff" d="M763.49,-108.29C817.86,-98.83 888.97,-84.67 897.5,-74 902.77,-67.4 902.97,-61.43 897.5,-55 868.73,-21.16 738.97,-12.99 669.21,-11.06"/>
<polygon fill="#63b8ff" stroke="#63b8ff" points="762.82,-104.85 753.56,-110 764,-111.75 762.82,-104.85"/>
</a>
</g>
</g>
<!-- Node13&#45;&gt;Node9 -->
<g id="edge21_Node000013_Node000009" class="edge">
<title>Node13&#45;&gt;Node9</title>
<g id="a_edge21_Node000013_Node000009"><a xlink:title=" ">
<path fill="none" stroke="#63b8ff" d="M700.5,-99.66C700.5,-90.93 700.5,-80.99 700.5,-74.09"/>
<polygon fill="#63b8ff" stroke="#63b8ff" points="697,-99.75 700.5,-109.75 704,-99.75 697,-99.75"/>
</a>
</g>
</g>
<!-- Node13&#45;&gt;Node12 -->
<g id="edge20_Node000013_Node000012" class="edge">
<title>Node13&#45;&gt;Node12</title>
<g id="a_edge20_Node000013_Node000012"><a xlink:title=" ">
<path fill="none" stroke="#63b8ff" d="M671.25,-105.9C648.53,-96.11 617.63,-82.79 597.62,-74.17"/>
<polygon fill="#63b8ff" stroke="#63b8ff" points="670.17,-109.24 680.74,-109.98 672.94,-102.81 670.17,-109.24"/>
</a>
</g>
</g>
<!-- Node14 -->
<g id="Node000014" class="node">
<title>Node14</title>
<g id="a_Node000014"><a xlink:href="AutoIndexHandler_8cpp.html" target="_top" xlink:title=" ">
<polygon fill="white" stroke="#666666" points="1068.5,-74 944.5,-74 944.5,-55 1068.5,-55 1068.5,-74"/>
<text text-anchor="middle" x="1006.5" y="-62" font-family="Helvetica,sans-Serif" font-size="10.00">AutoIndexHandler.cpp</text>
</a>
</g>
</g>
<!-- Node13&#45;&gt;Node14 -->
<g id="edge18_Node000013_Node000014" class="edge">
<title>Node13&#45;&gt;Node14</title>
<g id="a_edge18_Node000013_Node000014"><a xlink:title=" ">
<path fill="none" stroke="#63b8ff" d="M759.69,-108.25C817.15,-98.3 903.36,-83.36 957.2,-74.04"/>
<polygon fill="#63b8ff" stroke="#63b8ff" points="758.92,-104.83 749.66,-109.98 760.11,-111.73 758.92,-104.83"/>
</a>
</g>
</g>
<!-- Node15 -->
<g id="Node000015" class="node">
<title>Node15</title>
<g id="a_Node000015"><a xlink:href="CgiHandler_8cpp.html" target="_top" xlink:title=" ">
<polygon fill="white" stroke="#666666" points="1176.5,-74 1086.5,-74 1086.5,-55 1176.5,-55 1176.5,-74"/>
<text text-anchor="middle" x="1131.5" y="-62" font-family="Helvetica,sans-Serif" font-size="10.00">CgiHandler.cpp</text>
</a>
</g>
</g>
<!-- Node13&#45;&gt;Node15 -->
<g id="edge19_Node000013_Node000015" class="edge">
<title>Node13&#45;&gt;Node15</title>
<g id="a_edge19_Node000013_Node000015"><a xlink:title=" ">
<path fill="none" stroke="#63b8ff" d="M770.42,-109.9C908.02,-93.52 944.16,-92.28 1077.5,-74 1080.41,-73.6 1083.42,-73.17 1086.44,-72.73"/>
<polygon fill="#63b8ff" stroke="#63b8ff" points="769.85,-106.44 760.34,-111.11 770.68,-113.39 769.85,-106.44"/>
</a>
</g>
</g>
<!-- Node16 -->
<g id="Node000016" class="node">
<title>Node16</title>
<g id="a_Node000016"><a xlink:href="ResponseBuilder_8cpp.html" target="_top" xlink:title=" ">
<polygon fill="white" stroke="#666666" points="1312.5,-74 1194.5,-74 1194.5,-55 1312.5,-55 1312.5,-74"/>
<text text-anchor="middle" x="1253.5" y="-62" font-family="Helvetica,sans-Serif" font-size="10.00">ResponseBuilder.cpp</text>
</a>
</g>
</g>
<!-- Node13&#45;&gt;Node16 -->
<g id="edge22_Node000013_Node000016" class="edge">
<title>Node13&#45;&gt;Node16</title>
<g id="a_edge22_Node000013_Node000016"><a xlink:title=" ">
<path fill="none" stroke="#63b8ff" d="M770.41,-109.94C955.76,-90.75 1004.19,-93.17 1185.5,-74 1188.34,-73.7 1191.24,-73.38 1194.18,-73.05"/>
<polygon fill="#63b8ff" stroke="#63b8ff" points="769.91,-106.48 760.32,-111 770.63,-113.44 769.91,-106.48"/>
</a>
</g>
</g>
<!-- Node17 -->
<g id="Node000017" class="node">
<title>Node17</title>
<g id="a_Node000017"><a xlink:href="StaticPageHandler_8cpp.html" target="_top" xlink:title=" ">
<polygon fill="white" stroke="#666666" points="888,-74 763,-74 763,-55 888,-55 888,-74"/>
<text text-anchor="middle" x="825.5" y="-62" font-family="Helvetica,sans-Serif" font-size="10.00">StaticPageHandler.cpp</text>
</a>
</g>
</g>
<!-- Node13&#45;&gt;Node17 -->
<g id="edge23_Node000013_Node000017" class="edge">
<title>Node13&#45;&gt;Node17</title>
<g id="a_edge23_Node000013_Node000017"><a xlink:title=" ">
<path fill="none" stroke="#63b8ff" d="M729.91,-106.03C753.03,-96.23 784.63,-82.83 805.05,-74.17"/>
<polygon fill="#63b8ff" stroke="#63b8ff" points="728.42,-102.86 720.58,-109.98 731.16,-109.3 728.42,-102.86"/>
</a>
</g>
</g>
</g>
</svg>
