<?xml version="1.0" encoding="UTF-8" standalone="no"?>
<!DOCTYPE svg PUBLIC "-//W3C//DTD SVG 1.1//EN"
 "http://www.w3.org/Graphics/SVG/1.1/DTD/svg11.dtd">
<!-- Generated by graphviz version 2.43.0 (0)
 -->
<!-- Title: trim Pages: 1 -->
<svg width="122pt" height="64pt"
 viewBox="0.00 0.00 122.00 64.00" xmlns="http://www.w3.org/2000/svg" xmlns:xlink="http://www.w3.org/1999/xlink">
<g id="graph0" class="graph" transform="scale(1 1) rotate(0) translate(4 60)">
<title>trim</title>
<!-- Node1 -->
<g id="Node000001" class="node">
<title>Node1</title>
<g id="a_Node000001"><a xlink:title="Removes leading and trailing whitespace characters from a string.">
<polygon fill="#999999" stroke="#666666" points="37,-37 0,-37 0,-18 37,-18 37,-37"/>
<text text-anchor="middle" x="18.5" y="-25" font-family="Helvetica,sans-Serif" font-size="10.00">trim</text>
</a>
</g>
</g>
<!-- Node2 -->
<g id="Node000002" class="node">
<title>Node2</title>
<g id="a_Node000002"><a xlink:href="string__utils_8hpp.html#aaead76ef6abc119bc66f6ecdedfcb295" target="_top" xlink:title="Removes leading whitespace characters from a string.">
<polygon fill="white" stroke="#666666" points="114,-56 73,-56 73,-37 114,-37 114,-56"/>
<text text-anchor="middle" x="93.5" y="-44" font-family="Helvetica,sans-Serif" font-size="10.00">lTrim</text>
</a>
</g>
</g>
<!-- Node1&#45;&gt;Node2 -->
<g id="edge1_Node000001_Node000002" class="edge">
<title>Node1&#45;&gt;Node2</title>
<g id="a_edge1_Node000001_Node000002"><a xlink:title=" ">
<path fill="none" stroke="#63b8ff" d="M37.17,-32.1C44.94,-34.12 54.26,-36.55 63.03,-38.83"/>
<polygon fill="#63b8ff" stroke="#63b8ff" points="62.38,-42.28 72.94,-41.41 64.14,-35.5 62.38,-42.28"/>
</a>
</g>
</g>
<!-- Node3 -->
<g id="Node000003" class="node">
<title>Node3</title>
<g id="a_Node000003"><a xlink:href="string__utils_8hpp.html#adde35d1801d4d11cacb9a39124e8e96b" target="_top" xlink:title="Removes trailing whitespace characters from a string.">
<polygon fill="white" stroke="#666666" points="114,-19 73,-19 73,0 114,0 114,-19"/>
<text text-anchor="middle" x="93.5" y="-7" font-family="Helvetica,sans-Serif" font-size="10.00">rTrim</text>
</a>
</g>
</g>
<!-- Node1&#45;&gt;Node3 -->
<g id="edge2_Node000001_Node000003" class="edge">
<title>Node1&#45;&gt;Node3</title>
<g id="a_edge2_Node000001_Node000003"><a xlink:title=" ">
<path fill="none" stroke="#63b8ff" d="M37.17,-23.14C44.94,-21.23 54.26,-18.93 63.03,-16.77"/>
<polygon fill="#63b8ff" stroke="#63b8ff" points="64.07,-20.12 72.94,-14.32 62.39,-13.32 64.07,-20.12"/>
</a>
</g>
</g>
</g>
</svg>
