<?xml version="1.0" encoding="UTF-8" standalone="no"?>
<!DOCTYPE svg PUBLIC "-//W3C//DTD SVG 1.1//EN"
 "http://www.w3.org/Graphics/SVG/1.1/DTD/svg11.dtd">
<!-- Generated by graphviz version 2.43.0 (0)
 -->
<!-- Title: rTrim Pages: 1 -->
<svg width="1157pt" height="76pt"
 viewBox="0.00 0.00 1157.00 75.50" xmlns="http://www.w3.org/2000/svg" xmlns:xlink="http://www.w3.org/1999/xlink">
<g id="graph0" class="graph" transform="scale(1 1) rotate(0) translate(4 71.5)">
<title>rTrim</title>
<!-- Node1 -->
<g id="Node000001" class="node">
<title>Node1</title>
<g id="a_Node000001"><a xlink:title="Removes trailing whitespace characters from a string.">
<polygon fill="#999999" stroke="#666666" points="1149,-40 1108,-40 1108,-21 1149,-21 1149,-40"/>
<text text-anchor="middle" x="1128.5" y="-28" font-family="Helvetica,sans-Serif" font-size="10.00">rTrim</text>
</a>
</g>
</g>
<!-- Node2 -->
<g id="Node000002" class="node">
<title>Node2</title>
<g id="a_Node000002"><a xlink:href="string__utils_8hpp.html#a5a01f705cc7b4a7317a57f6bf41aef25" target="_top" xlink:title="Removes leading and trailing whitespace characters from a string.">
<polygon fill="white" stroke="#666666" points="1072,-40 1035,-40 1035,-21 1072,-21 1072,-40"/>
<text text-anchor="middle" x="1053.5" y="-28" font-family="Helvetica,sans-Serif" font-size="10.00">trim</text>
</a>
</g>
</g>
<!-- Node1&#45;&gt;Node2 -->
<g id="edge1_Node000001_Node000002" class="edge">
<title>Node1&#45;&gt;Node2</title>
<g id="a_edge1_Node000001_Node000002"><a xlink:title=" ">
<path fill="none" stroke="#63b8ff" d="M1097.73,-30.5C1089.03,-30.5 1079.8,-30.5 1072.12,-30.5"/>
<polygon fill="#63b8ff" stroke="#63b8ff" points="1097.94,-34 1107.94,-30.5 1097.94,-27 1097.94,-34"/>
</a>
</g>
</g>
<!-- Node3 -->
<g id="Node000003" class="node">
<title>Node3</title>
<g id="a_Node000003"><a xlink:href="classResponseBuilder.html#a0f3257a6db27bcd3befa5005cc7cdfa0" target="_top" xlink:title="Processes CGI output and builds an HTTP response from it.">
<polygon fill="white" stroke="#666666" points="999,-67.5 846,-67.5 846,-37.5 999,-37.5 999,-67.5"/>
<text text-anchor="start" x="854" y="-55.5" font-family="Helvetica,sans-Serif" font-size="10.00">ResponseBuilder::handleCgi</text>
<text text-anchor="middle" x="922.5" y="-44.5" font-family="Helvetica,sans-Serif" font-size="10.00">Output</text>
</a>
</g>
</g>
<!-- Node2&#45;&gt;Node3 -->
<g id="edge2_Node000002_Node000003" class="edge">
<title>Node2&#45;&gt;Node3</title>
<g id="a_edge2_Node000002_Node000003"><a xlink:title=" ">
<path fill="none" stroke="#63b8ff" d="M1024.96,-35.2C1017.17,-36.53 1008.3,-38.04 999.11,-39.6"/>
<polygon fill="#63b8ff" stroke="#63b8ff" points="1025.56,-38.64 1034.83,-33.51 1024.39,-31.74 1025.56,-38.64"/>
</a>
</g>
</g>
<!-- Node7 -->
<g id="Node000007" class="node">
<title>Node7</title>
<g id="a_Node000007"><a xlink:href="classRequestParse.html#ac3dc2d89d0e245ac752b5327f64bb70d" target="_top" xlink:title="Parses individual HTTP header lines and updates metadata.">
<polygon fill="white" stroke="#666666" points="986.5,-19 858.5,-19 858.5,0 986.5,0 986.5,-19"/>
<text text-anchor="middle" x="922.5" y="-7" font-family="Helvetica,sans-Serif" font-size="10.00">RequestParse::headers</text>
</a>
</g>
</g>
<!-- Node2&#45;&gt;Node7 -->
<g id="edge6_Node000002_Node000007" class="edge">
<title>Node2&#45;&gt;Node7</title>
<g id="a_edge6_Node000002_Node000007"><a xlink:title=" ">
<path fill="none" stroke="#63b8ff" d="M1024.63,-25.96C1012.13,-23.93 996.88,-21.45 982.06,-19.03"/>
<polygon fill="#63b8ff" stroke="#63b8ff" points="1024.4,-29.47 1034.83,-27.62 1025.53,-22.56 1024.4,-29.47"/>
</a>
</g>
</g>
<!-- Node4 -->
<g id="Node000004" class="node">
<title>Node4</title>
<g id="a_Node000004"><a xlink:href="classWebServer.html#a7667bc8a87db8f9987a5e80da9c4cd37" target="_top" xlink:title="Reads CGI process output and assembles it into the client buffer.">
<polygon fill="white" stroke="#666666" points="592,-61 422,-61 422,-42 592,-42 592,-61"/>
<text text-anchor="middle" x="507" y="-49" font-family="Helvetica,sans-Serif" font-size="10.00">WebServer::handleCgiReadable</text>
</a>
</g>
</g>
<!-- Node3&#45;&gt;Node4 -->
<g id="edge3_Node000003_Node000004" class="edge">
<title>Node3&#45;&gt;Node4</title>
<g id="a_edge3_Node000003_Node000004"><a xlink:title=" ">
<path fill="none" stroke="#63b8ff" d="M835.35,-52.29C763.97,-52.12 663.11,-51.88 592.26,-51.7"/>
<polygon fill="#63b8ff" stroke="#63b8ff" points="835.65,-55.79 845.66,-52.32 835.67,-48.79 835.65,-55.79"/>
</a>
</g>
</g>
<!-- Node5 -->
<g id="Node000005" class="node">
<title>Node5</title>
<g id="a_Node000005"><a xlink:href="classWebServer.html#af39709e3744077e019aa76555f03a42e" target="_top" xlink:title="Main event loop — monitors sockets, dispatches requests, and handles responses.">
<polygon fill="white" stroke="#666666" points="199,-42 77,-42 77,-23 199,-23 199,-42"/>
<text text-anchor="middle" x="138" y="-30" font-family="Helvetica,sans-Serif" font-size="10.00">WebServer::runServer</text>
</a>
</g>
</g>
<!-- Node4&#45;&gt;Node5 -->
<g id="edge4_Node000004_Node000005" class="edge">
<title>Node4&#45;&gt;Node5</title>
<g id="a_edge4_Node000004_Node000005"><a xlink:title=" ">
<path fill="none" stroke="#63b8ff" d="M411.66,-46.62C344.66,-43.15 256.71,-38.59 199.06,-35.61"/>
<polygon fill="#63b8ff" stroke="#63b8ff" points="411.64,-50.12 421.8,-47.14 412,-43.13 411.64,-50.12"/>
</a>
</g>
</g>
<!-- Node6 -->
<g id="Node000006" class="node">
<title>Node6</title>
<g id="a_Node000006"><a xlink:href="main_8cpp.html#a3c04138a5bfe5d72780bb7e82a18e627" target="_top" xlink:title="Entry point of the Webservinho web server.">
<polygon fill="white" stroke="#666666" points="41,-42 0,-42 0,-23 41,-23 41,-42"/>
<text text-anchor="middle" x="20.5" y="-30" font-family="Helvetica,sans-Serif" font-size="10.00">main</text>
</a>
</g>
</g>
<!-- Node5&#45;&gt;Node6 -->
<g id="edge5_Node000005_Node000006" class="edge">
<title>Node5&#45;&gt;Node6</title>
<g id="a_edge5_Node000005_Node000006"><a xlink:title=" ">
<path fill="none" stroke="#63b8ff" d="M66.66,-32.5C57.35,-32.5 48.51,-32.5 41.15,-32.5"/>
<polygon fill="#63b8ff" stroke="#63b8ff" points="66.88,-36 76.88,-32.5 66.88,-29 66.88,-36"/>
</a>
</g>
</g>
<!-- Node8 -->
<g id="Node000008" class="node">
<title>Node8</title>
<g id="a_Node000008"><a xlink:href="classRequestParse.html#a5f2f35f5815fbb977cde05b19af41687" target="_top" xlink:title="Parses and processes raw HTTP request data incrementally.">
<polygon fill="white" stroke="#666666" points="810,-21 628,-21 628,-2 810,-2 810,-21"/>
<text text-anchor="middle" x="719" y="-9" font-family="Helvetica,sans-Serif" font-size="10.00">RequestParse::handleRawRequest</text>
</a>
</g>
</g>
<!-- Node7&#45;&gt;Node8 -->
<g id="edge7_Node000007_Node000008" class="edge">
<title>Node7&#45;&gt;Node8</title>
<g id="a_edge7_Node000007_Node000008"><a xlink:title=" ">
<path fill="none" stroke="#63b8ff" d="M848.12,-10.23C835.83,-10.35 822.95,-10.48 810.28,-10.6"/>
<polygon fill="#63b8ff" stroke="#63b8ff" points="848.33,-13.73 858.3,-10.13 848.26,-6.73 848.33,-13.73"/>
</a>
</g>
</g>
<!-- Node9 -->
<g id="Node000009" class="node">
<title>Node9</title>
<g id="a_Node000009"><a xlink:href="classClientConnection.html#a835586ce27b3c3598394bde3fff14211" target="_top" xlink:title="Receives incoming data from the client socket.">
<polygon fill="white" stroke="#666666" points="582,-22 432,-22 432,-3 582,-3 582,-22"/>
<text text-anchor="middle" x="507" y="-10" font-family="Helvetica,sans-Serif" font-size="10.00">ClientConnection::recvData</text>
</a>
</g>
</g>
<!-- Node8&#45;&gt;Node9 -->
<g id="edge8_Node000008_Node000009" class="edge">
<title>Node8&#45;&gt;Node9</title>
<g id="a_edge8_Node000008_Node000009"><a xlink:title=" ">
<path fill="none" stroke="#63b8ff" d="M617.68,-11.98C605.69,-12.03 593.61,-12.09 582.08,-12.15"/>
<polygon fill="#63b8ff" stroke="#63b8ff" points="617.74,-15.48 627.72,-11.93 617.71,-8.48 617.74,-15.48"/>
</a>
</g>
</g>
<!-- Node10 -->
<g id="Node000010" class="node">
<title>Node10</title>
<g id="a_Node000010"><a xlink:href="classWebServer.html#a8cbf37c0a840305ce15e8648566c9ce4" target="_top" xlink:title="Handles incoming data from a connected client.">
<polygon fill="white" stroke="#666666" points="386,-23 235,-23 235,-4 386,-4 386,-23"/>
<text text-anchor="middle" x="310.5" y="-11" font-family="Helvetica,sans-Serif" font-size="10.00">WebServer::receiveRequest</text>
</a>
</g>
</g>
<!-- Node9&#45;&gt;Node10 -->
<g id="edge9_Node000009_Node000010" class="edge">
<title>Node9&#45;&gt;Node10</title>
<g id="a_edge9_Node000009_Node000010"><a xlink:title=" ">
<path fill="none" stroke="#63b8ff" d="M421.59,-12.93C409.76,-12.99 397.66,-13.06 386.03,-13.12"/>
<polygon fill="#63b8ff" stroke="#63b8ff" points="421.93,-16.43 431.91,-12.88 421.9,-9.43 421.93,-16.43"/>
</a>
</g>
</g>
<!-- Node10&#45;&gt;Node5 -->
<g id="edge10_Node000010_Node000005" class="edge">
<title>Node10&#45;&gt;Node5</title>
<g id="a_edge10_Node000010_Node000005"><a xlink:title=" ">
<path fill="none" stroke="#63b8ff" d="M224.63,-22.96C216.02,-23.92 207.4,-24.88 199.13,-25.8"/>
<polygon fill="#63b8ff" stroke="#63b8ff" points="225.17,-26.42 234.72,-21.83 224.39,-19.46 225.17,-26.42"/>
</a>
</g>
</g>
</g>
</svg>
