<?xml version="1.0" encoding="UTF-8" standalone="no"?>
<!DOCTYPE svg PUBLIC "-//W3C//DTD SVG 1.1//EN"
 "http://www.w3.org/Graphics/SVG/1.1/DTD/svg11.dtd">
<!-- Generated by graphviz version 2.43.0 (0)
 -->
<!-- Title: toLower Pages: 1 -->
<svg width="1266pt" height="235pt"
 viewBox="0.00 0.00 1266.00 234.50" xmlns="http://www.w3.org/2000/svg" xmlns:xlink="http://www.w3.org/1999/xlink">
<g id="graph0" class="graph" transform="scale(1 1) rotate(0) translate(4 230.5)">
<title>toLower</title>
<!-- Node1 -->
<g id="Node000001" class="node">
<title>Node1</title>
<g id="a_Node000001"><a xlink:title="Converts a string to lowercase.">
<polygon fill="#999999" stroke="#666666" points="1258,-133.5 1202,-133.5 1202,-114.5 1258,-114.5 1258,-133.5"/>
<text text-anchor="middle" x="1230" y="-121.5" font-family="Helvetica,sans-Serif" font-size="10.00">toLower</text>
</a>
</g>
</g>
<!-- Node2 -->
<g id="Node000002" class="node">
<title>Node2</title>
<g id="a_Node000002"><a xlink:href="classStaticPageHandler.html#a22995910cb4920dbb05d537a3991535e" target="_top" xlink:title="Determines the MIME type based on the file extension.">
<polygon fill="white" stroke="#666666" points="1144,-78 1032,-78 1032,-48 1144,-48 1144,-78"/>
<text text-anchor="start" x="1040" y="-66" font-family="Helvetica,sans-Serif" font-size="10.00">StaticPageHandler::</text>
<text text-anchor="middle" x="1088" y="-55" font-family="Helvetica,sans-Serif" font-size="10.00">detectMimeType</text>
</a>
</g>
</g>
<!-- Node1&#45;&gt;Node2 -->
<g id="edge1_Node000001_Node000002" class="edge">
<title>Node1&#45;&gt;Node2</title>
<g id="a_edge1_Node000001_Node000002"><a xlink:title=" ">
<path fill="none" stroke="#63b8ff" d="M1206.09,-108.83C1194.42,-101.55 1179.82,-93.12 1166,-87 1158.7,-83.77 1150.84,-80.79 1143.02,-78.11"/>
<polygon fill="#63b8ff" stroke="#63b8ff" points="1204.43,-111.92 1214.74,-114.34 1208.19,-106.02 1204.43,-111.92"/>
</a>
</g>
</g>
<!-- Node8 -->
<g id="Node000008" class="node">
<title>Node8</title>
<g id="a_Node000008"><a xlink:href="classHttpRequest.html#a610ff6d9fe8d0ad21ea2c48c9ee52fca" target="_top" xlink:title="Retrieves a header value by name (case&#45;insensitive).">
<polygon fill="white" stroke="#666666" points="1155,-115.5 1021,-115.5 1021,-96.5 1155,-96.5 1155,-115.5"/>
<text text-anchor="middle" x="1088" y="-103.5" font-family="Helvetica,sans-Serif" font-size="10.00">HttpRequest::getHeader</text>
</a>
</g>
</g>
<!-- Node1&#45;&gt;Node8 -->
<g id="edge7_Node000001_Node000008" class="edge">
<title>Node1&#45;&gt;Node8</title>
<g id="a_edge7_Node000001_Node000008"><a xlink:title=" ">
<path fill="none" stroke="#63b8ff" d="M1191.42,-119.17C1180.22,-117.73 1167.6,-116.11 1155.14,-114.5"/>
<polygon fill="#63b8ff" stroke="#63b8ff" points="1191.31,-122.68 1201.67,-120.49 1192.2,-115.74 1191.31,-122.68"/>
</a>
</g>
</g>
<!-- Node12 -->
<g id="Node000012" class="node">
<title>Node12</title>
<g id="a_Node000012"><a xlink:href="classResponseBuilder.html#a0f3257a6db27bcd3befa5005cc7cdfa0" target="_top" xlink:title="Processes CGI output and builds an HTTP response from it.">
<polygon fill="white" stroke="#666666" points="1164.5,-30 1011.5,-30 1011.5,0 1164.5,0 1164.5,-30"/>
<text text-anchor="start" x="1019.5" y="-18" font-family="Helvetica,sans-Serif" font-size="10.00">ResponseBuilder::handleCgi</text>
<text text-anchor="middle" x="1088" y="-7" font-family="Helvetica,sans-Serif" font-size="10.00">Output</text>
</a>
</g>
</g>
<!-- Node1&#45;&gt;Node12 -->
<g id="edge13_Node000001_Node000012" class="edge">
<title>Node1&#45;&gt;Node12</title>
<g id="a_edge13_Node000001_Node000012"><a xlink:title=" ">
<path fill="none" stroke="#63b8ff" d="M1219.69,-105.24C1209.2,-85.93 1190.36,-56.3 1166,-39 1161.21,-35.59 1155.91,-32.66 1150.41,-30.14"/>
<polygon fill="#63b8ff" stroke="#63b8ff" points="1216.68,-107.03 1224.41,-114.27 1222.89,-103.79 1216.68,-107.03"/>
</a>
</g>
</g>
<!-- Node14 -->
<g id="Node000014" class="node">
<title>Node14</title>
<g id="a_Node000014"><a xlink:href="classHttpRequest.html#a007c4ce756bc2d46f9b4b6587578a67e" target="_top" xlink:title="Checks whether a header with the given key exists.">
<polygon fill="white" stroke="#666666" points="1156,-226.5 1020,-226.5 1020,-207.5 1156,-207.5 1156,-226.5"/>
<text text-anchor="middle" x="1088" y="-214.5" font-family="Helvetica,sans-Serif" font-size="10.00">HttpRequest::hasHeader</text>
</a>
</g>
</g>
<!-- Node1&#45;&gt;Node14 -->
<g id="edge16_Node000001_Node000014" class="edge">
<title>Node1&#45;&gt;Node14</title>
<g id="a_edge16_Node000001_Node000014"><a xlink:title=" ">
<path fill="none" stroke="#63b8ff" d="M1218.57,-142.17C1207.67,-159.46 1188.98,-184.88 1166,-199 1160.39,-202.45 1154.17,-205.24 1147.77,-207.49"/>
<polygon fill="#63b8ff" stroke="#63b8ff" points="1221.61,-143.89 1223.79,-133.52 1215.62,-140.27 1221.61,-143.89"/>
</a>
</g>
</g>
<!-- Node17 -->
<g id="Node000017" class="node">
<title>Node17</title>
<g id="a_Node000017"><a xlink:href="classRequestParse.html#ac3dc2d89d0e245ac752b5327f64bb70d" target="_top" xlink:title="Parses individual HTTP header lines and updates metadata.">
<polygon fill="white" stroke="#666666" points="1152,-189.5 1024,-189.5 1024,-170.5 1152,-170.5 1152,-189.5"/>
<text text-anchor="middle" x="1088" y="-177.5" font-family="Helvetica,sans-Serif" font-size="10.00">RequestParse::headers</text>
</a>
</g>
</g>
<!-- Node1&#45;&gt;Node17 -->
<g id="edge20_Node000001_Node000017" class="edge">
<title>Node1&#45;&gt;Node17</title>
<g id="a_edge20_Node000001_Node000017"><a xlink:title=" ">
<path fill="none" stroke="#63b8ff" d="M1207.36,-139.37C1195.6,-147.12 1180.52,-156.1 1166,-162 1157.86,-165.31 1148.98,-168.09 1140.23,-170.4"/>
<polygon fill="#63b8ff" stroke="#63b8ff" points="1209.33,-142.27 1215.64,-133.76 1205.4,-136.47 1209.33,-142.27"/>
</a>
</g>
</g>
<!-- Node18 -->
<g id="Node000018" class="node">
<title>Node18</title>
<g id="a_Node000018"><a xlink:href="classHttpRequest.html#a3e9835bda97a6ba770ad61f4bd936dff" target="_top" xlink:title="Removes a header from the request by name.">
<polygon fill="white" stroke="#666666" points="1166,-152.5 1010,-152.5 1010,-133.5 1166,-133.5 1166,-152.5"/>
<text text-anchor="middle" x="1088" y="-140.5" font-family="Helvetica,sans-Serif" font-size="10.00">HttpRequest::removeHeader</text>
</a>
</g>
</g>
<!-- Node1&#45;&gt;Node18 -->
<g id="edge22_Node000001_Node000018" class="edge">
<title>Node1&#45;&gt;Node18</title>
<g id="a_edge22_Node000001_Node000018"><a xlink:title=" ">
<path fill="none" stroke="#63b8ff" d="M1191.68,-129.06C1181.64,-130.43 1170.45,-131.95 1159.25,-133.47"/>
<polygon fill="#63b8ff" stroke="#63b8ff" points="1192.24,-132.52 1201.67,-127.71 1191.29,-125.59 1192.24,-132.52"/>
</a>
</g>
</g>
<!-- Node3 -->
<g id="Node000003" class="node">
<title>Node3</title>
<g id="a_Node000003"><a xlink:href="classStaticPageHandler.html#a701db169c979ef5cfebc72f6c160fb32" target="_top" xlink:title="Handles serving static files from disk.">
<polygon fill="white" stroke="#666666" points="748,-76 636,-76 636,-46 748,-46 748,-76"/>
<text text-anchor="start" x="644" y="-64" font-family="Helvetica,sans-Serif" font-size="10.00">StaticPageHandler::</text>
<text text-anchor="middle" x="692" y="-53" font-family="Helvetica,sans-Serif" font-size="10.00">handle</text>
</a>
</g>
</g>
<!-- Node2&#45;&gt;Node3 -->
<g id="edge2_Node000002_Node000003" class="edge">
<title>Node2&#45;&gt;Node3</title>
<g id="a_edge2_Node000002_Node000003"><a xlink:title=" ">
<path fill="none" stroke="#63b8ff" d="M1021.34,-62.67C944.84,-62.28 819.82,-61.64 748.14,-61.28"/>
<polygon fill="#63b8ff" stroke="#63b8ff" points="1021.78,-66.17 1031.8,-62.72 1021.82,-59.17 1021.78,-66.17"/>
</a>
</g>
</g>
<!-- Node4 -->
<g id="Node000004" class="node">
<title>Node4</title>
<g id="a_Node000004"><a xlink:href="classDispatcher.html#a13c8a2fd90033adf9788c8774c3f0f47" target="_top" xlink:title="Central dispatch routine that delegates HTTP requests to the appropriate handler.">
<polygon fill="white" stroke="#666666" points="565,-113.5 449,-113.5 449,-94.5 565,-94.5 565,-113.5"/>
<text text-anchor="middle" x="507" y="-101.5" font-family="Helvetica,sans-Serif" font-size="10.00">Dispatcher::dispatch</text>
</a>
</g>
</g>
<!-- Node3&#45;&gt;Node4 -->
<g id="edge3_Node000003_Node000004" class="edge">
<title>Node3&#45;&gt;Node4</title>
<g id="a_edge3_Node000003_Node000004"><a xlink:title=" ">
<path fill="none" stroke="#63b8ff" d="M625.56,-76.38C599.91,-82.4 571.27,-89.13 548.68,-94.44"/>
<polygon fill="#63b8ff" stroke="#63b8ff" points="626.66,-79.71 635.6,-74.02 625.06,-72.9 626.66,-79.71"/>
</a>
</g>
</g>
<!-- Node5 -->
<g id="Node000005" class="node">
<title>Node5</title>
<g id="a_Node000005"><a xlink:href="classWebServer.html#a8cbf37c0a840305ce15e8648566c9ce4" target="_top" xlink:title="Handles incoming data from a connected client.">
<polygon fill="white" stroke="#666666" points="386,-113.5 235,-113.5 235,-94.5 386,-94.5 386,-113.5"/>
<text text-anchor="middle" x="310.5" y="-101.5" font-family="Helvetica,sans-Serif" font-size="10.00">WebServer::receiveRequest</text>
</a>
</g>
</g>
<!-- Node4&#45;&gt;Node5 -->
<g id="edge4_Node000004_Node000005" class="edge">
<title>Node4&#45;&gt;Node5</title>
<g id="a_edge4_Node000004_Node000005"><a xlink:title=" ">
<path fill="none" stroke="#63b8ff" d="M438.63,-104C421.73,-104 403.5,-104 386.26,-104"/>
<polygon fill="#63b8ff" stroke="#63b8ff" points="438.96,-107.5 448.96,-104 438.96,-100.5 438.96,-107.5"/>
</a>
</g>
</g>
<!-- Node6 -->
<g id="Node000006" class="node">
<title>Node6</title>
<g id="a_Node000006"><a xlink:href="classWebServer.html#af39709e3744077e019aa76555f03a42e" target="_top" xlink:title="Main event loop — monitors sockets, dispatches requests, and handles responses.">
<polygon fill="white" stroke="#666666" points="199,-82.5 77,-82.5 77,-63.5 199,-63.5 199,-82.5"/>
<text text-anchor="middle" x="138" y="-70.5" font-family="Helvetica,sans-Serif" font-size="10.00">WebServer::runServer</text>
</a>
</g>
</g>
<!-- Node5&#45;&gt;Node6 -->
<g id="edge5_Node000005_Node000006" class="edge">
<title>Node5&#45;&gt;Node6</title>
<g id="a_edge5_Node000005_Node000006"><a xlink:title=" ">
<path fill="none" stroke="#63b8ff" d="M246.98,-92.63C228.71,-89.31 208.94,-85.72 191.37,-82.52"/>
<polygon fill="#63b8ff" stroke="#63b8ff" points="246.49,-96.1 256.95,-94.45 247.74,-89.21 246.49,-96.1"/>
</a>
</g>
</g>
<!-- Node7 -->
<g id="Node000007" class="node">
<title>Node7</title>
<g id="a_Node000007"><a xlink:href="main_8cpp.html#a3c04138a5bfe5d72780bb7e82a18e627" target="_top" xlink:title="Entry point of the Webservinho web server.">
<polygon fill="white" stroke="#666666" points="41,-82.5 0,-82.5 0,-63.5 41,-63.5 41,-82.5"/>
<text text-anchor="middle" x="20.5" y="-70.5" font-family="Helvetica,sans-Serif" font-size="10.00">main</text>
</a>
</g>
</g>
<!-- Node6&#45;&gt;Node7 -->
<g id="edge6_Node000006_Node000007" class="edge">
<title>Node6&#45;&gt;Node7</title>
<g id="a_edge6_Node000006_Node000007"><a xlink:title=" ">
<path fill="none" stroke="#63b8ff" d="M66.66,-73C57.35,-73 48.51,-73 41.15,-73"/>
<polygon fill="#63b8ff" stroke="#63b8ff" points="66.88,-76.5 76.88,-73 66.88,-69.5 66.88,-76.5"/>
</a>
</g>
</g>
<!-- Node9 -->
<g id="Node000009" class="node">
<title>Node9</title>
<g id="a_Node000009"><a xlink:href="classCgiHandler.html#a61c5a0066d14988001792da45dba2207" target="_top" xlink:title="Builds the CGI environment variables array (envp).">
<polygon fill="white" stroke="#666666" points="945.5,-151.5 820.5,-151.5 820.5,-132.5 945.5,-132.5 945.5,-151.5"/>
<text text-anchor="middle" x="883" y="-139.5" font-family="Helvetica,sans-Serif" font-size="10.00">CgiHandler::buildEnvp</text>
</a>
</g>
</g>
<!-- Node8&#45;&gt;Node9 -->
<g id="edge8_Node000008_Node000009" class="edge">
<title>Node8&#45;&gt;Node9</title>
<g id="a_edge8_Node000008_Node000009"><a xlink:title=" ">
<path fill="none" stroke="#63b8ff" d="M1023.49,-117.26C996.02,-122.13 964.2,-127.78 937.9,-132.44"/>
<polygon fill="#63b8ff" stroke="#63b8ff" points="1024.16,-120.7 1033.4,-115.51 1022.94,-113.81 1024.16,-120.7"/>
</a>
</g>
</g>
<!-- Node11 -->
<g id="Node000011" class="node">
<title>Node11</title>
<g id="a_Node000011"><a xlink:href="classUploadHandler.html#ae9d6fd83c1ba35b23829b8f4f619127d" target="_top" xlink:title="Entry point for handling file uploads.">
<polygon fill="white" stroke="#666666" points="947,-113.5 819,-113.5 819,-94.5 947,-94.5 947,-113.5"/>
<text text-anchor="middle" x="883" y="-101.5" font-family="Helvetica,sans-Serif" font-size="10.00">UploadHandler::handle</text>
</a>
</g>
</g>
<!-- Node8&#45;&gt;Node11 -->
<g id="edge11_Node000008_Node000011" class="edge">
<title>Node8&#45;&gt;Node11</title>
<g id="a_edge11_Node000008_Node000011"><a xlink:title=" ">
<path fill="none" stroke="#63b8ff" d="M1010.7,-105.25C989.81,-105.04 967.41,-104.82 947.34,-104.62"/>
<polygon fill="#63b8ff" stroke="#63b8ff" points="1010.78,-108.75 1020.81,-105.35 1010.85,-101.75 1010.78,-108.75"/>
</a>
</g>
</g>
<!-- Node10 -->
<g id="Node000010" class="node">
<title>Node10</title>
<g id="a_Node000010"><a xlink:href="classCgiHandler.html#aa5b570b370a65926aaedd54b61350e58" target="_top" xlink:title="Starts an asynchronous CGI execution process.">
<polygon fill="white" stroke="#666666" points="756,-151.5 628,-151.5 628,-132.5 756,-132.5 756,-151.5"/>
<text text-anchor="middle" x="692" y="-139.5" font-family="Helvetica,sans-Serif" font-size="10.00">CgiHandler::startAsync</text>
</a>
</g>
</g>
<!-- Node9&#45;&gt;Node10 -->
<g id="edge9_Node000009_Node000010" class="edge">
<title>Node9&#45;&gt;Node10</title>
<g id="a_edge9_Node000009_Node000010"><a xlink:title=" ">
<path fill="none" stroke="#63b8ff" d="M810.08,-142C792.33,-142 773.46,-142 756.16,-142"/>
<polygon fill="#63b8ff" stroke="#63b8ff" points="810.38,-145.5 820.38,-142 810.38,-138.5 810.38,-145.5"/>
</a>
</g>
</g>
<!-- Node10&#45;&gt;Node4 -->
<g id="edge10_Node000010_Node000004" class="edge">
<title>Node10&#45;&gt;Node4</title>
<g id="a_edge10_Node000010_Node000004"><a xlink:title=" ">
<path fill="none" stroke="#63b8ff" d="M634.75,-130.32C608.79,-124.93 578.38,-118.61 553.85,-113.52"/>
<polygon fill="#63b8ff" stroke="#63b8ff" points="634.32,-133.8 644.82,-132.41 635.74,-126.95 634.32,-133.8"/>
</a>
</g>
</g>
<!-- Node11&#45;&gt;Node4 -->
<g id="edge12_Node000011_Node000004" class="edge">
<title>Node11&#45;&gt;Node4</title>
<g id="a_edge12_Node000011_Node000004"><a xlink:title=" ">
<path fill="none" stroke="#63b8ff" d="M808.72,-104C737.37,-104 630.41,-104 565.14,-104"/>
<polygon fill="#63b8ff" stroke="#63b8ff" points="808.98,-107.5 818.98,-104 808.98,-100.5 808.98,-107.5"/>
</a>
</g>
</g>
<!-- Node13 -->
<g id="Node000013" class="node">
<title>Node13</title>
<g id="a_Node000013"><a xlink:href="classWebServer.html#a7667bc8a87db8f9987a5e80da9c4cd37" target="_top" xlink:title="Reads CGI process output and assembles it into the client buffer.">
<polygon fill="white" stroke="#666666" points="592,-39.5 422,-39.5 422,-20.5 592,-20.5 592,-39.5"/>
<text text-anchor="middle" x="507" y="-27.5" font-family="Helvetica,sans-Serif" font-size="10.00">WebServer::handleCgiReadable</text>
</a>
</g>
</g>
<!-- Node12&#45;&gt;Node13 -->
<g id="edge14_Node000012_Node000013" class="edge">
<title>Node12&#45;&gt;Node13</title>
<g id="a_edge14_Node000012_Node000013"><a xlink:title=" ">
<path fill="none" stroke="#63b8ff" d="M1001.24,-17.22C891.18,-20.07 701.44,-24.99 592.16,-27.82"/>
<polygon fill="#63b8ff" stroke="#63b8ff" points="1001.4,-20.72 1011.31,-16.96 1001.22,-13.72 1001.4,-20.72"/>
</a>
</g>
</g>
<!-- Node13&#45;&gt;Node6 -->
<g id="edge15_Node000013_Node000006" class="edge">
<title>Node13&#45;&gt;Node6</title>
<g id="a_edge15_Node000013_Node000006"><a xlink:title=" ">
<path fill="none" stroke="#63b8ff" d="M414.37,-40.74C347.07,-48.62 257.55,-59.11 199.12,-65.96"/>
<polygon fill="#63b8ff" stroke="#63b8ff" points="415.03,-44.18 424.55,-39.54 414.21,-37.23 415.03,-44.18"/>
</a>
</g>
</g>
<!-- Node15 -->
<g id="Node000015" class="node">
<title>Node15</title>
<g id="a_Node000015"><a xlink:href="classRequestParse.html#a5f2f35f5815fbb977cde05b19af41687" target="_top" xlink:title="Parses and processes raw HTTP request data incrementally.">
<polygon fill="white" stroke="#666666" points="974,-189.5 792,-189.5 792,-170.5 974,-170.5 974,-189.5"/>
<text text-anchor="middle" x="883" y="-177.5" font-family="Helvetica,sans-Serif" font-size="10.00">RequestParse::handleRawRequest</text>
</a>
</g>
</g>
<!-- Node14&#45;&gt;Node15 -->
<g id="edge17_Node000014_Node000015" class="edge">
<title>Node14&#45;&gt;Node15</title>
<g id="a_edge17_Node000014_Node000015"><a xlink:title=" ">
<path fill="none" stroke="#63b8ff" d="M1024.56,-205.62C996.34,-200.48 963.37,-194.47 936.45,-189.56"/>
<polygon fill="#63b8ff" stroke="#63b8ff" points="1024.26,-209.12 1034.72,-207.47 1025.51,-202.24 1024.26,-209.12"/>
</a>
</g>
</g>
<!-- Node16 -->
<g id="Node000016" class="node">
<title>Node16</title>
<g id="a_Node000016"><a xlink:href="classClientConnection.html#a835586ce27b3c3598394bde3fff14211" target="_top" xlink:title="Receives incoming data from the client socket.">
<polygon fill="white" stroke="#666666" points="582,-169.5 432,-169.5 432,-150.5 582,-150.5 582,-169.5"/>
<text text-anchor="middle" x="507" y="-157.5" font-family="Helvetica,sans-Serif" font-size="10.00">ClientConnection::recvData</text>
</a>
</g>
</g>
<!-- Node15&#45;&gt;Node16 -->
<g id="edge18_Node000015_Node000016" class="edge">
<title>Node15&#45;&gt;Node16</title>
<g id="a_edge18_Node000015_Node000016"><a xlink:title=" ">
<path fill="none" stroke="#63b8ff" d="M781.62,-174.63C718.82,-171.27 639.3,-167.02 582.2,-163.97"/>
<polygon fill="#63b8ff" stroke="#63b8ff" points="781.77,-178.14 791.94,-175.18 782.14,-171.15 781.77,-178.14"/>
</a>
</g>
</g>
<!-- Node16&#45;&gt;Node5 -->
<g id="edge19_Node000016_Node000005" class="edge">
<title>Node16&#45;&gt;Node5</title>
<g id="a_edge19_Node000016_Node000005"><a xlink:title=" ">
<path fill="none" stroke="#63b8ff" d="M462.89,-147.59C427.16,-137.3 377.11,-122.89 344.5,-113.5"/>
<polygon fill="#63b8ff" stroke="#63b8ff" points="461.99,-150.97 472.56,-150.37 463.92,-144.24 461.99,-150.97"/>
</a>
</g>
</g>
<!-- Node17&#45;&gt;Node15 -->
<g id="edge21_Node000017_Node000015" class="edge">
<title>Node17&#45;&gt;Node15</title>
<g id="a_edge21_Node000017_Node000015"><a xlink:title=" ">
<path fill="none" stroke="#63b8ff" d="M1013.76,-180C1000.95,-180 987.49,-180 974.28,-180"/>
<polygon fill="#63b8ff" stroke="#63b8ff" points="1013.88,-183.5 1023.88,-180 1013.88,-176.5 1013.88,-183.5"/>
</a>
</g>
</g>
<!-- Node18&#45;&gt;Node15 -->
<g id="edge23_Node000018_Node000015" class="edge">
<title>Node18&#45;&gt;Node15</title>
<g id="a_edge23_Node000018_Node000015"><a xlink:title=" ">
<path fill="none" stroke="#63b8ff" d="M1024.56,-154.38C996.34,-159.52 963.37,-165.53 936.45,-170.44"/>
<polygon fill="#63b8ff" stroke="#63b8ff" points="1025.51,-157.76 1034.72,-152.53 1024.26,-150.88 1025.51,-157.76"/>
</a>
</g>
</g>
</g>
</svg>
