<?xml version="1.0" encoding="UTF-8" standalone="no"?>
<!DOCTYPE svg PUBLIC "-//W3C//DTD SVG 1.1//EN"
 "http://www.w3.org/Graphics/SVG/1.1/DTD/svg11.dtd">
<!-- Generated by graphviz version 2.43.0 (0)
 -->
<!-- Title: includes/utils/string_utils.hpp Pages: 1 -->
<svg width="2414pt" height="104pt"
 viewBox="0.00 0.00 2413.50 104.00" xmlns="http://www.w3.org/2000/svg" xmlns:xlink="http://www.w3.org/1999/xlink">
<g id="graph0" class="graph" transform="scale(1 1) rotate(0) translate(4 100)">
<title>includes/utils/string_utils.hpp</title>
<!-- Node1 -->
<g id="Node000001" class="node">
<title>Node1</title>
<g id="a_Node000001"><a xlink:title="Collection of inline string utility functions used across Webservinho.">
<polygon fill="#999999" stroke="#666666" points="1271,-96 1159,-96 1159,-66 1271,-66 1271,-96"/>
<text text-anchor="start" x="1167" y="-84" font-family="Helvetica,sans-Serif" font-size="10.00">includes/utils/string</text>
<text text-anchor="middle" x="1215" y="-73" font-family="Helvetica,sans-Serif" font-size="10.00">_utils.hpp</text>
</a>
</g>
</g>
<!-- Node2 -->
<g id="Node000002" class="node">
<title>Node2</title>
<g id="a_Node000002"><a xlink:href="ServerConfig_8cpp.html" target="_top" xlink:title=" ">
<polygon fill="white" stroke="#666666" points="154,-24.5 0,-24.5 0,-5.5 154,-5.5 154,-24.5"/>
<text text-anchor="middle" x="77" y="-12.5" font-family="Helvetica,sans-Serif" font-size="10.00">srcs/config/ServerConfig.cpp</text>
</a>
</g>
</g>
<!-- Node1&#45;&gt;Node2 -->
<g id="edge1_Node000001_Node000002" class="edge">
<title>Node1&#45;&gt;Node2</title>
<g id="a_edge1_Node000001_Node000002"><a xlink:title=" ">
<path fill="none" stroke="#63b8ff" d="M1148.88,-79.47C982.72,-77.57 534.38,-68.93 163,-30 150.06,-28.64 136.11,-26.62 123.29,-24.53"/>
<polygon fill="#63b8ff" stroke="#63b8ff" points="1148.91,-82.97 1158.95,-79.58 1148.99,-75.97 1148.91,-82.97"/>
</a>
</g>
</g>
<!-- Node3 -->
<g id="Node000003" class="node">
<title>Node3</title>
<g id="a_Node000003"><a xlink:href="AutoIndexHandler_8cpp.html" target="_top" xlink:title=" ">
<polygon fill="white" stroke="#666666" points="315.5,-30 172.5,-30 172.5,0 315.5,0 315.5,-30"/>
<text text-anchor="start" x="180.5" y="-18" font-family="Helvetica,sans-Serif" font-size="10.00">srcs/dispatcher/AutoIndex</text>
<text text-anchor="middle" x="244" y="-7" font-family="Helvetica,sans-Serif" font-size="10.00">Handler.cpp</text>
</a>
</g>
</g>
<!-- Node1&#45;&gt;Node3 -->
<g id="edge2_Node000001_Node000003" class="edge">
<title>Node1&#45;&gt;Node3</title>
<g id="a_edge2_Node000001_Node000003"><a xlink:title=" ">
<path fill="none" stroke="#63b8ff" d="M1148.47,-78.93C1000.06,-75.96 630.81,-65.33 324,-30 321.34,-29.69 318.63,-29.36 315.9,-28.99"/>
<polygon fill="#63b8ff" stroke="#63b8ff" points="1148.7,-82.43 1158.77,-79.13 1148.84,-75.44 1148.7,-82.43"/>
</a>
</g>
</g>
<!-- Node4 -->
<g id="Node000004" class="node">
<title>Node4</title>
<g id="a_Node000004"><a xlink:href="CgiHandler_8cpp.html" target="_top" xlink:title=" ">
<polygon fill="white" stroke="#666666" points="500.5,-24.5 333.5,-24.5 333.5,-5.5 500.5,-5.5 500.5,-24.5"/>
<text text-anchor="middle" x="417" y="-12.5" font-family="Helvetica,sans-Serif" font-size="10.00">srcs/dispatcher/CgiHandler.cpp</text>
</a>
</g>
</g>
<!-- Node1&#45;&gt;Node4 -->
<g id="edge3_Node000001_Node000004" class="edge">
<title>Node1&#45;&gt;Node4</title>
<g id="a_edge3_Node000001_Node000004"><a xlink:title=" ">
<path fill="none" stroke="#63b8ff" d="M1148.37,-77.07C1022.94,-71.15 743.3,-56.08 509,-30 495.67,-28.52 481.32,-26.52 468,-24.51"/>
<polygon fill="#63b8ff" stroke="#63b8ff" points="1148.43,-80.57 1158.58,-77.55 1148.75,-73.58 1148.43,-80.57"/>
</a>
</g>
</g>
<!-- Node5 -->
<g id="Node000005" class="node">
<title>Node5</title>
<g id="a_Node000005"><a xlink:href="Dispatcher_8cpp.html" target="_top" xlink:title=" ">
<polygon fill="white" stroke="#666666" points="683.5,-24.5 518.5,-24.5 518.5,-5.5 683.5,-5.5 683.5,-24.5"/>
<text text-anchor="middle" x="601" y="-12.5" font-family="Helvetica,sans-Serif" font-size="10.00">srcs/dispatcher/Dispatcher.cpp</text>
</a>
</g>
</g>
<!-- Node1&#45;&gt;Node5 -->
<g id="edge4_Node000001_Node000005" class="edge">
<title>Node1&#45;&gt;Node5</title>
<g id="a_edge4_Node000001_Node000005"><a xlink:title=" ">
<path fill="none" stroke="#63b8ff" d="M1148.57,-74.88C1049.12,-66.93 855.69,-50.4 692,-30 679.31,-28.42 665.67,-26.46 652.9,-24.51"/>
<polygon fill="#63b8ff" stroke="#63b8ff" points="1148.53,-78.38 1158.77,-75.69 1149.08,-71.41 1148.53,-78.38"/>
</a>
</g>
</g>
<!-- Node6 -->
<g id="Node000006" class="node">
<title>Node6</title>
<g id="a_Node000006"><a xlink:href="Router_8cpp.html" target="_top" xlink:title=" ">
<polygon fill="white" stroke="#666666" points="846.5,-24.5 701.5,-24.5 701.5,-5.5 846.5,-5.5 846.5,-24.5"/>
<text text-anchor="middle" x="774" y="-12.5" font-family="Helvetica,sans-Serif" font-size="10.00">srcs/dispatcher/Router.cpp</text>
</a>
</g>
</g>
<!-- Node1&#45;&gt;Node6 -->
<g id="edge5_Node000001_Node000006" class="edge">
<title>Node1&#45;&gt;Node6</title>
<g id="a_edge5_Node000001_Node000006"><a xlink:title=" ">
<path fill="none" stroke="#63b8ff" d="M1148.66,-71.38C1076.54,-61.87 957.95,-45.8 856,-30 845.15,-28.32 833.52,-26.4 822.52,-24.54"/>
<polygon fill="#63b8ff" stroke="#63b8ff" points="1148.59,-74.9 1158.96,-72.74 1149.5,-67.96 1148.59,-74.9"/>
</a>
</g>
</g>
<!-- Node7 -->
<g id="Node000007" class="node">
<title>Node7</title>
<g id="a_Node000007"><a xlink:href="StaticPageHandler_8cpp.html" target="_top" xlink:title=" ">
<polygon fill="white" stroke="#666666" points="1009,-30 865,-30 865,0 1009,0 1009,-30"/>
<text text-anchor="start" x="873" y="-18" font-family="Helvetica,sans-Serif" font-size="10.00">srcs/dispatcher/StaticPage</text>
<text text-anchor="middle" x="937" y="-7" font-family="Helvetica,sans-Serif" font-size="10.00">Handler.cpp</text>
</a>
</g>
</g>
<!-- Node1&#45;&gt;Node7 -->
<g id="edge6_Node000001_Node000007" class="edge">
<title>Node1&#45;&gt;Node7</title>
<g id="a_edge6_Node000001_Node000007"><a xlink:title=" ">
<path fill="none" stroke="#63b8ff" d="M1148.91,-64.79C1103.13,-54.25 1042.63,-40.32 998,-30.04"/>
<polygon fill="#63b8ff" stroke="#63b8ff" points="1148.21,-68.22 1158.74,-67.05 1149.78,-61.39 1148.21,-68.22"/>
</a>
</g>
</g>
<!-- Node8 -->
<g id="Node000008" class="node">
<title>Node8</title>
<g id="a_Node000008"><a xlink:href="UploadHandler_8cpp.html" target="_top" xlink:title=" ">
<polygon fill="white" stroke="#666666" points="1212.5,-24.5 1027.5,-24.5 1027.5,-5.5 1212.5,-5.5 1212.5,-24.5"/>
<text text-anchor="middle" x="1120" y="-12.5" font-family="Helvetica,sans-Serif" font-size="10.00">srcs/dispatcher/UploadHandler.cpp</text>
</a>
</g>
</g>
<!-- Node1&#45;&gt;Node8 -->
<g id="edge7_Node000001_Node000008" class="edge">
<title>Node1&#45;&gt;Node8</title>
<g id="a_edge7_Node000001_Node000008"><a xlink:title=" ">
<path fill="none" stroke="#63b8ff" d="M1185.61,-60.2C1167.93,-48.29 1146.32,-33.73 1132.85,-24.66"/>
<polygon fill="#63b8ff" stroke="#63b8ff" points="1183.67,-63.11 1193.92,-65.8 1187.58,-57.31 1183.67,-63.11"/>
</a>
</g>
</g>
<!-- Node9 -->
<g id="Node000009" class="node">
<title>Node9</title>
<g id="a_Node000009"><a xlink:href="ClientConnection_8cpp.html" target="_top" xlink:title=" ">
<polygon fill="white" stroke="#666666" points="1391.5,-24.5 1230.5,-24.5 1230.5,-5.5 1391.5,-5.5 1391.5,-24.5"/>
<text text-anchor="middle" x="1311" y="-12.5" font-family="Helvetica,sans-Serif" font-size="10.00">srcs/init/ClientConnection.cpp</text>
</a>
</g>
</g>
<!-- Node1&#45;&gt;Node9 -->
<g id="edge8_Node000001_Node000009" class="edge">
<title>Node1&#45;&gt;Node9</title>
<g id="a_edge8_Node000001_Node000009"><a xlink:title=" ">
<path fill="none" stroke="#63b8ff" d="M1244.7,-60.2C1262.57,-48.29 1284.4,-33.73 1298.01,-24.66"/>
<polygon fill="#63b8ff" stroke="#63b8ff" points="1242.68,-57.34 1236.31,-65.8 1246.57,-63.16 1242.68,-57.34"/>
</a>
</g>
</g>
<!-- Node10 -->
<g id="Node000010" class="node">
<title>Node10</title>
<g id="a_Node000010"><a xlink:href="ServerSocket_8cpp.html" target="_top" xlink:title=" ">
<polygon fill="white" stroke="#666666" points="1552,-24.5 1410,-24.5 1410,-5.5 1552,-5.5 1552,-24.5"/>
<text text-anchor="middle" x="1481" y="-12.5" font-family="Helvetica,sans-Serif" font-size="10.00">srcs/init/ServerSocket.cpp</text>
</a>
</g>
</g>
<!-- Node1&#45;&gt;Node10 -->
<g id="edge9_Node000001_Node000010" class="edge">
<title>Node1&#45;&gt;Node10</title>
<g id="a_edge9_Node000001_Node000010"><a xlink:title=" ">
<path fill="none" stroke="#63b8ff" d="M1280.89,-64.15C1332.88,-51.64 1403.4,-34.67 1445.36,-24.58"/>
<polygon fill="#63b8ff" stroke="#63b8ff" points="1279.99,-60.76 1271.09,-66.51 1281.63,-67.57 1279.99,-60.76"/>
</a>
</g>
</g>
<!-- Node11 -->
<g id="Node000011" class="node">
<title>Node11</title>
<g id="a_Node000011"><a xlink:href="WebServer_8cpp.html" target="_top" xlink:title=" ">
<polygon fill="white" stroke="#666666" points="1700,-24.5 1570,-24.5 1570,-5.5 1700,-5.5 1700,-24.5"/>
<text text-anchor="middle" x="1635" y="-12.5" font-family="Helvetica,sans-Serif" font-size="10.00">srcs/init/WebServer.cpp</text>
</a>
</g>
</g>
<!-- Node1&#45;&gt;Node11 -->
<g id="edge10_Node000001_Node000011" class="edge">
<title>Node1&#45;&gt;Node11</title>
<g id="a_edge10_Node000001_Node000011"><a xlink:title=" ">
<path fill="none" stroke="#63b8ff" d="M1281.12,-71.32C1350.85,-61.95 1463.85,-46.2 1561,-30 1570.93,-28.34 1581.58,-26.42 1591.62,-24.53"/>
<polygon fill="#63b8ff" stroke="#63b8ff" points="1280.6,-67.85 1271.15,-72.65 1281.52,-74.79 1280.6,-67.85"/>
</a>
</g>
</g>
<!-- Node12 -->
<g id="Node000012" class="node">
<title>Node12</title>
<g id="a_Node000012"><a xlink:href="HttpRequest_8cpp.html" target="_top" xlink:title=" ">
<polygon fill="white" stroke="#666666" points="1878,-24.5 1718,-24.5 1718,-5.5 1878,-5.5 1878,-24.5"/>
<text text-anchor="middle" x="1798" y="-12.5" font-family="Helvetica,sans-Serif" font-size="10.00">srcs/request/HttpRequest.cpp</text>
</a>
</g>
</g>
<!-- Node1&#45;&gt;Node12 -->
<g id="edge11_Node000001_Node000012" class="edge">
<title>Node1&#45;&gt;Node12</title>
<g id="a_edge11_Node000001_Node000012"><a xlink:title=" ">
<path fill="none" stroke="#63b8ff" d="M1281.07,-74.48C1375.95,-66.29 1556.19,-49.74 1709,-30 1721.25,-28.42 1734.42,-26.48 1746.77,-24.55"/>
<polygon fill="#63b8ff" stroke="#63b8ff" points="1280.71,-71 1271.05,-75.34 1281.31,-77.97 1280.71,-71"/>
</a>
</g>
</g>
<!-- Node13 -->
<g id="Node000013" class="node">
<title>Node13</title>
<g id="a_Node000013"><a xlink:href="RequestParse_8cpp.html" target="_top" xlink:title=" ">
<polygon fill="white" stroke="#666666" points="2061.5,-24.5 1896.5,-24.5 1896.5,-5.5 2061.5,-5.5 2061.5,-24.5"/>
<text text-anchor="middle" x="1979" y="-12.5" font-family="Helvetica,sans-Serif" font-size="10.00">srcs/request/RequestParse.cpp</text>
</a>
</g>
</g>
<!-- Node1&#45;&gt;Node13 -->
<g id="edge12_Node000001_Node000013" class="edge">
<title>Node1&#45;&gt;Node13</title>
<g id="a_edge12_Node000001_Node000013"><a xlink:title=" ">
<path fill="none" stroke="#63b8ff" d="M1281.53,-76.75C1402.38,-70.46 1665.89,-55.01 1887,-30 1900.16,-28.51 1914.33,-26.54 1927.52,-24.55"/>
<polygon fill="#63b8ff" stroke="#63b8ff" points="1281.14,-73.26 1271.33,-77.27 1281.5,-80.25 1281.14,-73.26"/>
</a>
</g>
</g>
<!-- Node14 -->
<g id="Node000014" class="node">
<title>Node14</title>
<g id="a_Node000014"><a xlink:href="ResponseBuilder_8cpp.html" target="_top" xlink:title=" ">
<polygon fill="white" stroke="#666666" points="2268,-24.5 2080,-24.5 2080,-5.5 2268,-5.5 2268,-24.5"/>
<text text-anchor="middle" x="2174" y="-12.5" font-family="Helvetica,sans-Serif" font-size="10.00">srcs/response/ResponseBuilder.cpp</text>
</a>
</g>
</g>
<!-- Node1&#45;&gt;Node14 -->
<g id="edge13_Node000001_Node000014" class="edge">
<title>Node1&#45;&gt;Node14</title>
<g id="a_edge13_Node000001_Node000014"><a xlink:title=" ">
<path fill="none" stroke="#63b8ff" d="M1281.2,-77.87C1425.14,-72.84 1777.27,-58.5 2071,-30 2086,-28.54 2102.17,-26.55 2117.16,-24.52"/>
<polygon fill="#63b8ff" stroke="#63b8ff" points="1281.07,-74.37 1271.2,-78.21 1281.32,-81.36 1281.07,-74.37"/>
</a>
</g>
</g>
<!-- Node15 -->
<g id="Node000015" class="node">
<title>Node15</title>
<g id="a_Node000015"><a xlink:href="Signals_8cpp.html" target="_top" xlink:title=" ">
<polygon fill="white" stroke="#666666" points="2405.5,-24.5 2286.5,-24.5 2286.5,-5.5 2405.5,-5.5 2405.5,-24.5"/>
<text text-anchor="middle" x="2346" y="-12.5" font-family="Helvetica,sans-Serif" font-size="10.00">srcs/utils/Signals.cpp</text>
</a>
</g>
</g>
<!-- Node1&#45;&gt;Node15 -->
<g id="edge14_Node000001_Node000015" class="edge">
<title>Node1&#45;&gt;Node15</title>
<g id="a_edge14_Node000001_Node000015"><a xlink:title=" ">
<path fill="none" stroke="#63b8ff" d="M1281.24,-80.39C1448.74,-80.63 1902.47,-76.53 2277,-30 2287.55,-28.69 2298.9,-26.65 2309.29,-24.53"/>
<polygon fill="#63b8ff" stroke="#63b8ff" points="1281.11,-76.89 1271.1,-80.37 1281.1,-83.89 1281.11,-76.89"/>
</a>
</g>
</g>
</g>
</svg>
