<?xml version="1.0" encoding="UTF-8" standalone="no"?>
<!DOCTYPE svg PUBLIC "-//W3C//DTD SVG 1.1//EN"
 "http://www.w3.org/Graphics/SVG/1.1/DTD/svg11.dtd">
<!-- Generated by graphviz version 2.43.0 (0)
 -->
<!-- Title: trim_copy Pages: 1 -->
<svg width="1226pt" height="64pt"
 viewBox="0.00 0.00 1226.00 64.00" xmlns="http://www.w3.org/2000/svg" xmlns:xlink="http://www.w3.org/1999/xlink">
<g id="graph0" class="graph" transform="scale(1 1) rotate(0) translate(4 60)">
<title>trim_copy</title>
<!-- Node1 -->
<g id="Node000001" class="node">
<title>Node1</title>
<g id="a_Node000001"><a xlink:title="Returns a copy of a string with surrounding spaces and tabs removed.">
<polygon fill="#999999" stroke="#666666" points="1218,-37 1153,-37 1153,-18 1218,-18 1218,-37"/>
<text text-anchor="middle" x="1185.5" y="-25" font-family="Helvetica,sans-Serif" font-size="10.00">trim_copy</text>
</a>
</g>
</g>
<!-- Node2 -->
<g id="Node000002" class="node">
<title>Node2</title>
<g id="a_Node000002"><a xlink:href="classUploadHandler.html#ad0eb7d7f64f75abf8078116aab15987f" target="_top" xlink:title="Extracts the multipart boundary string from the Content&#45;Type header.">
<polygon fill="white" stroke="#666666" points="1117,-56 941,-56 941,-37 1117,-37 1117,-56"/>
<text text-anchor="middle" x="1029" y="-44" font-family="Helvetica,sans-Serif" font-size="10.00">UploadHandler::extractBoundary</text>
</a>
</g>
</g>
<!-- Node1&#45;&gt;Node2 -->
<g id="edge1_Node000001_Node000002" class="edge">
<title>Node1&#45;&gt;Node2</title>
<g id="a_edge1_Node000001_Node000002"><a xlink:title=" ">
<path fill="none" stroke="#63b8ff" d="M1142.79,-32.63C1131.85,-33.97 1119.7,-35.47 1107.55,-36.96"/>
<polygon fill="#63b8ff" stroke="#63b8ff" points="1143.36,-36.09 1152.86,-31.39 1142.51,-29.14 1143.36,-36.09"/>
</a>
</g>
</g>
<!-- Node9 -->
<g id="Node000009" class="node">
<title>Node9</title>
<g id="a_Node000009"><a xlink:href="classUploadHandler.html#a034aba7372669350a9287f13fe020dbd" target="_top" xlink:title="Parses an individual multipart section.">
<polygon fill="white" stroke="#666666" points="1099.5,-19 958.5,-19 958.5,0 1099.5,0 1099.5,-19"/>
<text text-anchor="middle" x="1029" y="-7" font-family="Helvetica,sans-Serif" font-size="10.00">UploadHandler::parsePart</text>
</a>
</g>
</g>
<!-- Node1&#45;&gt;Node9 -->
<g id="edge8_Node000001_Node000009" class="edge">
<title>Node1&#45;&gt;Node9</title>
<g id="a_edge8_Node000001_Node000009"><a xlink:title=" ">
<path fill="none" stroke="#63b8ff" d="M1142.62,-22.62C1129.32,-21.07 1114.24,-19.31 1099.53,-17.6"/>
<polygon fill="#63b8ff" stroke="#63b8ff" points="1142.52,-26.13 1152.86,-23.81 1143.33,-19.18 1142.52,-26.13"/>
</a>
</g>
</g>
<!-- Node3 -->
<g id="Node000003" class="node">
<title>Node3</title>
<g id="a_Node000003"><a xlink:href="classUploadHandler.html#aace5eebbfb696ffaf96a77319810cd21" target="_top" xlink:title="Parses the full multipart body into individual parts.">
<polygon fill="white" stroke="#666666" points="905,-37 738,-37 738,-18 905,-18 905,-37"/>
<text text-anchor="middle" x="821.5" y="-25" font-family="Helvetica,sans-Serif" font-size="10.00">UploadHandler::parseMultipart</text>
</a>
</g>
</g>
<!-- Node2&#45;&gt;Node3 -->
<g id="edge2_Node000002_Node000003" class="edge">
<title>Node2&#45;&gt;Node3</title>
<g id="a_edge2_Node000002_Node000003"><a xlink:title=" ">
<path fill="none" stroke="#63b8ff" d="M930.83,-37.52C922.26,-36.72 913.64,-35.93 905.21,-35.15"/>
<polygon fill="#63b8ff" stroke="#63b8ff" points="930.57,-41.01 940.85,-38.44 931.21,-34.04 930.57,-41.01"/>
</a>
</g>
</g>
<!-- Node4 -->
<g id="Node000004" class="node">
<title>Node4</title>
<g id="a_Node000004"><a xlink:href="classUploadHandler.html#ae9d6fd83c1ba35b23829b8f4f619127d" target="_top" xlink:title="Entry point for handling file uploads.">
<polygon fill="white" stroke="#666666" points="702,-37 574,-37 574,-18 702,-18 702,-37"/>
<text text-anchor="middle" x="638" y="-25" font-family="Helvetica,sans-Serif" font-size="10.00">UploadHandler::handle</text>
</a>
</g>
</g>
<!-- Node3&#45;&gt;Node4 -->
<g id="edge3_Node000003_Node000004" class="edge">
<title>Node3&#45;&gt;Node4</title>
<g id="a_edge3_Node000003_Node000004"><a xlink:title=" ">
<path fill="none" stroke="#63b8ff" d="M727.76,-27.5C719.05,-27.5 710.36,-27.5 702.02,-27.5"/>
<polygon fill="#63b8ff" stroke="#63b8ff" points="727.98,-31 737.98,-27.5 727.98,-24 727.98,-31"/>
</a>
</g>
</g>
<!-- Node5 -->
<g id="Node000005" class="node">
<title>Node5</title>
<g id="a_Node000005"><a xlink:href="classDispatcher.html#a13c8a2fd90033adf9788c8774c3f0f47" target="_top" xlink:title="Central dispatch routine that delegates HTTP requests to the appropriate handler.">
<polygon fill="white" stroke="#666666" points="538,-37 422,-37 422,-18 538,-18 538,-37"/>
<text text-anchor="middle" x="480" y="-25" font-family="Helvetica,sans-Serif" font-size="10.00">Dispatcher::dispatch</text>
</a>
</g>
</g>
<!-- Node4&#45;&gt;Node5 -->
<g id="edge4_Node000004_Node000005" class="edge">
<title>Node4&#45;&gt;Node5</title>
<g id="a_edge4_Node000004_Node000005"><a xlink:title=" ">
<path fill="none" stroke="#63b8ff" d="M563.92,-27.5C555.28,-27.5 546.57,-27.5 538.19,-27.5"/>
<polygon fill="#63b8ff" stroke="#63b8ff" points="564,-31 574,-27.5 564,-24 564,-31"/>
</a>
</g>
</g>
<!-- Node6 -->
<g id="Node000006" class="node">
<title>Node6</title>
<g id="a_Node000006"><a xlink:href="classWebServer.html#a8cbf37c0a840305ce15e8648566c9ce4" target="_top" xlink:title="Handles incoming data from a connected client.">
<polygon fill="white" stroke="#666666" points="386,-37 235,-37 235,-18 386,-18 386,-37"/>
<text text-anchor="middle" x="310.5" y="-25" font-family="Helvetica,sans-Serif" font-size="10.00">WebServer::receiveRequest</text>
</a>
</g>
</g>
<!-- Node5&#45;&gt;Node6 -->
<g id="edge5_Node000005_Node000006" class="edge">
<title>Node5&#45;&gt;Node6</title>
<g id="a_edge5_Node000005_Node000006"><a xlink:title=" ">
<path fill="none" stroke="#63b8ff" d="M411.72,-27.5C403.32,-27.5 394.69,-27.5 386.19,-27.5"/>
<polygon fill="#63b8ff" stroke="#63b8ff" points="411.82,-31 421.82,-27.5 411.82,-24 411.82,-31"/>
</a>
</g>
</g>
<!-- Node7 -->
<g id="Node000007" class="node">
<title>Node7</title>
<g id="a_Node000007"><a xlink:href="classWebServer.html#af39709e3744077e019aa76555f03a42e" target="_top" xlink:title="Main event loop — monitors sockets, dispatches requests, and handles responses.">
<polygon fill="white" stroke="#666666" points="199,-37 77,-37 77,-18 199,-18 199,-37"/>
<text text-anchor="middle" x="138" y="-25" font-family="Helvetica,sans-Serif" font-size="10.00">WebServer::runServer</text>
</a>
</g>
</g>
<!-- Node6&#45;&gt;Node7 -->
<g id="edge6_Node000006_Node000007" class="edge">
<title>Node6&#45;&gt;Node7</title>
<g id="a_edge6_Node000006_Node000007"><a xlink:title=" ">
<path fill="none" stroke="#63b8ff" d="M224.63,-27.5C216.02,-27.5 207.4,-27.5 199.13,-27.5"/>
<polygon fill="#63b8ff" stroke="#63b8ff" points="224.72,-31 234.72,-27.5 224.72,-24 224.72,-31"/>
</a>
</g>
</g>
<!-- Node8 -->
<g id="Node000008" class="node">
<title>Node8</title>
<g id="a_Node000008"><a xlink:href="main_8cpp.html#a3c04138a5bfe5d72780bb7e82a18e627" target="_top" xlink:title="Entry point of the Webservinho web server.">
<polygon fill="white" stroke="#666666" points="41,-37 0,-37 0,-18 41,-18 41,-37"/>
<text text-anchor="middle" x="20.5" y="-25" font-family="Helvetica,sans-Serif" font-size="10.00">main</text>
</a>
</g>
</g>
<!-- Node7&#45;&gt;Node8 -->
<g id="edge7_Node000007_Node000008" class="edge">
<title>Node7&#45;&gt;Node8</title>
<g id="a_edge7_Node000007_Node000008"><a xlink:title=" ">
<path fill="none" stroke="#63b8ff" d="M66.66,-27.5C57.35,-27.5 48.51,-27.5 41.15,-27.5"/>
<polygon fill="#63b8ff" stroke="#63b8ff" points="66.88,-31 76.88,-27.5 66.88,-24 66.88,-31"/>
</a>
</g>
</g>
<!-- Node9&#45;&gt;Node3 -->
<g id="edge9_Node000009_Node000003" class="edge">
<title>Node9&#45;&gt;Node3</title>
<g id="a_edge9_Node000009_Node000003"><a xlink:title=" ">
<path fill="none" stroke="#63b8ff" d="M948.26,-16.48C934.12,-17.72 919.37,-19.02 905.15,-20.26"/>
<polygon fill="#63b8ff" stroke="#63b8ff" points="948.77,-19.95 958.43,-15.59 948.16,-12.98 948.77,-19.95"/>
</a>
</g>
</g>
</g>
</svg>
