<?xml version="1.0" encoding="UTF-8" standalone="no"?>
<!DOCTYPE svg PUBLIC "-//W3C//DTD SVG 1.1//EN"
 "http://www.w3.org/Graphics/SVG/1.1/DTD/svg11.dtd">
<!-- Generated by graphviz version 2.43.0 (0)
 -->
<!-- Title: string_utils.hpp Pages: 1 -->
<svg width="1650pt" height="82pt"
 viewBox="0.00 0.00 1649.50 82.00" xmlns="http://www.w3.org/2000/svg" xmlns:xlink="http://www.w3.org/1999/xlink">
<g id="graph0" class="graph" transform="scale(1 1) rotate(0) translate(4 78)">
<title>string_utils.hpp</title>
<!-- Node1 -->
<g id="Node000001" class="node">
<title>Node1</title>
<g id="a_Node000001"><a xlink:title="Collection of inline string utility functions used across Webservinho.">
<polygon fill="#999999" stroke="#666666" points="893,-74 801,-74 801,-55 893,-55 893,-74"/>
<text text-anchor="middle" x="847" y="-62" font-family="Helvetica,sans-Serif" font-size="10.00">string_utils.hpp</text>
</a>
</g>
</g>
<!-- Node2 -->
<g id="Node000002" class="node">
<title>Node2</title>
<g id="a_Node000002"><a xlink:href="AutoIndexHandler_8cpp.html" target="_top" xlink:title=" ">
<polygon fill="white" stroke="#666666" points="124,-19 0,-19 0,0 124,0 124,-19"/>
<text text-anchor="middle" x="62" y="-7" font-family="Helvetica,sans-Serif" font-size="10.00">AutoIndexHandler.cpp</text>
</a>
</g>
</g>
<!-- Node1&#45;&gt;Node2 -->
<g id="edge1_Node000001_Node000002" class="edge">
<title>Node1&#45;&gt;Node2</title>
<g id="a_edge1_Node000001_Node000002"><a xlink:title=" ">
<path fill="none" stroke="#63b8ff" d="M790.89,-61.09C670.31,-55.67 377.58,-41.24 133,-19 130.16,-18.74 127.25,-18.46 124.32,-18.16"/>
<polygon fill="#63b8ff" stroke="#63b8ff" points="790.84,-64.59 800.99,-61.54 791.15,-57.6 790.84,-64.59"/>
</a>
</g>
</g>
<!-- Node3 -->
<g id="Node000003" class="node">
<title>Node3</title>
<g id="a_Node000003"><a xlink:href="CgiHandler_8cpp.html" target="_top" xlink:title=" ">
<polygon fill="white" stroke="#666666" points="232,-19 142,-19 142,0 232,0 232,-19"/>
<text text-anchor="middle" x="187" y="-7" font-family="Helvetica,sans-Serif" font-size="10.00">CgiHandler.cpp</text>
</a>
</g>
</g>
<!-- Node1&#45;&gt;Node3 -->
<g id="edge2_Node000001_Node000003" class="edge">
<title>Node1&#45;&gt;Node3</title>
<g id="a_edge2_Node000001_Node000003"><a xlink:title=" ">
<path fill="none" stroke="#63b8ff" d="M790.62,-60.92C683.34,-55.67 442.57,-42.23 241,-19 238.08,-18.66 235.07,-18.28 232.04,-17.88"/>
<polygon fill="#63b8ff" stroke="#63b8ff" points="790.73,-64.43 800.88,-61.42 791.07,-57.44 790.73,-64.43"/>
</a>
</g>
</g>
<!-- Node4 -->
<g id="Node000004" class="node">
<title>Node4</title>
<g id="a_Node000004"><a xlink:href="ClientConnection_8cpp.html" target="_top" xlink:title=" ">
<polygon fill="white" stroke="#666666" points="370,-19 250,-19 250,0 370,0 370,-19"/>
<text text-anchor="middle" x="310" y="-7" font-family="Helvetica,sans-Serif" font-size="10.00">ClientConnection.cpp</text>
</a>
</g>
</g>
<!-- Node1&#45;&gt;Node4 -->
<g id="edge3_Node000001_Node000004" class="edge">
<title>Node1&#45;&gt;Node4</title>
<g id="a_edge3_Node000001_Node000004"><a xlink:title=" ">
<path fill="none" stroke="#63b8ff" d="M790.76,-58.66C702.83,-50.98 527.48,-35.2 379,-19 376.12,-18.69 373.17,-18.36 370.2,-18.02"/>
<polygon fill="#63b8ff" stroke="#63b8ff" points="790.52,-62.15 800.79,-59.53 791.13,-55.18 790.52,-62.15"/>
</a>
</g>
</g>
<!-- Node5 -->
<g id="Node000005" class="node">
<title>Node5</title>
<g id="a_Node000005"><a xlink:href="Dispatcher_8cpp.html" target="_top" xlink:title=" ">
<polygon fill="white" stroke="#666666" points="477.5,-19 388.5,-19 388.5,0 477.5,0 477.5,-19"/>
<text text-anchor="middle" x="433" y="-7" font-family="Helvetica,sans-Serif" font-size="10.00">Dispatcher.cpp</text>
</a>
</g>
</g>
<!-- Node1&#45;&gt;Node5 -->
<g id="edge4_Node000001_Node000005" class="edge">
<title>Node1&#45;&gt;Node5</title>
<g id="a_edge4_Node000001_Node000005"><a xlink:title=" ">
<path fill="none" stroke="#63b8ff" d="M790.69,-57.2C719.59,-49.1 593.56,-34.25 486,-19 483.23,-18.61 480.38,-18.19 477.52,-17.76"/>
<polygon fill="#63b8ff" stroke="#63b8ff" points="790.44,-60.7 800.77,-58.35 791.23,-53.74 790.44,-60.7"/>
</a>
</g>
</g>
<!-- Node6 -->
<g id="Node000006" class="node">
<title>Node6</title>
<g id="a_Node000006"><a xlink:href="HttpRequest_8cpp.html" target="_top" xlink:title=" ">
<polygon fill="white" stroke="#666666" points="593,-19 495,-19 495,0 593,0 593,-19"/>
<text text-anchor="middle" x="544" y="-7" font-family="Helvetica,sans-Serif" font-size="10.00">HttpRequest.cpp</text>
</a>
</g>
</g>
<!-- Node1&#45;&gt;Node6 -->
<g id="edge5_Node000001_Node000006" class="edge">
<title>Node1&#45;&gt;Node6</title>
<g id="a_edge5_Node000001_Node000006"><a xlink:title=" ">
<path fill="none" stroke="#63b8ff" d="M791.07,-53.72C734.17,-43.76 646.87,-28.49 592.72,-19.02"/>
<polygon fill="#63b8ff" stroke="#63b8ff" points="790.53,-57.17 800.98,-55.45 791.73,-50.28 790.53,-57.17"/>
</a>
</g>
</g>
<!-- Node7 -->
<g id="Node000007" class="node">
<title>Node7</title>
<g id="a_Node000007"><a xlink:href="RequestParse_8cpp.html" target="_top" xlink:title=" ">
<polygon fill="white" stroke="#666666" points="714.5,-19 611.5,-19 611.5,0 714.5,0 714.5,-19"/>
<text text-anchor="middle" x="663" y="-7" font-family="Helvetica,sans-Serif" font-size="10.00">RequestParse.cpp</text>
</a>
</g>
</g>
<!-- Node1&#45;&gt;Node7 -->
<g id="edge6_Node000001_Node000007" class="edge">
<title>Node1&#45;&gt;Node7</title>
<g id="a_edge6_Node000001_Node000007"><a xlink:title=" ">
<path fill="none" stroke="#63b8ff" d="M807.71,-52.18C773.3,-42.27 724.04,-28.08 692.79,-19.08"/>
<polygon fill="#63b8ff" stroke="#63b8ff" points="806.86,-55.58 817.44,-54.98 808.8,-48.85 806.86,-55.58"/>
</a>
</g>
</g>
<!-- Node8 -->
<g id="Node000008" class="node">
<title>Node8</title>
<g id="a_Node000008"><a xlink:href="ResponseBuilder_8cpp.html" target="_top" xlink:title=" ">
<polygon fill="white" stroke="#666666" points="851,-19 733,-19 733,0 851,0 851,-19"/>
<text text-anchor="middle" x="792" y="-7" font-family="Helvetica,sans-Serif" font-size="10.00">ResponseBuilder.cpp</text>
</a>
</g>
</g>
<!-- Node1&#45;&gt;Node8 -->
<g id="edge7_Node000001_Node000008" class="edge">
<title>Node1&#45;&gt;Node8</title>
<g id="a_edge7_Node000001_Node000008"><a xlink:title=" ">
<path fill="none" stroke="#63b8ff" d="M830.71,-47.8C820.96,-38.41 808.95,-26.83 800.91,-19.09"/>
<polygon fill="#63b8ff" stroke="#63b8ff" points="828.29,-50.33 837.92,-54.75 833.15,-45.29 828.29,-50.33"/>
</a>
</g>
</g>
<!-- Node9 -->
<g id="Node000009" class="node">
<title>Node9</title>
<g id="a_Node000009"><a xlink:href="Router_8cpp.html" target="_top" xlink:title=" ">
<polygon fill="white" stroke="#666666" points="937,-19 869,-19 869,0 937,0 937,-19"/>
<text text-anchor="middle" x="903" y="-7" font-family="Helvetica,sans-Serif" font-size="10.00">Router.cpp</text>
</a>
</g>
</g>
<!-- Node1&#45;&gt;Node9 -->
<g id="edge8_Node000001_Node000009" class="edge">
<title>Node1&#45;&gt;Node9</title>
<g id="a_edge8_Node000001_Node000009"><a xlink:title=" ">
<path fill="none" stroke="#63b8ff" d="M863.33,-48.04C873.26,-38.64 885.59,-26.98 893.84,-19.17"/>
<polygon fill="#63b8ff" stroke="#63b8ff" points="860.85,-45.57 856,-54.98 865.67,-50.65 860.85,-45.57"/>
</a>
</g>
</g>
<!-- Node10 -->
<g id="Node000010" class="node">
<title>Node10</title>
<g id="a_Node000010"><a xlink:href="ServerConfig_8cpp.html" target="_top" xlink:title=" ">
<polygon fill="white" stroke="#666666" points="1054.5,-19 955.5,-19 955.5,0 1054.5,0 1054.5,-19"/>
<text text-anchor="middle" x="1005" y="-7" font-family="Helvetica,sans-Serif" font-size="10.00">ServerConfig.cpp</text>
</a>
</g>
</g>
<!-- Node1&#45;&gt;Node10 -->
<g id="edge9_Node000001_Node000010" class="edge">
<title>Node1&#45;&gt;Node10</title>
<g id="a_edge9_Node000001_Node000010"><a xlink:title=" ">
<path fill="none" stroke="#63b8ff" d="M881.88,-51.8C911.37,-41.91 952.93,-27.97 979.42,-19.08"/>
<polygon fill="#63b8ff" stroke="#63b8ff" points="880.75,-48.49 872.39,-54.98 882.98,-55.12 880.75,-48.49"/>
</a>
</g>
</g>
<!-- Node11 -->
<g id="Node000011" class="node">
<title>Node11</title>
<g id="a_Node000011"><a xlink:href="ServerSocket_8cpp.html" target="_top" xlink:title=" ">
<polygon fill="white" stroke="#666666" points="1173.5,-19 1072.5,-19 1072.5,0 1173.5,0 1173.5,-19"/>
<text text-anchor="middle" x="1123" y="-7" font-family="Helvetica,sans-Serif" font-size="10.00">ServerSocket.cpp</text>
</a>
</g>
</g>
<!-- Node1&#45;&gt;Node11 -->
<g id="edge10_Node000001_Node000011" class="edge">
<title>Node1&#45;&gt;Node11</title>
<g id="a_edge10_Node000001_Node000011"><a xlink:title=" ">
<path fill="none" stroke="#63b8ff" d="M901.34,-53.07C953.08,-43.13 1030.03,-28.35 1078.31,-19.08"/>
<polygon fill="#63b8ff" stroke="#63b8ff" points="900.5,-49.66 891.34,-54.98 901.82,-56.54 900.5,-49.66"/>
</a>
</g>
</g>
<!-- Node12 -->
<g id="Node000012" class="node">
<title>Node12</title>
<g id="a_Node000012"><a xlink:href="Signals_8cpp.html" target="_top" xlink:title=" ">
<polygon fill="white" stroke="#666666" points="1264,-19 1192,-19 1192,0 1264,0 1264,-19"/>
<text text-anchor="middle" x="1228" y="-7" font-family="Helvetica,sans-Serif" font-size="10.00">Signals.cpp</text>
</a>
</g>
</g>
<!-- Node1&#45;&gt;Node12 -->
<g id="edge11_Node000001_Node000012" class="edge">
<title>Node1&#45;&gt;Node12</title>
<g id="a_edge11_Node000001_Node000012"><a xlink:title=" ">
<path fill="none" stroke="#63b8ff" d="M903.35,-57C970.21,-49.06 1084.97,-34.74 1183,-19 1185.83,-18.55 1188.75,-18.05 1191.68,-17.54"/>
<polygon fill="#63b8ff" stroke="#63b8ff" points="902.56,-53.57 893.04,-58.22 903.38,-60.52 902.56,-53.57"/>
</a>
</g>
</g>
<!-- Node13 -->
<g id="Node000013" class="node">
<title>Node13</title>
<g id="a_Node000013"><a xlink:href="StaticPageHandler_8cpp.html" target="_top" xlink:title=" ">
<polygon fill="white" stroke="#666666" points="1407.5,-19 1282.5,-19 1282.5,0 1407.5,0 1407.5,-19"/>
<text text-anchor="middle" x="1345" y="-7" font-family="Helvetica,sans-Serif" font-size="10.00">StaticPageHandler.cpp</text>
</a>
</g>
</g>
<!-- Node1&#45;&gt;Node13 -->
<g id="edge12_Node000001_Node000013" class="edge">
<title>Node1&#45;&gt;Node13</title>
<g id="a_edge12_Node000001_Node000013"><a xlink:title=" ">
<path fill="none" stroke="#63b8ff" d="M903.08,-57.88C984.57,-49.67 1140.47,-33.74 1273,-19 1276,-18.67 1279.07,-18.32 1282.18,-17.97"/>
<polygon fill="#63b8ff" stroke="#63b8ff" points="902.64,-54.41 893.04,-58.9 903.34,-61.38 902.64,-54.41"/>
</a>
</g>
</g>
<!-- Node14 -->
<g id="Node000014" class="node">
<title>Node14</title>
<g id="a_Node000014"><a xlink:href="UploadHandler_8cpp.html" target="_top" xlink:title=" ">
<polygon fill="white" stroke="#666666" points="1534.5,-19 1425.5,-19 1425.5,0 1534.5,0 1534.5,-19"/>
<text text-anchor="middle" x="1480" y="-7" font-family="Helvetica,sans-Serif" font-size="10.00">UploadHandler.cpp</text>
</a>
</g>
</g>
<!-- Node1&#45;&gt;Node14 -->
<g id="edge13_Node000001_Node000014" class="edge">
<title>Node1&#45;&gt;Node14</title>
<g id="a_edge13_Node000001_Node000014"><a xlink:title=" ">
<path fill="none" stroke="#63b8ff" d="M903.38,-60.15C1005.81,-53.84 1229.25,-38.98 1417,-19 1419.74,-18.71 1422.55,-18.39 1425.39,-18.06"/>
<polygon fill="#63b8ff" stroke="#63b8ff" points="903.03,-56.67 893.26,-60.77 903.45,-63.65 903.03,-56.67"/>
</a>
</g>
</g>
<!-- Node15 -->
<g id="Node000015" class="node">
<title>Node15</title>
<g id="a_Node000015"><a xlink:href="WebServer_8cpp.html" target="_top" xlink:title=" ">
<polygon fill="white" stroke="#666666" points="1641.5,-19 1552.5,-19 1552.5,0 1641.5,0 1641.5,-19"/>
<text text-anchor="middle" x="1597" y="-7" font-family="Helvetica,sans-Serif" font-size="10.00">WebServer.cpp</text>
</a>
</g>
</g>
<!-- Node1&#45;&gt;Node15 -->
<g id="edge14_Node000001_Node000015" class="edge">
<title>Node1&#45;&gt;Node15</title>
<g id="a_edge14_Node000001_Node000015"><a xlink:title=" ">
<path fill="none" stroke="#63b8ff" d="M903.52,-61.72C1022.38,-57.57 1306.84,-45.53 1544,-19 1546.69,-18.7 1549.44,-18.36 1552.22,-17.99"/>
<polygon fill="#63b8ff" stroke="#63b8ff" points="903.09,-58.23 893.21,-62.07 903.33,-65.23 903.09,-58.23"/>
</a>
</g>
</g>
</g>
</svg>
